M48
; DRILL file {KiCad 8.0.1} date 2024-04-07T01:07:49+0800
; FORMAT={-:-/ absolute / inch / decimal}
; #@! TF.CreationDate,2024-04-07T01:07:49+08:00
; #@! TF.GenerationSoftware,Kicad,Pcbnew,8.0.1
; #@! TF.FileFunction,Plated,1,2,PTH
FMAT,2
INCH
; #@! TA.AperFunction,Plated,PTH,ViaDrill
T1C0.0157
; #@! TA.AperFunction,Plated,PTH,ComponentDrill
T2C0.0236
; #@! TA.AperFunction,Plated,PTH,ComponentDrill
T3C0.0394
; #@! TA.AperFunction,Plated,PTH,ComponentDrill
T4C0.0433
; #@! TA.AperFunction,Plated,PTH,ComponentDrill
T5C0.0469
; #@! TA.AperFunction,Plated,PTH,ComponentDrill
T6C0.0787
; #@! TA.AperFunction,Plated,PTH,ComponentDrill
T7C0.1693
%
G90
G05
T1
X1.6378Y-3.8071
X1.6811Y-3.6772
X1.7165Y-3.3228
X1.7244Y-2.6181
X1.7244Y-5.5197
X1.7913Y-2.2205
X1.8071Y-2.5945
X1.8543Y-5.4646
X1.8622Y-4.0925
X1.8976Y-4.8228
X1.9016Y-3.6811
X1.9016Y-6.8583
X1.9055Y-4.6535
X1.9055Y-4.748
X2.0Y-3.248
X2.0335Y-2.5768
X2.0354Y-5.877
X2.0472Y-3.2323
X2.0492Y-6.9567
X2.0492Y-7.0354
X2.0502Y-5.8337
X2.0512Y-2.6183
X2.0551Y-3.685
X2.0748Y-3.7323
X2.0827Y-5.9508
X2.0866Y-3.2244
X2.122Y-6.2441
X2.126Y-2.7598
X2.128Y-3.9547
X2.1614Y-5.2992
X2.1891Y-2.4803
X2.2092Y-6.9173
X2.2126Y-4.6732
X2.2131Y-7.0591
X2.2165Y-4.815
X2.2205Y-6.2156
X2.221Y-6.9921
X2.2244Y-3.5512
X2.2244Y-4.748
X2.2249Y-5.9409
X2.2249Y-5.8701
X2.2283Y-3.6969
X2.2283Y-5.7835
X2.2284Y-3.626
X2.2303Y-4.2913
X2.2677Y-3.2677
X2.2795Y-5.3898
X2.2835Y-2.3465
X2.2874Y-7.3386
X2.2953Y-2.6378
X2.3031Y-2.9016
X2.3386Y-2.1024
X2.3583Y-3.9843
X2.3661Y-5.0945
X2.3701Y-2.8425
X2.4331Y-2.3504
X2.4449Y-2.622
X2.4567Y-6.1929
X2.4724Y-6.2874
X2.519Y-2.4739
X2.5197Y-6.189
X2.5236Y-3.0197
X2.5866Y-3.4646
X2.5906Y-2.1496
X2.6099Y-5.2838
X2.6142Y-3.878
X2.6181Y-3.5945
X2.622Y-4.2126
X2.6732Y-3.7441
X2.7126Y-3.0472
X2.7165Y-6.9724
X2.7589Y-3.8081
X2.7598Y-6.0709
X2.7618Y-6.1142
X2.7648Y-6.5266
X2.7756Y-5.6811
X2.8022Y-3.6781
X2.8218Y-6.4646
X2.8307Y-3.1535
X2.8386Y-3.3858
X2.8386Y-3.9409
X2.8671Y-6.2559
X2.874Y-2.8386
X2.878Y-3.0
X2.8854Y-6.1964
X2.8858Y-2.3661
X2.9173Y-5.4449
X2.9213Y-5.5394
X2.9289Y-3.2835
X2.9291Y-2.0276
X2.9488Y-3.063
X3.0079Y-5.4567
X3.0177Y-6.8937
X3.0197Y-4.8307
X3.0207Y-3.6801
X3.0226Y-7.0719
X3.0266Y-4.749
X3.0276Y-4.6496
X3.0276Y-6.9882
X3.0315Y-2.8898
X3.0551Y-6.5039
X3.0748Y-5.5197
X3.0787Y-4.0276
X3.0866Y-6.2559
X3.1339Y-3.2707
X3.1565Y-5.878
X3.1713Y-5.8347
X3.1772Y-3.2707
X3.1772Y-3.686
X3.185Y-7.3307
X3.1959Y-3.7333
X3.2038Y-5.9518
X3.2165Y-3.2707
X3.2323Y-4.1772
X3.2953Y-3.2165
X3.3085Y-2.4278
X3.3302Y-6.9183
X3.3337Y-4.6742
X3.3342Y-7.06
X3.3376Y-4.8159
X3.3386Y-5.3661
X3.3419Y-2.4927
X3.342Y-6.9931
X3.3455Y-4.749
X3.346Y-5.9419
X3.346Y-5.8711
X3.3494Y-3.6978
X3.3494Y-3.627
X3.3504Y-5.7844
X3.3543Y-3.5404
X3.3567Y-2.6024
X3.365Y-2.9882
X3.365Y-3.205
X3.3782Y-2.8383
X3.3976Y-2.2165
X3.4094Y-2.1732
X3.4094Y-5.2913
X3.4094Y-6.2283
X3.4236Y-2.622
X3.4331Y-3.9843
X3.437Y-7.3622
X3.4528Y-5.1024
X3.4827Y-2.7835
X3.5276Y-5.563
X3.5315Y-6.2992
X3.5512Y-4.1929
X3.5591Y-5.252
X3.5709Y-6.5748
X3.5748Y-3.2726
X3.5787Y-6.2283
X3.5787Y-6.3819
X3.5811Y-2.4764
X3.5887Y-2.4275
X3.6289Y-3.0197
X3.6392Y-2.7986
X3.6417Y-4.2598
X3.6417Y-6.6693
X3.6496Y-2.0512
X3.6575Y-3.4173
X3.6575Y-5.5591
X3.6693Y-5.252
X3.6772Y-5.3346
X3.685Y-4.1929
X3.6913Y-2.6299
X3.7008Y-6.3858
X3.7247Y-5.4722
X3.7323Y-3.3465
X3.7362Y-5.0079
X3.7598Y-2.0551
X3.8035Y-2.8248
X3.811Y-6.2008
X3.815Y-6.1181
X3.8268Y-4.189
X3.8268Y-6.248
X3.8346Y-4.0906
X3.8346Y-6.4803
X3.837Y-2.6142
X3.8409Y-2.3583
X3.8504Y-5.3425
X3.874Y-4.0591
X3.9055Y-4.6811
X3.9073Y-2.4796
X3.9094Y-5.374
X3.9134Y-4.0039
X3.9291Y-6.2559
X3.9409Y-3.374
X3.9449Y-6.4961
X3.9478Y-4.2047
X3.9488Y-5.2786
X3.9606Y-5.5591
X3.9606Y-6.2126
X3.9685Y-3.5591
X3.9685Y-3.622
X3.9764Y-4.3386
X3.9803Y-5.1339
X3.9843Y-6.6142
X3.9882Y-5.4449
X3.9902Y-4.0413
X4.0118Y-2.185
X4.0236Y-6.2087
X4.0315Y-5.4813
X4.0654Y-2.8425
X4.0827Y-3.185
X4.0906Y-5.2756
X4.1063Y-3.0984
X4.1181Y-6.5433
X4.122Y-5.4528
X4.126Y-5.3071
X4.1417Y-3.6772
X4.1417Y-6.8819
X4.1417Y-6.9921
X4.1417Y-7.0669
X4.1457Y-4.811
X4.1476Y-4.752
X4.1486Y-4.6526
X4.1614Y-6.3031
X4.1782Y-3.9467
X4.1812Y-5.5157
X4.1969Y-4.3898
X4.2038Y-5.3425
X4.2047Y-4.2962
X4.2165Y-3.252
X4.2165Y-6.4488
X4.2165Y-6.5827
X4.2244Y-3.9567
X4.2323Y-5.188
X4.2362Y-6.2087
X4.2402Y-5.3898
X4.2441Y-5.5118
X4.2717Y-3.252
X4.2717Y-6.5108
X4.2738Y-3.9546
X4.2776Y-5.8809
X4.2924Y-5.8376
X4.2953Y-3.689
X4.3031Y-5.0787
X4.3043Y-4.2992
X4.3169Y-3.7362
X4.3248Y-5.9547
X4.3287Y-3.2559
X4.3504Y-5.2047
X4.3543Y-3.0354
X4.3605Y-2.8881
X4.3839Y-3.9861
X4.4067Y-3.9231
X4.4513Y-6.9213
X4.4547Y-4.6772
X4.4552Y-7.063
X4.4587Y-4.8189
X4.4631Y-6.9961
X4.4646Y-4.248
X4.4665Y-4.752
X4.467Y-5.9449
X4.467Y-5.874
X4.4685Y-3.7087
X4.4724Y-3.5551
X4.4724Y-3.6378
X4.4764Y-5.7874
X4.4803Y-5.5197
X4.4921Y-3.2795
X4.5079Y-2.4803
X4.5197Y-5.1024
X4.5276Y-3.9528
X4.5394Y-6.2362
X4.5512Y-5.3858
X4.5537Y-2.8396
X4.5906Y-5.4183
X4.5906Y-7.3386
X4.6417Y-5.1378
X4.6457Y-5.5748
X4.6732Y-3.5394
X4.7037Y-3.8898
X4.7047Y-6.2087
X4.7126Y-5.6535
X4.7402Y-2.4331
X4.7441Y-3.8228
X4.748Y-5.374
X4.7638Y-2.5472
X4.7638Y-4.9882
X4.7751Y-6.3932
X4.7756Y-2.4803
X4.782Y-6.626
X4.7992Y-4.5276
X4.8228Y-2.248
X4.8307Y-4.2126
X4.8425Y-6.185
X4.878Y-2.9134
X4.878Y-3.0709
X4.878Y-3.1772
X4.878Y-5.9567
X4.8819Y-2.7717
X4.8918Y-4.0157
X4.9094Y-5.1811
X4.9213Y-5.7205
X4.9488Y-2.4843
X4.9553Y-1.9854
X4.9567Y-2.5472
X4.9685Y-5.0984
X4.9685Y-5.2874
X5.0192Y-2.3499
X5.0426Y-6.1851
X5.0433Y-3.311
X5.0591Y-2.0709
X5.0591Y-6.6772
X5.0699Y-4.1614
X5.0906Y-3.3909
X5.0984Y-3.5984
X5.1339Y-4.3386
X5.1457Y-5.5157
X5.1535Y-4.0866
X5.1772Y-4.0354
X5.1811Y-2.626
X5.189Y-2.8307
X5.1929Y-2.3504
X5.2205Y-4.0197
X5.2362Y-5.0982
X5.252Y-3.2402
X5.2559Y-5.4331
X5.2638Y-3.5591
X5.2638Y-3.6156
X5.2638Y-3.6656
X5.2638Y-5.9173
X5.2638Y-6.9843
X5.2638Y-7.0669
X5.2677Y-2.1496
X5.2677Y-2.4843
X5.2677Y-5.8504
X5.2677Y-6.8937
X5.2697Y-4.8091
X5.2717Y-4.7441
X5.3268Y-4.25
X5.3268Y-4.622
X5.3425Y-2.8543
X5.3661Y-3.2913
X5.374Y-2.185
X5.4331Y-5.815
X5.4685Y-2.252
X5.5623Y-5.0794
X5.5787Y-4.0
X5.5827Y-4.6654
X5.5827Y-4.8307
X5.5827Y-7.0669
X5.5866Y-6.878
X5.5906Y-2.7402
X5.5906Y-4.752
X5.5906Y-5.8819
X5.5906Y-5.9528
X5.5945Y-3.5472
X5.5945Y-3.6299
X5.5945Y-5.815
X5.5945Y-6.9882
X5.5945Y-3.6811
X5.6299Y-5.1063
X5.6457Y-6.2165
X5.6516Y-4.2894
X5.7165Y-2.8346
X5.7183Y-3.9764
X5.7205Y-7.3189
X5.7559Y-2.9173
X5.7815Y-6.6319
X5.7992Y-3.252
X5.7992Y-3.4823
X5.8071Y-2.2795
X5.811Y-2.1654
X5.8465Y-2.3346
X5.8504Y-2.626
X5.874Y-2.9724
T2
X2.7598Y-2.8622
X2.7598Y-2.9213
X5.0079Y-3.0827
X5.0079Y-3.1417
T3
X5.9778Y-2.8415
X5.9778Y-2.9415
X5.9778Y-3.0415
X6.0778Y-2.8415
X6.0778Y-2.9415
X6.0778Y-3.0415
T4
X1.9606Y-1.252
X1.9606Y-1.8228
X2.0591Y-1.8228
X2.1575Y-1.252
X2.1575Y-1.8228
X3.0827Y-1.252
X3.0827Y-1.8228
X3.1811Y-1.8228
X3.2795Y-1.252
X3.2795Y-1.8228
X4.2047Y-1.252
X4.2047Y-1.8228
X4.3031Y-1.8228
X4.4016Y-1.252
X4.4016Y-1.8228
X5.3268Y-1.252
X5.3268Y-1.8228
X5.4252Y-1.8228
X5.5236Y-1.252
X5.5236Y-1.8228
T5
X1.3854Y-2.3701
X1.4854Y-2.3701
X1.5854Y-2.3701
X1.6854Y-2.3701
X6.0236Y-2.3228
X6.0236Y-2.4228
X6.0236Y-2.5228
X6.0236Y-2.6228
X6.0268Y-3.248
X6.0268Y-3.348
X6.0268Y-3.448
T7
X1.5354Y-1.2598
X1.5354Y-4.1732
X1.5354Y-6.4567
X5.9843Y-1.2598
X5.9843Y-4.1732
X5.9843Y-6.4567
T6
G00X1.8346Y-1.5118
M15
G01X1.8346Y-1.5433
M16
G05
G00X2.2835Y-1.5118
M15
G01X2.2835Y-1.5433
M16
G05
G00X2.9567Y-1.5118
M15
G01X2.9567Y-1.5433
M16
G05
G00X3.4055Y-1.5118
M15
G01X3.4055Y-1.5433
M16
G05
G00X4.0787Y-1.5118
M15
G01X4.0787Y-1.5433
M16
G05
G00X4.5276Y-1.5118
M15
G01X4.5276Y-1.5433
M16
G05
G00X5.2008Y-1.5118
M15
G01X5.2008Y-1.5433
M16
G05
G00X5.6496Y-1.5118
M15
G01X5.6496Y-1.5433
M16
G05
M30
