%TF.GenerationSoftware,KiCad,Pcbnew,8.0.1*%
%TF.CreationDate,2024-04-07T01:07:44+08:00*%
%TF.ProjectId,v3.1,76332e31-2e6b-4696-9361-645f70636258,rev?*%
%TF.SameCoordinates,Original*%
%TF.FileFunction,Soldermask,Bot*%
%TF.FilePolarity,Negative*%
%FSLAX46Y46*%
G04 Gerber Fmt 4.6, Leading zero omitted, Abs format (unit mm)*
G04 Created by KiCad (PCBNEW 8.0.1) date 2024-04-07 01:07:44*
%MOMM*%
%LPD*%
G01*
G04 APERTURE LIST*
G04 Aperture macros list*
%AMRoundRect*
0 Rectangle with rounded corners*
0 $1 Rounding radius*
0 $2 $3 $4 $5 $6 $7 $8 $9 X,Y pos of 4 corners*
0 Add a 4 corners polygon primitive as box body*
4,1,4,$2,$3,$4,$5,$6,$7,$8,$9,$2,$3,0*
0 Add four circle primitives for the rounded corners*
1,1,$1+$1,$2,$3*
1,1,$1+$1,$4,$5*
1,1,$1+$1,$6,$7*
1,1,$1+$1,$8,$9*
0 Add four rect primitives between the rounded corners*
20,1,$1+$1,$2,$3,$4,$5,0*
20,1,$1+$1,$4,$5,$6,$7,0*
20,1,$1+$1,$6,$7,$8,$9,0*
20,1,$1+$1,$8,$9,$2,$3,0*%
G04 Aperture macros list end*
%ADD10C,7.500000*%
%ADD11RoundRect,0.102000X-0.825000X-0.825000X0.825000X-0.825000X0.825000X0.825000X-0.825000X0.825000X0*%
%ADD12C,1.854000*%
%ADD13O,3.204000X6.204000*%
%ADD14RoundRect,0.250000X-0.312500X-0.625000X0.312500X-0.625000X0.312500X0.625000X-0.312500X0.625000X0*%
%ADD15RoundRect,0.250000X0.312500X0.625000X-0.312500X0.625000X-0.312500X-0.625000X0.312500X-0.625000X0*%
%ADD16RoundRect,0.250000X0.625000X-0.312500X0.625000X0.312500X-0.625000X0.312500X-0.625000X-0.312500X0*%
%ADD17RoundRect,0.250000X0.650000X-0.412500X0.650000X0.412500X-0.650000X0.412500X-0.650000X-0.412500X0*%
%ADD18RoundRect,0.250000X-0.625000X0.312500X-0.625000X-0.312500X0.625000X-0.312500X0.625000X0.312500X0*%
%ADD19RoundRect,0.250000X-0.650000X0.412500X-0.650000X-0.412500X0.650000X-0.412500X0.650000X0.412500X0*%
%ADD20RoundRect,0.150000X0.825000X0.150000X-0.825000X0.150000X-0.825000X-0.150000X0.825000X-0.150000X0*%
%ADD21RoundRect,0.250000X-0.620000X-0.845000X0.620000X-0.845000X0.620000X0.845000X-0.620000X0.845000X0*%
%ADD22O,1.740000X2.190000*%
%ADD23RoundRect,0.250000X-0.412500X-0.650000X0.412500X-0.650000X0.412500X0.650000X-0.412500X0.650000X0*%
%ADD24RoundRect,0.250000X-0.845000X0.620000X-0.845000X-0.620000X0.845000X-0.620000X0.845000X0.620000X0*%
%ADD25O,2.190000X1.740000*%
%ADD26R,1.460500X0.355600*%
%ADD27R,0.650000X1.650000*%
%ADD28R,1.200000X1.200000*%
%ADD29C,1.200000*%
%ADD30RoundRect,0.250000X0.412500X0.650000X-0.412500X0.650000X-0.412500X-0.650000X0.412500X-0.650000X0*%
%ADD31RoundRect,0.150000X-0.825000X-0.150000X0.825000X-0.150000X0.825000X0.150000X-0.825000X0.150000X0*%
%ADD32R,1.700000X1.700000*%
%ADD33O,1.700000X1.700000*%
G04 APERTURE END LIST*
D10*
%TO.C,J6*%
X152000000Y-164000000D03*
%TD*%
D11*
%TO.C,MT4*%
X135300000Y-31800000D03*
D12*
X140300000Y-31800000D03*
X135300000Y-46300000D03*
X140300000Y-46300000D03*
X137800000Y-46300000D03*
D13*
X132100000Y-38800000D03*
X143500000Y-38800000D03*
%TD*%
D10*
%TO.C,J8*%
X152000000Y-106000000D03*
%TD*%
D11*
%TO.C,MT2*%
X78300000Y-31800000D03*
D12*
X83300000Y-31800000D03*
X78300000Y-46300000D03*
X83300000Y-46300000D03*
X80800000Y-46300000D03*
D13*
X75100000Y-38800000D03*
X86500000Y-38800000D03*
%TD*%
D10*
%TO.C,J5*%
X152000000Y-32000000D03*
%TD*%
%TO.C,J3*%
X39000000Y-32000000D03*
%TD*%
%TO.C,J7*%
X39000000Y-106000000D03*
%TD*%
D11*
%TO.C,MT3*%
X106800000Y-31800000D03*
D12*
X111800000Y-31800000D03*
X106800000Y-46300000D03*
X111800000Y-46300000D03*
X109300000Y-46300000D03*
D13*
X103600000Y-38800000D03*
X115000000Y-38800000D03*
%TD*%
D11*
%TO.C,MT1*%
X49800000Y-31800000D03*
D12*
X54800000Y-31800000D03*
X49800000Y-46300000D03*
X54800000Y-46300000D03*
X52300000Y-46300000D03*
D13*
X46600000Y-38800000D03*
X58000000Y-38800000D03*
%TD*%
D10*
%TO.C,J4*%
X39000000Y-164000000D03*
%TD*%
D14*
%TO.C,R2*%
X68737500Y-63200002D03*
X71662500Y-63200002D03*
%TD*%
%TO.C,R30*%
X89550000Y-173933502D03*
X92475000Y-173933502D03*
%TD*%
%TO.C,R3*%
X68737500Y-60600000D03*
X71662500Y-60600000D03*
%TD*%
%TO.C,R57*%
X110537500Y-99600000D03*
X113462500Y-99600000D03*
%TD*%
D15*
%TO.C,R103*%
X143462500Y-53000000D03*
X140537500Y-53000000D03*
%TD*%
%TO.C,R88*%
X149962500Y-186000000D03*
X147037500Y-186000000D03*
%TD*%
D16*
%TO.C,R71*%
X131900000Y-87762500D03*
X131900000Y-84837500D03*
%TD*%
D15*
%TO.C,R78*%
X116362500Y-131300000D03*
X113437500Y-131300000D03*
%TD*%
D17*
%TO.C,C8*%
X83275000Y-143262500D03*
X83275000Y-140137500D03*
%TD*%
D14*
%TO.C,R74*%
X56737500Y-131300000D03*
X59662500Y-131300000D03*
%TD*%
%TO.C,R101*%
X132537500Y-28000000D03*
X135462500Y-28000000D03*
%TD*%
%TO.C,R22*%
X90087500Y-123000000D03*
X93012500Y-123000000D03*
%TD*%
D16*
%TO.C,R119*%
X144000000Y-102162500D03*
X144000000Y-99237500D03*
%TD*%
D14*
%TO.C,R44*%
X118537500Y-120000000D03*
X121462500Y-120000000D03*
%TD*%
D18*
%TO.C,R116*%
X75800000Y-84737500D03*
X75800000Y-87662500D03*
%TD*%
D14*
%TO.C,R91*%
X103537500Y-28000000D03*
X106462500Y-28000000D03*
%TD*%
D15*
%TO.C,R81*%
X87862500Y-103100000D03*
X84937500Y-103100000D03*
%TD*%
D14*
%TO.C,R56*%
X118537500Y-155000000D03*
X121462500Y-155000000D03*
%TD*%
D15*
%TO.C,R76*%
X64462500Y-186000000D03*
X61537500Y-186000000D03*
%TD*%
D14*
%TO.C,R28*%
X89550000Y-179727500D03*
X92475000Y-179727500D03*
%TD*%
D19*
%TO.C,C11*%
X133600000Y-97437500D03*
X133600000Y-100562500D03*
%TD*%
D14*
%TO.C,R6*%
X61537500Y-88872500D03*
X64462500Y-88872500D03*
%TD*%
D20*
%TO.C,U10*%
X140275000Y-145455000D03*
X140275000Y-146725000D03*
X140275000Y-147995000D03*
X140275000Y-149265000D03*
X140275000Y-150535000D03*
X140275000Y-151805000D03*
X140275000Y-153075000D03*
X140275000Y-154345000D03*
X135325000Y-154345000D03*
X135325000Y-153075000D03*
X135325000Y-151805000D03*
X135325000Y-150535000D03*
X135325000Y-149265000D03*
X135325000Y-147995000D03*
X135325000Y-146725000D03*
X135325000Y-145455000D03*
%TD*%
D15*
%TO.C,R96*%
X103622500Y-70500000D03*
X100697500Y-70500000D03*
%TD*%
D14*
%TO.C,R16*%
X105075000Y-66000000D03*
X108000000Y-66000000D03*
%TD*%
%TO.C,R14*%
X61362500Y-177450000D03*
X64287500Y-177450000D03*
%TD*%
D21*
%TO.C,J10*%
X35190000Y-60200000D03*
D22*
X37730000Y-60200000D03*
X40270000Y-60200000D03*
X42810000Y-60200000D03*
%TD*%
D23*
%TO.C,C19*%
X144437500Y-49000000D03*
X147562500Y-49000000D03*
%TD*%
D14*
%TO.C,R92*%
X75537500Y-28000000D03*
X78462500Y-28000000D03*
%TD*%
D24*
%TO.C,J9*%
X153000000Y-59000000D03*
D25*
X153000000Y-61540000D03*
X153000000Y-64080000D03*
X153000000Y-66620000D03*
%TD*%
D14*
%TO.C,R45*%
X118537500Y-117000000D03*
X121462500Y-117000000D03*
%TD*%
%TO.C,R102*%
X132537500Y-53000000D03*
X135462500Y-53000000D03*
%TD*%
D15*
%TO.C,R84*%
X92475000Y-185927500D03*
X89550000Y-185927500D03*
%TD*%
D14*
%TO.C,R46*%
X118537500Y-152000000D03*
X121462500Y-152000000D03*
%TD*%
%TO.C,R20*%
X90037500Y-91942500D03*
X92962500Y-91942500D03*
%TD*%
%TO.C,R58*%
X146737500Y-97200000D03*
X149662500Y-97200000D03*
%TD*%
%TO.C,R108*%
X133537500Y-50000000D03*
X136462500Y-50000000D03*
%TD*%
%TO.C,R65*%
X147037500Y-149000000D03*
X149962500Y-149000000D03*
%TD*%
%TO.C,R25*%
X89550000Y-152000000D03*
X92475000Y-152000000D03*
%TD*%
%TO.C,R34*%
X61537500Y-155000000D03*
X64462500Y-155000000D03*
%TD*%
%TO.C,R29*%
X89550000Y-177377500D03*
X92475000Y-177377500D03*
%TD*%
%TO.C,R8*%
X61537500Y-120000000D03*
X64462500Y-120000000D03*
%TD*%
D26*
%TO.C,U20*%
X101877800Y-132500000D03*
X101877800Y-133149998D03*
X101877800Y-133800000D03*
X101877800Y-134449998D03*
X101877800Y-135099997D03*
X101877800Y-135749998D03*
X101877800Y-136399997D03*
X101877800Y-137049998D03*
X96023100Y-137049998D03*
X96023100Y-136400000D03*
X96023100Y-135749998D03*
X96023100Y-135100000D03*
X96023100Y-134450001D03*
X96023100Y-133800000D03*
X96023100Y-133150001D03*
X96023100Y-132500000D03*
%TD*%
D27*
%TO.C,U1*%
X73785000Y-70125000D03*
X75055000Y-70125000D03*
X76325000Y-70125000D03*
X77595000Y-70125000D03*
X78865000Y-70125000D03*
X80135000Y-70125000D03*
X81405000Y-70125000D03*
X82675000Y-70125000D03*
X83945000Y-70125000D03*
X85215000Y-70125000D03*
X85215000Y-79675000D03*
X83945000Y-79675000D03*
X82675000Y-79675000D03*
X81405000Y-79675000D03*
X80135000Y-79675000D03*
X78865000Y-79675000D03*
X77595000Y-79675000D03*
X76325000Y-79675000D03*
X75055000Y-79675000D03*
X73785000Y-79675000D03*
%TD*%
D14*
%TO.C,R67*%
X147037500Y-179800000D03*
X149962500Y-179800000D03*
%TD*%
D19*
%TO.C,C2*%
X66100000Y-71637500D03*
X66100000Y-74762500D03*
%TD*%
D14*
%TO.C,R59*%
X146637500Y-94600000D03*
X149562500Y-94600000D03*
%TD*%
%TO.C,R10*%
X61537500Y-152000000D03*
X64462500Y-152000000D03*
%TD*%
D17*
%TO.C,C5*%
X54775000Y-86200000D03*
X54775000Y-83075000D03*
%TD*%
D14*
%TO.C,R112*%
X144237500Y-61300000D03*
X147162500Y-61300000D03*
%TD*%
%TO.C,R37*%
X139075000Y-66000000D03*
X142000000Y-66000000D03*
%TD*%
D18*
%TO.C,R31*%
X52600000Y-140237500D03*
X52600000Y-143162500D03*
%TD*%
D14*
%TO.C,R113*%
X144437500Y-64700000D03*
X147362500Y-64700000D03*
%TD*%
D28*
%TO.C,C3*%
X127200000Y-79800000D03*
D29*
X127200000Y-78300000D03*
%TD*%
D14*
%TO.C,R5*%
X61537500Y-92015000D03*
X64462500Y-92015000D03*
%TD*%
%TO.C,R72*%
X147037500Y-155000000D03*
X149962500Y-155000000D03*
%TD*%
D15*
%TO.C,R111*%
X85462500Y-49000000D03*
X82537500Y-49000000D03*
%TD*%
D18*
%TO.C,R115*%
X46900000Y-142637500D03*
X46900000Y-145562500D03*
%TD*%
D14*
%TO.C,R61*%
X147037500Y-123000000D03*
X149962500Y-123000000D03*
%TD*%
%TO.C,R15*%
X61362500Y-174006002D03*
X64287500Y-174006002D03*
%TD*%
D15*
%TO.C,R87*%
X146762500Y-160450000D03*
X143837500Y-160450000D03*
%TD*%
D18*
%TO.C,R35*%
X80830000Y-140237500D03*
X80830000Y-143162500D03*
%TD*%
D14*
%TO.C,R9*%
X61537500Y-117000000D03*
X64462500Y-117000000D03*
%TD*%
D15*
%TO.C,R79*%
X116362500Y-159900000D03*
X113437500Y-159900000D03*
%TD*%
D20*
%TO.C,U7*%
X111775000Y-88455000D03*
X111775000Y-89725000D03*
X111775000Y-90995000D03*
X111775000Y-92265000D03*
X111775000Y-93535000D03*
X111775000Y-94805000D03*
X111775000Y-96075000D03*
X111775000Y-97345000D03*
X106825000Y-97345000D03*
X106825000Y-96075000D03*
X106825000Y-94805000D03*
X106825000Y-93535000D03*
X106825000Y-92265000D03*
X106825000Y-90995000D03*
X106825000Y-89725000D03*
X106825000Y-88455000D03*
%TD*%
D18*
%TO.C,R120*%
X132800000Y-140237500D03*
X132800000Y-143162500D03*
%TD*%
D14*
%TO.C,R48*%
X118537500Y-146000000D03*
X121462500Y-146000000D03*
%TD*%
%TO.C,R50*%
X118537500Y-177450000D03*
X121462500Y-177450000D03*
%TD*%
D16*
%TO.C,R36*%
X114900000Y-87662500D03*
X114900000Y-84737500D03*
%TD*%
D18*
%TO.C,R121*%
X57300000Y-84737500D03*
X57300000Y-87662500D03*
%TD*%
D14*
%TO.C,R24*%
X90087500Y-117000000D03*
X93012500Y-117000000D03*
%TD*%
%TO.C,R51*%
X118537500Y-174006002D03*
X121462500Y-174006002D03*
%TD*%
%TO.C,R47*%
X118537500Y-149000000D03*
X121462500Y-149000000D03*
%TD*%
D30*
%TO.C,C13*%
X42562500Y-49000000D03*
X39437500Y-49000000D03*
%TD*%
D14*
%TO.C,R18*%
X105075000Y-59420000D03*
X108000000Y-59420000D03*
%TD*%
%TO.C,R66*%
X147037500Y-146000000D03*
X149962500Y-146000000D03*
%TD*%
D15*
%TO.C,R42*%
X98262500Y-98227500D03*
X95337500Y-98227500D03*
%TD*%
D27*
%TO.C,U2*%
X122015000Y-79375000D03*
X120745000Y-79375000D03*
X119475000Y-79375000D03*
X118205000Y-79375000D03*
X116935000Y-79375000D03*
X115665000Y-79375000D03*
X114395000Y-79375000D03*
X113125000Y-79375000D03*
X111855000Y-79375000D03*
X110585000Y-79375000D03*
X110585000Y-69825000D03*
X111855000Y-69825000D03*
X113125000Y-69825000D03*
X114395000Y-69825000D03*
X115665000Y-69825000D03*
X116935000Y-69825000D03*
X118205000Y-69825000D03*
X119475000Y-69825000D03*
X120745000Y-69825000D03*
X122015000Y-69825000D03*
%TD*%
D14*
%TO.C,R13*%
X61362500Y-179800000D03*
X64287500Y-179800000D03*
%TD*%
D15*
%TO.C,R106*%
X57462500Y-49000000D03*
X54537500Y-49000000D03*
%TD*%
D26*
%TO.C,U19*%
X95845300Y-108249998D03*
X95845300Y-107600000D03*
X95845300Y-106949998D03*
X95845300Y-106300000D03*
X95845300Y-105650001D03*
X95845300Y-105000000D03*
X95845300Y-104350001D03*
X95845300Y-103700000D03*
X101700000Y-103700000D03*
X101700000Y-104349998D03*
X101700000Y-105000000D03*
X101700000Y-105649998D03*
X101700000Y-106299997D03*
X101700000Y-106949998D03*
X101700000Y-107599997D03*
X101700000Y-108249998D03*
%TD*%
D18*
%TO.C,R54*%
X109330000Y-140237500D03*
X109330000Y-143162500D03*
%TD*%
D14*
%TO.C,R100*%
X104537500Y-49000000D03*
X107462500Y-49000000D03*
%TD*%
%TO.C,R104*%
X45537500Y-49000000D03*
X48462500Y-49000000D03*
%TD*%
D26*
%TO.C,U21*%
X96023100Y-166249998D03*
X96023100Y-165600000D03*
X96023100Y-164949998D03*
X96023100Y-164300000D03*
X96023100Y-163650001D03*
X96023100Y-163000000D03*
X96023100Y-162350001D03*
X96023100Y-161700000D03*
X101877800Y-161700000D03*
X101877800Y-162349998D03*
X101877800Y-163000000D03*
X101877800Y-163649998D03*
X101877800Y-164299997D03*
X101877800Y-164949998D03*
X101877800Y-165599997D03*
X101877800Y-166249998D03*
%TD*%
D18*
%TO.C,R118*%
X104300000Y-140237500D03*
X104300000Y-143162500D03*
%TD*%
D30*
%TO.C,C14*%
X101562500Y-49000000D03*
X98437500Y-49000000D03*
%TD*%
D18*
%TO.C,R70*%
X137830000Y-140237500D03*
X137830000Y-143162500D03*
%TD*%
D14*
%TO.C,R69*%
X147037500Y-174006002D03*
X149962500Y-174006002D03*
%TD*%
%TO.C,R93*%
X75537500Y-53000000D03*
X78462500Y-53000000D03*
%TD*%
D18*
%TO.C,R55*%
X131900000Y-92237500D03*
X131900000Y-95162500D03*
%TD*%
D17*
%TO.C,C6*%
X55100000Y-143262500D03*
X55100000Y-140137500D03*
%TD*%
D14*
%TO.C,R64*%
X147037500Y-152000000D03*
X149962500Y-152000000D03*
%TD*%
%TO.C,R7*%
X61537500Y-123000000D03*
X64462500Y-123000000D03*
%TD*%
D17*
%TO.C,C9*%
X111775000Y-86200000D03*
X111775000Y-83075000D03*
%TD*%
D18*
%TO.C,R122*%
X75200000Y-143337500D03*
X75200000Y-146262500D03*
%TD*%
D15*
%TO.C,R86*%
X145162500Y-131300000D03*
X142237500Y-131300000D03*
%TD*%
D23*
%TO.C,C16*%
X87437500Y-49000000D03*
X90562500Y-49000000D03*
%TD*%
D30*
%TO.C,C18*%
X130562500Y-50000000D03*
X127437500Y-50000000D03*
%TD*%
D14*
%TO.C,R27*%
X89550000Y-146000000D03*
X92475000Y-146000000D03*
%TD*%
%TO.C,R89*%
X46537500Y-27000000D03*
X49462500Y-27000000D03*
%TD*%
%TO.C,R62*%
X147037500Y-120000000D03*
X149962500Y-120000000D03*
%TD*%
%TO.C,R73*%
X56737500Y-102800000D03*
X59662500Y-102800000D03*
%TD*%
D20*
%TO.C,U5*%
X83275000Y-88450000D03*
X83275000Y-89720000D03*
X83275000Y-90990000D03*
X83275000Y-92260000D03*
X83275000Y-93530000D03*
X83275000Y-94800000D03*
X83275000Y-96070000D03*
X83275000Y-97340000D03*
X78325000Y-97340000D03*
X78325000Y-96070000D03*
X78325000Y-94800000D03*
X78325000Y-93530000D03*
X78325000Y-92260000D03*
X78325000Y-90990000D03*
X78325000Y-89720000D03*
X78325000Y-88450000D03*
%TD*%
D14*
%TO.C,R63*%
X147037500Y-117000000D03*
X149962500Y-117000000D03*
%TD*%
D15*
%TO.C,R99*%
X116462500Y-53000000D03*
X113537500Y-53000000D03*
%TD*%
D24*
%TO.C,J1*%
X153080000Y-82500000D03*
D25*
X153080000Y-85040000D03*
X153080000Y-87580000D03*
%TD*%
D14*
%TO.C,R33*%
X61537500Y-98300000D03*
X64462500Y-98300000D03*
%TD*%
D20*
%TO.C,U4*%
X54775000Y-145455000D03*
X54775000Y-146725000D03*
X54775000Y-147995000D03*
X54775000Y-149265000D03*
X54775000Y-150535000D03*
X54775000Y-151805000D03*
X54775000Y-153075000D03*
X54775000Y-154345000D03*
X49825000Y-154345000D03*
X49825000Y-153075000D03*
X49825000Y-151805000D03*
X49825000Y-150535000D03*
X49825000Y-149265000D03*
X49825000Y-147995000D03*
X49825000Y-146725000D03*
X49825000Y-145455000D03*
%TD*%
D14*
%TO.C,R77*%
X95337500Y-88800000D03*
X98262500Y-88800000D03*
%TD*%
D15*
%TO.C,R40*%
X98262500Y-91942500D03*
X95337500Y-91942500D03*
%TD*%
D14*
%TO.C,R110*%
X75537500Y-49000000D03*
X78462500Y-49000000D03*
%TD*%
%TO.C,R19*%
X90037500Y-95085000D03*
X92962500Y-95085000D03*
%TD*%
%TO.C,R21*%
X90037500Y-88800000D03*
X92962500Y-88800000D03*
%TD*%
%TO.C,R49*%
X118537500Y-179800000D03*
X121462500Y-179800000D03*
%TD*%
%TO.C,R12*%
X61537500Y-146000000D03*
X64462500Y-146000000D03*
%TD*%
D20*
%TO.C,U6*%
X83275000Y-145455000D03*
X83275000Y-146725000D03*
X83275000Y-147995000D03*
X83275000Y-149265000D03*
X83275000Y-150535000D03*
X83275000Y-151805000D03*
X83275000Y-153075000D03*
X83275000Y-154345000D03*
X78325000Y-154345000D03*
X78325000Y-153075000D03*
X78325000Y-151805000D03*
X78325000Y-150535000D03*
X78325000Y-149265000D03*
X78325000Y-147995000D03*
X78325000Y-146725000D03*
X78325000Y-145455000D03*
%TD*%
D14*
%TO.C,R60*%
X146637500Y-92100000D03*
X149562500Y-92100000D03*
%TD*%
D28*
%TO.C,C1*%
X70100000Y-72700000D03*
D29*
X70100000Y-74200000D03*
%TD*%
D14*
%TO.C,R43*%
X118537500Y-123000000D03*
X121462500Y-123000000D03*
%TD*%
D15*
%TO.C,R41*%
X98262500Y-95085000D03*
X95337500Y-95085000D03*
%TD*%
D23*
%TO.C,C17*%
X118437500Y-49000000D03*
X121562500Y-49000000D03*
%TD*%
D14*
%TO.C,R53*%
X89550000Y-155000000D03*
X92475000Y-155000000D03*
%TD*%
%TO.C,R68*%
X147037500Y-177450000D03*
X149962500Y-177450000D03*
%TD*%
%TO.C,R98*%
X104537500Y-53000000D03*
X107462500Y-53000000D03*
%TD*%
D15*
%TO.C,R107*%
X115462500Y-49000000D03*
X112537500Y-49000000D03*
%TD*%
D16*
%TO.C,R32*%
X86400000Y-87662500D03*
X86400000Y-84737500D03*
%TD*%
D23*
%TO.C,C21*%
X61437500Y-49000000D03*
X64562500Y-49000000D03*
%TD*%
D16*
%TO.C,R95*%
X62400000Y-75462500D03*
X62400000Y-72537500D03*
%TD*%
D14*
%TO.C,R39*%
X139075000Y-60000000D03*
X142000000Y-60000000D03*
%TD*%
D15*
%TO.C,R85*%
X149762500Y-100450000D03*
X146837500Y-100450000D03*
%TD*%
D30*
%TO.C,C15*%
X72562500Y-49000000D03*
X69437500Y-49000000D03*
%TD*%
D14*
%TO.C,R11*%
X61537500Y-149000000D03*
X64462500Y-149000000D03*
%TD*%
D20*
%TO.C,U3*%
X54775000Y-88455000D03*
X54775000Y-89725000D03*
X54775000Y-90995000D03*
X54775000Y-92265000D03*
X54775000Y-93535000D03*
X54775000Y-94805000D03*
X54775000Y-96075000D03*
X54775000Y-97345000D03*
X49825000Y-97345000D03*
X49825000Y-96075000D03*
X49825000Y-94805000D03*
X49825000Y-93535000D03*
X49825000Y-92265000D03*
X49825000Y-90995000D03*
X49825000Y-89725000D03*
X49825000Y-88455000D03*
%TD*%
D17*
%TO.C,C4*%
X131000000Y-81262500D03*
X131000000Y-78137500D03*
%TD*%
%TO.C,C12*%
X140275000Y-143262500D03*
X140275000Y-140137500D03*
%TD*%
D20*
%TO.C,U8*%
X111775000Y-145455000D03*
X111775000Y-146725000D03*
X111775000Y-147995000D03*
X111775000Y-149265000D03*
X111775000Y-150535000D03*
X111775000Y-151805000D03*
X111775000Y-153075000D03*
X111775000Y-154345000D03*
X106825000Y-154345000D03*
X106825000Y-153075000D03*
X106825000Y-151805000D03*
X106825000Y-150535000D03*
X106825000Y-149265000D03*
X106825000Y-147995000D03*
X106825000Y-146725000D03*
X106825000Y-145455000D03*
%TD*%
D17*
%TO.C,C10*%
X111775000Y-143262500D03*
X111775000Y-140137500D03*
%TD*%
D14*
%TO.C,R52*%
X90037500Y-98227500D03*
X92962500Y-98227500D03*
%TD*%
D15*
%TO.C,R109*%
X142462500Y-50000000D03*
X139537500Y-50000000D03*
%TD*%
D31*
%TO.C,U9*%
X135325000Y-95645000D03*
X135325000Y-94375000D03*
X135325000Y-93105000D03*
X135325000Y-91835000D03*
X135325000Y-90565000D03*
X135325000Y-89295000D03*
X135325000Y-88025000D03*
X135325000Y-86755000D03*
X140275000Y-86755000D03*
X140275000Y-88025000D03*
X140275000Y-89295000D03*
X140275000Y-90565000D03*
X140275000Y-91835000D03*
X140275000Y-93105000D03*
X140275000Y-94375000D03*
X140275000Y-95645000D03*
%TD*%
D32*
%TO.C,J2*%
X154375000Y-72175000D03*
D33*
X151835000Y-72175000D03*
X154375000Y-74715000D03*
X151835000Y-74715000D03*
X154375000Y-77255000D03*
X151835000Y-77255000D03*
%TD*%
D15*
%TO.C,R94*%
X85462500Y-53000000D03*
X82537500Y-53000000D03*
%TD*%
D18*
%TO.C,R80*%
X121462500Y-183137500D03*
X121462500Y-186062500D03*
%TD*%
D14*
%TO.C,R38*%
X139075000Y-63000000D03*
X142000000Y-63000000D03*
%TD*%
D15*
%TO.C,R105*%
X57462500Y-53000000D03*
X54537500Y-53000000D03*
%TD*%
D18*
%TO.C,R114*%
X47300000Y-84737500D03*
X47300000Y-87662500D03*
%TD*%
D14*
%TO.C,R1*%
X68737500Y-65800000D03*
X71662500Y-65800000D03*
%TD*%
%TO.C,R17*%
X105075000Y-62710000D03*
X108000000Y-62710000D03*
%TD*%
%TO.C,R4*%
X61537500Y-95157500D03*
X64462500Y-95157500D03*
%TD*%
%TO.C,R26*%
X89550000Y-149000000D03*
X92475000Y-149000000D03*
%TD*%
D16*
%TO.C,R97*%
X137100000Y-71862500D03*
X137100000Y-68937500D03*
%TD*%
D15*
%TO.C,R82*%
X87962500Y-131300000D03*
X85037500Y-131300000D03*
%TD*%
D18*
%TO.C,R117*%
X104300000Y-84737500D03*
X104300000Y-87662500D03*
%TD*%
D16*
%TO.C,R83*%
X86300000Y-162362500D03*
X86300000Y-159437500D03*
%TD*%
D14*
%TO.C,R23*%
X90087500Y-120000000D03*
X93012500Y-120000000D03*
%TD*%
D17*
%TO.C,C7*%
X83275000Y-86562500D03*
X83275000Y-83437500D03*
%TD*%
D14*
%TO.C,R90*%
X45537500Y-53000000D03*
X48462500Y-53000000D03*
%TD*%
D15*
%TO.C,R75*%
X59662500Y-159900000D03*
X56737500Y-159900000D03*
%TD*%
M02*
