%TF.GenerationSoftware,KiCad,Pcbnew,8.0.1*%
%TF.CreationDate,2024-04-07T01:06:48+08:00*%
%TF.ProjectId,v3.1,76332e31-2e6b-4696-9361-645f70636258,rev?*%
%TF.SameCoordinates,Original*%
%TF.FileFunction,Legend,Top*%
%TF.FilePolarity,Positive*%
%FSLAX46Y46*%
G04 Gerber Fmt 4.6, Leading zero omitted, Abs format (unit mm)*
G04 Created by KiCad (PCBNEW 8.0.1) date 2024-04-07 01:06:48*
%MOMM*%
%LPD*%
G01*
G04 APERTURE LIST*
%ADD10C,0.150000*%
%ADD11C,0.120000*%
%ADD12C,0.127000*%
%ADD13C,0.200000*%
G04 APERTURE END LIST*
D10*
X145661905Y-167154819D02*
X145661905Y-167964342D01*
X145661905Y-167964342D02*
X145709524Y-168059580D01*
X145709524Y-168059580D02*
X145757143Y-168107200D01*
X145757143Y-168107200D02*
X145852381Y-168154819D01*
X145852381Y-168154819D02*
X146042857Y-168154819D01*
X146042857Y-168154819D02*
X146138095Y-168107200D01*
X146138095Y-168107200D02*
X146185714Y-168059580D01*
X146185714Y-168059580D02*
X146233333Y-167964342D01*
X146233333Y-167964342D02*
X146233333Y-167154819D01*
X146661905Y-167250057D02*
X146709524Y-167202438D01*
X146709524Y-167202438D02*
X146804762Y-167154819D01*
X146804762Y-167154819D02*
X147042857Y-167154819D01*
X147042857Y-167154819D02*
X147138095Y-167202438D01*
X147138095Y-167202438D02*
X147185714Y-167250057D01*
X147185714Y-167250057D02*
X147233333Y-167345295D01*
X147233333Y-167345295D02*
X147233333Y-167440533D01*
X147233333Y-167440533D02*
X147185714Y-167583390D01*
X147185714Y-167583390D02*
X146614286Y-168154819D01*
X146614286Y-168154819D02*
X147233333Y-168154819D01*
X148138095Y-167154819D02*
X147661905Y-167154819D01*
X147661905Y-167154819D02*
X147614286Y-167631009D01*
X147614286Y-167631009D02*
X147661905Y-167583390D01*
X147661905Y-167583390D02*
X147757143Y-167535771D01*
X147757143Y-167535771D02*
X147995238Y-167535771D01*
X147995238Y-167535771D02*
X148090476Y-167583390D01*
X148090476Y-167583390D02*
X148138095Y-167631009D01*
X148138095Y-167631009D02*
X148185714Y-167726247D01*
X148185714Y-167726247D02*
X148185714Y-167964342D01*
X148185714Y-167964342D02*
X148138095Y-168059580D01*
X148138095Y-168059580D02*
X148090476Y-168107200D01*
X148090476Y-168107200D02*
X147995238Y-168154819D01*
X147995238Y-168154819D02*
X147757143Y-168154819D01*
X147757143Y-168154819D02*
X147661905Y-168107200D01*
X147661905Y-168107200D02*
X147614286Y-168059580D01*
X79940469Y-151385516D02*
X79940469Y-150384107D01*
X79940469Y-150384107D02*
X80178900Y-150384107D01*
X80178900Y-150384107D02*
X80321958Y-150431793D01*
X80321958Y-150431793D02*
X80417331Y-150527165D01*
X80417331Y-150527165D02*
X80465017Y-150622537D01*
X80465017Y-150622537D02*
X80512703Y-150813282D01*
X80512703Y-150813282D02*
X80512703Y-150956340D01*
X80512703Y-150956340D02*
X80465017Y-151147085D01*
X80465017Y-151147085D02*
X80417331Y-151242457D01*
X80417331Y-151242457D02*
X80321958Y-151337830D01*
X80321958Y-151337830D02*
X80178900Y-151385516D01*
X80178900Y-151385516D02*
X79940469Y-151385516D01*
X80989564Y-151385516D02*
X81180309Y-151385516D01*
X81180309Y-151385516D02*
X81275681Y-151337830D01*
X81275681Y-151337830D02*
X81323367Y-151290143D01*
X81323367Y-151290143D02*
X81418740Y-151147085D01*
X81418740Y-151147085D02*
X81466426Y-150956340D01*
X81466426Y-150956340D02*
X81466426Y-150574851D01*
X81466426Y-150574851D02*
X81418740Y-150479479D01*
X81418740Y-150479479D02*
X81371054Y-150431793D01*
X81371054Y-150431793D02*
X81275681Y-150384107D01*
X81275681Y-150384107D02*
X81084937Y-150384107D01*
X81084937Y-150384107D02*
X80989564Y-150431793D01*
X80989564Y-150431793D02*
X80941878Y-150479479D01*
X80941878Y-150479479D02*
X80894192Y-150574851D01*
X80894192Y-150574851D02*
X80894192Y-150813282D01*
X80894192Y-150813282D02*
X80941878Y-150908654D01*
X80941878Y-150908654D02*
X80989564Y-150956340D01*
X80989564Y-150956340D02*
X81084937Y-151004027D01*
X81084937Y-151004027D02*
X81275681Y-151004027D01*
X81275681Y-151004027D02*
X81371054Y-150956340D01*
X81371054Y-150956340D02*
X81418740Y-150908654D01*
X81418740Y-150908654D02*
X81466426Y-150813282D01*
X79463608Y-179885516D02*
X79463608Y-178884107D01*
X79463608Y-178884107D02*
X79702039Y-178884107D01*
X79702039Y-178884107D02*
X79845097Y-178931793D01*
X79845097Y-178931793D02*
X79940470Y-179027165D01*
X79940470Y-179027165D02*
X79988156Y-179122537D01*
X79988156Y-179122537D02*
X80035842Y-179313282D01*
X80035842Y-179313282D02*
X80035842Y-179456340D01*
X80035842Y-179456340D02*
X79988156Y-179647085D01*
X79988156Y-179647085D02*
X79940470Y-179742457D01*
X79940470Y-179742457D02*
X79845097Y-179837830D01*
X79845097Y-179837830D02*
X79702039Y-179885516D01*
X79702039Y-179885516D02*
X79463608Y-179885516D01*
X80989565Y-179885516D02*
X80417331Y-179885516D01*
X80703448Y-179885516D02*
X80703448Y-178884107D01*
X80703448Y-178884107D02*
X80608076Y-179027165D01*
X80608076Y-179027165D02*
X80512703Y-179122537D01*
X80512703Y-179122537D02*
X80417331Y-179170224D01*
X81609485Y-178884107D02*
X81704857Y-178884107D01*
X81704857Y-178884107D02*
X81800229Y-178931793D01*
X81800229Y-178931793D02*
X81847916Y-178979479D01*
X81847916Y-178979479D02*
X81895602Y-179074851D01*
X81895602Y-179074851D02*
X81943288Y-179265596D01*
X81943288Y-179265596D02*
X81943288Y-179504027D01*
X81943288Y-179504027D02*
X81895602Y-179694771D01*
X81895602Y-179694771D02*
X81847916Y-179790143D01*
X81847916Y-179790143D02*
X81800229Y-179837830D01*
X81800229Y-179837830D02*
X81704857Y-179885516D01*
X81704857Y-179885516D02*
X81609485Y-179885516D01*
X81609485Y-179885516D02*
X81514113Y-179837830D01*
X81514113Y-179837830D02*
X81466426Y-179790143D01*
X81466426Y-179790143D02*
X81418740Y-179694771D01*
X81418740Y-179694771D02*
X81371054Y-179504027D01*
X81371054Y-179504027D02*
X81371054Y-179265596D01*
X81371054Y-179265596D02*
X81418740Y-179074851D01*
X81418740Y-179074851D02*
X81466426Y-178979479D01*
X81466426Y-178979479D02*
X81514113Y-178931793D01*
X81514113Y-178931793D02*
X81609485Y-178884107D01*
X151666666Y-158704819D02*
X151666666Y-159419104D01*
X151666666Y-159419104D02*
X151619047Y-159561961D01*
X151619047Y-159561961D02*
X151523809Y-159657200D01*
X151523809Y-159657200D02*
X151380952Y-159704819D01*
X151380952Y-159704819D02*
X151285714Y-159704819D01*
X152571428Y-158704819D02*
X152380952Y-158704819D01*
X152380952Y-158704819D02*
X152285714Y-158752438D01*
X152285714Y-158752438D02*
X152238095Y-158800057D01*
X152238095Y-158800057D02*
X152142857Y-158942914D01*
X152142857Y-158942914D02*
X152095238Y-159133390D01*
X152095238Y-159133390D02*
X152095238Y-159514342D01*
X152095238Y-159514342D02*
X152142857Y-159609580D01*
X152142857Y-159609580D02*
X152190476Y-159657200D01*
X152190476Y-159657200D02*
X152285714Y-159704819D01*
X152285714Y-159704819D02*
X152476190Y-159704819D01*
X152476190Y-159704819D02*
X152571428Y-159657200D01*
X152571428Y-159657200D02*
X152619047Y-159609580D01*
X152619047Y-159609580D02*
X152666666Y-159514342D01*
X152666666Y-159514342D02*
X152666666Y-159276247D01*
X152666666Y-159276247D02*
X152619047Y-159181009D01*
X152619047Y-159181009D02*
X152571428Y-159133390D01*
X152571428Y-159133390D02*
X152476190Y-159085771D01*
X152476190Y-159085771D02*
X152285714Y-159085771D01*
X152285714Y-159085771D02*
X152190476Y-159133390D01*
X152190476Y-159133390D02*
X152142857Y-159181009D01*
X152142857Y-159181009D02*
X152095238Y-159276247D01*
X79940469Y-94385516D02*
X79940469Y-93384107D01*
X79940469Y-93384107D02*
X80178900Y-93384107D01*
X80178900Y-93384107D02*
X80321958Y-93431793D01*
X80321958Y-93431793D02*
X80417331Y-93527165D01*
X80417331Y-93527165D02*
X80465017Y-93622537D01*
X80465017Y-93622537D02*
X80512703Y-93813282D01*
X80512703Y-93813282D02*
X80512703Y-93956340D01*
X80512703Y-93956340D02*
X80465017Y-94147085D01*
X80465017Y-94147085D02*
X80417331Y-94242457D01*
X80417331Y-94242457D02*
X80321958Y-94337830D01*
X80321958Y-94337830D02*
X80178900Y-94385516D01*
X80178900Y-94385516D02*
X79940469Y-94385516D01*
X80846506Y-93384107D02*
X81514112Y-93384107D01*
X81514112Y-93384107D02*
X81084937Y-94385516D01*
X79940469Y-122885516D02*
X79940469Y-121884107D01*
X79940469Y-121884107D02*
X80178900Y-121884107D01*
X80178900Y-121884107D02*
X80321958Y-121931793D01*
X80321958Y-121931793D02*
X80417331Y-122027165D01*
X80417331Y-122027165D02*
X80465017Y-122122537D01*
X80465017Y-122122537D02*
X80512703Y-122313282D01*
X80512703Y-122313282D02*
X80512703Y-122456340D01*
X80512703Y-122456340D02*
X80465017Y-122647085D01*
X80465017Y-122647085D02*
X80417331Y-122742457D01*
X80417331Y-122742457D02*
X80321958Y-122837830D01*
X80321958Y-122837830D02*
X80178900Y-122885516D01*
X80178900Y-122885516D02*
X79940469Y-122885516D01*
X81084937Y-122313282D02*
X80989564Y-122265596D01*
X80989564Y-122265596D02*
X80941878Y-122217910D01*
X80941878Y-122217910D02*
X80894192Y-122122537D01*
X80894192Y-122122537D02*
X80894192Y-122074851D01*
X80894192Y-122074851D02*
X80941878Y-121979479D01*
X80941878Y-121979479D02*
X80989564Y-121931793D01*
X80989564Y-121931793D02*
X81084937Y-121884107D01*
X81084937Y-121884107D02*
X81275681Y-121884107D01*
X81275681Y-121884107D02*
X81371054Y-121931793D01*
X81371054Y-121931793D02*
X81418740Y-121979479D01*
X81418740Y-121979479D02*
X81466426Y-122074851D01*
X81466426Y-122074851D02*
X81466426Y-122122537D01*
X81466426Y-122122537D02*
X81418740Y-122217910D01*
X81418740Y-122217910D02*
X81371054Y-122265596D01*
X81371054Y-122265596D02*
X81275681Y-122313282D01*
X81275681Y-122313282D02*
X81084937Y-122313282D01*
X81084937Y-122313282D02*
X80989564Y-122360968D01*
X80989564Y-122360968D02*
X80941878Y-122408654D01*
X80941878Y-122408654D02*
X80894192Y-122504027D01*
X80894192Y-122504027D02*
X80894192Y-122694771D01*
X80894192Y-122694771D02*
X80941878Y-122790143D01*
X80941878Y-122790143D02*
X80989564Y-122837830D01*
X80989564Y-122837830D02*
X81084937Y-122885516D01*
X81084937Y-122885516D02*
X81275681Y-122885516D01*
X81275681Y-122885516D02*
X81371054Y-122837830D01*
X81371054Y-122837830D02*
X81418740Y-122790143D01*
X81418740Y-122790143D02*
X81466426Y-122694771D01*
X81466426Y-122694771D02*
X81466426Y-122504027D01*
X81466426Y-122504027D02*
X81418740Y-122408654D01*
X81418740Y-122408654D02*
X81371054Y-122360968D01*
X81371054Y-122360968D02*
X81275681Y-122313282D01*
X132434524Y-30419819D02*
X132434524Y-29419819D01*
X132434524Y-29419819D02*
X132767857Y-30134104D01*
X132767857Y-30134104D02*
X133101190Y-29419819D01*
X133101190Y-29419819D02*
X133101190Y-30419819D01*
X133434524Y-29419819D02*
X134005952Y-29419819D01*
X133720238Y-30419819D02*
X133720238Y-29419819D01*
X134767857Y-29753152D02*
X134767857Y-30419819D01*
X134529762Y-29372200D02*
X134291667Y-30086485D01*
X134291667Y-30086485D02*
X134910714Y-30086485D01*
X117206905Y-81854819D02*
X117206905Y-82664342D01*
X117206905Y-82664342D02*
X117254524Y-82759580D01*
X117254524Y-82759580D02*
X117302143Y-82807200D01*
X117302143Y-82807200D02*
X117397381Y-82854819D01*
X117397381Y-82854819D02*
X117587857Y-82854819D01*
X117587857Y-82854819D02*
X117683095Y-82807200D01*
X117683095Y-82807200D02*
X117730714Y-82759580D01*
X117730714Y-82759580D02*
X117778333Y-82664342D01*
X117778333Y-82664342D02*
X117778333Y-81854819D01*
X118778333Y-82854819D02*
X118206905Y-82854819D01*
X118492619Y-82854819D02*
X118492619Y-81854819D01*
X118492619Y-81854819D02*
X118397381Y-81997676D01*
X118397381Y-81997676D02*
X118302143Y-82092914D01*
X118302143Y-82092914D02*
X118206905Y-82140533D01*
X119730714Y-82854819D02*
X119159286Y-82854819D01*
X119445000Y-82854819D02*
X119445000Y-81854819D01*
X119445000Y-81854819D02*
X119349762Y-81997676D01*
X119349762Y-81997676D02*
X119254524Y-82092914D01*
X119254524Y-82092914D02*
X119159286Y-82140533D01*
X117161905Y-157804819D02*
X117161905Y-158614342D01*
X117161905Y-158614342D02*
X117209524Y-158709580D01*
X117209524Y-158709580D02*
X117257143Y-158757200D01*
X117257143Y-158757200D02*
X117352381Y-158804819D01*
X117352381Y-158804819D02*
X117542857Y-158804819D01*
X117542857Y-158804819D02*
X117638095Y-158757200D01*
X117638095Y-158757200D02*
X117685714Y-158709580D01*
X117685714Y-158709580D02*
X117733333Y-158614342D01*
X117733333Y-158614342D02*
X117733333Y-157804819D01*
X118733333Y-158804819D02*
X118161905Y-158804819D01*
X118447619Y-158804819D02*
X118447619Y-157804819D01*
X118447619Y-157804819D02*
X118352381Y-157947676D01*
X118352381Y-157947676D02*
X118257143Y-158042914D01*
X118257143Y-158042914D02*
X118161905Y-158090533D01*
X119590476Y-158138152D02*
X119590476Y-158804819D01*
X119352381Y-157757200D02*
X119114286Y-158471485D01*
X119114286Y-158471485D02*
X119733333Y-158471485D01*
X51440469Y-122885516D02*
X51440469Y-121884107D01*
X51440469Y-121884107D02*
X51678900Y-121884107D01*
X51678900Y-121884107D02*
X51821958Y-121931793D01*
X51821958Y-121931793D02*
X51917331Y-122027165D01*
X51917331Y-122027165D02*
X51965017Y-122122537D01*
X51965017Y-122122537D02*
X52012703Y-122313282D01*
X52012703Y-122313282D02*
X52012703Y-122456340D01*
X52012703Y-122456340D02*
X51965017Y-122647085D01*
X51965017Y-122647085D02*
X51917331Y-122742457D01*
X51917331Y-122742457D02*
X51821958Y-122837830D01*
X51821958Y-122837830D02*
X51678900Y-122885516D01*
X51678900Y-122885516D02*
X51440469Y-122885516D01*
X52346506Y-121884107D02*
X52966426Y-121884107D01*
X52966426Y-121884107D02*
X52632623Y-122265596D01*
X52632623Y-122265596D02*
X52775681Y-122265596D01*
X52775681Y-122265596D02*
X52871054Y-122313282D01*
X52871054Y-122313282D02*
X52918740Y-122360968D01*
X52918740Y-122360968D02*
X52966426Y-122456340D01*
X52966426Y-122456340D02*
X52966426Y-122694771D01*
X52966426Y-122694771D02*
X52918740Y-122790143D01*
X52918740Y-122790143D02*
X52871054Y-122837830D01*
X52871054Y-122837830D02*
X52775681Y-122885516D01*
X52775681Y-122885516D02*
X52489564Y-122885516D01*
X52489564Y-122885516D02*
X52394192Y-122837830D01*
X52394192Y-122837830D02*
X52346506Y-122790143D01*
X51440469Y-179885516D02*
X51440469Y-178884107D01*
X51440469Y-178884107D02*
X51678900Y-178884107D01*
X51678900Y-178884107D02*
X51821958Y-178931793D01*
X51821958Y-178931793D02*
X51917331Y-179027165D01*
X51917331Y-179027165D02*
X51965017Y-179122537D01*
X51965017Y-179122537D02*
X52012703Y-179313282D01*
X52012703Y-179313282D02*
X52012703Y-179456340D01*
X52012703Y-179456340D02*
X51965017Y-179647085D01*
X51965017Y-179647085D02*
X51917331Y-179742457D01*
X51917331Y-179742457D02*
X51821958Y-179837830D01*
X51821958Y-179837830D02*
X51678900Y-179885516D01*
X51678900Y-179885516D02*
X51440469Y-179885516D01*
X52918740Y-178884107D02*
X52441878Y-178884107D01*
X52441878Y-178884107D02*
X52394192Y-179360968D01*
X52394192Y-179360968D02*
X52441878Y-179313282D01*
X52441878Y-179313282D02*
X52537251Y-179265596D01*
X52537251Y-179265596D02*
X52775681Y-179265596D01*
X52775681Y-179265596D02*
X52871054Y-179313282D01*
X52871054Y-179313282D02*
X52918740Y-179360968D01*
X52918740Y-179360968D02*
X52966426Y-179456340D01*
X52966426Y-179456340D02*
X52966426Y-179694771D01*
X52966426Y-179694771D02*
X52918740Y-179790143D01*
X52918740Y-179790143D02*
X52871054Y-179837830D01*
X52871054Y-179837830D02*
X52775681Y-179885516D01*
X52775681Y-179885516D02*
X52537251Y-179885516D01*
X52537251Y-179885516D02*
X52441878Y-179837830D01*
X52441878Y-179837830D02*
X52394192Y-179790143D01*
X151666666Y-100704819D02*
X151666666Y-101419104D01*
X151666666Y-101419104D02*
X151619047Y-101561961D01*
X151619047Y-101561961D02*
X151523809Y-101657200D01*
X151523809Y-101657200D02*
X151380952Y-101704819D01*
X151380952Y-101704819D02*
X151285714Y-101704819D01*
X152285714Y-101133390D02*
X152190476Y-101085771D01*
X152190476Y-101085771D02*
X152142857Y-101038152D01*
X152142857Y-101038152D02*
X152095238Y-100942914D01*
X152095238Y-100942914D02*
X152095238Y-100895295D01*
X152095238Y-100895295D02*
X152142857Y-100800057D01*
X152142857Y-100800057D02*
X152190476Y-100752438D01*
X152190476Y-100752438D02*
X152285714Y-100704819D01*
X152285714Y-100704819D02*
X152476190Y-100704819D01*
X152476190Y-100704819D02*
X152571428Y-100752438D01*
X152571428Y-100752438D02*
X152619047Y-100800057D01*
X152619047Y-100800057D02*
X152666666Y-100895295D01*
X152666666Y-100895295D02*
X152666666Y-100942914D01*
X152666666Y-100942914D02*
X152619047Y-101038152D01*
X152619047Y-101038152D02*
X152571428Y-101085771D01*
X152571428Y-101085771D02*
X152476190Y-101133390D01*
X152476190Y-101133390D02*
X152285714Y-101133390D01*
X152285714Y-101133390D02*
X152190476Y-101181009D01*
X152190476Y-101181009D02*
X152142857Y-101228628D01*
X152142857Y-101228628D02*
X152095238Y-101323866D01*
X152095238Y-101323866D02*
X152095238Y-101514342D01*
X152095238Y-101514342D02*
X152142857Y-101609580D01*
X152142857Y-101609580D02*
X152190476Y-101657200D01*
X152190476Y-101657200D02*
X152285714Y-101704819D01*
X152285714Y-101704819D02*
X152476190Y-101704819D01*
X152476190Y-101704819D02*
X152571428Y-101657200D01*
X152571428Y-101657200D02*
X152619047Y-101609580D01*
X152619047Y-101609580D02*
X152666666Y-101514342D01*
X152666666Y-101514342D02*
X152666666Y-101323866D01*
X152666666Y-101323866D02*
X152619047Y-101228628D01*
X152619047Y-101228628D02*
X152571428Y-101181009D01*
X152571428Y-101181009D02*
X152476190Y-101133390D01*
X108008608Y-94585516D02*
X108008608Y-93584107D01*
X108008608Y-93584107D02*
X108247039Y-93584107D01*
X108247039Y-93584107D02*
X108390097Y-93631793D01*
X108390097Y-93631793D02*
X108485470Y-93727165D01*
X108485470Y-93727165D02*
X108533156Y-93822537D01*
X108533156Y-93822537D02*
X108580842Y-94013282D01*
X108580842Y-94013282D02*
X108580842Y-94156340D01*
X108580842Y-94156340D02*
X108533156Y-94347085D01*
X108533156Y-94347085D02*
X108485470Y-94442457D01*
X108485470Y-94442457D02*
X108390097Y-94537830D01*
X108390097Y-94537830D02*
X108247039Y-94585516D01*
X108247039Y-94585516D02*
X108008608Y-94585516D01*
X109534565Y-94585516D02*
X108962331Y-94585516D01*
X109248448Y-94585516D02*
X109248448Y-93584107D01*
X109248448Y-93584107D02*
X109153076Y-93727165D01*
X109153076Y-93727165D02*
X109057703Y-93822537D01*
X109057703Y-93822537D02*
X108962331Y-93870224D01*
X109916054Y-93679479D02*
X109963740Y-93631793D01*
X109963740Y-93631793D02*
X110059113Y-93584107D01*
X110059113Y-93584107D02*
X110297543Y-93584107D01*
X110297543Y-93584107D02*
X110392916Y-93631793D01*
X110392916Y-93631793D02*
X110440602Y-93679479D01*
X110440602Y-93679479D02*
X110488288Y-93774851D01*
X110488288Y-93774851D02*
X110488288Y-93870224D01*
X110488288Y-93870224D02*
X110440602Y-94013282D01*
X110440602Y-94013282D02*
X109868368Y-94585516D01*
X109868368Y-94585516D02*
X110488288Y-94585516D01*
X136463608Y-179885516D02*
X136463608Y-178884107D01*
X136463608Y-178884107D02*
X136702039Y-178884107D01*
X136702039Y-178884107D02*
X136845097Y-178931793D01*
X136845097Y-178931793D02*
X136940470Y-179027165D01*
X136940470Y-179027165D02*
X136988156Y-179122537D01*
X136988156Y-179122537D02*
X137035842Y-179313282D01*
X137035842Y-179313282D02*
X137035842Y-179456340D01*
X137035842Y-179456340D02*
X136988156Y-179647085D01*
X136988156Y-179647085D02*
X136940470Y-179742457D01*
X136940470Y-179742457D02*
X136845097Y-179837830D01*
X136845097Y-179837830D02*
X136702039Y-179885516D01*
X136702039Y-179885516D02*
X136463608Y-179885516D01*
X137989565Y-179885516D02*
X137417331Y-179885516D01*
X137703448Y-179885516D02*
X137703448Y-178884107D01*
X137703448Y-178884107D02*
X137608076Y-179027165D01*
X137608076Y-179027165D02*
X137512703Y-179122537D01*
X137512703Y-179122537D02*
X137417331Y-179170224D01*
X138466426Y-179885516D02*
X138657171Y-179885516D01*
X138657171Y-179885516D02*
X138752543Y-179837830D01*
X138752543Y-179837830D02*
X138800229Y-179790143D01*
X138800229Y-179790143D02*
X138895602Y-179647085D01*
X138895602Y-179647085D02*
X138943288Y-179456340D01*
X138943288Y-179456340D02*
X138943288Y-179074851D01*
X138943288Y-179074851D02*
X138895602Y-178979479D01*
X138895602Y-178979479D02*
X138847916Y-178931793D01*
X138847916Y-178931793D02*
X138752543Y-178884107D01*
X138752543Y-178884107D02*
X138561799Y-178884107D01*
X138561799Y-178884107D02*
X138466426Y-178931793D01*
X138466426Y-178931793D02*
X138418740Y-178979479D01*
X138418740Y-178979479D02*
X138371054Y-179074851D01*
X138371054Y-179074851D02*
X138371054Y-179313282D01*
X138371054Y-179313282D02*
X138418740Y-179408654D01*
X138418740Y-179408654D02*
X138466426Y-179456340D01*
X138466426Y-179456340D02*
X138561799Y-179504027D01*
X138561799Y-179504027D02*
X138752543Y-179504027D01*
X138752543Y-179504027D02*
X138847916Y-179456340D01*
X138847916Y-179456340D02*
X138895602Y-179408654D01*
X138895602Y-179408654D02*
X138943288Y-179313282D01*
X75434524Y-30419819D02*
X75434524Y-29419819D01*
X75434524Y-29419819D02*
X75767857Y-30134104D01*
X75767857Y-30134104D02*
X76101190Y-29419819D01*
X76101190Y-29419819D02*
X76101190Y-30419819D01*
X76434524Y-29419819D02*
X77005952Y-29419819D01*
X76720238Y-30419819D02*
X76720238Y-29419819D01*
X77291667Y-29515057D02*
X77339286Y-29467438D01*
X77339286Y-29467438D02*
X77434524Y-29419819D01*
X77434524Y-29419819D02*
X77672619Y-29419819D01*
X77672619Y-29419819D02*
X77767857Y-29467438D01*
X77767857Y-29467438D02*
X77815476Y-29515057D01*
X77815476Y-29515057D02*
X77863095Y-29610295D01*
X77863095Y-29610295D02*
X77863095Y-29705533D01*
X77863095Y-29705533D02*
X77815476Y-29848390D01*
X77815476Y-29848390D02*
X77244048Y-30419819D01*
X77244048Y-30419819D02*
X77863095Y-30419819D01*
X145661905Y-81654819D02*
X145661905Y-82464342D01*
X145661905Y-82464342D02*
X145709524Y-82559580D01*
X145709524Y-82559580D02*
X145757143Y-82607200D01*
X145757143Y-82607200D02*
X145852381Y-82654819D01*
X145852381Y-82654819D02*
X146042857Y-82654819D01*
X146042857Y-82654819D02*
X146138095Y-82607200D01*
X146138095Y-82607200D02*
X146185714Y-82559580D01*
X146185714Y-82559580D02*
X146233333Y-82464342D01*
X146233333Y-82464342D02*
X146233333Y-81654819D01*
X146661905Y-81750057D02*
X146709524Y-81702438D01*
X146709524Y-81702438D02*
X146804762Y-81654819D01*
X146804762Y-81654819D02*
X147042857Y-81654819D01*
X147042857Y-81654819D02*
X147138095Y-81702438D01*
X147138095Y-81702438D02*
X147185714Y-81750057D01*
X147185714Y-81750057D02*
X147233333Y-81845295D01*
X147233333Y-81845295D02*
X147233333Y-81940533D01*
X147233333Y-81940533D02*
X147185714Y-82083390D01*
X147185714Y-82083390D02*
X146614286Y-82654819D01*
X146614286Y-82654819D02*
X147233333Y-82654819D01*
X147614286Y-81750057D02*
X147661905Y-81702438D01*
X147661905Y-81702438D02*
X147757143Y-81654819D01*
X147757143Y-81654819D02*
X147995238Y-81654819D01*
X147995238Y-81654819D02*
X148090476Y-81702438D01*
X148090476Y-81702438D02*
X148138095Y-81750057D01*
X148138095Y-81750057D02*
X148185714Y-81845295D01*
X148185714Y-81845295D02*
X148185714Y-81940533D01*
X148185714Y-81940533D02*
X148138095Y-82083390D01*
X148138095Y-82083390D02*
X147566667Y-82654819D01*
X147566667Y-82654819D02*
X148185714Y-82654819D01*
X151666666Y-26704819D02*
X151666666Y-27419104D01*
X151666666Y-27419104D02*
X151619047Y-27561961D01*
X151619047Y-27561961D02*
X151523809Y-27657200D01*
X151523809Y-27657200D02*
X151380952Y-27704819D01*
X151380952Y-27704819D02*
X151285714Y-27704819D01*
X152619047Y-26704819D02*
X152142857Y-26704819D01*
X152142857Y-26704819D02*
X152095238Y-27181009D01*
X152095238Y-27181009D02*
X152142857Y-27133390D01*
X152142857Y-27133390D02*
X152238095Y-27085771D01*
X152238095Y-27085771D02*
X152476190Y-27085771D01*
X152476190Y-27085771D02*
X152571428Y-27133390D01*
X152571428Y-27133390D02*
X152619047Y-27181009D01*
X152619047Y-27181009D02*
X152666666Y-27276247D01*
X152666666Y-27276247D02*
X152666666Y-27514342D01*
X152666666Y-27514342D02*
X152619047Y-27609580D01*
X152619047Y-27609580D02*
X152571428Y-27657200D01*
X152571428Y-27657200D02*
X152476190Y-27704819D01*
X152476190Y-27704819D02*
X152238095Y-27704819D01*
X152238095Y-27704819D02*
X152142857Y-27657200D01*
X152142857Y-27657200D02*
X152095238Y-27609580D01*
X138161905Y-98054819D02*
X138161905Y-98864342D01*
X138161905Y-98864342D02*
X138209524Y-98959580D01*
X138209524Y-98959580D02*
X138257143Y-99007200D01*
X138257143Y-99007200D02*
X138352381Y-99054819D01*
X138352381Y-99054819D02*
X138542857Y-99054819D01*
X138542857Y-99054819D02*
X138638095Y-99007200D01*
X138638095Y-99007200D02*
X138685714Y-98959580D01*
X138685714Y-98959580D02*
X138733333Y-98864342D01*
X138733333Y-98864342D02*
X138733333Y-98054819D01*
X139161905Y-98150057D02*
X139209524Y-98102438D01*
X139209524Y-98102438D02*
X139304762Y-98054819D01*
X139304762Y-98054819D02*
X139542857Y-98054819D01*
X139542857Y-98054819D02*
X139638095Y-98102438D01*
X139638095Y-98102438D02*
X139685714Y-98150057D01*
X139685714Y-98150057D02*
X139733333Y-98245295D01*
X139733333Y-98245295D02*
X139733333Y-98340533D01*
X139733333Y-98340533D02*
X139685714Y-98483390D01*
X139685714Y-98483390D02*
X139114286Y-99054819D01*
X139114286Y-99054819D02*
X139733333Y-99054819D01*
X140066667Y-98054819D02*
X140685714Y-98054819D01*
X140685714Y-98054819D02*
X140352381Y-98435771D01*
X140352381Y-98435771D02*
X140495238Y-98435771D01*
X140495238Y-98435771D02*
X140590476Y-98483390D01*
X140590476Y-98483390D02*
X140638095Y-98531009D01*
X140638095Y-98531009D02*
X140685714Y-98626247D01*
X140685714Y-98626247D02*
X140685714Y-98864342D01*
X140685714Y-98864342D02*
X140638095Y-98959580D01*
X140638095Y-98959580D02*
X140590476Y-99007200D01*
X140590476Y-99007200D02*
X140495238Y-99054819D01*
X140495238Y-99054819D02*
X140209524Y-99054819D01*
X140209524Y-99054819D02*
X140114286Y-99007200D01*
X140114286Y-99007200D02*
X140066667Y-98959580D01*
X58785469Y-65195518D02*
X58785469Y-64194109D01*
X58785469Y-64194109D02*
X59023900Y-64194109D01*
X59023900Y-64194109D02*
X59166958Y-64241795D01*
X59166958Y-64241795D02*
X59262331Y-64337167D01*
X59262331Y-64337167D02*
X59310017Y-64432539D01*
X59310017Y-64432539D02*
X59357703Y-64623284D01*
X59357703Y-64623284D02*
X59357703Y-64766342D01*
X59357703Y-64766342D02*
X59310017Y-64957087D01*
X59310017Y-64957087D02*
X59262331Y-65052459D01*
X59262331Y-65052459D02*
X59166958Y-65147832D01*
X59166958Y-65147832D02*
X59023900Y-65195518D01*
X59023900Y-65195518D02*
X58785469Y-65195518D01*
X60311426Y-65195518D02*
X59739192Y-65195518D01*
X60025309Y-65195518D02*
X60025309Y-64194109D01*
X60025309Y-64194109D02*
X59929937Y-64337167D01*
X59929937Y-64337167D02*
X59834564Y-64432539D01*
X59834564Y-64432539D02*
X59739192Y-64480226D01*
X109661905Y-98054819D02*
X109661905Y-98864342D01*
X109661905Y-98864342D02*
X109709524Y-98959580D01*
X109709524Y-98959580D02*
X109757143Y-99007200D01*
X109757143Y-99007200D02*
X109852381Y-99054819D01*
X109852381Y-99054819D02*
X110042857Y-99054819D01*
X110042857Y-99054819D02*
X110138095Y-99007200D01*
X110138095Y-99007200D02*
X110185714Y-98959580D01*
X110185714Y-98959580D02*
X110233333Y-98864342D01*
X110233333Y-98864342D02*
X110233333Y-98054819D01*
X111233333Y-99054819D02*
X110661905Y-99054819D01*
X110947619Y-99054819D02*
X110947619Y-98054819D01*
X110947619Y-98054819D02*
X110852381Y-98197676D01*
X110852381Y-98197676D02*
X110757143Y-98292914D01*
X110757143Y-98292914D02*
X110661905Y-98340533D01*
X111614286Y-98150057D02*
X111661905Y-98102438D01*
X111661905Y-98102438D02*
X111757143Y-98054819D01*
X111757143Y-98054819D02*
X111995238Y-98054819D01*
X111995238Y-98054819D02*
X112090476Y-98102438D01*
X112090476Y-98102438D02*
X112138095Y-98150057D01*
X112138095Y-98150057D02*
X112185714Y-98245295D01*
X112185714Y-98245295D02*
X112185714Y-98340533D01*
X112185714Y-98340533D02*
X112138095Y-98483390D01*
X112138095Y-98483390D02*
X111566667Y-99054819D01*
X111566667Y-99054819D02*
X112185714Y-99054819D01*
X38666666Y-26704819D02*
X38666666Y-27419104D01*
X38666666Y-27419104D02*
X38619047Y-27561961D01*
X38619047Y-27561961D02*
X38523809Y-27657200D01*
X38523809Y-27657200D02*
X38380952Y-27704819D01*
X38380952Y-27704819D02*
X38285714Y-27704819D01*
X39047619Y-26704819D02*
X39666666Y-26704819D01*
X39666666Y-26704819D02*
X39333333Y-27085771D01*
X39333333Y-27085771D02*
X39476190Y-27085771D01*
X39476190Y-27085771D02*
X39571428Y-27133390D01*
X39571428Y-27133390D02*
X39619047Y-27181009D01*
X39619047Y-27181009D02*
X39666666Y-27276247D01*
X39666666Y-27276247D02*
X39666666Y-27514342D01*
X39666666Y-27514342D02*
X39619047Y-27609580D01*
X39619047Y-27609580D02*
X39571428Y-27657200D01*
X39571428Y-27657200D02*
X39476190Y-27704819D01*
X39476190Y-27704819D02*
X39190476Y-27704819D01*
X39190476Y-27704819D02*
X39095238Y-27657200D01*
X39095238Y-27657200D02*
X39047619Y-27609580D01*
X145661905Y-138654819D02*
X145661905Y-139464342D01*
X145661905Y-139464342D02*
X145709524Y-139559580D01*
X145709524Y-139559580D02*
X145757143Y-139607200D01*
X145757143Y-139607200D02*
X145852381Y-139654819D01*
X145852381Y-139654819D02*
X146042857Y-139654819D01*
X146042857Y-139654819D02*
X146138095Y-139607200D01*
X146138095Y-139607200D02*
X146185714Y-139559580D01*
X146185714Y-139559580D02*
X146233333Y-139464342D01*
X146233333Y-139464342D02*
X146233333Y-138654819D01*
X146661905Y-138750057D02*
X146709524Y-138702438D01*
X146709524Y-138702438D02*
X146804762Y-138654819D01*
X146804762Y-138654819D02*
X147042857Y-138654819D01*
X147042857Y-138654819D02*
X147138095Y-138702438D01*
X147138095Y-138702438D02*
X147185714Y-138750057D01*
X147185714Y-138750057D02*
X147233333Y-138845295D01*
X147233333Y-138845295D02*
X147233333Y-138940533D01*
X147233333Y-138940533D02*
X147185714Y-139083390D01*
X147185714Y-139083390D02*
X146614286Y-139654819D01*
X146614286Y-139654819D02*
X147233333Y-139654819D01*
X148090476Y-138988152D02*
X148090476Y-139654819D01*
X147852381Y-138607200D02*
X147614286Y-139321485D01*
X147614286Y-139321485D02*
X148233333Y-139321485D01*
X136463608Y-151385516D02*
X136463608Y-150384107D01*
X136463608Y-150384107D02*
X136702039Y-150384107D01*
X136702039Y-150384107D02*
X136845097Y-150431793D01*
X136845097Y-150431793D02*
X136940470Y-150527165D01*
X136940470Y-150527165D02*
X136988156Y-150622537D01*
X136988156Y-150622537D02*
X137035842Y-150813282D01*
X137035842Y-150813282D02*
X137035842Y-150956340D01*
X137035842Y-150956340D02*
X136988156Y-151147085D01*
X136988156Y-151147085D02*
X136940470Y-151242457D01*
X136940470Y-151242457D02*
X136845097Y-151337830D01*
X136845097Y-151337830D02*
X136702039Y-151385516D01*
X136702039Y-151385516D02*
X136463608Y-151385516D01*
X137989565Y-151385516D02*
X137417331Y-151385516D01*
X137703448Y-151385516D02*
X137703448Y-150384107D01*
X137703448Y-150384107D02*
X137608076Y-150527165D01*
X137608076Y-150527165D02*
X137512703Y-150622537D01*
X137512703Y-150622537D02*
X137417331Y-150670224D01*
X138561799Y-150813282D02*
X138466426Y-150765596D01*
X138466426Y-150765596D02*
X138418740Y-150717910D01*
X138418740Y-150717910D02*
X138371054Y-150622537D01*
X138371054Y-150622537D02*
X138371054Y-150574851D01*
X138371054Y-150574851D02*
X138418740Y-150479479D01*
X138418740Y-150479479D02*
X138466426Y-150431793D01*
X138466426Y-150431793D02*
X138561799Y-150384107D01*
X138561799Y-150384107D02*
X138752543Y-150384107D01*
X138752543Y-150384107D02*
X138847916Y-150431793D01*
X138847916Y-150431793D02*
X138895602Y-150479479D01*
X138895602Y-150479479D02*
X138943288Y-150574851D01*
X138943288Y-150574851D02*
X138943288Y-150622537D01*
X138943288Y-150622537D02*
X138895602Y-150717910D01*
X138895602Y-150717910D02*
X138847916Y-150765596D01*
X138847916Y-150765596D02*
X138752543Y-150813282D01*
X138752543Y-150813282D02*
X138561799Y-150813282D01*
X138561799Y-150813282D02*
X138466426Y-150860968D01*
X138466426Y-150860968D02*
X138418740Y-150908654D01*
X138418740Y-150908654D02*
X138371054Y-151004027D01*
X138371054Y-151004027D02*
X138371054Y-151194771D01*
X138371054Y-151194771D02*
X138418740Y-151290143D01*
X138418740Y-151290143D02*
X138466426Y-151337830D01*
X138466426Y-151337830D02*
X138561799Y-151385516D01*
X138561799Y-151385516D02*
X138752543Y-151385516D01*
X138752543Y-151385516D02*
X138847916Y-151337830D01*
X138847916Y-151337830D02*
X138895602Y-151290143D01*
X138895602Y-151290143D02*
X138943288Y-151194771D01*
X138943288Y-151194771D02*
X138943288Y-151004027D01*
X138943288Y-151004027D02*
X138895602Y-150908654D01*
X138895602Y-150908654D02*
X138847916Y-150860968D01*
X138847916Y-150860968D02*
X138752543Y-150813282D01*
X136463608Y-122885516D02*
X136463608Y-121884107D01*
X136463608Y-121884107D02*
X136702039Y-121884107D01*
X136702039Y-121884107D02*
X136845097Y-121931793D01*
X136845097Y-121931793D02*
X136940470Y-122027165D01*
X136940470Y-122027165D02*
X136988156Y-122122537D01*
X136988156Y-122122537D02*
X137035842Y-122313282D01*
X137035842Y-122313282D02*
X137035842Y-122456340D01*
X137035842Y-122456340D02*
X136988156Y-122647085D01*
X136988156Y-122647085D02*
X136940470Y-122742457D01*
X136940470Y-122742457D02*
X136845097Y-122837830D01*
X136845097Y-122837830D02*
X136702039Y-122885516D01*
X136702039Y-122885516D02*
X136463608Y-122885516D01*
X137989565Y-122885516D02*
X137417331Y-122885516D01*
X137703448Y-122885516D02*
X137703448Y-121884107D01*
X137703448Y-121884107D02*
X137608076Y-122027165D01*
X137608076Y-122027165D02*
X137512703Y-122122537D01*
X137512703Y-122122537D02*
X137417331Y-122170224D01*
X138323368Y-121884107D02*
X138990974Y-121884107D01*
X138990974Y-121884107D02*
X138561799Y-122885516D01*
X88661905Y-81654819D02*
X88661905Y-82464342D01*
X88661905Y-82464342D02*
X88709524Y-82559580D01*
X88709524Y-82559580D02*
X88757143Y-82607200D01*
X88757143Y-82607200D02*
X88852381Y-82654819D01*
X88852381Y-82654819D02*
X89042857Y-82654819D01*
X89042857Y-82654819D02*
X89138095Y-82607200D01*
X89138095Y-82607200D02*
X89185714Y-82559580D01*
X89185714Y-82559580D02*
X89233333Y-82464342D01*
X89233333Y-82464342D02*
X89233333Y-81654819D01*
X89661905Y-81750057D02*
X89709524Y-81702438D01*
X89709524Y-81702438D02*
X89804762Y-81654819D01*
X89804762Y-81654819D02*
X90042857Y-81654819D01*
X90042857Y-81654819D02*
X90138095Y-81702438D01*
X90138095Y-81702438D02*
X90185714Y-81750057D01*
X90185714Y-81750057D02*
X90233333Y-81845295D01*
X90233333Y-81845295D02*
X90233333Y-81940533D01*
X90233333Y-81940533D02*
X90185714Y-82083390D01*
X90185714Y-82083390D02*
X89614286Y-82654819D01*
X89614286Y-82654819D02*
X90233333Y-82654819D01*
X91090476Y-81654819D02*
X90900000Y-81654819D01*
X90900000Y-81654819D02*
X90804762Y-81702438D01*
X90804762Y-81702438D02*
X90757143Y-81750057D01*
X90757143Y-81750057D02*
X90661905Y-81892914D01*
X90661905Y-81892914D02*
X90614286Y-82083390D01*
X90614286Y-82083390D02*
X90614286Y-82464342D01*
X90614286Y-82464342D02*
X90661905Y-82559580D01*
X90661905Y-82559580D02*
X90709524Y-82607200D01*
X90709524Y-82607200D02*
X90804762Y-82654819D01*
X90804762Y-82654819D02*
X90995238Y-82654819D01*
X90995238Y-82654819D02*
X91090476Y-82607200D01*
X91090476Y-82607200D02*
X91138095Y-82559580D01*
X91138095Y-82559580D02*
X91185714Y-82464342D01*
X91185714Y-82464342D02*
X91185714Y-82226247D01*
X91185714Y-82226247D02*
X91138095Y-82131009D01*
X91138095Y-82131009D02*
X91090476Y-82083390D01*
X91090476Y-82083390D02*
X90995238Y-82035771D01*
X90995238Y-82035771D02*
X90804762Y-82035771D01*
X90804762Y-82035771D02*
X90709524Y-82083390D01*
X90709524Y-82083390D02*
X90661905Y-82131009D01*
X90661905Y-82131009D02*
X90614286Y-82226247D01*
X51440469Y-151385516D02*
X51440469Y-150384107D01*
X51440469Y-150384107D02*
X51678900Y-150384107D01*
X51678900Y-150384107D02*
X51821958Y-150431793D01*
X51821958Y-150431793D02*
X51917331Y-150527165D01*
X51917331Y-150527165D02*
X51965017Y-150622537D01*
X51965017Y-150622537D02*
X52012703Y-150813282D01*
X52012703Y-150813282D02*
X52012703Y-150956340D01*
X52012703Y-150956340D02*
X51965017Y-151147085D01*
X51965017Y-151147085D02*
X51917331Y-151242457D01*
X51917331Y-151242457D02*
X51821958Y-151337830D01*
X51821958Y-151337830D02*
X51678900Y-151385516D01*
X51678900Y-151385516D02*
X51440469Y-151385516D01*
X52871054Y-150717910D02*
X52871054Y-151385516D01*
X52632623Y-150336421D02*
X52394192Y-151051713D01*
X52394192Y-151051713D02*
X53014112Y-151051713D01*
X38666666Y-100704819D02*
X38666666Y-101419104D01*
X38666666Y-101419104D02*
X38619047Y-101561961D01*
X38619047Y-101561961D02*
X38523809Y-101657200D01*
X38523809Y-101657200D02*
X38380952Y-101704819D01*
X38380952Y-101704819D02*
X38285714Y-101704819D01*
X39047619Y-100704819D02*
X39714285Y-100704819D01*
X39714285Y-100704819D02*
X39285714Y-101704819D01*
X128298608Y-65195520D02*
X128298608Y-64194111D01*
X128298608Y-64194111D02*
X128537039Y-64194111D01*
X128537039Y-64194111D02*
X128680097Y-64241797D01*
X128680097Y-64241797D02*
X128775470Y-64337169D01*
X128775470Y-64337169D02*
X128823156Y-64432541D01*
X128823156Y-64432541D02*
X128870842Y-64623286D01*
X128870842Y-64623286D02*
X128870842Y-64766344D01*
X128870842Y-64766344D02*
X128823156Y-64957089D01*
X128823156Y-64957089D02*
X128775470Y-65052461D01*
X128775470Y-65052461D02*
X128680097Y-65147834D01*
X128680097Y-65147834D02*
X128537039Y-65195520D01*
X128537039Y-65195520D02*
X128298608Y-65195520D01*
X129824565Y-65195520D02*
X129252331Y-65195520D01*
X129538448Y-65195520D02*
X129538448Y-64194111D01*
X129538448Y-64194111D02*
X129443076Y-64337169D01*
X129443076Y-64337169D02*
X129347703Y-64432541D01*
X129347703Y-64432541D02*
X129252331Y-64480228D01*
X130778288Y-65195520D02*
X130206054Y-65195520D01*
X130492171Y-65195520D02*
X130492171Y-64194111D01*
X130492171Y-64194111D02*
X130396799Y-64337169D01*
X130396799Y-64337169D02*
X130301426Y-64432541D01*
X130301426Y-64432541D02*
X130206054Y-64480228D01*
X117161905Y-138654819D02*
X117161905Y-139464342D01*
X117161905Y-139464342D02*
X117209524Y-139559580D01*
X117209524Y-139559580D02*
X117257143Y-139607200D01*
X117257143Y-139607200D02*
X117352381Y-139654819D01*
X117352381Y-139654819D02*
X117542857Y-139654819D01*
X117542857Y-139654819D02*
X117638095Y-139607200D01*
X117638095Y-139607200D02*
X117685714Y-139559580D01*
X117685714Y-139559580D02*
X117733333Y-139464342D01*
X117733333Y-139464342D02*
X117733333Y-138654819D01*
X118733333Y-139654819D02*
X118161905Y-139654819D01*
X118447619Y-139654819D02*
X118447619Y-138654819D01*
X118447619Y-138654819D02*
X118352381Y-138797676D01*
X118352381Y-138797676D02*
X118257143Y-138892914D01*
X118257143Y-138892914D02*
X118161905Y-138940533D01*
X119066667Y-138654819D02*
X119685714Y-138654819D01*
X119685714Y-138654819D02*
X119352381Y-139035771D01*
X119352381Y-139035771D02*
X119495238Y-139035771D01*
X119495238Y-139035771D02*
X119590476Y-139083390D01*
X119590476Y-139083390D02*
X119638095Y-139131009D01*
X119638095Y-139131009D02*
X119685714Y-139226247D01*
X119685714Y-139226247D02*
X119685714Y-139464342D01*
X119685714Y-139464342D02*
X119638095Y-139559580D01*
X119638095Y-139559580D02*
X119590476Y-139607200D01*
X119590476Y-139607200D02*
X119495238Y-139654819D01*
X119495238Y-139654819D02*
X119209524Y-139654819D01*
X119209524Y-139654819D02*
X119114286Y-139607200D01*
X119114286Y-139607200D02*
X119066667Y-139559580D01*
X88661905Y-167154819D02*
X88661905Y-167964342D01*
X88661905Y-167964342D02*
X88709524Y-168059580D01*
X88709524Y-168059580D02*
X88757143Y-168107200D01*
X88757143Y-168107200D02*
X88852381Y-168154819D01*
X88852381Y-168154819D02*
X89042857Y-168154819D01*
X89042857Y-168154819D02*
X89138095Y-168107200D01*
X89138095Y-168107200D02*
X89185714Y-168059580D01*
X89185714Y-168059580D02*
X89233333Y-167964342D01*
X89233333Y-167964342D02*
X89233333Y-167154819D01*
X89661905Y-167250057D02*
X89709524Y-167202438D01*
X89709524Y-167202438D02*
X89804762Y-167154819D01*
X89804762Y-167154819D02*
X90042857Y-167154819D01*
X90042857Y-167154819D02*
X90138095Y-167202438D01*
X90138095Y-167202438D02*
X90185714Y-167250057D01*
X90185714Y-167250057D02*
X90233333Y-167345295D01*
X90233333Y-167345295D02*
X90233333Y-167440533D01*
X90233333Y-167440533D02*
X90185714Y-167583390D01*
X90185714Y-167583390D02*
X89614286Y-168154819D01*
X89614286Y-168154819D02*
X90233333Y-168154819D01*
X90709524Y-168154819D02*
X90900000Y-168154819D01*
X90900000Y-168154819D02*
X90995238Y-168107200D01*
X90995238Y-168107200D02*
X91042857Y-168059580D01*
X91042857Y-168059580D02*
X91138095Y-167916723D01*
X91138095Y-167916723D02*
X91185714Y-167726247D01*
X91185714Y-167726247D02*
X91185714Y-167345295D01*
X91185714Y-167345295D02*
X91138095Y-167250057D01*
X91138095Y-167250057D02*
X91090476Y-167202438D01*
X91090476Y-167202438D02*
X90995238Y-167154819D01*
X90995238Y-167154819D02*
X90804762Y-167154819D01*
X90804762Y-167154819D02*
X90709524Y-167202438D01*
X90709524Y-167202438D02*
X90661905Y-167250057D01*
X90661905Y-167250057D02*
X90614286Y-167345295D01*
X90614286Y-167345295D02*
X90614286Y-167583390D01*
X90614286Y-167583390D02*
X90661905Y-167678628D01*
X90661905Y-167678628D02*
X90709524Y-167726247D01*
X90709524Y-167726247D02*
X90804762Y-167773866D01*
X90804762Y-167773866D02*
X90995238Y-167773866D01*
X90995238Y-167773866D02*
X91090476Y-167726247D01*
X91090476Y-167726247D02*
X91138095Y-167678628D01*
X91138095Y-167678628D02*
X91185714Y-167583390D01*
X94035469Y-65195520D02*
X94035469Y-64194111D01*
X94035469Y-64194111D02*
X94273900Y-64194111D01*
X94273900Y-64194111D02*
X94416958Y-64241797D01*
X94416958Y-64241797D02*
X94512331Y-64337169D01*
X94512331Y-64337169D02*
X94560017Y-64432541D01*
X94560017Y-64432541D02*
X94607703Y-64623286D01*
X94607703Y-64623286D02*
X94607703Y-64766344D01*
X94607703Y-64766344D02*
X94560017Y-64957089D01*
X94560017Y-64957089D02*
X94512331Y-65052461D01*
X94512331Y-65052461D02*
X94416958Y-65147834D01*
X94416958Y-65147834D02*
X94273900Y-65195520D01*
X94273900Y-65195520D02*
X94035469Y-65195520D01*
X95466054Y-64194111D02*
X95275309Y-64194111D01*
X95275309Y-64194111D02*
X95179937Y-64241797D01*
X95179937Y-64241797D02*
X95132251Y-64289483D01*
X95132251Y-64289483D02*
X95036878Y-64432541D01*
X95036878Y-64432541D02*
X94989192Y-64623286D01*
X94989192Y-64623286D02*
X94989192Y-65004775D01*
X94989192Y-65004775D02*
X95036878Y-65100147D01*
X95036878Y-65100147D02*
X95084564Y-65147834D01*
X95084564Y-65147834D02*
X95179937Y-65195520D01*
X95179937Y-65195520D02*
X95370681Y-65195520D01*
X95370681Y-65195520D02*
X95466054Y-65147834D01*
X95466054Y-65147834D02*
X95513740Y-65100147D01*
X95513740Y-65100147D02*
X95561426Y-65004775D01*
X95561426Y-65004775D02*
X95561426Y-64766344D01*
X95561426Y-64766344D02*
X95513740Y-64670972D01*
X95513740Y-64670972D02*
X95466054Y-64623286D01*
X95466054Y-64623286D02*
X95370681Y-64575600D01*
X95370681Y-64575600D02*
X95179937Y-64575600D01*
X95179937Y-64575600D02*
X95084564Y-64623286D01*
X95084564Y-64623286D02*
X95036878Y-64670972D01*
X95036878Y-64670972D02*
X94989192Y-64766344D01*
X107963608Y-151385516D02*
X107963608Y-150384107D01*
X107963608Y-150384107D02*
X108202039Y-150384107D01*
X108202039Y-150384107D02*
X108345097Y-150431793D01*
X108345097Y-150431793D02*
X108440470Y-150527165D01*
X108440470Y-150527165D02*
X108488156Y-150622537D01*
X108488156Y-150622537D02*
X108535842Y-150813282D01*
X108535842Y-150813282D02*
X108535842Y-150956340D01*
X108535842Y-150956340D02*
X108488156Y-151147085D01*
X108488156Y-151147085D02*
X108440470Y-151242457D01*
X108440470Y-151242457D02*
X108345097Y-151337830D01*
X108345097Y-151337830D02*
X108202039Y-151385516D01*
X108202039Y-151385516D02*
X107963608Y-151385516D01*
X109489565Y-151385516D02*
X108917331Y-151385516D01*
X109203448Y-151385516D02*
X109203448Y-150384107D01*
X109203448Y-150384107D02*
X109108076Y-150527165D01*
X109108076Y-150527165D02*
X109012703Y-150622537D01*
X109012703Y-150622537D02*
X108917331Y-150670224D01*
X110347916Y-150717910D02*
X110347916Y-151385516D01*
X110109485Y-150336421D02*
X109871054Y-151051713D01*
X109871054Y-151051713D02*
X110490974Y-151051713D01*
X107963608Y-122885516D02*
X107963608Y-121884107D01*
X107963608Y-121884107D02*
X108202039Y-121884107D01*
X108202039Y-121884107D02*
X108345097Y-121931793D01*
X108345097Y-121931793D02*
X108440470Y-122027165D01*
X108440470Y-122027165D02*
X108488156Y-122122537D01*
X108488156Y-122122537D02*
X108535842Y-122313282D01*
X108535842Y-122313282D02*
X108535842Y-122456340D01*
X108535842Y-122456340D02*
X108488156Y-122647085D01*
X108488156Y-122647085D02*
X108440470Y-122742457D01*
X108440470Y-122742457D02*
X108345097Y-122837830D01*
X108345097Y-122837830D02*
X108202039Y-122885516D01*
X108202039Y-122885516D02*
X107963608Y-122885516D01*
X109489565Y-122885516D02*
X108917331Y-122885516D01*
X109203448Y-122885516D02*
X109203448Y-121884107D01*
X109203448Y-121884107D02*
X109108076Y-122027165D01*
X109108076Y-122027165D02*
X109012703Y-122122537D01*
X109012703Y-122122537D02*
X108917331Y-122170224D01*
X109823368Y-121884107D02*
X110443288Y-121884107D01*
X110443288Y-121884107D02*
X110109485Y-122265596D01*
X110109485Y-122265596D02*
X110252543Y-122265596D01*
X110252543Y-122265596D02*
X110347916Y-122313282D01*
X110347916Y-122313282D02*
X110395602Y-122360968D01*
X110395602Y-122360968D02*
X110443288Y-122456340D01*
X110443288Y-122456340D02*
X110443288Y-122694771D01*
X110443288Y-122694771D02*
X110395602Y-122790143D01*
X110395602Y-122790143D02*
X110347916Y-122837830D01*
X110347916Y-122837830D02*
X110252543Y-122885516D01*
X110252543Y-122885516D02*
X109966426Y-122885516D01*
X109966426Y-122885516D02*
X109871054Y-122837830D01*
X109871054Y-122837830D02*
X109823368Y-122790143D01*
X52661905Y-98054819D02*
X52661905Y-98864342D01*
X52661905Y-98864342D02*
X52709524Y-98959580D01*
X52709524Y-98959580D02*
X52757143Y-99007200D01*
X52757143Y-99007200D02*
X52852381Y-99054819D01*
X52852381Y-99054819D02*
X53042857Y-99054819D01*
X53042857Y-99054819D02*
X53138095Y-99007200D01*
X53138095Y-99007200D02*
X53185714Y-98959580D01*
X53185714Y-98959580D02*
X53233333Y-98864342D01*
X53233333Y-98864342D02*
X53233333Y-98054819D01*
X54233333Y-99054819D02*
X53661905Y-99054819D01*
X53947619Y-99054819D02*
X53947619Y-98054819D01*
X53947619Y-98054819D02*
X53852381Y-98197676D01*
X53852381Y-98197676D02*
X53757143Y-98292914D01*
X53757143Y-98292914D02*
X53661905Y-98340533D01*
X55090476Y-98054819D02*
X54900000Y-98054819D01*
X54900000Y-98054819D02*
X54804762Y-98102438D01*
X54804762Y-98102438D02*
X54757143Y-98150057D01*
X54757143Y-98150057D02*
X54661905Y-98292914D01*
X54661905Y-98292914D02*
X54614286Y-98483390D01*
X54614286Y-98483390D02*
X54614286Y-98864342D01*
X54614286Y-98864342D02*
X54661905Y-98959580D01*
X54661905Y-98959580D02*
X54709524Y-99007200D01*
X54709524Y-99007200D02*
X54804762Y-99054819D01*
X54804762Y-99054819D02*
X54995238Y-99054819D01*
X54995238Y-99054819D02*
X55090476Y-99007200D01*
X55090476Y-99007200D02*
X55138095Y-98959580D01*
X55138095Y-98959580D02*
X55185714Y-98864342D01*
X55185714Y-98864342D02*
X55185714Y-98626247D01*
X55185714Y-98626247D02*
X55138095Y-98531009D01*
X55138095Y-98531009D02*
X55090476Y-98483390D01*
X55090476Y-98483390D02*
X54995238Y-98435771D01*
X54995238Y-98435771D02*
X54804762Y-98435771D01*
X54804762Y-98435771D02*
X54709524Y-98483390D01*
X54709524Y-98483390D02*
X54661905Y-98531009D01*
X54661905Y-98531009D02*
X54614286Y-98626247D01*
X103934524Y-30419819D02*
X103934524Y-29419819D01*
X103934524Y-29419819D02*
X104267857Y-30134104D01*
X104267857Y-30134104D02*
X104601190Y-29419819D01*
X104601190Y-29419819D02*
X104601190Y-30419819D01*
X104934524Y-29419819D02*
X105505952Y-29419819D01*
X105220238Y-30419819D02*
X105220238Y-29419819D01*
X105744048Y-29419819D02*
X106363095Y-29419819D01*
X106363095Y-29419819D02*
X106029762Y-29800771D01*
X106029762Y-29800771D02*
X106172619Y-29800771D01*
X106172619Y-29800771D02*
X106267857Y-29848390D01*
X106267857Y-29848390D02*
X106315476Y-29896009D01*
X106315476Y-29896009D02*
X106363095Y-29991247D01*
X106363095Y-29991247D02*
X106363095Y-30229342D01*
X106363095Y-30229342D02*
X106315476Y-30324580D01*
X106315476Y-30324580D02*
X106267857Y-30372200D01*
X106267857Y-30372200D02*
X106172619Y-30419819D01*
X106172619Y-30419819D02*
X105886905Y-30419819D01*
X105886905Y-30419819D02*
X105791667Y-30372200D01*
X105791667Y-30372200D02*
X105744048Y-30324580D01*
X46934524Y-30419819D02*
X46934524Y-29419819D01*
X46934524Y-29419819D02*
X47267857Y-30134104D01*
X47267857Y-30134104D02*
X47601190Y-29419819D01*
X47601190Y-29419819D02*
X47601190Y-30419819D01*
X47934524Y-29419819D02*
X48505952Y-29419819D01*
X48220238Y-30419819D02*
X48220238Y-29419819D01*
X49363095Y-30419819D02*
X48791667Y-30419819D01*
X49077381Y-30419819D02*
X49077381Y-29419819D01*
X49077381Y-29419819D02*
X48982143Y-29562676D01*
X48982143Y-29562676D02*
X48886905Y-29657914D01*
X48886905Y-29657914D02*
X48791667Y-29705533D01*
X38666666Y-158704819D02*
X38666666Y-159419104D01*
X38666666Y-159419104D02*
X38619047Y-159561961D01*
X38619047Y-159561961D02*
X38523809Y-159657200D01*
X38523809Y-159657200D02*
X38380952Y-159704819D01*
X38380952Y-159704819D02*
X38285714Y-159704819D01*
X39571428Y-159038152D02*
X39571428Y-159704819D01*
X39333333Y-158657200D02*
X39095238Y-159371485D01*
X39095238Y-159371485D02*
X39714285Y-159371485D01*
X107963608Y-179885516D02*
X107963608Y-178884107D01*
X107963608Y-178884107D02*
X108202039Y-178884107D01*
X108202039Y-178884107D02*
X108345097Y-178931793D01*
X108345097Y-178931793D02*
X108440470Y-179027165D01*
X108440470Y-179027165D02*
X108488156Y-179122537D01*
X108488156Y-179122537D02*
X108535842Y-179313282D01*
X108535842Y-179313282D02*
X108535842Y-179456340D01*
X108535842Y-179456340D02*
X108488156Y-179647085D01*
X108488156Y-179647085D02*
X108440470Y-179742457D01*
X108440470Y-179742457D02*
X108345097Y-179837830D01*
X108345097Y-179837830D02*
X108202039Y-179885516D01*
X108202039Y-179885516D02*
X107963608Y-179885516D01*
X109489565Y-179885516D02*
X108917331Y-179885516D01*
X109203448Y-179885516D02*
X109203448Y-178884107D01*
X109203448Y-178884107D02*
X109108076Y-179027165D01*
X109108076Y-179027165D02*
X109012703Y-179122537D01*
X109012703Y-179122537D02*
X108917331Y-179170224D01*
X110395602Y-178884107D02*
X109918740Y-178884107D01*
X109918740Y-178884107D02*
X109871054Y-179360968D01*
X109871054Y-179360968D02*
X109918740Y-179313282D01*
X109918740Y-179313282D02*
X110014113Y-179265596D01*
X110014113Y-179265596D02*
X110252543Y-179265596D01*
X110252543Y-179265596D02*
X110347916Y-179313282D01*
X110347916Y-179313282D02*
X110395602Y-179360968D01*
X110395602Y-179360968D02*
X110443288Y-179456340D01*
X110443288Y-179456340D02*
X110443288Y-179694771D01*
X110443288Y-179694771D02*
X110395602Y-179790143D01*
X110395602Y-179790143D02*
X110347916Y-179837830D01*
X110347916Y-179837830D02*
X110252543Y-179885516D01*
X110252543Y-179885516D02*
X110014113Y-179885516D01*
X110014113Y-179885516D02*
X109918740Y-179837830D01*
X109918740Y-179837830D02*
X109871054Y-179790143D01*
X79561905Y-98054819D02*
X79561905Y-98864342D01*
X79561905Y-98864342D02*
X79609524Y-98959580D01*
X79609524Y-98959580D02*
X79657143Y-99007200D01*
X79657143Y-99007200D02*
X79752381Y-99054819D01*
X79752381Y-99054819D02*
X79942857Y-99054819D01*
X79942857Y-99054819D02*
X80038095Y-99007200D01*
X80038095Y-99007200D02*
X80085714Y-98959580D01*
X80085714Y-98959580D02*
X80133333Y-98864342D01*
X80133333Y-98864342D02*
X80133333Y-98054819D01*
X80561905Y-98150057D02*
X80609524Y-98102438D01*
X80609524Y-98102438D02*
X80704762Y-98054819D01*
X80704762Y-98054819D02*
X80942857Y-98054819D01*
X80942857Y-98054819D02*
X81038095Y-98102438D01*
X81038095Y-98102438D02*
X81085714Y-98150057D01*
X81085714Y-98150057D02*
X81133333Y-98245295D01*
X81133333Y-98245295D02*
X81133333Y-98340533D01*
X81133333Y-98340533D02*
X81085714Y-98483390D01*
X81085714Y-98483390D02*
X80514286Y-99054819D01*
X80514286Y-99054819D02*
X81133333Y-99054819D01*
X81466667Y-98054819D02*
X82133333Y-98054819D01*
X82133333Y-98054819D02*
X81704762Y-99054819D01*
X60161905Y-138654819D02*
X60161905Y-139464342D01*
X60161905Y-139464342D02*
X60209524Y-139559580D01*
X60209524Y-139559580D02*
X60257143Y-139607200D01*
X60257143Y-139607200D02*
X60352381Y-139654819D01*
X60352381Y-139654819D02*
X60542857Y-139654819D01*
X60542857Y-139654819D02*
X60638095Y-139607200D01*
X60638095Y-139607200D02*
X60685714Y-139559580D01*
X60685714Y-139559580D02*
X60733333Y-139464342D01*
X60733333Y-139464342D02*
X60733333Y-138654819D01*
X61733333Y-139654819D02*
X61161905Y-139654819D01*
X61447619Y-139654819D02*
X61447619Y-138654819D01*
X61447619Y-138654819D02*
X61352381Y-138797676D01*
X61352381Y-138797676D02*
X61257143Y-138892914D01*
X61257143Y-138892914D02*
X61161905Y-138940533D01*
X62066667Y-138654819D02*
X62733333Y-138654819D01*
X62733333Y-138654819D02*
X62304762Y-139654819D01*
X51440469Y-94385516D02*
X51440469Y-93384107D01*
X51440469Y-93384107D02*
X51678900Y-93384107D01*
X51678900Y-93384107D02*
X51821958Y-93431793D01*
X51821958Y-93431793D02*
X51917331Y-93527165D01*
X51917331Y-93527165D02*
X51965017Y-93622537D01*
X51965017Y-93622537D02*
X52012703Y-93813282D01*
X52012703Y-93813282D02*
X52012703Y-93956340D01*
X52012703Y-93956340D02*
X51965017Y-94147085D01*
X51965017Y-94147085D02*
X51917331Y-94242457D01*
X51917331Y-94242457D02*
X51821958Y-94337830D01*
X51821958Y-94337830D02*
X51678900Y-94385516D01*
X51678900Y-94385516D02*
X51440469Y-94385516D01*
X52394192Y-93479479D02*
X52441878Y-93431793D01*
X52441878Y-93431793D02*
X52537251Y-93384107D01*
X52537251Y-93384107D02*
X52775681Y-93384107D01*
X52775681Y-93384107D02*
X52871054Y-93431793D01*
X52871054Y-93431793D02*
X52918740Y-93479479D01*
X52918740Y-93479479D02*
X52966426Y-93574851D01*
X52966426Y-93574851D02*
X52966426Y-93670224D01*
X52966426Y-93670224D02*
X52918740Y-93813282D01*
X52918740Y-93813282D02*
X52346506Y-94385516D01*
X52346506Y-94385516D02*
X52966426Y-94385516D01*
X60161905Y-167154819D02*
X60161905Y-167964342D01*
X60161905Y-167964342D02*
X60209524Y-168059580D01*
X60209524Y-168059580D02*
X60257143Y-168107200D01*
X60257143Y-168107200D02*
X60352381Y-168154819D01*
X60352381Y-168154819D02*
X60542857Y-168154819D01*
X60542857Y-168154819D02*
X60638095Y-168107200D01*
X60638095Y-168107200D02*
X60685714Y-168059580D01*
X60685714Y-168059580D02*
X60733333Y-167964342D01*
X60733333Y-167964342D02*
X60733333Y-167154819D01*
X61733333Y-168154819D02*
X61161905Y-168154819D01*
X61447619Y-168154819D02*
X61447619Y-167154819D01*
X61447619Y-167154819D02*
X61352381Y-167297676D01*
X61352381Y-167297676D02*
X61257143Y-167392914D01*
X61257143Y-167392914D02*
X61161905Y-167440533D01*
X62304762Y-167583390D02*
X62209524Y-167535771D01*
X62209524Y-167535771D02*
X62161905Y-167488152D01*
X62161905Y-167488152D02*
X62114286Y-167392914D01*
X62114286Y-167392914D02*
X62114286Y-167345295D01*
X62114286Y-167345295D02*
X62161905Y-167250057D01*
X62161905Y-167250057D02*
X62209524Y-167202438D01*
X62209524Y-167202438D02*
X62304762Y-167154819D01*
X62304762Y-167154819D02*
X62495238Y-167154819D01*
X62495238Y-167154819D02*
X62590476Y-167202438D01*
X62590476Y-167202438D02*
X62638095Y-167250057D01*
X62638095Y-167250057D02*
X62685714Y-167345295D01*
X62685714Y-167345295D02*
X62685714Y-167392914D01*
X62685714Y-167392914D02*
X62638095Y-167488152D01*
X62638095Y-167488152D02*
X62590476Y-167535771D01*
X62590476Y-167535771D02*
X62495238Y-167583390D01*
X62495238Y-167583390D02*
X62304762Y-167583390D01*
X62304762Y-167583390D02*
X62209524Y-167631009D01*
X62209524Y-167631009D02*
X62161905Y-167678628D01*
X62161905Y-167678628D02*
X62114286Y-167773866D01*
X62114286Y-167773866D02*
X62114286Y-167964342D01*
X62114286Y-167964342D02*
X62161905Y-168059580D01*
X62161905Y-168059580D02*
X62209524Y-168107200D01*
X62209524Y-168107200D02*
X62304762Y-168154819D01*
X62304762Y-168154819D02*
X62495238Y-168154819D01*
X62495238Y-168154819D02*
X62590476Y-168107200D01*
X62590476Y-168107200D02*
X62638095Y-168059580D01*
X62638095Y-168059580D02*
X62685714Y-167964342D01*
X62685714Y-167964342D02*
X62685714Y-167773866D01*
X62685714Y-167773866D02*
X62638095Y-167678628D01*
X62638095Y-167678628D02*
X62590476Y-167631009D01*
X62590476Y-167631009D02*
X62495238Y-167583390D01*
X68461905Y-62254819D02*
X68461905Y-63064342D01*
X68461905Y-63064342D02*
X68509524Y-63159580D01*
X68509524Y-63159580D02*
X68557143Y-63207200D01*
X68557143Y-63207200D02*
X68652381Y-63254819D01*
X68652381Y-63254819D02*
X68842857Y-63254819D01*
X68842857Y-63254819D02*
X68938095Y-63207200D01*
X68938095Y-63207200D02*
X68985714Y-63159580D01*
X68985714Y-63159580D02*
X69033333Y-63064342D01*
X69033333Y-63064342D02*
X69033333Y-62254819D01*
X69414286Y-62254819D02*
X70033333Y-62254819D01*
X70033333Y-62254819D02*
X69700000Y-62635771D01*
X69700000Y-62635771D02*
X69842857Y-62635771D01*
X69842857Y-62635771D02*
X69938095Y-62683390D01*
X69938095Y-62683390D02*
X69985714Y-62731009D01*
X69985714Y-62731009D02*
X70033333Y-62826247D01*
X70033333Y-62826247D02*
X70033333Y-63064342D01*
X70033333Y-63064342D02*
X69985714Y-63159580D01*
X69985714Y-63159580D02*
X69938095Y-63207200D01*
X69938095Y-63207200D02*
X69842857Y-63254819D01*
X69842857Y-63254819D02*
X69557143Y-63254819D01*
X69557143Y-63254819D02*
X69461905Y-63207200D01*
X69461905Y-63207200D02*
X69414286Y-63159580D01*
X70366667Y-62254819D02*
X70985714Y-62254819D01*
X70985714Y-62254819D02*
X70652381Y-62635771D01*
X70652381Y-62635771D02*
X70795238Y-62635771D01*
X70795238Y-62635771D02*
X70890476Y-62683390D01*
X70890476Y-62683390D02*
X70938095Y-62731009D01*
X70938095Y-62731009D02*
X70985714Y-62826247D01*
X70985714Y-62826247D02*
X70985714Y-63064342D01*
X70985714Y-63064342D02*
X70938095Y-63159580D01*
X70938095Y-63159580D02*
X70890476Y-63207200D01*
X70890476Y-63207200D02*
X70795238Y-63254819D01*
X70795238Y-63254819D02*
X70509524Y-63254819D01*
X70509524Y-63254819D02*
X70414286Y-63207200D01*
X70414286Y-63207200D02*
X70366667Y-63159580D01*
X88661905Y-138654819D02*
X88661905Y-139464342D01*
X88661905Y-139464342D02*
X88709524Y-139559580D01*
X88709524Y-139559580D02*
X88757143Y-139607200D01*
X88757143Y-139607200D02*
X88852381Y-139654819D01*
X88852381Y-139654819D02*
X89042857Y-139654819D01*
X89042857Y-139654819D02*
X89138095Y-139607200D01*
X89138095Y-139607200D02*
X89185714Y-139559580D01*
X89185714Y-139559580D02*
X89233333Y-139464342D01*
X89233333Y-139464342D02*
X89233333Y-138654819D01*
X89661905Y-138750057D02*
X89709524Y-138702438D01*
X89709524Y-138702438D02*
X89804762Y-138654819D01*
X89804762Y-138654819D02*
X90042857Y-138654819D01*
X90042857Y-138654819D02*
X90138095Y-138702438D01*
X90138095Y-138702438D02*
X90185714Y-138750057D01*
X90185714Y-138750057D02*
X90233333Y-138845295D01*
X90233333Y-138845295D02*
X90233333Y-138940533D01*
X90233333Y-138940533D02*
X90185714Y-139083390D01*
X90185714Y-139083390D02*
X89614286Y-139654819D01*
X89614286Y-139654819D02*
X90233333Y-139654819D01*
X90804762Y-139083390D02*
X90709524Y-139035771D01*
X90709524Y-139035771D02*
X90661905Y-138988152D01*
X90661905Y-138988152D02*
X90614286Y-138892914D01*
X90614286Y-138892914D02*
X90614286Y-138845295D01*
X90614286Y-138845295D02*
X90661905Y-138750057D01*
X90661905Y-138750057D02*
X90709524Y-138702438D01*
X90709524Y-138702438D02*
X90804762Y-138654819D01*
X90804762Y-138654819D02*
X90995238Y-138654819D01*
X90995238Y-138654819D02*
X91090476Y-138702438D01*
X91090476Y-138702438D02*
X91138095Y-138750057D01*
X91138095Y-138750057D02*
X91185714Y-138845295D01*
X91185714Y-138845295D02*
X91185714Y-138892914D01*
X91185714Y-138892914D02*
X91138095Y-138988152D01*
X91138095Y-138988152D02*
X91090476Y-139035771D01*
X91090476Y-139035771D02*
X90995238Y-139083390D01*
X90995238Y-139083390D02*
X90804762Y-139083390D01*
X90804762Y-139083390D02*
X90709524Y-139131009D01*
X90709524Y-139131009D02*
X90661905Y-139178628D01*
X90661905Y-139178628D02*
X90614286Y-139273866D01*
X90614286Y-139273866D02*
X90614286Y-139464342D01*
X90614286Y-139464342D02*
X90661905Y-139559580D01*
X90661905Y-139559580D02*
X90709524Y-139607200D01*
X90709524Y-139607200D02*
X90804762Y-139654819D01*
X90804762Y-139654819D02*
X90995238Y-139654819D01*
X90995238Y-139654819D02*
X91090476Y-139607200D01*
X91090476Y-139607200D02*
X91138095Y-139559580D01*
X91138095Y-139559580D02*
X91185714Y-139464342D01*
X91185714Y-139464342D02*
X91185714Y-139273866D01*
X91185714Y-139273866D02*
X91138095Y-139178628D01*
X91138095Y-139178628D02*
X91090476Y-139131009D01*
X91090476Y-139131009D02*
X90995238Y-139083390D01*
X136561905Y-57954823D02*
X136561905Y-58764346D01*
X136561905Y-58764346D02*
X136609524Y-58859584D01*
X136609524Y-58859584D02*
X136657143Y-58907204D01*
X136657143Y-58907204D02*
X136752381Y-58954823D01*
X136752381Y-58954823D02*
X136942857Y-58954823D01*
X136942857Y-58954823D02*
X137038095Y-58907204D01*
X137038095Y-58907204D02*
X137085714Y-58859584D01*
X137085714Y-58859584D02*
X137133333Y-58764346D01*
X137133333Y-58764346D02*
X137133333Y-57954823D01*
X137514286Y-57954823D02*
X138133333Y-57954823D01*
X138133333Y-57954823D02*
X137800000Y-58335775D01*
X137800000Y-58335775D02*
X137942857Y-58335775D01*
X137942857Y-58335775D02*
X138038095Y-58383394D01*
X138038095Y-58383394D02*
X138085714Y-58431013D01*
X138085714Y-58431013D02*
X138133333Y-58526251D01*
X138133333Y-58526251D02*
X138133333Y-58764346D01*
X138133333Y-58764346D02*
X138085714Y-58859584D01*
X138085714Y-58859584D02*
X138038095Y-58907204D01*
X138038095Y-58907204D02*
X137942857Y-58954823D01*
X137942857Y-58954823D02*
X137657143Y-58954823D01*
X137657143Y-58954823D02*
X137561905Y-58907204D01*
X137561905Y-58907204D02*
X137514286Y-58859584D01*
X138990476Y-58288156D02*
X138990476Y-58954823D01*
X138752381Y-57907204D02*
X138514286Y-58621489D01*
X138514286Y-58621489D02*
X139133333Y-58621489D01*
X136463608Y-94385516D02*
X136463608Y-93384107D01*
X136463608Y-93384107D02*
X136702039Y-93384107D01*
X136702039Y-93384107D02*
X136845097Y-93431793D01*
X136845097Y-93431793D02*
X136940470Y-93527165D01*
X136940470Y-93527165D02*
X136988156Y-93622537D01*
X136988156Y-93622537D02*
X137035842Y-93813282D01*
X137035842Y-93813282D02*
X137035842Y-93956340D01*
X137035842Y-93956340D02*
X136988156Y-94147085D01*
X136988156Y-94147085D02*
X136940470Y-94242457D01*
X136940470Y-94242457D02*
X136845097Y-94337830D01*
X136845097Y-94337830D02*
X136702039Y-94385516D01*
X136702039Y-94385516D02*
X136463608Y-94385516D01*
X137989565Y-94385516D02*
X137417331Y-94385516D01*
X137703448Y-94385516D02*
X137703448Y-93384107D01*
X137703448Y-93384107D02*
X137608076Y-93527165D01*
X137608076Y-93527165D02*
X137512703Y-93622537D01*
X137512703Y-93622537D02*
X137417331Y-93670224D01*
X138847916Y-93384107D02*
X138657171Y-93384107D01*
X138657171Y-93384107D02*
X138561799Y-93431793D01*
X138561799Y-93431793D02*
X138514113Y-93479479D01*
X138514113Y-93479479D02*
X138418740Y-93622537D01*
X138418740Y-93622537D02*
X138371054Y-93813282D01*
X138371054Y-93813282D02*
X138371054Y-94194771D01*
X138371054Y-94194771D02*
X138418740Y-94290143D01*
X138418740Y-94290143D02*
X138466426Y-94337830D01*
X138466426Y-94337830D02*
X138561799Y-94385516D01*
X138561799Y-94385516D02*
X138752543Y-94385516D01*
X138752543Y-94385516D02*
X138847916Y-94337830D01*
X138847916Y-94337830D02*
X138895602Y-94290143D01*
X138895602Y-94290143D02*
X138943288Y-94194771D01*
X138943288Y-94194771D02*
X138943288Y-93956340D01*
X138943288Y-93956340D02*
X138895602Y-93860968D01*
X138895602Y-93860968D02*
X138847916Y-93813282D01*
X138847916Y-93813282D02*
X138752543Y-93765596D01*
X138752543Y-93765596D02*
X138561799Y-93765596D01*
X138561799Y-93765596D02*
X138466426Y-93813282D01*
X138466426Y-93813282D02*
X138418740Y-93860968D01*
X138418740Y-93860968D02*
X138371054Y-93956340D01*
X60161905Y-81654819D02*
X60161905Y-82464342D01*
X60161905Y-82464342D02*
X60209524Y-82559580D01*
X60209524Y-82559580D02*
X60257143Y-82607200D01*
X60257143Y-82607200D02*
X60352381Y-82654819D01*
X60352381Y-82654819D02*
X60542857Y-82654819D01*
X60542857Y-82654819D02*
X60638095Y-82607200D01*
X60638095Y-82607200D02*
X60685714Y-82559580D01*
X60685714Y-82559580D02*
X60733333Y-82464342D01*
X60733333Y-82464342D02*
X60733333Y-81654819D01*
X61733333Y-82654819D02*
X61161905Y-82654819D01*
X61447619Y-82654819D02*
X61447619Y-81654819D01*
X61447619Y-81654819D02*
X61352381Y-81797676D01*
X61352381Y-81797676D02*
X61257143Y-81892914D01*
X61257143Y-81892914D02*
X61161905Y-81940533D01*
X62638095Y-81654819D02*
X62161905Y-81654819D01*
X62161905Y-81654819D02*
X62114286Y-82131009D01*
X62114286Y-82131009D02*
X62161905Y-82083390D01*
X62161905Y-82083390D02*
X62257143Y-82035771D01*
X62257143Y-82035771D02*
X62495238Y-82035771D01*
X62495238Y-82035771D02*
X62590476Y-82083390D01*
X62590476Y-82083390D02*
X62638095Y-82131009D01*
X62638095Y-82131009D02*
X62685714Y-82226247D01*
X62685714Y-82226247D02*
X62685714Y-82464342D01*
X62685714Y-82464342D02*
X62638095Y-82559580D01*
X62638095Y-82559580D02*
X62590476Y-82607200D01*
X62590476Y-82607200D02*
X62495238Y-82654819D01*
X62495238Y-82654819D02*
X62257143Y-82654819D01*
X62257143Y-82654819D02*
X62161905Y-82607200D01*
X62161905Y-82607200D02*
X62114286Y-82559580D01*
X108321905Y-62254819D02*
X108321905Y-63064342D01*
X108321905Y-63064342D02*
X108369524Y-63159580D01*
X108369524Y-63159580D02*
X108417143Y-63207200D01*
X108417143Y-63207200D02*
X108512381Y-63254819D01*
X108512381Y-63254819D02*
X108702857Y-63254819D01*
X108702857Y-63254819D02*
X108798095Y-63207200D01*
X108798095Y-63207200D02*
X108845714Y-63159580D01*
X108845714Y-63159580D02*
X108893333Y-63064342D01*
X108893333Y-63064342D02*
X108893333Y-62254819D01*
X109274286Y-62254819D02*
X109893333Y-62254819D01*
X109893333Y-62254819D02*
X109560000Y-62635771D01*
X109560000Y-62635771D02*
X109702857Y-62635771D01*
X109702857Y-62635771D02*
X109798095Y-62683390D01*
X109798095Y-62683390D02*
X109845714Y-62731009D01*
X109845714Y-62731009D02*
X109893333Y-62826247D01*
X109893333Y-62826247D02*
X109893333Y-63064342D01*
X109893333Y-63064342D02*
X109845714Y-63159580D01*
X109845714Y-63159580D02*
X109798095Y-63207200D01*
X109798095Y-63207200D02*
X109702857Y-63254819D01*
X109702857Y-63254819D02*
X109417143Y-63254819D01*
X109417143Y-63254819D02*
X109321905Y-63207200D01*
X109321905Y-63207200D02*
X109274286Y-63159580D01*
X110274286Y-62350057D02*
X110321905Y-62302438D01*
X110321905Y-62302438D02*
X110417143Y-62254819D01*
X110417143Y-62254819D02*
X110655238Y-62254819D01*
X110655238Y-62254819D02*
X110750476Y-62302438D01*
X110750476Y-62302438D02*
X110798095Y-62350057D01*
X110798095Y-62350057D02*
X110845714Y-62445295D01*
X110845714Y-62445295D02*
X110845714Y-62540533D01*
X110845714Y-62540533D02*
X110798095Y-62683390D01*
X110798095Y-62683390D02*
X110226667Y-63254819D01*
X110226667Y-63254819D02*
X110845714Y-63254819D01*
%TO.C,U25*%
D11*
X130065000Y-169850000D02*
X145845000Y-169850000D01*
X145845000Y-185200000D01*
X130065000Y-185200000D01*
X130065000Y-169850000D01*
D12*
%TO.C,D9*%
X80105000Y-146500000D02*
X81805000Y-146500000D01*
X80105000Y-151500000D02*
X81805000Y-151500000D01*
%TO.C,D10*%
X80105000Y-175000000D02*
X81805000Y-175000000D01*
X80105000Y-180000000D02*
X81805000Y-180000000D01*
%TO.C,D7*%
X80105000Y-89500000D02*
X81805000Y-89500000D01*
X80105000Y-94500000D02*
X81805000Y-94500000D01*
%TO.C,D8*%
X80105000Y-118000000D02*
X81805000Y-118000000D01*
X80105000Y-123000000D02*
X81805000Y-123000000D01*
%TO.C,MT4*%
X131550000Y-32100000D02*
X134100000Y-32100000D01*
X131550000Y-35400000D02*
X131550000Y-32100000D01*
X131550000Y-42200000D02*
X131550000Y-45500000D01*
X131550000Y-45500000D02*
X134100000Y-45500000D01*
X141500000Y-32100000D02*
X144050000Y-32100000D01*
X141500000Y-45500000D02*
X144050000Y-45500000D01*
X144050000Y-32100000D02*
X144050000Y-35400000D01*
X144050000Y-45500000D02*
X144050000Y-42200000D01*
D13*
X133700000Y-31200000D02*
G75*
G02*
X133500000Y-31200000I-100000J0D01*
G01*
X133500000Y-31200000D02*
G75*
G02*
X133700000Y-31200000I100000J0D01*
G01*
%TO.C,U11*%
D11*
X101610000Y-84550000D02*
X117390000Y-84550000D01*
X117390000Y-99900000D01*
X101610000Y-99900000D01*
X101610000Y-84550000D01*
%TO.C,U14*%
X101565000Y-169850000D02*
X117345000Y-169850000D01*
X117345000Y-185200000D01*
X101565000Y-185200000D01*
X101565000Y-169850000D01*
D12*
%TO.C,D3*%
X51605000Y-118000000D02*
X53305000Y-118000000D01*
X51605000Y-123000000D02*
X53305000Y-123000000D01*
%TO.C,D5*%
X51605000Y-175000000D02*
X53305000Y-175000000D01*
X51605000Y-180000000D02*
X53305000Y-180000000D01*
%TO.C,D12*%
X108650000Y-89700000D02*
X110350000Y-89700000D01*
X108650000Y-94700000D02*
X110350000Y-94700000D01*
%TO.C,D19*%
X137105000Y-175000000D02*
X138805000Y-175000000D01*
X137105000Y-180000000D02*
X138805000Y-180000000D01*
%TO.C,MT2*%
X74550000Y-32100000D02*
X77100000Y-32100000D01*
X74550000Y-35400000D02*
X74550000Y-32100000D01*
X74550000Y-42200000D02*
X74550000Y-45500000D01*
X74550000Y-45500000D02*
X77100000Y-45500000D01*
X84500000Y-32100000D02*
X87050000Y-32100000D01*
X84500000Y-45500000D02*
X87050000Y-45500000D01*
X87050000Y-32100000D02*
X87050000Y-35400000D01*
X87050000Y-45500000D02*
X87050000Y-42200000D01*
D13*
X76700000Y-31200000D02*
G75*
G02*
X76500000Y-31200000I-100000J0D01*
G01*
X76500000Y-31200000D02*
G75*
G02*
X76700000Y-31200000I100000J0D01*
G01*
%TO.C,U22*%
D11*
X130065000Y-84350000D02*
X145845000Y-84350000D01*
X145845000Y-99700000D01*
X130065000Y-99700000D01*
X130065000Y-84350000D01*
%TO.C,U23*%
X130065000Y-112850000D02*
X145845000Y-112850000D01*
X145845000Y-128200000D01*
X130065000Y-128200000D01*
X130065000Y-112850000D01*
D12*
%TO.C,D1*%
X58950000Y-60310002D02*
X60650000Y-60310002D01*
X58950000Y-65310002D02*
X60650000Y-65310002D01*
%TO.C,U12*%
D11*
X101565000Y-112850000D02*
X117345000Y-112850000D01*
X117345000Y-128200000D01*
X101565000Y-128200000D01*
X101565000Y-112850000D01*
%TO.C,U24*%
X130065000Y-141350000D02*
X145845000Y-141350000D01*
X145845000Y-156700000D01*
X130065000Y-156700000D01*
X130065000Y-141350000D01*
D12*
%TO.C,D18*%
X137105000Y-146500000D02*
X138805000Y-146500000D01*
X137105000Y-151500000D02*
X138805000Y-151500000D01*
%TO.C,D17*%
X137105000Y-118000000D02*
X138805000Y-118000000D01*
X137105000Y-123000000D02*
X138805000Y-123000000D01*
%TO.C,U26*%
D11*
X73065000Y-84350000D02*
X88845000Y-84350000D01*
X88845000Y-99700000D01*
X73065000Y-99700000D01*
X73065000Y-84350000D01*
D12*
%TO.C,D4*%
X51605000Y-146500000D02*
X53305000Y-146500000D01*
X51605000Y-151500000D02*
X53305000Y-151500000D01*
%TO.C,D11*%
X128940000Y-60310004D02*
X130640000Y-60310004D01*
X128940000Y-65310004D02*
X130640000Y-65310004D01*
%TO.C,U13*%
D11*
X101565000Y-141350000D02*
X117345000Y-141350000D01*
X117345000Y-156700000D01*
X101565000Y-156700000D01*
X101565000Y-141350000D01*
%TO.C,U29*%
X73065000Y-169850000D02*
X88845000Y-169850000D01*
X88845000Y-185200000D01*
X73065000Y-185200000D01*
X73065000Y-169850000D01*
D12*
%TO.C,D6*%
X94200000Y-60310004D02*
X95900000Y-60310004D01*
X94200000Y-65310004D02*
X95900000Y-65310004D01*
%TO.C,D14*%
X108605000Y-146500000D02*
X110305000Y-146500000D01*
X108605000Y-151500000D02*
X110305000Y-151500000D01*
%TO.C,D13*%
X108605000Y-118000000D02*
X110305000Y-118000000D01*
X108605000Y-123000000D02*
X110305000Y-123000000D01*
%TO.C,U16*%
D11*
X44565000Y-112850000D02*
X60345000Y-112850000D01*
X60345000Y-128200000D01*
X44565000Y-128200000D01*
X44565000Y-112850000D01*
D12*
%TO.C,MT3*%
X103050000Y-32100000D02*
X105600000Y-32100000D01*
X103050000Y-35400000D02*
X103050000Y-32100000D01*
X103050000Y-42200000D02*
X103050000Y-45500000D01*
X103050000Y-45500000D02*
X105600000Y-45500000D01*
X113000000Y-32100000D02*
X115550000Y-32100000D01*
X113000000Y-45500000D02*
X115550000Y-45500000D01*
X115550000Y-32100000D02*
X115550000Y-35400000D01*
X115550000Y-45500000D02*
X115550000Y-42200000D01*
D13*
X105200000Y-31200000D02*
G75*
G02*
X105000000Y-31200000I-100000J0D01*
G01*
X105000000Y-31200000D02*
G75*
G02*
X105200000Y-31200000I100000J0D01*
G01*
D12*
%TO.C,MT1*%
X46050000Y-32100000D02*
X48600000Y-32100000D01*
X46050000Y-35400000D02*
X46050000Y-32100000D01*
X46050000Y-42200000D02*
X46050000Y-45500000D01*
X46050000Y-45500000D02*
X48600000Y-45500000D01*
X56000000Y-32100000D02*
X58550000Y-32100000D01*
X56000000Y-45500000D02*
X58550000Y-45500000D01*
X58550000Y-32100000D02*
X58550000Y-35400000D01*
X58550000Y-45500000D02*
X58550000Y-42200000D01*
D13*
X48200000Y-31200000D02*
G75*
G02*
X48000000Y-31200000I-100000J0D01*
G01*
X48000000Y-31200000D02*
G75*
G02*
X48200000Y-31200000I100000J0D01*
G01*
D12*
%TO.C,D15*%
X108605000Y-175000000D02*
X110305000Y-175000000D01*
X108605000Y-180000000D02*
X110305000Y-180000000D01*
%TO.C,U27*%
D11*
X73065000Y-112850000D02*
X88845000Y-112850000D01*
X88845000Y-128200000D01*
X73065000Y-128200000D01*
X73065000Y-112850000D01*
%TO.C,U17*%
X44565000Y-141350000D02*
X60345000Y-141350000D01*
X60345000Y-156700000D01*
X44565000Y-156700000D01*
X44565000Y-141350000D01*
D12*
%TO.C,D2*%
X51605000Y-89500000D02*
X53305000Y-89500000D01*
X51605000Y-94500000D02*
X53305000Y-94500000D01*
%TO.C,U18*%
D11*
X44565000Y-169850000D02*
X60345000Y-169850000D01*
X60345000Y-185200000D01*
X44565000Y-185200000D01*
X44565000Y-169850000D01*
%TO.C,U28*%
X73065000Y-141350000D02*
X88845000Y-141350000D01*
X88845000Y-156700000D01*
X73065000Y-156700000D01*
X73065000Y-141350000D01*
D12*
%TO.C,D16*%
X137105000Y-89500000D02*
X138805000Y-89500000D01*
X137105000Y-94500000D02*
X138805000Y-94500000D01*
%TO.C,U15*%
D11*
X44565000Y-84350000D02*
X60345000Y-84350000D01*
X60345000Y-99700000D01*
X44565000Y-99700000D01*
X44565000Y-84350000D01*
%TD*%
M02*
