%TF.GenerationSoftware,KiCad,Pcbnew,8.0.1*%
%TF.CreationDate,2024-04-07T01:06:48+08:00*%
%TF.ProjectId,v3.1,76332e31-2e6b-4696-9361-645f70636258,rev?*%
%TF.SameCoordinates,Original*%
%TF.FileFunction,Paste,Top*%
%TF.FilePolarity,Positive*%
%FSLAX46Y46*%
G04 Gerber Fmt 4.6, Leading zero omitted, Abs format (unit mm)*
G04 Created by KiCad (PCBNEW 8.0.1) date 2024-04-07 01:06:48*
%MOMM*%
%LPD*%
G01*
G04 APERTURE LIST*
G04 Aperture macros list*
%AMFreePoly0*
4,1,198,0.019509,15.398079,0.055557,15.383147,0.083147,15.355557,0.098079,15.319509,0.099986,0.307612,0.100000,0.307612,0.138268,0.242388,0.170711,0.220711,0.192388,0.188268,0.200000,0.150000,0.200000,-0.150000,0.192388,-0.188268,0.170711,-0.220711,0.138268,-0.242388,0.100000,-0.250000,-0.100000,-0.250000,-0.138268,-0.242388,-0.170711,-0.220711,-0.192388,-0.188268,-0.200000,-0.150000,
-0.200000,0.150000,-0.192388,0.188268,-0.170711,0.220711,-0.138268,0.242388,-0.100000,0.307612,-0.098095,0.307612,-0.098272,1.701904,-14.000000,1.700000,-14.019509,1.701921,-14.055557,1.716853,-14.083147,1.744443,-14.098079,1.780491,-14.098079,1.819509,-14.083147,1.855557,-14.055557,1.883147,-14.019509,1.898079,-0.098297,1.899986,-0.098462,3.201904,-14.000000,3.200000,-14.019509,3.201921,
-14.055557,3.216853,-14.083147,3.244443,-14.098079,3.280491,-14.098079,3.319509,-14.083147,3.355557,-14.055557,3.383147,-14.019509,3.398079,-0.098488,3.399986,-0.098653,4.701834,-1.550000,4.700000,-1.569509,4.701921,-1.605557,4.716853,-1.633147,4.744443,-1.648079,4.780491,-1.648079,4.819509,-1.633147,4.855557,-1.605557,4.883147,-1.569509,4.898079,-0.098678,4.899938,-0.098844,6.201834,
-1.550000,6.200000,-1.569509,6.201921,-1.605557,6.216853,-1.633147,6.244443,-1.648079,6.280491,-1.648079,6.319509,-1.633147,6.355557,-1.605557,6.383147,-1.569509,6.398079,-0.098869,6.399938,-0.099034,7.701834,-1.550000,7.700000,-1.569509,7.701921,-1.605557,7.716853,-1.633147,7.744443,-1.648079,7.780491,-1.648079,7.819509,-1.633147,7.855557,-1.605557,7.883147,-1.569509,7.898079,
-0.099059,7.899937,-0.099225,9.201834,-1.550000,9.200000,-1.569509,9.201921,-1.605557,9.216853,-1.633147,9.244443,-1.648079,9.280491,-1.648079,9.319509,-1.633147,9.355557,-1.605557,9.383147,-1.569509,9.398079,-0.099250,9.399937,-0.099415,10.701770,-1.500000,10.700000,-1.519509,10.701921,-1.555557,10.716853,-1.583147,10.744443,-1.598079,10.780491,-1.598079,10.819509,-1.583147,10.855557,
-1.555557,10.883147,-1.519509,10.898079,-0.099440,10.899874,-0.099606,12.201904,-12.401890,12.200218,-12.400000,4.800000,-12.401921,4.780491,-12.416853,4.744443,-12.444443,4.716853,-12.480491,4.701921,-14.000000,4.700000,-14.019509,4.701921,-14.055557,4.716853,-14.083147,4.744443,-14.098079,4.780491,-14.098079,4.819509,-14.083147,4.855557,-14.055557,4.883147,-14.019509,4.898079,-12.598109,4.899875,
-12.598442,6.201771,-14.000000,6.200000,-14.019509,6.201921,-14.055557,6.216853,-14.083147,6.244443,-14.098079,6.280491,-14.098079,6.319509,-14.083147,6.355557,-14.055557,6.383147,-14.019509,6.398079,-12.598492,6.399875,-12.598825,7.701771,-14.000000,7.700000,-14.019509,7.701921,-14.055557,7.716853,-14.083147,7.744443,-14.098079,7.780491,-14.098079,7.819509,-14.083147,7.855557,-14.055557,7.883147,
-14.019509,7.898079,-12.598875,7.899874,-12.599208,9.201770,-14.000000,9.200000,-14.019509,9.201921,-14.055557,9.216853,-14.083147,9.244443,-14.098079,9.280491,-14.098079,9.319509,-14.083147,9.355557,-14.055557,9.383147,-14.019509,9.398079,-12.599259,9.399874,-12.599591,10.701770,-14.000000,10.700000,-14.019509,10.701921,-14.055557,10.716853,-14.083147,10.744443,-14.098079,10.780491,-14.098079,10.819509,
-14.083147,10.855557,-14.055557,10.883147,-14.019509,10.898079,-12.599642,10.899874,-12.599974,12.200191,-14.000000,12.200000,-14.019509,12.201921,-14.055557,12.216853,-14.083147,12.244443,-14.098079,12.280491,-14.098079,12.319509,-14.083147,12.355557,-14.055557,12.383147,-14.019509,12.398079,-0.099631,12.399986,-0.099796,13.701904,-14.000000,13.700000,-14.019509,13.701921,-14.055557,13.716853,-14.083147,13.744443,
-14.098079,13.780491,-14.098079,13.819509,-14.083147,13.855557,-14.055557,13.883147,-14.019509,13.898079,-0.099822,13.899986,-0.099987,15.201904,-14.000000,15.200000,-14.019509,15.201921,-14.055557,15.216853,-14.083147,15.244443,-14.098079,15.280491,-14.098079,15.319509,-14.083147,15.355557,-14.055557,15.383147,-14.019509,15.398079,0.000000,15.400000,0.019509,15.398079,0.019509,15.398079,$1*%
%AMFreePoly1*
4,1,199,0.138268,0.242388,0.170711,0.220711,0.192388,0.188268,0.200000,0.150000,0.200000,-0.150000,0.192388,-0.188268,0.170711,-0.220711,0.138268,-0.242388,0.110000,-0.370000,0.098129,-0.370000,0.098254,-1.351904,14.000000,-1.350000,14.019509,-1.351921,14.055557,-1.366853,14.083147,-1.394443,14.098079,-1.430491,14.098079,-1.469509,14.083147,-1.505557,14.055557,-1.533147,14.019509,-1.548079,
0.098280,-1.549986,0.098447,-2.851904,14.000000,-2.850000,14.019509,-2.851921,14.055557,-2.866853,14.083147,-2.894443,14.098079,-2.930491,14.098079,-2.969509,14.083147,-3.005557,14.055557,-3.033147,14.019509,-3.048079,0.098472,-3.049986,0.098639,-4.351771,1.500000,-4.350000,1.519509,-4.351921,1.555557,-4.366853,1.583147,-4.394443,1.598079,-4.430491,1.598079,-4.469509,1.583147,-4.505557,
1.555557,-4.533147,1.519509,-4.548079,0.098665,-4.549875,0.098832,-5.851771,1.500000,-5.850000,1.519509,-5.851921,1.555557,-5.866853,1.583147,-5.894443,1.598079,-5.930491,1.598079,-5.969509,1.583147,-6.005557,1.555557,-6.033147,1.519509,-6.048079,0.098857,-6.049875,0.099024,-7.351771,1.500000,-7.350000,1.519509,-7.351921,1.555557,-7.366853,1.583147,-7.394443,1.598079,-7.430491,
1.598079,-7.469509,1.583147,-7.505557,1.555557,-7.533147,1.519509,-7.548079,0.099050,-7.549874,0.099217,-8.851770,1.500000,-8.850000,1.519509,-8.851921,1.555557,-8.866853,1.583147,-8.894443,1.598079,-8.930491,1.598079,-8.969509,1.583147,-9.005557,1.555557,-9.033147,1.519509,-9.048079,0.099242,-9.049874,0.099409,-10.351770,1.500000,-10.350000,1.519509,-10.351921,1.555557,-10.366853,
1.583147,-10.394443,1.598079,-10.430491,1.598079,-10.469509,1.583147,-10.505557,1.555557,-10.533147,1.519509,-10.548079,0.099435,-10.549874,0.099602,-11.851902,12.401890,-11.850015,12.400000,-4.450000,12.401921,-4.430491,12.416853,-4.394443,12.444443,-4.366853,12.480491,-4.351921,14.000000,-4.350000,14.019509,-4.351921,14.055557,-4.366853,14.083147,-4.394443,14.098079,-4.430491,14.098079,-4.469509,
14.083147,-4.505557,14.055557,-4.533147,14.019509,-4.548079,12.598109,-4.549875,12.598442,-5.851771,14.000000,-5.850000,14.019509,-5.851921,14.055557,-5.866853,14.083147,-5.894443,14.098079,-5.930491,14.098079,-5.969509,14.083147,-6.005557,14.055557,-6.033147,14.019509,-6.048079,12.598492,-6.049875,12.598825,-7.351771,14.000000,-7.350000,14.019509,-7.351921,14.055557,-7.366853,14.083147,-7.394443,
14.098079,-7.430491,14.098079,-7.469509,14.083147,-7.505557,14.055557,-7.533147,14.019509,-7.548079,12.598875,-7.549874,12.599208,-8.851770,14.000000,-8.850000,14.019509,-8.851921,14.055557,-8.866853,14.083147,-8.894443,14.098079,-8.930491,14.098079,-8.969509,14.083147,-9.005557,14.055557,-9.033147,14.019509,-9.048079,12.599259,-9.049874,12.599591,-10.351770,14.000000,-10.350000,14.019509,-10.351921,
14.055557,-10.366853,14.083147,-10.394443,14.098079,-10.430491,14.098079,-10.469509,14.083147,-10.505557,14.055557,-10.533147,14.019509,-10.548079,12.599642,-10.549874,12.599974,-11.851769,14.000000,-11.850000,14.019509,-11.851921,14.055557,-11.866853,14.083147,-11.894443,14.098079,-11.930491,14.098079,-11.969509,14.083147,-12.005557,14.055557,-12.033147,14.019509,-12.048079,12.500000,-12.050000,12.480551,-12.048084,
0.099627,-12.049984,0.099794,-13.351904,14.000000,-13.350000,14.019509,-13.351921,14.055557,-13.366853,14.083147,-13.394443,14.098079,-13.430491,14.098079,-13.469509,14.083147,-13.505557,14.055557,-13.533147,14.019509,-13.548079,0.099820,-13.549986,0.099987,-14.851904,14.000000,-14.850000,14.019509,-14.851921,14.055557,-14.866853,14.083147,-14.894443,14.098079,-14.930491,14.098079,-14.969509,14.083147,-15.005557,
14.055557,-15.033147,14.019509,-15.048079,0.000000,-15.050000,-0.019509,-15.048079,-0.055557,-15.033147,-0.083147,-15.005557,-0.098079,-14.969509,-0.099955,-0.343678,-0.138268,-0.242388,-0.170711,-0.220711,-0.192388,-0.188268,-0.200000,-0.150000,-0.200000,0.150000,-0.192388,0.188268,-0.170711,0.220711,-0.138268,0.242388,-0.100000,0.250000,0.100000,0.250000,0.138268,0.242388,0.138268,0.242388,
$1*%
%AMFreePoly2*
4,1,339,0.111114,14.566294,0.166294,14.511114,0.196157,14.439018,0.199594,12.794447,0.223638,12.794447,0.669258,12.756008,1.109926,12.679414,1.542381,12.565232,1.801884,12.472211,2.415319,13.956765,2.433844,13.991319,2.489092,14.046431,2.561225,14.076205,2.639261,14.076109,2.711319,14.046156,2.766431,13.990909,2.796205,13.918775,2.796109,13.840739,2.167914,12.320464,2.369937,12.227755,
2.758914,12.006957,3.127477,11.753547,3.472898,11.469400,3.532761,11.410836,4.668578,12.551421,4.698886,12.576294,4.770982,12.606157,4.849018,12.606157,4.921114,12.576294,4.976294,12.521114,5.006157,12.449018,5.006157,12.370982,4.976294,12.298886,3.814022,11.131736,4.084280,10.817517,4.345718,10.454605,4.574999,10.070567,4.723046,9.765786,6.203235,10.384681,6.240739,10.396109,
6.318775,10.396205,6.390909,10.366431,6.446156,10.311319,6.476109,10.239261,6.476205,10.161225,6.446431,10.089092,6.391319,10.033844,4.873568,9.399243,4.930556,9.250616,5.054202,8.820771,5.140448,8.381890,5.188658,7.937221,5.191743,7.796639,6.800000,7.800000,6.839018,7.796157,6.911114,7.766294,6.966294,7.711114,6.996157,7.639018,6.996157,7.560982,6.966294,7.488886,
6.911114,7.433706,6.839018,7.403843,5.192719,7.400402,5.169824,7.043697,5.102919,6.601454,4.998256,6.166597,4.874862,5.797020,6.356765,5.184681,6.391319,5.166156,6.446431,5.110908,6.476205,5.038775,6.476109,4.960739,6.446156,4.888681,6.390909,4.833569,6.318775,4.803795,6.240739,4.803891,4.722098,5.431410,4.679022,5.331834,4.466814,4.938105,4.221554,4.564069,
3.945056,4.212496,3.809917,4.068153,4.951421,2.931422,4.976294,2.901114,5.006157,2.829018,5.006157,2.750982,4.976294,2.678886,4.921114,2.623706,4.849018,2.593843,4.770982,2.593843,4.698886,2.623706,3.530022,3.787684,3.306747,3.586955,2.949660,3.317615,2.570746,3.079961,2.172810,2.875751,2.167240,2.873474,2.784681,1.396765,2.796109,1.359261,2.796205,1.281225,
2.766431,1.209091,2.711319,1.153844,2.639261,1.123891,2.561225,1.123795,2.489092,1.153569,2.433844,1.208681,1.800458,2.723526,1.758797,2.706494,1.331768,2.573445,0.894886,2.477587,0.451382,2.419630,0.102304,2.404297,0.100239,0.249952,0.138268,0.242388,0.170711,0.220711,0.192388,0.188268,0.200000,0.150000,0.200000,-0.150000,0.192388,-0.188268,0.170711,-0.220711,
0.138268,-0.242388,0.100000,-0.250000,-0.100000,-0.250000,-0.138268,-0.242388,-0.170711,-0.220711,-0.192388,-0.188268,-0.200000,-0.150000,-0.200000,0.150000,-0.192388,0.188268,-0.170711,0.220711,-0.138268,0.242388,-0.100000,0.250000,-0.097854,0.250000,-0.095788,2.404011,-0.451382,2.419630,-0.894886,2.477587,-1.331768,2.573445,-1.758797,2.706494,-1.803185,2.724640,-2.415319,1.243235,
-2.433844,1.208681,-2.489092,1.153569,-2.561225,1.123795,-2.639261,1.123891,-2.711319,1.153844,-2.766431,1.209092,-2.796205,1.281225,-2.796109,1.359261,-2.169959,2.874585,-2.172810,2.875751,-2.570746,3.079961,-2.949660,3.317615,-3.306747,3.586955,-3.532244,3.789681,-4.668579,2.648579,-4.698886,2.623706,-4.770982,2.593843,-4.849018,2.593843,-4.921114,2.623706,-4.976294,2.678886,
-5.006157,2.750982,-5.006157,2.829018,-4.976294,2.901114,-3.811960,4.070335,-3.945056,4.212496,-4.221554,4.564069,-4.466814,4.938105,-4.679022,5.331834,-4.723270,5.434120,-6.203235,4.815319,-6.240739,4.803891,-6.318775,4.803795,-6.390908,4.833569,-6.446156,4.888681,-6.476109,4.960739,-6.476205,5.038775,-6.446431,5.110908,-6.391319,5.166156,-4.875798,5.799823,-4.998256,6.166597,
-5.102919,6.601454,-5.169824,7.043697,-5.192909,7.403358,-6.800000,7.400000,-6.839018,7.403843,-6.911114,7.433706,-6.966294,7.488886,-6.996157,7.560982,-6.996157,7.587691,-4.803843,7.587691,-4.785324,7.171168,-4.727674,6.744058,-4.631980,6.323832,-4.499014,5.913873,-4.329844,5.517479,-4.125832,5.137839,-3.888620,4.778010,-3.620116,4.440886,-3.322481,4.129180,-2.998111,3.845401,
-2.649615,3.591832,-2.279798,3.370514,-1.891635,3.183226,-1.872722,3.176111,-1.870739,3.176109,-1.851905,3.168280,-1.488250,3.031478,-1.072890,2.916489,-0.648896,2.839185,-0.219680,2.800188,-0.004188,2.800002,0.000000,2.799165,0.004188,2.800003,0.219680,2.800188,0.648896,2.839185,1.072890,2.916489,1.488250,3.031478,1.851905,3.168280,1.870739,3.176109,1.872722,3.176111,
1.891635,3.183226,2.279798,3.370514,2.649615,3.591832,2.998111,3.845401,3.322481,4.129180,3.620116,4.440886,3.888620,4.778010,4.125832,5.137839,4.329844,5.517479,4.499014,5.913873,4.631980,6.323832,4.727674,6.744058,4.785324,7.171168,4.803843,7.587691,4.803843,7.615489,4.784948,8.032268,4.726925,8.459328,4.630865,8.879470,4.497541,9.289313,4.328025,9.685559,
4.123682,10.065020,3.886156,10.424642,3.617358,10.761532,3.319452,11.072978,2.994834,11.356474,2.646116,11.609739,2.276106,11.830734,1.887780,12.017683,1.871235,12.023890,1.870739,12.023891,1.866154,12.025796,1.484263,12.169079,1.068803,12.283706,0.644741,12.360640,0.215492,12.399262,-0.215492,12.399262,-0.644741,12.360640,-1.068803,12.283706,-1.484263,12.169079,-1.866154,12.025796,
-1.870739,12.023891,-1.871235,12.023890,-1.887780,12.017683,-2.276106,11.830734,-2.646116,11.609739,-2.994834,11.356474,-3.319452,11.072978,-3.617358,10.761532,-3.886156,10.424642,-4.123682,10.065020,-4.328025,9.685559,-4.497541,9.289313,-4.630865,8.879470,-4.726925,8.459328,-4.784948,8.032268,-4.803843,7.615489,-4.803843,7.587691,-6.996157,7.587691,-6.996157,7.639018,-6.966294,7.711114,
-6.911114,7.766294,-6.839018,7.796157,-5.191679,7.799599,-5.188658,7.937221,-5.140448,8.381890,-5.054202,8.820771,-4.930556,9.250616,-4.872508,9.402007,-6.356765,10.015319,-6.391319,10.033844,-6.446431,10.089092,-6.476205,10.161225,-6.476109,10.239261,-6.446156,10.311319,-6.390908,10.366431,-6.318775,10.396205,-6.240739,10.396109,-4.721753,9.768447,-4.574999,10.070567,-4.345718,10.454605,
-4.084280,10.817517,-3.812077,11.133997,-4.951421,12.268579,-4.976294,12.298886,-5.006157,12.370982,-5.006157,12.449018,-4.976294,12.521114,-4.921114,12.576294,-4.849018,12.606157,-4.770982,12.606157,-4.698886,12.576294,-3.530630,11.412921,-3.472898,11.469400,-3.127477,11.753547,-2.758914,12.006957,-2.369937,12.227755,-2.165223,12.321699,-2.784681,13.803235,-2.796109,13.840739,-2.796205,13.918775,
-2.766431,13.990908,-2.711319,14.046156,-2.639261,14.076109,-2.561225,14.076205,-2.489092,14.046431,-2.433844,13.991319,-1.799094,12.473211,-1.542381,12.565232,-1.109926,12.679414,-0.669258,12.756008,-0.223638,12.794447,-0.196645,12.794447,-0.200000,14.400000,-0.196157,14.439018,-0.166294,14.511114,-0.111114,14.566294,-0.039018,14.596157,0.039018,14.596157,0.111114,14.566294,0.111114,14.566294,
$1*%
%AMFreePoly3*
4,1,423,0.138268,0.242388,0.170711,0.220711,0.192388,0.188268,0.200000,0.150000,0.200000,-0.150000,0.192388,-0.188268,0.170711,-0.220711,0.138268,-0.242388,0.100000,-0.250000,0.098642,-0.250000,0.099597,-0.707402,0.416824,-0.684851,0.963176,-0.684851,1.508153,-0.723593,2.049010,-0.800882,2.143370,-0.821281,2.149775,-0.820000,2.226328,-0.835138,2.235381,-0.841172,2.583026,-0.916328,
3.107511,-1.069351,3.619824,-1.259181,4.117388,-1.484860,4.597696,-1.745254,4.922472,-1.952399,4.936344,-1.955144,5.001273,-1.998431,5.006216,-2.005812,5.058330,-2.039051,5.496971,-2.364772,5.911412,-2.720777,6.299564,-3.105274,6.659475,-3.516327,6.989332,-3.951867,7.060685,-4.061438,7.071569,-4.068727,7.114856,-4.133656,7.117972,-4.149409,7.287475,-4.409700,7.552402,-4.887523,
7.782779,-5.382928,7.977448,-5.893423,8.135427,-6.416436,8.230575,-6.837240,8.234862,-6.843672,8.250000,-6.920225,8.249689,-6.921776,8.255921,-6.949335,8.338324,-7.489437,8.382221,-8.034023,8.387391,-8.580351,8.353808,-9.125669,8.281640,-9.667234,8.248052,-9.830042,8.250000,-9.839775,8.234862,-9.916328,8.228185,-9.926344,8.171252,-10.202318,8.023199,-10.728228,7.838226,-11.242315,
7.617265,-11.741991,7.361428,-12.224741,7.116830,-12.616362,7.114856,-12.626344,7.071569,-12.691273,7.067958,-12.693691,6.750447,-13.129839,6.398379,-13.547630,6.017572,-13.939403,5.609943,-14.303188,5.177544,-14.637151,5.010011,-14.748520,5.001273,-14.761569,4.936344,-14.804856,4.920572,-14.807975,4.722553,-14.939612,4.247258,-15.209049,3.754055,-15.444104,3.245425,-15.643594,2.723930,-15.806515,
2.228356,-15.923510,2.226328,-15.924862,2.203551,-15.929365,2.192195,-15.932047,2.189993,-15.932047,2.149775,-15.940000,2.073255,-15.924690,2.008419,-15.881262,1.965138,-15.816328,1.603799,-14.008797,1.600000,-13.969774,1.615310,-13.893255,1.658738,-13.828419,1.723672,-13.785138,1.800226,-13.770000,1.876745,-13.785310,1.941581,-13.828738,1.984862,-13.893672,2.306288,-15.501549,2.374619,-15.487969,
2.886617,-15.346781,3.387003,-15.168766,3.873133,-14.954864,4.342435,-14.706206,4.581280,-14.556475,3.693590,-13.230940,3.675144,-13.196343,3.660000,-13.119791,3.675304,-13.043270,3.718727,-12.978431,3.783657,-12.935144,3.860209,-12.920000,3.936730,-12.935304,4.001569,-12.978727,4.911199,-14.337022,5.220740,-14.110057,5.625099,-13.765718,6.003371,-13.392909,6.353555,-12.993600,6.650853,-12.600263,
5.319060,-11.716410,5.288727,-11.691569,5.245304,-11.626730,5.230000,-11.550209,5.245144,-11.473657,5.288431,-11.408727,5.353270,-11.365304,5.429791,-11.350000,5.506343,-11.365144,6.868493,-12.269144,6.962414,-12.124059,7.217871,-11.658422,7.438821,-11.175455,7.624095,-10.677711,7.772715,-10.167821,7.810130,-9.993043,6.241203,-9.686201,6.203672,-9.674862,6.138738,-9.631581,6.095310,-9.566745,
6.080000,-9.490226,6.095138,-9.413672,6.138419,-9.348738,6.203255,-9.305310,6.279774,-9.290000,7.889952,-9.604910,7.957045,-9.122433,7.991781,-8.592462,7.987918,-8.061368,7.945478,-7.531958,7.887102,-7.152685,6.318797,-7.466201,6.279774,-7.470000,6.203255,-7.454690,6.138419,-7.411262,6.095138,-7.346328,6.080000,-7.269774,6.095310,-7.193255,6.138738,-7.128419,6.203672,-7.085138,
7.808999,-6.764221,7.745964,-6.489362,7.589944,-5.981687,7.397450,-5.486690,7.169500,-5.006988,6.907298,-4.545116,6.868644,-4.487266,5.540940,-5.376410,5.506343,-5.394856,5.429791,-5.410000,5.353270,-5.394696,5.288431,-5.351273,5.245144,-5.286343,5.230000,-5.209791,5.245304,-5.133270,5.288727,-5.068431,6.648506,-4.157807,6.612230,-4.103516,6.285856,-3.684521,5.929901,-3.290348,
5.546248,-2.923080,5.136924,-2.584658,4.908310,-2.422090,4.026410,-3.750940,4.001569,-3.781273,3.936730,-3.824696,3.860209,-3.840000,3.783657,-3.824856,3.718727,-3.781569,3.675304,-3.716730,3.660000,-3.640209,3.675144,-3.563657,4.579360,-2.201181,4.250042,-2.001347,3.777172,-1.759541,3.287983,-1.552731,2.785061,-1.382012,2.303650,-1.256764,1.996201,-2.828797,1.984862,-2.866328,
1.941581,-2.931262,1.876745,-2.974690,1.800226,-2.990000,1.723672,-2.974862,1.658738,-2.931581,1.615310,-2.866745,1.600000,-2.790226,1.914388,-1.182715,1.748709,-1.152258,1.220757,-1.094438,0.690000,-1.075131,0.159243,-1.094438,-0.368709,-1.152258,-0.537246,-1.183241,-0.223799,-2.751203,-0.220000,-2.790226,-0.235310,-2.866745,-0.278738,-2.931581,-0.343672,-2.974862,-0.420225,-2.990000,
-0.496745,-2.974690,-0.561581,-2.931262,-0.604862,-2.866328,-0.926478,-1.257500,-1.405061,-1.382012,-1.907983,-1.552731,-2.397172,-1.759541,-2.870042,-2.001347,-3.201841,-2.202687,-2.313590,-3.529060,-2.295144,-3.563657,-2.280000,-3.640209,-2.295304,-3.716730,-2.338727,-3.781569,-2.403656,-3.824856,-2.480209,-3.840000,-2.556730,-3.824696,-2.621569,-3.781274,-3.530669,-2.423768,-3.756924,-2.584658,
-4.166248,-2.923080,-4.549901,-3.290348,-4.905856,-3.684521,-5.232230,-4.103516,-5.270120,-4.160222,-3.939060,-5.043590,-3.908726,-5.068431,-3.865304,-5.133270,-3.850000,-5.209791,-3.865144,-5.286344,-3.908431,-5.351273,-3.973270,-5.394696,-4.049791,-5.410000,-4.126343,-5.394856,-5.490259,-4.489683,-5.527298,-4.545116,-5.789500,-5.006988,-6.017450,-5.486690,-6.209944,-5.981687,-6.365964,-6.489362,
-6.429647,-6.767050,-4.861203,-7.073799,-4.823672,-7.085138,-4.758738,-7.128419,-4.715310,-7.193255,-4.700000,-7.269775,-4.715138,-7.346328,-4.758419,-7.411262,-4.823255,-7.454690,-4.899774,-7.470000,-6.507544,-7.155560,-6.565478,-7.531958,-6.607918,-8.061368,-6.611781,-8.592462,-6.577045,-9.122433,-6.509550,-9.607804,-4.938797,-9.293799,-4.899774,-9.290000,-4.823255,-9.305310,-4.758419,-9.348738,
-4.715138,-9.413672,-4.700000,-9.490225,-4.715310,-9.566745,-4.758738,-9.631581,-4.823672,-9.674862,-6.429522,-9.995883,-6.392715,-10.167821,-6.244095,-10.677711,-6.058821,-11.175455,-5.837871,-11.658422,-5.582414,-12.124059,-5.486918,-12.271578,-4.160940,-11.383590,-4.126343,-11.365144,-4.049791,-11.350000,-3.973270,-11.365304,-3.908431,-11.408727,-3.865144,-11.473656,-3.850000,-11.550209,-3.865304,-11.626730,
-3.908726,-11.691569,-5.269096,-12.602587,-4.973555,-12.993600,-4.623371,-13.392909,-4.245099,-13.765718,-3.840740,-14.110057,-3.528859,-14.338737,-2.646410,-13.009060,-2.621569,-12.978726,-2.556730,-12.935304,-2.480209,-12.920000,-2.403656,-12.935144,-2.338727,-12.978431,-2.295304,-13.043270,-2.280000,-13.119791,-2.295144,-13.196343,-3.198826,-14.558014,-2.962435,-14.706206,-2.493133,-14.954864,-2.007003,-15.168766,
-1.506617,-15.346781,-0.994619,-15.487969,-0.923431,-15.502116,-0.616201,-13.931203,-0.604862,-13.893672,-0.561581,-13.828738,-0.496745,-13.785310,-0.420225,-13.770000,-0.343672,-13.785138,-0.278738,-13.828419,-0.235310,-13.893255,-0.220000,-13.969774,-0.573799,-15.778797,-0.585138,-15.816328,-0.628419,-15.881262,-0.693255,-15.924690,-0.769774,-15.940000,-0.809993,-15.932047,-0.812195,-15.932047,-0.823553,-15.929365,
-0.846328,-15.924862,-0.848356,-15.923510,-1.343930,-15.806515,-1.865425,-15.643594,-2.374055,-15.444104,-2.867258,-15.209049,-3.342553,-14.939612,-3.540572,-14.807975,-3.556343,-14.804856,-3.621273,-14.761569,-3.630011,-14.748520,-3.797544,-14.637151,-4.229943,-14.303188,-4.637572,-13.939403,-5.018379,-13.547630,-5.370447,-13.129839,-5.687958,-12.693691,-5.691569,-12.691273,-5.734856,-12.626343,-5.736830,-12.616362,
-5.981428,-12.224741,-6.237265,-11.741991,-6.458226,-11.242315,-6.643199,-10.728228,-6.791252,-10.202318,-6.848185,-9.926344,-6.854862,-9.916328,-6.870000,-9.839774,-6.868052,-9.830041,-6.901640,-9.667234,-6.973808,-9.125669,-7.007391,-8.580351,-7.002221,-8.034023,-6.958324,-7.489437,-6.875921,-6.949335,-6.869689,-6.921776,-6.870000,-6.920226,-6.854862,-6.843672,-6.850575,-6.837240,-6.755427,-6.416436,
-6.597448,-5.893423,-6.402779,-5.382928,-6.172402,-4.887523,-5.907475,-4.409700,-5.737972,-4.149408,-5.734856,-4.133657,-5.691569,-4.068727,-5.680685,-4.061438,-5.609332,-3.951867,-5.279475,-3.516327,-4.919564,-3.105274,-4.531412,-2.720777,-4.116971,-2.364772,-3.678330,-2.039051,-3.626216,-2.005812,-3.621273,-1.998431,-3.556343,-1.955144,-3.542473,-1.952400,-3.217696,-1.745254,-2.737388,-1.484860,
-2.239824,-1.259181,-1.727511,-1.069351,-1.203026,-0.916328,-0.855381,-0.841172,-0.846328,-0.835138,-0.769774,-0.820000,-0.763370,-0.821281,-0.669010,-0.800882,-0.128153,-0.723593,-0.098492,-0.721484,-0.099478,-0.250000,-0.100000,-0.250000,-0.138268,-0.242388,-0.170711,-0.220711,-0.192388,-0.188268,-0.200000,-0.150000,-0.200000,0.150000,-0.192388,0.188268,-0.170711,0.220711,-0.138268,0.242388,
-0.100000,0.250000,0.100000,0.250000,0.138268,0.242388,0.138268,0.242388,$1*%
G04 Aperture macros list end*
%ADD10FreePoly0,0.000000*%
%ADD11FreePoly1,0.000000*%
%ADD12R,2.000000X1.400000*%
%ADD13R,2.000000X1.000000*%
%ADD14FreePoly2,0.000000*%
%ADD15FreePoly3,0.000000*%
G04 APERTURE END LIST*
D10*
%TO.C,U25*%
X145425000Y-185500000D03*
D11*
X130425000Y-169500000D03*
%TD*%
D12*
%TO.C,D9*%
X78755000Y-147200000D03*
D13*
X78755000Y-149000000D03*
D12*
X78755000Y-150800000D03*
X83155000Y-150800000D03*
D13*
X83155000Y-149000000D03*
D12*
X83155000Y-147200000D03*
%TD*%
%TO.C,D10*%
X78755000Y-175700000D03*
D13*
X78755000Y-177500000D03*
D12*
X78755000Y-179300000D03*
X83155000Y-179300000D03*
D13*
X83155000Y-177500000D03*
D12*
X83155000Y-175700000D03*
%TD*%
%TO.C,D7*%
X78755000Y-90200000D03*
D13*
X78755000Y-92000000D03*
D12*
X78755000Y-93800000D03*
X83155000Y-93800000D03*
D13*
X83155000Y-92000000D03*
D12*
X83155000Y-90200000D03*
%TD*%
%TO.C,D8*%
X78755000Y-118700000D03*
D13*
X78755000Y-120500000D03*
D12*
X78755000Y-122300000D03*
X83155000Y-122300000D03*
D13*
X83155000Y-120500000D03*
D12*
X83155000Y-118700000D03*
%TD*%
D10*
%TO.C,U11*%
X116970000Y-100200000D03*
D11*
X101970000Y-84200000D03*
%TD*%
D10*
%TO.C,U14*%
X116925000Y-185500000D03*
D11*
X101925000Y-169500000D03*
%TD*%
D12*
%TO.C,D3*%
X50255000Y-118700000D03*
D13*
X50255000Y-120500000D03*
D12*
X50255000Y-122300000D03*
X54655000Y-122300000D03*
D13*
X54655000Y-120500000D03*
D12*
X54655000Y-118700000D03*
%TD*%
%TO.C,D5*%
X50255000Y-175700000D03*
D13*
X50255000Y-177500000D03*
D12*
X50255000Y-179300000D03*
X54655000Y-179300000D03*
D13*
X54655000Y-177500000D03*
D12*
X54655000Y-175700000D03*
%TD*%
%TO.C,D12*%
X107300000Y-90400000D03*
D13*
X107300000Y-92200000D03*
D12*
X107300000Y-94000000D03*
X111700000Y-94000000D03*
D13*
X111700000Y-92200000D03*
D12*
X111700000Y-90400000D03*
%TD*%
%TO.C,D19*%
X135755000Y-175700000D03*
D13*
X135755000Y-177500000D03*
D12*
X135755000Y-179300000D03*
X140155000Y-179300000D03*
D13*
X140155000Y-177500000D03*
D12*
X140155000Y-175700000D03*
%TD*%
D10*
%TO.C,U22*%
X145425000Y-100000000D03*
D11*
X130425000Y-84000000D03*
%TD*%
D10*
%TO.C,U23*%
X145425000Y-128500000D03*
D11*
X130425000Y-112500000D03*
%TD*%
D12*
%TO.C,D1*%
X57600000Y-61010002D03*
D13*
X57600000Y-62810002D03*
D12*
X57600000Y-64610002D03*
X62000000Y-64610002D03*
D13*
X62000000Y-62810002D03*
D12*
X62000000Y-61010002D03*
%TD*%
D10*
%TO.C,U12*%
X116925000Y-128500000D03*
D11*
X101925000Y-112500000D03*
%TD*%
D10*
%TO.C,U24*%
X145425000Y-157000000D03*
D11*
X130425000Y-141000000D03*
%TD*%
D12*
%TO.C,D18*%
X135755000Y-147200000D03*
D13*
X135755000Y-149000000D03*
D12*
X135755000Y-150800000D03*
X140155000Y-150800000D03*
D13*
X140155000Y-149000000D03*
D12*
X140155000Y-147200000D03*
%TD*%
%TO.C,D17*%
X135755000Y-118700000D03*
D13*
X135755000Y-120500000D03*
D12*
X135755000Y-122300000D03*
X140155000Y-122300000D03*
D13*
X140155000Y-120500000D03*
D12*
X140155000Y-118700000D03*
%TD*%
D10*
%TO.C,U26*%
X88425000Y-100000000D03*
D11*
X73425000Y-84000000D03*
%TD*%
D12*
%TO.C,D4*%
X50255000Y-147200000D03*
D13*
X50255000Y-149000000D03*
D12*
X50255000Y-150800000D03*
X54655000Y-150800000D03*
D13*
X54655000Y-149000000D03*
D12*
X54655000Y-147200000D03*
%TD*%
%TO.C,D11*%
X127590000Y-61010004D03*
D13*
X127590000Y-62810004D03*
D12*
X127590000Y-64610004D03*
X131990000Y-64610004D03*
D13*
X131990000Y-62810004D03*
D12*
X131990000Y-61010004D03*
%TD*%
D10*
%TO.C,U13*%
X116925000Y-157000000D03*
D11*
X101925000Y-141000000D03*
%TD*%
D10*
%TO.C,U29*%
X88425000Y-185500000D03*
D11*
X73425000Y-169500000D03*
%TD*%
D12*
%TO.C,D6*%
X92850000Y-61010004D03*
D13*
X92850000Y-62810004D03*
D12*
X92850000Y-64610004D03*
X97250000Y-64610004D03*
D13*
X97250000Y-62810004D03*
D12*
X97250000Y-61010004D03*
%TD*%
%TO.C,D14*%
X107255000Y-147200000D03*
D13*
X107255000Y-149000000D03*
D12*
X107255000Y-150800000D03*
X111655000Y-150800000D03*
D13*
X111655000Y-149000000D03*
D12*
X111655000Y-147200000D03*
%TD*%
%TO.C,D13*%
X107255000Y-118700000D03*
D13*
X107255000Y-120500000D03*
D12*
X107255000Y-122300000D03*
X111655000Y-122300000D03*
D13*
X111655000Y-120500000D03*
D12*
X111655000Y-118700000D03*
%TD*%
D10*
%TO.C,U16*%
X59925000Y-128500000D03*
D11*
X44925000Y-112500000D03*
%TD*%
D12*
%TO.C,D15*%
X107255000Y-175700000D03*
D13*
X107255000Y-177500000D03*
D12*
X107255000Y-179300000D03*
X111655000Y-179300000D03*
D13*
X111655000Y-177500000D03*
D12*
X111655000Y-175700000D03*
%TD*%
D10*
%TO.C,U27*%
X88425000Y-128500000D03*
D11*
X73425000Y-112500000D03*
%TD*%
D10*
%TO.C,U17*%
X59925000Y-157000000D03*
D11*
X44925000Y-141000000D03*
%TD*%
D12*
%TO.C,D2*%
X50255000Y-90200000D03*
D13*
X50255000Y-92000000D03*
D12*
X50255000Y-93800000D03*
X54655000Y-93800000D03*
D13*
X54655000Y-92000000D03*
D12*
X54655000Y-90200000D03*
%TD*%
D10*
%TO.C,U18*%
X59925000Y-185500000D03*
D11*
X44925000Y-169500000D03*
%TD*%
D14*
%TO.C,U33*%
X59800000Y-70800002D03*
D15*
X59110000Y-54820002D03*
%TD*%
D10*
%TO.C,U28*%
X88425000Y-157000000D03*
D11*
X73425000Y-141000000D03*
%TD*%
D14*
%TO.C,U34*%
X129790000Y-70800004D03*
D15*
X129100000Y-54820004D03*
%TD*%
D12*
%TO.C,D16*%
X135755000Y-90200000D03*
D13*
X135755000Y-92000000D03*
D12*
X135755000Y-93800000D03*
X140155000Y-93800000D03*
D13*
X140155000Y-92000000D03*
D12*
X140155000Y-90200000D03*
%TD*%
D10*
%TO.C,U15*%
X59925000Y-100000000D03*
D11*
X44925000Y-84000000D03*
%TD*%
D14*
%TO.C,U32*%
X95050000Y-70800004D03*
D15*
X94360000Y-54820004D03*
%TD*%
M02*
