%TF.GenerationSoftware,KiCad,Pcbnew,8.0.1*%
%TF.CreationDate,2024-04-07T01:04:32+08:00*%
%TF.ProjectId,rpiconnector,72706963-6f6e-46e6-9563-746f722e6b69,rev?*%
%TF.SameCoordinates,Original*%
%TF.FileFunction,Legend,Top*%
%TF.FilePolarity,Positive*%
%FSLAX46Y46*%
G04 Gerber Fmt 4.6, Leading zero omitted, Abs format (unit mm)*
G04 Created by KiCad (PCBNEW 8.0.1) date 2024-04-07 01:04:32*
%MOMM*%
%LPD*%
G01*
G04 APERTURE LIST*
%ADD10C,0.150000*%
%ADD11C,0.120000*%
G04 APERTURE END LIST*
D10*
X148076190Y-56069104D02*
X148552380Y-56069104D01*
X147980952Y-56354819D02*
X148314285Y-55354819D01*
X148314285Y-55354819D02*
X148647618Y-56354819D01*
X148933333Y-55069104D02*
X149314285Y-55069104D01*
X149314285Y-55069104D02*
X149123809Y-55307200D01*
X149123809Y-55307200D02*
X149171428Y-55307200D01*
X149171428Y-55307200D02*
X149266666Y-55354819D01*
X149266666Y-55354819D02*
X149314285Y-55450057D01*
X149314285Y-55450057D02*
X149314285Y-55592914D01*
X149314285Y-55592914D02*
X149266666Y-55688152D01*
X149266666Y-55688152D02*
X149171428Y-55735771D01*
X149171428Y-55735771D02*
X149028571Y-55735771D01*
X149028571Y-55735771D02*
X148933333Y-55688152D01*
X150457143Y-56069104D02*
X150933333Y-56069104D01*
X150361905Y-56354819D02*
X150695238Y-55354819D01*
X150695238Y-55354819D02*
X151028571Y-56354819D01*
X151790476Y-55688152D02*
X151790476Y-56354819D01*
X151361905Y-55688152D02*
X151361905Y-56211961D01*
X151361905Y-56211961D02*
X151409524Y-56307200D01*
X151409524Y-56307200D02*
X151504762Y-56354819D01*
X151504762Y-56354819D02*
X151647619Y-56354819D01*
X151647619Y-56354819D02*
X151742857Y-56307200D01*
X151742857Y-56307200D02*
X151790476Y-56259580D01*
X152695238Y-56354819D02*
X152695238Y-55354819D01*
X152695238Y-56307200D02*
X152600000Y-56354819D01*
X152600000Y-56354819D02*
X152409524Y-56354819D01*
X152409524Y-56354819D02*
X152314286Y-56307200D01*
X152314286Y-56307200D02*
X152266667Y-56259580D01*
X152266667Y-56259580D02*
X152219048Y-56164342D01*
X152219048Y-56164342D02*
X152219048Y-55878628D01*
X152219048Y-55878628D02*
X152266667Y-55783390D01*
X152266667Y-55783390D02*
X152314286Y-55735771D01*
X152314286Y-55735771D02*
X152409524Y-55688152D01*
X152409524Y-55688152D02*
X152600000Y-55688152D01*
X152600000Y-55688152D02*
X152695238Y-55735771D01*
X153171429Y-56354819D02*
X153171429Y-55688152D01*
X153171429Y-55354819D02*
X153123810Y-55402438D01*
X153123810Y-55402438D02*
X153171429Y-55450057D01*
X153171429Y-55450057D02*
X153219048Y-55402438D01*
X153219048Y-55402438D02*
X153171429Y-55354819D01*
X153171429Y-55354819D02*
X153171429Y-55450057D01*
X153790476Y-56354819D02*
X153695238Y-56307200D01*
X153695238Y-56307200D02*
X153647619Y-56259580D01*
X153647619Y-56259580D02*
X153600000Y-56164342D01*
X153600000Y-56164342D02*
X153600000Y-55878628D01*
X153600000Y-55878628D02*
X153647619Y-55783390D01*
X153647619Y-55783390D02*
X153695238Y-55735771D01*
X153695238Y-55735771D02*
X153790476Y-55688152D01*
X153790476Y-55688152D02*
X153933333Y-55688152D01*
X153933333Y-55688152D02*
X154028571Y-55735771D01*
X154028571Y-55735771D02*
X154076190Y-55783390D01*
X154076190Y-55783390D02*
X154123809Y-55878628D01*
X154123809Y-55878628D02*
X154123809Y-56164342D01*
X154123809Y-56164342D02*
X154076190Y-56259580D01*
X154076190Y-56259580D02*
X154028571Y-56307200D01*
X154028571Y-56307200D02*
X153933333Y-56354819D01*
X153933333Y-56354819D02*
X153790476Y-56354819D01*
X160050057Y-67375238D02*
X160002438Y-67470476D01*
X160002438Y-67470476D02*
X159907200Y-67565714D01*
X159907200Y-67565714D02*
X159764342Y-67708571D01*
X159764342Y-67708571D02*
X159716723Y-67803809D01*
X159716723Y-67803809D02*
X159716723Y-67899047D01*
X159954819Y-67851428D02*
X159907200Y-67946666D01*
X159907200Y-67946666D02*
X159811961Y-68041904D01*
X159811961Y-68041904D02*
X159621485Y-68089523D01*
X159621485Y-68089523D02*
X159288152Y-68089523D01*
X159288152Y-68089523D02*
X159097676Y-68041904D01*
X159097676Y-68041904D02*
X159002438Y-67946666D01*
X159002438Y-67946666D02*
X158954819Y-67851428D01*
X158954819Y-67851428D02*
X158954819Y-67660952D01*
X158954819Y-67660952D02*
X159002438Y-67565714D01*
X159002438Y-67565714D02*
X159097676Y-67470476D01*
X159097676Y-67470476D02*
X159288152Y-67422857D01*
X159288152Y-67422857D02*
X159621485Y-67422857D01*
X159621485Y-67422857D02*
X159811961Y-67470476D01*
X159811961Y-67470476D02*
X159907200Y-67565714D01*
X159907200Y-67565714D02*
X159954819Y-67660952D01*
X159954819Y-67660952D02*
X159954819Y-67851428D01*
X159954819Y-66470476D02*
X159954819Y-67041904D01*
X159954819Y-66756190D02*
X158954819Y-66756190D01*
X158954819Y-66756190D02*
X159097676Y-66851428D01*
X159097676Y-66851428D02*
X159192914Y-66946666D01*
X159192914Y-66946666D02*
X159240533Y-67041904D01*
X164163333Y-56874819D02*
X163830000Y-56398628D01*
X163591905Y-56874819D02*
X163591905Y-55874819D01*
X163591905Y-55874819D02*
X163972857Y-55874819D01*
X163972857Y-55874819D02*
X164068095Y-55922438D01*
X164068095Y-55922438D02*
X164115714Y-55970057D01*
X164115714Y-55970057D02*
X164163333Y-56065295D01*
X164163333Y-56065295D02*
X164163333Y-56208152D01*
X164163333Y-56208152D02*
X164115714Y-56303390D01*
X164115714Y-56303390D02*
X164068095Y-56351009D01*
X164068095Y-56351009D02*
X163972857Y-56398628D01*
X163972857Y-56398628D02*
X163591905Y-56398628D01*
X165020476Y-56208152D02*
X165020476Y-56874819D01*
X164782381Y-55827200D02*
X164544286Y-56541485D01*
X164544286Y-56541485D02*
X165163333Y-56541485D01*
X160050057Y-77105238D02*
X160002438Y-77200476D01*
X160002438Y-77200476D02*
X159907200Y-77295714D01*
X159907200Y-77295714D02*
X159764342Y-77438571D01*
X159764342Y-77438571D02*
X159716723Y-77533809D01*
X159716723Y-77533809D02*
X159716723Y-77629047D01*
X159954819Y-77581428D02*
X159907200Y-77676666D01*
X159907200Y-77676666D02*
X159811961Y-77771904D01*
X159811961Y-77771904D02*
X159621485Y-77819523D01*
X159621485Y-77819523D02*
X159288152Y-77819523D01*
X159288152Y-77819523D02*
X159097676Y-77771904D01*
X159097676Y-77771904D02*
X159002438Y-77676666D01*
X159002438Y-77676666D02*
X158954819Y-77581428D01*
X158954819Y-77581428D02*
X158954819Y-77390952D01*
X158954819Y-77390952D02*
X159002438Y-77295714D01*
X159002438Y-77295714D02*
X159097676Y-77200476D01*
X159097676Y-77200476D02*
X159288152Y-77152857D01*
X159288152Y-77152857D02*
X159621485Y-77152857D01*
X159621485Y-77152857D02*
X159811961Y-77200476D01*
X159811961Y-77200476D02*
X159907200Y-77295714D01*
X159907200Y-77295714D02*
X159954819Y-77390952D01*
X159954819Y-77390952D02*
X159954819Y-77581428D01*
X159050057Y-76771904D02*
X159002438Y-76724285D01*
X159002438Y-76724285D02*
X158954819Y-76629047D01*
X158954819Y-76629047D02*
X158954819Y-76390952D01*
X158954819Y-76390952D02*
X159002438Y-76295714D01*
X159002438Y-76295714D02*
X159050057Y-76248095D01*
X159050057Y-76248095D02*
X159145295Y-76200476D01*
X159145295Y-76200476D02*
X159240533Y-76200476D01*
X159240533Y-76200476D02*
X159383390Y-76248095D01*
X159383390Y-76248095D02*
X159954819Y-76819523D01*
X159954819Y-76819523D02*
X159954819Y-76200476D01*
X167321904Y-72435180D02*
X167321904Y-71625657D01*
X167321904Y-71625657D02*
X167274285Y-71530419D01*
X167274285Y-71530419D02*
X167226666Y-71482800D01*
X167226666Y-71482800D02*
X167131428Y-71435180D01*
X167131428Y-71435180D02*
X166940952Y-71435180D01*
X166940952Y-71435180D02*
X166845714Y-71482800D01*
X166845714Y-71482800D02*
X166798095Y-71530419D01*
X166798095Y-71530419D02*
X166750476Y-71625657D01*
X166750476Y-71625657D02*
X166750476Y-72435180D01*
X165750476Y-71435180D02*
X166321904Y-71435180D01*
X166036190Y-71435180D02*
X166036190Y-72435180D01*
X166036190Y-72435180D02*
X166131428Y-72292323D01*
X166131428Y-72292323D02*
X166226666Y-72197085D01*
X166226666Y-72197085D02*
X166321904Y-72149466D01*
X171233333Y-60604819D02*
X170900000Y-60128628D01*
X170661905Y-60604819D02*
X170661905Y-59604819D01*
X170661905Y-59604819D02*
X171042857Y-59604819D01*
X171042857Y-59604819D02*
X171138095Y-59652438D01*
X171138095Y-59652438D02*
X171185714Y-59700057D01*
X171185714Y-59700057D02*
X171233333Y-59795295D01*
X171233333Y-59795295D02*
X171233333Y-59938152D01*
X171233333Y-59938152D02*
X171185714Y-60033390D01*
X171185714Y-60033390D02*
X171138095Y-60081009D01*
X171138095Y-60081009D02*
X171042857Y-60128628D01*
X171042857Y-60128628D02*
X170661905Y-60128628D01*
X171566667Y-59604819D02*
X172185714Y-59604819D01*
X172185714Y-59604819D02*
X171852381Y-59985771D01*
X171852381Y-59985771D02*
X171995238Y-59985771D01*
X171995238Y-59985771D02*
X172090476Y-60033390D01*
X172090476Y-60033390D02*
X172138095Y-60081009D01*
X172138095Y-60081009D02*
X172185714Y-60176247D01*
X172185714Y-60176247D02*
X172185714Y-60414342D01*
X172185714Y-60414342D02*
X172138095Y-60509580D01*
X172138095Y-60509580D02*
X172090476Y-60557200D01*
X172090476Y-60557200D02*
X171995238Y-60604819D01*
X171995238Y-60604819D02*
X171709524Y-60604819D01*
X171709524Y-60604819D02*
X171614286Y-60557200D01*
X171614286Y-60557200D02*
X171566667Y-60509580D01*
X161833333Y-79294819D02*
X161500000Y-78818628D01*
X161261905Y-79294819D02*
X161261905Y-78294819D01*
X161261905Y-78294819D02*
X161642857Y-78294819D01*
X161642857Y-78294819D02*
X161738095Y-78342438D01*
X161738095Y-78342438D02*
X161785714Y-78390057D01*
X161785714Y-78390057D02*
X161833333Y-78485295D01*
X161833333Y-78485295D02*
X161833333Y-78628152D01*
X161833333Y-78628152D02*
X161785714Y-78723390D01*
X161785714Y-78723390D02*
X161738095Y-78771009D01*
X161738095Y-78771009D02*
X161642857Y-78818628D01*
X161642857Y-78818628D02*
X161261905Y-78818628D01*
X162214286Y-78390057D02*
X162261905Y-78342438D01*
X162261905Y-78342438D02*
X162357143Y-78294819D01*
X162357143Y-78294819D02*
X162595238Y-78294819D01*
X162595238Y-78294819D02*
X162690476Y-78342438D01*
X162690476Y-78342438D02*
X162738095Y-78390057D01*
X162738095Y-78390057D02*
X162785714Y-78485295D01*
X162785714Y-78485295D02*
X162785714Y-78580533D01*
X162785714Y-78580533D02*
X162738095Y-78723390D01*
X162738095Y-78723390D02*
X162166667Y-79294819D01*
X162166667Y-79294819D02*
X162785714Y-79294819D01*
X169256666Y-48814819D02*
X169256666Y-49529104D01*
X169256666Y-49529104D02*
X169209047Y-49671961D01*
X169209047Y-49671961D02*
X169113809Y-49767200D01*
X169113809Y-49767200D02*
X168970952Y-49814819D01*
X168970952Y-49814819D02*
X168875714Y-49814819D01*
X170256666Y-49814819D02*
X169685238Y-49814819D01*
X169970952Y-49814819D02*
X169970952Y-48814819D01*
X169970952Y-48814819D02*
X169875714Y-48957676D01*
X169875714Y-48957676D02*
X169780476Y-49052914D01*
X169780476Y-49052914D02*
X169685238Y-49100533D01*
X161833333Y-69224819D02*
X161500000Y-68748628D01*
X161261905Y-69224819D02*
X161261905Y-68224819D01*
X161261905Y-68224819D02*
X161642857Y-68224819D01*
X161642857Y-68224819D02*
X161738095Y-68272438D01*
X161738095Y-68272438D02*
X161785714Y-68320057D01*
X161785714Y-68320057D02*
X161833333Y-68415295D01*
X161833333Y-68415295D02*
X161833333Y-68558152D01*
X161833333Y-68558152D02*
X161785714Y-68653390D01*
X161785714Y-68653390D02*
X161738095Y-68701009D01*
X161738095Y-68701009D02*
X161642857Y-68748628D01*
X161642857Y-68748628D02*
X161261905Y-68748628D01*
X162785714Y-69224819D02*
X162214286Y-69224819D01*
X162500000Y-69224819D02*
X162500000Y-68224819D01*
X162500000Y-68224819D02*
X162404762Y-68367676D01*
X162404762Y-68367676D02*
X162309524Y-68462914D01*
X162309524Y-68462914D02*
X162214286Y-68510533D01*
D11*
%TO.C,Q1*%
X160390000Y-66205000D02*
X161300000Y-66205000D01*
X160390000Y-68780000D02*
X160390000Y-66205000D01*
X162700000Y-66205000D02*
X163610000Y-66205000D01*
X163610000Y-68355000D02*
X163610000Y-66205000D01*
%TO.C,R4*%
X163602936Y-57330000D02*
X165057064Y-57330000D01*
X163602936Y-59150000D02*
X165057064Y-59150000D01*
%TO.C,Q2*%
X160390000Y-75935000D02*
X161300000Y-75935000D01*
X160390000Y-78510000D02*
X160390000Y-75935000D01*
X162700000Y-75935000D02*
X163610000Y-75935000D01*
X163610000Y-78085000D02*
X163610000Y-75935000D01*
%TO.C,R3*%
X172127064Y-57420000D02*
X170672936Y-57420000D01*
X172127064Y-59240000D02*
X170672936Y-59240000D01*
%TO.C,R2*%
X161272936Y-79750000D02*
X162727064Y-79750000D01*
X161272936Y-81570000D02*
X162727064Y-81570000D01*
%TO.C,J1*%
X164110000Y-51480000D02*
X164110000Y-55480000D01*
X164400000Y-50450000D02*
X164400000Y-56470000D01*
X164400000Y-56470000D02*
X174780000Y-56470000D01*
X164980000Y-50450000D02*
X164980000Y-51050000D01*
X164980000Y-51050000D02*
X166580000Y-51050000D01*
X165780000Y-55470000D02*
X166030000Y-54940000D01*
X165780000Y-55470000D02*
X173400000Y-55470000D01*
X165780000Y-56470000D02*
X165780000Y-55470000D01*
X166030000Y-54940000D02*
X173150000Y-54940000D01*
X166030000Y-56470000D02*
X166030000Y-55470000D01*
X166580000Y-51050000D02*
X166580000Y-50450000D01*
X167520000Y-50450000D02*
X167520000Y-51050000D01*
X167520000Y-51050000D02*
X169120000Y-51050000D01*
X169120000Y-51050000D02*
X169120000Y-50450000D01*
X170060000Y-50450000D02*
X170060000Y-51050000D01*
X170060000Y-51050000D02*
X171660000Y-51050000D01*
X171660000Y-51050000D02*
X171660000Y-50450000D01*
X172600000Y-50450000D02*
X172600000Y-51050000D01*
X172600000Y-51050000D02*
X174200000Y-51050000D01*
X173150000Y-54940000D02*
X173400000Y-55470000D01*
X173150000Y-56470000D02*
X173150000Y-55470000D01*
X173400000Y-55470000D02*
X173400000Y-56470000D01*
X174200000Y-51050000D02*
X174200000Y-50450000D01*
X174780000Y-50450000D02*
X164400000Y-50450000D01*
X174780000Y-56470000D02*
X174780000Y-50450000D01*
%TO.C,R1*%
X161272936Y-69680000D02*
X162727064Y-69680000D01*
X161272936Y-71500000D02*
X162727064Y-71500000D01*
%TD*%
M02*
