M48
; DRILL file {KiCad 8.0.1} date 2024-04-07T01:05:47+0800
; FORMAT={-:-/ absolute / inch / decimal}
; #@! TF.CreationDate,2024-04-07T01:05:47+08:00
; #@! TF.GenerationSoftware,Kicad,Pcbnew,8.0.1
; #@! TF.FileFunction,Plated,1,2,PTH
FMAT,2
INCH
; #@! TA.AperFunction,Plated,PTH,ViaDrill
T1C0.0315
; #@! TA.AperFunction,Plated,PTH,ComponentDrill
T2C0.0394
; #@! TA.AperFunction,Plated,PTH,ComponentDrill
T3C0.0469
%
G90
G05
T1
X6.3907Y-2.4969
X6.428Y-2.3909
X6.4864Y-2.5886
X6.4961Y-3.4252
X6.5037Y-3.2486
X6.5996Y-2.2937
X6.8841Y-2.3039
X6.9386Y-2.1236
T2
X6.6185Y-2.4154
X6.6185Y-2.5154
X6.6185Y-2.6154
X6.6185Y-2.7154
X6.6185Y-2.8154
X6.6185Y-2.9154
X6.6185Y-3.0154
X6.6185Y-3.1154
X6.6185Y-3.2154
X6.6185Y-3.3154
X6.7185Y-2.4154
X6.7185Y-2.5154
X6.7185Y-2.6154
X6.7185Y-2.7154
X6.7185Y-2.8154
X6.7185Y-2.9154
X6.7185Y-3.0154
X6.7185Y-3.1154
X6.7185Y-3.2154
X6.7185Y-3.3154
T3
X6.5268Y-2.1055
X6.6268Y-2.1055
X6.7268Y-2.1055
X6.8268Y-2.1055
M30
