%TF.GenerationSoftware,KiCad,Pcbnew,8.0.1*%
%TF.CreationDate,2024-04-07T01:04:32+08:00*%
%TF.ProjectId,rpiconnector,72706963-6f6e-46e6-9563-746f722e6b69,rev?*%
%TF.SameCoordinates,Original*%
%TF.FileFunction,Copper,L2,Bot*%
%TF.FilePolarity,Positive*%
%FSLAX46Y46*%
G04 Gerber Fmt 4.6, Leading zero omitted, Abs format (unit mm)*
G04 Created by KiCad (PCBNEW 8.0.1) date 2024-04-07 01:04:32*
%MOMM*%
%LPD*%
G01*
G04 APERTURE LIST*
G04 Aperture macros list*
%AMRoundRect*
0 Rectangle with rounded corners*
0 $1 Rounding radius*
0 $2 $3 $4 $5 $6 $7 $8 $9 X,Y pos of 4 corners*
0 Add a 4 corners polygon primitive as box body*
4,1,4,$2,$3,$4,$5,$6,$7,$8,$9,$2,$3,0*
0 Add four circle primitives for the rounded corners*
1,1,$1+$1,$2,$3*
1,1,$1+$1,$4,$5*
1,1,$1+$1,$6,$7*
1,1,$1+$1,$8,$9*
0 Add four rect primitives between the rounded corners*
20,1,$1+$1,$2,$3,$4,$5,0*
20,1,$1+$1,$4,$5,$6,$7,0*
20,1,$1+$1,$6,$7,$8,$9,0*
20,1,$1+$1,$8,$9,$2,$3,0*%
G04 Aperture macros list end*
%TA.AperFunction,WasherPad*%
%ADD10C,1.600000*%
%TD*%
%TA.AperFunction,ComponentPad*%
%ADD11RoundRect,0.250000X-0.620000X-0.845000X0.620000X-0.845000X0.620000X0.845000X-0.620000X0.845000X0*%
%TD*%
%TA.AperFunction,ComponentPad*%
%ADD12O,1.740000X2.190000*%
%TD*%
%TA.AperFunction,ComponentPad*%
%ADD13R,1.700000X1.700000*%
%TD*%
%TA.AperFunction,ComponentPad*%
%ADD14O,1.700000X1.700000*%
%TD*%
%TA.AperFunction,ViaPad*%
%ADD15C,1.650000*%
%TD*%
%TA.AperFunction,Conductor*%
%ADD16C,0.400000*%
%TD*%
%TA.AperFunction,Conductor*%
%ADD17C,0.600000*%
%TD*%
G04 APERTURE END LIST*
D10*
%TO.P,U1,*%
%TO.N,*%
X175460000Y-71130000D03*
X179260000Y-71130000D03*
X175460000Y-62490000D03*
X179260000Y-62490000D03*
%TD*%
D11*
%TO.P,J1,1,Pin_1*%
%TO.N,5v*%
X165780000Y-53480000D03*
D12*
%TO.P,J1,2,Pin_2*%
%TO.N,SCL_5V*%
X168320000Y-53480000D03*
%TO.P,J1,3,Pin_3*%
%TO.N,SDA_5v*%
X170860000Y-53480000D03*
%TO.P,J1,4,Pin_4*%
%TO.N,GND*%
X173400000Y-53480000D03*
%TD*%
D13*
%TO.P,J2,1,Pin_1*%
%TO.N,3v3*%
X168110000Y-61350000D03*
D14*
%TO.P,J2,2,Pin_2*%
%TO.N,5v*%
X170650000Y-61350000D03*
%TO.P,J2,3,Pin_3*%
%TO.N,SDA*%
X168110000Y-63890000D03*
%TO.P,J2,4,Pin_4*%
%TO.N,5v*%
X170650000Y-63890000D03*
%TO.P,J2,5,Pin_5*%
%TO.N,SCL*%
X168110000Y-66430000D03*
%TO.P,J2,6,Pin_6*%
%TO.N,GND*%
X170650000Y-66430000D03*
%TO.P,J2,7,Pin_7*%
%TO.N,GPIO04*%
X168110000Y-68970000D03*
%TO.P,J2,8,Pin_8*%
%TO.N,GPIO14*%
X170650000Y-68970000D03*
%TO.P,J2,9,Pin_9*%
%TO.N,GND*%
X168110000Y-71510000D03*
%TO.P,J2,10,Pin_10*%
%TO.N,GPIO15*%
X170650000Y-71510000D03*
%TO.P,J2,11,Pin_11*%
%TO.N,unconnected-(J2-Pin_11-Pad11)*%
X168110000Y-74050000D03*
%TO.P,J2,12,Pin_12*%
%TO.N,unconnected-(J2-Pin_12-Pad12)*%
X170650000Y-74050000D03*
%TO.P,J2,13,Pin_13*%
%TO.N,unconnected-(J2-Pin_13-Pad13)*%
X168110000Y-76590000D03*
%TO.P,J2,14,Pin_14*%
%TO.N,GND*%
X170650000Y-76590000D03*
%TO.P,J2,15,Pin_15*%
%TO.N,unconnected-(J2-Pin_15-Pad15)*%
X168110000Y-79130000D03*
%TO.P,J2,16,Pin_16*%
%TO.N,unconnected-(J2-Pin_16-Pad16)*%
X170650000Y-79130000D03*
%TO.P,J2,17,Pin_17*%
%TO.N,3v3*%
X168110000Y-81670000D03*
%TO.P,J2,18,Pin_18*%
%TO.N,unconnected-(J2-Pin_18-Pad18)*%
X170650000Y-81670000D03*
%TO.P,J2,19,Pin_19*%
%TO.N,unconnected-(J2-Pin_19-Pad19)*%
X168110000Y-84210000D03*
%TO.P,J2,20,Pin_20*%
%TO.N,GND*%
X170650000Y-84210000D03*
%TD*%
D15*
%TO.N,SDA_5v*%
X167630000Y-58260000D03*
X162325000Y-63420000D03*
%TO.N,GND*%
X165193083Y-82515000D03*
X165000000Y-87000000D03*
%TO.N,5v*%
X174855000Y-58520000D03*
X176240000Y-53940000D03*
%TO.N,3v3*%
X163270000Y-60730000D03*
%TO.N,SDA*%
X164755000Y-65750000D03*
%TD*%
D16*
%TO.N,SDA_5v*%
X161860000Y-60220000D02*
X163820000Y-58260000D01*
X161860000Y-62955000D02*
X161860000Y-60220000D01*
X162325000Y-63420000D02*
X161860000Y-62955000D01*
X163820000Y-58260000D02*
X167630000Y-58260000D01*
D17*
%TO.N,GND*%
X165193083Y-86806917D02*
X165193083Y-82515000D01*
X165000000Y-87000000D02*
X165193083Y-86806917D01*
D16*
%TO.N,5v*%
X176240000Y-57135000D02*
X174855000Y-58520000D01*
X176240000Y-53940000D02*
X176240000Y-57135000D01*
%TO.N,3v3*%
X164030000Y-59970000D02*
X166730000Y-59970000D01*
X163270000Y-60730000D02*
X164030000Y-59970000D01*
X166730000Y-59970000D02*
X168110000Y-61350000D01*
%TO.N,SDA*%
X167960000Y-64040000D02*
X168110000Y-63890000D01*
X164755000Y-65215000D02*
X165930000Y-64040000D01*
X165930000Y-64040000D02*
X167960000Y-64040000D01*
X164755000Y-65750000D02*
X164755000Y-65215000D01*
%TD*%
%TA.AperFunction,Conductor*%
%TO.N,GND*%
G36*
X180932539Y-49030185D02*
G01*
X180978294Y-49082989D01*
X180989500Y-49134500D01*
X180989500Y-89865500D01*
X180969815Y-89932539D01*
X180917011Y-89978294D01*
X180865500Y-89989500D01*
X172624000Y-89989500D01*
X172556961Y-89969815D01*
X172511206Y-89917011D01*
X172500000Y-89865500D01*
X172500000Y-85300000D01*
X171768550Y-85300000D01*
X171701511Y-85280315D01*
X171655756Y-85227511D01*
X171645812Y-85158353D01*
X171674837Y-85094797D01*
X171680869Y-85088319D01*
X171688105Y-85081082D01*
X171823600Y-84887578D01*
X171923429Y-84673492D01*
X171923432Y-84673486D01*
X171980636Y-84460000D01*
X171083012Y-84460000D01*
X171115925Y-84402993D01*
X171150000Y-84275826D01*
X171150000Y-84144174D01*
X171115925Y-84017007D01*
X171083012Y-83960000D01*
X171980636Y-83960000D01*
X171980635Y-83959999D01*
X171923432Y-83746513D01*
X171923429Y-83746507D01*
X171823600Y-83532422D01*
X171823599Y-83532420D01*
X171688113Y-83338926D01*
X171688108Y-83338920D01*
X171521082Y-83171894D01*
X171327578Y-83036399D01*
X171113492Y-82936570D01*
X171113477Y-82936564D01*
X171074414Y-82926097D01*
X171014754Y-82889732D01*
X170984226Y-82826885D01*
X170992521Y-82757509D01*
X171037007Y-82703632D01*
X171061710Y-82690698D01*
X171142637Y-82659348D01*
X171316041Y-82551981D01*
X171466764Y-82414579D01*
X171589673Y-82251821D01*
X171680582Y-82069250D01*
X171736397Y-81873083D01*
X171755215Y-81670000D01*
X171736397Y-81466917D01*
X171680582Y-81270750D01*
X171589673Y-81088179D01*
X171466764Y-80925421D01*
X171466762Y-80925418D01*
X171316041Y-80788019D01*
X171316039Y-80788017D01*
X171142642Y-80680655D01*
X171142635Y-80680651D01*
X171047546Y-80643814D01*
X170952456Y-80606976D01*
X170751976Y-80569500D01*
X170548024Y-80569500D01*
X170347544Y-80606976D01*
X170347541Y-80606976D01*
X170347541Y-80606977D01*
X170157364Y-80680651D01*
X170157357Y-80680655D01*
X169983960Y-80788017D01*
X169983958Y-80788019D01*
X169833237Y-80925418D01*
X169710327Y-81088178D01*
X169619422Y-81270739D01*
X169619417Y-81270752D01*
X169563602Y-81466917D01*
X169544785Y-81669999D01*
X169544785Y-81670000D01*
X169563602Y-81873082D01*
X169619417Y-82069247D01*
X169619422Y-82069260D01*
X169710327Y-82251821D01*
X169833237Y-82414581D01*
X169983958Y-82551980D01*
X169983960Y-82551982D01*
X170083141Y-82613392D01*
X170157363Y-82659348D01*
X170238283Y-82690696D01*
X170293685Y-82733269D01*
X170317276Y-82799035D01*
X170301565Y-82867116D01*
X170251542Y-82915895D01*
X170225586Y-82926097D01*
X170186519Y-82936565D01*
X170186507Y-82936570D01*
X169972422Y-83036399D01*
X169972420Y-83036400D01*
X169778926Y-83171886D01*
X169778920Y-83171891D01*
X169611891Y-83338920D01*
X169611886Y-83338926D01*
X169476400Y-83532420D01*
X169476399Y-83532422D01*
X169376570Y-83746507D01*
X169376568Y-83746511D01*
X169367592Y-83780011D01*
X169331226Y-83839671D01*
X169268379Y-83870199D01*
X169199003Y-83861904D01*
X169145126Y-83817418D01*
X169136817Y-83803188D01*
X169090415Y-83710000D01*
X169049673Y-83628179D01*
X168926764Y-83465421D01*
X168926762Y-83465418D01*
X168776041Y-83328019D01*
X168776039Y-83328017D01*
X168602642Y-83220655D01*
X168602635Y-83220651D01*
X168476769Y-83171891D01*
X168412456Y-83146976D01*
X168211976Y-83109500D01*
X168008024Y-83109500D01*
X167807544Y-83146976D01*
X167807541Y-83146976D01*
X167807541Y-83146977D01*
X167617364Y-83220651D01*
X167617357Y-83220655D01*
X167443960Y-83328017D01*
X167443958Y-83328019D01*
X167293237Y-83465418D01*
X167170327Y-83628178D01*
X167079422Y-83810739D01*
X167079417Y-83810752D01*
X167023602Y-84006917D01*
X167004785Y-84209999D01*
X167004785Y-84210000D01*
X167023602Y-84413082D01*
X167079417Y-84609247D01*
X167079422Y-84609260D01*
X167170327Y-84791821D01*
X167293237Y-84954581D01*
X167435602Y-85084363D01*
X167471884Y-85144074D01*
X167470123Y-85213922D01*
X167430880Y-85271729D01*
X167366613Y-85299144D01*
X167352064Y-85300000D01*
X166300000Y-85300000D01*
X166300000Y-89865500D01*
X166280315Y-89932539D01*
X166227511Y-89978294D01*
X166176000Y-89989500D01*
X158134500Y-89989500D01*
X158067461Y-89969815D01*
X158021706Y-89917011D01*
X158010500Y-89865500D01*
X158010500Y-81670000D01*
X167004785Y-81670000D01*
X167023602Y-81873082D01*
X167079417Y-82069247D01*
X167079422Y-82069260D01*
X167170327Y-82251821D01*
X167293237Y-82414581D01*
X167443958Y-82551980D01*
X167443960Y-82551982D01*
X167543141Y-82613392D01*
X167617363Y-82659348D01*
X167807544Y-82733024D01*
X168008024Y-82770500D01*
X168008026Y-82770500D01*
X168211974Y-82770500D01*
X168211976Y-82770500D01*
X168412456Y-82733024D01*
X168602637Y-82659348D01*
X168776041Y-82551981D01*
X168926764Y-82414579D01*
X169049673Y-82251821D01*
X169140582Y-82069250D01*
X169196397Y-81873083D01*
X169215215Y-81670000D01*
X169196397Y-81466917D01*
X169140582Y-81270750D01*
X169049673Y-81088179D01*
X168926764Y-80925421D01*
X168926762Y-80925418D01*
X168776041Y-80788019D01*
X168776039Y-80788017D01*
X168602642Y-80680655D01*
X168602635Y-80680651D01*
X168507546Y-80643814D01*
X168412456Y-80606976D01*
X168211976Y-80569500D01*
X168008024Y-80569500D01*
X167807544Y-80606976D01*
X167807541Y-80606976D01*
X167807541Y-80606977D01*
X167617364Y-80680651D01*
X167617357Y-80680655D01*
X167443960Y-80788017D01*
X167443958Y-80788019D01*
X167293237Y-80925418D01*
X167170327Y-81088178D01*
X167079422Y-81270739D01*
X167079417Y-81270752D01*
X167023602Y-81466917D01*
X167004785Y-81669999D01*
X167004785Y-81670000D01*
X158010500Y-81670000D01*
X158010500Y-79130000D01*
X167004785Y-79130000D01*
X167023602Y-79333082D01*
X167079417Y-79529247D01*
X167079422Y-79529260D01*
X167170327Y-79711821D01*
X167293237Y-79874581D01*
X167443958Y-80011980D01*
X167443960Y-80011982D01*
X167543141Y-80073392D01*
X167617363Y-80119348D01*
X167807544Y-80193024D01*
X168008024Y-80230500D01*
X168008026Y-80230500D01*
X168211974Y-80230500D01*
X168211976Y-80230500D01*
X168412456Y-80193024D01*
X168602637Y-80119348D01*
X168776041Y-80011981D01*
X168926764Y-79874579D01*
X169049673Y-79711821D01*
X169140582Y-79529250D01*
X169196397Y-79333083D01*
X169215215Y-79130000D01*
X169196397Y-78926917D01*
X169140582Y-78730750D01*
X169049673Y-78548179D01*
X168926764Y-78385421D01*
X168926762Y-78385418D01*
X168776041Y-78248019D01*
X168776039Y-78248017D01*
X168602642Y-78140655D01*
X168602635Y-78140651D01*
X168488321Y-78096366D01*
X168412456Y-78066976D01*
X168211976Y-78029500D01*
X168008024Y-78029500D01*
X167807544Y-78066976D01*
X167807541Y-78066976D01*
X167807541Y-78066977D01*
X167617364Y-78140651D01*
X167617357Y-78140655D01*
X167443960Y-78248017D01*
X167443958Y-78248019D01*
X167293237Y-78385418D01*
X167170327Y-78548178D01*
X167079422Y-78730739D01*
X167079417Y-78730752D01*
X167023602Y-78926917D01*
X167004785Y-79129999D01*
X167004785Y-79130000D01*
X158010500Y-79130000D01*
X158010500Y-76590000D01*
X167004785Y-76590000D01*
X167023602Y-76793082D01*
X167079417Y-76989247D01*
X167079422Y-76989260D01*
X167170327Y-77171821D01*
X167293237Y-77334581D01*
X167443958Y-77471980D01*
X167443960Y-77471982D01*
X167543141Y-77533392D01*
X167617363Y-77579348D01*
X167807544Y-77653024D01*
X168008024Y-77690500D01*
X168008026Y-77690500D01*
X168211974Y-77690500D01*
X168211976Y-77690500D01*
X168412456Y-77653024D01*
X168602637Y-77579348D01*
X168776041Y-77471981D01*
X168926764Y-77334579D01*
X169049673Y-77171821D01*
X169136817Y-76996812D01*
X169184319Y-76945575D01*
X169251982Y-76928153D01*
X169318323Y-76950078D01*
X169362278Y-77004389D01*
X169367592Y-77019989D01*
X169376567Y-77053485D01*
X169376570Y-77053492D01*
X169476399Y-77267578D01*
X169611894Y-77461082D01*
X169778917Y-77628105D01*
X169972421Y-77763600D01*
X170186507Y-77863429D01*
X170186516Y-77863433D01*
X170225583Y-77873901D01*
X170285244Y-77910266D01*
X170315773Y-77973113D01*
X170307479Y-78042488D01*
X170262993Y-78096366D01*
X170238284Y-78109302D01*
X170157373Y-78140647D01*
X170157357Y-78140655D01*
X169983960Y-78248017D01*
X169983958Y-78248019D01*
X169833237Y-78385418D01*
X169710327Y-78548178D01*
X169619422Y-78730739D01*
X169619417Y-78730752D01*
X169563602Y-78926917D01*
X169544785Y-79129999D01*
X169544785Y-79130000D01*
X169563602Y-79333082D01*
X169619417Y-79529247D01*
X169619422Y-79529260D01*
X169710327Y-79711821D01*
X169833237Y-79874581D01*
X169983958Y-80011980D01*
X169983960Y-80011982D01*
X170083141Y-80073392D01*
X170157363Y-80119348D01*
X170347544Y-80193024D01*
X170548024Y-80230500D01*
X170548026Y-80230500D01*
X170751974Y-80230500D01*
X170751976Y-80230500D01*
X170952456Y-80193024D01*
X171142637Y-80119348D01*
X171316041Y-80011981D01*
X171466764Y-79874579D01*
X171589673Y-79711821D01*
X171680582Y-79529250D01*
X171736397Y-79333083D01*
X171755215Y-79130000D01*
X171736397Y-78926917D01*
X171680582Y-78730750D01*
X171589673Y-78548179D01*
X171466764Y-78385421D01*
X171466762Y-78385418D01*
X171316041Y-78248019D01*
X171316039Y-78248017D01*
X171142642Y-78140655D01*
X171142635Y-78140651D01*
X171061715Y-78109303D01*
X171006313Y-78066730D01*
X170982723Y-78000963D01*
X170998434Y-77932883D01*
X171048458Y-77884104D01*
X171074417Y-77873901D01*
X171113481Y-77863434D01*
X171113492Y-77863429D01*
X171327578Y-77763600D01*
X171521082Y-77628105D01*
X171688105Y-77461082D01*
X171823600Y-77267578D01*
X171923429Y-77053492D01*
X171923432Y-77053486D01*
X171980636Y-76840000D01*
X171083012Y-76840000D01*
X171115925Y-76782993D01*
X171150000Y-76655826D01*
X171150000Y-76524174D01*
X171115925Y-76397007D01*
X171083012Y-76340000D01*
X171980636Y-76340000D01*
X171980635Y-76339999D01*
X171923432Y-76126513D01*
X171923429Y-76126507D01*
X171823600Y-75912422D01*
X171823599Y-75912420D01*
X171688113Y-75718926D01*
X171688108Y-75718920D01*
X171521082Y-75551894D01*
X171327578Y-75416399D01*
X171113492Y-75316570D01*
X171113477Y-75316564D01*
X171074414Y-75306097D01*
X171014754Y-75269732D01*
X170984226Y-75206885D01*
X170992521Y-75137509D01*
X171037007Y-75083632D01*
X171061710Y-75070698D01*
X171142637Y-75039348D01*
X171316041Y-74931981D01*
X171466764Y-74794579D01*
X171589673Y-74631821D01*
X171680582Y-74449250D01*
X171736397Y-74253083D01*
X171755215Y-74050000D01*
X171736397Y-73846917D01*
X171680582Y-73650750D01*
X171589673Y-73468179D01*
X171466764Y-73305421D01*
X171466762Y-73305418D01*
X171316041Y-73168019D01*
X171316039Y-73168017D01*
X171142642Y-73060655D01*
X171142635Y-73060651D01*
X171028321Y-73016366D01*
X170952456Y-72986976D01*
X170751976Y-72949500D01*
X170548024Y-72949500D01*
X170347544Y-72986976D01*
X170347541Y-72986976D01*
X170347541Y-72986977D01*
X170157364Y-73060651D01*
X170157357Y-73060655D01*
X169983960Y-73168017D01*
X169983958Y-73168019D01*
X169833237Y-73305418D01*
X169710327Y-73468178D01*
X169619422Y-73650739D01*
X169619417Y-73650752D01*
X169563602Y-73846917D01*
X169544785Y-74049999D01*
X169544785Y-74050000D01*
X169563602Y-74253082D01*
X169619417Y-74449247D01*
X169619422Y-74449260D01*
X169710327Y-74631821D01*
X169833237Y-74794581D01*
X169983958Y-74931980D01*
X169983960Y-74931982D01*
X170083141Y-74993392D01*
X170157363Y-75039348D01*
X170238283Y-75070696D01*
X170293685Y-75113269D01*
X170317276Y-75179035D01*
X170301565Y-75247116D01*
X170251542Y-75295895D01*
X170225586Y-75306097D01*
X170186519Y-75316565D01*
X170186507Y-75316570D01*
X169972422Y-75416399D01*
X169972420Y-75416400D01*
X169778926Y-75551886D01*
X169778920Y-75551891D01*
X169611891Y-75718920D01*
X169611886Y-75718926D01*
X169476400Y-75912420D01*
X169476399Y-75912422D01*
X169376570Y-76126507D01*
X169376568Y-76126511D01*
X169367592Y-76160011D01*
X169331226Y-76219671D01*
X169268379Y-76250199D01*
X169199003Y-76241904D01*
X169145126Y-76197418D01*
X169136817Y-76183188D01*
X169090415Y-76090000D01*
X169049673Y-76008179D01*
X168926764Y-75845421D01*
X168926762Y-75845418D01*
X168776041Y-75708019D01*
X168776039Y-75708017D01*
X168602642Y-75600655D01*
X168602635Y-75600651D01*
X168476769Y-75551891D01*
X168412456Y-75526976D01*
X168211976Y-75489500D01*
X168008024Y-75489500D01*
X167807544Y-75526976D01*
X167807541Y-75526976D01*
X167807541Y-75526977D01*
X167617364Y-75600651D01*
X167617357Y-75600655D01*
X167443960Y-75708017D01*
X167443958Y-75708019D01*
X167293237Y-75845418D01*
X167170327Y-76008178D01*
X167079422Y-76190739D01*
X167079417Y-76190752D01*
X167023602Y-76386917D01*
X167004785Y-76589999D01*
X167004785Y-76590000D01*
X158010500Y-76590000D01*
X158010500Y-71760000D01*
X166779364Y-71760000D01*
X166836567Y-71973486D01*
X166836570Y-71973492D01*
X166936399Y-72187578D01*
X167071894Y-72381082D01*
X167238917Y-72548105D01*
X167432421Y-72683600D01*
X167646507Y-72783429D01*
X167646516Y-72783433D01*
X167685583Y-72793901D01*
X167745244Y-72830266D01*
X167775773Y-72893113D01*
X167767479Y-72962488D01*
X167722993Y-73016366D01*
X167698284Y-73029302D01*
X167617373Y-73060647D01*
X167617357Y-73060655D01*
X167443960Y-73168017D01*
X167443958Y-73168019D01*
X167293237Y-73305418D01*
X167170327Y-73468178D01*
X167079422Y-73650739D01*
X167079417Y-73650752D01*
X167023602Y-73846917D01*
X167004785Y-74049999D01*
X167004785Y-74050000D01*
X167023602Y-74253082D01*
X167079417Y-74449247D01*
X167079422Y-74449260D01*
X167170327Y-74631821D01*
X167293237Y-74794581D01*
X167443958Y-74931980D01*
X167443960Y-74931982D01*
X167543141Y-74993392D01*
X167617363Y-75039348D01*
X167807544Y-75113024D01*
X168008024Y-75150500D01*
X168008026Y-75150500D01*
X168211974Y-75150500D01*
X168211976Y-75150500D01*
X168412456Y-75113024D01*
X168602637Y-75039348D01*
X168776041Y-74931981D01*
X168926764Y-74794579D01*
X169049673Y-74631821D01*
X169140582Y-74449250D01*
X169196397Y-74253083D01*
X169215215Y-74050000D01*
X169196397Y-73846917D01*
X169140582Y-73650750D01*
X169049673Y-73468179D01*
X168926764Y-73305421D01*
X168926762Y-73305418D01*
X168776041Y-73168019D01*
X168776039Y-73168017D01*
X168602642Y-73060655D01*
X168602635Y-73060651D01*
X168521715Y-73029303D01*
X168466313Y-72986730D01*
X168442723Y-72920963D01*
X168458434Y-72852883D01*
X168508458Y-72804104D01*
X168534417Y-72793901D01*
X168573481Y-72783434D01*
X168573492Y-72783429D01*
X168787578Y-72683600D01*
X168981082Y-72548105D01*
X169148105Y-72381082D01*
X169283600Y-72187578D01*
X169383429Y-71973492D01*
X169383431Y-71973489D01*
X169392406Y-71939992D01*
X169428770Y-71880331D01*
X169491616Y-71849800D01*
X169560992Y-71858094D01*
X169614871Y-71902578D01*
X169623182Y-71916811D01*
X169710327Y-72091821D01*
X169833237Y-72254581D01*
X169983958Y-72391980D01*
X169983960Y-72391982D01*
X170083141Y-72453392D01*
X170157363Y-72499348D01*
X170347544Y-72573024D01*
X170548024Y-72610500D01*
X170548026Y-72610500D01*
X170751974Y-72610500D01*
X170751976Y-72610500D01*
X170952456Y-72573024D01*
X171142637Y-72499348D01*
X171316041Y-72391981D01*
X171466764Y-72254579D01*
X171589673Y-72091821D01*
X171680582Y-71909250D01*
X171736397Y-71713083D01*
X171755215Y-71510000D01*
X171749115Y-71444174D01*
X171736397Y-71306917D01*
X171723048Y-71260000D01*
X171686059Y-71130000D01*
X174404417Y-71130000D01*
X174424699Y-71335932D01*
X174424700Y-71335934D01*
X174484768Y-71533954D01*
X174582315Y-71716450D01*
X174582317Y-71716452D01*
X174713589Y-71876410D01*
X174754640Y-71910099D01*
X174873550Y-72007685D01*
X175056046Y-72105232D01*
X175254066Y-72165300D01*
X175254065Y-72165300D01*
X175272529Y-72167118D01*
X175460000Y-72185583D01*
X175665934Y-72165300D01*
X175863954Y-72105232D01*
X176046450Y-72007685D01*
X176206410Y-71876410D01*
X176337685Y-71716450D01*
X176435232Y-71533954D01*
X176495300Y-71335934D01*
X176515583Y-71130000D01*
X178204417Y-71130000D01*
X178224699Y-71335932D01*
X178224700Y-71335934D01*
X178284768Y-71533954D01*
X178382315Y-71716450D01*
X178382317Y-71716452D01*
X178513589Y-71876410D01*
X178554640Y-71910099D01*
X178673550Y-72007685D01*
X178856046Y-72105232D01*
X179054066Y-72165300D01*
X179054065Y-72165300D01*
X179072529Y-72167118D01*
X179260000Y-72185583D01*
X179465934Y-72165300D01*
X179663954Y-72105232D01*
X179846450Y-72007685D01*
X180006410Y-71876410D01*
X180137685Y-71716450D01*
X180235232Y-71533954D01*
X180295300Y-71335934D01*
X180315583Y-71130000D01*
X180295300Y-70924066D01*
X180235232Y-70726046D01*
X180137685Y-70543550D01*
X180058430Y-70446977D01*
X180006410Y-70383589D01*
X179846452Y-70252317D01*
X179846453Y-70252317D01*
X179846450Y-70252315D01*
X179663954Y-70154768D01*
X179465934Y-70094700D01*
X179465932Y-70094699D01*
X179465934Y-70094699D01*
X179260000Y-70074417D01*
X179054067Y-70094699D01*
X178856043Y-70154769D01*
X178745898Y-70213643D01*
X178673550Y-70252315D01*
X178673548Y-70252316D01*
X178673547Y-70252317D01*
X178513589Y-70383589D01*
X178382317Y-70543547D01*
X178284769Y-70726043D01*
X178224699Y-70924067D01*
X178204417Y-71130000D01*
X176515583Y-71130000D01*
X176495300Y-70924066D01*
X176435232Y-70726046D01*
X176337685Y-70543550D01*
X176258430Y-70446977D01*
X176206410Y-70383589D01*
X176046452Y-70252317D01*
X176046453Y-70252317D01*
X176046450Y-70252315D01*
X175863954Y-70154768D01*
X175665934Y-70094700D01*
X175665932Y-70094699D01*
X175665934Y-70094699D01*
X175460000Y-70074417D01*
X175254067Y-70094699D01*
X175056043Y-70154769D01*
X174945898Y-70213643D01*
X174873550Y-70252315D01*
X174873548Y-70252316D01*
X174873547Y-70252317D01*
X174713589Y-70383589D01*
X174582317Y-70543547D01*
X174484769Y-70726043D01*
X174424699Y-70924067D01*
X174404417Y-71130000D01*
X171686059Y-71130000D01*
X171680582Y-71110750D01*
X171680159Y-71109901D01*
X171630415Y-71010000D01*
X171589673Y-70928179D01*
X171466764Y-70765421D01*
X171466762Y-70765418D01*
X171316041Y-70628019D01*
X171316039Y-70628017D01*
X171142642Y-70520655D01*
X171142635Y-70520651D01*
X171016769Y-70471891D01*
X170952456Y-70446976D01*
X170751976Y-70409500D01*
X170548024Y-70409500D01*
X170347544Y-70446976D01*
X170347541Y-70446976D01*
X170347541Y-70446977D01*
X170157364Y-70520651D01*
X170157357Y-70520655D01*
X169983960Y-70628017D01*
X169983958Y-70628019D01*
X169833237Y-70765418D01*
X169710327Y-70928178D01*
X169623182Y-71103188D01*
X169575679Y-71154425D01*
X169508016Y-71171846D01*
X169441676Y-71149920D01*
X169397721Y-71095609D01*
X169392407Y-71080008D01*
X169383434Y-71046518D01*
X169383429Y-71046507D01*
X169283600Y-70832422D01*
X169283599Y-70832420D01*
X169148113Y-70638926D01*
X169148108Y-70638920D01*
X168981082Y-70471894D01*
X168787578Y-70336399D01*
X168573492Y-70236570D01*
X168573477Y-70236564D01*
X168534414Y-70226097D01*
X168474754Y-70189732D01*
X168444226Y-70126885D01*
X168452521Y-70057509D01*
X168497007Y-70003632D01*
X168521710Y-69990698D01*
X168602637Y-69959348D01*
X168776041Y-69851981D01*
X168926764Y-69714579D01*
X169049673Y-69551821D01*
X169140582Y-69369250D01*
X169196397Y-69173083D01*
X169215215Y-68970000D01*
X169196397Y-68766917D01*
X169140582Y-68570750D01*
X169049673Y-68388179D01*
X168926764Y-68225421D01*
X168926762Y-68225418D01*
X168776041Y-68088019D01*
X168776039Y-68088017D01*
X168602642Y-67980655D01*
X168602635Y-67980651D01*
X168488321Y-67936366D01*
X168412456Y-67906976D01*
X168211976Y-67869500D01*
X168008024Y-67869500D01*
X167807544Y-67906976D01*
X167807541Y-67906976D01*
X167807541Y-67906977D01*
X167617364Y-67980651D01*
X167617357Y-67980655D01*
X167443960Y-68088017D01*
X167443958Y-68088019D01*
X167293237Y-68225418D01*
X167170327Y-68388178D01*
X167079422Y-68570739D01*
X167079417Y-68570752D01*
X167023602Y-68766917D01*
X167004785Y-68969999D01*
X167004785Y-68970000D01*
X167023602Y-69173082D01*
X167079417Y-69369247D01*
X167079422Y-69369260D01*
X167170327Y-69551821D01*
X167293237Y-69714581D01*
X167443958Y-69851980D01*
X167443960Y-69851982D01*
X167543141Y-69913392D01*
X167617363Y-69959348D01*
X167698283Y-69990696D01*
X167753685Y-70033269D01*
X167777276Y-70099035D01*
X167761565Y-70167116D01*
X167711542Y-70215895D01*
X167685586Y-70226097D01*
X167646519Y-70236565D01*
X167646507Y-70236570D01*
X167432422Y-70336399D01*
X167432420Y-70336400D01*
X167238926Y-70471886D01*
X167238920Y-70471891D01*
X167071891Y-70638920D01*
X167071886Y-70638926D01*
X166936400Y-70832420D01*
X166936399Y-70832422D01*
X166836570Y-71046507D01*
X166836567Y-71046513D01*
X166779364Y-71259999D01*
X166779364Y-71260000D01*
X167676988Y-71260000D01*
X167644075Y-71317007D01*
X167610000Y-71444174D01*
X167610000Y-71575826D01*
X167644075Y-71702993D01*
X167676988Y-71760000D01*
X166779364Y-71760000D01*
X158010500Y-71760000D01*
X158010500Y-65750000D01*
X163674892Y-65750000D01*
X163693282Y-65948464D01*
X163693282Y-65948466D01*
X163693283Y-65948469D01*
X163742939Y-66122993D01*
X163747830Y-66140183D01*
X163836670Y-66318598D01*
X163836675Y-66318606D01*
X163956792Y-66477666D01*
X164042721Y-66556000D01*
X164104090Y-66611945D01*
X164273554Y-66716873D01*
X164459414Y-66788876D01*
X164655340Y-66825500D01*
X164655342Y-66825500D01*
X164854658Y-66825500D01*
X164854660Y-66825500D01*
X165050586Y-66788876D01*
X165236446Y-66716873D01*
X165405910Y-66611945D01*
X165553209Y-66477664D01*
X165589203Y-66430000D01*
X167004785Y-66430000D01*
X167023602Y-66633082D01*
X167079417Y-66829247D01*
X167079422Y-66829260D01*
X167170327Y-67011821D01*
X167293237Y-67174581D01*
X167443958Y-67311980D01*
X167443960Y-67311982D01*
X167543141Y-67373392D01*
X167617363Y-67419348D01*
X167807544Y-67493024D01*
X168008024Y-67530500D01*
X168008026Y-67530500D01*
X168211974Y-67530500D01*
X168211976Y-67530500D01*
X168412456Y-67493024D01*
X168602637Y-67419348D01*
X168776041Y-67311981D01*
X168926764Y-67174579D01*
X169049673Y-67011821D01*
X169136817Y-66836812D01*
X169184319Y-66785575D01*
X169251982Y-66768153D01*
X169318323Y-66790078D01*
X169362278Y-66844389D01*
X169367592Y-66859989D01*
X169376567Y-66893485D01*
X169376570Y-66893492D01*
X169476399Y-67107578D01*
X169611894Y-67301082D01*
X169778917Y-67468105D01*
X169972421Y-67603600D01*
X170186507Y-67703429D01*
X170186516Y-67703433D01*
X170225583Y-67713901D01*
X170285244Y-67750266D01*
X170315773Y-67813113D01*
X170307479Y-67882488D01*
X170262993Y-67936366D01*
X170238284Y-67949302D01*
X170157373Y-67980647D01*
X170157357Y-67980655D01*
X169983960Y-68088017D01*
X169983958Y-68088019D01*
X169833237Y-68225418D01*
X169710327Y-68388178D01*
X169619422Y-68570739D01*
X169619417Y-68570752D01*
X169563602Y-68766917D01*
X169544785Y-68969999D01*
X169544785Y-68970000D01*
X169563602Y-69173082D01*
X169619417Y-69369247D01*
X169619422Y-69369260D01*
X169710327Y-69551821D01*
X169833237Y-69714581D01*
X169983958Y-69851980D01*
X169983960Y-69851982D01*
X170083141Y-69913392D01*
X170157363Y-69959348D01*
X170347544Y-70033024D01*
X170548024Y-70070500D01*
X170548026Y-70070500D01*
X170751974Y-70070500D01*
X170751976Y-70070500D01*
X170952456Y-70033024D01*
X171142637Y-69959348D01*
X171316041Y-69851981D01*
X171466764Y-69714579D01*
X171589673Y-69551821D01*
X171680582Y-69369250D01*
X171736397Y-69173083D01*
X171755215Y-68970000D01*
X171736397Y-68766917D01*
X171680582Y-68570750D01*
X171589673Y-68388179D01*
X171466764Y-68225421D01*
X171466762Y-68225418D01*
X171316041Y-68088019D01*
X171316039Y-68088017D01*
X171142642Y-67980655D01*
X171142635Y-67980651D01*
X171061715Y-67949303D01*
X171006313Y-67906730D01*
X170982723Y-67840963D01*
X170998434Y-67772883D01*
X171048458Y-67724104D01*
X171074417Y-67713901D01*
X171113481Y-67703434D01*
X171113492Y-67703429D01*
X171327578Y-67603600D01*
X171521082Y-67468105D01*
X171688105Y-67301082D01*
X171823600Y-67107578D01*
X171923429Y-66893492D01*
X171923432Y-66893486D01*
X171980636Y-66680000D01*
X171083012Y-66680000D01*
X171115925Y-66622993D01*
X171150000Y-66495826D01*
X171150000Y-66364174D01*
X171115925Y-66237007D01*
X171083012Y-66180000D01*
X171980636Y-66180000D01*
X171980635Y-66179999D01*
X171923432Y-65966513D01*
X171923429Y-65966507D01*
X171823600Y-65752422D01*
X171823599Y-65752420D01*
X171688113Y-65558926D01*
X171688108Y-65558920D01*
X171521082Y-65391894D01*
X171327578Y-65256399D01*
X171113492Y-65156570D01*
X171113477Y-65156564D01*
X171074414Y-65146097D01*
X171014754Y-65109732D01*
X170984226Y-65046885D01*
X170992521Y-64977509D01*
X171037007Y-64923632D01*
X171061710Y-64910698D01*
X171142637Y-64879348D01*
X171316041Y-64771981D01*
X171466764Y-64634579D01*
X171589673Y-64471821D01*
X171680582Y-64289250D01*
X171736397Y-64093083D01*
X171755215Y-63890000D01*
X171736397Y-63686917D01*
X171680582Y-63490750D01*
X171645352Y-63419999D01*
X171619302Y-63367682D01*
X171589673Y-63308179D01*
X171466764Y-63145421D01*
X171466762Y-63145418D01*
X171316041Y-63008019D01*
X171316039Y-63008017D01*
X171142642Y-62900655D01*
X171142635Y-62900651D01*
X171047546Y-62863814D01*
X170952456Y-62826976D01*
X170751976Y-62789500D01*
X170548024Y-62789500D01*
X170347544Y-62826976D01*
X170347541Y-62826976D01*
X170347541Y-62826977D01*
X170157364Y-62900651D01*
X170157357Y-62900655D01*
X169983960Y-63008017D01*
X169983958Y-63008019D01*
X169833237Y-63145418D01*
X169710327Y-63308178D01*
X169619422Y-63490739D01*
X169619417Y-63490752D01*
X169563602Y-63686917D01*
X169544785Y-63889999D01*
X169544785Y-63890000D01*
X169563602Y-64093082D01*
X169619417Y-64289247D01*
X169619422Y-64289260D01*
X169710327Y-64471821D01*
X169833237Y-64634581D01*
X169983958Y-64771980D01*
X169983960Y-64771982D01*
X170001960Y-64783127D01*
X170157363Y-64879348D01*
X170238283Y-64910696D01*
X170293685Y-64953269D01*
X170317276Y-65019035D01*
X170301565Y-65087116D01*
X170251542Y-65135895D01*
X170225586Y-65146097D01*
X170186519Y-65156565D01*
X170186507Y-65156570D01*
X169972422Y-65256399D01*
X169972420Y-65256400D01*
X169778926Y-65391886D01*
X169778920Y-65391891D01*
X169611891Y-65558920D01*
X169611886Y-65558926D01*
X169476400Y-65752420D01*
X169476399Y-65752422D01*
X169376570Y-65966507D01*
X169376568Y-65966511D01*
X169367592Y-66000011D01*
X169331226Y-66059671D01*
X169268379Y-66090199D01*
X169199003Y-66081904D01*
X169145126Y-66037418D01*
X169136817Y-66023188D01*
X169090415Y-65930000D01*
X169049673Y-65848179D01*
X168926764Y-65685421D01*
X168926762Y-65685418D01*
X168776041Y-65548019D01*
X168776039Y-65548017D01*
X168602642Y-65440655D01*
X168602635Y-65440651D01*
X168476769Y-65391891D01*
X168412456Y-65366976D01*
X168211976Y-65329500D01*
X168008024Y-65329500D01*
X167807544Y-65366976D01*
X167807541Y-65366976D01*
X167807541Y-65366977D01*
X167617364Y-65440651D01*
X167617357Y-65440655D01*
X167443960Y-65548017D01*
X167443958Y-65548019D01*
X167293237Y-65685418D01*
X167170327Y-65848178D01*
X167079422Y-66030739D01*
X167079417Y-66030752D01*
X167023602Y-66226917D01*
X167004785Y-66429999D01*
X167004785Y-66430000D01*
X165589203Y-66430000D01*
X165673326Y-66318604D01*
X165762171Y-66140180D01*
X165816717Y-65948469D01*
X165835108Y-65750000D01*
X165816717Y-65551531D01*
X165762171Y-65359820D01*
X165710674Y-65256400D01*
X165673329Y-65181401D01*
X165673323Y-65181392D01*
X165654574Y-65156565D01*
X165631812Y-65126424D01*
X165607120Y-65061064D01*
X165621684Y-64992729D01*
X165643081Y-64964020D01*
X166080284Y-64526819D01*
X166141607Y-64493334D01*
X166167965Y-64490500D01*
X167122688Y-64490500D01*
X167189727Y-64510185D01*
X167221642Y-64539773D01*
X167293237Y-64634581D01*
X167443958Y-64771980D01*
X167443960Y-64771982D01*
X167461960Y-64783127D01*
X167617363Y-64879348D01*
X167807544Y-64953024D01*
X168008024Y-64990500D01*
X168008026Y-64990500D01*
X168211974Y-64990500D01*
X168211976Y-64990500D01*
X168412456Y-64953024D01*
X168602637Y-64879348D01*
X168776041Y-64771981D01*
X168926764Y-64634579D01*
X169049673Y-64471821D01*
X169140582Y-64289250D01*
X169196397Y-64093083D01*
X169215215Y-63890000D01*
X169196397Y-63686917D01*
X169140582Y-63490750D01*
X169105352Y-63419999D01*
X169079302Y-63367682D01*
X169049673Y-63308179D01*
X168926764Y-63145421D01*
X168926762Y-63145418D01*
X168776041Y-63008019D01*
X168776039Y-63008017D01*
X168602642Y-62900655D01*
X168602635Y-62900651D01*
X168507546Y-62863814D01*
X168412456Y-62826976D01*
X168211976Y-62789500D01*
X168008024Y-62789500D01*
X167807544Y-62826976D01*
X167807541Y-62826976D01*
X167807541Y-62826977D01*
X167617364Y-62900651D01*
X167617357Y-62900655D01*
X167443960Y-63008017D01*
X167443958Y-63008019D01*
X167293237Y-63145418D01*
X167170327Y-63308178D01*
X167079422Y-63490739D01*
X167079419Y-63490747D01*
X167079418Y-63490750D01*
X167076945Y-63499438D01*
X167039666Y-63558529D01*
X166976356Y-63588086D01*
X166957681Y-63589500D01*
X165870691Y-63589500D01*
X165781547Y-63613386D01*
X165781546Y-63613386D01*
X165756114Y-63620199D01*
X165653386Y-63679511D01*
X165653383Y-63679513D01*
X164686251Y-64646645D01*
X164624928Y-64680130D01*
X164621371Y-64680849D01*
X164459414Y-64711124D01*
X164407517Y-64731229D01*
X164273554Y-64783126D01*
X164273552Y-64783127D01*
X164104088Y-64888056D01*
X163956792Y-65022333D01*
X163836675Y-65181393D01*
X163836670Y-65181401D01*
X163747830Y-65359816D01*
X163693282Y-65551535D01*
X163674892Y-65749999D01*
X163674892Y-65750000D01*
X158010500Y-65750000D01*
X158010500Y-63420000D01*
X161244892Y-63420000D01*
X161263282Y-63618464D01*
X161263282Y-63618466D01*
X161263283Y-63618469D01*
X161282758Y-63686917D01*
X161317830Y-63810183D01*
X161406670Y-63988598D01*
X161406675Y-63988606D01*
X161526792Y-64147666D01*
X161653508Y-64263182D01*
X161674090Y-64281945D01*
X161843554Y-64386873D01*
X162029414Y-64458876D01*
X162225340Y-64495500D01*
X162225342Y-64495500D01*
X162424658Y-64495500D01*
X162424660Y-64495500D01*
X162620586Y-64458876D01*
X162806446Y-64386873D01*
X162975910Y-64281945D01*
X163123209Y-64147664D01*
X163243326Y-63988604D01*
X163332171Y-63810180D01*
X163386717Y-63618469D01*
X163405108Y-63420000D01*
X163386717Y-63221531D01*
X163332171Y-63029820D01*
X163321314Y-63008017D01*
X163243329Y-62851401D01*
X163243324Y-62851393D01*
X163123207Y-62692333D01*
X162975911Y-62558056D01*
X162975910Y-62558055D01*
X162865998Y-62490000D01*
X174404417Y-62490000D01*
X174424699Y-62695932D01*
X174424700Y-62695934D01*
X174484768Y-62893954D01*
X174582315Y-63076450D01*
X174582317Y-63076452D01*
X174713589Y-63236410D01*
X174801040Y-63308178D01*
X174873550Y-63367685D01*
X175056046Y-63465232D01*
X175254066Y-63525300D01*
X175254065Y-63525300D01*
X175272529Y-63527118D01*
X175460000Y-63545583D01*
X175665934Y-63525300D01*
X175863954Y-63465232D01*
X176046450Y-63367685D01*
X176206410Y-63236410D01*
X176337685Y-63076450D01*
X176435232Y-62893954D01*
X176495300Y-62695934D01*
X176515583Y-62490000D01*
X178204417Y-62490000D01*
X178224699Y-62695932D01*
X178224700Y-62695934D01*
X178284768Y-62893954D01*
X178382315Y-63076450D01*
X178382317Y-63076452D01*
X178513589Y-63236410D01*
X178601040Y-63308178D01*
X178673550Y-63367685D01*
X178856046Y-63465232D01*
X179054066Y-63525300D01*
X179054065Y-63525300D01*
X179072529Y-63527118D01*
X179260000Y-63545583D01*
X179465934Y-63525300D01*
X179663954Y-63465232D01*
X179846450Y-63367685D01*
X180006410Y-63236410D01*
X180137685Y-63076450D01*
X180235232Y-62893954D01*
X180295300Y-62695934D01*
X180315583Y-62490000D01*
X180295300Y-62284066D01*
X180235232Y-62086046D01*
X180137685Y-61903550D01*
X180027161Y-61768875D01*
X180006410Y-61743589D01*
X179846452Y-61612317D01*
X179846453Y-61612317D01*
X179846450Y-61612315D01*
X179663954Y-61514768D01*
X179465934Y-61454700D01*
X179465932Y-61454699D01*
X179465934Y-61454699D01*
X179260000Y-61434417D01*
X179054067Y-61454699D01*
X178856043Y-61514769D01*
X178784366Y-61553082D01*
X178673550Y-61612315D01*
X178673548Y-61612316D01*
X178673547Y-61612317D01*
X178513589Y-61743589D01*
X178382317Y-61903547D01*
X178284769Y-62086043D01*
X178224699Y-62284067D01*
X178204417Y-62490000D01*
X176515583Y-62490000D01*
X176495300Y-62284066D01*
X176435232Y-62086046D01*
X176337685Y-61903550D01*
X176227161Y-61768875D01*
X176206410Y-61743589D01*
X176046452Y-61612317D01*
X176046453Y-61612317D01*
X176046450Y-61612315D01*
X175863954Y-61514768D01*
X175665934Y-61454700D01*
X175665932Y-61454699D01*
X175665934Y-61454699D01*
X175460000Y-61434417D01*
X175254067Y-61454699D01*
X175056043Y-61514769D01*
X174984366Y-61553082D01*
X174873550Y-61612315D01*
X174873548Y-61612316D01*
X174873547Y-61612317D01*
X174713589Y-61743589D01*
X174582317Y-61903547D01*
X174484769Y-62086043D01*
X174424699Y-62284067D01*
X174404417Y-62490000D01*
X162865998Y-62490000D01*
X162806447Y-62453127D01*
X162806445Y-62453126D01*
X162724379Y-62421334D01*
X162620586Y-62381124D01*
X162620582Y-62381123D01*
X162424652Y-62344498D01*
X162423047Y-62344350D01*
X162422328Y-62344064D01*
X162419025Y-62343447D01*
X162419145Y-62342800D01*
X162358112Y-62318557D01*
X162317430Y-62261753D01*
X162310500Y-62220880D01*
X162310500Y-61591461D01*
X162330185Y-61524422D01*
X162382989Y-61478667D01*
X162452147Y-61468723D01*
X162515703Y-61497748D01*
X162518038Y-61499824D01*
X162619090Y-61591945D01*
X162788554Y-61696873D01*
X162974414Y-61768876D01*
X163170340Y-61805500D01*
X163170342Y-61805500D01*
X163369658Y-61805500D01*
X163369660Y-61805500D01*
X163565586Y-61768876D01*
X163751446Y-61696873D01*
X163920910Y-61591945D01*
X164068209Y-61457664D01*
X164188326Y-61298604D01*
X164277171Y-61120180D01*
X164331717Y-60928469D01*
X164350108Y-60730000D01*
X164333979Y-60555941D01*
X164347394Y-60487372D01*
X164395751Y-60436940D01*
X164457450Y-60420500D01*
X166492035Y-60420500D01*
X166559074Y-60440185D01*
X166579716Y-60456819D01*
X166973181Y-60850284D01*
X167006666Y-60911607D01*
X167009500Y-60937965D01*
X167009500Y-62224678D01*
X167024032Y-62297735D01*
X167024033Y-62297739D01*
X167024034Y-62297740D01*
X167079399Y-62380601D01*
X167162260Y-62435966D01*
X167162264Y-62435967D01*
X167235321Y-62450499D01*
X167235324Y-62450500D01*
X167235326Y-62450500D01*
X168984676Y-62450500D01*
X168984677Y-62450499D01*
X169057740Y-62435966D01*
X169140601Y-62380601D01*
X169195966Y-62297740D01*
X169210500Y-62224674D01*
X169210500Y-61350000D01*
X169544785Y-61350000D01*
X169563602Y-61553082D01*
X169619417Y-61749247D01*
X169619422Y-61749260D01*
X169710327Y-61931821D01*
X169833237Y-62094581D01*
X169983958Y-62231980D01*
X169983960Y-62231982D01*
X170068079Y-62284066D01*
X170157363Y-62339348D01*
X170347544Y-62413024D01*
X170548024Y-62450500D01*
X170548026Y-62450500D01*
X170751974Y-62450500D01*
X170751976Y-62450500D01*
X170952456Y-62413024D01*
X171142637Y-62339348D01*
X171316041Y-62231981D01*
X171466764Y-62094579D01*
X171589673Y-61931821D01*
X171680582Y-61749250D01*
X171736397Y-61553083D01*
X171755215Y-61350000D01*
X171736397Y-61146917D01*
X171680582Y-60950750D01*
X171669487Y-60928469D01*
X171630556Y-60850284D01*
X171589673Y-60768179D01*
X171466764Y-60605421D01*
X171466762Y-60605418D01*
X171316041Y-60468019D01*
X171316039Y-60468017D01*
X171142642Y-60360655D01*
X171142635Y-60360651D01*
X171036150Y-60319399D01*
X170952456Y-60286976D01*
X170751976Y-60249500D01*
X170548024Y-60249500D01*
X170347544Y-60286976D01*
X170347541Y-60286976D01*
X170347541Y-60286977D01*
X170157364Y-60360651D01*
X170157357Y-60360655D01*
X169983960Y-60468017D01*
X169983958Y-60468019D01*
X169833237Y-60605418D01*
X169710327Y-60768178D01*
X169619422Y-60950739D01*
X169619417Y-60950752D01*
X169563602Y-61146917D01*
X169544785Y-61349999D01*
X169544785Y-61350000D01*
X169210500Y-61350000D01*
X169210500Y-60475326D01*
X169210500Y-60475323D01*
X169210499Y-60475321D01*
X169195967Y-60402264D01*
X169195966Y-60402260D01*
X169140601Y-60319399D01*
X169057740Y-60264034D01*
X169057739Y-60264033D01*
X169057735Y-60264032D01*
X168984677Y-60249500D01*
X168984674Y-60249500D01*
X167697965Y-60249500D01*
X167630926Y-60229815D01*
X167610284Y-60213181D01*
X167006616Y-59609513D01*
X167006614Y-59609511D01*
X166955250Y-59579856D01*
X166903888Y-59550201D01*
X166891780Y-59546957D01*
X166879673Y-59543713D01*
X166879670Y-59543712D01*
X166841478Y-59533478D01*
X166789309Y-59519500D01*
X163970691Y-59519500D01*
X163856114Y-59550201D01*
X163841089Y-59558876D01*
X163804020Y-59580277D01*
X163753385Y-59609511D01*
X163699253Y-59663642D01*
X163637929Y-59697126D01*
X163571204Y-59692352D01*
X163571107Y-59692694D01*
X163569469Y-59692228D01*
X163568238Y-59692140D01*
X163566782Y-59691587D01*
X163565589Y-59691125D01*
X163565588Y-59691124D01*
X163565586Y-59691124D01*
X163369660Y-59654500D01*
X163361964Y-59654500D01*
X163294925Y-59634815D01*
X163249170Y-59582011D01*
X163239226Y-59512853D01*
X163268251Y-59449297D01*
X163274283Y-59442819D01*
X163335158Y-59381945D01*
X163970285Y-58746819D01*
X164031608Y-58713334D01*
X164057966Y-58710500D01*
X166576087Y-58710500D01*
X166643126Y-58730185D01*
X166687087Y-58779228D01*
X166711670Y-58828598D01*
X166711675Y-58828606D01*
X166831792Y-58987666D01*
X166942510Y-59088598D01*
X166979090Y-59121945D01*
X167148554Y-59226873D01*
X167334414Y-59298876D01*
X167530340Y-59335500D01*
X167530342Y-59335500D01*
X167729658Y-59335500D01*
X167729660Y-59335500D01*
X167925586Y-59298876D01*
X168111446Y-59226873D01*
X168280910Y-59121945D01*
X168428209Y-58987664D01*
X168548326Y-58828604D01*
X168637171Y-58650180D01*
X168674210Y-58520000D01*
X173774892Y-58520000D01*
X173793282Y-58718464D01*
X173793282Y-58718466D01*
X173793283Y-58718469D01*
X173847829Y-58910180D01*
X173847830Y-58910183D01*
X173936670Y-59088598D01*
X173936675Y-59088606D01*
X174056792Y-59247666D01*
X174153141Y-59335499D01*
X174204090Y-59381945D01*
X174373554Y-59486873D01*
X174559414Y-59558876D01*
X174755340Y-59595500D01*
X174755342Y-59595500D01*
X174954658Y-59595500D01*
X174954660Y-59595500D01*
X175150586Y-59558876D01*
X175336446Y-59486873D01*
X175505910Y-59381945D01*
X175653209Y-59247664D01*
X175773326Y-59088604D01*
X175862171Y-58910180D01*
X175916717Y-58718469D01*
X175935108Y-58520000D01*
X175916717Y-58321531D01*
X175886566Y-58215562D01*
X175887152Y-58145699D01*
X175918149Y-58093952D01*
X176600490Y-57411614D01*
X176659799Y-57308887D01*
X176666285Y-57284675D01*
X176666286Y-57284675D01*
X176666286Y-57284671D01*
X176690500Y-57194309D01*
X176690500Y-54995101D01*
X176710185Y-54928062D01*
X176749223Y-54889674D01*
X176890910Y-54801945D01*
X177038209Y-54667664D01*
X177158326Y-54508604D01*
X177247171Y-54330180D01*
X177301717Y-54138469D01*
X177320108Y-53940000D01*
X177301717Y-53741531D01*
X177247171Y-53549820D01*
X177245759Y-53546984D01*
X177158329Y-53371401D01*
X177158324Y-53371393D01*
X177038207Y-53212333D01*
X176890911Y-53078056D01*
X176890910Y-53078055D01*
X176752922Y-52992616D01*
X176721447Y-52973127D01*
X176721445Y-52973126D01*
X176639379Y-52941334D01*
X176535586Y-52901124D01*
X176535582Y-52901123D01*
X176449328Y-52885000D01*
X176339660Y-52864500D01*
X176140340Y-52864500D01*
X176050254Y-52881339D01*
X175944417Y-52901123D01*
X175944415Y-52901123D01*
X175944414Y-52901124D01*
X175892517Y-52921229D01*
X175758554Y-52973126D01*
X175758552Y-52973127D01*
X175589088Y-53078056D01*
X175441792Y-53212333D01*
X175321675Y-53371393D01*
X175321670Y-53371401D01*
X175232830Y-53549816D01*
X175178282Y-53741535D01*
X175159892Y-53939999D01*
X175159892Y-53940000D01*
X175178282Y-54138464D01*
X175178282Y-54138466D01*
X175178283Y-54138469D01*
X175189855Y-54179140D01*
X175232830Y-54330183D01*
X175321670Y-54508598D01*
X175321675Y-54508606D01*
X175441792Y-54667666D01*
X175589089Y-54801944D01*
X175589091Y-54801946D01*
X175730777Y-54889674D01*
X175777413Y-54941702D01*
X175789500Y-54995101D01*
X175789500Y-56897034D01*
X175769815Y-56964073D01*
X175753181Y-56984715D01*
X175284255Y-57453640D01*
X175222932Y-57487125D01*
X175156204Y-57482352D01*
X175156107Y-57482694D01*
X175154472Y-57482229D01*
X175153240Y-57482141D01*
X175151789Y-57481589D01*
X175150593Y-57481125D01*
X175062009Y-57464566D01*
X174954660Y-57444500D01*
X174755340Y-57444500D01*
X174665254Y-57461339D01*
X174559417Y-57481123D01*
X174559415Y-57481123D01*
X174559414Y-57481124D01*
X174543924Y-57487125D01*
X174373554Y-57553126D01*
X174373552Y-57553127D01*
X174204088Y-57658056D01*
X174056792Y-57792333D01*
X173936675Y-57951393D01*
X173936670Y-57951401D01*
X173847830Y-58129816D01*
X173793282Y-58321535D01*
X173774892Y-58519999D01*
X173774892Y-58520000D01*
X168674210Y-58520000D01*
X168691717Y-58458469D01*
X168710108Y-58260000D01*
X168691717Y-58061531D01*
X168637171Y-57869820D01*
X168635759Y-57866984D01*
X168548329Y-57691401D01*
X168548324Y-57691393D01*
X168428207Y-57532333D01*
X168280911Y-57398056D01*
X168280910Y-57398055D01*
X168216375Y-57358096D01*
X168111447Y-57293127D01*
X168111445Y-57293126D01*
X168029379Y-57261334D01*
X167925586Y-57221124D01*
X167925582Y-57221123D01*
X167846639Y-57206366D01*
X167729660Y-57184500D01*
X167530340Y-57184500D01*
X167440254Y-57201339D01*
X167334417Y-57221123D01*
X167334415Y-57221123D01*
X167334414Y-57221124D01*
X167282517Y-57241229D01*
X167148554Y-57293126D01*
X167148552Y-57293127D01*
X166979088Y-57398056D01*
X166831792Y-57532333D01*
X166711675Y-57691393D01*
X166711670Y-57691401D01*
X166687087Y-57740772D01*
X166639584Y-57792009D01*
X166576087Y-57809500D01*
X163760691Y-57809500D01*
X163674758Y-57832525D01*
X163646113Y-57840201D01*
X163543386Y-57899509D01*
X163543384Y-57899511D01*
X161499513Y-59943383D01*
X161499509Y-59943389D01*
X161440201Y-60046112D01*
X161440200Y-60046117D01*
X161409500Y-60160691D01*
X161409500Y-62816555D01*
X161396500Y-62871827D01*
X161317830Y-63029816D01*
X161263282Y-63221535D01*
X161244892Y-63419999D01*
X161244892Y-63420000D01*
X158010500Y-63420000D01*
X158010500Y-54372870D01*
X164659500Y-54372870D01*
X164659501Y-54372876D01*
X164665908Y-54432483D01*
X164716202Y-54567328D01*
X164716206Y-54567335D01*
X164802452Y-54682544D01*
X164802455Y-54682547D01*
X164917664Y-54768793D01*
X164917671Y-54768797D01*
X165052517Y-54819091D01*
X165052516Y-54819091D01*
X165059444Y-54819835D01*
X165112127Y-54825500D01*
X166447872Y-54825499D01*
X166507483Y-54819091D01*
X166642331Y-54768796D01*
X166757546Y-54682546D01*
X166843796Y-54567331D01*
X166894091Y-54432483D01*
X166900500Y-54372873D01*
X166900500Y-53793190D01*
X167199500Y-53793190D01*
X167227089Y-53967384D01*
X167281593Y-54135127D01*
X167330391Y-54230897D01*
X167361662Y-54292270D01*
X167465330Y-54434957D01*
X167590043Y-54559670D01*
X167732730Y-54663338D01*
X167770428Y-54682546D01*
X167889872Y-54743406D01*
X167889874Y-54743406D01*
X167889877Y-54743408D01*
X167968004Y-54768793D01*
X168057615Y-54797910D01*
X168231810Y-54825500D01*
X168231815Y-54825500D01*
X168408190Y-54825500D01*
X168582384Y-54797910D01*
X168750123Y-54743408D01*
X168907270Y-54663338D01*
X169049957Y-54559670D01*
X169174670Y-54434957D01*
X169278338Y-54292270D01*
X169358408Y-54135123D01*
X169412910Y-53967384D01*
X169432240Y-53845338D01*
X169440500Y-53793190D01*
X169739500Y-53793190D01*
X169767089Y-53967384D01*
X169821593Y-54135127D01*
X169870391Y-54230897D01*
X169901662Y-54292270D01*
X170005330Y-54434957D01*
X170130043Y-54559670D01*
X170272730Y-54663338D01*
X170310428Y-54682546D01*
X170429872Y-54743406D01*
X170429874Y-54743406D01*
X170429877Y-54743408D01*
X170508004Y-54768793D01*
X170597615Y-54797910D01*
X170771810Y-54825500D01*
X170771815Y-54825500D01*
X170948190Y-54825500D01*
X171122384Y-54797910D01*
X171290123Y-54743408D01*
X171447270Y-54663338D01*
X171589957Y-54559670D01*
X171714670Y-54434957D01*
X171818338Y-54292270D01*
X171885139Y-54161164D01*
X171933112Y-54110370D01*
X172000933Y-54093574D01*
X172067068Y-54116111D01*
X172110520Y-54170826D01*
X172113553Y-54179140D01*
X172130370Y-54230897D01*
X172228271Y-54423036D01*
X172355025Y-54597496D01*
X172355025Y-54597497D01*
X172507502Y-54749974D01*
X172681963Y-54876728D01*
X172874098Y-54974627D01*
X173079190Y-55041266D01*
X173150000Y-55052481D01*
X173150000Y-54022709D01*
X173170339Y-54034452D01*
X173321667Y-54075000D01*
X173478333Y-54075000D01*
X173629661Y-54034452D01*
X173650000Y-54022709D01*
X173650000Y-55052480D01*
X173720809Y-55041266D01*
X173925901Y-54974627D01*
X174118036Y-54876728D01*
X174292496Y-54749974D01*
X174292497Y-54749974D01*
X174444974Y-54597497D01*
X174444974Y-54597496D01*
X174571728Y-54423036D01*
X174669627Y-54230901D01*
X174736265Y-54025809D01*
X174770000Y-53812820D01*
X174770000Y-53730000D01*
X173942709Y-53730000D01*
X173954452Y-53709661D01*
X173995000Y-53558333D01*
X173995000Y-53401667D01*
X173954452Y-53250339D01*
X173942709Y-53230000D01*
X174770000Y-53230000D01*
X174770000Y-53147179D01*
X174736265Y-52934190D01*
X174669627Y-52729098D01*
X174571728Y-52536963D01*
X174444974Y-52362503D01*
X174444974Y-52362502D01*
X174292497Y-52210025D01*
X174118036Y-52083271D01*
X173925899Y-51985372D01*
X173720805Y-51918733D01*
X173650000Y-51907518D01*
X173650000Y-52937290D01*
X173629661Y-52925548D01*
X173478333Y-52885000D01*
X173321667Y-52885000D01*
X173170339Y-52925548D01*
X173150000Y-52937290D01*
X173150000Y-51907518D01*
X173149999Y-51907518D01*
X173079194Y-51918733D01*
X172874100Y-51985372D01*
X172681963Y-52083271D01*
X172507503Y-52210025D01*
X172507502Y-52210025D01*
X172355025Y-52362502D01*
X172355025Y-52362503D01*
X172228271Y-52536963D01*
X172130371Y-52729101D01*
X172113553Y-52780860D01*
X172074114Y-52838534D01*
X172009755Y-52865731D01*
X171940909Y-52853815D01*
X171889434Y-52806570D01*
X171885138Y-52798833D01*
X171818339Y-52667731D01*
X171759777Y-52587128D01*
X171714670Y-52525043D01*
X171589957Y-52400330D01*
X171447270Y-52296662D01*
X171409572Y-52277454D01*
X171290127Y-52216593D01*
X171122384Y-52162089D01*
X170948190Y-52134500D01*
X170948185Y-52134500D01*
X170771815Y-52134500D01*
X170771810Y-52134500D01*
X170597615Y-52162089D01*
X170429872Y-52216593D01*
X170272729Y-52296662D01*
X170130040Y-52400332D01*
X170005332Y-52525040D01*
X169901662Y-52667729D01*
X169821593Y-52824872D01*
X169767089Y-52992615D01*
X169739500Y-53166809D01*
X169739500Y-53793190D01*
X169440500Y-53793190D01*
X169440500Y-53166809D01*
X169412910Y-52992615D01*
X169371282Y-52864500D01*
X169358408Y-52824877D01*
X169358406Y-52824874D01*
X169358406Y-52824872D01*
X169309606Y-52729098D01*
X169278338Y-52667730D01*
X169174670Y-52525043D01*
X169049957Y-52400330D01*
X168907270Y-52296662D01*
X168869572Y-52277454D01*
X168750127Y-52216593D01*
X168582384Y-52162089D01*
X168408190Y-52134500D01*
X168408185Y-52134500D01*
X168231815Y-52134500D01*
X168231810Y-52134500D01*
X168057615Y-52162089D01*
X167889872Y-52216593D01*
X167732729Y-52296662D01*
X167590040Y-52400332D01*
X167465332Y-52525040D01*
X167361662Y-52667729D01*
X167281593Y-52824872D01*
X167227089Y-52992615D01*
X167199500Y-53166809D01*
X167199500Y-53793190D01*
X166900500Y-53793190D01*
X166900499Y-52587128D01*
X166894091Y-52527517D01*
X166893168Y-52525043D01*
X166843797Y-52392671D01*
X166843793Y-52392664D01*
X166757547Y-52277455D01*
X166757544Y-52277452D01*
X166642335Y-52191206D01*
X166642328Y-52191202D01*
X166507482Y-52140908D01*
X166507483Y-52140908D01*
X166447883Y-52134501D01*
X166447881Y-52134500D01*
X166447873Y-52134500D01*
X166447864Y-52134500D01*
X165112129Y-52134500D01*
X165112123Y-52134501D01*
X165052516Y-52140908D01*
X164917671Y-52191202D01*
X164917664Y-52191206D01*
X164802455Y-52277452D01*
X164802452Y-52277455D01*
X164716206Y-52392664D01*
X164716202Y-52392671D01*
X164665908Y-52527517D01*
X164664893Y-52536963D01*
X164659501Y-52587123D01*
X164659500Y-52587135D01*
X164659500Y-54372870D01*
X158010500Y-54372870D01*
X158010500Y-49134500D01*
X158030185Y-49067461D01*
X158082989Y-49021706D01*
X158134500Y-49010500D01*
X180865500Y-49010500D01*
X180932539Y-49030185D01*
G37*
%TD.AperFunction*%
%TD*%
M02*
