M48
; DRILL file {KiCad 9.0.7} date 2026-03-08T01:03:03+0200
; FORMAT={-:-/ absolute / metric / decimal}
; #@! TF.CreationDate,2026-03-08T01:03:03+02:00
; #@! TF.GenerationSoftware,Kicad,Pcbnew,9.0.7
; #@! TF.FileFunction,Plated,1,2,PTH
FMAT,2
METRIC
; #@! TA.AperFunction,Plated,PTH,ViaDrill
T1C0.300
; #@! TA.AperFunction,Plated,PTH,ViaDrill
T2C0.400
; #@! TA.AperFunction,Plated,PTH,ComponentDrill
T3C0.800
; #@! TA.AperFunction,Plated,PTH,ComponentDrill
T4C1.000
; #@! TA.AperFunction,Plated,PTH,ComponentDrill
T5C1.100
; #@! TA.AperFunction,Plated,PTH,ComponentDrill
T6C1.500
; #@! TA.AperFunction,Plated,PTH,ComponentDrill
T7C2.300
%
G90
G05
T1
X140.504Y-75.006
X140.55Y-132.2
X140.704Y-77.606
X140.75Y-134.8
X159.792Y-103.814
X159.992Y-106.414
X178.604Y-75.006
X178.604Y-132.146
X178.804Y-77.606
X178.804Y-134.746
X197.654Y-103.576
X197.854Y-106.176
X214.834Y-75.006
X215.034Y-77.606
X216.725Y-132.125
X216.925Y-134.725
X235.754Y-103.576
X235.954Y-106.176
X253.63Y-75.006
X253.83Y-77.606
X254.825Y-132.125
X255.025Y-134.725
X273.901Y-103.576
X274.101Y-106.176
T2
X120.7Y-77.1
X125.6Y-117.3
X125.8Y-156.7
X126.25Y-215.025
X128.5Y-179.5
X128.5Y-181.3
X128.7Y-182.7
X128.9Y-108.6
X129.2Y-156.1
X129.5Y-175.9
X129.6Y-163.4
X130.0Y-211.7
X130.4Y-50.1
X130.8Y-163.6
X131.6Y-165.4
X132.5Y-164.5
X133.1Y-160.2
X133.5Y-90.8
X133.6Y-168.2
X136.1Y-167.7
X137.6Y-157.6
X139.2Y-211.6
X139.3Y-173.6
X139.7Y-192.3
X145.0Y-41.2
X147.0Y-142.7
X148.6Y-84.9
X153.575Y-80.006
X153.575Y-82.737
X160.2Y-164.7
X160.3Y-159.7
X160.6Y-90.2
X160.8Y-88.8
X161.3Y-92.2
X164.025Y-155.9
X165.895Y-89.995
X166.1Y-84.8
X166.8Y-174.6
X166.9Y-180.3
X166.9Y-181.5
X167.0Y-88.8
X167.1Y-182.7
X167.2Y-176.5
X167.4Y-155.8
X168.4Y-76.9
X168.8Y-121.1
X169.155Y-162.625
X169.7Y-160.8
X170.262Y-163.45
X170.4Y-70.9
X171.152Y-164.097
X171.7Y-172.4
X172.5Y-182.6
X172.6Y-167.7
X172.8Y-157.7
X173.1Y-67.1
X174.9Y-167.3
X175.8Y-157.8
X176.6Y-192.2
X177.3Y-173.8
X183.6Y-42.3
X183.6Y-72.3
X183.7Y-48.9
X184.581Y-95.981
X185.2Y-85.8
X185.6Y-52.6
X185.684Y-97.184
X187.295Y-97.6
X189.7Y-156.8
X189.9Y-159.2
X190.2Y-164.95
X190.931Y-66.431
X192.075Y-68.288
X193.251Y-69.8
X194.45Y-133.25
X194.676Y-140.324
X195.6Y-70.9
X196.019Y-138.981
X196.5Y-153.7
X196.75Y-132.95
X197.4Y-182.2
X197.425Y-137.525
X197.836Y-165.1
X197.9Y-159.925
X198.201Y-69.874
X198.75Y-136.25
X199.3Y-132.9
X200.081Y-134.919
X200.5Y-155.3
X201.125Y-71.9
X201.581Y-133.419
X203.15Y-131.85
X204.0Y-155.6
X205.0Y-181.2
X205.2Y-63.625
X205.2Y-182.5
X205.3Y-177.1
X205.403Y-179.603
X206.3Y-161.1
X207.208Y-161.805
X208.3Y-162.975
X208.609Y-161.156
X209.4Y-160.3
X209.5Y-163.9
X210.5Y-167.6
X212.4Y-167.9
X212.483Y-157.288
X215.1Y-156.338
X215.3Y-38.5
X215.6Y-192.2
X215.9Y-173.3
X216.7Y-165.1
X217.0Y-112.6
X218.4Y-107.7
X218.4Y-109.0
X219.4Y-103.8
X220.45Y-63.55
X221.534Y-96.2
X225.0Y-50.2
X226.0Y-41.4
X226.835Y-73.3
X227.8Y-153.6
X230.4Y-158.9
X230.9Y-119.8
X231.1Y-167.1
X232.537Y-159.075
X235.44Y-39.46
X235.8Y-165.5
X239.8Y-155.7
X240.9Y-117.9
X241.021Y-118.993
X241.584Y-119.939
X242.5Y-180.1
X242.8Y-159.675
X243.1Y-62.8
X243.1Y-181.3
X243.1Y-182.6
X243.4Y-155.5
X243.4Y-176.2
X244.2Y-52.2
X245.4Y-162.0
X245.5Y-68.2
X246.375Y-162.975
X247.5Y-163.8
X249.0Y-159.4
X249.1Y-167.8
X250.4Y-207.3
X250.985Y-170.054
X251.2Y-43.9
X251.4Y-158.8
X253.1Y-192.4
X255.8Y-107.9
X256.0Y-109.2
X256.226Y-110.54
X256.9Y-104.1
X262.3Y-118.9
X266.4Y-167.9
X269.7Y-52.6
X270.5Y-75.9
X270.6Y-159.2
X272.1Y-159.1
X272.9Y-165.2
X274.6Y-164.8
X274.9Y-53.4
X276.022Y-103.578
X276.8Y-200.3
X277.8Y-75.0
X280.4Y-181.3
X280.4Y-182.6
X280.5Y-179.9
X280.7Y-176.2
X281.8Y-63.2
X282.15Y-60.2
X282.5Y-119.7
X282.5Y-160.9
X283.2Y-55.35
X283.5Y-161.975
X283.6Y-57.9
X283.6Y-128.3
X284.4Y-162.8
X285.9Y-163.9
X286.2Y-131.0
X288.35Y-52.3
X288.7Y-64.5
X288.7Y-103.3
X288.8Y-142.7
X289.0Y-154.6
X289.2Y-173.6
X289.6Y-66.1
X290.1Y-195.4
X290.4Y-61.9
X290.4Y-176.5
X291.0Y-192.0
X291.5Y-133.9
X291.5Y-210.7
X291.9Y-56.2
X292.4Y-173.5
X292.6Y-59.4
X293.7Y-66.1
T3
X133.604Y-85.906
X133.65Y-143.1
X133.704Y-71.806
X133.704Y-73.806
X133.704Y-75.806
X133.75Y-129.0
X133.75Y-131.0
X133.75Y-133.0
X135.604Y-85.906
X135.65Y-143.1
X137.604Y-85.906
X137.65Y-143.1
X150.604Y-80.006
X150.604Y-82.006
X150.604Y-84.006
X150.65Y-137.2
X150.65Y-139.2
X150.65Y-141.2
X152.892Y-114.714
X152.992Y-100.614
X152.992Y-102.614
X152.992Y-104.614
X154.892Y-114.714
X156.892Y-114.714
X169.892Y-108.814
X169.892Y-110.814
X169.892Y-112.814
X171.704Y-85.906
X171.704Y-143.046
X171.804Y-71.806
X171.804Y-73.806
X171.804Y-75.806
X171.804Y-128.946
X171.804Y-130.946
X171.804Y-132.946
X173.704Y-85.906
X173.704Y-143.046
X175.704Y-85.906
X175.704Y-143.046
X188.704Y-80.006
X188.704Y-82.006
X188.704Y-84.006
X188.704Y-137.146
X188.704Y-139.146
X188.704Y-141.146
X190.754Y-114.476
X190.854Y-100.376
X190.854Y-102.376
X190.854Y-104.376
X192.754Y-114.476
X194.754Y-114.476
X207.754Y-108.576
X207.754Y-110.576
X207.754Y-112.576
X207.934Y-85.906
X208.034Y-71.806
X208.034Y-73.806
X208.034Y-75.806
X209.925Y-128.925
X209.925Y-130.925
X209.925Y-132.925
X209.934Y-85.906
X211.934Y-85.906
X212.8Y-143.9
X214.8Y-143.9
X216.8Y-143.9
X224.934Y-80.006
X224.934Y-82.006
X224.934Y-84.006
X226.825Y-137.125
X226.825Y-139.125
X226.825Y-141.125
X228.854Y-114.476
X228.954Y-100.376
X228.954Y-102.376
X228.954Y-104.376
X230.854Y-114.476
X232.854Y-114.476
X245.854Y-108.576
X245.854Y-110.576
X245.854Y-112.576
X246.73Y-85.906
X246.83Y-71.806
X246.83Y-73.806
X246.83Y-75.806
X247.925Y-143.025
X248.025Y-128.925
X248.025Y-130.925
X248.025Y-132.925
X248.73Y-85.906
X249.925Y-143.025
X250.73Y-85.906
X251.925Y-143.025
X263.73Y-80.006
X263.73Y-82.006
X263.73Y-84.006
X264.925Y-137.125
X264.925Y-139.125
X264.925Y-141.125
X267.001Y-114.476
X267.101Y-100.376
X267.101Y-102.376
X267.101Y-104.376
X269.001Y-114.476
X271.001Y-114.476
X284.001Y-108.576
X284.001Y-110.576
X284.001Y-112.576
T4
X182.1Y-35.1
X182.1Y-58.1
X184.64Y-35.1
X184.64Y-58.1
X187.18Y-35.1
X187.18Y-58.1
X189.72Y-35.1
X189.72Y-58.1
X192.26Y-35.1
X192.26Y-58.1
X194.8Y-35.1
X194.8Y-58.1
X197.34Y-35.1
X197.34Y-58.1
X199.88Y-35.1
X199.88Y-58.1
X202.42Y-35.1
X202.42Y-58.1
X204.96Y-35.1
X204.96Y-58.1
X207.5Y-35.1
X207.5Y-58.1
X210.04Y-35.1
X210.04Y-58.1
X212.58Y-35.1
X212.58Y-58.1
X215.12Y-35.1
X215.12Y-58.1
X217.66Y-35.1
X217.66Y-58.1
X220.2Y-35.1
X220.2Y-58.1
X222.74Y-35.1
X222.74Y-58.1
X225.28Y-35.1
X225.28Y-58.1
X227.82Y-35.1
X227.82Y-58.1
X230.36Y-35.1
X230.36Y-58.1
X232.9Y-35.1
X232.9Y-58.1
X235.44Y-35.1
X235.44Y-58.1
T5
X139.597Y-69.131
X139.597Y-83.631
X139.642Y-126.325
X139.642Y-140.825
X142.097Y-83.631
X142.142Y-140.825
X144.597Y-69.131
X144.597Y-83.631
X144.642Y-126.325
X144.642Y-140.825
X158.885Y-97.939
X158.885Y-112.439
X161.385Y-112.439
X163.885Y-97.939
X163.885Y-112.439
X177.697Y-69.131
X177.697Y-83.631
X177.697Y-126.271
X177.697Y-140.771
X180.197Y-83.631
X180.197Y-140.771
X182.697Y-69.131
X182.697Y-83.631
X182.697Y-126.271
X182.697Y-140.771
X196.747Y-97.701
X196.747Y-112.201
X199.247Y-112.201
X201.747Y-97.701
X201.747Y-112.201
X213.926Y-69.131
X213.926Y-83.631
X215.817Y-126.25
X215.817Y-140.75
X216.426Y-83.631
X218.317Y-140.75
X218.926Y-69.131
X218.926Y-83.631
X220.817Y-126.25
X220.817Y-140.75
X234.847Y-97.701
X234.847Y-112.201
X237.347Y-112.201
X239.847Y-97.701
X239.847Y-112.201
X252.723Y-69.131
X252.723Y-83.631
X253.917Y-126.25
X253.917Y-140.75
X255.223Y-83.631
X256.417Y-140.75
X257.723Y-69.131
X257.723Y-83.631
X258.917Y-126.25
X258.917Y-140.75
X272.993Y-97.701
X272.993Y-112.201
X275.493Y-112.201
X277.993Y-97.701
X277.993Y-112.201
T6
X119.39Y-111.81
X119.39Y-130.86
X119.39Y-149.91
X119.39Y-168.96
X119.39Y-188.01
X119.39Y-207.06
X120.7Y-110.35
X120.7Y-129.4
X120.7Y-148.45
X120.7Y-167.5
X120.7Y-186.55
X120.7Y-205.6
X138.44Y-149.91
X138.44Y-168.96
X138.44Y-188.01
X138.44Y-207.06
X139.75Y-148.45
X139.75Y-167.5
X139.75Y-186.55
X139.75Y-205.6
X157.49Y-149.91
X157.49Y-168.96
X157.49Y-188.01
X157.49Y-207.06
X158.8Y-148.45
X158.8Y-167.5
X158.8Y-186.55
X158.8Y-205.6
X176.54Y-149.91
X176.54Y-168.96
X176.54Y-188.01
X176.54Y-207.06
X177.85Y-148.45
X177.85Y-167.5
X177.85Y-186.55
X177.85Y-205.6
X195.59Y-149.91
X195.59Y-168.96
X195.59Y-188.01
X195.59Y-207.06
X196.9Y-148.45
X196.9Y-167.5
X196.9Y-186.55
X196.9Y-205.6
X214.64Y-149.91
X214.64Y-168.96
X214.64Y-188.01
X214.64Y-207.06
X215.95Y-148.45
X215.95Y-167.5
X215.95Y-186.55
X215.95Y-205.6
X233.69Y-149.91
X233.69Y-168.96
X233.69Y-188.01
X233.69Y-207.06
X235.0Y-148.45
X235.0Y-167.5
X235.0Y-186.55
X235.0Y-205.6
X252.74Y-149.91
X252.74Y-168.96
X252.74Y-188.01
X252.74Y-207.06
X254.05Y-148.45
X254.05Y-167.5
X254.05Y-186.55
X254.05Y-205.6
X271.79Y-149.91
X271.79Y-168.96
X271.79Y-188.01
X271.79Y-207.06
X273.1Y-148.45
X273.1Y-167.5
X273.1Y-186.55
X273.1Y-205.6
X290.84Y-111.81
X290.84Y-130.86
X290.84Y-149.91
X290.84Y-168.96
X290.84Y-188.01
X290.84Y-207.06
X292.15Y-110.35
X292.15Y-129.4
X292.15Y-148.45
X292.15Y-167.5
X292.15Y-186.55
X292.15Y-205.6
T6
X125.7Y-109.85G85X125.74Y-109.27
G05
X125.7Y-128.9G85X125.74Y-128.32
G05
X125.7Y-147.95G85X125.74Y-147.37
G05
X125.7Y-167.0G85X125.74Y-166.42
G05
X125.7Y-186.05G85X125.74Y-185.47
G05
X125.7Y-205.1G85X125.74Y-204.52
G05
X144.75Y-147.95G85X144.79Y-147.37
G05
X144.75Y-167.0G85X144.79Y-166.42
G05
X144.75Y-186.05G85X144.79Y-185.47
G05
X144.75Y-205.1G85X144.79Y-204.52
G05
X163.8Y-147.95G85X163.84Y-147.37
G05
X163.8Y-167.0G85X163.84Y-166.42
G05
X163.8Y-186.05G85X163.84Y-185.47
G05
X163.8Y-205.1G85X163.84Y-204.52
G05
X182.85Y-147.95G85X182.89Y-147.37
G05
X182.85Y-167.0G85X182.89Y-166.42
G05
X182.85Y-186.05G85X182.89Y-185.47
G05
X182.85Y-205.1G85X182.89Y-204.52
G05
X201.9Y-147.95G85X201.94Y-147.37
G05
X201.9Y-167.0G85X201.94Y-166.42
G05
X201.9Y-186.05G85X201.94Y-185.47
G05
X201.9Y-205.1G85X201.94Y-204.52
G05
X220.95Y-147.95G85X220.99Y-147.37
G05
X220.95Y-167.0G85X220.99Y-166.42
G05
X220.95Y-186.05G85X220.99Y-185.47
G05
X220.95Y-205.1G85X220.99Y-204.52
G05
X240.0Y-147.95G85X240.04Y-147.37
G05
X240.0Y-167.0G85X240.04Y-166.42
G05
X240.0Y-186.05G85X240.04Y-185.47
G05
X240.0Y-205.1G85X240.04Y-204.52
G05
X259.05Y-147.95G85X259.09Y-147.37
G05
X259.05Y-167.0G85X259.09Y-166.42
G05
X259.05Y-186.05G85X259.09Y-185.47
G05
X259.05Y-205.1G85X259.09Y-204.52
G05
X278.1Y-147.95G85X278.14Y-147.37
G05
X278.1Y-167.0G85X278.14Y-166.42
G05
X278.1Y-186.05G85X278.14Y-185.47
G05
X278.1Y-205.1G85X278.14Y-204.52
G05
X297.15Y-109.85G85X297.19Y-109.27
G05
X297.15Y-128.9G85X297.19Y-128.32
G05
X297.15Y-147.95G85X297.19Y-147.37
G05
X297.15Y-167.0G85X297.19Y-166.42
G05
X297.15Y-186.05G85X297.19Y-185.47
G05
X297.15Y-205.1G85X297.19Y-204.52
G05
T7
X136.897Y-75.981G85X136.897Y-76.281
G05
X136.942Y-133.175G85X136.942Y-133.475
G05
X147.297Y-75.981G85X147.297Y-76.281
G05
X147.343Y-133.175G85X147.343Y-133.475
G05
X156.185Y-104.789G85X156.185Y-105.089
G05
X166.585Y-104.789G85X166.585Y-105.089
G05
X174.997Y-75.981G85X174.997Y-76.281
G05
X174.997Y-133.121G85X174.997Y-133.421
G05
X185.397Y-75.981G85X185.397Y-76.281
G05
X185.397Y-133.121G85X185.397Y-133.421
G05
X194.047Y-104.551G85X194.047Y-104.851
G05
X204.447Y-104.551G85X204.447Y-104.851
G05
X211.226Y-75.981G85X211.226Y-76.281
G05
X213.117Y-133.1G85X213.117Y-133.4
G05
X221.626Y-75.981G85X221.626Y-76.281
G05
X223.517Y-133.1G85X223.517Y-133.4
G05
X232.147Y-104.551G85X232.147Y-104.851
G05
X242.547Y-104.551G85X242.547Y-104.851
G05
X250.023Y-75.981G85X250.023Y-76.281
G05
X251.218Y-133.1G85X251.218Y-133.4
G05
X260.423Y-75.981G85X260.423Y-76.281
G05
X261.618Y-133.1G85X261.618Y-133.4
G05
X270.293Y-104.551G85X270.293Y-104.851
G05
X280.693Y-104.551G85X280.693Y-104.851
G05
M30
