%TF.GenerationSoftware,KiCad,Pcbnew,9.0.7*%
%TF.CreationDate,2026-03-08T01:02:54+02:00*%
%TF.ProjectId,motion_pcb,6d6f7469-6f6e-45f7-9063-622e6b696361,rev?*%
%TF.SameCoordinates,Original*%
%TF.FileFunction,Paste,Top*%
%TF.FilePolarity,Positive*%
%FSLAX46Y46*%
G04 Gerber Fmt 4.6, Leading zero omitted, Abs format (unit mm)*
G04 Created by KiCad (PCBNEW 9.0.7) date 2026-03-08 01:02:54*
%MOMM*%
%LPD*%
G01*
G04 APERTURE LIST*
%ADD10R,0.700000X0.700000*%
G04 APERTURE END LIST*
D10*
%TO.C,D6*%
X293720000Y-214050000D03*
X293720000Y-215150000D03*
X295550000Y-215150000D03*
X295550000Y-214050000D03*
%TD*%
%TO.C,D25*%
X179420000Y-175950000D03*
X179420000Y-177050000D03*
X181250000Y-177050000D03*
X181250000Y-175950000D03*
%TD*%
%TO.C,D17*%
X236570000Y-214050000D03*
X236570000Y-215150000D03*
X238400000Y-215150000D03*
X238400000Y-214050000D03*
%TD*%
%TO.C,D28*%
X122270000Y-175950000D03*
X122270000Y-177050000D03*
X124100000Y-177050000D03*
X124100000Y-175950000D03*
%TD*%
%TO.C,D20*%
X217520000Y-195000000D03*
X217520000Y-196100000D03*
X219350000Y-196100000D03*
X219350000Y-195000000D03*
%TD*%
%TO.C,D33*%
X141320000Y-195000000D03*
X141320000Y-196100000D03*
X143150000Y-196100000D03*
X143150000Y-195000000D03*
%TD*%
%TO.C,D12*%
X255620000Y-175950000D03*
X255620000Y-177050000D03*
X257450000Y-177050000D03*
X257450000Y-175950000D03*
%TD*%
%TO.C,D19*%
X198470000Y-214050000D03*
X198470000Y-215150000D03*
X200300000Y-215150000D03*
X200300000Y-214050000D03*
%TD*%
%TO.C,D1*%
X293720000Y-118800000D03*
X293720000Y-119900000D03*
X295550000Y-119900000D03*
X295550000Y-118800000D03*
%TD*%
%TO.C,D10*%
X198470000Y-175950000D03*
X198470000Y-177050000D03*
X200300000Y-177050000D03*
X200300000Y-175950000D03*
%TD*%
%TO.C,D23*%
X160370000Y-195000000D03*
X160370000Y-196100000D03*
X162200000Y-196100000D03*
X162200000Y-195000000D03*
%TD*%
%TO.C,D21*%
X217520000Y-214050000D03*
X217520000Y-215150000D03*
X219350000Y-215150000D03*
X219350000Y-214050000D03*
%TD*%
%TO.C,D43*%
X160370000Y-156900000D03*
X160370000Y-158000000D03*
X162200000Y-158000000D03*
X162200000Y-156900000D03*
%TD*%
%TO.C,D37*%
X236570000Y-156900000D03*
X236570000Y-158000000D03*
X238400000Y-158000000D03*
X238400000Y-156900000D03*
%TD*%
%TO.C,D4*%
X293720000Y-175950000D03*
X293720000Y-177050000D03*
X295550000Y-177050000D03*
X295550000Y-175950000D03*
%TD*%
%TO.C,D40*%
X198470000Y-156900000D03*
X198470000Y-158000000D03*
X200300000Y-158000000D03*
X200300000Y-156900000D03*
%TD*%
%TO.C,D5*%
X293720000Y-195000000D03*
X293720000Y-196100000D03*
X295550000Y-196100000D03*
X295550000Y-195000000D03*
%TD*%
%TO.C,D38*%
X217520000Y-156900000D03*
X217520000Y-158000000D03*
X219350000Y-158000000D03*
X219350000Y-156900000D03*
%TD*%
%TO.C,D3*%
X293720000Y-156900000D03*
X293720000Y-158000000D03*
X295550000Y-158000000D03*
X295550000Y-156900000D03*
%TD*%
%TO.C,D26*%
X179420000Y-195000000D03*
X179420000Y-196100000D03*
X181250000Y-196100000D03*
X181250000Y-195000000D03*
%TD*%
%TO.C,D9*%
X274670000Y-214050000D03*
X274670000Y-215150000D03*
X276500000Y-215150000D03*
X276500000Y-214050000D03*
%TD*%
%TO.C,D42*%
X179420000Y-156900000D03*
X179420000Y-158000000D03*
X181250000Y-158000000D03*
X181250000Y-156900000D03*
%TD*%
%TO.C,D41*%
X122270000Y-137850000D03*
X122270000Y-138950000D03*
X124100000Y-138950000D03*
X124100000Y-137850000D03*
%TD*%
%TO.C,D13*%
X255620000Y-195000000D03*
X255620000Y-196100000D03*
X257450000Y-196100000D03*
X257450000Y-195000000D03*
%TD*%
%TO.C,D24*%
X160370000Y-214050000D03*
X160370000Y-215150000D03*
X162200000Y-215150000D03*
X162200000Y-214050000D03*
%TD*%
%TO.C,D11*%
X198470000Y-195000000D03*
X198470000Y-196100000D03*
X200300000Y-196100000D03*
X200300000Y-195000000D03*
%TD*%
%TO.C,D18*%
X217520000Y-175950000D03*
X217520000Y-177050000D03*
X219350000Y-177050000D03*
X219350000Y-175950000D03*
%TD*%
%TO.C,D34*%
X141320000Y-214050000D03*
X141320000Y-215150000D03*
X143150000Y-215150000D03*
X143150000Y-214050000D03*
%TD*%
%TO.C,D36*%
X255620000Y-156900000D03*
X255620000Y-158000000D03*
X257450000Y-158000000D03*
X257450000Y-156900000D03*
%TD*%
%TO.C,D39*%
X122270000Y-118800000D03*
X122270000Y-119900000D03*
X124100000Y-119900000D03*
X124100000Y-118800000D03*
%TD*%
%TO.C,D32*%
X141320000Y-175950000D03*
X141320000Y-177050000D03*
X143150000Y-177050000D03*
X143150000Y-175950000D03*
%TD*%
%TO.C,D2*%
X293720000Y-137850000D03*
X293720000Y-138950000D03*
X295550000Y-138950000D03*
X295550000Y-137850000D03*
%TD*%
%TO.C,D31*%
X122270000Y-156900000D03*
X122270000Y-158000000D03*
X124100000Y-158000000D03*
X124100000Y-156900000D03*
%TD*%
%TO.C,D27*%
X179420000Y-214050000D03*
X179420000Y-215150000D03*
X181250000Y-215150000D03*
X181250000Y-214050000D03*
%TD*%
%TO.C,D7*%
X274670000Y-175950000D03*
X274670000Y-177050000D03*
X276500000Y-177050000D03*
X276500000Y-175950000D03*
%TD*%
%TO.C,D29*%
X122270000Y-195000000D03*
X122270000Y-196100000D03*
X124100000Y-196100000D03*
X124100000Y-195000000D03*
%TD*%
%TO.C,D8*%
X274670000Y-195000000D03*
X274670000Y-196100000D03*
X276500000Y-196100000D03*
X276500000Y-195000000D03*
%TD*%
%TO.C,D15*%
X236570000Y-175950000D03*
X236570000Y-177050000D03*
X238400000Y-177050000D03*
X238400000Y-175950000D03*
%TD*%
%TO.C,D44*%
X141320000Y-156900000D03*
X141320000Y-158000000D03*
X143150000Y-158000000D03*
X143150000Y-156900000D03*
%TD*%
%TO.C,D30*%
X122270000Y-214050000D03*
X122270000Y-215150000D03*
X124100000Y-215150000D03*
X124100000Y-214050000D03*
%TD*%
%TO.C,D16*%
X236570000Y-195000000D03*
X236570000Y-196100000D03*
X238400000Y-196100000D03*
X238400000Y-195000000D03*
%TD*%
%TO.C,D14*%
X255620000Y-214050000D03*
X255620000Y-215150000D03*
X257450000Y-215150000D03*
X257450000Y-214050000D03*
%TD*%
%TO.C,D22*%
X160370000Y-175950000D03*
X160370000Y-177050000D03*
X162200000Y-177050000D03*
X162200000Y-175950000D03*
%TD*%
%TO.C,D35*%
X274670000Y-156900000D03*
X274670000Y-158000000D03*
X276500000Y-158000000D03*
X276500000Y-156900000D03*
%TD*%
M02*
