%TF.GenerationSoftware,KiCad,Pcbnew,9.0.7*%
%TF.CreationDate,2026-03-08T01:02:54+02:00*%
%TF.ProjectId,motion_pcb,6d6f7469-6f6e-45f7-9063-622e6b696361,rev?*%
%TF.SameCoordinates,Original*%
%TF.FileFunction,Soldermask,Bot*%
%TF.FilePolarity,Negative*%
%FSLAX46Y46*%
G04 Gerber Fmt 4.6, Leading zero omitted, Abs format (unit mm)*
G04 Created by KiCad (PCBNEW 9.0.7) date 2026-03-08 01:02:54*
%MOMM*%
%LPD*%
G01*
G04 APERTURE LIST*
G04 Aperture macros list*
%AMRoundRect*
0 Rectangle with rounded corners*
0 $1 Rounding radius*
0 $2 $3 $4 $5 $6 $7 $8 $9 X,Y pos of 4 corners*
0 Add a 4 corners polygon primitive as box body*
4,1,4,$2,$3,$4,$5,$6,$7,$8,$9,$2,$3,0*
0 Add four circle primitives for the rounded corners*
1,1,$1+$1,$2,$3*
1,1,$1+$1,$4,$5*
1,1,$1+$1,$6,$7*
1,1,$1+$1,$8,$9*
0 Add four rect primitives between the rounded corners*
20,1,$1+$1,$2,$3,$4,$5,0*
20,1,$1+$1,$4,$5,$6,$7,0*
20,1,$1+$1,$6,$7,$8,$9,0*
20,1,$1+$1,$8,$9,$2,$3,0*%
%AMHorizOval*
0 Thick line with rounded ends*
0 $1 width*
0 $2 $3 position (X,Y) of the first rounded end (center of the circle)*
0 $4 $5 position (X,Y) of the second rounded end (center of the circle)*
0 Add line between two ends*
20,1,$1,$2,$3,$4,$5,0*
0 Add two circle primitives to create the rounded ends*
1,1,$1,$2,$3*
1,1,$1,$4,$5*%
G04 Aperture macros list end*
%ADD10C,1.750000*%
%ADD11C,4.000000*%
%ADD12HorizOval,2.500000X0.656270X0.728862X-0.656270X-0.728862X0*%
%ADD13C,2.500000*%
%ADD14HorizOval,2.800000X0.017439X0.249391X-0.017439X-0.249391X0*%
%ADD15C,1.900000*%
%ADD16R,3.000000X4.000000*%
%ADD17C,3.200000*%
%ADD18C,1.400000*%
%ADD19RoundRect,0.250000X-0.400000X-0.625000X0.400000X-0.625000X0.400000X0.625000X-0.400000X0.625000X0*%
%ADD20RoundRect,0.250000X0.412500X0.650000X-0.412500X0.650000X-0.412500X-0.650000X0.412500X-0.650000X0*%
%ADD21RoundRect,0.250000X0.625000X-0.400000X0.625000X0.400000X-0.625000X0.400000X-0.625000X-0.400000X0*%
%ADD22RoundRect,0.250000X0.400000X0.625000X-0.400000X0.625000X-0.400000X-0.625000X0.400000X-0.625000X0*%
%ADD23RoundRect,0.150000X0.825000X0.150000X-0.825000X0.150000X-0.825000X-0.150000X0.825000X-0.150000X0*%
%ADD24RoundRect,0.150000X-0.512500X-0.150000X0.512500X-0.150000X0.512500X0.150000X-0.512500X0.150000X0*%
%ADD25RoundRect,0.250000X0.650000X-0.412500X0.650000X0.412500X-0.650000X0.412500X-0.650000X-0.412500X0*%
%ADD26RoundRect,0.150000X0.150000X-0.587500X0.150000X0.587500X-0.150000X0.587500X-0.150000X-0.587500X0*%
%ADD27RoundRect,0.250000X-0.625000X0.400000X-0.625000X-0.400000X0.625000X-0.400000X0.625000X0.400000X0*%
%ADD28RoundRect,0.250000X-1.750000X-1.000000X1.750000X-1.000000X1.750000X1.000000X-1.750000X1.000000X0*%
%ADD29R,1.700000X1.700000*%
%ADD30C,1.700000*%
G04 APERTURE END LIST*
D10*
%TO.C,D6*%
X289570000Y-209600000D03*
D11*
X294650000Y-209600000D03*
D10*
X299730000Y-209600000D03*
D12*
X291496269Y-206331140D03*
D13*
X292150000Y-205600000D03*
D14*
X297170000Y-204810000D03*
%TD*%
D15*
%TO.C,U37*%
X213926418Y-83631129D03*
X218926418Y-83631129D03*
X216426418Y-83631129D03*
X218926418Y-69131129D03*
X213926418Y-69131129D03*
D16*
X211226418Y-76131129D03*
X221626418Y-76131129D03*
%TD*%
D10*
%TO.C,D25*%
X175270000Y-171500000D03*
D11*
X180350000Y-171500000D03*
D10*
X185430000Y-171500000D03*
D12*
X177196269Y-168231140D03*
D13*
X177850000Y-167500000D03*
D14*
X182870000Y-166710000D03*
%TD*%
D10*
%TO.C,D17*%
X232420000Y-209600000D03*
D11*
X237500000Y-209600000D03*
D10*
X242580000Y-209600000D03*
D12*
X234346269Y-206331140D03*
D13*
X235000000Y-205600000D03*
D14*
X240020000Y-204810000D03*
%TD*%
D10*
%TO.C,D28*%
X118120000Y-171500000D03*
D11*
X123200000Y-171500000D03*
D10*
X128280000Y-171500000D03*
D12*
X120046269Y-168231140D03*
D13*
X120700000Y-167500000D03*
D14*
X125720000Y-166710000D03*
%TD*%
D10*
%TO.C,D20*%
X213370000Y-190550000D03*
D11*
X218450000Y-190550000D03*
D10*
X223530000Y-190550000D03*
D12*
X215296269Y-187281140D03*
D13*
X215950000Y-186550000D03*
D14*
X220970000Y-185760000D03*
%TD*%
D10*
%TO.C,D33*%
X137170000Y-190550000D03*
D11*
X142250000Y-190550000D03*
D10*
X147330000Y-190550000D03*
D12*
X139096269Y-187281140D03*
D13*
X139750000Y-186550000D03*
D14*
X144770000Y-185760000D03*
%TD*%
D10*
%TO.C,D12*%
X251470000Y-171500000D03*
D11*
X256550000Y-171500000D03*
D10*
X261630000Y-171500000D03*
D12*
X253396269Y-168231140D03*
D13*
X254050000Y-167500000D03*
D14*
X259070000Y-166710000D03*
%TD*%
D10*
%TO.C,D19*%
X194320000Y-209600000D03*
D11*
X199400000Y-209600000D03*
D10*
X204480000Y-209600000D03*
D12*
X196246269Y-206331140D03*
D13*
X196900000Y-205600000D03*
D14*
X201920000Y-204810000D03*
%TD*%
D15*
%TO.C,U1*%
X139642500Y-140825000D03*
X144642500Y-140825000D03*
X142142500Y-140825000D03*
X144642500Y-126325000D03*
X139642500Y-126325000D03*
D16*
X136942500Y-133325000D03*
X147342500Y-133325000D03*
%TD*%
D10*
%TO.C,D1*%
X289570000Y-114350000D03*
D11*
X294650000Y-114350000D03*
D10*
X299730000Y-114350000D03*
D12*
X291496269Y-111081140D03*
D13*
X292150000Y-110350000D03*
D14*
X297170000Y-109560000D03*
%TD*%
D10*
%TO.C,D10*%
X194320000Y-171500000D03*
D11*
X199400000Y-171500000D03*
D10*
X204480000Y-171500000D03*
D12*
X196246269Y-168231140D03*
D13*
X196900000Y-167500000D03*
D14*
X201920000Y-166710000D03*
%TD*%
D10*
%TO.C,D23*%
X156220000Y-190550000D03*
D11*
X161300000Y-190550000D03*
D10*
X166380000Y-190550000D03*
D12*
X158146269Y-187281140D03*
D13*
X158800000Y-186550000D03*
D14*
X163820000Y-185760000D03*
%TD*%
D15*
%TO.C,U21*%
X196746745Y-112201129D03*
X201746745Y-112201129D03*
X199246745Y-112201129D03*
X201746745Y-97701129D03*
X196746745Y-97701129D03*
D16*
X194046745Y-104701129D03*
X204446745Y-104701129D03*
%TD*%
D10*
%TO.C,D21*%
X213370000Y-209600000D03*
D11*
X218450000Y-209600000D03*
D10*
X223530000Y-209600000D03*
D12*
X215296269Y-206331140D03*
D13*
X215950000Y-205600000D03*
D14*
X220970000Y-204810000D03*
%TD*%
D10*
%TO.C,D43*%
X156220000Y-152450000D03*
D11*
X161300000Y-152450000D03*
D10*
X166380000Y-152450000D03*
D12*
X158146269Y-149181140D03*
D13*
X158800000Y-148450000D03*
D14*
X163820000Y-147660000D03*
%TD*%
D17*
%TO.C,H1*%
X122763757Y-42578583D03*
%TD*%
D10*
%TO.C,D37*%
X232420000Y-152450000D03*
D11*
X237500000Y-152450000D03*
D10*
X242580000Y-152450000D03*
D12*
X234346269Y-149181140D03*
D13*
X235000000Y-148450000D03*
D14*
X240020000Y-147660000D03*
%TD*%
D10*
%TO.C,D4*%
X289570000Y-171500000D03*
D11*
X294650000Y-171500000D03*
D10*
X299730000Y-171500000D03*
D12*
X291496269Y-168231140D03*
D13*
X292150000Y-167500000D03*
D14*
X297170000Y-166710000D03*
%TD*%
D10*
%TO.C,D40*%
X194320000Y-152450000D03*
D11*
X199400000Y-152450000D03*
D10*
X204480000Y-152450000D03*
D12*
X196246269Y-149181140D03*
D13*
X196900000Y-148450000D03*
D14*
X201920000Y-147660000D03*
%TD*%
D10*
%TO.C,D5*%
X289570000Y-190550000D03*
D11*
X294650000Y-190550000D03*
D10*
X299730000Y-190550000D03*
D12*
X291496269Y-187281140D03*
D13*
X292150000Y-186550000D03*
D14*
X297170000Y-185760000D03*
%TD*%
D10*
%TO.C,D38*%
X213370000Y-152450000D03*
D11*
X218450000Y-152450000D03*
D10*
X223530000Y-152450000D03*
D12*
X215296269Y-149181140D03*
D13*
X215950000Y-148450000D03*
D14*
X220970000Y-147660000D03*
%TD*%
D10*
%TO.C,D3*%
X289570000Y-152450000D03*
D11*
X294650000Y-152450000D03*
D10*
X299730000Y-152450000D03*
D12*
X291496269Y-149181140D03*
D13*
X292150000Y-148450000D03*
D14*
X297170000Y-147660000D03*
%TD*%
D15*
%TO.C,U9*%
X177696745Y-83631129D03*
X182696745Y-83631129D03*
X180196745Y-83631129D03*
X182696745Y-69131129D03*
X177696745Y-69131129D03*
D16*
X174996745Y-76131129D03*
X185396745Y-76131129D03*
%TD*%
D17*
%TO.C,H4*%
X371850000Y-50010000D03*
%TD*%
D10*
%TO.C,D26*%
X175270000Y-190550000D03*
D11*
X180350000Y-190550000D03*
D10*
X185430000Y-190550000D03*
D12*
X177196269Y-187281140D03*
D13*
X177850000Y-186550000D03*
D14*
X182870000Y-185760000D03*
%TD*%
D10*
%TO.C,D9*%
X270520000Y-209600000D03*
D11*
X275600000Y-209600000D03*
D10*
X280680000Y-209600000D03*
D12*
X272446269Y-206331140D03*
D13*
X273100000Y-205600000D03*
D14*
X278120000Y-204810000D03*
%TD*%
D10*
%TO.C,D42*%
X175270000Y-152450000D03*
D11*
X180350000Y-152450000D03*
D10*
X185430000Y-152450000D03*
D12*
X177196269Y-149181140D03*
D13*
X177850000Y-148450000D03*
D14*
X182870000Y-147660000D03*
%TD*%
D10*
%TO.C,D41*%
X118120000Y-133400000D03*
D11*
X123200000Y-133400000D03*
D10*
X128280000Y-133400000D03*
D12*
X120046269Y-130131140D03*
D13*
X120700000Y-129400000D03*
D14*
X125720000Y-128610000D03*
%TD*%
D10*
%TO.C,D13*%
X251470000Y-190550000D03*
D11*
X256550000Y-190550000D03*
D10*
X261630000Y-190550000D03*
D12*
X253396269Y-187281140D03*
D13*
X254050000Y-186550000D03*
D14*
X259070000Y-185760000D03*
%TD*%
D10*
%TO.C,D24*%
X156220000Y-209600000D03*
D11*
X161300000Y-209600000D03*
D10*
X166380000Y-209600000D03*
D12*
X158146269Y-206331140D03*
D13*
X158800000Y-205600000D03*
D14*
X163820000Y-204810000D03*
%TD*%
D10*
%TO.C,D11*%
X194320000Y-190550000D03*
D11*
X199400000Y-190550000D03*
D10*
X204480000Y-190550000D03*
D12*
X196246269Y-187281140D03*
D13*
X196900000Y-186550000D03*
D14*
X201920000Y-185760000D03*
%TD*%
D10*
%TO.C,D18*%
X213370000Y-171500000D03*
D11*
X218450000Y-171500000D03*
D10*
X223530000Y-171500000D03*
D12*
X215296269Y-168231140D03*
D13*
X215950000Y-167500000D03*
D14*
X220970000Y-166710000D03*
%TD*%
D10*
%TO.C,D34*%
X137170000Y-209600000D03*
D11*
X142250000Y-209600000D03*
D10*
X147330000Y-209600000D03*
D12*
X139096269Y-206331140D03*
D13*
X139750000Y-205600000D03*
D14*
X144770000Y-204810000D03*
%TD*%
D10*
%TO.C,D36*%
X251470000Y-152450000D03*
D11*
X256550000Y-152450000D03*
D10*
X261630000Y-152450000D03*
D12*
X253396269Y-149181140D03*
D13*
X254050000Y-148450000D03*
D14*
X259070000Y-147660000D03*
%TD*%
D10*
%TO.C,D39*%
X118120000Y-114350000D03*
D11*
X123200000Y-114350000D03*
D10*
X128280000Y-114350000D03*
D12*
X120046269Y-111081140D03*
D13*
X120700000Y-110350000D03*
D14*
X125720000Y-109560000D03*
%TD*%
D10*
%TO.C,D32*%
X137170000Y-171500000D03*
D11*
X142250000Y-171500000D03*
D10*
X147330000Y-171500000D03*
D12*
X139096269Y-168231140D03*
D13*
X139750000Y-167500000D03*
D14*
X144770000Y-166710000D03*
%TD*%
D10*
%TO.C,D2*%
X289570000Y-133400000D03*
D11*
X294650000Y-133400000D03*
D10*
X299730000Y-133400000D03*
D12*
X291496269Y-130131140D03*
D13*
X292150000Y-129400000D03*
D14*
X297170000Y-128610000D03*
%TD*%
D15*
%TO.C,U17*%
X139596745Y-83631129D03*
X144596745Y-83631129D03*
X142096745Y-83631129D03*
X144596745Y-69131129D03*
X139596745Y-69131129D03*
D16*
X136896745Y-76131129D03*
X147296745Y-76131129D03*
%TD*%
D10*
%TO.C,D31*%
X118120000Y-152450000D03*
D11*
X123200000Y-152450000D03*
D10*
X128280000Y-152450000D03*
D12*
X120046269Y-149181140D03*
D13*
X120700000Y-148450000D03*
D14*
X125720000Y-147660000D03*
%TD*%
D17*
%TO.C,H2*%
X115582171Y9636635D03*
%TD*%
D15*
%TO.C,U41*%
X215817500Y-140750000D03*
X220817500Y-140750000D03*
X218317500Y-140750000D03*
X220817500Y-126250000D03*
X215817500Y-126250000D03*
D16*
X213117500Y-133250000D03*
X223517500Y-133250000D03*
%TD*%
D10*
%TO.C,D27*%
X175270000Y-209600000D03*
D11*
X180350000Y-209600000D03*
D10*
X185430000Y-209600000D03*
D12*
X177196269Y-206331140D03*
D13*
X177850000Y-205600000D03*
D14*
X182870000Y-204810000D03*
%TD*%
D17*
%TO.C,H6*%
X115582171Y1686635D03*
%TD*%
D10*
%TO.C,D7*%
X270520000Y-171500000D03*
D11*
X275600000Y-171500000D03*
D10*
X280680000Y-171500000D03*
D12*
X272446269Y-168231140D03*
D13*
X273100000Y-167500000D03*
D14*
X278120000Y-166710000D03*
%TD*%
D10*
%TO.C,D29*%
X118120000Y-190550000D03*
D11*
X123200000Y-190550000D03*
D10*
X128280000Y-190550000D03*
D12*
X120046269Y-187281140D03*
D13*
X120700000Y-186550000D03*
D14*
X125720000Y-185760000D03*
%TD*%
D15*
%TO.C,U13*%
X177696745Y-140771129D03*
X182696745Y-140771129D03*
X180196745Y-140771129D03*
X182696745Y-126271129D03*
X177696745Y-126271129D03*
D16*
X174996745Y-133271129D03*
X185396745Y-133271129D03*
%TD*%
D15*
%TO.C,U29*%
X253917500Y-140750000D03*
X258917500Y-140750000D03*
X256417500Y-140750000D03*
X258917500Y-126250000D03*
X253917500Y-126250000D03*
D16*
X251217500Y-133250000D03*
X261617500Y-133250000D03*
%TD*%
D17*
%TO.C,H5*%
X212600000Y-118900000D03*
%TD*%
D10*
%TO.C,D8*%
X270520000Y-190550000D03*
D11*
X275600000Y-190550000D03*
D10*
X280680000Y-190550000D03*
D12*
X272446269Y-187281140D03*
D13*
X273100000Y-186550000D03*
D14*
X278120000Y-185760000D03*
%TD*%
D15*
%TO.C,U5*%
X158884840Y-112439224D03*
X163884840Y-112439224D03*
X161384840Y-112439224D03*
X163884840Y-97939224D03*
X158884840Y-97939224D03*
D16*
X156184840Y-104939224D03*
X166584840Y-104939224D03*
%TD*%
D10*
%TO.C,D15*%
X232420000Y-171500000D03*
D11*
X237500000Y-171500000D03*
D10*
X242580000Y-171500000D03*
D12*
X234346269Y-168231140D03*
D13*
X235000000Y-167500000D03*
D14*
X240020000Y-166710000D03*
%TD*%
D15*
%TO.C,U49*%
X272993280Y-112201129D03*
X277993280Y-112201129D03*
X275493280Y-112201129D03*
X277993280Y-97701129D03*
X272993280Y-97701129D03*
D16*
X270293280Y-104701129D03*
X280693280Y-104701129D03*
%TD*%
D10*
%TO.C,D44*%
X137170000Y-152450000D03*
D11*
X142250000Y-152450000D03*
D10*
X147330000Y-152450000D03*
D12*
X139096269Y-149181140D03*
D13*
X139750000Y-148450000D03*
D14*
X144770000Y-147660000D03*
%TD*%
D10*
%TO.C,D30*%
X118120000Y-209600000D03*
D11*
X123200000Y-209600000D03*
D10*
X128280000Y-209600000D03*
D12*
X120046269Y-206331140D03*
D13*
X120700000Y-205600000D03*
D14*
X125720000Y-204810000D03*
%TD*%
D15*
%TO.C,U25*%
X252722769Y-83631129D03*
X257722769Y-83631129D03*
X255222769Y-83631129D03*
X257722769Y-69131129D03*
X252722769Y-69131129D03*
D16*
X250022769Y-76131129D03*
X260422769Y-76131129D03*
%TD*%
D10*
%TO.C,D16*%
X232420000Y-190550000D03*
D11*
X237500000Y-190550000D03*
D10*
X242580000Y-190550000D03*
D12*
X234346269Y-187281140D03*
D13*
X235000000Y-186550000D03*
D14*
X240020000Y-185760000D03*
%TD*%
D10*
%TO.C,D14*%
X251470000Y-209600000D03*
D11*
X256550000Y-209600000D03*
D10*
X261630000Y-209600000D03*
D12*
X253396269Y-206331140D03*
D13*
X254050000Y-205600000D03*
D14*
X259070000Y-204810000D03*
%TD*%
D10*
%TO.C,D22*%
X156220000Y-171500000D03*
D11*
X161300000Y-171500000D03*
D10*
X166380000Y-171500000D03*
D12*
X158146269Y-168231140D03*
D13*
X158800000Y-167500000D03*
D14*
X163820000Y-166710000D03*
%TD*%
D17*
%TO.C,H3*%
X291283723Y-43059078D03*
%TD*%
D15*
%TO.C,U33*%
X234846745Y-112201129D03*
X239846745Y-112201129D03*
X237346745Y-112201129D03*
X239846745Y-97701129D03*
X234846745Y-97701129D03*
D16*
X232146745Y-104701129D03*
X242546745Y-104701129D03*
%TD*%
D10*
%TO.C,D35*%
X270520000Y-152450000D03*
D11*
X275600000Y-152450000D03*
D10*
X280680000Y-152450000D03*
D12*
X272446269Y-149181140D03*
D13*
X273100000Y-148450000D03*
D14*
X278120000Y-147660000D03*
%TD*%
D18*
%TO.C,U7*%
X169892340Y-110814224D03*
X169892340Y-108814224D03*
X169892340Y-112814224D03*
%TD*%
D19*
%TO.C,R83*%
X213850000Y-145900000D03*
X216950000Y-145900000D03*
%TD*%
D20*
%TO.C,C6*%
X177666745Y-80106129D03*
X174541745Y-80106129D03*
%TD*%
D19*
%TO.C,R77*%
X134515000Y-165450000D03*
X137615000Y-165450000D03*
%TD*%
%TO.C,R3*%
X286915000Y-146400000D03*
X290015000Y-146400000D03*
%TD*%
D18*
%TO.C,U22*%
X190854245Y-102376129D03*
X190854245Y-104376129D03*
X190854245Y-100376129D03*
%TD*%
D21*
%TO.C,R9*%
X147250000Y-140450000D03*
X147250000Y-137350000D03*
%TD*%
D20*
%TO.C,C27*%
X283363280Y-97701129D03*
X280238280Y-97701129D03*
%TD*%
D22*
%TO.C,R92*%
X211183918Y-83006129D03*
X208083918Y-83006129D03*
%TD*%
%TO.C,R90*%
X215183918Y-72106129D03*
X212083918Y-72106129D03*
%TD*%
D19*
%TO.C,R81*%
X248815000Y-146400000D03*
X251915000Y-146400000D03*
%TD*%
D18*
%TO.C,U16*%
X173704245Y-143046129D03*
X175704245Y-143046129D03*
X171704245Y-143046129D03*
%TD*%
D19*
%TO.C,R52*%
X153565000Y-165450000D03*
X156665000Y-165450000D03*
%TD*%
%TO.C,R68*%
X115465000Y-165450000D03*
X118565000Y-165450000D03*
%TD*%
D20*
%TO.C,C22*%
X215787500Y-137225000D03*
X212662500Y-137225000D03*
%TD*%
D19*
%TO.C,R76*%
X242104245Y-100776129D03*
X245204245Y-100776129D03*
%TD*%
D23*
%TO.C,U47*%
X169775000Y-173955000D03*
X169775000Y-175225000D03*
X169775000Y-176495000D03*
X169775000Y-177765000D03*
X169775000Y-179035000D03*
X169775000Y-180305000D03*
X169775000Y-181575000D03*
X169775000Y-182845000D03*
X164825000Y-182845000D03*
X164825000Y-181575000D03*
X164825000Y-180305000D03*
X164825000Y-179035000D03*
X164825000Y-177765000D03*
X164825000Y-176495000D03*
X164825000Y-175225000D03*
X164825000Y-173955000D03*
%TD*%
D22*
%TO.C,R107*%
X274250780Y-100676129D03*
X271150780Y-100676129D03*
%TD*%
D18*
%TO.C,U23*%
X207754245Y-110576129D03*
X207754245Y-108576129D03*
X207754245Y-112576129D03*
%TD*%
D20*
%TO.C,C11*%
X149966745Y-69131129D03*
X146841745Y-69131129D03*
%TD*%
D19*
%TO.C,R22*%
X248815000Y-165450000D03*
X251915000Y-165450000D03*
%TD*%
%TO.C,R37*%
X184954245Y-129346129D03*
X188054245Y-129346129D03*
%TD*%
%TO.C,R2*%
X286915000Y-127350000D03*
X290015000Y-127350000D03*
%TD*%
D20*
%TO.C,C9*%
X188066745Y-126271129D03*
X184941745Y-126271129D03*
%TD*%
D19*
%TO.C,R5*%
X286915000Y-184500000D03*
X290015000Y-184500000D03*
%TD*%
D22*
%TO.C,R48*%
X198004245Y-100676129D03*
X194904245Y-100676129D03*
%TD*%
D19*
%TO.C,R89*%
X153565000Y-146400000D03*
X156665000Y-146400000D03*
%TD*%
D18*
%TO.C,U27*%
X263730269Y-82006129D03*
X263730269Y-80006129D03*
X263730269Y-84006129D03*
%TD*%
%TO.C,U38*%
X208033918Y-73806129D03*
X208033918Y-75806129D03*
X208033918Y-71806129D03*
%TD*%
D19*
%TO.C,R39*%
X191665000Y-203550000D03*
X194765000Y-203550000D03*
%TD*%
%TO.C,R60*%
X172615000Y-165450000D03*
X175715000Y-165450000D03*
%TD*%
D20*
%TO.C,C18*%
X234816745Y-108676129D03*
X231691745Y-108676129D03*
%TD*%
D23*
%TO.C,U48*%
X131475000Y-174155000D03*
X131475000Y-175425000D03*
X131475000Y-176695000D03*
X131475000Y-177965000D03*
X131475000Y-179235000D03*
X131475000Y-180505000D03*
X131475000Y-181775000D03*
X131475000Y-183045000D03*
X126525000Y-183045000D03*
X126525000Y-181775000D03*
X126525000Y-180505000D03*
X126525000Y-179235000D03*
X126525000Y-177965000D03*
X126525000Y-176695000D03*
X126525000Y-175425000D03*
X126525000Y-174155000D03*
%TD*%
D20*
%TO.C,C5*%
X169254840Y-97939224D03*
X166129840Y-97939224D03*
%TD*%
D21*
%TO.C,R91*%
X221533918Y-83256129D03*
X221533918Y-80156129D03*
%TD*%
D18*
%TO.C,U51*%
X284000780Y-110576129D03*
X284000780Y-108576129D03*
X284000780Y-112576129D03*
%TD*%
D19*
%TO.C,R26*%
X229765000Y-184500000D03*
X232865000Y-184500000D03*
%TD*%
%TO.C,R105*%
X223075000Y-129325000D03*
X226175000Y-129325000D03*
%TD*%
D18*
%TO.C,U18*%
X133704245Y-73806129D03*
X133704245Y-75806129D03*
X133704245Y-71806129D03*
%TD*%
D19*
%TO.C,R85*%
X191665000Y-146400000D03*
X194765000Y-146400000D03*
%TD*%
D20*
%TO.C,C14*%
X252692769Y-80106129D03*
X249567769Y-80106129D03*
%TD*%
D24*
%TO.C,U42*%
X284912500Y-55350000D03*
X284912500Y-54400000D03*
X284912500Y-53450000D03*
X287187500Y-53450000D03*
X287187500Y-54400000D03*
X287187500Y-55350000D03*
%TD*%
D18*
%TO.C,U44*%
X209925000Y-130925000D03*
X209925000Y-132925000D03*
X209925000Y-128925000D03*
%TD*%
%TO.C,U36*%
X230854245Y-114476129D03*
X232854245Y-114476129D03*
X228854245Y-114476129D03*
%TD*%
D22*
%TO.C,R41*%
X140854245Y-72106129D03*
X137754245Y-72106129D03*
%TD*%
%TO.C,R33*%
X175454245Y-126271129D03*
X172354245Y-126271129D03*
%TD*%
D23*
%TO.C,U54*%
X221675000Y-101555000D03*
X221675000Y-102825000D03*
X221675000Y-104095000D03*
X221675000Y-105365000D03*
X221675000Y-106635000D03*
X221675000Y-107905000D03*
X221675000Y-109175000D03*
X221675000Y-110445000D03*
X216725000Y-110445000D03*
X216725000Y-109175000D03*
X216725000Y-107905000D03*
X216725000Y-106635000D03*
X216725000Y-105365000D03*
X216725000Y-104095000D03*
X216725000Y-102825000D03*
X216725000Y-101555000D03*
%TD*%
D18*
%TO.C,U35*%
X245854245Y-110576129D03*
X245854245Y-108576129D03*
X245854245Y-112576129D03*
%TD*%
D19*
%TO.C,R86*%
X115465000Y-127350000D03*
X118565000Y-127350000D03*
%TD*%
D21*
%TO.C,R49*%
X204354245Y-111826129D03*
X204354245Y-108726129D03*
%TD*%
D19*
%TO.C,R51*%
X204004245Y-100776129D03*
X207104245Y-100776129D03*
%TD*%
D22*
%TO.C,R88*%
X211683918Y-69131129D03*
X208583918Y-69131129D03*
%TD*%
%TO.C,R36*%
X174954245Y-140146129D03*
X171854245Y-140146129D03*
%TD*%
D19*
%TO.C,R100*%
X134515000Y-146400000D03*
X137615000Y-146400000D03*
%TD*%
D21*
%TO.C,R65*%
X261525000Y-140375000D03*
X261525000Y-137275000D03*
%TD*%
D18*
%TO.C,U45*%
X226825000Y-139125000D03*
X226825000Y-137125000D03*
X226825000Y-141125000D03*
%TD*%
%TO.C,U8*%
X154892340Y-114714224D03*
X156892340Y-114714224D03*
X152892340Y-114714224D03*
%TD*%
D19*
%TO.C,R62*%
X172615000Y-203550000D03*
X175715000Y-203550000D03*
%TD*%
%TO.C,R23*%
X248815000Y-184500000D03*
X251915000Y-184500000D03*
%TD*%
D22*
%TO.C,R7*%
X137400000Y-126325000D03*
X134300000Y-126325000D03*
%TD*%
D21*
%TO.C,R108*%
X280600780Y-111826129D03*
X280600780Y-108726129D03*
%TD*%
D18*
%TO.C,U46*%
X214800000Y-143900000D03*
X216800000Y-143900000D03*
X212800000Y-143900000D03*
%TD*%
D19*
%TO.C,R54*%
X153565000Y-203550000D03*
X156665000Y-203550000D03*
%TD*%
%TO.C,R45*%
X210715000Y-184500000D03*
X213815000Y-184500000D03*
%TD*%
D22*
%TO.C,R31*%
X174954245Y-83006129D03*
X171854245Y-83006129D03*
%TD*%
D19*
%TO.C,R24*%
X248815000Y-203550000D03*
X251915000Y-203550000D03*
%TD*%
D22*
%TO.C,R102*%
X217075000Y-129225000D03*
X213975000Y-129225000D03*
%TD*%
D19*
%TO.C,R15*%
X191665000Y-165450000D03*
X194765000Y-165450000D03*
%TD*%
D20*
%TO.C,C26*%
X272963280Y-108676129D03*
X269838280Y-108676129D03*
%TD*%
D22*
%TO.C,R40*%
X137354245Y-69131129D03*
X134254245Y-69131129D03*
%TD*%
D25*
%TO.C,C32*%
X252637500Y-99062500D03*
X252637500Y-95937500D03*
%TD*%
D18*
%TO.C,U40*%
X209933918Y-85906129D03*
X211933918Y-85906129D03*
X207933918Y-85906129D03*
%TD*%
D19*
%TO.C,R32*%
X184954245Y-72206129D03*
X188054245Y-72206129D03*
%TD*%
D23*
%TO.C,U59*%
X163775000Y-82425099D03*
X163775000Y-83695099D03*
X163775000Y-84965099D03*
X163775000Y-86235099D03*
X163775000Y-87505099D03*
X163775000Y-88775099D03*
X163775000Y-90045099D03*
X163775000Y-91315099D03*
X158825000Y-91315099D03*
X158825000Y-90045099D03*
X158825000Y-88775099D03*
X158825000Y-87505099D03*
X158825000Y-86235099D03*
X158825000Y-84965099D03*
X158825000Y-83695099D03*
X158825000Y-82425099D03*
%TD*%
D18*
%TO.C,U2*%
X133750000Y-131000000D03*
X133750000Y-133000000D03*
X133750000Y-129000000D03*
%TD*%
D20*
%TO.C,C16*%
X253887500Y-137225000D03*
X250762500Y-137225000D03*
%TD*%
D19*
%TO.C,R53*%
X153565000Y-184500000D03*
X156665000Y-184500000D03*
%TD*%
D21*
%TO.C,R30*%
X185304245Y-83256129D03*
X185304245Y-80156129D03*
%TD*%
D19*
%TO.C,R82*%
X229765000Y-146400000D03*
X232865000Y-146400000D03*
%TD*%
D22*
%TO.C,R47*%
X194504245Y-97701129D03*
X191404245Y-97701129D03*
%TD*%
D19*
%TO.C,R44*%
X146854245Y-72206129D03*
X149954245Y-72206129D03*
%TD*%
D25*
%TO.C,C29*%
X282400000Y-168062500D03*
X282400000Y-164937500D03*
%TD*%
%TO.C,C24*%
X244200000Y-167962500D03*
X244200000Y-164837500D03*
%TD*%
D18*
%TO.C,U24*%
X192754245Y-114476129D03*
X194754245Y-114476129D03*
X190754245Y-114476129D03*
%TD*%
D22*
%TO.C,R72*%
X232604245Y-97701129D03*
X229504245Y-97701129D03*
%TD*%
D18*
%TO.C,U4*%
X135650000Y-143100000D03*
X137650000Y-143100000D03*
X133650000Y-143100000D03*
%TD*%
D19*
%TO.C,R38*%
X210715000Y-165450000D03*
X213815000Y-165450000D03*
%TD*%
D18*
%TO.C,U26*%
X246830269Y-73806129D03*
X246830269Y-75806129D03*
X246830269Y-71806129D03*
%TD*%
D22*
%TO.C,R94*%
X213575000Y-126250000D03*
X210475000Y-126250000D03*
%TD*%
D18*
%TO.C,U20*%
X135604245Y-85906129D03*
X137604245Y-85906129D03*
X133604245Y-85906129D03*
%TD*%
D22*
%TO.C,R17*%
X156642340Y-97939224D03*
X153542340Y-97939224D03*
%TD*%
D19*
%TO.C,R87*%
X172615000Y-146400000D03*
X175715000Y-146400000D03*
%TD*%
D23*
%TO.C,U53*%
X282575000Y-174155000D03*
X282575000Y-175425000D03*
X282575000Y-176695000D03*
X282575000Y-177965000D03*
X282575000Y-179235000D03*
X282575000Y-180505000D03*
X282575000Y-181775000D03*
X282575000Y-183045000D03*
X277625000Y-183045000D03*
X277625000Y-181775000D03*
X277625000Y-180505000D03*
X277625000Y-179235000D03*
X277625000Y-177965000D03*
X277625000Y-176695000D03*
X277625000Y-175425000D03*
X277625000Y-174155000D03*
%TD*%
D19*
%TO.C,R79*%
X134515000Y-203550000D03*
X137615000Y-203550000D03*
%TD*%
D22*
%TO.C,R104*%
X213075000Y-140125000D03*
X209975000Y-140125000D03*
%TD*%
D18*
%TO.C,U32*%
X249925000Y-143025000D03*
X251925000Y-143025000D03*
X247925000Y-143025000D03*
%TD*%
D22*
%TO.C,R29*%
X178954245Y-72106129D03*
X175854245Y-72106129D03*
%TD*%
D21*
%TO.C,R42*%
X147204245Y-83256129D03*
X147204245Y-80156129D03*
%TD*%
D19*
%TO.C,R25*%
X229765000Y-165450000D03*
X232865000Y-165450000D03*
%TD*%
D18*
%TO.C,U6*%
X152992340Y-102614224D03*
X152992340Y-104614224D03*
X152992340Y-100614224D03*
%TD*%
D25*
%TO.C,C28*%
X129000000Y-168862500D03*
X129000000Y-165737500D03*
%TD*%
D22*
%TO.C,R63*%
X251675000Y-126250000D03*
X248575000Y-126250000D03*
%TD*%
D25*
%TO.C,C31*%
X138037500Y-105662500D03*
X138037500Y-102537500D03*
%TD*%
D20*
%TO.C,C2*%
X139612500Y-137300000D03*
X136487500Y-137300000D03*
%TD*%
D18*
%TO.C,U52*%
X269000780Y-114476129D03*
X271000780Y-114476129D03*
X267000780Y-114476129D03*
%TD*%
D25*
%TO.C,C33*%
X205400000Y-168062500D03*
X205400000Y-164937500D03*
%TD*%
D19*
%TO.C,R110*%
X280250780Y-100776129D03*
X283350780Y-100776129D03*
%TD*%
D22*
%TO.C,R20*%
X156142340Y-111814224D03*
X153042340Y-111814224D03*
%TD*%
%TO.C,R55*%
X250480269Y-69131129D03*
X247380269Y-69131129D03*
%TD*%
D19*
%TO.C,R93*%
X221183918Y-72206129D03*
X224283918Y-72206129D03*
%TD*%
%TO.C,R6*%
X286915000Y-203550000D03*
X290015000Y-203550000D03*
%TD*%
D20*
%TO.C,C3*%
X150012500Y-126325000D03*
X146887500Y-126325000D03*
%TD*%
D23*
%TO.C,U56*%
X259025000Y-101555000D03*
X259025000Y-102825000D03*
X259025000Y-104095000D03*
X259025000Y-105365000D03*
X259025000Y-106635000D03*
X259025000Y-107905000D03*
X259025000Y-109175000D03*
X259025000Y-110445000D03*
X254075000Y-110445000D03*
X254075000Y-109175000D03*
X254075000Y-107905000D03*
X254075000Y-106635000D03*
X254075000Y-105365000D03*
X254075000Y-104095000D03*
X254075000Y-102825000D03*
X254075000Y-101555000D03*
%TD*%
D22*
%TO.C,R97*%
X287600000Y-68900000D03*
X284500000Y-68900000D03*
%TD*%
D19*
%TO.C,R67*%
X261175000Y-129325000D03*
X264275000Y-129325000D03*
%TD*%
D21*
%TO.C,R19*%
X166492340Y-112064224D03*
X166492340Y-108964224D03*
%TD*%
D19*
%TO.C,R71*%
X115465000Y-146400000D03*
X118565000Y-146400000D03*
%TD*%
D21*
%TO.C,R74*%
X242454245Y-111826129D03*
X242454245Y-108726129D03*
%TD*%
D22*
%TO.C,R73*%
X236104245Y-100676129D03*
X233004245Y-100676129D03*
%TD*%
D18*
%TO.C,U31*%
X264925000Y-139125000D03*
X264925000Y-137125000D03*
X264925000Y-141125000D03*
%TD*%
D19*
%TO.C,R11*%
X146900000Y-129400000D03*
X150000000Y-129400000D03*
%TD*%
D20*
%TO.C,C21*%
X224296418Y-69131129D03*
X221171418Y-69131129D03*
%TD*%
D19*
%TO.C,R21*%
X166142340Y-101014224D03*
X169242340Y-101014224D03*
%TD*%
%TO.C,R14*%
X267865000Y-203550000D03*
X270965000Y-203550000D03*
%TD*%
D23*
%TO.C,U57*%
X207775000Y-174155000D03*
X207775000Y-175425000D03*
X207775000Y-176695000D03*
X207775000Y-177965000D03*
X207775000Y-179235000D03*
X207775000Y-180505000D03*
X207775000Y-181775000D03*
X207775000Y-183045000D03*
X202825000Y-183045000D03*
X202825000Y-181775000D03*
X202825000Y-180505000D03*
X202825000Y-179235000D03*
X202825000Y-177965000D03*
X202825000Y-176695000D03*
X202825000Y-175425000D03*
X202825000Y-174155000D03*
%TD*%
D18*
%TO.C,U3*%
X150650000Y-139200000D03*
X150650000Y-137200000D03*
X150650000Y-141200000D03*
%TD*%
D21*
%TO.C,R57*%
X260330269Y-83256129D03*
X260330269Y-80156129D03*
%TD*%
D20*
%TO.C,C4*%
X158854840Y-108914224D03*
X155729840Y-108914224D03*
%TD*%
%TO.C,C23*%
X226187500Y-126250000D03*
X223062500Y-126250000D03*
%TD*%
%TO.C,C8*%
X177666745Y-137246129D03*
X174541745Y-137246129D03*
%TD*%
D19*
%TO.C,R61*%
X172615000Y-184500000D03*
X175715000Y-184500000D03*
%TD*%
D22*
%TO.C,R58*%
X249980269Y-83006129D03*
X246880269Y-83006129D03*
%TD*%
D19*
%TO.C,R1*%
X286915000Y-108300000D03*
X290015000Y-108300000D03*
%TD*%
D18*
%TO.C,U19*%
X150604245Y-82006129D03*
X150604245Y-80006129D03*
X150604245Y-84006129D03*
%TD*%
D19*
%TO.C,R16*%
X191665000Y-184500000D03*
X194765000Y-184500000D03*
%TD*%
%TO.C,R80*%
X267865000Y-146400000D03*
X270965000Y-146400000D03*
%TD*%
D25*
%TO.C,C30*%
X216000000Y-98862500D03*
X216000000Y-95737500D03*
%TD*%
D22*
%TO.C,R66*%
X251175000Y-140125000D03*
X248075000Y-140125000D03*
%TD*%
D19*
%TO.C,R78*%
X134515000Y-184500000D03*
X137615000Y-184500000D03*
%TD*%
D18*
%TO.C,U10*%
X171804245Y-73806129D03*
X171804245Y-75806129D03*
X171804245Y-71806129D03*
%TD*%
%TO.C,U14*%
X171804245Y-130946129D03*
X171804245Y-132946129D03*
X171804245Y-128946129D03*
%TD*%
D19*
%TO.C,R13*%
X267865000Y-184500000D03*
X270965000Y-184500000D03*
%TD*%
D18*
%TO.C,U34*%
X228954245Y-102376129D03*
X228954245Y-104376129D03*
X228954245Y-100376129D03*
%TD*%
D20*
%TO.C,C7*%
X188066745Y-69131129D03*
X184941745Y-69131129D03*
%TD*%
D19*
%TO.C,R70*%
X115465000Y-203550000D03*
X118565000Y-203550000D03*
%TD*%
D21*
%TO.C,R35*%
X185304245Y-140396129D03*
X185304245Y-137296129D03*
%TD*%
D19*
%TO.C,R46*%
X210715000Y-203550000D03*
X213815000Y-203550000D03*
%TD*%
D18*
%TO.C,U39*%
X224933918Y-82006129D03*
X224933918Y-80006129D03*
X224933918Y-84006129D03*
%TD*%
D26*
%TO.C,Q1*%
X287200000Y-65537500D03*
X285300000Y-65537500D03*
X286250000Y-63662500D03*
%TD*%
D20*
%TO.C,C17*%
X264287500Y-126250000D03*
X261162500Y-126250000D03*
%TD*%
D18*
%TO.C,U30*%
X248025000Y-130925000D03*
X248025000Y-132925000D03*
X248025000Y-128925000D03*
%TD*%
D20*
%TO.C,C15*%
X263092769Y-69131129D03*
X259967769Y-69131129D03*
%TD*%
D22*
%TO.C,R109*%
X270250780Y-111576129D03*
X267150780Y-111576129D03*
%TD*%
D21*
%TO.C,R103*%
X223425000Y-140375000D03*
X223425000Y-137275000D03*
%TD*%
D19*
%TO.C,R69*%
X115465000Y-184500000D03*
X118565000Y-184500000D03*
%TD*%
%TO.C,R27*%
X229765000Y-203550000D03*
X232865000Y-203550000D03*
%TD*%
D22*
%TO.C,R50*%
X194004245Y-111576129D03*
X190904245Y-111576129D03*
%TD*%
%TO.C,R10*%
X136900000Y-140200000D03*
X133800000Y-140200000D03*
%TD*%
D18*
%TO.C,U11*%
X188704245Y-82006129D03*
X188704245Y-80006129D03*
X188704245Y-84006129D03*
%TD*%
%TO.C,U15*%
X188704245Y-139146129D03*
X188704245Y-137146129D03*
X188704245Y-141146129D03*
%TD*%
D25*
%TO.C,C35*%
X158800000Y-80262500D03*
X158800000Y-77137500D03*
%TD*%
D22*
%TO.C,R18*%
X160142340Y-100914224D03*
X157042340Y-100914224D03*
%TD*%
%TO.C,R64*%
X255175000Y-129225000D03*
X252075000Y-129225000D03*
%TD*%
D19*
%TO.C,R59*%
X259980269Y-72206129D03*
X263080269Y-72206129D03*
%TD*%
D22*
%TO.C,R106*%
X270750780Y-97701129D03*
X267650780Y-97701129D03*
%TD*%
%TO.C,R28*%
X175454245Y-69131129D03*
X172354245Y-69131129D03*
%TD*%
%TO.C,R34*%
X178954245Y-129246129D03*
X175854245Y-129246129D03*
%TD*%
D19*
%TO.C,R12*%
X267865000Y-165450000D03*
X270965000Y-165450000D03*
%TD*%
D27*
%TO.C,R95*%
X292700000Y-61250000D03*
X292700000Y-64350000D03*
%TD*%
D23*
%TO.C,U43*%
X245675000Y-174155000D03*
X245675000Y-175425000D03*
X245675000Y-176695000D03*
X245675000Y-177965000D03*
X245675000Y-179235000D03*
X245675000Y-180505000D03*
X245675000Y-181775000D03*
X245675000Y-183045000D03*
X240725000Y-183045000D03*
X240725000Y-181775000D03*
X240725000Y-180505000D03*
X240725000Y-179235000D03*
X240725000Y-177965000D03*
X240725000Y-176695000D03*
X240725000Y-175425000D03*
X240725000Y-174155000D03*
%TD*%
D18*
%TO.C,U50*%
X267100780Y-102376129D03*
X267100780Y-104376129D03*
X267100780Y-100376129D03*
%TD*%
D22*
%TO.C,R75*%
X232104245Y-111576129D03*
X229004245Y-111576129D03*
%TD*%
%TO.C,R56*%
X253980269Y-72106129D03*
X250880269Y-72106129D03*
%TD*%
D18*
%TO.C,U28*%
X248730269Y-85906129D03*
X250730269Y-85906129D03*
X246730269Y-85906129D03*
%TD*%
%TO.C,U12*%
X173704245Y-85906129D03*
X175704245Y-85906129D03*
X171704245Y-85906129D03*
%TD*%
D20*
%TO.C,C13*%
X207116745Y-97701129D03*
X203991745Y-97701129D03*
%TD*%
D19*
%TO.C,R99*%
X284400000Y-60200000D03*
X287500000Y-60200000D03*
%TD*%
%TO.C,R84*%
X115465000Y-108300000D03*
X118565000Y-108300000D03*
%TD*%
D28*
%TO.C,C1*%
X132575448Y-43400000D03*
X140575448Y-43400000D03*
%TD*%
D19*
%TO.C,R4*%
X286915000Y-165450000D03*
X290015000Y-165450000D03*
%TD*%
D20*
%TO.C,C10*%
X139566745Y-80106129D03*
X136441745Y-80106129D03*
%TD*%
D23*
%TO.C,U55*%
X144575000Y-109992500D03*
X144575000Y-111262500D03*
X144575000Y-112532500D03*
X144575000Y-113802500D03*
X144575000Y-115072500D03*
X144575000Y-116342500D03*
X144575000Y-117612500D03*
X144575000Y-118882500D03*
X139625000Y-118882500D03*
X139625000Y-117612500D03*
X139625000Y-116342500D03*
X139625000Y-115072500D03*
X139625000Y-113802500D03*
X139625000Y-112532500D03*
X139625000Y-111262500D03*
X139625000Y-109992500D03*
%TD*%
D29*
%TO.C,IC1*%
X182100000Y-35100000D03*
D30*
X184640000Y-35100000D03*
X187180000Y-35100000D03*
X189720000Y-35100000D03*
X192260000Y-35100000D03*
X194800000Y-35100000D03*
X197340000Y-35100000D03*
X199880000Y-35100000D03*
X202420000Y-35100000D03*
X204960000Y-35100000D03*
X207500000Y-35100000D03*
X210040000Y-35100000D03*
X212580000Y-35100000D03*
X215120000Y-35100000D03*
X217660000Y-35100000D03*
X220200000Y-35100000D03*
X222740000Y-35100000D03*
X225280000Y-35100000D03*
X227820000Y-35100000D03*
X230360000Y-35100000D03*
X232900000Y-35100000D03*
X235440000Y-35100000D03*
X235440000Y-58100000D03*
X232900000Y-58100000D03*
X230360000Y-58100000D03*
X227820000Y-58100000D03*
X225280000Y-58100000D03*
X222740000Y-58100000D03*
X220200000Y-58100000D03*
X217660000Y-58100000D03*
X215120000Y-58100000D03*
X212580000Y-58100000D03*
X210040000Y-58100000D03*
X207500000Y-58100000D03*
X204960000Y-58100000D03*
X202420000Y-58100000D03*
X199880000Y-58100000D03*
X197340000Y-58100000D03*
X194800000Y-58100000D03*
X192260000Y-58100000D03*
X189720000Y-58100000D03*
X187180000Y-58100000D03*
X184640000Y-58100000D03*
X182100000Y-58100000D03*
%TD*%
D22*
%TO.C,R43*%
X136854245Y-83006129D03*
X133754245Y-83006129D03*
%TD*%
%TO.C,R8*%
X140900000Y-129300000D03*
X137800000Y-129300000D03*
%TD*%
D25*
%TO.C,C25*%
X167100000Y-168362500D03*
X167100000Y-165237500D03*
%TD*%
D20*
%TO.C,C12*%
X196716745Y-108676129D03*
X193591745Y-108676129D03*
%TD*%
%TO.C,C20*%
X213896418Y-80106129D03*
X210771418Y-80106129D03*
%TD*%
%TO.C,C19*%
X245216745Y-97701129D03*
X242091745Y-97701129D03*
%TD*%
M02*
