%TF.GenerationSoftware,KiCad,Pcbnew,9.0.7*%
%TF.CreationDate,2026-03-08T01:02:54+02:00*%
%TF.ProjectId,motion_pcb,6d6f7469-6f6e-45f7-9063-622e6b696361,rev?*%
%TF.SameCoordinates,Original*%
%TF.FileFunction,Soldermask,Top*%
%TF.FilePolarity,Negative*%
%FSLAX46Y46*%
G04 Gerber Fmt 4.6, Leading zero omitted, Abs format (unit mm)*
G04 Created by KiCad (PCBNEW 9.0.7) date 2026-03-08 01:02:54*
%MOMM*%
%LPD*%
G01*
G04 APERTURE LIST*
G04 Aperture macros list*
%AMHorizOval*
0 Thick line with rounded ends*
0 $1 width*
0 $2 $3 position (X,Y) of the first rounded end (center of the circle)*
0 $4 $5 position (X,Y) of the second rounded end (center of the circle)*
0 Add line between two ends*
20,1,$1,$2,$3,$4,$5,0*
0 Add two circle primitives to create the rounded ends*
1,1,$1,$2,$3*
1,1,$1,$4,$5*%
G04 Aperture macros list end*
%ADD10C,1.750000*%
%ADD11C,4.000000*%
%ADD12R,0.700000X0.700000*%
%ADD13HorizOval,2.500000X0.656270X0.728862X-0.656270X-0.728862X0*%
%ADD14C,2.500000*%
%ADD15HorizOval,2.800000X0.017439X0.249391X-0.017439X-0.249391X0*%
%ADD16C,1.900000*%
%ADD17R,3.000000X4.000000*%
%ADD18C,3.200000*%
%ADD19C,1.400000*%
%ADD20R,1.700000X1.700000*%
%ADD21C,1.700000*%
G04 APERTURE END LIST*
D10*
%TO.C,D6*%
X289570000Y-209600000D03*
D11*
X294650000Y-209600000D03*
D10*
X299730000Y-209600000D03*
D12*
X293720000Y-214050000D03*
X293720000Y-215150000D03*
X295550000Y-215150000D03*
X295550000Y-214050000D03*
D13*
X291496269Y-206331140D03*
D14*
X292150000Y-205600000D03*
D15*
X297170000Y-204810000D03*
%TD*%
D16*
%TO.C,U37*%
X213926418Y-83631129D03*
X218926418Y-83631129D03*
X216426418Y-83631129D03*
X218926418Y-69131129D03*
X213926418Y-69131129D03*
D17*
X211226418Y-76131129D03*
X221626418Y-76131129D03*
%TD*%
D10*
%TO.C,D25*%
X175270000Y-171500000D03*
D11*
X180350000Y-171500000D03*
D10*
X185430000Y-171500000D03*
D12*
X179420000Y-175950000D03*
X179420000Y-177050000D03*
X181250000Y-177050000D03*
X181250000Y-175950000D03*
D13*
X177196269Y-168231140D03*
D14*
X177850000Y-167500000D03*
D15*
X182870000Y-166710000D03*
%TD*%
D10*
%TO.C,D17*%
X232420000Y-209600000D03*
D11*
X237500000Y-209600000D03*
D10*
X242580000Y-209600000D03*
D12*
X236570000Y-214050000D03*
X236570000Y-215150000D03*
X238400000Y-215150000D03*
X238400000Y-214050000D03*
D13*
X234346269Y-206331140D03*
D14*
X235000000Y-205600000D03*
D15*
X240020000Y-204810000D03*
%TD*%
D10*
%TO.C,D28*%
X118120000Y-171500000D03*
D11*
X123200000Y-171500000D03*
D10*
X128280000Y-171500000D03*
D12*
X122270000Y-175950000D03*
X122270000Y-177050000D03*
X124100000Y-177050000D03*
X124100000Y-175950000D03*
D13*
X120046269Y-168231140D03*
D14*
X120700000Y-167500000D03*
D15*
X125720000Y-166710000D03*
%TD*%
D10*
%TO.C,D20*%
X213370000Y-190550000D03*
D11*
X218450000Y-190550000D03*
D10*
X223530000Y-190550000D03*
D12*
X217520000Y-195000000D03*
X217520000Y-196100000D03*
X219350000Y-196100000D03*
X219350000Y-195000000D03*
D13*
X215296269Y-187281140D03*
D14*
X215950000Y-186550000D03*
D15*
X220970000Y-185760000D03*
%TD*%
D10*
%TO.C,D33*%
X137170000Y-190550000D03*
D11*
X142250000Y-190550000D03*
D10*
X147330000Y-190550000D03*
D12*
X141320000Y-195000000D03*
X141320000Y-196100000D03*
X143150000Y-196100000D03*
X143150000Y-195000000D03*
D13*
X139096269Y-187281140D03*
D14*
X139750000Y-186550000D03*
D15*
X144770000Y-185760000D03*
%TD*%
D10*
%TO.C,D12*%
X251470000Y-171500000D03*
D11*
X256550000Y-171500000D03*
D10*
X261630000Y-171500000D03*
D12*
X255620000Y-175950000D03*
X255620000Y-177050000D03*
X257450000Y-177050000D03*
X257450000Y-175950000D03*
D13*
X253396269Y-168231140D03*
D14*
X254050000Y-167500000D03*
D15*
X259070000Y-166710000D03*
%TD*%
D10*
%TO.C,D19*%
X194320000Y-209600000D03*
D11*
X199400000Y-209600000D03*
D10*
X204480000Y-209600000D03*
D12*
X198470000Y-214050000D03*
X198470000Y-215150000D03*
X200300000Y-215150000D03*
X200300000Y-214050000D03*
D13*
X196246269Y-206331140D03*
D14*
X196900000Y-205600000D03*
D15*
X201920000Y-204810000D03*
%TD*%
D16*
%TO.C,U1*%
X139642500Y-140825000D03*
X144642500Y-140825000D03*
X142142500Y-140825000D03*
X144642500Y-126325000D03*
X139642500Y-126325000D03*
D17*
X136942500Y-133325000D03*
X147342500Y-133325000D03*
%TD*%
D10*
%TO.C,D1*%
X289570000Y-114350000D03*
D11*
X294650000Y-114350000D03*
D10*
X299730000Y-114350000D03*
D12*
X293720000Y-118800000D03*
X293720000Y-119900000D03*
X295550000Y-119900000D03*
X295550000Y-118800000D03*
D13*
X291496269Y-111081140D03*
D14*
X292150000Y-110350000D03*
D15*
X297170000Y-109560000D03*
%TD*%
D10*
%TO.C,D10*%
X194320000Y-171500000D03*
D11*
X199400000Y-171500000D03*
D10*
X204480000Y-171500000D03*
D12*
X198470000Y-175950000D03*
X198470000Y-177050000D03*
X200300000Y-177050000D03*
X200300000Y-175950000D03*
D13*
X196246269Y-168231140D03*
D14*
X196900000Y-167500000D03*
D15*
X201920000Y-166710000D03*
%TD*%
D10*
%TO.C,D23*%
X156220000Y-190550000D03*
D11*
X161300000Y-190550000D03*
D10*
X166380000Y-190550000D03*
D12*
X160370000Y-195000000D03*
X160370000Y-196100000D03*
X162200000Y-196100000D03*
X162200000Y-195000000D03*
D13*
X158146269Y-187281140D03*
D14*
X158800000Y-186550000D03*
D15*
X163820000Y-185760000D03*
%TD*%
D16*
%TO.C,U21*%
X196746745Y-112201129D03*
X201746745Y-112201129D03*
X199246745Y-112201129D03*
X201746745Y-97701129D03*
X196746745Y-97701129D03*
D17*
X194046745Y-104701129D03*
X204446745Y-104701129D03*
%TD*%
D10*
%TO.C,D21*%
X213370000Y-209600000D03*
D11*
X218450000Y-209600000D03*
D10*
X223530000Y-209600000D03*
D12*
X217520000Y-214050000D03*
X217520000Y-215150000D03*
X219350000Y-215150000D03*
X219350000Y-214050000D03*
D13*
X215296269Y-206331140D03*
D14*
X215950000Y-205600000D03*
D15*
X220970000Y-204810000D03*
%TD*%
D10*
%TO.C,D43*%
X156220000Y-152450000D03*
D11*
X161300000Y-152450000D03*
D10*
X166380000Y-152450000D03*
D12*
X160370000Y-156900000D03*
X160370000Y-158000000D03*
X162200000Y-158000000D03*
X162200000Y-156900000D03*
D13*
X158146269Y-149181140D03*
D14*
X158800000Y-148450000D03*
D15*
X163820000Y-147660000D03*
%TD*%
D18*
%TO.C,H1*%
X122763757Y-42578583D03*
%TD*%
D10*
%TO.C,D37*%
X232420000Y-152450000D03*
D11*
X237500000Y-152450000D03*
D10*
X242580000Y-152450000D03*
D12*
X236570000Y-156900000D03*
X236570000Y-158000000D03*
X238400000Y-158000000D03*
X238400000Y-156900000D03*
D13*
X234346269Y-149181140D03*
D14*
X235000000Y-148450000D03*
D15*
X240020000Y-147660000D03*
%TD*%
D10*
%TO.C,D4*%
X289570000Y-171500000D03*
D11*
X294650000Y-171500000D03*
D10*
X299730000Y-171500000D03*
D12*
X293720000Y-175950000D03*
X293720000Y-177050000D03*
X295550000Y-177050000D03*
X295550000Y-175950000D03*
D13*
X291496269Y-168231140D03*
D14*
X292150000Y-167500000D03*
D15*
X297170000Y-166710000D03*
%TD*%
D10*
%TO.C,D40*%
X194320000Y-152450000D03*
D11*
X199400000Y-152450000D03*
D10*
X204480000Y-152450000D03*
D12*
X198470000Y-156900000D03*
X198470000Y-158000000D03*
X200300000Y-158000000D03*
X200300000Y-156900000D03*
D13*
X196246269Y-149181140D03*
D14*
X196900000Y-148450000D03*
D15*
X201920000Y-147660000D03*
%TD*%
D10*
%TO.C,D5*%
X289570000Y-190550000D03*
D11*
X294650000Y-190550000D03*
D10*
X299730000Y-190550000D03*
D12*
X293720000Y-195000000D03*
X293720000Y-196100000D03*
X295550000Y-196100000D03*
X295550000Y-195000000D03*
D13*
X291496269Y-187281140D03*
D14*
X292150000Y-186550000D03*
D15*
X297170000Y-185760000D03*
%TD*%
D10*
%TO.C,D38*%
X213370000Y-152450000D03*
D11*
X218450000Y-152450000D03*
D10*
X223530000Y-152450000D03*
D12*
X217520000Y-156900000D03*
X217520000Y-158000000D03*
X219350000Y-158000000D03*
X219350000Y-156900000D03*
D13*
X215296269Y-149181140D03*
D14*
X215950000Y-148450000D03*
D15*
X220970000Y-147660000D03*
%TD*%
D10*
%TO.C,D3*%
X289570000Y-152450000D03*
D11*
X294650000Y-152450000D03*
D10*
X299730000Y-152450000D03*
D12*
X293720000Y-156900000D03*
X293720000Y-158000000D03*
X295550000Y-158000000D03*
X295550000Y-156900000D03*
D13*
X291496269Y-149181140D03*
D14*
X292150000Y-148450000D03*
D15*
X297170000Y-147660000D03*
%TD*%
D16*
%TO.C,U9*%
X177696745Y-83631129D03*
X182696745Y-83631129D03*
X180196745Y-83631129D03*
X182696745Y-69131129D03*
X177696745Y-69131129D03*
D17*
X174996745Y-76131129D03*
X185396745Y-76131129D03*
%TD*%
D18*
%TO.C,H4*%
X371850000Y-50010000D03*
%TD*%
D10*
%TO.C,D26*%
X175270000Y-190550000D03*
D11*
X180350000Y-190550000D03*
D10*
X185430000Y-190550000D03*
D12*
X179420000Y-195000000D03*
X179420000Y-196100000D03*
X181250000Y-196100000D03*
X181250000Y-195000000D03*
D13*
X177196269Y-187281140D03*
D14*
X177850000Y-186550000D03*
D15*
X182870000Y-185760000D03*
%TD*%
D10*
%TO.C,D9*%
X270520000Y-209600000D03*
D11*
X275600000Y-209600000D03*
D10*
X280680000Y-209600000D03*
D12*
X274670000Y-214050000D03*
X274670000Y-215150000D03*
X276500000Y-215150000D03*
X276500000Y-214050000D03*
D13*
X272446269Y-206331140D03*
D14*
X273100000Y-205600000D03*
D15*
X278120000Y-204810000D03*
%TD*%
D10*
%TO.C,D42*%
X175270000Y-152450000D03*
D11*
X180350000Y-152450000D03*
D10*
X185430000Y-152450000D03*
D12*
X179420000Y-156900000D03*
X179420000Y-158000000D03*
X181250000Y-158000000D03*
X181250000Y-156900000D03*
D13*
X177196269Y-149181140D03*
D14*
X177850000Y-148450000D03*
D15*
X182870000Y-147660000D03*
%TD*%
D10*
%TO.C,D41*%
X118120000Y-133400000D03*
D11*
X123200000Y-133400000D03*
D10*
X128280000Y-133400000D03*
D12*
X122270000Y-137850000D03*
X122270000Y-138950000D03*
X124100000Y-138950000D03*
X124100000Y-137850000D03*
D13*
X120046269Y-130131140D03*
D14*
X120700000Y-129400000D03*
D15*
X125720000Y-128610000D03*
%TD*%
D10*
%TO.C,D13*%
X251470000Y-190550000D03*
D11*
X256550000Y-190550000D03*
D10*
X261630000Y-190550000D03*
D12*
X255620000Y-195000000D03*
X255620000Y-196100000D03*
X257450000Y-196100000D03*
X257450000Y-195000000D03*
D13*
X253396269Y-187281140D03*
D14*
X254050000Y-186550000D03*
D15*
X259070000Y-185760000D03*
%TD*%
D10*
%TO.C,D24*%
X156220000Y-209600000D03*
D11*
X161300000Y-209600000D03*
D10*
X166380000Y-209600000D03*
D12*
X160370000Y-214050000D03*
X160370000Y-215150000D03*
X162200000Y-215150000D03*
X162200000Y-214050000D03*
D13*
X158146269Y-206331140D03*
D14*
X158800000Y-205600000D03*
D15*
X163820000Y-204810000D03*
%TD*%
D10*
%TO.C,D11*%
X194320000Y-190550000D03*
D11*
X199400000Y-190550000D03*
D10*
X204480000Y-190550000D03*
D12*
X198470000Y-195000000D03*
X198470000Y-196100000D03*
X200300000Y-196100000D03*
X200300000Y-195000000D03*
D13*
X196246269Y-187281140D03*
D14*
X196900000Y-186550000D03*
D15*
X201920000Y-185760000D03*
%TD*%
D10*
%TO.C,D18*%
X213370000Y-171500000D03*
D11*
X218450000Y-171500000D03*
D10*
X223530000Y-171500000D03*
D12*
X217520000Y-175950000D03*
X217520000Y-177050000D03*
X219350000Y-177050000D03*
X219350000Y-175950000D03*
D13*
X215296269Y-168231140D03*
D14*
X215950000Y-167500000D03*
D15*
X220970000Y-166710000D03*
%TD*%
D10*
%TO.C,D34*%
X137170000Y-209600000D03*
D11*
X142250000Y-209600000D03*
D10*
X147330000Y-209600000D03*
D12*
X141320000Y-214050000D03*
X141320000Y-215150000D03*
X143150000Y-215150000D03*
X143150000Y-214050000D03*
D13*
X139096269Y-206331140D03*
D14*
X139750000Y-205600000D03*
D15*
X144770000Y-204810000D03*
%TD*%
D10*
%TO.C,D36*%
X251470000Y-152450000D03*
D11*
X256550000Y-152450000D03*
D10*
X261630000Y-152450000D03*
D12*
X255620000Y-156900000D03*
X255620000Y-158000000D03*
X257450000Y-158000000D03*
X257450000Y-156900000D03*
D13*
X253396269Y-149181140D03*
D14*
X254050000Y-148450000D03*
D15*
X259070000Y-147660000D03*
%TD*%
D10*
%TO.C,D39*%
X118120000Y-114350000D03*
D11*
X123200000Y-114350000D03*
D10*
X128280000Y-114350000D03*
D12*
X122270000Y-118800000D03*
X122270000Y-119900000D03*
X124100000Y-119900000D03*
X124100000Y-118800000D03*
D13*
X120046269Y-111081140D03*
D14*
X120700000Y-110350000D03*
D15*
X125720000Y-109560000D03*
%TD*%
D10*
%TO.C,D32*%
X137170000Y-171500000D03*
D11*
X142250000Y-171500000D03*
D10*
X147330000Y-171500000D03*
D12*
X141320000Y-175950000D03*
X141320000Y-177050000D03*
X143150000Y-177050000D03*
X143150000Y-175950000D03*
D13*
X139096269Y-168231140D03*
D14*
X139750000Y-167500000D03*
D15*
X144770000Y-166710000D03*
%TD*%
D10*
%TO.C,D2*%
X289570000Y-133400000D03*
D11*
X294650000Y-133400000D03*
D10*
X299730000Y-133400000D03*
D12*
X293720000Y-137850000D03*
X293720000Y-138950000D03*
X295550000Y-138950000D03*
X295550000Y-137850000D03*
D13*
X291496269Y-130131140D03*
D14*
X292150000Y-129400000D03*
D15*
X297170000Y-128610000D03*
%TD*%
D16*
%TO.C,U17*%
X139596745Y-83631129D03*
X144596745Y-83631129D03*
X142096745Y-83631129D03*
X144596745Y-69131129D03*
X139596745Y-69131129D03*
D17*
X136896745Y-76131129D03*
X147296745Y-76131129D03*
%TD*%
D10*
%TO.C,D31*%
X118120000Y-152450000D03*
D11*
X123200000Y-152450000D03*
D10*
X128280000Y-152450000D03*
D12*
X122270000Y-156900000D03*
X122270000Y-158000000D03*
X124100000Y-158000000D03*
X124100000Y-156900000D03*
D13*
X120046269Y-149181140D03*
D14*
X120700000Y-148450000D03*
D15*
X125720000Y-147660000D03*
%TD*%
D18*
%TO.C,H2*%
X115582171Y9636635D03*
%TD*%
D16*
%TO.C,U41*%
X215817500Y-140750000D03*
X220817500Y-140750000D03*
X218317500Y-140750000D03*
X220817500Y-126250000D03*
X215817500Y-126250000D03*
D17*
X213117500Y-133250000D03*
X223517500Y-133250000D03*
%TD*%
D10*
%TO.C,D27*%
X175270000Y-209600000D03*
D11*
X180350000Y-209600000D03*
D10*
X185430000Y-209600000D03*
D12*
X179420000Y-214050000D03*
X179420000Y-215150000D03*
X181250000Y-215150000D03*
X181250000Y-214050000D03*
D13*
X177196269Y-206331140D03*
D14*
X177850000Y-205600000D03*
D15*
X182870000Y-204810000D03*
%TD*%
D18*
%TO.C,H6*%
X115582171Y1686635D03*
%TD*%
D10*
%TO.C,D7*%
X270520000Y-171500000D03*
D11*
X275600000Y-171500000D03*
D10*
X280680000Y-171500000D03*
D12*
X274670000Y-175950000D03*
X274670000Y-177050000D03*
X276500000Y-177050000D03*
X276500000Y-175950000D03*
D13*
X272446269Y-168231140D03*
D14*
X273100000Y-167500000D03*
D15*
X278120000Y-166710000D03*
%TD*%
D10*
%TO.C,D29*%
X118120000Y-190550000D03*
D11*
X123200000Y-190550000D03*
D10*
X128280000Y-190550000D03*
D12*
X122270000Y-195000000D03*
X122270000Y-196100000D03*
X124100000Y-196100000D03*
X124100000Y-195000000D03*
D13*
X120046269Y-187281140D03*
D14*
X120700000Y-186550000D03*
D15*
X125720000Y-185760000D03*
%TD*%
D16*
%TO.C,U13*%
X177696745Y-140771129D03*
X182696745Y-140771129D03*
X180196745Y-140771129D03*
X182696745Y-126271129D03*
X177696745Y-126271129D03*
D17*
X174996745Y-133271129D03*
X185396745Y-133271129D03*
%TD*%
D16*
%TO.C,U29*%
X253917500Y-140750000D03*
X258917500Y-140750000D03*
X256417500Y-140750000D03*
X258917500Y-126250000D03*
X253917500Y-126250000D03*
D17*
X251217500Y-133250000D03*
X261617500Y-133250000D03*
%TD*%
D18*
%TO.C,H5*%
X212600000Y-118900000D03*
%TD*%
D10*
%TO.C,D8*%
X270520000Y-190550000D03*
D11*
X275600000Y-190550000D03*
D10*
X280680000Y-190550000D03*
D12*
X274670000Y-195000000D03*
X274670000Y-196100000D03*
X276500000Y-196100000D03*
X276500000Y-195000000D03*
D13*
X272446269Y-187281140D03*
D14*
X273100000Y-186550000D03*
D15*
X278120000Y-185760000D03*
%TD*%
D16*
%TO.C,U5*%
X158884840Y-112439224D03*
X163884840Y-112439224D03*
X161384840Y-112439224D03*
X163884840Y-97939224D03*
X158884840Y-97939224D03*
D17*
X156184840Y-104939224D03*
X166584840Y-104939224D03*
%TD*%
D10*
%TO.C,D15*%
X232420000Y-171500000D03*
D11*
X237500000Y-171500000D03*
D10*
X242580000Y-171500000D03*
D12*
X236570000Y-175950000D03*
X236570000Y-177050000D03*
X238400000Y-177050000D03*
X238400000Y-175950000D03*
D13*
X234346269Y-168231140D03*
D14*
X235000000Y-167500000D03*
D15*
X240020000Y-166710000D03*
%TD*%
D16*
%TO.C,U49*%
X272993280Y-112201129D03*
X277993280Y-112201129D03*
X275493280Y-112201129D03*
X277993280Y-97701129D03*
X272993280Y-97701129D03*
D17*
X270293280Y-104701129D03*
X280693280Y-104701129D03*
%TD*%
D10*
%TO.C,D44*%
X137170000Y-152450000D03*
D11*
X142250000Y-152450000D03*
D10*
X147330000Y-152450000D03*
D12*
X141320000Y-156900000D03*
X141320000Y-158000000D03*
X143150000Y-158000000D03*
X143150000Y-156900000D03*
D13*
X139096269Y-149181140D03*
D14*
X139750000Y-148450000D03*
D15*
X144770000Y-147660000D03*
%TD*%
D10*
%TO.C,D30*%
X118120000Y-209600000D03*
D11*
X123200000Y-209600000D03*
D10*
X128280000Y-209600000D03*
D12*
X122270000Y-214050000D03*
X122270000Y-215150000D03*
X124100000Y-215150000D03*
X124100000Y-214050000D03*
D13*
X120046269Y-206331140D03*
D14*
X120700000Y-205600000D03*
D15*
X125720000Y-204810000D03*
%TD*%
D16*
%TO.C,U25*%
X252722769Y-83631129D03*
X257722769Y-83631129D03*
X255222769Y-83631129D03*
X257722769Y-69131129D03*
X252722769Y-69131129D03*
D17*
X250022769Y-76131129D03*
X260422769Y-76131129D03*
%TD*%
D10*
%TO.C,D16*%
X232420000Y-190550000D03*
D11*
X237500000Y-190550000D03*
D10*
X242580000Y-190550000D03*
D12*
X236570000Y-195000000D03*
X236570000Y-196100000D03*
X238400000Y-196100000D03*
X238400000Y-195000000D03*
D13*
X234346269Y-187281140D03*
D14*
X235000000Y-186550000D03*
D15*
X240020000Y-185760000D03*
%TD*%
D10*
%TO.C,D14*%
X251470000Y-209600000D03*
D11*
X256550000Y-209600000D03*
D10*
X261630000Y-209600000D03*
D12*
X255620000Y-214050000D03*
X255620000Y-215150000D03*
X257450000Y-215150000D03*
X257450000Y-214050000D03*
D13*
X253396269Y-206331140D03*
D14*
X254050000Y-205600000D03*
D15*
X259070000Y-204810000D03*
%TD*%
D10*
%TO.C,D22*%
X156220000Y-171500000D03*
D11*
X161300000Y-171500000D03*
D10*
X166380000Y-171500000D03*
D12*
X160370000Y-175950000D03*
X160370000Y-177050000D03*
X162200000Y-177050000D03*
X162200000Y-175950000D03*
D13*
X158146269Y-168231140D03*
D14*
X158800000Y-167500000D03*
D15*
X163820000Y-166710000D03*
%TD*%
D18*
%TO.C,H3*%
X291283723Y-43059078D03*
%TD*%
D16*
%TO.C,U33*%
X234846745Y-112201129D03*
X239846745Y-112201129D03*
X237346745Y-112201129D03*
X239846745Y-97701129D03*
X234846745Y-97701129D03*
D17*
X232146745Y-104701129D03*
X242546745Y-104701129D03*
%TD*%
D10*
%TO.C,D35*%
X270520000Y-152450000D03*
D11*
X275600000Y-152450000D03*
D10*
X280680000Y-152450000D03*
D12*
X274670000Y-156900000D03*
X274670000Y-158000000D03*
X276500000Y-158000000D03*
X276500000Y-156900000D03*
D13*
X272446269Y-149181140D03*
D14*
X273100000Y-148450000D03*
D15*
X278120000Y-147660000D03*
%TD*%
D19*
%TO.C,U7*%
X169892340Y-110814224D03*
X169892340Y-108814224D03*
X169892340Y-112814224D03*
%TD*%
%TO.C,U22*%
X190854245Y-102376129D03*
X190854245Y-104376129D03*
X190854245Y-100376129D03*
%TD*%
%TO.C,U16*%
X173704245Y-143046129D03*
X175704245Y-143046129D03*
X171704245Y-143046129D03*
%TD*%
%TO.C,U23*%
X207754245Y-110576129D03*
X207754245Y-108576129D03*
X207754245Y-112576129D03*
%TD*%
%TO.C,U27*%
X263730269Y-82006129D03*
X263730269Y-80006129D03*
X263730269Y-84006129D03*
%TD*%
%TO.C,U38*%
X208033918Y-73806129D03*
X208033918Y-75806129D03*
X208033918Y-71806129D03*
%TD*%
%TO.C,U51*%
X284000780Y-110576129D03*
X284000780Y-108576129D03*
X284000780Y-112576129D03*
%TD*%
%TO.C,U18*%
X133704245Y-73806129D03*
X133704245Y-75806129D03*
X133704245Y-71806129D03*
%TD*%
%TO.C,U44*%
X209925000Y-130925000D03*
X209925000Y-132925000D03*
X209925000Y-128925000D03*
%TD*%
%TO.C,U36*%
X230854245Y-114476129D03*
X232854245Y-114476129D03*
X228854245Y-114476129D03*
%TD*%
%TO.C,U35*%
X245854245Y-110576129D03*
X245854245Y-108576129D03*
X245854245Y-112576129D03*
%TD*%
%TO.C,U45*%
X226825000Y-139125000D03*
X226825000Y-137125000D03*
X226825000Y-141125000D03*
%TD*%
%TO.C,U8*%
X154892340Y-114714224D03*
X156892340Y-114714224D03*
X152892340Y-114714224D03*
%TD*%
%TO.C,U46*%
X214800000Y-143900000D03*
X216800000Y-143900000D03*
X212800000Y-143900000D03*
%TD*%
%TO.C,U40*%
X209933918Y-85906129D03*
X211933918Y-85906129D03*
X207933918Y-85906129D03*
%TD*%
%TO.C,U2*%
X133750000Y-131000000D03*
X133750000Y-133000000D03*
X133750000Y-129000000D03*
%TD*%
%TO.C,U24*%
X192754245Y-114476129D03*
X194754245Y-114476129D03*
X190754245Y-114476129D03*
%TD*%
%TO.C,U4*%
X135650000Y-143100000D03*
X137650000Y-143100000D03*
X133650000Y-143100000D03*
%TD*%
%TO.C,U26*%
X246830269Y-73806129D03*
X246830269Y-75806129D03*
X246830269Y-71806129D03*
%TD*%
%TO.C,U20*%
X135604245Y-85906129D03*
X137604245Y-85906129D03*
X133604245Y-85906129D03*
%TD*%
%TO.C,U32*%
X249925000Y-143025000D03*
X251925000Y-143025000D03*
X247925000Y-143025000D03*
%TD*%
%TO.C,U6*%
X152992340Y-102614224D03*
X152992340Y-104614224D03*
X152992340Y-100614224D03*
%TD*%
%TO.C,U52*%
X269000780Y-114476129D03*
X271000780Y-114476129D03*
X267000780Y-114476129D03*
%TD*%
%TO.C,U31*%
X264925000Y-139125000D03*
X264925000Y-137125000D03*
X264925000Y-141125000D03*
%TD*%
%TO.C,U3*%
X150650000Y-139200000D03*
X150650000Y-137200000D03*
X150650000Y-141200000D03*
%TD*%
%TO.C,U19*%
X150604245Y-82006129D03*
X150604245Y-80006129D03*
X150604245Y-84006129D03*
%TD*%
%TO.C,U10*%
X171804245Y-73806129D03*
X171804245Y-75806129D03*
X171804245Y-71806129D03*
%TD*%
%TO.C,U14*%
X171804245Y-130946129D03*
X171804245Y-132946129D03*
X171804245Y-128946129D03*
%TD*%
%TO.C,U34*%
X228954245Y-102376129D03*
X228954245Y-104376129D03*
X228954245Y-100376129D03*
%TD*%
%TO.C,U39*%
X224933918Y-82006129D03*
X224933918Y-80006129D03*
X224933918Y-84006129D03*
%TD*%
%TO.C,U30*%
X248025000Y-130925000D03*
X248025000Y-132925000D03*
X248025000Y-128925000D03*
%TD*%
%TO.C,U11*%
X188704245Y-82006129D03*
X188704245Y-80006129D03*
X188704245Y-84006129D03*
%TD*%
%TO.C,U15*%
X188704245Y-139146129D03*
X188704245Y-137146129D03*
X188704245Y-141146129D03*
%TD*%
%TO.C,U50*%
X267100780Y-102376129D03*
X267100780Y-104376129D03*
X267100780Y-100376129D03*
%TD*%
%TO.C,U28*%
X248730269Y-85906129D03*
X250730269Y-85906129D03*
X246730269Y-85906129D03*
%TD*%
%TO.C,U12*%
X173704245Y-85906129D03*
X175704245Y-85906129D03*
X171704245Y-85906129D03*
%TD*%
D20*
%TO.C,IC1*%
X182100000Y-35100000D03*
D21*
X184640000Y-35100000D03*
X187180000Y-35100000D03*
X189720000Y-35100000D03*
X192260000Y-35100000D03*
X194800000Y-35100000D03*
X197340000Y-35100000D03*
X199880000Y-35100000D03*
X202420000Y-35100000D03*
X204960000Y-35100000D03*
X207500000Y-35100000D03*
X210040000Y-35100000D03*
X212580000Y-35100000D03*
X215120000Y-35100000D03*
X217660000Y-35100000D03*
X220200000Y-35100000D03*
X222740000Y-35100000D03*
X225280000Y-35100000D03*
X227820000Y-35100000D03*
X230360000Y-35100000D03*
X232900000Y-35100000D03*
X235440000Y-35100000D03*
X235440000Y-58100000D03*
X232900000Y-58100000D03*
X230360000Y-58100000D03*
X227820000Y-58100000D03*
X225280000Y-58100000D03*
X222740000Y-58100000D03*
X220200000Y-58100000D03*
X217660000Y-58100000D03*
X215120000Y-58100000D03*
X212580000Y-58100000D03*
X210040000Y-58100000D03*
X207500000Y-58100000D03*
X204960000Y-58100000D03*
X202420000Y-58100000D03*
X199880000Y-58100000D03*
X197340000Y-58100000D03*
X194800000Y-58100000D03*
X192260000Y-58100000D03*
X189720000Y-58100000D03*
X187180000Y-58100000D03*
X184640000Y-58100000D03*
X182100000Y-58100000D03*
%TD*%
M02*
