%TF.GenerationSoftware,KiCad,Pcbnew,9.0.7*%
%TF.CreationDate,2026-03-08T01:03:03+02:00*%
%TF.ProjectId,motion_pcb,6d6f7469-6f6e-45f7-9063-622e6b696361,rev?*%
%TF.SameCoordinates,Original*%
%TF.FileFunction,Drillmap*%
%TF.FilePolarity,Positive*%
%FSLAX45Y45*%
G04 Gerber Fmt 4.5, Leading zero omitted, Abs format (unit mm)*
G04 Created by KiCad (PCBNEW 9.0.7) date 2026-03-08 01:03:03*
%MOMM*%
%LPD*%
G01*
G04 APERTURE LIST*
%ADD10C,0.100000*%
%ADD11C,0.200000*%
%ADD12C,0.175000*%
%ADD13C,0.320000*%
%ADD14C,0.400000*%
G04 APERTURE END LIST*
D10*
X10790000Y-3210000D02*
X30910000Y-3210000D01*
X30910000Y-22240000D01*
X10790000Y-22240000D01*
X10790000Y-3210000D01*
D11*
D12*
X11724500Y-11347500D02*
X11899500Y-11522500D01*
X11899500Y-11347500D02*
X11724500Y-11522500D01*
X11724500Y-13252500D02*
X11899500Y-13427500D01*
X11899500Y-13252500D02*
X11724500Y-13427500D01*
X11724500Y-15157500D02*
X11899500Y-15332500D01*
X11899500Y-15157500D02*
X11724500Y-15332500D01*
X11724500Y-17062500D02*
X11899500Y-17237500D01*
X11899500Y-17062500D02*
X11724500Y-17237500D01*
X11724500Y-18967500D02*
X11899500Y-19142500D01*
X11899500Y-18967500D02*
X11724500Y-19142500D01*
X11724500Y-20872500D02*
X11899500Y-21047500D01*
X11899500Y-20872500D02*
X11724500Y-21047500D01*
X12740500Y-11347500D02*
X12915500Y-11522500D01*
X12915500Y-11347500D02*
X12740500Y-11522500D01*
X12740500Y-13252500D02*
X12915500Y-13427500D01*
X12915500Y-13252500D02*
X12740500Y-13427500D01*
X12740500Y-15157500D02*
X12915500Y-15332500D01*
X12915500Y-15157500D02*
X12740500Y-15332500D01*
X12740500Y-17062500D02*
X12915500Y-17237500D01*
X12915500Y-17062500D02*
X12740500Y-17237500D01*
X12740500Y-18967500D02*
X12915500Y-19142500D01*
X12915500Y-18967500D02*
X12740500Y-19142500D01*
X12740500Y-20872500D02*
X12915500Y-21047500D01*
X12915500Y-20872500D02*
X12740500Y-21047500D01*
X13629500Y-15157500D02*
X13804500Y-15332500D01*
X13804500Y-15157500D02*
X13629500Y-15332500D01*
X13629500Y-17062500D02*
X13804500Y-17237500D01*
X13804500Y-17062500D02*
X13629500Y-17237500D01*
X13629500Y-18967500D02*
X13804500Y-19142500D01*
X13804500Y-18967500D02*
X13629500Y-19142500D01*
X13629500Y-20872500D02*
X13804500Y-21047500D01*
X13804500Y-20872500D02*
X13629500Y-21047500D01*
X14645500Y-15157500D02*
X14820500Y-15332500D01*
X14820500Y-15157500D02*
X14645500Y-15332500D01*
X14645500Y-17062500D02*
X14820500Y-17237500D01*
X14820500Y-17062500D02*
X14645500Y-17237500D01*
X14645500Y-18967500D02*
X14820500Y-19142500D01*
X14820500Y-18967500D02*
X14645500Y-19142500D01*
X14645500Y-20872500D02*
X14820500Y-21047500D01*
X14820500Y-20872500D02*
X14645500Y-21047500D01*
X15534500Y-15157500D02*
X15709500Y-15332500D01*
X15709500Y-15157500D02*
X15534500Y-15332500D01*
X15534500Y-17062500D02*
X15709500Y-17237500D01*
X15709500Y-17062500D02*
X15534500Y-17237500D01*
X15534500Y-18967500D02*
X15709500Y-19142500D01*
X15709500Y-18967500D02*
X15534500Y-19142500D01*
X15534500Y-20872500D02*
X15709500Y-21047500D01*
X15709500Y-20872500D02*
X15534500Y-21047500D01*
X16550500Y-15157500D02*
X16725500Y-15332500D01*
X16725500Y-15157500D02*
X16550500Y-15332500D01*
X16550500Y-17062500D02*
X16725500Y-17237500D01*
X16725500Y-17062500D02*
X16550500Y-17237500D01*
X16550500Y-18967500D02*
X16725500Y-19142500D01*
X16725500Y-18967500D02*
X16550500Y-19142500D01*
X16550500Y-20872500D02*
X16725500Y-21047500D01*
X16725500Y-20872500D02*
X16550500Y-21047500D01*
X17439500Y-15157500D02*
X17614500Y-15332500D01*
X17614500Y-15157500D02*
X17439500Y-15332500D01*
X17439500Y-17062500D02*
X17614500Y-17237500D01*
X17614500Y-17062500D02*
X17439500Y-17237500D01*
X17439500Y-18967500D02*
X17614500Y-19142500D01*
X17614500Y-18967500D02*
X17439500Y-19142500D01*
X17439500Y-20872500D02*
X17614500Y-21047500D01*
X17614500Y-20872500D02*
X17439500Y-21047500D01*
X18455500Y-15157500D02*
X18630500Y-15332500D01*
X18630500Y-15157500D02*
X18455500Y-15332500D01*
X18455500Y-17062500D02*
X18630500Y-17237500D01*
X18630500Y-17062500D02*
X18455500Y-17237500D01*
X18455500Y-18967500D02*
X18630500Y-19142500D01*
X18630500Y-18967500D02*
X18455500Y-19142500D01*
X18455500Y-20872500D02*
X18630500Y-21047500D01*
X18630500Y-20872500D02*
X18455500Y-21047500D01*
X19344500Y-15157500D02*
X19519500Y-15332500D01*
X19519500Y-15157500D02*
X19344500Y-15332500D01*
X19344500Y-17062500D02*
X19519500Y-17237500D01*
X19519500Y-17062500D02*
X19344500Y-17237500D01*
X19344500Y-18967500D02*
X19519500Y-19142500D01*
X19519500Y-18967500D02*
X19344500Y-19142500D01*
X19344500Y-20872500D02*
X19519500Y-21047500D01*
X19519500Y-20872500D02*
X19344500Y-21047500D01*
X20360500Y-15157500D02*
X20535500Y-15332500D01*
X20535500Y-15157500D02*
X20360500Y-15332500D01*
X20360500Y-17062500D02*
X20535500Y-17237500D01*
X20535500Y-17062500D02*
X20360500Y-17237500D01*
X20360500Y-18967500D02*
X20535500Y-19142500D01*
X20535500Y-18967500D02*
X20360500Y-19142500D01*
X20360500Y-20872500D02*
X20535500Y-21047500D01*
X20535500Y-20872500D02*
X20360500Y-21047500D01*
X21249500Y-15157500D02*
X21424500Y-15332500D01*
X21424500Y-15157500D02*
X21249500Y-15332500D01*
X21249500Y-17062500D02*
X21424500Y-17237500D01*
X21424500Y-17062500D02*
X21249500Y-17237500D01*
X21249500Y-18967500D02*
X21424500Y-19142500D01*
X21424500Y-18967500D02*
X21249500Y-19142500D01*
X21249500Y-20872500D02*
X21424500Y-21047500D01*
X21424500Y-20872500D02*
X21249500Y-21047500D01*
X22265500Y-15157500D02*
X22440500Y-15332500D01*
X22440500Y-15157500D02*
X22265500Y-15332500D01*
X22265500Y-17062500D02*
X22440500Y-17237500D01*
X22440500Y-17062500D02*
X22265500Y-17237500D01*
X22265500Y-18967500D02*
X22440500Y-19142500D01*
X22440500Y-18967500D02*
X22265500Y-19142500D01*
X22265500Y-20872500D02*
X22440500Y-21047500D01*
X22440500Y-20872500D02*
X22265500Y-21047500D01*
X23154500Y-15157500D02*
X23329500Y-15332500D01*
X23329500Y-15157500D02*
X23154500Y-15332500D01*
X23154500Y-17062500D02*
X23329500Y-17237500D01*
X23329500Y-17062500D02*
X23154500Y-17237500D01*
X23154500Y-18967500D02*
X23329500Y-19142500D01*
X23329500Y-18967500D02*
X23154500Y-19142500D01*
X23154500Y-20872500D02*
X23329500Y-21047500D01*
X23329500Y-20872500D02*
X23154500Y-21047500D01*
X24170500Y-15157500D02*
X24345500Y-15332500D01*
X24345500Y-15157500D02*
X24170500Y-15332500D01*
X24170500Y-17062500D02*
X24345500Y-17237500D01*
X24345500Y-17062500D02*
X24170500Y-17237500D01*
X24170500Y-18967500D02*
X24345500Y-19142500D01*
X24345500Y-18967500D02*
X24170500Y-19142500D01*
X24170500Y-20872500D02*
X24345500Y-21047500D01*
X24345500Y-20872500D02*
X24170500Y-21047500D01*
X25059500Y-15157500D02*
X25234500Y-15332500D01*
X25234500Y-15157500D02*
X25059500Y-15332500D01*
X25059500Y-17062500D02*
X25234500Y-17237500D01*
X25234500Y-17062500D02*
X25059500Y-17237500D01*
X25059500Y-18967500D02*
X25234500Y-19142500D01*
X25234500Y-18967500D02*
X25059500Y-19142500D01*
X25059500Y-20872500D02*
X25234500Y-21047500D01*
X25234500Y-20872500D02*
X25059500Y-21047500D01*
X26075500Y-15157500D02*
X26250500Y-15332500D01*
X26250500Y-15157500D02*
X26075500Y-15332500D01*
X26075500Y-17062500D02*
X26250500Y-17237500D01*
X26250500Y-17062500D02*
X26075500Y-17237500D01*
X26075500Y-18967500D02*
X26250500Y-19142500D01*
X26250500Y-18967500D02*
X26075500Y-19142500D01*
X26075500Y-20872500D02*
X26250500Y-21047500D01*
X26250500Y-20872500D02*
X26075500Y-21047500D01*
X26964500Y-15157500D02*
X27139500Y-15332500D01*
X27139500Y-15157500D02*
X26964500Y-15332500D01*
X26964500Y-17062500D02*
X27139500Y-17237500D01*
X27139500Y-17062500D02*
X26964500Y-17237500D01*
X26964500Y-18967500D02*
X27139500Y-19142500D01*
X27139500Y-18967500D02*
X26964500Y-19142500D01*
X26964500Y-20872500D02*
X27139500Y-21047500D01*
X27139500Y-20872500D02*
X26964500Y-21047500D01*
X27980500Y-15157500D02*
X28155500Y-15332500D01*
X28155500Y-15157500D02*
X27980500Y-15332500D01*
X27980500Y-17062500D02*
X28155500Y-17237500D01*
X28155500Y-17062500D02*
X27980500Y-17237500D01*
X27980500Y-18967500D02*
X28155500Y-19142500D01*
X28155500Y-18967500D02*
X27980500Y-19142500D01*
X27980500Y-20872500D02*
X28155500Y-21047500D01*
X28155500Y-20872500D02*
X27980500Y-21047500D01*
X28869500Y-11347500D02*
X29044500Y-11522500D01*
X29044500Y-11347500D02*
X28869500Y-11522500D01*
X28869500Y-13252500D02*
X29044500Y-13427500D01*
X29044500Y-13252500D02*
X28869500Y-13427500D01*
X28869500Y-15157500D02*
X29044500Y-15332500D01*
X29044500Y-15157500D02*
X28869500Y-15332500D01*
X28869500Y-17062500D02*
X29044500Y-17237500D01*
X29044500Y-17062500D02*
X28869500Y-17237500D01*
X28869500Y-18967500D02*
X29044500Y-19142500D01*
X29044500Y-18967500D02*
X28869500Y-19142500D01*
X28869500Y-20872500D02*
X29044500Y-21047500D01*
X29044500Y-20872500D02*
X28869500Y-21047500D01*
X29885500Y-11347500D02*
X30060500Y-11522500D01*
X30060500Y-11347500D02*
X29885500Y-11522500D01*
X29885500Y-13252500D02*
X30060500Y-13427500D01*
X30060500Y-13252500D02*
X29885500Y-13427500D01*
X29885500Y-15157500D02*
X30060500Y-15332500D01*
X30060500Y-15157500D02*
X29885500Y-15332500D01*
X29885500Y-17062500D02*
X30060500Y-17237500D01*
X30060500Y-17062500D02*
X29885500Y-17237500D01*
X29885500Y-18967500D02*
X30060500Y-19142500D01*
X30060500Y-18967500D02*
X29885500Y-19142500D01*
X29885500Y-20872500D02*
X30060500Y-21047500D01*
X30060500Y-20872500D02*
X29885500Y-21047500D01*
D13*
X11718217Y963663D02*
G75*
G02*
X11398217Y963663I-160000J0D01*
G01*
X11398217Y963663D02*
G75*
G02*
X11718217Y963663I160000J0D01*
G01*
X11718217Y168664D02*
G75*
G02*
X11398217Y168664I-160000J0D01*
G01*
X11398217Y168664D02*
G75*
G02*
X11718217Y168664I160000J0D01*
G01*
X12436376Y-4257858D02*
G75*
G02*
X12116376Y-4257858I-160000J0D01*
G01*
X12116376Y-4257858D02*
G75*
G02*
X12436376Y-4257858I160000J0D01*
G01*
X21420000Y-11890000D02*
G75*
G02*
X21100000Y-11890000I-160000J0D01*
G01*
X21100000Y-11890000D02*
G75*
G02*
X21420000Y-11890000I160000J0D01*
G01*
X29288372Y-4305908D02*
G75*
G02*
X28968372Y-4305908I-160000J0D01*
G01*
X28968372Y-4305908D02*
G75*
G02*
X29288372Y-4305908I160000J0D01*
G01*
X37345000Y-5001000D02*
G75*
G02*
X37025000Y-5001000I-160000J0D01*
G01*
X37025000Y-5001000D02*
G75*
G02*
X37345000Y-5001000I160000J0D01*
G01*
D14*
X12320000Y-11235000D02*
X12320000Y-11635000D01*
X12120000Y-11435000D02*
X12520000Y-11435000D01*
X12320000Y-13140000D02*
X12320000Y-13540000D01*
X12120000Y-13340000D02*
X12520000Y-13340000D01*
X12320000Y-15045000D02*
X12320000Y-15445000D01*
X12120000Y-15245000D02*
X12520000Y-15245000D01*
X12320000Y-16950000D02*
X12320000Y-17350000D01*
X12120000Y-17150000D02*
X12520000Y-17150000D01*
X12320000Y-18855000D02*
X12320000Y-19255000D01*
X12120000Y-19055000D02*
X12520000Y-19055000D01*
X12320000Y-20760000D02*
X12320000Y-21160000D01*
X12120000Y-20960000D02*
X12520000Y-20960000D01*
X14225000Y-15045000D02*
X14225000Y-15445000D01*
X14025000Y-15245000D02*
X14425000Y-15245000D01*
X14225000Y-16950000D02*
X14225000Y-17350000D01*
X14025000Y-17150000D02*
X14425000Y-17150000D01*
X14225000Y-18855000D02*
X14225000Y-19255000D01*
X14025000Y-19055000D02*
X14425000Y-19055000D01*
X14225000Y-20760000D02*
X14225000Y-21160000D01*
X14025000Y-20960000D02*
X14425000Y-20960000D01*
X16130000Y-15045000D02*
X16130000Y-15445000D01*
X15930000Y-15245000D02*
X16330000Y-15245000D01*
X16130000Y-16950000D02*
X16130000Y-17350000D01*
X15930000Y-17150000D02*
X16330000Y-17150000D01*
X16130000Y-18855000D02*
X16130000Y-19255000D01*
X15930000Y-19055000D02*
X16330000Y-19055000D01*
X16130000Y-20760000D02*
X16130000Y-21160000D01*
X15930000Y-20960000D02*
X16330000Y-20960000D01*
X18035000Y-15045000D02*
X18035000Y-15445000D01*
X17835000Y-15245000D02*
X18235000Y-15245000D01*
X18035000Y-16950000D02*
X18035000Y-17350000D01*
X17835000Y-17150000D02*
X18235000Y-17150000D01*
X18035000Y-18855000D02*
X18035000Y-19255000D01*
X17835000Y-19055000D02*
X18235000Y-19055000D01*
X18035000Y-20760000D02*
X18035000Y-21160000D01*
X17835000Y-20960000D02*
X18235000Y-20960000D01*
X19940000Y-15045000D02*
X19940000Y-15445000D01*
X19740000Y-15245000D02*
X20140000Y-15245000D01*
X19940000Y-16950000D02*
X19940000Y-17350000D01*
X19740000Y-17150000D02*
X20140000Y-17150000D01*
X19940000Y-18855000D02*
X19940000Y-19255000D01*
X19740000Y-19055000D02*
X20140000Y-19055000D01*
X19940000Y-20760000D02*
X19940000Y-21160000D01*
X19740000Y-20960000D02*
X20140000Y-20960000D01*
X21845000Y-15045000D02*
X21845000Y-15445000D01*
X21645000Y-15245000D02*
X22045000Y-15245000D01*
X21845000Y-16950000D02*
X21845000Y-17350000D01*
X21645000Y-17150000D02*
X22045000Y-17150000D01*
X21845000Y-18855000D02*
X21845000Y-19255000D01*
X21645000Y-19055000D02*
X22045000Y-19055000D01*
X21845000Y-20760000D02*
X21845000Y-21160000D01*
X21645000Y-20960000D02*
X22045000Y-20960000D01*
X23750000Y-15045000D02*
X23750000Y-15445000D01*
X23550000Y-15245000D02*
X23950000Y-15245000D01*
X23750000Y-16950000D02*
X23750000Y-17350000D01*
X23550000Y-17150000D02*
X23950000Y-17150000D01*
X23750000Y-18855000D02*
X23750000Y-19255000D01*
X23550000Y-19055000D02*
X23950000Y-19055000D01*
X23750000Y-20760000D02*
X23750000Y-21160000D01*
X23550000Y-20960000D02*
X23950000Y-20960000D01*
X25655000Y-15045000D02*
X25655000Y-15445000D01*
X25455000Y-15245000D02*
X25855000Y-15245000D01*
X25655000Y-16950000D02*
X25655000Y-17350000D01*
X25455000Y-17150000D02*
X25855000Y-17150000D01*
X25655000Y-18855000D02*
X25655000Y-19255000D01*
X25455000Y-19055000D02*
X25855000Y-19055000D01*
X25655000Y-20760000D02*
X25655000Y-21160000D01*
X25455000Y-20960000D02*
X25855000Y-20960000D01*
X27560000Y-15045000D02*
X27560000Y-15445000D01*
X27360000Y-15245000D02*
X27760000Y-15245000D01*
X27560000Y-16950000D02*
X27560000Y-17350000D01*
X27360000Y-17150000D02*
X27760000Y-17150000D01*
X27560000Y-18855000D02*
X27560000Y-19255000D01*
X27360000Y-19055000D02*
X27760000Y-19055000D01*
X27560000Y-20760000D02*
X27560000Y-21160000D01*
X27360000Y-20960000D02*
X27760000Y-20960000D01*
X29465000Y-11235000D02*
X29465000Y-11635000D01*
X29265000Y-11435000D02*
X29665000Y-11435000D01*
X29465000Y-13140000D02*
X29465000Y-13540000D01*
X29265000Y-13340000D02*
X29665000Y-13340000D01*
X29465000Y-15045000D02*
X29465000Y-15445000D01*
X29265000Y-15245000D02*
X29665000Y-15245000D01*
X29465000Y-16950000D02*
X29465000Y-17350000D01*
X29265000Y-17150000D02*
X29665000Y-17150000D01*
X29465000Y-18855000D02*
X29465000Y-19255000D01*
X29265000Y-19055000D02*
X29665000Y-19055000D01*
X29465000Y-20760000D02*
X29465000Y-21160000D01*
X29265000Y-20960000D02*
X29665000Y-20960000D01*
D11*
X11045777Y-22556484D02*
X11045777Y-22356484D01*
X11045777Y-22356484D02*
X11093396Y-22356484D01*
X11093396Y-22356484D02*
X11121967Y-22366008D01*
X11121967Y-22366008D02*
X11141015Y-22385055D01*
X11141015Y-22385055D02*
X11150539Y-22404103D01*
X11150539Y-22404103D02*
X11160063Y-22442198D01*
X11160063Y-22442198D02*
X11160063Y-22470769D01*
X11160063Y-22470769D02*
X11150539Y-22508865D01*
X11150539Y-22508865D02*
X11141015Y-22527912D01*
X11141015Y-22527912D02*
X11121967Y-22546960D01*
X11121967Y-22546960D02*
X11093396Y-22556484D01*
X11093396Y-22556484D02*
X11045777Y-22556484D01*
X11245777Y-22556484D02*
X11245777Y-22423150D01*
X11245777Y-22461246D02*
X11255301Y-22442198D01*
X11255301Y-22442198D02*
X11264824Y-22432674D01*
X11264824Y-22432674D02*
X11283872Y-22423150D01*
X11283872Y-22423150D02*
X11302920Y-22423150D01*
X11369586Y-22556484D02*
X11369586Y-22423150D01*
X11369586Y-22356484D02*
X11360062Y-22366008D01*
X11360062Y-22366008D02*
X11369586Y-22375531D01*
X11369586Y-22375531D02*
X11379110Y-22366008D01*
X11379110Y-22366008D02*
X11369586Y-22356484D01*
X11369586Y-22356484D02*
X11369586Y-22375531D01*
X11493396Y-22556484D02*
X11474348Y-22546960D01*
X11474348Y-22546960D02*
X11464824Y-22527912D01*
X11464824Y-22527912D02*
X11464824Y-22356484D01*
X11598158Y-22556484D02*
X11579110Y-22546960D01*
X11579110Y-22546960D02*
X11569586Y-22527912D01*
X11569586Y-22527912D02*
X11569586Y-22356484D01*
X11826729Y-22556484D02*
X11826729Y-22356484D01*
X11826729Y-22356484D02*
X11893396Y-22499341D01*
X11893396Y-22499341D02*
X11960062Y-22356484D01*
X11960062Y-22356484D02*
X11960062Y-22556484D01*
X12141015Y-22556484D02*
X12141015Y-22451722D01*
X12141015Y-22451722D02*
X12131491Y-22432674D01*
X12131491Y-22432674D02*
X12112443Y-22423150D01*
X12112443Y-22423150D02*
X12074348Y-22423150D01*
X12074348Y-22423150D02*
X12055301Y-22432674D01*
X12141015Y-22546960D02*
X12121967Y-22556484D01*
X12121967Y-22556484D02*
X12074348Y-22556484D01*
X12074348Y-22556484D02*
X12055301Y-22546960D01*
X12055301Y-22546960D02*
X12045777Y-22527912D01*
X12045777Y-22527912D02*
X12045777Y-22508865D01*
X12045777Y-22508865D02*
X12055301Y-22489817D01*
X12055301Y-22489817D02*
X12074348Y-22480293D01*
X12074348Y-22480293D02*
X12121967Y-22480293D01*
X12121967Y-22480293D02*
X12141015Y-22470769D01*
X12236253Y-22423150D02*
X12236253Y-22623150D01*
X12236253Y-22432674D02*
X12255301Y-22423150D01*
X12255301Y-22423150D02*
X12293396Y-22423150D01*
X12293396Y-22423150D02*
X12312443Y-22432674D01*
X12312443Y-22432674D02*
X12321967Y-22442198D01*
X12321967Y-22442198D02*
X12331491Y-22461246D01*
X12331491Y-22461246D02*
X12331491Y-22518388D01*
X12331491Y-22518388D02*
X12321967Y-22537436D01*
X12321967Y-22537436D02*
X12312443Y-22546960D01*
X12312443Y-22546960D02*
X12293396Y-22556484D01*
X12293396Y-22556484D02*
X12255301Y-22556484D01*
X12255301Y-22556484D02*
X12236253Y-22546960D01*
X12417205Y-22537436D02*
X12426729Y-22546960D01*
X12426729Y-22546960D02*
X12417205Y-22556484D01*
X12417205Y-22556484D02*
X12407682Y-22546960D01*
X12407682Y-22546960D02*
X12417205Y-22537436D01*
X12417205Y-22537436D02*
X12417205Y-22556484D01*
X12417205Y-22432674D02*
X12426729Y-22442198D01*
X12426729Y-22442198D02*
X12417205Y-22451722D01*
X12417205Y-22451722D02*
X12407682Y-22442198D01*
X12407682Y-22442198D02*
X12417205Y-22432674D01*
X12417205Y-22432674D02*
X12417205Y-22451722D01*
D12*
X10610000Y-22797500D02*
X10785000Y-22972500D01*
X10785000Y-22797500D02*
X10610000Y-22972500D01*
D11*
X11150539Y-22976484D02*
X11036253Y-22976484D01*
X11093396Y-22976484D02*
X11093396Y-22776484D01*
X11093396Y-22776484D02*
X11074348Y-22805055D01*
X11074348Y-22805055D02*
X11055301Y-22824103D01*
X11055301Y-22824103D02*
X11036253Y-22833627D01*
X11236253Y-22957436D02*
X11245777Y-22966960D01*
X11245777Y-22966960D02*
X11236253Y-22976484D01*
X11236253Y-22976484D02*
X11226729Y-22966960D01*
X11226729Y-22966960D02*
X11236253Y-22957436D01*
X11236253Y-22957436D02*
X11236253Y-22976484D01*
X11312443Y-22776484D02*
X11445777Y-22776484D01*
X11445777Y-22776484D02*
X11360062Y-22976484D01*
X11617205Y-22776484D02*
X11521967Y-22776484D01*
X11521967Y-22776484D02*
X11512443Y-22871722D01*
X11512443Y-22871722D02*
X11521967Y-22862198D01*
X11521967Y-22862198D02*
X11541015Y-22852674D01*
X11541015Y-22852674D02*
X11588634Y-22852674D01*
X11588634Y-22852674D02*
X11607682Y-22862198D01*
X11607682Y-22862198D02*
X11617205Y-22871722D01*
X11617205Y-22871722D02*
X11626729Y-22890769D01*
X11626729Y-22890769D02*
X11626729Y-22938388D01*
X11626729Y-22938388D02*
X11617205Y-22957436D01*
X11617205Y-22957436D02*
X11607682Y-22966960D01*
X11607682Y-22966960D02*
X11588634Y-22976484D01*
X11588634Y-22976484D02*
X11541015Y-22976484D01*
X11541015Y-22976484D02*
X11521967Y-22966960D01*
X11521967Y-22966960D02*
X11512443Y-22957436D01*
X11750539Y-22776484D02*
X11769586Y-22776484D01*
X11769586Y-22776484D02*
X11788634Y-22786008D01*
X11788634Y-22786008D02*
X11798158Y-22795531D01*
X11798158Y-22795531D02*
X11807682Y-22814579D01*
X11807682Y-22814579D02*
X11817205Y-22852674D01*
X11817205Y-22852674D02*
X11817205Y-22900293D01*
X11817205Y-22900293D02*
X11807682Y-22938388D01*
X11807682Y-22938388D02*
X11798158Y-22957436D01*
X11798158Y-22957436D02*
X11788634Y-22966960D01*
X11788634Y-22966960D02*
X11769586Y-22976484D01*
X11769586Y-22976484D02*
X11750539Y-22976484D01*
X11750539Y-22976484D02*
X11731491Y-22966960D01*
X11731491Y-22966960D02*
X11721967Y-22957436D01*
X11721967Y-22957436D02*
X11712443Y-22938388D01*
X11712443Y-22938388D02*
X11702920Y-22900293D01*
X11702920Y-22900293D02*
X11702920Y-22852674D01*
X11702920Y-22852674D02*
X11712443Y-22814579D01*
X11712443Y-22814579D02*
X11721967Y-22795531D01*
X11721967Y-22795531D02*
X11731491Y-22786008D01*
X11731491Y-22786008D02*
X11750539Y-22776484D01*
X11902920Y-22976484D02*
X11902920Y-22843150D01*
X11902920Y-22862198D02*
X11912443Y-22852674D01*
X11912443Y-22852674D02*
X11931491Y-22843150D01*
X11931491Y-22843150D02*
X11960063Y-22843150D01*
X11960063Y-22843150D02*
X11979110Y-22852674D01*
X11979110Y-22852674D02*
X11988634Y-22871722D01*
X11988634Y-22871722D02*
X11988634Y-22976484D01*
X11988634Y-22871722D02*
X11998158Y-22852674D01*
X11998158Y-22852674D02*
X12017205Y-22843150D01*
X12017205Y-22843150D02*
X12045777Y-22843150D01*
X12045777Y-22843150D02*
X12064824Y-22852674D01*
X12064824Y-22852674D02*
X12074348Y-22871722D01*
X12074348Y-22871722D02*
X12074348Y-22976484D01*
X12169586Y-22976484D02*
X12169586Y-22843150D01*
X12169586Y-22862198D02*
X12179110Y-22852674D01*
X12179110Y-22852674D02*
X12198158Y-22843150D01*
X12198158Y-22843150D02*
X12226729Y-22843150D01*
X12226729Y-22843150D02*
X12245777Y-22852674D01*
X12245777Y-22852674D02*
X12255301Y-22871722D01*
X12255301Y-22871722D02*
X12255301Y-22976484D01*
X12255301Y-22871722D02*
X12264824Y-22852674D01*
X12264824Y-22852674D02*
X12283872Y-22843150D01*
X12283872Y-22843150D02*
X12312443Y-22843150D01*
X12312443Y-22843150D02*
X12331491Y-22852674D01*
X12331491Y-22852674D02*
X12341015Y-22871722D01*
X12341015Y-22871722D02*
X12341015Y-22976484D01*
X12731491Y-22766960D02*
X12560063Y-23024103D01*
X12988634Y-22776484D02*
X13007682Y-22776484D01*
X13007682Y-22776484D02*
X13026729Y-22786008D01*
X13026729Y-22786008D02*
X13036253Y-22795531D01*
X13036253Y-22795531D02*
X13045777Y-22814579D01*
X13045777Y-22814579D02*
X13055301Y-22852674D01*
X13055301Y-22852674D02*
X13055301Y-22900293D01*
X13055301Y-22900293D02*
X13045777Y-22938388D01*
X13045777Y-22938388D02*
X13036253Y-22957436D01*
X13036253Y-22957436D02*
X13026729Y-22966960D01*
X13026729Y-22966960D02*
X13007682Y-22976484D01*
X13007682Y-22976484D02*
X12988634Y-22976484D01*
X12988634Y-22976484D02*
X12969586Y-22966960D01*
X12969586Y-22966960D02*
X12960063Y-22957436D01*
X12960063Y-22957436D02*
X12950539Y-22938388D01*
X12950539Y-22938388D02*
X12941015Y-22900293D01*
X12941015Y-22900293D02*
X12941015Y-22852674D01*
X12941015Y-22852674D02*
X12950539Y-22814579D01*
X12950539Y-22814579D02*
X12960063Y-22795531D01*
X12960063Y-22795531D02*
X12969586Y-22786008D01*
X12969586Y-22786008D02*
X12988634Y-22776484D01*
X13141015Y-22957436D02*
X13150539Y-22966960D01*
X13150539Y-22966960D02*
X13141015Y-22976484D01*
X13141015Y-22976484D02*
X13131491Y-22966960D01*
X13131491Y-22966960D02*
X13141015Y-22957436D01*
X13141015Y-22957436D02*
X13141015Y-22976484D01*
X13274348Y-22776484D02*
X13293396Y-22776484D01*
X13293396Y-22776484D02*
X13312444Y-22786008D01*
X13312444Y-22786008D02*
X13321967Y-22795531D01*
X13321967Y-22795531D02*
X13331491Y-22814579D01*
X13331491Y-22814579D02*
X13341015Y-22852674D01*
X13341015Y-22852674D02*
X13341015Y-22900293D01*
X13341015Y-22900293D02*
X13331491Y-22938388D01*
X13331491Y-22938388D02*
X13321967Y-22957436D01*
X13321967Y-22957436D02*
X13312444Y-22966960D01*
X13312444Y-22966960D02*
X13293396Y-22976484D01*
X13293396Y-22976484D02*
X13274348Y-22976484D01*
X13274348Y-22976484D02*
X13255301Y-22966960D01*
X13255301Y-22966960D02*
X13245777Y-22957436D01*
X13245777Y-22957436D02*
X13236253Y-22938388D01*
X13236253Y-22938388D02*
X13226729Y-22900293D01*
X13226729Y-22900293D02*
X13226729Y-22852674D01*
X13226729Y-22852674D02*
X13236253Y-22814579D01*
X13236253Y-22814579D02*
X13245777Y-22795531D01*
X13245777Y-22795531D02*
X13255301Y-22786008D01*
X13255301Y-22786008D02*
X13274348Y-22776484D01*
X13512444Y-22776484D02*
X13474348Y-22776484D01*
X13474348Y-22776484D02*
X13455301Y-22786008D01*
X13455301Y-22786008D02*
X13445777Y-22795531D01*
X13445777Y-22795531D02*
X13426729Y-22824103D01*
X13426729Y-22824103D02*
X13417206Y-22862198D01*
X13417206Y-22862198D02*
X13417206Y-22938388D01*
X13417206Y-22938388D02*
X13426729Y-22957436D01*
X13426729Y-22957436D02*
X13436253Y-22966960D01*
X13436253Y-22966960D02*
X13455301Y-22976484D01*
X13455301Y-22976484D02*
X13493396Y-22976484D01*
X13493396Y-22976484D02*
X13512444Y-22966960D01*
X13512444Y-22966960D02*
X13521967Y-22957436D01*
X13521967Y-22957436D02*
X13531491Y-22938388D01*
X13531491Y-22938388D02*
X13531491Y-22890769D01*
X13531491Y-22890769D02*
X13521967Y-22871722D01*
X13521967Y-22871722D02*
X13512444Y-22862198D01*
X13512444Y-22862198D02*
X13493396Y-22852674D01*
X13493396Y-22852674D02*
X13455301Y-22852674D01*
X13455301Y-22852674D02*
X13436253Y-22862198D01*
X13436253Y-22862198D02*
X13426729Y-22871722D01*
X13426729Y-22871722D02*
X13417206Y-22890769D01*
X13645777Y-22862198D02*
X13626729Y-22852674D01*
X13626729Y-22852674D02*
X13617206Y-22843150D01*
X13617206Y-22843150D02*
X13607682Y-22824103D01*
X13607682Y-22824103D02*
X13607682Y-22814579D01*
X13607682Y-22814579D02*
X13617206Y-22795531D01*
X13617206Y-22795531D02*
X13626729Y-22786008D01*
X13626729Y-22786008D02*
X13645777Y-22776484D01*
X13645777Y-22776484D02*
X13683872Y-22776484D01*
X13683872Y-22776484D02*
X13702920Y-22786008D01*
X13702920Y-22786008D02*
X13712444Y-22795531D01*
X13712444Y-22795531D02*
X13721967Y-22814579D01*
X13721967Y-22814579D02*
X13721967Y-22824103D01*
X13721967Y-22824103D02*
X13712444Y-22843150D01*
X13712444Y-22843150D02*
X13702920Y-22852674D01*
X13702920Y-22852674D02*
X13683872Y-22862198D01*
X13683872Y-22862198D02*
X13645777Y-22862198D01*
X13645777Y-22862198D02*
X13626729Y-22871722D01*
X13626729Y-22871722D02*
X13617206Y-22881246D01*
X13617206Y-22881246D02*
X13607682Y-22900293D01*
X13607682Y-22900293D02*
X13607682Y-22938388D01*
X13607682Y-22938388D02*
X13617206Y-22957436D01*
X13617206Y-22957436D02*
X13626729Y-22966960D01*
X13626729Y-22966960D02*
X13645777Y-22976484D01*
X13645777Y-22976484D02*
X13683872Y-22976484D01*
X13683872Y-22976484D02*
X13702920Y-22966960D01*
X13702920Y-22966960D02*
X13712444Y-22957436D01*
X13712444Y-22957436D02*
X13721967Y-22938388D01*
X13721967Y-22938388D02*
X13721967Y-22900293D01*
X13721967Y-22900293D02*
X13712444Y-22881246D01*
X13712444Y-22881246D02*
X13702920Y-22871722D01*
X13702920Y-22871722D02*
X13683872Y-22862198D01*
X13817206Y-22976484D02*
X13855301Y-22976484D01*
X13855301Y-22976484D02*
X13874348Y-22966960D01*
X13874348Y-22966960D02*
X13883872Y-22957436D01*
X13883872Y-22957436D02*
X13902920Y-22928865D01*
X13902920Y-22928865D02*
X13912444Y-22890769D01*
X13912444Y-22890769D02*
X13912444Y-22814579D01*
X13912444Y-22814579D02*
X13902920Y-22795531D01*
X13902920Y-22795531D02*
X13893396Y-22786008D01*
X13893396Y-22786008D02*
X13874348Y-22776484D01*
X13874348Y-22776484D02*
X13836253Y-22776484D01*
X13836253Y-22776484D02*
X13817206Y-22786008D01*
X13817206Y-22786008D02*
X13807682Y-22795531D01*
X13807682Y-22795531D02*
X13798158Y-22814579D01*
X13798158Y-22814579D02*
X13798158Y-22862198D01*
X13798158Y-22862198D02*
X13807682Y-22881246D01*
X13807682Y-22881246D02*
X13817206Y-22890769D01*
X13817206Y-22890769D02*
X13836253Y-22900293D01*
X13836253Y-22900293D02*
X13874348Y-22900293D01*
X13874348Y-22900293D02*
X13893396Y-22890769D01*
X13893396Y-22890769D02*
X13902920Y-22881246D01*
X13902920Y-22881246D02*
X13912444Y-22862198D01*
X13988634Y-22776484D02*
X13988634Y-22814579D01*
X14064825Y-22776484D02*
X14064825Y-22814579D01*
X14360063Y-23052674D02*
X14350539Y-23043150D01*
X14350539Y-23043150D02*
X14331491Y-23014579D01*
X14331491Y-23014579D02*
X14321968Y-22995531D01*
X14321968Y-22995531D02*
X14312444Y-22966960D01*
X14312444Y-22966960D02*
X14302920Y-22919341D01*
X14302920Y-22919341D02*
X14302920Y-22881246D01*
X14302920Y-22881246D02*
X14312444Y-22833627D01*
X14312444Y-22833627D02*
X14321968Y-22805055D01*
X14321968Y-22805055D02*
X14331491Y-22786008D01*
X14331491Y-22786008D02*
X14350539Y-22757436D01*
X14350539Y-22757436D02*
X14360063Y-22747912D01*
X14464825Y-22862198D02*
X14445777Y-22852674D01*
X14445777Y-22852674D02*
X14436253Y-22843150D01*
X14436253Y-22843150D02*
X14426729Y-22824103D01*
X14426729Y-22824103D02*
X14426729Y-22814579D01*
X14426729Y-22814579D02*
X14436253Y-22795531D01*
X14436253Y-22795531D02*
X14445777Y-22786008D01*
X14445777Y-22786008D02*
X14464825Y-22776484D01*
X14464825Y-22776484D02*
X14502920Y-22776484D01*
X14502920Y-22776484D02*
X14521968Y-22786008D01*
X14521968Y-22786008D02*
X14531491Y-22795531D01*
X14531491Y-22795531D02*
X14541015Y-22814579D01*
X14541015Y-22814579D02*
X14541015Y-22824103D01*
X14541015Y-22824103D02*
X14531491Y-22843150D01*
X14531491Y-22843150D02*
X14521968Y-22852674D01*
X14521968Y-22852674D02*
X14502920Y-22862198D01*
X14502920Y-22862198D02*
X14464825Y-22862198D01*
X14464825Y-22862198D02*
X14445777Y-22871722D01*
X14445777Y-22871722D02*
X14436253Y-22881246D01*
X14436253Y-22881246D02*
X14426729Y-22900293D01*
X14426729Y-22900293D02*
X14426729Y-22938388D01*
X14426729Y-22938388D02*
X14436253Y-22957436D01*
X14436253Y-22957436D02*
X14445777Y-22966960D01*
X14445777Y-22966960D02*
X14464825Y-22976484D01*
X14464825Y-22976484D02*
X14502920Y-22976484D01*
X14502920Y-22976484D02*
X14521968Y-22966960D01*
X14521968Y-22966960D02*
X14531491Y-22957436D01*
X14531491Y-22957436D02*
X14541015Y-22938388D01*
X14541015Y-22938388D02*
X14541015Y-22900293D01*
X14541015Y-22900293D02*
X14531491Y-22881246D01*
X14531491Y-22881246D02*
X14521968Y-22871722D01*
X14521968Y-22871722D02*
X14502920Y-22862198D01*
X14655301Y-22862198D02*
X14636253Y-22852674D01*
X14636253Y-22852674D02*
X14626729Y-22843150D01*
X14626729Y-22843150D02*
X14617206Y-22824103D01*
X14617206Y-22824103D02*
X14617206Y-22814579D01*
X14617206Y-22814579D02*
X14626729Y-22795531D01*
X14626729Y-22795531D02*
X14636253Y-22786008D01*
X14636253Y-22786008D02*
X14655301Y-22776484D01*
X14655301Y-22776484D02*
X14693396Y-22776484D01*
X14693396Y-22776484D02*
X14712444Y-22786008D01*
X14712444Y-22786008D02*
X14721968Y-22795531D01*
X14721968Y-22795531D02*
X14731491Y-22814579D01*
X14731491Y-22814579D02*
X14731491Y-22824103D01*
X14731491Y-22824103D02*
X14721968Y-22843150D01*
X14721968Y-22843150D02*
X14712444Y-22852674D01*
X14712444Y-22852674D02*
X14693396Y-22862198D01*
X14693396Y-22862198D02*
X14655301Y-22862198D01*
X14655301Y-22862198D02*
X14636253Y-22871722D01*
X14636253Y-22871722D02*
X14626729Y-22881246D01*
X14626729Y-22881246D02*
X14617206Y-22900293D01*
X14617206Y-22900293D02*
X14617206Y-22938388D01*
X14617206Y-22938388D02*
X14626729Y-22957436D01*
X14626729Y-22957436D02*
X14636253Y-22966960D01*
X14636253Y-22966960D02*
X14655301Y-22976484D01*
X14655301Y-22976484D02*
X14693396Y-22976484D01*
X14693396Y-22976484D02*
X14712444Y-22966960D01*
X14712444Y-22966960D02*
X14721968Y-22957436D01*
X14721968Y-22957436D02*
X14731491Y-22938388D01*
X14731491Y-22938388D02*
X14731491Y-22900293D01*
X14731491Y-22900293D02*
X14721968Y-22881246D01*
X14721968Y-22881246D02*
X14712444Y-22871722D01*
X14712444Y-22871722D02*
X14693396Y-22862198D01*
X14969587Y-22976484D02*
X14969587Y-22776484D01*
X15055301Y-22976484D02*
X15055301Y-22871722D01*
X15055301Y-22871722D02*
X15045777Y-22852674D01*
X15045777Y-22852674D02*
X15026730Y-22843150D01*
X15026730Y-22843150D02*
X14998158Y-22843150D01*
X14998158Y-22843150D02*
X14979110Y-22852674D01*
X14979110Y-22852674D02*
X14969587Y-22862198D01*
X15179110Y-22976484D02*
X15160063Y-22966960D01*
X15160063Y-22966960D02*
X15150539Y-22957436D01*
X15150539Y-22957436D02*
X15141015Y-22938388D01*
X15141015Y-22938388D02*
X15141015Y-22881246D01*
X15141015Y-22881246D02*
X15150539Y-22862198D01*
X15150539Y-22862198D02*
X15160063Y-22852674D01*
X15160063Y-22852674D02*
X15179110Y-22843150D01*
X15179110Y-22843150D02*
X15207682Y-22843150D01*
X15207682Y-22843150D02*
X15226730Y-22852674D01*
X15226730Y-22852674D02*
X15236253Y-22862198D01*
X15236253Y-22862198D02*
X15245777Y-22881246D01*
X15245777Y-22881246D02*
X15245777Y-22938388D01*
X15245777Y-22938388D02*
X15236253Y-22957436D01*
X15236253Y-22957436D02*
X15226730Y-22966960D01*
X15226730Y-22966960D02*
X15207682Y-22976484D01*
X15207682Y-22976484D02*
X15179110Y-22976484D01*
X15360063Y-22976484D02*
X15341015Y-22966960D01*
X15341015Y-22966960D02*
X15331491Y-22947912D01*
X15331491Y-22947912D02*
X15331491Y-22776484D01*
X15512444Y-22966960D02*
X15493396Y-22976484D01*
X15493396Y-22976484D02*
X15455301Y-22976484D01*
X15455301Y-22976484D02*
X15436253Y-22966960D01*
X15436253Y-22966960D02*
X15426730Y-22947912D01*
X15426730Y-22947912D02*
X15426730Y-22871722D01*
X15426730Y-22871722D02*
X15436253Y-22852674D01*
X15436253Y-22852674D02*
X15455301Y-22843150D01*
X15455301Y-22843150D02*
X15493396Y-22843150D01*
X15493396Y-22843150D02*
X15512444Y-22852674D01*
X15512444Y-22852674D02*
X15521968Y-22871722D01*
X15521968Y-22871722D02*
X15521968Y-22890769D01*
X15521968Y-22890769D02*
X15426730Y-22909817D01*
X15598158Y-22966960D02*
X15617206Y-22976484D01*
X15617206Y-22976484D02*
X15655301Y-22976484D01*
X15655301Y-22976484D02*
X15674349Y-22966960D01*
X15674349Y-22966960D02*
X15683872Y-22947912D01*
X15683872Y-22947912D02*
X15683872Y-22938388D01*
X15683872Y-22938388D02*
X15674349Y-22919341D01*
X15674349Y-22919341D02*
X15655301Y-22909817D01*
X15655301Y-22909817D02*
X15626730Y-22909817D01*
X15626730Y-22909817D02*
X15607682Y-22900293D01*
X15607682Y-22900293D02*
X15598158Y-22881246D01*
X15598158Y-22881246D02*
X15598158Y-22871722D01*
X15598158Y-22871722D02*
X15607682Y-22852674D01*
X15607682Y-22852674D02*
X15626730Y-22843150D01*
X15626730Y-22843150D02*
X15655301Y-22843150D01*
X15655301Y-22843150D02*
X15674349Y-22852674D01*
X15750539Y-23052674D02*
X15760063Y-23043150D01*
X15760063Y-23043150D02*
X15779111Y-23014579D01*
X15779111Y-23014579D02*
X15788634Y-22995531D01*
X15788634Y-22995531D02*
X15798158Y-22966960D01*
X15798158Y-22966960D02*
X15807682Y-22919341D01*
X15807682Y-22919341D02*
X15807682Y-22881246D01*
X15807682Y-22881246D02*
X15798158Y-22833627D01*
X15798158Y-22833627D02*
X15788634Y-22805055D01*
X15788634Y-22805055D02*
X15779111Y-22786008D01*
X15779111Y-22786008D02*
X15760063Y-22757436D01*
X15760063Y-22757436D02*
X15750539Y-22747912D01*
X16112444Y-23052674D02*
X16102920Y-23043150D01*
X16102920Y-23043150D02*
X16083872Y-23014579D01*
X16083872Y-23014579D02*
X16074349Y-22995531D01*
X16074349Y-22995531D02*
X16064825Y-22966960D01*
X16064825Y-22966960D02*
X16055301Y-22919341D01*
X16055301Y-22919341D02*
X16055301Y-22881246D01*
X16055301Y-22881246D02*
X16064825Y-22833627D01*
X16064825Y-22833627D02*
X16074349Y-22805055D01*
X16074349Y-22805055D02*
X16083872Y-22786008D01*
X16083872Y-22786008D02*
X16102920Y-22757436D01*
X16102920Y-22757436D02*
X16112444Y-22747912D01*
X16188634Y-22843150D02*
X16188634Y-22976484D01*
X16188634Y-22862198D02*
X16198158Y-22852674D01*
X16198158Y-22852674D02*
X16217206Y-22843150D01*
X16217206Y-22843150D02*
X16245777Y-22843150D01*
X16245777Y-22843150D02*
X16264825Y-22852674D01*
X16264825Y-22852674D02*
X16274349Y-22871722D01*
X16274349Y-22871722D02*
X16274349Y-22976484D01*
X16398158Y-22976484D02*
X16379111Y-22966960D01*
X16379111Y-22966960D02*
X16369587Y-22957436D01*
X16369587Y-22957436D02*
X16360063Y-22938388D01*
X16360063Y-22938388D02*
X16360063Y-22881246D01*
X16360063Y-22881246D02*
X16369587Y-22862198D01*
X16369587Y-22862198D02*
X16379111Y-22852674D01*
X16379111Y-22852674D02*
X16398158Y-22843150D01*
X16398158Y-22843150D02*
X16426730Y-22843150D01*
X16426730Y-22843150D02*
X16445777Y-22852674D01*
X16445777Y-22852674D02*
X16455301Y-22862198D01*
X16455301Y-22862198D02*
X16464825Y-22881246D01*
X16464825Y-22881246D02*
X16464825Y-22938388D01*
X16464825Y-22938388D02*
X16455301Y-22957436D01*
X16455301Y-22957436D02*
X16445777Y-22966960D01*
X16445777Y-22966960D02*
X16426730Y-22976484D01*
X16426730Y-22976484D02*
X16398158Y-22976484D01*
X16521968Y-22843150D02*
X16598158Y-22843150D01*
X16550539Y-22776484D02*
X16550539Y-22947912D01*
X16550539Y-22947912D02*
X16560063Y-22966960D01*
X16560063Y-22966960D02*
X16579111Y-22976484D01*
X16579111Y-22976484D02*
X16598158Y-22976484D01*
X16817206Y-22843150D02*
X16817206Y-23043150D01*
X16817206Y-22852674D02*
X16836254Y-22843150D01*
X16836254Y-22843150D02*
X16874349Y-22843150D01*
X16874349Y-22843150D02*
X16893396Y-22852674D01*
X16893396Y-22852674D02*
X16902920Y-22862198D01*
X16902920Y-22862198D02*
X16912444Y-22881246D01*
X16912444Y-22881246D02*
X16912444Y-22938388D01*
X16912444Y-22938388D02*
X16902920Y-22957436D01*
X16902920Y-22957436D02*
X16893396Y-22966960D01*
X16893396Y-22966960D02*
X16874349Y-22976484D01*
X16874349Y-22976484D02*
X16836254Y-22976484D01*
X16836254Y-22976484D02*
X16817206Y-22966960D01*
X17026730Y-22976484D02*
X17007682Y-22966960D01*
X17007682Y-22966960D02*
X16998158Y-22947912D01*
X16998158Y-22947912D02*
X16998158Y-22776484D01*
X17188635Y-22976484D02*
X17188635Y-22871722D01*
X17188635Y-22871722D02*
X17179111Y-22852674D01*
X17179111Y-22852674D02*
X17160063Y-22843150D01*
X17160063Y-22843150D02*
X17121968Y-22843150D01*
X17121968Y-22843150D02*
X17102920Y-22852674D01*
X17188635Y-22966960D02*
X17169587Y-22976484D01*
X17169587Y-22976484D02*
X17121968Y-22976484D01*
X17121968Y-22976484D02*
X17102920Y-22966960D01*
X17102920Y-22966960D02*
X17093396Y-22947912D01*
X17093396Y-22947912D02*
X17093396Y-22928865D01*
X17093396Y-22928865D02*
X17102920Y-22909817D01*
X17102920Y-22909817D02*
X17121968Y-22900293D01*
X17121968Y-22900293D02*
X17169587Y-22900293D01*
X17169587Y-22900293D02*
X17188635Y-22890769D01*
X17255301Y-22843150D02*
X17331492Y-22843150D01*
X17283873Y-22776484D02*
X17283873Y-22947912D01*
X17283873Y-22947912D02*
X17293396Y-22966960D01*
X17293396Y-22966960D02*
X17312444Y-22976484D01*
X17312444Y-22976484D02*
X17331492Y-22976484D01*
X17474349Y-22966960D02*
X17455301Y-22976484D01*
X17455301Y-22976484D02*
X17417206Y-22976484D01*
X17417206Y-22976484D02*
X17398158Y-22966960D01*
X17398158Y-22966960D02*
X17388635Y-22947912D01*
X17388635Y-22947912D02*
X17388635Y-22871722D01*
X17388635Y-22871722D02*
X17398158Y-22852674D01*
X17398158Y-22852674D02*
X17417206Y-22843150D01*
X17417206Y-22843150D02*
X17455301Y-22843150D01*
X17455301Y-22843150D02*
X17474349Y-22852674D01*
X17474349Y-22852674D02*
X17483873Y-22871722D01*
X17483873Y-22871722D02*
X17483873Y-22890769D01*
X17483873Y-22890769D02*
X17388635Y-22909817D01*
X17655301Y-22976484D02*
X17655301Y-22776484D01*
X17655301Y-22966960D02*
X17636254Y-22976484D01*
X17636254Y-22976484D02*
X17598158Y-22976484D01*
X17598158Y-22976484D02*
X17579111Y-22966960D01*
X17579111Y-22966960D02*
X17569587Y-22957436D01*
X17569587Y-22957436D02*
X17560063Y-22938388D01*
X17560063Y-22938388D02*
X17560063Y-22881246D01*
X17560063Y-22881246D02*
X17569587Y-22862198D01*
X17569587Y-22862198D02*
X17579111Y-22852674D01*
X17579111Y-22852674D02*
X17598158Y-22843150D01*
X17598158Y-22843150D02*
X17636254Y-22843150D01*
X17636254Y-22843150D02*
X17655301Y-22852674D01*
X17731492Y-23052674D02*
X17741016Y-23043150D01*
X17741016Y-23043150D02*
X17760063Y-23014579D01*
X17760063Y-23014579D02*
X17769587Y-22995531D01*
X17769587Y-22995531D02*
X17779111Y-22966960D01*
X17779111Y-22966960D02*
X17788635Y-22919341D01*
X17788635Y-22919341D02*
X17788635Y-22881246D01*
X17788635Y-22881246D02*
X17779111Y-22833627D01*
X17779111Y-22833627D02*
X17769587Y-22805055D01*
X17769587Y-22805055D02*
X17760063Y-22786008D01*
X17760063Y-22786008D02*
X17741016Y-22757436D01*
X17741016Y-22757436D02*
X17731492Y-22747912D01*
X10785000Y-23180000D02*
G75*
G02*
X10585000Y-23180000I-100000J0D01*
G01*
X10585000Y-23180000D02*
G75*
G02*
X10785000Y-23180000I100000J0D01*
G01*
X11026729Y-23071484D02*
X11150539Y-23071484D01*
X11150539Y-23071484D02*
X11083872Y-23147674D01*
X11083872Y-23147674D02*
X11112444Y-23147674D01*
X11112444Y-23147674D02*
X11131491Y-23157198D01*
X11131491Y-23157198D02*
X11141015Y-23166722D01*
X11141015Y-23166722D02*
X11150539Y-23185769D01*
X11150539Y-23185769D02*
X11150539Y-23233388D01*
X11150539Y-23233388D02*
X11141015Y-23252436D01*
X11141015Y-23252436D02*
X11131491Y-23261960D01*
X11131491Y-23261960D02*
X11112444Y-23271484D01*
X11112444Y-23271484D02*
X11055301Y-23271484D01*
X11055301Y-23271484D02*
X11036253Y-23261960D01*
X11036253Y-23261960D02*
X11026729Y-23252436D01*
X11236253Y-23252436D02*
X11245777Y-23261960D01*
X11245777Y-23261960D02*
X11236253Y-23271484D01*
X11236253Y-23271484D02*
X11226729Y-23261960D01*
X11226729Y-23261960D02*
X11236253Y-23252436D01*
X11236253Y-23252436D02*
X11236253Y-23271484D01*
X11321967Y-23090531D02*
X11331491Y-23081008D01*
X11331491Y-23081008D02*
X11350539Y-23071484D01*
X11350539Y-23071484D02*
X11398158Y-23071484D01*
X11398158Y-23071484D02*
X11417205Y-23081008D01*
X11417205Y-23081008D02*
X11426729Y-23090531D01*
X11426729Y-23090531D02*
X11436253Y-23109579D01*
X11436253Y-23109579D02*
X11436253Y-23128627D01*
X11436253Y-23128627D02*
X11426729Y-23157198D01*
X11426729Y-23157198D02*
X11312443Y-23271484D01*
X11312443Y-23271484D02*
X11436253Y-23271484D01*
X11560062Y-23071484D02*
X11579110Y-23071484D01*
X11579110Y-23071484D02*
X11598158Y-23081008D01*
X11598158Y-23081008D02*
X11607682Y-23090531D01*
X11607682Y-23090531D02*
X11617205Y-23109579D01*
X11617205Y-23109579D02*
X11626729Y-23147674D01*
X11626729Y-23147674D02*
X11626729Y-23195293D01*
X11626729Y-23195293D02*
X11617205Y-23233388D01*
X11617205Y-23233388D02*
X11607682Y-23252436D01*
X11607682Y-23252436D02*
X11598158Y-23261960D01*
X11598158Y-23261960D02*
X11579110Y-23271484D01*
X11579110Y-23271484D02*
X11560062Y-23271484D01*
X11560062Y-23271484D02*
X11541015Y-23261960D01*
X11541015Y-23261960D02*
X11531491Y-23252436D01*
X11531491Y-23252436D02*
X11521967Y-23233388D01*
X11521967Y-23233388D02*
X11512443Y-23195293D01*
X11512443Y-23195293D02*
X11512443Y-23147674D01*
X11512443Y-23147674D02*
X11521967Y-23109579D01*
X11521967Y-23109579D02*
X11531491Y-23090531D01*
X11531491Y-23090531D02*
X11541015Y-23081008D01*
X11541015Y-23081008D02*
X11560062Y-23071484D01*
X11750539Y-23071484D02*
X11769586Y-23071484D01*
X11769586Y-23071484D02*
X11788634Y-23081008D01*
X11788634Y-23081008D02*
X11798158Y-23090531D01*
X11798158Y-23090531D02*
X11807682Y-23109579D01*
X11807682Y-23109579D02*
X11817205Y-23147674D01*
X11817205Y-23147674D02*
X11817205Y-23195293D01*
X11817205Y-23195293D02*
X11807682Y-23233388D01*
X11807682Y-23233388D02*
X11798158Y-23252436D01*
X11798158Y-23252436D02*
X11788634Y-23261960D01*
X11788634Y-23261960D02*
X11769586Y-23271484D01*
X11769586Y-23271484D02*
X11750539Y-23271484D01*
X11750539Y-23271484D02*
X11731491Y-23261960D01*
X11731491Y-23261960D02*
X11721967Y-23252436D01*
X11721967Y-23252436D02*
X11712443Y-23233388D01*
X11712443Y-23233388D02*
X11702920Y-23195293D01*
X11702920Y-23195293D02*
X11702920Y-23147674D01*
X11702920Y-23147674D02*
X11712443Y-23109579D01*
X11712443Y-23109579D02*
X11721967Y-23090531D01*
X11721967Y-23090531D02*
X11731491Y-23081008D01*
X11731491Y-23081008D02*
X11750539Y-23071484D01*
X11902920Y-23271484D02*
X11902920Y-23138150D01*
X11902920Y-23157198D02*
X11912443Y-23147674D01*
X11912443Y-23147674D02*
X11931491Y-23138150D01*
X11931491Y-23138150D02*
X11960063Y-23138150D01*
X11960063Y-23138150D02*
X11979110Y-23147674D01*
X11979110Y-23147674D02*
X11988634Y-23166722D01*
X11988634Y-23166722D02*
X11988634Y-23271484D01*
X11988634Y-23166722D02*
X11998158Y-23147674D01*
X11998158Y-23147674D02*
X12017205Y-23138150D01*
X12017205Y-23138150D02*
X12045777Y-23138150D01*
X12045777Y-23138150D02*
X12064824Y-23147674D01*
X12064824Y-23147674D02*
X12074348Y-23166722D01*
X12074348Y-23166722D02*
X12074348Y-23271484D01*
X12169586Y-23271484D02*
X12169586Y-23138150D01*
X12169586Y-23157198D02*
X12179110Y-23147674D01*
X12179110Y-23147674D02*
X12198158Y-23138150D01*
X12198158Y-23138150D02*
X12226729Y-23138150D01*
X12226729Y-23138150D02*
X12245777Y-23147674D01*
X12245777Y-23147674D02*
X12255301Y-23166722D01*
X12255301Y-23166722D02*
X12255301Y-23271484D01*
X12255301Y-23166722D02*
X12264824Y-23147674D01*
X12264824Y-23147674D02*
X12283872Y-23138150D01*
X12283872Y-23138150D02*
X12312443Y-23138150D01*
X12312443Y-23138150D02*
X12331491Y-23147674D01*
X12331491Y-23147674D02*
X12341015Y-23166722D01*
X12341015Y-23166722D02*
X12341015Y-23271484D01*
X12731491Y-23061960D02*
X12560063Y-23319103D01*
X12988634Y-23071484D02*
X13007682Y-23071484D01*
X13007682Y-23071484D02*
X13026729Y-23081008D01*
X13026729Y-23081008D02*
X13036253Y-23090531D01*
X13036253Y-23090531D02*
X13045777Y-23109579D01*
X13045777Y-23109579D02*
X13055301Y-23147674D01*
X13055301Y-23147674D02*
X13055301Y-23195293D01*
X13055301Y-23195293D02*
X13045777Y-23233388D01*
X13045777Y-23233388D02*
X13036253Y-23252436D01*
X13036253Y-23252436D02*
X13026729Y-23261960D01*
X13026729Y-23261960D02*
X13007682Y-23271484D01*
X13007682Y-23271484D02*
X12988634Y-23271484D01*
X12988634Y-23271484D02*
X12969586Y-23261960D01*
X12969586Y-23261960D02*
X12960063Y-23252436D01*
X12960063Y-23252436D02*
X12950539Y-23233388D01*
X12950539Y-23233388D02*
X12941015Y-23195293D01*
X12941015Y-23195293D02*
X12941015Y-23147674D01*
X12941015Y-23147674D02*
X12950539Y-23109579D01*
X12950539Y-23109579D02*
X12960063Y-23090531D01*
X12960063Y-23090531D02*
X12969586Y-23081008D01*
X12969586Y-23081008D02*
X12988634Y-23071484D01*
X13141015Y-23252436D02*
X13150539Y-23261960D01*
X13150539Y-23261960D02*
X13141015Y-23271484D01*
X13141015Y-23271484D02*
X13131491Y-23261960D01*
X13131491Y-23261960D02*
X13141015Y-23252436D01*
X13141015Y-23252436D02*
X13141015Y-23271484D01*
X13341015Y-23271484D02*
X13226729Y-23271484D01*
X13283872Y-23271484D02*
X13283872Y-23071484D01*
X13283872Y-23071484D02*
X13264825Y-23100055D01*
X13264825Y-23100055D02*
X13245777Y-23119103D01*
X13245777Y-23119103D02*
X13226729Y-23128627D01*
X13417206Y-23090531D02*
X13426729Y-23081008D01*
X13426729Y-23081008D02*
X13445777Y-23071484D01*
X13445777Y-23071484D02*
X13493396Y-23071484D01*
X13493396Y-23071484D02*
X13512444Y-23081008D01*
X13512444Y-23081008D02*
X13521967Y-23090531D01*
X13521967Y-23090531D02*
X13531491Y-23109579D01*
X13531491Y-23109579D02*
X13531491Y-23128627D01*
X13531491Y-23128627D02*
X13521967Y-23157198D01*
X13521967Y-23157198D02*
X13407682Y-23271484D01*
X13407682Y-23271484D02*
X13531491Y-23271484D01*
X13702920Y-23071484D02*
X13664825Y-23071484D01*
X13664825Y-23071484D02*
X13645777Y-23081008D01*
X13645777Y-23081008D02*
X13636253Y-23090531D01*
X13636253Y-23090531D02*
X13617206Y-23119103D01*
X13617206Y-23119103D02*
X13607682Y-23157198D01*
X13607682Y-23157198D02*
X13607682Y-23233388D01*
X13607682Y-23233388D02*
X13617206Y-23252436D01*
X13617206Y-23252436D02*
X13626729Y-23261960D01*
X13626729Y-23261960D02*
X13645777Y-23271484D01*
X13645777Y-23271484D02*
X13683872Y-23271484D01*
X13683872Y-23271484D02*
X13702920Y-23261960D01*
X13702920Y-23261960D02*
X13712444Y-23252436D01*
X13712444Y-23252436D02*
X13721967Y-23233388D01*
X13721967Y-23233388D02*
X13721967Y-23185769D01*
X13721967Y-23185769D02*
X13712444Y-23166722D01*
X13712444Y-23166722D02*
X13702920Y-23157198D01*
X13702920Y-23157198D02*
X13683872Y-23147674D01*
X13683872Y-23147674D02*
X13645777Y-23147674D01*
X13645777Y-23147674D02*
X13626729Y-23157198D01*
X13626729Y-23157198D02*
X13617206Y-23166722D01*
X13617206Y-23166722D02*
X13607682Y-23185769D01*
X13845777Y-23071484D02*
X13864825Y-23071484D01*
X13864825Y-23071484D02*
X13883872Y-23081008D01*
X13883872Y-23081008D02*
X13893396Y-23090531D01*
X13893396Y-23090531D02*
X13902920Y-23109579D01*
X13902920Y-23109579D02*
X13912444Y-23147674D01*
X13912444Y-23147674D02*
X13912444Y-23195293D01*
X13912444Y-23195293D02*
X13902920Y-23233388D01*
X13902920Y-23233388D02*
X13893396Y-23252436D01*
X13893396Y-23252436D02*
X13883872Y-23261960D01*
X13883872Y-23261960D02*
X13864825Y-23271484D01*
X13864825Y-23271484D02*
X13845777Y-23271484D01*
X13845777Y-23271484D02*
X13826729Y-23261960D01*
X13826729Y-23261960D02*
X13817206Y-23252436D01*
X13817206Y-23252436D02*
X13807682Y-23233388D01*
X13807682Y-23233388D02*
X13798158Y-23195293D01*
X13798158Y-23195293D02*
X13798158Y-23147674D01*
X13798158Y-23147674D02*
X13807682Y-23109579D01*
X13807682Y-23109579D02*
X13817206Y-23090531D01*
X13817206Y-23090531D02*
X13826729Y-23081008D01*
X13826729Y-23081008D02*
X13845777Y-23071484D01*
X13988634Y-23071484D02*
X13988634Y-23109579D01*
X14064825Y-23071484D02*
X14064825Y-23109579D01*
X14360063Y-23347674D02*
X14350539Y-23338150D01*
X14350539Y-23338150D02*
X14331491Y-23309579D01*
X14331491Y-23309579D02*
X14321968Y-23290531D01*
X14321968Y-23290531D02*
X14312444Y-23261960D01*
X14312444Y-23261960D02*
X14302920Y-23214341D01*
X14302920Y-23214341D02*
X14302920Y-23176246D01*
X14302920Y-23176246D02*
X14312444Y-23128627D01*
X14312444Y-23128627D02*
X14321968Y-23100055D01*
X14321968Y-23100055D02*
X14331491Y-23081008D01*
X14331491Y-23081008D02*
X14350539Y-23052436D01*
X14350539Y-23052436D02*
X14360063Y-23042912D01*
X14521968Y-23071484D02*
X14483872Y-23071484D01*
X14483872Y-23071484D02*
X14464825Y-23081008D01*
X14464825Y-23081008D02*
X14455301Y-23090531D01*
X14455301Y-23090531D02*
X14436253Y-23119103D01*
X14436253Y-23119103D02*
X14426729Y-23157198D01*
X14426729Y-23157198D02*
X14426729Y-23233388D01*
X14426729Y-23233388D02*
X14436253Y-23252436D01*
X14436253Y-23252436D02*
X14445777Y-23261960D01*
X14445777Y-23261960D02*
X14464825Y-23271484D01*
X14464825Y-23271484D02*
X14502920Y-23271484D01*
X14502920Y-23271484D02*
X14521968Y-23261960D01*
X14521968Y-23261960D02*
X14531491Y-23252436D01*
X14531491Y-23252436D02*
X14541015Y-23233388D01*
X14541015Y-23233388D02*
X14541015Y-23185769D01*
X14541015Y-23185769D02*
X14531491Y-23166722D01*
X14531491Y-23166722D02*
X14521968Y-23157198D01*
X14521968Y-23157198D02*
X14502920Y-23147674D01*
X14502920Y-23147674D02*
X14464825Y-23147674D01*
X14464825Y-23147674D02*
X14445777Y-23157198D01*
X14445777Y-23157198D02*
X14436253Y-23166722D01*
X14436253Y-23166722D02*
X14426729Y-23185769D01*
X14779110Y-23271484D02*
X14779110Y-23071484D01*
X14864825Y-23271484D02*
X14864825Y-23166722D01*
X14864825Y-23166722D02*
X14855301Y-23147674D01*
X14855301Y-23147674D02*
X14836253Y-23138150D01*
X14836253Y-23138150D02*
X14807682Y-23138150D01*
X14807682Y-23138150D02*
X14788634Y-23147674D01*
X14788634Y-23147674D02*
X14779110Y-23157198D01*
X14988634Y-23271484D02*
X14969587Y-23261960D01*
X14969587Y-23261960D02*
X14960063Y-23252436D01*
X14960063Y-23252436D02*
X14950539Y-23233388D01*
X14950539Y-23233388D02*
X14950539Y-23176246D01*
X14950539Y-23176246D02*
X14960063Y-23157198D01*
X14960063Y-23157198D02*
X14969587Y-23147674D01*
X14969587Y-23147674D02*
X14988634Y-23138150D01*
X14988634Y-23138150D02*
X15017206Y-23138150D01*
X15017206Y-23138150D02*
X15036253Y-23147674D01*
X15036253Y-23147674D02*
X15045777Y-23157198D01*
X15045777Y-23157198D02*
X15055301Y-23176246D01*
X15055301Y-23176246D02*
X15055301Y-23233388D01*
X15055301Y-23233388D02*
X15045777Y-23252436D01*
X15045777Y-23252436D02*
X15036253Y-23261960D01*
X15036253Y-23261960D02*
X15017206Y-23271484D01*
X15017206Y-23271484D02*
X14988634Y-23271484D01*
X15169587Y-23271484D02*
X15150539Y-23261960D01*
X15150539Y-23261960D02*
X15141015Y-23242912D01*
X15141015Y-23242912D02*
X15141015Y-23071484D01*
X15321968Y-23261960D02*
X15302920Y-23271484D01*
X15302920Y-23271484D02*
X15264825Y-23271484D01*
X15264825Y-23271484D02*
X15245777Y-23261960D01*
X15245777Y-23261960D02*
X15236253Y-23242912D01*
X15236253Y-23242912D02*
X15236253Y-23166722D01*
X15236253Y-23166722D02*
X15245777Y-23147674D01*
X15245777Y-23147674D02*
X15264825Y-23138150D01*
X15264825Y-23138150D02*
X15302920Y-23138150D01*
X15302920Y-23138150D02*
X15321968Y-23147674D01*
X15321968Y-23147674D02*
X15331491Y-23166722D01*
X15331491Y-23166722D02*
X15331491Y-23185769D01*
X15331491Y-23185769D02*
X15236253Y-23204817D01*
X15407682Y-23261960D02*
X15426730Y-23271484D01*
X15426730Y-23271484D02*
X15464825Y-23271484D01*
X15464825Y-23271484D02*
X15483872Y-23261960D01*
X15483872Y-23261960D02*
X15493396Y-23242912D01*
X15493396Y-23242912D02*
X15493396Y-23233388D01*
X15493396Y-23233388D02*
X15483872Y-23214341D01*
X15483872Y-23214341D02*
X15464825Y-23204817D01*
X15464825Y-23204817D02*
X15436253Y-23204817D01*
X15436253Y-23204817D02*
X15417206Y-23195293D01*
X15417206Y-23195293D02*
X15407682Y-23176246D01*
X15407682Y-23176246D02*
X15407682Y-23166722D01*
X15407682Y-23166722D02*
X15417206Y-23147674D01*
X15417206Y-23147674D02*
X15436253Y-23138150D01*
X15436253Y-23138150D02*
X15464825Y-23138150D01*
X15464825Y-23138150D02*
X15483872Y-23147674D01*
X15560063Y-23347674D02*
X15569587Y-23338150D01*
X15569587Y-23338150D02*
X15588634Y-23309579D01*
X15588634Y-23309579D02*
X15598158Y-23290531D01*
X15598158Y-23290531D02*
X15607682Y-23261960D01*
X15607682Y-23261960D02*
X15617206Y-23214341D01*
X15617206Y-23214341D02*
X15617206Y-23176246D01*
X15617206Y-23176246D02*
X15607682Y-23128627D01*
X15607682Y-23128627D02*
X15598158Y-23100055D01*
X15598158Y-23100055D02*
X15588634Y-23081008D01*
X15588634Y-23081008D02*
X15569587Y-23052436D01*
X15569587Y-23052436D02*
X15560063Y-23042912D01*
X15921968Y-23347674D02*
X15912444Y-23338150D01*
X15912444Y-23338150D02*
X15893396Y-23309579D01*
X15893396Y-23309579D02*
X15883872Y-23290531D01*
X15883872Y-23290531D02*
X15874349Y-23261960D01*
X15874349Y-23261960D02*
X15864825Y-23214341D01*
X15864825Y-23214341D02*
X15864825Y-23176246D01*
X15864825Y-23176246D02*
X15874349Y-23128627D01*
X15874349Y-23128627D02*
X15883872Y-23100055D01*
X15883872Y-23100055D02*
X15893396Y-23081008D01*
X15893396Y-23081008D02*
X15912444Y-23052436D01*
X15912444Y-23052436D02*
X15921968Y-23042912D01*
X15998158Y-23138150D02*
X15998158Y-23271484D01*
X15998158Y-23157198D02*
X16007682Y-23147674D01*
X16007682Y-23147674D02*
X16026730Y-23138150D01*
X16026730Y-23138150D02*
X16055301Y-23138150D01*
X16055301Y-23138150D02*
X16074349Y-23147674D01*
X16074349Y-23147674D02*
X16083872Y-23166722D01*
X16083872Y-23166722D02*
X16083872Y-23271484D01*
X16207682Y-23271484D02*
X16188634Y-23261960D01*
X16188634Y-23261960D02*
X16179111Y-23252436D01*
X16179111Y-23252436D02*
X16169587Y-23233388D01*
X16169587Y-23233388D02*
X16169587Y-23176246D01*
X16169587Y-23176246D02*
X16179111Y-23157198D01*
X16179111Y-23157198D02*
X16188634Y-23147674D01*
X16188634Y-23147674D02*
X16207682Y-23138150D01*
X16207682Y-23138150D02*
X16236253Y-23138150D01*
X16236253Y-23138150D02*
X16255301Y-23147674D01*
X16255301Y-23147674D02*
X16264825Y-23157198D01*
X16264825Y-23157198D02*
X16274349Y-23176246D01*
X16274349Y-23176246D02*
X16274349Y-23233388D01*
X16274349Y-23233388D02*
X16264825Y-23252436D01*
X16264825Y-23252436D02*
X16255301Y-23261960D01*
X16255301Y-23261960D02*
X16236253Y-23271484D01*
X16236253Y-23271484D02*
X16207682Y-23271484D01*
X16331492Y-23138150D02*
X16407682Y-23138150D01*
X16360063Y-23071484D02*
X16360063Y-23242912D01*
X16360063Y-23242912D02*
X16369587Y-23261960D01*
X16369587Y-23261960D02*
X16388634Y-23271484D01*
X16388634Y-23271484D02*
X16407682Y-23271484D01*
X16626730Y-23138150D02*
X16626730Y-23338150D01*
X16626730Y-23147674D02*
X16645777Y-23138150D01*
X16645777Y-23138150D02*
X16683873Y-23138150D01*
X16683873Y-23138150D02*
X16702920Y-23147674D01*
X16702920Y-23147674D02*
X16712444Y-23157198D01*
X16712444Y-23157198D02*
X16721968Y-23176246D01*
X16721968Y-23176246D02*
X16721968Y-23233388D01*
X16721968Y-23233388D02*
X16712444Y-23252436D01*
X16712444Y-23252436D02*
X16702920Y-23261960D01*
X16702920Y-23261960D02*
X16683873Y-23271484D01*
X16683873Y-23271484D02*
X16645777Y-23271484D01*
X16645777Y-23271484D02*
X16626730Y-23261960D01*
X16836254Y-23271484D02*
X16817206Y-23261960D01*
X16817206Y-23261960D02*
X16807682Y-23242912D01*
X16807682Y-23242912D02*
X16807682Y-23071484D01*
X16998158Y-23271484D02*
X16998158Y-23166722D01*
X16998158Y-23166722D02*
X16988635Y-23147674D01*
X16988635Y-23147674D02*
X16969587Y-23138150D01*
X16969587Y-23138150D02*
X16931492Y-23138150D01*
X16931492Y-23138150D02*
X16912444Y-23147674D01*
X16998158Y-23261960D02*
X16979111Y-23271484D01*
X16979111Y-23271484D02*
X16931492Y-23271484D01*
X16931492Y-23271484D02*
X16912444Y-23261960D01*
X16912444Y-23261960D02*
X16902920Y-23242912D01*
X16902920Y-23242912D02*
X16902920Y-23223865D01*
X16902920Y-23223865D02*
X16912444Y-23204817D01*
X16912444Y-23204817D02*
X16931492Y-23195293D01*
X16931492Y-23195293D02*
X16979111Y-23195293D01*
X16979111Y-23195293D02*
X16998158Y-23185769D01*
X17064825Y-23138150D02*
X17141015Y-23138150D01*
X17093396Y-23071484D02*
X17093396Y-23242912D01*
X17093396Y-23242912D02*
X17102920Y-23261960D01*
X17102920Y-23261960D02*
X17121968Y-23271484D01*
X17121968Y-23271484D02*
X17141015Y-23271484D01*
X17283873Y-23261960D02*
X17264825Y-23271484D01*
X17264825Y-23271484D02*
X17226730Y-23271484D01*
X17226730Y-23271484D02*
X17207682Y-23261960D01*
X17207682Y-23261960D02*
X17198158Y-23242912D01*
X17198158Y-23242912D02*
X17198158Y-23166722D01*
X17198158Y-23166722D02*
X17207682Y-23147674D01*
X17207682Y-23147674D02*
X17226730Y-23138150D01*
X17226730Y-23138150D02*
X17264825Y-23138150D01*
X17264825Y-23138150D02*
X17283873Y-23147674D01*
X17283873Y-23147674D02*
X17293396Y-23166722D01*
X17293396Y-23166722D02*
X17293396Y-23185769D01*
X17293396Y-23185769D02*
X17198158Y-23204817D01*
X17464825Y-23271484D02*
X17464825Y-23071484D01*
X17464825Y-23261960D02*
X17445777Y-23271484D01*
X17445777Y-23271484D02*
X17407682Y-23271484D01*
X17407682Y-23271484D02*
X17388635Y-23261960D01*
X17388635Y-23261960D02*
X17379111Y-23252436D01*
X17379111Y-23252436D02*
X17369587Y-23233388D01*
X17369587Y-23233388D02*
X17369587Y-23176246D01*
X17369587Y-23176246D02*
X17379111Y-23157198D01*
X17379111Y-23157198D02*
X17388635Y-23147674D01*
X17388635Y-23147674D02*
X17407682Y-23138150D01*
X17407682Y-23138150D02*
X17445777Y-23138150D01*
X17445777Y-23138150D02*
X17464825Y-23147674D01*
X17541016Y-23347674D02*
X17550539Y-23338150D01*
X17550539Y-23338150D02*
X17569587Y-23309579D01*
X17569587Y-23309579D02*
X17579111Y-23290531D01*
X17579111Y-23290531D02*
X17588635Y-23261960D01*
X17588635Y-23261960D02*
X17598158Y-23214341D01*
X17598158Y-23214341D02*
X17598158Y-23176246D01*
X17598158Y-23176246D02*
X17588635Y-23128627D01*
X17588635Y-23128627D02*
X17579111Y-23100055D01*
X17579111Y-23100055D02*
X17569587Y-23081008D01*
X17569587Y-23081008D02*
X17550539Y-23052436D01*
X17550539Y-23052436D02*
X17541016Y-23042912D01*
X10685000Y-23400000D02*
X10685000Y-23600000D01*
X10585000Y-23500000D02*
X10785000Y-23500000D01*
X11131491Y-23458150D02*
X11131491Y-23591484D01*
X11083872Y-23381960D02*
X11036253Y-23524817D01*
X11036253Y-23524817D02*
X11160063Y-23524817D01*
X11236253Y-23572436D02*
X11245777Y-23581960D01*
X11245777Y-23581960D02*
X11236253Y-23591484D01*
X11236253Y-23591484D02*
X11226729Y-23581960D01*
X11226729Y-23581960D02*
X11236253Y-23572436D01*
X11236253Y-23572436D02*
X11236253Y-23591484D01*
X11369586Y-23391484D02*
X11388634Y-23391484D01*
X11388634Y-23391484D02*
X11407682Y-23401008D01*
X11407682Y-23401008D02*
X11417205Y-23410531D01*
X11417205Y-23410531D02*
X11426729Y-23429579D01*
X11426729Y-23429579D02*
X11436253Y-23467674D01*
X11436253Y-23467674D02*
X11436253Y-23515293D01*
X11436253Y-23515293D02*
X11426729Y-23553388D01*
X11426729Y-23553388D02*
X11417205Y-23572436D01*
X11417205Y-23572436D02*
X11407682Y-23581960D01*
X11407682Y-23581960D02*
X11388634Y-23591484D01*
X11388634Y-23591484D02*
X11369586Y-23591484D01*
X11369586Y-23591484D02*
X11350539Y-23581960D01*
X11350539Y-23581960D02*
X11341015Y-23572436D01*
X11341015Y-23572436D02*
X11331491Y-23553388D01*
X11331491Y-23553388D02*
X11321967Y-23515293D01*
X11321967Y-23515293D02*
X11321967Y-23467674D01*
X11321967Y-23467674D02*
X11331491Y-23429579D01*
X11331491Y-23429579D02*
X11341015Y-23410531D01*
X11341015Y-23410531D02*
X11350539Y-23401008D01*
X11350539Y-23401008D02*
X11369586Y-23391484D01*
X11560062Y-23391484D02*
X11579110Y-23391484D01*
X11579110Y-23391484D02*
X11598158Y-23401008D01*
X11598158Y-23401008D02*
X11607682Y-23410531D01*
X11607682Y-23410531D02*
X11617205Y-23429579D01*
X11617205Y-23429579D02*
X11626729Y-23467674D01*
X11626729Y-23467674D02*
X11626729Y-23515293D01*
X11626729Y-23515293D02*
X11617205Y-23553388D01*
X11617205Y-23553388D02*
X11607682Y-23572436D01*
X11607682Y-23572436D02*
X11598158Y-23581960D01*
X11598158Y-23581960D02*
X11579110Y-23591484D01*
X11579110Y-23591484D02*
X11560062Y-23591484D01*
X11560062Y-23591484D02*
X11541015Y-23581960D01*
X11541015Y-23581960D02*
X11531491Y-23572436D01*
X11531491Y-23572436D02*
X11521967Y-23553388D01*
X11521967Y-23553388D02*
X11512443Y-23515293D01*
X11512443Y-23515293D02*
X11512443Y-23467674D01*
X11512443Y-23467674D02*
X11521967Y-23429579D01*
X11521967Y-23429579D02*
X11531491Y-23410531D01*
X11531491Y-23410531D02*
X11541015Y-23401008D01*
X11541015Y-23401008D02*
X11560062Y-23391484D01*
X11750539Y-23391484D02*
X11769586Y-23391484D01*
X11769586Y-23391484D02*
X11788634Y-23401008D01*
X11788634Y-23401008D02*
X11798158Y-23410531D01*
X11798158Y-23410531D02*
X11807682Y-23429579D01*
X11807682Y-23429579D02*
X11817205Y-23467674D01*
X11817205Y-23467674D02*
X11817205Y-23515293D01*
X11817205Y-23515293D02*
X11807682Y-23553388D01*
X11807682Y-23553388D02*
X11798158Y-23572436D01*
X11798158Y-23572436D02*
X11788634Y-23581960D01*
X11788634Y-23581960D02*
X11769586Y-23591484D01*
X11769586Y-23591484D02*
X11750539Y-23591484D01*
X11750539Y-23591484D02*
X11731491Y-23581960D01*
X11731491Y-23581960D02*
X11721967Y-23572436D01*
X11721967Y-23572436D02*
X11712443Y-23553388D01*
X11712443Y-23553388D02*
X11702920Y-23515293D01*
X11702920Y-23515293D02*
X11702920Y-23467674D01*
X11702920Y-23467674D02*
X11712443Y-23429579D01*
X11712443Y-23429579D02*
X11721967Y-23410531D01*
X11721967Y-23410531D02*
X11731491Y-23401008D01*
X11731491Y-23401008D02*
X11750539Y-23391484D01*
X11902920Y-23591484D02*
X11902920Y-23458150D01*
X11902920Y-23477198D02*
X11912443Y-23467674D01*
X11912443Y-23467674D02*
X11931491Y-23458150D01*
X11931491Y-23458150D02*
X11960063Y-23458150D01*
X11960063Y-23458150D02*
X11979110Y-23467674D01*
X11979110Y-23467674D02*
X11988634Y-23486722D01*
X11988634Y-23486722D02*
X11988634Y-23591484D01*
X11988634Y-23486722D02*
X11998158Y-23467674D01*
X11998158Y-23467674D02*
X12017205Y-23458150D01*
X12017205Y-23458150D02*
X12045777Y-23458150D01*
X12045777Y-23458150D02*
X12064824Y-23467674D01*
X12064824Y-23467674D02*
X12074348Y-23486722D01*
X12074348Y-23486722D02*
X12074348Y-23591484D01*
X12169586Y-23591484D02*
X12169586Y-23458150D01*
X12169586Y-23477198D02*
X12179110Y-23467674D01*
X12179110Y-23467674D02*
X12198158Y-23458150D01*
X12198158Y-23458150D02*
X12226729Y-23458150D01*
X12226729Y-23458150D02*
X12245777Y-23467674D01*
X12245777Y-23467674D02*
X12255301Y-23486722D01*
X12255301Y-23486722D02*
X12255301Y-23591484D01*
X12255301Y-23486722D02*
X12264824Y-23467674D01*
X12264824Y-23467674D02*
X12283872Y-23458150D01*
X12283872Y-23458150D02*
X12312443Y-23458150D01*
X12312443Y-23458150D02*
X12331491Y-23467674D01*
X12331491Y-23467674D02*
X12341015Y-23486722D01*
X12341015Y-23486722D02*
X12341015Y-23591484D01*
X12731491Y-23381960D02*
X12560063Y-23639103D01*
X12988634Y-23391484D02*
X13007682Y-23391484D01*
X13007682Y-23391484D02*
X13026729Y-23401008D01*
X13026729Y-23401008D02*
X13036253Y-23410531D01*
X13036253Y-23410531D02*
X13045777Y-23429579D01*
X13045777Y-23429579D02*
X13055301Y-23467674D01*
X13055301Y-23467674D02*
X13055301Y-23515293D01*
X13055301Y-23515293D02*
X13045777Y-23553388D01*
X13045777Y-23553388D02*
X13036253Y-23572436D01*
X13036253Y-23572436D02*
X13026729Y-23581960D01*
X13026729Y-23581960D02*
X13007682Y-23591484D01*
X13007682Y-23591484D02*
X12988634Y-23591484D01*
X12988634Y-23591484D02*
X12969586Y-23581960D01*
X12969586Y-23581960D02*
X12960063Y-23572436D01*
X12960063Y-23572436D02*
X12950539Y-23553388D01*
X12950539Y-23553388D02*
X12941015Y-23515293D01*
X12941015Y-23515293D02*
X12941015Y-23467674D01*
X12941015Y-23467674D02*
X12950539Y-23429579D01*
X12950539Y-23429579D02*
X12960063Y-23410531D01*
X12960063Y-23410531D02*
X12969586Y-23401008D01*
X12969586Y-23401008D02*
X12988634Y-23391484D01*
X13141015Y-23572436D02*
X13150539Y-23581960D01*
X13150539Y-23581960D02*
X13141015Y-23591484D01*
X13141015Y-23591484D02*
X13131491Y-23581960D01*
X13131491Y-23581960D02*
X13141015Y-23572436D01*
X13141015Y-23572436D02*
X13141015Y-23591484D01*
X13341015Y-23591484D02*
X13226729Y-23591484D01*
X13283872Y-23591484D02*
X13283872Y-23391484D01*
X13283872Y-23391484D02*
X13264825Y-23420055D01*
X13264825Y-23420055D02*
X13245777Y-23439103D01*
X13245777Y-23439103D02*
X13226729Y-23448627D01*
X13521967Y-23391484D02*
X13426729Y-23391484D01*
X13426729Y-23391484D02*
X13417206Y-23486722D01*
X13417206Y-23486722D02*
X13426729Y-23477198D01*
X13426729Y-23477198D02*
X13445777Y-23467674D01*
X13445777Y-23467674D02*
X13493396Y-23467674D01*
X13493396Y-23467674D02*
X13512444Y-23477198D01*
X13512444Y-23477198D02*
X13521967Y-23486722D01*
X13521967Y-23486722D02*
X13531491Y-23505769D01*
X13531491Y-23505769D02*
X13531491Y-23553388D01*
X13531491Y-23553388D02*
X13521967Y-23572436D01*
X13521967Y-23572436D02*
X13512444Y-23581960D01*
X13512444Y-23581960D02*
X13493396Y-23591484D01*
X13493396Y-23591484D02*
X13445777Y-23591484D01*
X13445777Y-23591484D02*
X13426729Y-23581960D01*
X13426729Y-23581960D02*
X13417206Y-23572436D01*
X13598158Y-23391484D02*
X13731491Y-23391484D01*
X13731491Y-23391484D02*
X13645777Y-23591484D01*
X13902920Y-23391484D02*
X13807682Y-23391484D01*
X13807682Y-23391484D02*
X13798158Y-23486722D01*
X13798158Y-23486722D02*
X13807682Y-23477198D01*
X13807682Y-23477198D02*
X13826729Y-23467674D01*
X13826729Y-23467674D02*
X13874348Y-23467674D01*
X13874348Y-23467674D02*
X13893396Y-23477198D01*
X13893396Y-23477198D02*
X13902920Y-23486722D01*
X13902920Y-23486722D02*
X13912444Y-23505769D01*
X13912444Y-23505769D02*
X13912444Y-23553388D01*
X13912444Y-23553388D02*
X13902920Y-23572436D01*
X13902920Y-23572436D02*
X13893396Y-23581960D01*
X13893396Y-23581960D02*
X13874348Y-23591484D01*
X13874348Y-23591484D02*
X13826729Y-23591484D01*
X13826729Y-23591484D02*
X13807682Y-23581960D01*
X13807682Y-23581960D02*
X13798158Y-23572436D01*
X13988634Y-23391484D02*
X13988634Y-23429579D01*
X14064825Y-23391484D02*
X14064825Y-23429579D01*
X14360063Y-23667674D02*
X14350539Y-23658150D01*
X14350539Y-23658150D02*
X14331491Y-23629579D01*
X14331491Y-23629579D02*
X14321968Y-23610531D01*
X14321968Y-23610531D02*
X14312444Y-23581960D01*
X14312444Y-23581960D02*
X14302920Y-23534341D01*
X14302920Y-23534341D02*
X14302920Y-23496246D01*
X14302920Y-23496246D02*
X14312444Y-23448627D01*
X14312444Y-23448627D02*
X14321968Y-23420055D01*
X14321968Y-23420055D02*
X14331491Y-23401008D01*
X14331491Y-23401008D02*
X14350539Y-23372436D01*
X14350539Y-23372436D02*
X14360063Y-23362912D01*
X14521968Y-23458150D02*
X14521968Y-23591484D01*
X14474348Y-23381960D02*
X14426729Y-23524817D01*
X14426729Y-23524817D02*
X14550539Y-23524817D01*
X14712444Y-23458150D02*
X14712444Y-23591484D01*
X14664825Y-23381960D02*
X14617206Y-23524817D01*
X14617206Y-23524817D02*
X14741015Y-23524817D01*
X14969587Y-23591484D02*
X14969587Y-23391484D01*
X15055301Y-23591484D02*
X15055301Y-23486722D01*
X15055301Y-23486722D02*
X15045777Y-23467674D01*
X15045777Y-23467674D02*
X15026730Y-23458150D01*
X15026730Y-23458150D02*
X14998158Y-23458150D01*
X14998158Y-23458150D02*
X14979110Y-23467674D01*
X14979110Y-23467674D02*
X14969587Y-23477198D01*
X15179110Y-23591484D02*
X15160063Y-23581960D01*
X15160063Y-23581960D02*
X15150539Y-23572436D01*
X15150539Y-23572436D02*
X15141015Y-23553388D01*
X15141015Y-23553388D02*
X15141015Y-23496246D01*
X15141015Y-23496246D02*
X15150539Y-23477198D01*
X15150539Y-23477198D02*
X15160063Y-23467674D01*
X15160063Y-23467674D02*
X15179110Y-23458150D01*
X15179110Y-23458150D02*
X15207682Y-23458150D01*
X15207682Y-23458150D02*
X15226730Y-23467674D01*
X15226730Y-23467674D02*
X15236253Y-23477198D01*
X15236253Y-23477198D02*
X15245777Y-23496246D01*
X15245777Y-23496246D02*
X15245777Y-23553388D01*
X15245777Y-23553388D02*
X15236253Y-23572436D01*
X15236253Y-23572436D02*
X15226730Y-23581960D01*
X15226730Y-23581960D02*
X15207682Y-23591484D01*
X15207682Y-23591484D02*
X15179110Y-23591484D01*
X15360063Y-23591484D02*
X15341015Y-23581960D01*
X15341015Y-23581960D02*
X15331491Y-23562912D01*
X15331491Y-23562912D02*
X15331491Y-23391484D01*
X15512444Y-23581960D02*
X15493396Y-23591484D01*
X15493396Y-23591484D02*
X15455301Y-23591484D01*
X15455301Y-23591484D02*
X15436253Y-23581960D01*
X15436253Y-23581960D02*
X15426730Y-23562912D01*
X15426730Y-23562912D02*
X15426730Y-23486722D01*
X15426730Y-23486722D02*
X15436253Y-23467674D01*
X15436253Y-23467674D02*
X15455301Y-23458150D01*
X15455301Y-23458150D02*
X15493396Y-23458150D01*
X15493396Y-23458150D02*
X15512444Y-23467674D01*
X15512444Y-23467674D02*
X15521968Y-23486722D01*
X15521968Y-23486722D02*
X15521968Y-23505769D01*
X15521968Y-23505769D02*
X15426730Y-23524817D01*
X15598158Y-23581960D02*
X15617206Y-23591484D01*
X15617206Y-23591484D02*
X15655301Y-23591484D01*
X15655301Y-23591484D02*
X15674349Y-23581960D01*
X15674349Y-23581960D02*
X15683872Y-23562912D01*
X15683872Y-23562912D02*
X15683872Y-23553388D01*
X15683872Y-23553388D02*
X15674349Y-23534341D01*
X15674349Y-23534341D02*
X15655301Y-23524817D01*
X15655301Y-23524817D02*
X15626730Y-23524817D01*
X15626730Y-23524817D02*
X15607682Y-23515293D01*
X15607682Y-23515293D02*
X15598158Y-23496246D01*
X15598158Y-23496246D02*
X15598158Y-23486722D01*
X15598158Y-23486722D02*
X15607682Y-23467674D01*
X15607682Y-23467674D02*
X15626730Y-23458150D01*
X15626730Y-23458150D02*
X15655301Y-23458150D01*
X15655301Y-23458150D02*
X15674349Y-23467674D01*
X15750539Y-23667674D02*
X15760063Y-23658150D01*
X15760063Y-23658150D02*
X15779111Y-23629579D01*
X15779111Y-23629579D02*
X15788634Y-23610531D01*
X15788634Y-23610531D02*
X15798158Y-23581960D01*
X15798158Y-23581960D02*
X15807682Y-23534341D01*
X15807682Y-23534341D02*
X15807682Y-23496246D01*
X15807682Y-23496246D02*
X15798158Y-23448627D01*
X15798158Y-23448627D02*
X15788634Y-23420055D01*
X15788634Y-23420055D02*
X15779111Y-23401008D01*
X15779111Y-23401008D02*
X15760063Y-23372436D01*
X15760063Y-23372436D02*
X15750539Y-23362912D01*
X16112444Y-23667674D02*
X16102920Y-23658150D01*
X16102920Y-23658150D02*
X16083872Y-23629579D01*
X16083872Y-23629579D02*
X16074349Y-23610531D01*
X16074349Y-23610531D02*
X16064825Y-23581960D01*
X16064825Y-23581960D02*
X16055301Y-23534341D01*
X16055301Y-23534341D02*
X16055301Y-23496246D01*
X16055301Y-23496246D02*
X16064825Y-23448627D01*
X16064825Y-23448627D02*
X16074349Y-23420055D01*
X16074349Y-23420055D02*
X16083872Y-23401008D01*
X16083872Y-23401008D02*
X16102920Y-23372436D01*
X16102920Y-23372436D02*
X16112444Y-23362912D01*
X16188634Y-23458150D02*
X16188634Y-23591484D01*
X16188634Y-23477198D02*
X16198158Y-23467674D01*
X16198158Y-23467674D02*
X16217206Y-23458150D01*
X16217206Y-23458150D02*
X16245777Y-23458150D01*
X16245777Y-23458150D02*
X16264825Y-23467674D01*
X16264825Y-23467674D02*
X16274349Y-23486722D01*
X16274349Y-23486722D02*
X16274349Y-23591484D01*
X16398158Y-23591484D02*
X16379111Y-23581960D01*
X16379111Y-23581960D02*
X16369587Y-23572436D01*
X16369587Y-23572436D02*
X16360063Y-23553388D01*
X16360063Y-23553388D02*
X16360063Y-23496246D01*
X16360063Y-23496246D02*
X16369587Y-23477198D01*
X16369587Y-23477198D02*
X16379111Y-23467674D01*
X16379111Y-23467674D02*
X16398158Y-23458150D01*
X16398158Y-23458150D02*
X16426730Y-23458150D01*
X16426730Y-23458150D02*
X16445777Y-23467674D01*
X16445777Y-23467674D02*
X16455301Y-23477198D01*
X16455301Y-23477198D02*
X16464825Y-23496246D01*
X16464825Y-23496246D02*
X16464825Y-23553388D01*
X16464825Y-23553388D02*
X16455301Y-23572436D01*
X16455301Y-23572436D02*
X16445777Y-23581960D01*
X16445777Y-23581960D02*
X16426730Y-23591484D01*
X16426730Y-23591484D02*
X16398158Y-23591484D01*
X16521968Y-23458150D02*
X16598158Y-23458150D01*
X16550539Y-23391484D02*
X16550539Y-23562912D01*
X16550539Y-23562912D02*
X16560063Y-23581960D01*
X16560063Y-23581960D02*
X16579111Y-23591484D01*
X16579111Y-23591484D02*
X16598158Y-23591484D01*
X16817206Y-23458150D02*
X16817206Y-23658150D01*
X16817206Y-23467674D02*
X16836254Y-23458150D01*
X16836254Y-23458150D02*
X16874349Y-23458150D01*
X16874349Y-23458150D02*
X16893396Y-23467674D01*
X16893396Y-23467674D02*
X16902920Y-23477198D01*
X16902920Y-23477198D02*
X16912444Y-23496246D01*
X16912444Y-23496246D02*
X16912444Y-23553388D01*
X16912444Y-23553388D02*
X16902920Y-23572436D01*
X16902920Y-23572436D02*
X16893396Y-23581960D01*
X16893396Y-23581960D02*
X16874349Y-23591484D01*
X16874349Y-23591484D02*
X16836254Y-23591484D01*
X16836254Y-23591484D02*
X16817206Y-23581960D01*
X17026730Y-23591484D02*
X17007682Y-23581960D01*
X17007682Y-23581960D02*
X16998158Y-23562912D01*
X16998158Y-23562912D02*
X16998158Y-23391484D01*
X17188635Y-23591484D02*
X17188635Y-23486722D01*
X17188635Y-23486722D02*
X17179111Y-23467674D01*
X17179111Y-23467674D02*
X17160063Y-23458150D01*
X17160063Y-23458150D02*
X17121968Y-23458150D01*
X17121968Y-23458150D02*
X17102920Y-23467674D01*
X17188635Y-23581960D02*
X17169587Y-23591484D01*
X17169587Y-23591484D02*
X17121968Y-23591484D01*
X17121968Y-23591484D02*
X17102920Y-23581960D01*
X17102920Y-23581960D02*
X17093396Y-23562912D01*
X17093396Y-23562912D02*
X17093396Y-23543865D01*
X17093396Y-23543865D02*
X17102920Y-23524817D01*
X17102920Y-23524817D02*
X17121968Y-23515293D01*
X17121968Y-23515293D02*
X17169587Y-23515293D01*
X17169587Y-23515293D02*
X17188635Y-23505769D01*
X17255301Y-23458150D02*
X17331492Y-23458150D01*
X17283873Y-23391484D02*
X17283873Y-23562912D01*
X17283873Y-23562912D02*
X17293396Y-23581960D01*
X17293396Y-23581960D02*
X17312444Y-23591484D01*
X17312444Y-23591484D02*
X17331492Y-23591484D01*
X17474349Y-23581960D02*
X17455301Y-23591484D01*
X17455301Y-23591484D02*
X17417206Y-23591484D01*
X17417206Y-23591484D02*
X17398158Y-23581960D01*
X17398158Y-23581960D02*
X17388635Y-23562912D01*
X17388635Y-23562912D02*
X17388635Y-23486722D01*
X17388635Y-23486722D02*
X17398158Y-23467674D01*
X17398158Y-23467674D02*
X17417206Y-23458150D01*
X17417206Y-23458150D02*
X17455301Y-23458150D01*
X17455301Y-23458150D02*
X17474349Y-23467674D01*
X17474349Y-23467674D02*
X17483873Y-23486722D01*
X17483873Y-23486722D02*
X17483873Y-23505769D01*
X17483873Y-23505769D02*
X17388635Y-23524817D01*
X17655301Y-23591484D02*
X17655301Y-23391484D01*
X17655301Y-23581960D02*
X17636254Y-23591484D01*
X17636254Y-23591484D02*
X17598158Y-23591484D01*
X17598158Y-23591484D02*
X17579111Y-23581960D01*
X17579111Y-23581960D02*
X17569587Y-23572436D01*
X17569587Y-23572436D02*
X17560063Y-23553388D01*
X17560063Y-23553388D02*
X17560063Y-23496246D01*
X17560063Y-23496246D02*
X17569587Y-23477198D01*
X17569587Y-23477198D02*
X17579111Y-23467674D01*
X17579111Y-23467674D02*
X17598158Y-23458150D01*
X17598158Y-23458150D02*
X17636254Y-23458150D01*
X17636254Y-23458150D02*
X17655301Y-23467674D01*
X17731492Y-23667674D02*
X17741016Y-23658150D01*
X17741016Y-23658150D02*
X17760063Y-23629579D01*
X17760063Y-23629579D02*
X17769587Y-23610531D01*
X17769587Y-23610531D02*
X17779111Y-23581960D01*
X17779111Y-23581960D02*
X17788635Y-23534341D01*
X17788635Y-23534341D02*
X17788635Y-23496246D01*
X17788635Y-23496246D02*
X17779111Y-23448627D01*
X17779111Y-23448627D02*
X17769587Y-23420055D01*
X17769587Y-23420055D02*
X17760063Y-23401008D01*
X17760063Y-23401008D02*
X17741016Y-23372436D01*
X17741016Y-23372436D02*
X17731492Y-23362912D01*
M02*
