M48
; DRILL file {KiCad 9.0.7} date 2026-03-08T01:03:03+0200
; FORMAT={-:-/ absolute / metric / decimal}
; #@! TF.CreationDate,2026-03-08T01:03:03+02:00
; #@! TF.GenerationSoftware,Kicad,Pcbnew,9.0.7
; #@! TF.FileFunction,NonPlated,1,2,NPTH
FMAT,2
METRIC
; #@! TA.AperFunction,NonPlated,NPTH,ComponentDrill
T1C1.750
; #@! TA.AperFunction,NonPlated,NPTH,ComponentDrill
T2C3.200
; #@! TA.AperFunction,NonPlated,NPTH,ComponentDrill
T3C4.000
%
G90
G05
T1
X118.12Y-114.35
X118.12Y-133.4
X118.12Y-152.45
X118.12Y-171.5
X118.12Y-190.55
X118.12Y-209.6
X128.28Y-114.35
X128.28Y-133.4
X128.28Y-152.45
X128.28Y-171.5
X128.28Y-190.55
X128.28Y-209.6
X137.17Y-152.45
X137.17Y-171.5
X137.17Y-190.55
X137.17Y-209.6
X147.33Y-152.45
X147.33Y-171.5
X147.33Y-190.55
X147.33Y-209.6
X156.22Y-152.45
X156.22Y-171.5
X156.22Y-190.55
X156.22Y-209.6
X166.38Y-152.45
X166.38Y-171.5
X166.38Y-190.55
X166.38Y-209.6
X175.27Y-152.45
X175.27Y-171.5
X175.27Y-190.55
X175.27Y-209.6
X185.43Y-152.45
X185.43Y-171.5
X185.43Y-190.55
X185.43Y-209.6
X194.32Y-152.45
X194.32Y-171.5
X194.32Y-190.55
X194.32Y-209.6
X204.48Y-152.45
X204.48Y-171.5
X204.48Y-190.55
X204.48Y-209.6
X213.37Y-152.45
X213.37Y-171.5
X213.37Y-190.55
X213.37Y-209.6
X223.53Y-152.45
X223.53Y-171.5
X223.53Y-190.55
X223.53Y-209.6
X232.42Y-152.45
X232.42Y-171.5
X232.42Y-190.55
X232.42Y-209.6
X242.58Y-152.45
X242.58Y-171.5
X242.58Y-190.55
X242.58Y-209.6
X251.47Y-152.45
X251.47Y-171.5
X251.47Y-190.55
X251.47Y-209.6
X261.63Y-152.45
X261.63Y-171.5
X261.63Y-190.55
X261.63Y-209.6
X270.52Y-152.45
X270.52Y-171.5
X270.52Y-190.55
X270.52Y-209.6
X280.68Y-152.45
X280.68Y-171.5
X280.68Y-190.55
X280.68Y-209.6
X289.57Y-114.35
X289.57Y-133.4
X289.57Y-152.45
X289.57Y-171.5
X289.57Y-190.55
X289.57Y-209.6
X299.73Y-114.35
X299.73Y-133.4
X299.73Y-152.45
X299.73Y-171.5
X299.73Y-190.55
X299.73Y-209.6
T2
X115.582Y9.637
X115.582Y1.687
X122.764Y-42.579
X212.6Y-118.9
X291.284Y-43.059
X371.85Y-50.01
T3
X123.2Y-114.35
X123.2Y-133.4
X123.2Y-152.45
X123.2Y-171.5
X123.2Y-190.55
X123.2Y-209.6
X142.25Y-152.45
X142.25Y-171.5
X142.25Y-190.55
X142.25Y-209.6
X161.3Y-152.45
X161.3Y-171.5
X161.3Y-190.55
X161.3Y-209.6
X180.35Y-152.45
X180.35Y-171.5
X180.35Y-190.55
X180.35Y-209.6
X199.4Y-152.45
X199.4Y-171.5
X199.4Y-190.55
X199.4Y-209.6
X218.45Y-152.45
X218.45Y-171.5
X218.45Y-190.55
X218.45Y-209.6
X237.5Y-152.45
X237.5Y-171.5
X237.5Y-190.55
X237.5Y-209.6
X256.55Y-152.45
X256.55Y-171.5
X256.55Y-190.55
X256.55Y-209.6
X275.6Y-152.45
X275.6Y-171.5
X275.6Y-190.55
X275.6Y-209.6
X294.65Y-114.35
X294.65Y-133.4
X294.65Y-152.45
X294.65Y-171.5
X294.65Y-190.55
X294.65Y-209.6
M30
