%TF.GenerationSoftware,KiCad,Pcbnew,8.0.1*%
%TF.CreationDate,2024-04-07T01:08:56+08:00*%
%TF.ProjectId,pcb_top,7063625f-746f-4702-9e6b-696361645f70,rev?*%
%TF.SameCoordinates,Original*%
%TF.FileFunction,Soldermask,Top*%
%TF.FilePolarity,Negative*%
%FSLAX46Y46*%
G04 Gerber Fmt 4.6, Leading zero omitted, Abs format (unit mm)*
G04 Created by KiCad (PCBNEW 8.0.1) date 2024-04-07 01:08:56*
%MOMM*%
%LPD*%
G01*
G04 APERTURE LIST*
G04 Aperture macros list*
%AMRoundRect*
0 Rectangle with rounded corners*
0 $1 Rounding radius*
0 $2 $3 $4 $5 $6 $7 $8 $9 X,Y pos of 4 corners*
0 Add a 4 corners polygon primitive as box body*
4,1,4,$2,$3,$4,$5,$6,$7,$8,$9,$2,$3,0*
0 Add four circle primitives for the rounded corners*
1,1,$1+$1,$2,$3*
1,1,$1+$1,$4,$5*
1,1,$1+$1,$6,$7*
1,1,$1+$1,$8,$9*
0 Add four rect primitives between the rounded corners*
20,1,$1+$1,$2,$3,$4,$5,0*
20,1,$1+$1,$4,$5,$6,$7,0*
20,1,$1+$1,$6,$7,$8,$9,0*
20,1,$1+$1,$8,$9,$2,$3,0*%
G04 Aperture macros list end*
%ADD10O,3.500000X5.600000*%
%ADD11C,1.800000*%
%ADD12C,1.900000*%
%ADD13C,7.500000*%
%ADD14RoundRect,0.250000X0.620000X0.845000X-0.620000X0.845000X-0.620000X-0.845000X0.620000X-0.845000X0*%
%ADD15O,1.740000X2.190000*%
%ADD16R,1.200000X1.200000*%
%ADD17C,1.200000*%
G04 APERTURE END LIST*
D10*
%TO.C,U11*%
X60100000Y-75500000D03*
X71500000Y-75500000D03*
D11*
X64550000Y-86000000D03*
X62050000Y-86000000D03*
X67050000Y-86000000D03*
X69550000Y-86000000D03*
D12*
X63300000Y-83500000D03*
X68300000Y-83500000D03*
X65800000Y-83500000D03*
D11*
X63300000Y-69000000D03*
X68300000Y-69000000D03*
%TD*%
D10*
%TO.C,U14*%
X117100000Y-47000000D03*
X128500000Y-47000000D03*
D11*
X121550000Y-57500000D03*
X119050000Y-57500000D03*
X124050000Y-57500000D03*
X126550000Y-57500000D03*
D12*
X120300000Y-55000000D03*
X125300000Y-55000000D03*
X122800000Y-55000000D03*
D11*
X120300000Y-40500000D03*
X125300000Y-40500000D03*
%TD*%
D10*
%TO.C,U17*%
X145600000Y-75500000D03*
X157000000Y-75500000D03*
D11*
X150050000Y-86000000D03*
X147550000Y-86000000D03*
X152550000Y-86000000D03*
X155050000Y-86000000D03*
D12*
X148800000Y-83500000D03*
X153800000Y-83500000D03*
X151300000Y-83500000D03*
D11*
X148800000Y-69000000D03*
X153800000Y-69000000D03*
%TD*%
D10*
%TO.C,U13*%
X88600000Y-75500000D03*
X100000000Y-75500000D03*
D11*
X93050000Y-86000000D03*
X90550000Y-86000000D03*
X95550000Y-86000000D03*
X98050000Y-86000000D03*
D12*
X91800000Y-83500000D03*
X96800000Y-83500000D03*
X94300000Y-83500000D03*
D11*
X91800000Y-69000000D03*
X96800000Y-69000000D03*
%TD*%
D13*
%TO.C,H2*%
X76800000Y-64510000D03*
%TD*%
D10*
%TO.C,U16*%
X145600000Y-47000000D03*
X157000000Y-47000000D03*
D11*
X150050000Y-57500000D03*
X147550000Y-57500000D03*
X152550000Y-57500000D03*
X155050000Y-57500000D03*
D12*
X148800000Y-55000000D03*
X153800000Y-55000000D03*
X151300000Y-55000000D03*
D11*
X148800000Y-40500000D03*
X153800000Y-40500000D03*
%TD*%
D13*
%TO.C,H1*%
X141300000Y-64510000D03*
%TD*%
D10*
%TO.C,U15*%
X117100000Y-75500000D03*
X128500000Y-75500000D03*
D11*
X121550000Y-86000000D03*
X119050000Y-86000000D03*
X124050000Y-86000000D03*
X126550000Y-86000000D03*
D12*
X120300000Y-83500000D03*
X125300000Y-83500000D03*
X122800000Y-83500000D03*
D11*
X120300000Y-69000000D03*
X125300000Y-69000000D03*
%TD*%
D10*
%TO.C,U12*%
X88600000Y-47000000D03*
X100000000Y-47000000D03*
D11*
X93050000Y-57500000D03*
X90550000Y-57500000D03*
X95550000Y-57500000D03*
X98050000Y-57500000D03*
D12*
X91800000Y-55000000D03*
X96800000Y-55000000D03*
X94300000Y-55000000D03*
D11*
X91800000Y-40500000D03*
X96800000Y-40500000D03*
%TD*%
D10*
%TO.C,U10*%
X60100000Y-47000000D03*
X71500000Y-47000000D03*
D11*
X64550000Y-57500000D03*
X62050000Y-57500000D03*
X67050000Y-57500000D03*
X69550000Y-57500000D03*
D12*
X63300000Y-55000000D03*
X68300000Y-55000000D03*
X65800000Y-55000000D03*
D11*
X63300000Y-40500000D03*
X68300000Y-40500000D03*
%TD*%
D14*
%TO.C,J2*%
X110980000Y-41670000D03*
D15*
X108440000Y-41670000D03*
X105900000Y-41670000D03*
%TD*%
D14*
%TO.C,J1*%
X112300000Y-49670000D03*
D15*
X109760000Y-49670000D03*
X107220000Y-49670000D03*
X104680000Y-49670000D03*
%TD*%
D16*
%TO.C,C1*%
X107667400Y-77750000D03*
D17*
X109167400Y-77750000D03*
%TD*%
M02*
