M48
; DRILL file {KiCad 8.0.1} date 2024-04-07T01:08:58+0800
; FORMAT={-:-/ absolute / inch / decimal}
; #@! TF.CreationDate,2024-04-07T01:08:58+08:00
; #@! TF.GenerationSoftware,Kicad,Pcbnew,8.0.1
; #@! TF.FileFunction,Plated,1,2,PTH
FMAT,2
INCH
; #@! TA.AperFunction,Plated,PTH,ViaDrill
T1C0.0157
; #@! TA.AperFunction,Plated,PTH,ComponentDrill
T2C0.0236
; #@! TA.AperFunction,Plated,PTH,ComponentDrill
T3C0.0394
; #@! TA.AperFunction,Plated,PTH,ComponentDrill
T4C0.0469
; #@! TA.AperFunction,Plated,PTH,ComponentDrill
T5C0.1693
%
G90
G05
T1
X2.1861Y-2.7904
X2.2432Y-2.6361
X2.3354Y-3.2189
X2.3926Y-3.3136
X2.42Y-3.1566
X2.4724Y-2.6274
X2.4893Y-2.4597
X2.4931Y-1.6661
X2.5737Y-2.0321
X2.5893Y-2.8633
X2.6201Y-2.5831
X2.776Y-2.8324
X2.9018Y-3.2189
X3.0827Y-1.8016
X3.2493Y-2.6972
X3.3287Y-1.9098
X3.3946Y-2.5155
X3.3953Y-3.2311
X3.4485Y-2.6558
X3.5039Y-2.7901
X3.5485Y-1.7043
X3.5569Y-2.7738
X3.6864Y-1.7347
X3.7195Y-3.1513
X3.7224Y-1.9492
X3.7397Y-2.6361
X3.7485Y-2.058
X3.8701Y-2.5962
X3.9105Y-2.7877
X3.9685Y-2.4315
X4.2219Y-2.6992
X4.2343Y-2.3921
X4.2638Y-2.215
X4.2638Y-2.5791
X4.2736Y-2.0575
X4.2941Y-2.727
X4.3218Y-2.4896
X4.3524Y-2.6677
X4.373Y-2.3991
X4.3917Y-2.9433
X4.4409Y-3.117
X4.4884Y-2.2356
X4.5079Y-2.5881
X4.5382Y-2.8163
X4.5492Y-1.9984
X4.5568Y-2.4184
X4.6205Y-2.7535
X4.6706Y-1.7145
X4.6772Y-3.1589
X4.6936Y-2.0484
X4.7778Y-2.0567
X4.8343Y-1.8451
X4.8427Y-3.1053
X4.8451Y-2.0434
X4.8506Y-1.9661
X5.1134Y-3.2204
X5.1299Y-2.0434
X5.1567Y-2.3045
X5.2579Y-2.9531
X5.3366Y-2.3823
X5.46Y-2.8154
X5.5236Y-1.8409
X5.5827Y-3.2189
X5.6377Y-2.8594
X5.6618Y-3.0906
X5.8727Y-2.0482
X5.9234Y-1.7419
X5.9239Y-2.8289
X5.9307Y-3.0769
X5.9424Y-1.8295
X5.9626Y-3.1504
X5.984Y-2.0521
T2
X4.2389Y-3.061
X4.2979Y-3.061
T3
X2.4429Y-2.2638
X2.4429Y-3.3858
X2.4921Y-1.5945
X2.4921Y-2.1654
X2.4921Y-2.7165
X2.4921Y-3.2874
X2.5413Y-2.2638
X2.5413Y-3.3858
X2.5906Y-2.1654
X2.5906Y-3.2874
X2.6398Y-2.2638
X2.6398Y-3.3858
X2.689Y-1.5945
X2.689Y-2.1654
X2.689Y-2.7165
X2.689Y-3.2874
X2.7382Y-2.2638
X2.7382Y-3.3858
X3.565Y-2.2638
X3.565Y-3.3858
X3.6142Y-1.5945
X3.6142Y-2.1654
X3.6142Y-2.7165
X3.6142Y-3.2874
X3.6634Y-2.2638
X3.6634Y-3.3858
X3.7126Y-2.1654
X3.7126Y-3.2874
X3.7618Y-2.2638
X3.7618Y-3.3858
X3.811Y-1.5945
X3.811Y-2.1654
X3.811Y-2.7165
X3.811Y-3.2874
X3.8602Y-2.2638
X3.8602Y-3.3858
X4.687Y-2.2638
X4.687Y-3.3858
X4.7362Y-1.5945
X4.7362Y-2.1654
X4.7362Y-2.7165
X4.7362Y-3.2874
X4.7854Y-2.2638
X4.7854Y-3.3858
X4.8346Y-2.1654
X4.8346Y-3.2874
X4.8839Y-2.2638
X4.8839Y-3.3858
X4.9331Y-1.5945
X4.9331Y-2.1654
X4.9331Y-2.7165
X4.9331Y-3.2874
X4.9823Y-2.2638
X4.9823Y-3.3858
X5.8091Y-2.2638
X5.8091Y-3.3858
X5.8583Y-1.5945
X5.8583Y-2.1654
X5.8583Y-2.7165
X5.8583Y-3.2874
X5.9075Y-2.2638
X5.9075Y-3.3858
X5.9567Y-2.1654
X5.9567Y-3.2874
X6.0059Y-2.2638
X6.0059Y-3.3858
X6.0551Y-1.5945
X6.0551Y-2.1654
X6.0551Y-2.7165
X6.0551Y-3.2874
X6.1043Y-2.2638
X6.1043Y-3.3858
T4
X4.1213Y-1.9555
X4.1693Y-1.6406
X4.2213Y-1.9555
X4.2693Y-1.6406
X4.3213Y-1.9555
X4.3693Y-1.6406
X4.4213Y-1.9555
T5
X3.0236Y-2.5398
X5.563Y-2.5398
M30
