%TF.GenerationSoftware,KiCad,Pcbnew,8.0.1*%
%TF.CreationDate,2024-04-07T01:08:56+08:00*%
%TF.ProjectId,pcb_top,7063625f-746f-4702-9e6b-696361645f70,rev?*%
%TF.SameCoordinates,Original*%
%TF.FileFunction,Legend,Bot*%
%TF.FilePolarity,Positive*%
%FSLAX46Y46*%
G04 Gerber Fmt 4.6, Leading zero omitted, Abs format (unit mm)*
G04 Created by KiCad (PCBNEW 8.0.1) date 2024-04-07 01:08:56*
%MOMM*%
%LPD*%
G01*
G04 APERTURE LIST*
%ADD10C,0.150000*%
%ADD11C,0.254000*%
%ADD12C,0.120000*%
%ADD13C,0.200000*%
G04 APERTURE END LIST*
D10*
X125832857Y-58709580D02*
X125880476Y-58757200D01*
X125880476Y-58757200D02*
X126023333Y-58804819D01*
X126023333Y-58804819D02*
X126118571Y-58804819D01*
X126118571Y-58804819D02*
X126261428Y-58757200D01*
X126261428Y-58757200D02*
X126356666Y-58661961D01*
X126356666Y-58661961D02*
X126404285Y-58566723D01*
X126404285Y-58566723D02*
X126451904Y-58376247D01*
X126451904Y-58376247D02*
X126451904Y-58233390D01*
X126451904Y-58233390D02*
X126404285Y-58042914D01*
X126404285Y-58042914D02*
X126356666Y-57947676D01*
X126356666Y-57947676D02*
X126261428Y-57852438D01*
X126261428Y-57852438D02*
X126118571Y-57804819D01*
X126118571Y-57804819D02*
X126023333Y-57804819D01*
X126023333Y-57804819D02*
X125880476Y-57852438D01*
X125880476Y-57852438D02*
X125832857Y-57900057D01*
X124880476Y-58804819D02*
X125451904Y-58804819D01*
X125166190Y-58804819D02*
X125166190Y-57804819D01*
X125166190Y-57804819D02*
X125261428Y-57947676D01*
X125261428Y-57947676D02*
X125356666Y-58042914D01*
X125356666Y-58042914D02*
X125451904Y-58090533D01*
X124547142Y-57804819D02*
X123928095Y-57804819D01*
X123928095Y-57804819D02*
X124261428Y-58185771D01*
X124261428Y-58185771D02*
X124118571Y-58185771D01*
X124118571Y-58185771D02*
X124023333Y-58233390D01*
X124023333Y-58233390D02*
X123975714Y-58281009D01*
X123975714Y-58281009D02*
X123928095Y-58376247D01*
X123928095Y-58376247D02*
X123928095Y-58614342D01*
X123928095Y-58614342D02*
X123975714Y-58709580D01*
X123975714Y-58709580D02*
X124023333Y-58757200D01*
X124023333Y-58757200D02*
X124118571Y-58804819D01*
X124118571Y-58804819D02*
X124404285Y-58804819D01*
X124404285Y-58804819D02*
X124499523Y-58757200D01*
X124499523Y-58757200D02*
X124547142Y-58709580D01*
X108773333Y-37004819D02*
X108773333Y-37719104D01*
X108773333Y-37719104D02*
X108820952Y-37861961D01*
X108820952Y-37861961D02*
X108916190Y-37957200D01*
X108916190Y-37957200D02*
X109059047Y-38004819D01*
X109059047Y-38004819D02*
X109154285Y-38004819D01*
X108344761Y-37100057D02*
X108297142Y-37052438D01*
X108297142Y-37052438D02*
X108201904Y-37004819D01*
X108201904Y-37004819D02*
X107963809Y-37004819D01*
X107963809Y-37004819D02*
X107868571Y-37052438D01*
X107868571Y-37052438D02*
X107820952Y-37100057D01*
X107820952Y-37100057D02*
X107773333Y-37195295D01*
X107773333Y-37195295D02*
X107773333Y-37290533D01*
X107773333Y-37290533D02*
X107820952Y-37433390D01*
X107820952Y-37433390D02*
X108392380Y-38004819D01*
X108392380Y-38004819D02*
X107773333Y-38004819D01*
X94376666Y-58559580D02*
X94424285Y-58607200D01*
X94424285Y-58607200D02*
X94567142Y-58654819D01*
X94567142Y-58654819D02*
X94662380Y-58654819D01*
X94662380Y-58654819D02*
X94805237Y-58607200D01*
X94805237Y-58607200D02*
X94900475Y-58511961D01*
X94900475Y-58511961D02*
X94948094Y-58416723D01*
X94948094Y-58416723D02*
X94995713Y-58226247D01*
X94995713Y-58226247D02*
X94995713Y-58083390D01*
X94995713Y-58083390D02*
X94948094Y-57892914D01*
X94948094Y-57892914D02*
X94900475Y-57797676D01*
X94900475Y-57797676D02*
X94805237Y-57702438D01*
X94805237Y-57702438D02*
X94662380Y-57654819D01*
X94662380Y-57654819D02*
X94567142Y-57654819D01*
X94567142Y-57654819D02*
X94424285Y-57702438D01*
X94424285Y-57702438D02*
X94376666Y-57750057D01*
X93900475Y-58654819D02*
X93709999Y-58654819D01*
X93709999Y-58654819D02*
X93614761Y-58607200D01*
X93614761Y-58607200D02*
X93567142Y-58559580D01*
X93567142Y-58559580D02*
X93471904Y-58416723D01*
X93471904Y-58416723D02*
X93424285Y-58226247D01*
X93424285Y-58226247D02*
X93424285Y-57845295D01*
X93424285Y-57845295D02*
X93471904Y-57750057D01*
X93471904Y-57750057D02*
X93519523Y-57702438D01*
X93519523Y-57702438D02*
X93614761Y-57654819D01*
X93614761Y-57654819D02*
X93805237Y-57654819D01*
X93805237Y-57654819D02*
X93900475Y-57702438D01*
X93900475Y-57702438D02*
X93948094Y-57750057D01*
X93948094Y-57750057D02*
X93995713Y-57845295D01*
X93995713Y-57845295D02*
X93995713Y-58083390D01*
X93995713Y-58083390D02*
X93948094Y-58178628D01*
X93948094Y-58178628D02*
X93900475Y-58226247D01*
X93900475Y-58226247D02*
X93805237Y-58273866D01*
X93805237Y-58273866D02*
X93614761Y-58273866D01*
X93614761Y-58273866D02*
X93519523Y-58226247D01*
X93519523Y-58226247D02*
X93471904Y-58178628D01*
X93471904Y-58178628D02*
X93424285Y-58083390D01*
X123561904Y-80334819D02*
X123561904Y-81144342D01*
X123561904Y-81144342D02*
X123514285Y-81239580D01*
X123514285Y-81239580D02*
X123466666Y-81287200D01*
X123466666Y-81287200D02*
X123371428Y-81334819D01*
X123371428Y-81334819D02*
X123180952Y-81334819D01*
X123180952Y-81334819D02*
X123085714Y-81287200D01*
X123085714Y-81287200D02*
X123038095Y-81239580D01*
X123038095Y-81239580D02*
X122990476Y-81144342D01*
X122990476Y-81144342D02*
X122990476Y-80334819D01*
X122609523Y-80334819D02*
X121942857Y-80334819D01*
X121942857Y-80334819D02*
X122371428Y-81334819D01*
X57434819Y-65617142D02*
X56958628Y-65283809D01*
X57434819Y-65045714D02*
X56434819Y-65045714D01*
X56434819Y-65045714D02*
X56434819Y-65426666D01*
X56434819Y-65426666D02*
X56482438Y-65521904D01*
X56482438Y-65521904D02*
X56530057Y-65569523D01*
X56530057Y-65569523D02*
X56625295Y-65617142D01*
X56625295Y-65617142D02*
X56768152Y-65617142D01*
X56768152Y-65617142D02*
X56863390Y-65569523D01*
X56863390Y-65569523D02*
X56911009Y-65521904D01*
X56911009Y-65521904D02*
X56958628Y-65426666D01*
X56958628Y-65426666D02*
X56958628Y-65045714D01*
X56530057Y-65998095D02*
X56482438Y-66045714D01*
X56482438Y-66045714D02*
X56434819Y-66140952D01*
X56434819Y-66140952D02*
X56434819Y-66379047D01*
X56434819Y-66379047D02*
X56482438Y-66474285D01*
X56482438Y-66474285D02*
X56530057Y-66521904D01*
X56530057Y-66521904D02*
X56625295Y-66569523D01*
X56625295Y-66569523D02*
X56720533Y-66569523D01*
X56720533Y-66569523D02*
X56863390Y-66521904D01*
X56863390Y-66521904D02*
X57434819Y-65950476D01*
X57434819Y-65950476D02*
X57434819Y-66569523D01*
X56863390Y-67140952D02*
X56815771Y-67045714D01*
X56815771Y-67045714D02*
X56768152Y-66998095D01*
X56768152Y-66998095D02*
X56672914Y-66950476D01*
X56672914Y-66950476D02*
X56625295Y-66950476D01*
X56625295Y-66950476D02*
X56530057Y-66998095D01*
X56530057Y-66998095D02*
X56482438Y-67045714D01*
X56482438Y-67045714D02*
X56434819Y-67140952D01*
X56434819Y-67140952D02*
X56434819Y-67331428D01*
X56434819Y-67331428D02*
X56482438Y-67426666D01*
X56482438Y-67426666D02*
X56530057Y-67474285D01*
X56530057Y-67474285D02*
X56625295Y-67521904D01*
X56625295Y-67521904D02*
X56672914Y-67521904D01*
X56672914Y-67521904D02*
X56768152Y-67474285D01*
X56768152Y-67474285D02*
X56815771Y-67426666D01*
X56815771Y-67426666D02*
X56863390Y-67331428D01*
X56863390Y-67331428D02*
X56863390Y-67140952D01*
X56863390Y-67140952D02*
X56911009Y-67045714D01*
X56911009Y-67045714D02*
X56958628Y-66998095D01*
X56958628Y-66998095D02*
X57053866Y-66950476D01*
X57053866Y-66950476D02*
X57244342Y-66950476D01*
X57244342Y-66950476D02*
X57339580Y-66998095D01*
X57339580Y-66998095D02*
X57387200Y-67045714D01*
X57387200Y-67045714D02*
X57434819Y-67140952D01*
X57434819Y-67140952D02*
X57434819Y-67331428D01*
X57434819Y-67331428D02*
X57387200Y-67426666D01*
X57387200Y-67426666D02*
X57339580Y-67474285D01*
X57339580Y-67474285D02*
X57244342Y-67521904D01*
X57244342Y-67521904D02*
X57053866Y-67521904D01*
X57053866Y-67521904D02*
X56958628Y-67474285D01*
X56958628Y-67474285D02*
X56911009Y-67426666D01*
X56911009Y-67426666D02*
X56863390Y-67331428D01*
X105716666Y-53144819D02*
X106049999Y-52668628D01*
X106288094Y-53144819D02*
X106288094Y-52144819D01*
X106288094Y-52144819D02*
X105907142Y-52144819D01*
X105907142Y-52144819D02*
X105811904Y-52192438D01*
X105811904Y-52192438D02*
X105764285Y-52240057D01*
X105764285Y-52240057D02*
X105716666Y-52335295D01*
X105716666Y-52335295D02*
X105716666Y-52478152D01*
X105716666Y-52478152D02*
X105764285Y-52573390D01*
X105764285Y-52573390D02*
X105811904Y-52621009D01*
X105811904Y-52621009D02*
X105907142Y-52668628D01*
X105907142Y-52668628D02*
X106288094Y-52668628D01*
X105335713Y-52240057D02*
X105288094Y-52192438D01*
X105288094Y-52192438D02*
X105192856Y-52144819D01*
X105192856Y-52144819D02*
X104954761Y-52144819D01*
X104954761Y-52144819D02*
X104859523Y-52192438D01*
X104859523Y-52192438D02*
X104811904Y-52240057D01*
X104811904Y-52240057D02*
X104764285Y-52335295D01*
X104764285Y-52335295D02*
X104764285Y-52430533D01*
X104764285Y-52430533D02*
X104811904Y-52573390D01*
X104811904Y-52573390D02*
X105383332Y-53144819D01*
X105383332Y-53144819D02*
X104764285Y-53144819D01*
X61009580Y-84345833D02*
X61057200Y-84298214D01*
X61057200Y-84298214D02*
X61104819Y-84155357D01*
X61104819Y-84155357D02*
X61104819Y-84060119D01*
X61104819Y-84060119D02*
X61057200Y-83917262D01*
X61057200Y-83917262D02*
X60961961Y-83822024D01*
X60961961Y-83822024D02*
X60866723Y-83774405D01*
X60866723Y-83774405D02*
X60676247Y-83726786D01*
X60676247Y-83726786D02*
X60533390Y-83726786D01*
X60533390Y-83726786D02*
X60342914Y-83774405D01*
X60342914Y-83774405D02*
X60247676Y-83822024D01*
X60247676Y-83822024D02*
X60152438Y-83917262D01*
X60152438Y-83917262D02*
X60104819Y-84060119D01*
X60104819Y-84060119D02*
X60104819Y-84155357D01*
X60104819Y-84155357D02*
X60152438Y-84298214D01*
X60152438Y-84298214D02*
X60200057Y-84345833D01*
X60104819Y-85250595D02*
X60104819Y-84774405D01*
X60104819Y-84774405D02*
X60581009Y-84726786D01*
X60581009Y-84726786D02*
X60533390Y-84774405D01*
X60533390Y-84774405D02*
X60485771Y-84869643D01*
X60485771Y-84869643D02*
X60485771Y-85107738D01*
X60485771Y-85107738D02*
X60533390Y-85202976D01*
X60533390Y-85202976D02*
X60581009Y-85250595D01*
X60581009Y-85250595D02*
X60676247Y-85298214D01*
X60676247Y-85298214D02*
X60914342Y-85298214D01*
X60914342Y-85298214D02*
X61009580Y-85250595D01*
X61009580Y-85250595D02*
X61057200Y-85202976D01*
X61057200Y-85202976D02*
X61104819Y-85107738D01*
X61104819Y-85107738D02*
X61104819Y-84869643D01*
X61104819Y-84869643D02*
X61057200Y-84774405D01*
X61057200Y-84774405D02*
X61009580Y-84726786D01*
X58416666Y-52144819D02*
X58749999Y-51668628D01*
X58988094Y-52144819D02*
X58988094Y-51144819D01*
X58988094Y-51144819D02*
X58607142Y-51144819D01*
X58607142Y-51144819D02*
X58511904Y-51192438D01*
X58511904Y-51192438D02*
X58464285Y-51240057D01*
X58464285Y-51240057D02*
X58416666Y-51335295D01*
X58416666Y-51335295D02*
X58416666Y-51478152D01*
X58416666Y-51478152D02*
X58464285Y-51573390D01*
X58464285Y-51573390D02*
X58511904Y-51621009D01*
X58511904Y-51621009D02*
X58607142Y-51668628D01*
X58607142Y-51668628D02*
X58988094Y-51668628D01*
X58083332Y-51144819D02*
X57464285Y-51144819D01*
X57464285Y-51144819D02*
X57797618Y-51525771D01*
X57797618Y-51525771D02*
X57654761Y-51525771D01*
X57654761Y-51525771D02*
X57559523Y-51573390D01*
X57559523Y-51573390D02*
X57511904Y-51621009D01*
X57511904Y-51621009D02*
X57464285Y-51716247D01*
X57464285Y-51716247D02*
X57464285Y-51954342D01*
X57464285Y-51954342D02*
X57511904Y-52049580D01*
X57511904Y-52049580D02*
X57559523Y-52097200D01*
X57559523Y-52097200D02*
X57654761Y-52144819D01*
X57654761Y-52144819D02*
X57940475Y-52144819D01*
X57940475Y-52144819D02*
X58035713Y-52097200D01*
X58035713Y-52097200D02*
X58083332Y-52049580D01*
X66566904Y-80334819D02*
X66566904Y-81144342D01*
X66566904Y-81144342D02*
X66519285Y-81239580D01*
X66519285Y-81239580D02*
X66471666Y-81287200D01*
X66471666Y-81287200D02*
X66376428Y-81334819D01*
X66376428Y-81334819D02*
X66185952Y-81334819D01*
X66185952Y-81334819D02*
X66090714Y-81287200D01*
X66090714Y-81287200D02*
X66043095Y-81239580D01*
X66043095Y-81239580D02*
X65995476Y-81144342D01*
X65995476Y-81144342D02*
X65995476Y-80334819D01*
X65614523Y-80334819D02*
X64995476Y-80334819D01*
X64995476Y-80334819D02*
X65328809Y-80715771D01*
X65328809Y-80715771D02*
X65185952Y-80715771D01*
X65185952Y-80715771D02*
X65090714Y-80763390D01*
X65090714Y-80763390D02*
X65043095Y-80811009D01*
X65043095Y-80811009D02*
X64995476Y-80906247D01*
X64995476Y-80906247D02*
X64995476Y-81144342D01*
X64995476Y-81144342D02*
X65043095Y-81239580D01*
X65043095Y-81239580D02*
X65090714Y-81287200D01*
X65090714Y-81287200D02*
X65185952Y-81334819D01*
X65185952Y-81334819D02*
X65471666Y-81334819D01*
X65471666Y-81334819D02*
X65566904Y-81287200D01*
X65566904Y-81287200D02*
X65614523Y-81239580D01*
X63154166Y-62379580D02*
X63201785Y-62427200D01*
X63201785Y-62427200D02*
X63344642Y-62474819D01*
X63344642Y-62474819D02*
X63439880Y-62474819D01*
X63439880Y-62474819D02*
X63582737Y-62427200D01*
X63582737Y-62427200D02*
X63677975Y-62331961D01*
X63677975Y-62331961D02*
X63725594Y-62236723D01*
X63725594Y-62236723D02*
X63773213Y-62046247D01*
X63773213Y-62046247D02*
X63773213Y-61903390D01*
X63773213Y-61903390D02*
X63725594Y-61712914D01*
X63725594Y-61712914D02*
X63677975Y-61617676D01*
X63677975Y-61617676D02*
X63582737Y-61522438D01*
X63582737Y-61522438D02*
X63439880Y-61474819D01*
X63439880Y-61474819D02*
X63344642Y-61474819D01*
X63344642Y-61474819D02*
X63201785Y-61522438D01*
X63201785Y-61522438D02*
X63154166Y-61570057D01*
X62820832Y-61474819D02*
X62201785Y-61474819D01*
X62201785Y-61474819D02*
X62535118Y-61855771D01*
X62535118Y-61855771D02*
X62392261Y-61855771D01*
X62392261Y-61855771D02*
X62297023Y-61903390D01*
X62297023Y-61903390D02*
X62249404Y-61951009D01*
X62249404Y-61951009D02*
X62201785Y-62046247D01*
X62201785Y-62046247D02*
X62201785Y-62284342D01*
X62201785Y-62284342D02*
X62249404Y-62379580D01*
X62249404Y-62379580D02*
X62297023Y-62427200D01*
X62297023Y-62427200D02*
X62392261Y-62474819D01*
X62392261Y-62474819D02*
X62677975Y-62474819D01*
X62677975Y-62474819D02*
X62773213Y-62427200D01*
X62773213Y-62427200D02*
X62820832Y-62379580D01*
X120630357Y-62379580D02*
X120677976Y-62427200D01*
X120677976Y-62427200D02*
X120820833Y-62474819D01*
X120820833Y-62474819D02*
X120916071Y-62474819D01*
X120916071Y-62474819D02*
X121058928Y-62427200D01*
X121058928Y-62427200D02*
X121154166Y-62331961D01*
X121154166Y-62331961D02*
X121201785Y-62236723D01*
X121201785Y-62236723D02*
X121249404Y-62046247D01*
X121249404Y-62046247D02*
X121249404Y-61903390D01*
X121249404Y-61903390D02*
X121201785Y-61712914D01*
X121201785Y-61712914D02*
X121154166Y-61617676D01*
X121154166Y-61617676D02*
X121058928Y-61522438D01*
X121058928Y-61522438D02*
X120916071Y-61474819D01*
X120916071Y-61474819D02*
X120820833Y-61474819D01*
X120820833Y-61474819D02*
X120677976Y-61522438D01*
X120677976Y-61522438D02*
X120630357Y-61570057D01*
X119677976Y-62474819D02*
X120249404Y-62474819D01*
X119963690Y-62474819D02*
X119963690Y-61474819D01*
X119963690Y-61474819D02*
X120058928Y-61617676D01*
X120058928Y-61617676D02*
X120154166Y-61712914D01*
X120154166Y-61712914D02*
X120249404Y-61760533D01*
X118725595Y-62474819D02*
X119297023Y-62474819D01*
X119011309Y-62474819D02*
X119011309Y-61474819D01*
X119011309Y-61474819D02*
X119106547Y-61617676D01*
X119106547Y-61617676D02*
X119201785Y-61712914D01*
X119201785Y-61712914D02*
X119297023Y-61760533D01*
D11*
X109147619Y-62934318D02*
X109147619Y-63962413D01*
X109147619Y-63962413D02*
X109087142Y-64083365D01*
X109087142Y-64083365D02*
X109026666Y-64143842D01*
X109026666Y-64143842D02*
X108905714Y-64204318D01*
X108905714Y-64204318D02*
X108663809Y-64204318D01*
X108663809Y-64204318D02*
X108542857Y-64143842D01*
X108542857Y-64143842D02*
X108482380Y-64083365D01*
X108482380Y-64083365D02*
X108421904Y-63962413D01*
X108421904Y-63962413D02*
X108421904Y-62934318D01*
X107151904Y-64204318D02*
X107877619Y-64204318D01*
X107514762Y-64204318D02*
X107514762Y-62934318D01*
X107514762Y-62934318D02*
X107635714Y-63115746D01*
X107635714Y-63115746D02*
X107756666Y-63236699D01*
X107756666Y-63236699D02*
X107877619Y-63297175D01*
D10*
X95061904Y-80334819D02*
X95061904Y-81144342D01*
X95061904Y-81144342D02*
X95014285Y-81239580D01*
X95014285Y-81239580D02*
X94966666Y-81287200D01*
X94966666Y-81287200D02*
X94871428Y-81334819D01*
X94871428Y-81334819D02*
X94680952Y-81334819D01*
X94680952Y-81334819D02*
X94585714Y-81287200D01*
X94585714Y-81287200D02*
X94538095Y-81239580D01*
X94538095Y-81239580D02*
X94490476Y-81144342D01*
X94490476Y-81144342D02*
X94490476Y-80334819D01*
X93538095Y-80334819D02*
X94014285Y-80334819D01*
X94014285Y-80334819D02*
X94061904Y-80811009D01*
X94061904Y-80811009D02*
X94014285Y-80763390D01*
X94014285Y-80763390D02*
X93919047Y-80715771D01*
X93919047Y-80715771D02*
X93680952Y-80715771D01*
X93680952Y-80715771D02*
X93585714Y-80763390D01*
X93585714Y-80763390D02*
X93538095Y-80811009D01*
X93538095Y-80811009D02*
X93490476Y-80906247D01*
X93490476Y-80906247D02*
X93490476Y-81144342D01*
X93490476Y-81144342D02*
X93538095Y-81239580D01*
X93538095Y-81239580D02*
X93585714Y-81287200D01*
X93585714Y-81287200D02*
X93680952Y-81334819D01*
X93680952Y-81334819D02*
X93919047Y-81334819D01*
X93919047Y-81334819D02*
X94014285Y-81287200D01*
X94014285Y-81287200D02*
X94061904Y-81239580D01*
X132154819Y-51167142D02*
X131678628Y-50833809D01*
X132154819Y-50595714D02*
X131154819Y-50595714D01*
X131154819Y-50595714D02*
X131154819Y-50976666D01*
X131154819Y-50976666D02*
X131202438Y-51071904D01*
X131202438Y-51071904D02*
X131250057Y-51119523D01*
X131250057Y-51119523D02*
X131345295Y-51167142D01*
X131345295Y-51167142D02*
X131488152Y-51167142D01*
X131488152Y-51167142D02*
X131583390Y-51119523D01*
X131583390Y-51119523D02*
X131631009Y-51071904D01*
X131631009Y-51071904D02*
X131678628Y-50976666D01*
X131678628Y-50976666D02*
X131678628Y-50595714D01*
X131250057Y-51548095D02*
X131202438Y-51595714D01*
X131202438Y-51595714D02*
X131154819Y-51690952D01*
X131154819Y-51690952D02*
X131154819Y-51929047D01*
X131154819Y-51929047D02*
X131202438Y-52024285D01*
X131202438Y-52024285D02*
X131250057Y-52071904D01*
X131250057Y-52071904D02*
X131345295Y-52119523D01*
X131345295Y-52119523D02*
X131440533Y-52119523D01*
X131440533Y-52119523D02*
X131583390Y-52071904D01*
X131583390Y-52071904D02*
X132154819Y-51500476D01*
X132154819Y-51500476D02*
X132154819Y-52119523D01*
X131154819Y-52976666D02*
X131154819Y-52786190D01*
X131154819Y-52786190D02*
X131202438Y-52690952D01*
X131202438Y-52690952D02*
X131250057Y-52643333D01*
X131250057Y-52643333D02*
X131392914Y-52548095D01*
X131392914Y-52548095D02*
X131583390Y-52500476D01*
X131583390Y-52500476D02*
X131964342Y-52500476D01*
X131964342Y-52500476D02*
X132059580Y-52548095D01*
X132059580Y-52548095D02*
X132107200Y-52595714D01*
X132107200Y-52595714D02*
X132154819Y-52690952D01*
X132154819Y-52690952D02*
X132154819Y-52881428D01*
X132154819Y-52881428D02*
X132107200Y-52976666D01*
X132107200Y-52976666D02*
X132059580Y-53024285D01*
X132059580Y-53024285D02*
X131964342Y-53071904D01*
X131964342Y-53071904D02*
X131726247Y-53071904D01*
X131726247Y-53071904D02*
X131631009Y-53024285D01*
X131631009Y-53024285D02*
X131583390Y-52976666D01*
X131583390Y-52976666D02*
X131535771Y-52881428D01*
X131535771Y-52881428D02*
X131535771Y-52690952D01*
X131535771Y-52690952D02*
X131583390Y-52595714D01*
X131583390Y-52595714D02*
X131631009Y-52548095D01*
X131631009Y-52548095D02*
X131726247Y-52500476D01*
X152255357Y-62019580D02*
X152302976Y-62067200D01*
X152302976Y-62067200D02*
X152445833Y-62114819D01*
X152445833Y-62114819D02*
X152541071Y-62114819D01*
X152541071Y-62114819D02*
X152683928Y-62067200D01*
X152683928Y-62067200D02*
X152779166Y-61971961D01*
X152779166Y-61971961D02*
X152826785Y-61876723D01*
X152826785Y-61876723D02*
X152874404Y-61686247D01*
X152874404Y-61686247D02*
X152874404Y-61543390D01*
X152874404Y-61543390D02*
X152826785Y-61352914D01*
X152826785Y-61352914D02*
X152779166Y-61257676D01*
X152779166Y-61257676D02*
X152683928Y-61162438D01*
X152683928Y-61162438D02*
X152541071Y-61114819D01*
X152541071Y-61114819D02*
X152445833Y-61114819D01*
X152445833Y-61114819D02*
X152302976Y-61162438D01*
X152302976Y-61162438D02*
X152255357Y-61210057D01*
X151302976Y-62114819D02*
X151874404Y-62114819D01*
X151588690Y-62114819D02*
X151588690Y-61114819D01*
X151588690Y-61114819D02*
X151683928Y-61257676D01*
X151683928Y-61257676D02*
X151779166Y-61352914D01*
X151779166Y-61352914D02*
X151874404Y-61400533D01*
X150969642Y-61114819D02*
X150302976Y-61114819D01*
X150302976Y-61114819D02*
X150731547Y-62114819D01*
X158952857Y-85909580D02*
X159000476Y-85957200D01*
X159000476Y-85957200D02*
X159143333Y-86004819D01*
X159143333Y-86004819D02*
X159238571Y-86004819D01*
X159238571Y-86004819D02*
X159381428Y-85957200D01*
X159381428Y-85957200D02*
X159476666Y-85861961D01*
X159476666Y-85861961D02*
X159524285Y-85766723D01*
X159524285Y-85766723D02*
X159571904Y-85576247D01*
X159571904Y-85576247D02*
X159571904Y-85433390D01*
X159571904Y-85433390D02*
X159524285Y-85242914D01*
X159524285Y-85242914D02*
X159476666Y-85147676D01*
X159476666Y-85147676D02*
X159381428Y-85052438D01*
X159381428Y-85052438D02*
X159238571Y-85004819D01*
X159238571Y-85004819D02*
X159143333Y-85004819D01*
X159143333Y-85004819D02*
X159000476Y-85052438D01*
X159000476Y-85052438D02*
X158952857Y-85100057D01*
X158000476Y-86004819D02*
X158571904Y-86004819D01*
X158286190Y-86004819D02*
X158286190Y-85004819D01*
X158286190Y-85004819D02*
X158381428Y-85147676D01*
X158381428Y-85147676D02*
X158476666Y-85242914D01*
X158476666Y-85242914D02*
X158571904Y-85290533D01*
X157429047Y-85433390D02*
X157524285Y-85385771D01*
X157524285Y-85385771D02*
X157571904Y-85338152D01*
X157571904Y-85338152D02*
X157619523Y-85242914D01*
X157619523Y-85242914D02*
X157619523Y-85195295D01*
X157619523Y-85195295D02*
X157571904Y-85100057D01*
X157571904Y-85100057D02*
X157524285Y-85052438D01*
X157524285Y-85052438D02*
X157429047Y-85004819D01*
X157429047Y-85004819D02*
X157238571Y-85004819D01*
X157238571Y-85004819D02*
X157143333Y-85052438D01*
X157143333Y-85052438D02*
X157095714Y-85100057D01*
X157095714Y-85100057D02*
X157048095Y-85195295D01*
X157048095Y-85195295D02*
X157048095Y-85242914D01*
X157048095Y-85242914D02*
X157095714Y-85338152D01*
X157095714Y-85338152D02*
X157143333Y-85385771D01*
X157143333Y-85385771D02*
X157238571Y-85433390D01*
X157238571Y-85433390D02*
X157429047Y-85433390D01*
X157429047Y-85433390D02*
X157524285Y-85481009D01*
X157524285Y-85481009D02*
X157571904Y-85528628D01*
X157571904Y-85528628D02*
X157619523Y-85623866D01*
X157619523Y-85623866D02*
X157619523Y-85814342D01*
X157619523Y-85814342D02*
X157571904Y-85909580D01*
X157571904Y-85909580D02*
X157524285Y-85957200D01*
X157524285Y-85957200D02*
X157429047Y-86004819D01*
X157429047Y-86004819D02*
X157238571Y-86004819D01*
X157238571Y-86004819D02*
X157143333Y-85957200D01*
X157143333Y-85957200D02*
X157095714Y-85909580D01*
X157095714Y-85909580D02*
X157048095Y-85814342D01*
X157048095Y-85814342D02*
X157048095Y-85623866D01*
X157048095Y-85623866D02*
X157095714Y-85528628D01*
X157095714Y-85528628D02*
X157143333Y-85481009D01*
X157143333Y-85481009D02*
X157238571Y-85433390D01*
X88639580Y-84655833D02*
X88687200Y-84608214D01*
X88687200Y-84608214D02*
X88734819Y-84465357D01*
X88734819Y-84465357D02*
X88734819Y-84370119D01*
X88734819Y-84370119D02*
X88687200Y-84227262D01*
X88687200Y-84227262D02*
X88591961Y-84132024D01*
X88591961Y-84132024D02*
X88496723Y-84084405D01*
X88496723Y-84084405D02*
X88306247Y-84036786D01*
X88306247Y-84036786D02*
X88163390Y-84036786D01*
X88163390Y-84036786D02*
X87972914Y-84084405D01*
X87972914Y-84084405D02*
X87877676Y-84132024D01*
X87877676Y-84132024D02*
X87782438Y-84227262D01*
X87782438Y-84227262D02*
X87734819Y-84370119D01*
X87734819Y-84370119D02*
X87734819Y-84465357D01*
X87734819Y-84465357D02*
X87782438Y-84608214D01*
X87782438Y-84608214D02*
X87830057Y-84655833D01*
X88163390Y-85227262D02*
X88115771Y-85132024D01*
X88115771Y-85132024D02*
X88068152Y-85084405D01*
X88068152Y-85084405D02*
X87972914Y-85036786D01*
X87972914Y-85036786D02*
X87925295Y-85036786D01*
X87925295Y-85036786D02*
X87830057Y-85084405D01*
X87830057Y-85084405D02*
X87782438Y-85132024D01*
X87782438Y-85132024D02*
X87734819Y-85227262D01*
X87734819Y-85227262D02*
X87734819Y-85417738D01*
X87734819Y-85417738D02*
X87782438Y-85512976D01*
X87782438Y-85512976D02*
X87830057Y-85560595D01*
X87830057Y-85560595D02*
X87925295Y-85608214D01*
X87925295Y-85608214D02*
X87972914Y-85608214D01*
X87972914Y-85608214D02*
X88068152Y-85560595D01*
X88068152Y-85560595D02*
X88115771Y-85512976D01*
X88115771Y-85512976D02*
X88163390Y-85417738D01*
X88163390Y-85417738D02*
X88163390Y-85227262D01*
X88163390Y-85227262D02*
X88211009Y-85132024D01*
X88211009Y-85132024D02*
X88258628Y-85084405D01*
X88258628Y-85084405D02*
X88353866Y-85036786D01*
X88353866Y-85036786D02*
X88544342Y-85036786D01*
X88544342Y-85036786D02*
X88639580Y-85084405D01*
X88639580Y-85084405D02*
X88687200Y-85132024D01*
X88687200Y-85132024D02*
X88734819Y-85227262D01*
X88734819Y-85227262D02*
X88734819Y-85417738D01*
X88734819Y-85417738D02*
X88687200Y-85512976D01*
X88687200Y-85512976D02*
X88639580Y-85560595D01*
X88639580Y-85560595D02*
X88544342Y-85608214D01*
X88544342Y-85608214D02*
X88353866Y-85608214D01*
X88353866Y-85608214D02*
X88258628Y-85560595D01*
X88258628Y-85560595D02*
X88211009Y-85512976D01*
X88211009Y-85512976D02*
X88163390Y-85417738D01*
X145639580Y-84179642D02*
X145687200Y-84132023D01*
X145687200Y-84132023D02*
X145734819Y-83989166D01*
X145734819Y-83989166D02*
X145734819Y-83893928D01*
X145734819Y-83893928D02*
X145687200Y-83751071D01*
X145687200Y-83751071D02*
X145591961Y-83655833D01*
X145591961Y-83655833D02*
X145496723Y-83608214D01*
X145496723Y-83608214D02*
X145306247Y-83560595D01*
X145306247Y-83560595D02*
X145163390Y-83560595D01*
X145163390Y-83560595D02*
X144972914Y-83608214D01*
X144972914Y-83608214D02*
X144877676Y-83655833D01*
X144877676Y-83655833D02*
X144782438Y-83751071D01*
X144782438Y-83751071D02*
X144734819Y-83893928D01*
X144734819Y-83893928D02*
X144734819Y-83989166D01*
X144734819Y-83989166D02*
X144782438Y-84132023D01*
X144782438Y-84132023D02*
X144830057Y-84179642D01*
X145734819Y-85132023D02*
X145734819Y-84560595D01*
X145734819Y-84846309D02*
X144734819Y-84846309D01*
X144734819Y-84846309D02*
X144877676Y-84751071D01*
X144877676Y-84751071D02*
X144972914Y-84655833D01*
X144972914Y-84655833D02*
X145020533Y-84560595D01*
X144734819Y-85989166D02*
X144734819Y-85798690D01*
X144734819Y-85798690D02*
X144782438Y-85703452D01*
X144782438Y-85703452D02*
X144830057Y-85655833D01*
X144830057Y-85655833D02*
X144972914Y-85560595D01*
X144972914Y-85560595D02*
X145163390Y-85512976D01*
X145163390Y-85512976D02*
X145544342Y-85512976D01*
X145544342Y-85512976D02*
X145639580Y-85560595D01*
X145639580Y-85560595D02*
X145687200Y-85608214D01*
X145687200Y-85608214D02*
X145734819Y-85703452D01*
X145734819Y-85703452D02*
X145734819Y-85893928D01*
X145734819Y-85893928D02*
X145687200Y-85989166D01*
X145687200Y-85989166D02*
X145639580Y-86036785D01*
X145639580Y-86036785D02*
X145544342Y-86084404D01*
X145544342Y-86084404D02*
X145306247Y-86084404D01*
X145306247Y-86084404D02*
X145211009Y-86036785D01*
X145211009Y-86036785D02*
X145163390Y-85989166D01*
X145163390Y-85989166D02*
X145115771Y-85893928D01*
X145115771Y-85893928D02*
X145115771Y-85703452D01*
X145115771Y-85703452D02*
X145163390Y-85608214D01*
X145163390Y-85608214D02*
X145211009Y-85560595D01*
X145211009Y-85560595D02*
X145306247Y-85512976D01*
X108823333Y-45004819D02*
X108823333Y-45719104D01*
X108823333Y-45719104D02*
X108870952Y-45861961D01*
X108870952Y-45861961D02*
X108966190Y-45957200D01*
X108966190Y-45957200D02*
X109109047Y-46004819D01*
X109109047Y-46004819D02*
X109204285Y-46004819D01*
X107823333Y-46004819D02*
X108394761Y-46004819D01*
X108109047Y-46004819D02*
X108109047Y-45004819D01*
X108109047Y-45004819D02*
X108204285Y-45147676D01*
X108204285Y-45147676D02*
X108299523Y-45242914D01*
X108299523Y-45242914D02*
X108394761Y-45290533D01*
X84559580Y-60593333D02*
X84607200Y-60545714D01*
X84607200Y-60545714D02*
X84654819Y-60402857D01*
X84654819Y-60402857D02*
X84654819Y-60307619D01*
X84654819Y-60307619D02*
X84607200Y-60164762D01*
X84607200Y-60164762D02*
X84511961Y-60069524D01*
X84511961Y-60069524D02*
X84416723Y-60021905D01*
X84416723Y-60021905D02*
X84226247Y-59974286D01*
X84226247Y-59974286D02*
X84083390Y-59974286D01*
X84083390Y-59974286D02*
X83892914Y-60021905D01*
X83892914Y-60021905D02*
X83797676Y-60069524D01*
X83797676Y-60069524D02*
X83702438Y-60164762D01*
X83702438Y-60164762D02*
X83654819Y-60307619D01*
X83654819Y-60307619D02*
X83654819Y-60402857D01*
X83654819Y-60402857D02*
X83702438Y-60545714D01*
X83702438Y-60545714D02*
X83750057Y-60593333D01*
X83654819Y-60926667D02*
X83654819Y-61593333D01*
X83654819Y-61593333D02*
X84654819Y-61164762D01*
X80454819Y-51177142D02*
X79978628Y-50843809D01*
X80454819Y-50605714D02*
X79454819Y-50605714D01*
X79454819Y-50605714D02*
X79454819Y-50986666D01*
X79454819Y-50986666D02*
X79502438Y-51081904D01*
X79502438Y-51081904D02*
X79550057Y-51129523D01*
X79550057Y-51129523D02*
X79645295Y-51177142D01*
X79645295Y-51177142D02*
X79788152Y-51177142D01*
X79788152Y-51177142D02*
X79883390Y-51129523D01*
X79883390Y-51129523D02*
X79931009Y-51081904D01*
X79931009Y-51081904D02*
X79978628Y-50986666D01*
X79978628Y-50986666D02*
X79978628Y-50605714D01*
X79550057Y-51558095D02*
X79502438Y-51605714D01*
X79502438Y-51605714D02*
X79454819Y-51700952D01*
X79454819Y-51700952D02*
X79454819Y-51939047D01*
X79454819Y-51939047D02*
X79502438Y-52034285D01*
X79502438Y-52034285D02*
X79550057Y-52081904D01*
X79550057Y-52081904D02*
X79645295Y-52129523D01*
X79645295Y-52129523D02*
X79740533Y-52129523D01*
X79740533Y-52129523D02*
X79883390Y-52081904D01*
X79883390Y-52081904D02*
X80454819Y-51510476D01*
X80454819Y-51510476D02*
X80454819Y-52129523D01*
X80454819Y-52605714D02*
X80454819Y-52796190D01*
X80454819Y-52796190D02*
X80407200Y-52891428D01*
X80407200Y-52891428D02*
X80359580Y-52939047D01*
X80359580Y-52939047D02*
X80216723Y-53034285D01*
X80216723Y-53034285D02*
X80026247Y-53081904D01*
X80026247Y-53081904D02*
X79645295Y-53081904D01*
X79645295Y-53081904D02*
X79550057Y-53034285D01*
X79550057Y-53034285D02*
X79502438Y-52986666D01*
X79502438Y-52986666D02*
X79454819Y-52891428D01*
X79454819Y-52891428D02*
X79454819Y-52700952D01*
X79454819Y-52700952D02*
X79502438Y-52605714D01*
X79502438Y-52605714D02*
X79550057Y-52558095D01*
X79550057Y-52558095D02*
X79645295Y-52510476D01*
X79645295Y-52510476D02*
X79883390Y-52510476D01*
X79883390Y-52510476D02*
X79978628Y-52558095D01*
X79978628Y-52558095D02*
X80026247Y-52605714D01*
X80026247Y-52605714D02*
X80073866Y-52700952D01*
X80073866Y-52700952D02*
X80073866Y-52891428D01*
X80073866Y-52891428D02*
X80026247Y-52986666D01*
X80026247Y-52986666D02*
X79978628Y-53034285D01*
X79978628Y-53034285D02*
X79883390Y-53081904D01*
X117139580Y-84179642D02*
X117187200Y-84132023D01*
X117187200Y-84132023D02*
X117234819Y-83989166D01*
X117234819Y-83989166D02*
X117234819Y-83893928D01*
X117234819Y-83893928D02*
X117187200Y-83751071D01*
X117187200Y-83751071D02*
X117091961Y-83655833D01*
X117091961Y-83655833D02*
X116996723Y-83608214D01*
X116996723Y-83608214D02*
X116806247Y-83560595D01*
X116806247Y-83560595D02*
X116663390Y-83560595D01*
X116663390Y-83560595D02*
X116472914Y-83608214D01*
X116472914Y-83608214D02*
X116377676Y-83655833D01*
X116377676Y-83655833D02*
X116282438Y-83751071D01*
X116282438Y-83751071D02*
X116234819Y-83893928D01*
X116234819Y-83893928D02*
X116234819Y-83989166D01*
X116234819Y-83989166D02*
X116282438Y-84132023D01*
X116282438Y-84132023D02*
X116330057Y-84179642D01*
X117234819Y-85132023D02*
X117234819Y-84560595D01*
X117234819Y-84846309D02*
X116234819Y-84846309D01*
X116234819Y-84846309D02*
X116377676Y-84751071D01*
X116377676Y-84751071D02*
X116472914Y-84655833D01*
X116472914Y-84655833D02*
X116520533Y-84560595D01*
X116330057Y-85512976D02*
X116282438Y-85560595D01*
X116282438Y-85560595D02*
X116234819Y-85655833D01*
X116234819Y-85655833D02*
X116234819Y-85893928D01*
X116234819Y-85893928D02*
X116282438Y-85989166D01*
X116282438Y-85989166D02*
X116330057Y-86036785D01*
X116330057Y-86036785D02*
X116425295Y-86084404D01*
X116425295Y-86084404D02*
X116520533Y-86084404D01*
X116520533Y-86084404D02*
X116663390Y-86036785D01*
X116663390Y-86036785D02*
X117234819Y-85465357D01*
X117234819Y-85465357D02*
X117234819Y-86084404D01*
X152061904Y-51994819D02*
X152061904Y-52804342D01*
X152061904Y-52804342D02*
X152014285Y-52899580D01*
X152014285Y-52899580D02*
X151966666Y-52947200D01*
X151966666Y-52947200D02*
X151871428Y-52994819D01*
X151871428Y-52994819D02*
X151680952Y-52994819D01*
X151680952Y-52994819D02*
X151585714Y-52947200D01*
X151585714Y-52947200D02*
X151538095Y-52899580D01*
X151538095Y-52899580D02*
X151490476Y-52804342D01*
X151490476Y-52804342D02*
X151490476Y-51994819D01*
X150871428Y-52423390D02*
X150966666Y-52375771D01*
X150966666Y-52375771D02*
X151014285Y-52328152D01*
X151014285Y-52328152D02*
X151061904Y-52232914D01*
X151061904Y-52232914D02*
X151061904Y-52185295D01*
X151061904Y-52185295D02*
X151014285Y-52090057D01*
X151014285Y-52090057D02*
X150966666Y-52042438D01*
X150966666Y-52042438D02*
X150871428Y-51994819D01*
X150871428Y-51994819D02*
X150680952Y-51994819D01*
X150680952Y-51994819D02*
X150585714Y-52042438D01*
X150585714Y-52042438D02*
X150538095Y-52090057D01*
X150538095Y-52090057D02*
X150490476Y-52185295D01*
X150490476Y-52185295D02*
X150490476Y-52232914D01*
X150490476Y-52232914D02*
X150538095Y-52328152D01*
X150538095Y-52328152D02*
X150585714Y-52375771D01*
X150585714Y-52375771D02*
X150680952Y-52423390D01*
X150680952Y-52423390D02*
X150871428Y-52423390D01*
X150871428Y-52423390D02*
X150966666Y-52471009D01*
X150966666Y-52471009D02*
X151014285Y-52518628D01*
X151014285Y-52518628D02*
X151061904Y-52613866D01*
X151061904Y-52613866D02*
X151061904Y-52804342D01*
X151061904Y-52804342D02*
X151014285Y-52899580D01*
X151014285Y-52899580D02*
X150966666Y-52947200D01*
X150966666Y-52947200D02*
X150871428Y-52994819D01*
X150871428Y-52994819D02*
X150680952Y-52994819D01*
X150680952Y-52994819D02*
X150585714Y-52947200D01*
X150585714Y-52947200D02*
X150538095Y-52899580D01*
X150538095Y-52899580D02*
X150490476Y-52804342D01*
X150490476Y-52804342D02*
X150490476Y-52613866D01*
X150490476Y-52613866D02*
X150538095Y-52518628D01*
X150538095Y-52518628D02*
X150585714Y-52471009D01*
X150585714Y-52471009D02*
X150680952Y-52423390D01*
X128814819Y-61467142D02*
X128338628Y-61133809D01*
X128814819Y-60895714D02*
X127814819Y-60895714D01*
X127814819Y-60895714D02*
X127814819Y-61276666D01*
X127814819Y-61276666D02*
X127862438Y-61371904D01*
X127862438Y-61371904D02*
X127910057Y-61419523D01*
X127910057Y-61419523D02*
X128005295Y-61467142D01*
X128005295Y-61467142D02*
X128148152Y-61467142D01*
X128148152Y-61467142D02*
X128243390Y-61419523D01*
X128243390Y-61419523D02*
X128291009Y-61371904D01*
X128291009Y-61371904D02*
X128338628Y-61276666D01*
X128338628Y-61276666D02*
X128338628Y-60895714D01*
X127814819Y-61800476D02*
X127814819Y-62419523D01*
X127814819Y-62419523D02*
X128195771Y-62086190D01*
X128195771Y-62086190D02*
X128195771Y-62229047D01*
X128195771Y-62229047D02*
X128243390Y-62324285D01*
X128243390Y-62324285D02*
X128291009Y-62371904D01*
X128291009Y-62371904D02*
X128386247Y-62419523D01*
X128386247Y-62419523D02*
X128624342Y-62419523D01*
X128624342Y-62419523D02*
X128719580Y-62371904D01*
X128719580Y-62371904D02*
X128767200Y-62324285D01*
X128767200Y-62324285D02*
X128814819Y-62229047D01*
X128814819Y-62229047D02*
X128814819Y-61943333D01*
X128814819Y-61943333D02*
X128767200Y-61848095D01*
X128767200Y-61848095D02*
X128719580Y-61800476D01*
X127814819Y-63038571D02*
X127814819Y-63133809D01*
X127814819Y-63133809D02*
X127862438Y-63229047D01*
X127862438Y-63229047D02*
X127910057Y-63276666D01*
X127910057Y-63276666D02*
X128005295Y-63324285D01*
X128005295Y-63324285D02*
X128195771Y-63371904D01*
X128195771Y-63371904D02*
X128433866Y-63371904D01*
X128433866Y-63371904D02*
X128624342Y-63324285D01*
X128624342Y-63324285D02*
X128719580Y-63276666D01*
X128719580Y-63276666D02*
X128767200Y-63229047D01*
X128767200Y-63229047D02*
X128814819Y-63133809D01*
X128814819Y-63133809D02*
X128814819Y-63038571D01*
X128814819Y-63038571D02*
X128767200Y-62943333D01*
X128767200Y-62943333D02*
X128719580Y-62895714D01*
X128719580Y-62895714D02*
X128624342Y-62848095D01*
X128624342Y-62848095D02*
X128433866Y-62800476D01*
X128433866Y-62800476D02*
X128195771Y-62800476D01*
X128195771Y-62800476D02*
X128005295Y-62848095D01*
X128005295Y-62848095D02*
X127910057Y-62895714D01*
X127910057Y-62895714D02*
X127862438Y-62943333D01*
X127862438Y-62943333D02*
X127814819Y-63038571D01*
X72976666Y-85909580D02*
X73024285Y-85957200D01*
X73024285Y-85957200D02*
X73167142Y-86004819D01*
X73167142Y-86004819D02*
X73262380Y-86004819D01*
X73262380Y-86004819D02*
X73405237Y-85957200D01*
X73405237Y-85957200D02*
X73500475Y-85861961D01*
X73500475Y-85861961D02*
X73548094Y-85766723D01*
X73548094Y-85766723D02*
X73595713Y-85576247D01*
X73595713Y-85576247D02*
X73595713Y-85433390D01*
X73595713Y-85433390D02*
X73548094Y-85242914D01*
X73548094Y-85242914D02*
X73500475Y-85147676D01*
X73500475Y-85147676D02*
X73405237Y-85052438D01*
X73405237Y-85052438D02*
X73262380Y-85004819D01*
X73262380Y-85004819D02*
X73167142Y-85004819D01*
X73167142Y-85004819D02*
X73024285Y-85052438D01*
X73024285Y-85052438D02*
X72976666Y-85100057D01*
X72119523Y-85004819D02*
X72309999Y-85004819D01*
X72309999Y-85004819D02*
X72405237Y-85052438D01*
X72405237Y-85052438D02*
X72452856Y-85100057D01*
X72452856Y-85100057D02*
X72548094Y-85242914D01*
X72548094Y-85242914D02*
X72595713Y-85433390D01*
X72595713Y-85433390D02*
X72595713Y-85814342D01*
X72595713Y-85814342D02*
X72548094Y-85909580D01*
X72548094Y-85909580D02*
X72500475Y-85957200D01*
X72500475Y-85957200D02*
X72405237Y-86004819D01*
X72405237Y-86004819D02*
X72214761Y-86004819D01*
X72214761Y-86004819D02*
X72119523Y-85957200D01*
X72119523Y-85957200D02*
X72071904Y-85909580D01*
X72071904Y-85909580D02*
X72024285Y-85814342D01*
X72024285Y-85814342D02*
X72024285Y-85576247D01*
X72024285Y-85576247D02*
X72071904Y-85481009D01*
X72071904Y-85481009D02*
X72119523Y-85433390D01*
X72119523Y-85433390D02*
X72214761Y-85385771D01*
X72214761Y-85385771D02*
X72405237Y-85385771D01*
X72405237Y-85385771D02*
X72500475Y-85433390D01*
X72500475Y-85433390D02*
X72548094Y-85481009D01*
X72548094Y-85481009D02*
X72595713Y-85576247D01*
X108584066Y-81359580D02*
X108631685Y-81407200D01*
X108631685Y-81407200D02*
X108774542Y-81454819D01*
X108774542Y-81454819D02*
X108869780Y-81454819D01*
X108869780Y-81454819D02*
X109012637Y-81407200D01*
X109012637Y-81407200D02*
X109107875Y-81311961D01*
X109107875Y-81311961D02*
X109155494Y-81216723D01*
X109155494Y-81216723D02*
X109203113Y-81026247D01*
X109203113Y-81026247D02*
X109203113Y-80883390D01*
X109203113Y-80883390D02*
X109155494Y-80692914D01*
X109155494Y-80692914D02*
X109107875Y-80597676D01*
X109107875Y-80597676D02*
X109012637Y-80502438D01*
X109012637Y-80502438D02*
X108869780Y-80454819D01*
X108869780Y-80454819D02*
X108774542Y-80454819D01*
X108774542Y-80454819D02*
X108631685Y-80502438D01*
X108631685Y-80502438D02*
X108584066Y-80550057D01*
X107631685Y-81454819D02*
X108203113Y-81454819D01*
X107917399Y-81454819D02*
X107917399Y-80454819D01*
X107917399Y-80454819D02*
X108012637Y-80597676D01*
X108012637Y-80597676D02*
X108107875Y-80692914D01*
X108107875Y-80692914D02*
X108203113Y-80740533D01*
X141524819Y-51937142D02*
X141048628Y-51603809D01*
X141524819Y-51365714D02*
X140524819Y-51365714D01*
X140524819Y-51365714D02*
X140524819Y-51746666D01*
X140524819Y-51746666D02*
X140572438Y-51841904D01*
X140572438Y-51841904D02*
X140620057Y-51889523D01*
X140620057Y-51889523D02*
X140715295Y-51937142D01*
X140715295Y-51937142D02*
X140858152Y-51937142D01*
X140858152Y-51937142D02*
X140953390Y-51889523D01*
X140953390Y-51889523D02*
X141001009Y-51841904D01*
X141001009Y-51841904D02*
X141048628Y-51746666D01*
X141048628Y-51746666D02*
X141048628Y-51365714D01*
X140620057Y-52318095D02*
X140572438Y-52365714D01*
X140572438Y-52365714D02*
X140524819Y-52460952D01*
X140524819Y-52460952D02*
X140524819Y-52699047D01*
X140524819Y-52699047D02*
X140572438Y-52794285D01*
X140572438Y-52794285D02*
X140620057Y-52841904D01*
X140620057Y-52841904D02*
X140715295Y-52889523D01*
X140715295Y-52889523D02*
X140810533Y-52889523D01*
X140810533Y-52889523D02*
X140953390Y-52841904D01*
X140953390Y-52841904D02*
X141524819Y-52270476D01*
X141524819Y-52270476D02*
X141524819Y-52889523D01*
X140524819Y-53222857D02*
X140524819Y-53889523D01*
X140524819Y-53889523D02*
X141524819Y-53460952D01*
X84044819Y-51177142D02*
X83568628Y-50843809D01*
X84044819Y-50605714D02*
X83044819Y-50605714D01*
X83044819Y-50605714D02*
X83044819Y-50986666D01*
X83044819Y-50986666D02*
X83092438Y-51081904D01*
X83092438Y-51081904D02*
X83140057Y-51129523D01*
X83140057Y-51129523D02*
X83235295Y-51177142D01*
X83235295Y-51177142D02*
X83378152Y-51177142D01*
X83378152Y-51177142D02*
X83473390Y-51129523D01*
X83473390Y-51129523D02*
X83521009Y-51081904D01*
X83521009Y-51081904D02*
X83568628Y-50986666D01*
X83568628Y-50986666D02*
X83568628Y-50605714D01*
X83140057Y-51558095D02*
X83092438Y-51605714D01*
X83092438Y-51605714D02*
X83044819Y-51700952D01*
X83044819Y-51700952D02*
X83044819Y-51939047D01*
X83044819Y-51939047D02*
X83092438Y-52034285D01*
X83092438Y-52034285D02*
X83140057Y-52081904D01*
X83140057Y-52081904D02*
X83235295Y-52129523D01*
X83235295Y-52129523D02*
X83330533Y-52129523D01*
X83330533Y-52129523D02*
X83473390Y-52081904D01*
X83473390Y-52081904D02*
X84044819Y-51510476D01*
X84044819Y-51510476D02*
X84044819Y-52129523D01*
X83044819Y-53034285D02*
X83044819Y-52558095D01*
X83044819Y-52558095D02*
X83521009Y-52510476D01*
X83521009Y-52510476D02*
X83473390Y-52558095D01*
X83473390Y-52558095D02*
X83425771Y-52653333D01*
X83425771Y-52653333D02*
X83425771Y-52891428D01*
X83425771Y-52891428D02*
X83473390Y-52986666D01*
X83473390Y-52986666D02*
X83521009Y-53034285D01*
X83521009Y-53034285D02*
X83616247Y-53081904D01*
X83616247Y-53081904D02*
X83854342Y-53081904D01*
X83854342Y-53081904D02*
X83949580Y-53034285D01*
X83949580Y-53034285D02*
X83997200Y-52986666D01*
X83997200Y-52986666D02*
X84044819Y-52891428D01*
X84044819Y-52891428D02*
X84044819Y-52653333D01*
X84044819Y-52653333D02*
X83997200Y-52558095D01*
X83997200Y-52558095D02*
X83949580Y-52510476D01*
X95061904Y-51994819D02*
X95061904Y-52804342D01*
X95061904Y-52804342D02*
X95014285Y-52899580D01*
X95014285Y-52899580D02*
X94966666Y-52947200D01*
X94966666Y-52947200D02*
X94871428Y-52994819D01*
X94871428Y-52994819D02*
X94680952Y-52994819D01*
X94680952Y-52994819D02*
X94585714Y-52947200D01*
X94585714Y-52947200D02*
X94538095Y-52899580D01*
X94538095Y-52899580D02*
X94490476Y-52804342D01*
X94490476Y-52804342D02*
X94490476Y-51994819D01*
X93585714Y-52328152D02*
X93585714Y-52994819D01*
X93823809Y-51947200D02*
X94061904Y-52661485D01*
X94061904Y-52661485D02*
X93442857Y-52661485D01*
X152061904Y-80334819D02*
X152061904Y-81144342D01*
X152061904Y-81144342D02*
X152014285Y-81239580D01*
X152014285Y-81239580D02*
X151966666Y-81287200D01*
X151966666Y-81287200D02*
X151871428Y-81334819D01*
X151871428Y-81334819D02*
X151680952Y-81334819D01*
X151680952Y-81334819D02*
X151585714Y-81287200D01*
X151585714Y-81287200D02*
X151538095Y-81239580D01*
X151538095Y-81239580D02*
X151490476Y-81144342D01*
X151490476Y-81144342D02*
X151490476Y-80334819D01*
X150966666Y-81334819D02*
X150776190Y-81334819D01*
X150776190Y-81334819D02*
X150680952Y-81287200D01*
X150680952Y-81287200D02*
X150633333Y-81239580D01*
X150633333Y-81239580D02*
X150538095Y-81096723D01*
X150538095Y-81096723D02*
X150490476Y-80906247D01*
X150490476Y-80906247D02*
X150490476Y-80525295D01*
X150490476Y-80525295D02*
X150538095Y-80430057D01*
X150538095Y-80430057D02*
X150585714Y-80382438D01*
X150585714Y-80382438D02*
X150680952Y-80334819D01*
X150680952Y-80334819D02*
X150871428Y-80334819D01*
X150871428Y-80334819D02*
X150966666Y-80382438D01*
X150966666Y-80382438D02*
X151014285Y-80430057D01*
X151014285Y-80430057D02*
X151061904Y-80525295D01*
X151061904Y-80525295D02*
X151061904Y-80763390D01*
X151061904Y-80763390D02*
X151014285Y-80858628D01*
X151014285Y-80858628D02*
X150966666Y-80906247D01*
X150966666Y-80906247D02*
X150871428Y-80953866D01*
X150871428Y-80953866D02*
X150680952Y-80953866D01*
X150680952Y-80953866D02*
X150585714Y-80906247D01*
X150585714Y-80906247D02*
X150538095Y-80858628D01*
X150538095Y-80858628D02*
X150490476Y-80763390D01*
X149192857Y-62969580D02*
X149240476Y-63017200D01*
X149240476Y-63017200D02*
X149383333Y-63064819D01*
X149383333Y-63064819D02*
X149478571Y-63064819D01*
X149478571Y-63064819D02*
X149621428Y-63017200D01*
X149621428Y-63017200D02*
X149716666Y-62921961D01*
X149716666Y-62921961D02*
X149764285Y-62826723D01*
X149764285Y-62826723D02*
X149811904Y-62636247D01*
X149811904Y-62636247D02*
X149811904Y-62493390D01*
X149811904Y-62493390D02*
X149764285Y-62302914D01*
X149764285Y-62302914D02*
X149716666Y-62207676D01*
X149716666Y-62207676D02*
X149621428Y-62112438D01*
X149621428Y-62112438D02*
X149478571Y-62064819D01*
X149478571Y-62064819D02*
X149383333Y-62064819D01*
X149383333Y-62064819D02*
X149240476Y-62112438D01*
X149240476Y-62112438D02*
X149192857Y-62160057D01*
X148240476Y-63064819D02*
X148811904Y-63064819D01*
X148526190Y-63064819D02*
X148526190Y-62064819D01*
X148526190Y-62064819D02*
X148621428Y-62207676D01*
X148621428Y-62207676D02*
X148716666Y-62302914D01*
X148716666Y-62302914D02*
X148811904Y-62350533D01*
X147335714Y-62064819D02*
X147811904Y-62064819D01*
X147811904Y-62064819D02*
X147859523Y-62541009D01*
X147859523Y-62541009D02*
X147811904Y-62493390D01*
X147811904Y-62493390D02*
X147716666Y-62445771D01*
X147716666Y-62445771D02*
X147478571Y-62445771D01*
X147478571Y-62445771D02*
X147383333Y-62493390D01*
X147383333Y-62493390D02*
X147335714Y-62541009D01*
X147335714Y-62541009D02*
X147288095Y-62636247D01*
X147288095Y-62636247D02*
X147288095Y-62874342D01*
X147288095Y-62874342D02*
X147335714Y-62969580D01*
X147335714Y-62969580D02*
X147383333Y-63017200D01*
X147383333Y-63017200D02*
X147478571Y-63064819D01*
X147478571Y-63064819D02*
X147716666Y-63064819D01*
X147716666Y-63064819D02*
X147811904Y-63017200D01*
X147811904Y-63017200D02*
X147859523Y-62969580D01*
X123561904Y-51994819D02*
X123561904Y-52804342D01*
X123561904Y-52804342D02*
X123514285Y-52899580D01*
X123514285Y-52899580D02*
X123466666Y-52947200D01*
X123466666Y-52947200D02*
X123371428Y-52994819D01*
X123371428Y-52994819D02*
X123180952Y-52994819D01*
X123180952Y-52994819D02*
X123085714Y-52947200D01*
X123085714Y-52947200D02*
X123038095Y-52899580D01*
X123038095Y-52899580D02*
X122990476Y-52804342D01*
X122990476Y-52804342D02*
X122990476Y-51994819D01*
X122085714Y-51994819D02*
X122276190Y-51994819D01*
X122276190Y-51994819D02*
X122371428Y-52042438D01*
X122371428Y-52042438D02*
X122419047Y-52090057D01*
X122419047Y-52090057D02*
X122514285Y-52232914D01*
X122514285Y-52232914D02*
X122561904Y-52423390D01*
X122561904Y-52423390D02*
X122561904Y-52804342D01*
X122561904Y-52804342D02*
X122514285Y-52899580D01*
X122514285Y-52899580D02*
X122466666Y-52947200D01*
X122466666Y-52947200D02*
X122371428Y-52994819D01*
X122371428Y-52994819D02*
X122180952Y-52994819D01*
X122180952Y-52994819D02*
X122085714Y-52947200D01*
X122085714Y-52947200D02*
X122038095Y-52899580D01*
X122038095Y-52899580D02*
X121990476Y-52804342D01*
X121990476Y-52804342D02*
X121990476Y-52566247D01*
X121990476Y-52566247D02*
X122038095Y-52471009D01*
X122038095Y-52471009D02*
X122085714Y-52423390D01*
X122085714Y-52423390D02*
X122180952Y-52375771D01*
X122180952Y-52375771D02*
X122371428Y-52375771D01*
X122371428Y-52375771D02*
X122466666Y-52423390D01*
X122466666Y-52423390D02*
X122514285Y-52471009D01*
X122514285Y-52471009D02*
X122561904Y-52566247D01*
X111216666Y-56784819D02*
X111549999Y-56308628D01*
X111788094Y-56784819D02*
X111788094Y-55784819D01*
X111788094Y-55784819D02*
X111407142Y-55784819D01*
X111407142Y-55784819D02*
X111311904Y-55832438D01*
X111311904Y-55832438D02*
X111264285Y-55880057D01*
X111264285Y-55880057D02*
X111216666Y-55975295D01*
X111216666Y-55975295D02*
X111216666Y-56118152D01*
X111216666Y-56118152D02*
X111264285Y-56213390D01*
X111264285Y-56213390D02*
X111311904Y-56261009D01*
X111311904Y-56261009D02*
X111407142Y-56308628D01*
X111407142Y-56308628D02*
X111788094Y-56308628D01*
X110264285Y-56784819D02*
X110835713Y-56784819D01*
X110549999Y-56784819D02*
X110549999Y-55784819D01*
X110549999Y-55784819D02*
X110645237Y-55927676D01*
X110645237Y-55927676D02*
X110740475Y-56022914D01*
X110740475Y-56022914D02*
X110835713Y-56070533D01*
X66279166Y-61229580D02*
X66326785Y-61277200D01*
X66326785Y-61277200D02*
X66469642Y-61324819D01*
X66469642Y-61324819D02*
X66564880Y-61324819D01*
X66564880Y-61324819D02*
X66707737Y-61277200D01*
X66707737Y-61277200D02*
X66802975Y-61181961D01*
X66802975Y-61181961D02*
X66850594Y-61086723D01*
X66850594Y-61086723D02*
X66898213Y-60896247D01*
X66898213Y-60896247D02*
X66898213Y-60753390D01*
X66898213Y-60753390D02*
X66850594Y-60562914D01*
X66850594Y-60562914D02*
X66802975Y-60467676D01*
X66802975Y-60467676D02*
X66707737Y-60372438D01*
X66707737Y-60372438D02*
X66564880Y-60324819D01*
X66564880Y-60324819D02*
X66469642Y-60324819D01*
X66469642Y-60324819D02*
X66326785Y-60372438D01*
X66326785Y-60372438D02*
X66279166Y-60420057D01*
X65422023Y-60658152D02*
X65422023Y-61324819D01*
X65660118Y-60277200D02*
X65898213Y-60991485D01*
X65898213Y-60991485D02*
X65279166Y-60991485D01*
X108566666Y-75559580D02*
X108614285Y-75607200D01*
X108614285Y-75607200D02*
X108757142Y-75654819D01*
X108757142Y-75654819D02*
X108852380Y-75654819D01*
X108852380Y-75654819D02*
X108995237Y-75607200D01*
X108995237Y-75607200D02*
X109090475Y-75511961D01*
X109090475Y-75511961D02*
X109138094Y-75416723D01*
X109138094Y-75416723D02*
X109185713Y-75226247D01*
X109185713Y-75226247D02*
X109185713Y-75083390D01*
X109185713Y-75083390D02*
X109138094Y-74892914D01*
X109138094Y-74892914D02*
X109090475Y-74797676D01*
X109090475Y-74797676D02*
X108995237Y-74702438D01*
X108995237Y-74702438D02*
X108852380Y-74654819D01*
X108852380Y-74654819D02*
X108757142Y-74654819D01*
X108757142Y-74654819D02*
X108614285Y-74702438D01*
X108614285Y-74702438D02*
X108566666Y-74750057D01*
X108185713Y-74750057D02*
X108138094Y-74702438D01*
X108138094Y-74702438D02*
X108042856Y-74654819D01*
X108042856Y-74654819D02*
X107804761Y-74654819D01*
X107804761Y-74654819D02*
X107709523Y-74702438D01*
X107709523Y-74702438D02*
X107661904Y-74750057D01*
X107661904Y-74750057D02*
X107614285Y-74845295D01*
X107614285Y-74845295D02*
X107614285Y-74940533D01*
X107614285Y-74940533D02*
X107661904Y-75083390D01*
X107661904Y-75083390D02*
X108233332Y-75654819D01*
X108233332Y-75654819D02*
X107614285Y-75654819D01*
X101952857Y-85909580D02*
X102000476Y-85957200D01*
X102000476Y-85957200D02*
X102143333Y-86004819D01*
X102143333Y-86004819D02*
X102238571Y-86004819D01*
X102238571Y-86004819D02*
X102381428Y-85957200D01*
X102381428Y-85957200D02*
X102476666Y-85861961D01*
X102476666Y-85861961D02*
X102524285Y-85766723D01*
X102524285Y-85766723D02*
X102571904Y-85576247D01*
X102571904Y-85576247D02*
X102571904Y-85433390D01*
X102571904Y-85433390D02*
X102524285Y-85242914D01*
X102524285Y-85242914D02*
X102476666Y-85147676D01*
X102476666Y-85147676D02*
X102381428Y-85052438D01*
X102381428Y-85052438D02*
X102238571Y-85004819D01*
X102238571Y-85004819D02*
X102143333Y-85004819D01*
X102143333Y-85004819D02*
X102000476Y-85052438D01*
X102000476Y-85052438D02*
X101952857Y-85100057D01*
X101000476Y-86004819D02*
X101571904Y-86004819D01*
X101286190Y-86004819D02*
X101286190Y-85004819D01*
X101286190Y-85004819D02*
X101381428Y-85147676D01*
X101381428Y-85147676D02*
X101476666Y-85242914D01*
X101476666Y-85242914D02*
X101571904Y-85290533D01*
X100381428Y-85004819D02*
X100286190Y-85004819D01*
X100286190Y-85004819D02*
X100190952Y-85052438D01*
X100190952Y-85052438D02*
X100143333Y-85100057D01*
X100143333Y-85100057D02*
X100095714Y-85195295D01*
X100095714Y-85195295D02*
X100048095Y-85385771D01*
X100048095Y-85385771D02*
X100048095Y-85623866D01*
X100048095Y-85623866D02*
X100095714Y-85814342D01*
X100095714Y-85814342D02*
X100143333Y-85909580D01*
X100143333Y-85909580D02*
X100190952Y-85957200D01*
X100190952Y-85957200D02*
X100286190Y-86004819D01*
X100286190Y-86004819D02*
X100381428Y-86004819D01*
X100381428Y-86004819D02*
X100476666Y-85957200D01*
X100476666Y-85957200D02*
X100524285Y-85909580D01*
X100524285Y-85909580D02*
X100571904Y-85814342D01*
X100571904Y-85814342D02*
X100619523Y-85623866D01*
X100619523Y-85623866D02*
X100619523Y-85385771D01*
X100619523Y-85385771D02*
X100571904Y-85195295D01*
X100571904Y-85195295D02*
X100524285Y-85100057D01*
X100524285Y-85100057D02*
X100476666Y-85052438D01*
X100476666Y-85052438D02*
X100381428Y-85004819D01*
X130452857Y-85909580D02*
X130500476Y-85957200D01*
X130500476Y-85957200D02*
X130643333Y-86004819D01*
X130643333Y-86004819D02*
X130738571Y-86004819D01*
X130738571Y-86004819D02*
X130881428Y-85957200D01*
X130881428Y-85957200D02*
X130976666Y-85861961D01*
X130976666Y-85861961D02*
X131024285Y-85766723D01*
X131024285Y-85766723D02*
X131071904Y-85576247D01*
X131071904Y-85576247D02*
X131071904Y-85433390D01*
X131071904Y-85433390D02*
X131024285Y-85242914D01*
X131024285Y-85242914D02*
X130976666Y-85147676D01*
X130976666Y-85147676D02*
X130881428Y-85052438D01*
X130881428Y-85052438D02*
X130738571Y-85004819D01*
X130738571Y-85004819D02*
X130643333Y-85004819D01*
X130643333Y-85004819D02*
X130500476Y-85052438D01*
X130500476Y-85052438D02*
X130452857Y-85100057D01*
X129500476Y-86004819D02*
X130071904Y-86004819D01*
X129786190Y-86004819D02*
X129786190Y-85004819D01*
X129786190Y-85004819D02*
X129881428Y-85147676D01*
X129881428Y-85147676D02*
X129976666Y-85242914D01*
X129976666Y-85242914D02*
X130071904Y-85290533D01*
X128643333Y-85338152D02*
X128643333Y-86004819D01*
X128881428Y-84957200D02*
X129119523Y-85671485D01*
X129119523Y-85671485D02*
X128500476Y-85671485D01*
X66561904Y-51994819D02*
X66561904Y-52804342D01*
X66561904Y-52804342D02*
X66514285Y-52899580D01*
X66514285Y-52899580D02*
X66466666Y-52947200D01*
X66466666Y-52947200D02*
X66371428Y-52994819D01*
X66371428Y-52994819D02*
X66180952Y-52994819D01*
X66180952Y-52994819D02*
X66085714Y-52947200D01*
X66085714Y-52947200D02*
X66038095Y-52899580D01*
X66038095Y-52899580D02*
X65990476Y-52804342D01*
X65990476Y-52804342D02*
X65990476Y-51994819D01*
X65561904Y-52090057D02*
X65514285Y-52042438D01*
X65514285Y-52042438D02*
X65419047Y-51994819D01*
X65419047Y-51994819D02*
X65180952Y-51994819D01*
X65180952Y-51994819D02*
X65085714Y-52042438D01*
X65085714Y-52042438D02*
X65038095Y-52090057D01*
X65038095Y-52090057D02*
X64990476Y-52185295D01*
X64990476Y-52185295D02*
X64990476Y-52280533D01*
X64990476Y-52280533D02*
X65038095Y-52423390D01*
X65038095Y-52423390D02*
X65609523Y-52994819D01*
X65609523Y-52994819D02*
X64990476Y-52994819D01*
X138714819Y-51937142D02*
X138238628Y-51603809D01*
X138714819Y-51365714D02*
X137714819Y-51365714D01*
X137714819Y-51365714D02*
X137714819Y-51746666D01*
X137714819Y-51746666D02*
X137762438Y-51841904D01*
X137762438Y-51841904D02*
X137810057Y-51889523D01*
X137810057Y-51889523D02*
X137905295Y-51937142D01*
X137905295Y-51937142D02*
X138048152Y-51937142D01*
X138048152Y-51937142D02*
X138143390Y-51889523D01*
X138143390Y-51889523D02*
X138191009Y-51841904D01*
X138191009Y-51841904D02*
X138238628Y-51746666D01*
X138238628Y-51746666D02*
X138238628Y-51365714D01*
X137714819Y-52270476D02*
X137714819Y-52889523D01*
X137714819Y-52889523D02*
X138095771Y-52556190D01*
X138095771Y-52556190D02*
X138095771Y-52699047D01*
X138095771Y-52699047D02*
X138143390Y-52794285D01*
X138143390Y-52794285D02*
X138191009Y-52841904D01*
X138191009Y-52841904D02*
X138286247Y-52889523D01*
X138286247Y-52889523D02*
X138524342Y-52889523D01*
X138524342Y-52889523D02*
X138619580Y-52841904D01*
X138619580Y-52841904D02*
X138667200Y-52794285D01*
X138667200Y-52794285D02*
X138714819Y-52699047D01*
X138714819Y-52699047D02*
X138714819Y-52413333D01*
X138714819Y-52413333D02*
X138667200Y-52318095D01*
X138667200Y-52318095D02*
X138619580Y-52270476D01*
X138714819Y-53841904D02*
X138714819Y-53270476D01*
X138714819Y-53556190D02*
X137714819Y-53556190D01*
X137714819Y-53556190D02*
X137857676Y-53460952D01*
X137857676Y-53460952D02*
X137952914Y-53365714D01*
X137952914Y-53365714D02*
X138000533Y-53270476D01*
D12*
%TO.C,C13*%
X124478748Y-59290000D02*
X125901252Y-59290000D01*
X124478748Y-61110000D02*
X125901252Y-61110000D01*
%TO.C,J2*%
X104520000Y-38640000D02*
X104520000Y-44660000D01*
X104520000Y-44660000D02*
X112360000Y-44660000D01*
X105100000Y-38640000D02*
X105100000Y-39240000D01*
X105100000Y-39240000D02*
X106700000Y-39240000D01*
X105900000Y-43660000D02*
X106150000Y-43130000D01*
X105900000Y-43660000D02*
X110980000Y-43660000D01*
X105900000Y-44660000D02*
X105900000Y-43660000D01*
X106150000Y-43130000D02*
X110730000Y-43130000D01*
X106150000Y-43660000D02*
X106150000Y-44660000D01*
X106700000Y-39240000D02*
X106700000Y-38640000D01*
X107640000Y-38640000D02*
X107640000Y-39240000D01*
X107640000Y-39240000D02*
X109240000Y-39240000D01*
X109240000Y-39240000D02*
X109240000Y-38640000D01*
X110180000Y-38640000D02*
X110180000Y-39240000D01*
X110180000Y-39240000D02*
X111780000Y-39240000D01*
X110730000Y-43130000D02*
X110980000Y-43660000D01*
X110730000Y-43660000D02*
X110730000Y-44660000D01*
X110980000Y-43660000D02*
X110980000Y-44660000D01*
X111780000Y-39240000D02*
X111780000Y-38640000D01*
X112360000Y-38640000D02*
X104520000Y-38640000D01*
X112360000Y-44660000D02*
X112360000Y-38640000D01*
X112650000Y-43670000D02*
X112650000Y-39670000D01*
%TO.C,C9*%
X93498748Y-59140000D02*
X94921252Y-59140000D01*
X93498748Y-60960000D02*
X94921252Y-60960000D01*
%TO.C,U7*%
X120850000Y-71165000D02*
X122800000Y-71165000D01*
X120850000Y-80035000D02*
X122800000Y-80035000D01*
X124750000Y-71165000D02*
X122800000Y-71165000D01*
X124750000Y-80035000D02*
X122800000Y-80035000D01*
X120340000Y-80300000D02*
X119860000Y-80300000D01*
X120100000Y-79970000D01*
X120340000Y-80300000D01*
G36*
X120340000Y-80300000D02*
G01*
X119860000Y-80300000D01*
X120100000Y-79970000D01*
X120340000Y-80300000D01*
G37*
%TO.C,R28*%
X57890000Y-66987064D02*
X57890000Y-65532936D01*
X59710000Y-66987064D02*
X59710000Y-65532936D01*
%TO.C,R2*%
X104822936Y-53600000D02*
X106277064Y-53600000D01*
X104822936Y-55420000D02*
X106277064Y-55420000D01*
%TO.C,C5*%
X57890000Y-83801248D02*
X57890000Y-85223752D01*
X59710000Y-83801248D02*
X59710000Y-85223752D01*
%TO.C,R3*%
X57522936Y-52600000D02*
X58977064Y-52600000D01*
X57522936Y-54420000D02*
X58977064Y-54420000D01*
%TO.C,U3*%
X63855000Y-71165000D02*
X65805000Y-71165000D01*
X63855000Y-80035000D02*
X65805000Y-80035000D01*
X67755000Y-71165000D02*
X65805000Y-71165000D01*
X67755000Y-80035000D02*
X65805000Y-80035000D01*
X63345000Y-80300000D02*
X62865000Y-80300000D01*
X63105000Y-79970000D01*
X63345000Y-80300000D01*
G36*
X63345000Y-80300000D02*
G01*
X62865000Y-80300000D01*
X63105000Y-79970000D01*
X63345000Y-80300000D01*
G37*
%TO.C,C3*%
X63698752Y-59260000D02*
X62276248Y-59260000D01*
X63698752Y-61080000D02*
X62276248Y-61080000D01*
%TO.C,C11*%
X120698752Y-59260000D02*
X119276248Y-59260000D01*
X120698752Y-61080000D02*
X119276248Y-61080000D01*
D13*
%TO.C,U1*%
X104230000Y-70020000D02*
X102580000Y-70020000D01*
X104580000Y-57230000D02*
X111780000Y-57230000D01*
X104580000Y-70030000D02*
X104580000Y-57230000D01*
X111780000Y-57230000D02*
X111780000Y-70030000D01*
X111780000Y-70030000D02*
X104580000Y-70030000D01*
D12*
%TO.C,U5*%
X92350000Y-71165000D02*
X94300000Y-71165000D01*
X92350000Y-80035000D02*
X94300000Y-80035000D01*
X96250000Y-71165000D02*
X94300000Y-71165000D01*
X96250000Y-80035000D02*
X94300000Y-80035000D01*
X91840000Y-80300000D02*
X91360000Y-80300000D01*
X91600000Y-79970000D01*
X91840000Y-80300000D01*
G36*
X91840000Y-80300000D02*
G01*
X91360000Y-80300000D01*
X91600000Y-79970000D01*
X91840000Y-80300000D01*
G37*
%TO.C,R26*%
X132610000Y-52537064D02*
X132610000Y-51082936D01*
X134430000Y-52537064D02*
X134430000Y-51082936D01*
%TO.C,C17*%
X150901248Y-62600000D02*
X152323752Y-62600000D01*
X150901248Y-64420000D02*
X152323752Y-64420000D01*
%TO.C,C18*%
X159021252Y-82790000D02*
X157598748Y-82790000D01*
X159021252Y-84610000D02*
X157598748Y-84610000D01*
%TO.C,C8*%
X85520000Y-84111248D02*
X85520000Y-85533752D01*
X87340000Y-84111248D02*
X87340000Y-85533752D01*
%TO.C,C16*%
X142520000Y-84111248D02*
X142520000Y-85533752D01*
X144340000Y-84111248D02*
X144340000Y-85533752D01*
%TO.C,J1*%
X103300000Y-46640000D02*
X103300000Y-52660000D01*
X103300000Y-52660000D02*
X113680000Y-52660000D01*
X103880000Y-46640000D02*
X103880000Y-47240000D01*
X103880000Y-47240000D02*
X105480000Y-47240000D01*
X104680000Y-51660000D02*
X104930000Y-51130000D01*
X104680000Y-51660000D02*
X112300000Y-51660000D01*
X104680000Y-52660000D02*
X104680000Y-51660000D01*
X104930000Y-51130000D02*
X112050000Y-51130000D01*
X104930000Y-51660000D02*
X104930000Y-52660000D01*
X105480000Y-47240000D02*
X105480000Y-46640000D01*
X106420000Y-46640000D02*
X106420000Y-47240000D01*
X106420000Y-47240000D02*
X108020000Y-47240000D01*
X108020000Y-47240000D02*
X108020000Y-46640000D01*
X108960000Y-46640000D02*
X108960000Y-47240000D01*
X108960000Y-47240000D02*
X110560000Y-47240000D01*
X110560000Y-47240000D02*
X110560000Y-46640000D01*
X111500000Y-46640000D02*
X111500000Y-47240000D01*
X111500000Y-47240000D02*
X113100000Y-47240000D01*
X112050000Y-51130000D02*
X112300000Y-51660000D01*
X112050000Y-51660000D02*
X112050000Y-52660000D01*
X112300000Y-51660000D02*
X112300000Y-52660000D01*
X113100000Y-47240000D02*
X113100000Y-46640000D01*
X113680000Y-46640000D02*
X103300000Y-46640000D01*
X113680000Y-52660000D02*
X113680000Y-46640000D01*
X113970000Y-51670000D02*
X113970000Y-47670000D01*
%TO.C,C7*%
X85140000Y-61471252D02*
X85140000Y-60048748D01*
X86960000Y-61471252D02*
X86960000Y-60048748D01*
%TO.C,R29*%
X80910000Y-52547064D02*
X80910000Y-51092936D01*
X82730000Y-52547064D02*
X82730000Y-51092936D01*
%TO.C,C12*%
X114020000Y-84111248D02*
X114020000Y-85533752D01*
X115840000Y-84111248D02*
X115840000Y-85533752D01*
%TO.C,U8*%
X149350000Y-42825000D02*
X151300000Y-42825000D01*
X149350000Y-51695000D02*
X151300000Y-51695000D01*
X153250000Y-42825000D02*
X151300000Y-42825000D01*
X153250000Y-51695000D02*
X151300000Y-51695000D01*
X148840000Y-51960000D02*
X148360000Y-51960000D01*
X148600000Y-51630000D01*
X148840000Y-51960000D01*
G36*
X148840000Y-51960000D02*
G01*
X148360000Y-51960000D01*
X148600000Y-51630000D01*
X148840000Y-51960000D01*
G37*
%TO.C,R30*%
X129270000Y-62837064D02*
X129270000Y-61382936D01*
X131090000Y-62837064D02*
X131090000Y-61382936D01*
%TO.C,C6*%
X73521252Y-82790000D02*
X72098748Y-82790000D01*
X73521252Y-84610000D02*
X72098748Y-84610000D01*
%TO.C,C1*%
X106347599Y-78745000D02*
X106347599Y-79145000D01*
X106547599Y-78945000D02*
X106147599Y-78945000D01*
X108417400Y-75670000D02*
X108417400Y-76910000D01*
X108417400Y-78590000D02*
X108417400Y-79830000D01*
X108457400Y-75670000D02*
X108457400Y-76910000D01*
X108457400Y-78590000D02*
X108457400Y-79830000D01*
X108497400Y-75671000D02*
X108497400Y-76910000D01*
X108497400Y-78590000D02*
X108497400Y-79829000D01*
X108537400Y-75673000D02*
X108537400Y-76910000D01*
X108537400Y-78590000D02*
X108537400Y-79827000D01*
X108577400Y-75676000D02*
X108577400Y-76910000D01*
X108577400Y-78590000D02*
X108577400Y-79824000D01*
X108617400Y-75679000D02*
X108617400Y-76910000D01*
X108617400Y-78590000D02*
X108617400Y-79821000D01*
X108657400Y-75683000D02*
X108657400Y-76910000D01*
X108657400Y-78590000D02*
X108657400Y-79817000D01*
X108697400Y-75688000D02*
X108697400Y-76910000D01*
X108697400Y-78590000D02*
X108697400Y-79812000D01*
X108737400Y-75694000D02*
X108737400Y-76910000D01*
X108737400Y-78590000D02*
X108737400Y-79806000D01*
X108777400Y-75700000D02*
X108777400Y-76910000D01*
X108777400Y-78590000D02*
X108777400Y-79800000D01*
X108817400Y-75708000D02*
X108817400Y-76910000D01*
X108817400Y-78590000D02*
X108817400Y-79792000D01*
X108857400Y-75716000D02*
X108857400Y-76910000D01*
X108857400Y-78590000D02*
X108857400Y-79784000D01*
X108897400Y-75725000D02*
X108897400Y-76910000D01*
X108897400Y-78590000D02*
X108897400Y-79775000D01*
X108937400Y-75734000D02*
X108937400Y-76910000D01*
X108937400Y-78590000D02*
X108937400Y-79766000D01*
X108977400Y-75745000D02*
X108977400Y-76910000D01*
X108977400Y-78590000D02*
X108977400Y-79755000D01*
X109017400Y-75756000D02*
X109017400Y-76910000D01*
X109017400Y-78590000D02*
X109017400Y-79744000D01*
X109057400Y-75768000D02*
X109057400Y-76910000D01*
X109057400Y-78590000D02*
X109057400Y-79732000D01*
X109097400Y-75782000D02*
X109097400Y-76910000D01*
X109097400Y-78590000D02*
X109097400Y-79718000D01*
X109138400Y-75796000D02*
X109138400Y-76910000D01*
X109138400Y-78590000D02*
X109138400Y-79704000D01*
X109178400Y-75810000D02*
X109178400Y-76910000D01*
X109178400Y-78590000D02*
X109178400Y-79690000D01*
X109218400Y-75826000D02*
X109218400Y-76910000D01*
X109218400Y-78590000D02*
X109218400Y-79674000D01*
X109258400Y-75843000D02*
X109258400Y-76910000D01*
X109258400Y-78590000D02*
X109258400Y-79657000D01*
X109298400Y-75861000D02*
X109298400Y-76910000D01*
X109298400Y-78590000D02*
X109298400Y-79639000D01*
X109338400Y-75880000D02*
X109338400Y-76910000D01*
X109338400Y-78590000D02*
X109338400Y-79620000D01*
X109378400Y-75899000D02*
X109378400Y-76910000D01*
X109378400Y-78590000D02*
X109378400Y-79601000D01*
X109418400Y-75920000D02*
X109418400Y-76910000D01*
X109418400Y-78590000D02*
X109418400Y-79580000D01*
X109458400Y-75942000D02*
X109458400Y-76910000D01*
X109458400Y-78590000D02*
X109458400Y-79558000D01*
X109498400Y-75965000D02*
X109498400Y-76910000D01*
X109498400Y-78590000D02*
X109498400Y-79535000D01*
X109538400Y-75990000D02*
X109538400Y-76910000D01*
X109538400Y-78590000D02*
X109538400Y-79510000D01*
X109578400Y-76015000D02*
X109578400Y-76910000D01*
X109578400Y-78590000D02*
X109578400Y-79485000D01*
X109618400Y-76042000D02*
X109618400Y-76910000D01*
X109618400Y-78590000D02*
X109618400Y-79458000D01*
X109658400Y-76070000D02*
X109658400Y-76910000D01*
X109658400Y-78590000D02*
X109658400Y-79430000D01*
X109698400Y-76100000D02*
X109698400Y-76910000D01*
X109698400Y-78590000D02*
X109698400Y-79400000D01*
X109738400Y-76131000D02*
X109738400Y-76910000D01*
X109738400Y-78590000D02*
X109738400Y-79369000D01*
X109778400Y-76163000D02*
X109778400Y-76910000D01*
X109778400Y-78590000D02*
X109778400Y-79337000D01*
X109818400Y-76198000D02*
X109818400Y-76910000D01*
X109818400Y-78590000D02*
X109818400Y-79302000D01*
X109858400Y-76234000D02*
X109858400Y-76910000D01*
X109858400Y-78590000D02*
X109858400Y-79266000D01*
X109898400Y-76272000D02*
X109898400Y-76910000D01*
X109898400Y-78590000D02*
X109898400Y-79228000D01*
X109938400Y-76312000D02*
X109938400Y-76910000D01*
X109938400Y-78590000D02*
X109938400Y-79188000D01*
X109978400Y-76354000D02*
X109978400Y-76910000D01*
X109978400Y-78590000D02*
X109978400Y-79146000D01*
X110018400Y-76399000D02*
X110018400Y-79101000D01*
X110058400Y-76446000D02*
X110058400Y-79054000D01*
X110098400Y-76496000D02*
X110098400Y-79004000D01*
X110138400Y-76550000D02*
X110138400Y-78950000D01*
X110178400Y-76608000D02*
X110178400Y-78892000D01*
X110218400Y-76670000D02*
X110218400Y-78830000D01*
X110258400Y-76737000D02*
X110258400Y-78763000D01*
X110298400Y-76810000D02*
X110298400Y-78690000D01*
X110338400Y-76891000D02*
X110338400Y-78609000D01*
X110378400Y-76982000D02*
X110378400Y-78518000D01*
X110418400Y-77086000D02*
X110418400Y-78414000D01*
X110458400Y-77213000D02*
X110458400Y-78287000D01*
X110498400Y-77380000D02*
X110498400Y-78120000D01*
X110537400Y-77750000D02*
G75*
G02*
X106297400Y-77750000I-2120000J0D01*
G01*
X106297400Y-77750000D02*
G75*
G02*
X110537400Y-77750000I2120000J0D01*
G01*
%TO.C,R27*%
X141980000Y-53307064D02*
X141980000Y-51852936D01*
X143800000Y-53307064D02*
X143800000Y-51852936D01*
%TO.C,R25*%
X84500000Y-52547064D02*
X84500000Y-51092936D01*
X86320000Y-52547064D02*
X86320000Y-51092936D01*
%TO.C,U4*%
X92350000Y-42825000D02*
X94300000Y-42825000D01*
X92350000Y-51695000D02*
X94300000Y-51695000D01*
X96250000Y-42825000D02*
X94300000Y-42825000D01*
X96250000Y-51695000D02*
X94300000Y-51695000D01*
X91840000Y-51960000D02*
X91360000Y-51960000D01*
X91600000Y-51630000D01*
X91840000Y-51960000D01*
G36*
X91840000Y-51960000D02*
G01*
X91360000Y-51960000D01*
X91600000Y-51630000D01*
X91840000Y-51960000D01*
G37*
%TO.C,U9*%
X149350000Y-71165000D02*
X151300000Y-71165000D01*
X149350000Y-80035000D02*
X151300000Y-80035000D01*
X153250000Y-71165000D02*
X151300000Y-71165000D01*
X153250000Y-80035000D02*
X151300000Y-80035000D01*
X148840000Y-80300000D02*
X148360000Y-80300000D01*
X148600000Y-79970000D01*
X148840000Y-80300000D01*
G36*
X148840000Y-80300000D02*
G01*
X148360000Y-80300000D01*
X148600000Y-79970000D01*
X148840000Y-80300000D01*
G37*
%TO.C,C15*%
X149261252Y-59850000D02*
X147838748Y-59850000D01*
X149261252Y-61670000D02*
X147838748Y-61670000D01*
%TO.C,U6*%
X120850000Y-42825000D02*
X122800000Y-42825000D01*
X120850000Y-51695000D02*
X122800000Y-51695000D01*
X124750000Y-42825000D02*
X122800000Y-42825000D01*
X124750000Y-51695000D02*
X122800000Y-51695000D01*
X120340000Y-51960000D02*
X119860000Y-51960000D01*
X120100000Y-51630000D01*
X120340000Y-51960000D01*
G36*
X120340000Y-51960000D02*
G01*
X119860000Y-51960000D01*
X120100000Y-51630000D01*
X120340000Y-51960000D01*
G37*
%TO.C,R1*%
X111777064Y-53600000D02*
X110322936Y-53600000D01*
X111777064Y-55420000D02*
X110322936Y-55420000D01*
%TO.C,C4*%
X65401248Y-61810000D02*
X66823752Y-61810000D01*
X65401248Y-63630000D02*
X66823752Y-63630000D01*
%TO.C,C2*%
X109111252Y-72440000D02*
X107688748Y-72440000D01*
X109111252Y-74260000D02*
X107688748Y-74260000D01*
%TO.C,C10*%
X102021252Y-82790000D02*
X100598748Y-82790000D01*
X102021252Y-84610000D02*
X100598748Y-84610000D01*
%TO.C,C14*%
X130521252Y-82790000D02*
X129098748Y-82790000D01*
X130521252Y-84610000D02*
X129098748Y-84610000D01*
%TO.C,U2*%
X63850000Y-42825000D02*
X65800000Y-42825000D01*
X63850000Y-51695000D02*
X65800000Y-51695000D01*
X67750000Y-42825000D02*
X65800000Y-42825000D01*
X67750000Y-51695000D02*
X65800000Y-51695000D01*
X63340000Y-51960000D02*
X62860000Y-51960000D01*
X63100000Y-51630000D01*
X63340000Y-51960000D01*
G36*
X63340000Y-51960000D02*
G01*
X62860000Y-51960000D01*
X63100000Y-51630000D01*
X63340000Y-51960000D01*
G37*
%TO.C,R31*%
X139170000Y-53307064D02*
X139170000Y-51852936D01*
X140990000Y-53307064D02*
X140990000Y-51852936D01*
%TD*%
M02*
