%TF.GenerationSoftware,KiCad,Pcbnew,8.0.1*%
%TF.CreationDate,2024-04-07T01:08:56+08:00*%
%TF.ProjectId,pcb_top,7063625f-746f-4702-9e6b-696361645f70,rev?*%
%TF.SameCoordinates,Original*%
%TF.FileFunction,Paste,Bot*%
%TF.FilePolarity,Positive*%
%FSLAX46Y46*%
G04 Gerber Fmt 4.6, Leading zero omitted, Abs format (unit mm)*
G04 Created by KiCad (PCBNEW 8.0.1) date 2024-04-07 01:08:56*
%MOMM*%
%LPD*%
G01*
G04 APERTURE LIST*
G04 Aperture macros list*
%AMRoundRect*
0 Rectangle with rounded corners*
0 $1 Rounding radius*
0 $2 $3 $4 $5 $6 $7 $8 $9 X,Y pos of 4 corners*
0 Add a 4 corners polygon primitive as box body*
4,1,4,$2,$3,$4,$5,$6,$7,$8,$9,$2,$3,0*
0 Add four circle primitives for the rounded corners*
1,1,$1+$1,$2,$3*
1,1,$1+$1,$4,$5*
1,1,$1+$1,$6,$7*
1,1,$1+$1,$8,$9*
0 Add four rect primitives between the rounded corners*
20,1,$1+$1,$2,$3,$4,$5,0*
20,1,$1+$1,$4,$5,$6,$7,0*
20,1,$1+$1,$6,$7,$8,$9,0*
20,1,$1+$1,$8,$9,$2,$3,0*%
G04 Aperture macros list end*
%ADD10RoundRect,0.250000X0.412500X0.650000X-0.412500X0.650000X-0.412500X-0.650000X0.412500X-0.650000X0*%
%ADD11RoundRect,0.150000X-0.825000X-0.150000X0.825000X-0.150000X0.825000X0.150000X-0.825000X0.150000X0*%
%ADD12RoundRect,0.250000X-0.625000X0.400000X-0.625000X-0.400000X0.625000X-0.400000X0.625000X0.400000X0*%
%ADD13RoundRect,0.250000X0.400000X0.625000X-0.400000X0.625000X-0.400000X-0.625000X0.400000X-0.625000X0*%
%ADD14RoundRect,0.250000X0.650000X-0.412500X0.650000X0.412500X-0.650000X0.412500X-0.650000X-0.412500X0*%
%ADD15RoundRect,0.250000X-0.412500X-0.650000X0.412500X-0.650000X0.412500X0.650000X-0.412500X0.650000X0*%
%ADD16R,1.650000X0.650000*%
%ADD17RoundRect,0.250000X-0.650000X0.412500X-0.650000X-0.412500X0.650000X-0.412500X0.650000X0.412500X0*%
%ADD18RoundRect,0.250000X-0.400000X-0.625000X0.400000X-0.625000X0.400000X0.625000X-0.400000X0.625000X0*%
G04 APERTURE END LIST*
D10*
%TO.C,C13*%
X126752500Y-60200000D03*
X123627500Y-60200000D03*
%TD*%
%TO.C,C9*%
X95772500Y-60050000D03*
X92647500Y-60050000D03*
%TD*%
D11*
%TO.C,U7*%
X120325000Y-79410000D03*
X120325000Y-78140000D03*
X120325000Y-76870000D03*
X120325000Y-75600000D03*
X120325000Y-74330000D03*
X120325000Y-73060000D03*
X120325000Y-71790000D03*
X125275000Y-71790000D03*
X125275000Y-73060000D03*
X125275000Y-74330000D03*
X125275000Y-75600000D03*
X125275000Y-76870000D03*
X125275000Y-78140000D03*
X125275000Y-79410000D03*
%TD*%
D12*
%TO.C,R28*%
X58800000Y-64710000D03*
X58800000Y-67810000D03*
%TD*%
D13*
%TO.C,R2*%
X107100000Y-54510000D03*
X104000000Y-54510000D03*
%TD*%
D14*
%TO.C,C5*%
X58800000Y-86075000D03*
X58800000Y-82950000D03*
%TD*%
D13*
%TO.C,R3*%
X59800000Y-53510000D03*
X56700000Y-53510000D03*
%TD*%
D11*
%TO.C,U3*%
X63330000Y-79410000D03*
X63330000Y-78140000D03*
X63330000Y-76870000D03*
X63330000Y-75600000D03*
X63330000Y-74330000D03*
X63330000Y-73060000D03*
X63330000Y-71790000D03*
X68280000Y-71790000D03*
X68280000Y-73060000D03*
X68280000Y-74330000D03*
X68280000Y-75600000D03*
X68280000Y-76870000D03*
X68280000Y-78140000D03*
X68280000Y-79410000D03*
%TD*%
D15*
%TO.C,C3*%
X61425000Y-60170000D03*
X64550000Y-60170000D03*
%TD*%
%TO.C,C11*%
X118425000Y-60170000D03*
X121550000Y-60170000D03*
%TD*%
D16*
%TO.C,U1*%
X103405000Y-69345000D03*
X103405000Y-68075000D03*
X103405000Y-66805000D03*
X103405000Y-65535000D03*
X103405000Y-64265000D03*
X103405000Y-62995000D03*
X103405000Y-61725000D03*
X103405000Y-60455000D03*
X103405000Y-59185000D03*
X103405000Y-57915000D03*
X112955000Y-57915000D03*
X112955000Y-59185000D03*
X112955000Y-60455000D03*
X112955000Y-61725000D03*
X112955000Y-62995000D03*
X112955000Y-64265000D03*
X112955000Y-65535000D03*
X112955000Y-66805000D03*
X112955000Y-68075000D03*
X112955000Y-69345000D03*
%TD*%
D11*
%TO.C,U5*%
X91825000Y-79410000D03*
X91825000Y-78140000D03*
X91825000Y-76870000D03*
X91825000Y-75600000D03*
X91825000Y-74330000D03*
X91825000Y-73060000D03*
X91825000Y-71790000D03*
X96775000Y-71790000D03*
X96775000Y-73060000D03*
X96775000Y-74330000D03*
X96775000Y-75600000D03*
X96775000Y-76870000D03*
X96775000Y-78140000D03*
X96775000Y-79410000D03*
%TD*%
D12*
%TO.C,R26*%
X133520000Y-50260000D03*
X133520000Y-53360000D03*
%TD*%
D10*
%TO.C,C17*%
X153175000Y-63510000D03*
X150050000Y-63510000D03*
%TD*%
D15*
%TO.C,C18*%
X156747500Y-83700000D03*
X159872500Y-83700000D03*
%TD*%
D14*
%TO.C,C8*%
X86430000Y-86385000D03*
X86430000Y-83260000D03*
%TD*%
%TO.C,C16*%
X143430000Y-86385000D03*
X143430000Y-83260000D03*
%TD*%
D17*
%TO.C,C7*%
X86050000Y-59197500D03*
X86050000Y-62322500D03*
%TD*%
D12*
%TO.C,R29*%
X81820000Y-50270000D03*
X81820000Y-53370000D03*
%TD*%
D14*
%TO.C,C12*%
X114930000Y-86385000D03*
X114930000Y-83260000D03*
%TD*%
D11*
%TO.C,U8*%
X148825000Y-51070000D03*
X148825000Y-49800000D03*
X148825000Y-48530000D03*
X148825000Y-47260000D03*
X148825000Y-45990000D03*
X148825000Y-44720000D03*
X148825000Y-43450000D03*
X153775000Y-43450000D03*
X153775000Y-44720000D03*
X153775000Y-45990000D03*
X153775000Y-47260000D03*
X153775000Y-48530000D03*
X153775000Y-49800000D03*
X153775000Y-51070000D03*
%TD*%
D12*
%TO.C,R30*%
X130180000Y-60560000D03*
X130180000Y-63660000D03*
%TD*%
D15*
%TO.C,C6*%
X71247500Y-83700000D03*
X74372500Y-83700000D03*
%TD*%
D12*
%TO.C,R27*%
X142890000Y-51030000D03*
X142890000Y-54130000D03*
%TD*%
%TO.C,R25*%
X85410000Y-50270000D03*
X85410000Y-53370000D03*
%TD*%
D11*
%TO.C,U4*%
X91825000Y-51070000D03*
X91825000Y-49800000D03*
X91825000Y-48530000D03*
X91825000Y-47260000D03*
X91825000Y-45990000D03*
X91825000Y-44720000D03*
X91825000Y-43450000D03*
X96775000Y-43450000D03*
X96775000Y-44720000D03*
X96775000Y-45990000D03*
X96775000Y-47260000D03*
X96775000Y-48530000D03*
X96775000Y-49800000D03*
X96775000Y-51070000D03*
%TD*%
%TO.C,U9*%
X148825000Y-79410000D03*
X148825000Y-78140000D03*
X148825000Y-76870000D03*
X148825000Y-75600000D03*
X148825000Y-74330000D03*
X148825000Y-73060000D03*
X148825000Y-71790000D03*
X153775000Y-71790000D03*
X153775000Y-73060000D03*
X153775000Y-74330000D03*
X153775000Y-75600000D03*
X153775000Y-76870000D03*
X153775000Y-78140000D03*
X153775000Y-79410000D03*
%TD*%
D15*
%TO.C,C15*%
X146987500Y-60760000D03*
X150112500Y-60760000D03*
%TD*%
D11*
%TO.C,U6*%
X120325000Y-51070000D03*
X120325000Y-49800000D03*
X120325000Y-48530000D03*
X120325000Y-47260000D03*
X120325000Y-45990000D03*
X120325000Y-44720000D03*
X120325000Y-43450000D03*
X125275000Y-43450000D03*
X125275000Y-44720000D03*
X125275000Y-45990000D03*
X125275000Y-47260000D03*
X125275000Y-48530000D03*
X125275000Y-49800000D03*
X125275000Y-51070000D03*
%TD*%
D18*
%TO.C,R1*%
X109500000Y-54510000D03*
X112600000Y-54510000D03*
%TD*%
D10*
%TO.C,C4*%
X67675000Y-62720000D03*
X64550000Y-62720000D03*
%TD*%
D15*
%TO.C,C2*%
X106837500Y-73350000D03*
X109962500Y-73350000D03*
%TD*%
%TO.C,C10*%
X99747500Y-83700000D03*
X102872500Y-83700000D03*
%TD*%
%TO.C,C14*%
X128247500Y-83700000D03*
X131372500Y-83700000D03*
%TD*%
D11*
%TO.C,U2*%
X63325000Y-51070000D03*
X63325000Y-49800000D03*
X63325000Y-48530000D03*
X63325000Y-47260000D03*
X63325000Y-45990000D03*
X63325000Y-44720000D03*
X63325000Y-43450000D03*
X68275000Y-43450000D03*
X68275000Y-44720000D03*
X68275000Y-45990000D03*
X68275000Y-47260000D03*
X68275000Y-48530000D03*
X68275000Y-49800000D03*
X68275000Y-51070000D03*
%TD*%
D12*
%TO.C,R31*%
X140080000Y-51030000D03*
X140080000Y-54130000D03*
%TD*%
M02*
