%TF.GenerationSoftware,KiCad,Pcbnew,8.0.1*%
%TF.CreationDate,2024-04-07T01:08:56+08:00*%
%TF.ProjectId,pcb_top,7063625f-746f-4702-9e6b-696361645f70,rev?*%
%TF.SameCoordinates,Original*%
%TF.FileFunction,Copper,L1,Top*%
%TF.FilePolarity,Positive*%
%FSLAX46Y46*%
G04 Gerber Fmt 4.6, Leading zero omitted, Abs format (unit mm)*
G04 Created by KiCad (PCBNEW 8.0.1) date 2024-04-07 01:08:56*
%MOMM*%
%LPD*%
G01*
G04 APERTURE LIST*
G04 Aperture macros list*
%AMRoundRect*
0 Rectangle with rounded corners*
0 $1 Rounding radius*
0 $2 $3 $4 $5 $6 $7 $8 $9 X,Y pos of 4 corners*
0 Add a 4 corners polygon primitive as box body*
4,1,4,$2,$3,$4,$5,$6,$7,$8,$9,$2,$3,0*
0 Add four circle primitives for the rounded corners*
1,1,$1+$1,$2,$3*
1,1,$1+$1,$4,$5*
1,1,$1+$1,$6,$7*
1,1,$1+$1,$8,$9*
0 Add four rect primitives between the rounded corners*
20,1,$1+$1,$2,$3,$4,$5,0*
20,1,$1+$1,$4,$5,$6,$7,0*
20,1,$1+$1,$6,$7,$8,$9,0*
20,1,$1+$1,$8,$9,$2,$3,0*%
G04 Aperture macros list end*
%TA.AperFunction,WasherPad*%
%ADD10O,3.500000X5.600000*%
%TD*%
%TA.AperFunction,ComponentPad*%
%ADD11C,1.800000*%
%TD*%
%TA.AperFunction,ComponentPad*%
%ADD12C,1.900000*%
%TD*%
%TA.AperFunction,ComponentPad*%
%ADD13C,7.500000*%
%TD*%
%TA.AperFunction,ComponentPad*%
%ADD14RoundRect,0.250000X0.620000X0.845000X-0.620000X0.845000X-0.620000X-0.845000X0.620000X-0.845000X0*%
%TD*%
%TA.AperFunction,ComponentPad*%
%ADD15O,1.740000X2.190000*%
%TD*%
%TA.AperFunction,ComponentPad*%
%ADD16R,1.200000X1.200000*%
%TD*%
%TA.AperFunction,ComponentPad*%
%ADD17C,1.200000*%
%TD*%
%TA.AperFunction,ViaPad*%
%ADD18C,0.800000*%
%TD*%
%TA.AperFunction,Conductor*%
%ADD19C,0.400000*%
%TD*%
%TA.AperFunction,Conductor*%
%ADD20C,0.250000*%
%TD*%
G04 APERTURE END LIST*
D10*
%TO.P,U11,*%
%TO.N,*%
X60100000Y-75500000D03*
X71500000Y-75500000D03*
D11*
%TO.P,U11,1,EP1/P2*%
%TO.N,GND*%
X64550000Y-86000000D03*
%TO.P,U11,2a,EP2a/P1*%
%TO.N,E_A2_B*%
X62050000Y-86000000D03*
%TO.P,U11,2b,EP2b/P3*%
%TO.N,E_A2_A*%
X67050000Y-86000000D03*
%TO.P,U11,3,EP3/PX*%
%TO.N,VCC*%
X69550000Y-86000000D03*
D12*
%TO.P,U11,A1,EA1*%
%TO.N,E_A2_B*%
X63300000Y-83500000D03*
%TO.P,U11,A2,EA2*%
%TO.N,E_A2_A*%
X68300000Y-83500000D03*
%TO.P,U11,B,EB*%
%TO.N,GND*%
X65800000Y-83500000D03*
D11*
%TO.P,U11,c,E_SW1*%
X63300000Y-69000000D03*
%TO.P,U11,d,E_SW2*%
%TO.N,E_A2_SW*%
X68300000Y-69000000D03*
%TD*%
D10*
%TO.P,U14,*%
%TO.N,*%
X117100000Y-47000000D03*
X128500000Y-47000000D03*
D11*
%TO.P,U14,1,EP1/P2*%
%TO.N,GND*%
X121550000Y-57500000D03*
%TO.P,U14,2a,EP2a/P1*%
%TO.N,E_C1_B*%
X119050000Y-57500000D03*
%TO.P,U14,2b,EP2b/P3*%
%TO.N,E_C1_A*%
X124050000Y-57500000D03*
%TO.P,U14,3,EP3/PX*%
%TO.N,VCC*%
X126550000Y-57500000D03*
D12*
%TO.P,U14,A1,EA1*%
%TO.N,E_C1_B*%
X120300000Y-55000000D03*
%TO.P,U14,A2,EA2*%
%TO.N,E_C1_A*%
X125300000Y-55000000D03*
%TO.P,U14,B,EB*%
%TO.N,GND*%
X122800000Y-55000000D03*
D11*
%TO.P,U14,c,E_SW1*%
X120300000Y-40500000D03*
%TO.P,U14,d,E_SW2*%
%TO.N,E_C1_SW*%
X125300000Y-40500000D03*
%TD*%
D10*
%TO.P,U17,*%
%TO.N,*%
X145600000Y-75500000D03*
X157000000Y-75500000D03*
D11*
%TO.P,U17,1,EP1/P2*%
%TO.N,GND*%
X150050000Y-86000000D03*
%TO.P,U17,2a,EP2a/P1*%
%TO.N,E_D2_B*%
X147550000Y-86000000D03*
%TO.P,U17,2b,EP2b/P3*%
%TO.N,E_D2_A*%
X152550000Y-86000000D03*
%TO.P,U17,3,EP3/PX*%
%TO.N,VCC*%
X155050000Y-86000000D03*
D12*
%TO.P,U17,A1,EA1*%
%TO.N,E_D2_B*%
X148800000Y-83500000D03*
%TO.P,U17,A2,EA2*%
%TO.N,E_D2_A*%
X153800000Y-83500000D03*
%TO.P,U17,B,EB*%
%TO.N,GND*%
X151300000Y-83500000D03*
D11*
%TO.P,U17,c,E_SW1*%
X148800000Y-69000000D03*
%TO.P,U17,d,E_SW2*%
%TO.N,E_D2_SW*%
X153800000Y-69000000D03*
%TD*%
D10*
%TO.P,U13,*%
%TO.N,*%
X88600000Y-75500000D03*
X100000000Y-75500000D03*
D11*
%TO.P,U13,1,EP1/P2*%
%TO.N,GND*%
X93050000Y-86000000D03*
%TO.P,U13,2a,EP2a/P1*%
%TO.N,E_B2_B*%
X90550000Y-86000000D03*
%TO.P,U13,2b,EP2b/P3*%
%TO.N,E_B2_A*%
X95550000Y-86000000D03*
%TO.P,U13,3,EP3/PX*%
%TO.N,VCC*%
X98050000Y-86000000D03*
D12*
%TO.P,U13,A1,EA1*%
%TO.N,E_B2_B*%
X91800000Y-83500000D03*
%TO.P,U13,A2,EA2*%
%TO.N,E_B2_A*%
X96800000Y-83500000D03*
%TO.P,U13,B,EB*%
%TO.N,GND*%
X94300000Y-83500000D03*
D11*
%TO.P,U13,c,E_SW1*%
X91800000Y-69000000D03*
%TO.P,U13,d,E_SW2*%
%TO.N,E_B2_SW*%
X96800000Y-69000000D03*
%TD*%
D13*
%TO.P,H2,1,1*%
%TO.N,GND*%
X76800000Y-64510000D03*
%TD*%
D10*
%TO.P,U16,*%
%TO.N,*%
X145600000Y-47000000D03*
X157000000Y-47000000D03*
D11*
%TO.P,U16,1,EP1/P2*%
%TO.N,GND*%
X150050000Y-57500000D03*
%TO.P,U16,2a,EP2a/P1*%
%TO.N,E_D1_B*%
X147550000Y-57500000D03*
%TO.P,U16,2b,EP2b/P3*%
%TO.N,E_D1_A*%
X152550000Y-57500000D03*
%TO.P,U16,3,EP3/PX*%
%TO.N,VCC*%
X155050000Y-57500000D03*
D12*
%TO.P,U16,A1,EA1*%
%TO.N,E_D1_B*%
X148800000Y-55000000D03*
%TO.P,U16,A2,EA2*%
%TO.N,E_D1_A*%
X153800000Y-55000000D03*
%TO.P,U16,B,EB*%
%TO.N,GND*%
X151300000Y-55000000D03*
D11*
%TO.P,U16,c,E_SW1*%
X148800000Y-40500000D03*
%TO.P,U16,d,E_SW2*%
%TO.N,E_D1_SW*%
X153800000Y-40500000D03*
%TD*%
D13*
%TO.P,H1,1,1*%
%TO.N,GND*%
X141300000Y-64510000D03*
%TD*%
D10*
%TO.P,U15,*%
%TO.N,*%
X117100000Y-75500000D03*
X128500000Y-75500000D03*
D11*
%TO.P,U15,1,EP1/P2*%
%TO.N,GND*%
X121550000Y-86000000D03*
%TO.P,U15,2a,EP2a/P1*%
%TO.N,E_C2_B*%
X119050000Y-86000000D03*
%TO.P,U15,2b,EP2b/P3*%
%TO.N,E_C2_A*%
X124050000Y-86000000D03*
%TO.P,U15,3,EP3/PX*%
%TO.N,VCC*%
X126550000Y-86000000D03*
D12*
%TO.P,U15,A1,EA1*%
%TO.N,E_C2_B*%
X120300000Y-83500000D03*
%TO.P,U15,A2,EA2*%
%TO.N,E_C2_A*%
X125300000Y-83500000D03*
%TO.P,U15,B,EB*%
%TO.N,GND*%
X122800000Y-83500000D03*
D11*
%TO.P,U15,c,E_SW1*%
X120300000Y-69000000D03*
%TO.P,U15,d,E_SW2*%
%TO.N,E_C2_SW*%
X125300000Y-69000000D03*
%TD*%
D10*
%TO.P,U12,*%
%TO.N,*%
X88600000Y-47000000D03*
X100000000Y-47000000D03*
D11*
%TO.P,U12,1,EP1/P2*%
%TO.N,GND*%
X93050000Y-57500000D03*
%TO.P,U12,2a,EP2a/P1*%
%TO.N,E_B1_B*%
X90550000Y-57500000D03*
%TO.P,U12,2b,EP2b/P3*%
%TO.N,E_B1_A*%
X95550000Y-57500000D03*
%TO.P,U12,3,EP3/PX*%
%TO.N,VCC*%
X98050000Y-57500000D03*
D12*
%TO.P,U12,A1,EA1*%
%TO.N,E_B1_B*%
X91800000Y-55000000D03*
%TO.P,U12,A2,EA2*%
%TO.N,E_B1_A*%
X96800000Y-55000000D03*
%TO.P,U12,B,EB*%
%TO.N,GND*%
X94300000Y-55000000D03*
D11*
%TO.P,U12,c,E_SW1*%
X91800000Y-40500000D03*
%TO.P,U12,d,E_SW2*%
%TO.N,E_B1_SW*%
X96800000Y-40500000D03*
%TD*%
D10*
%TO.P,U10,*%
%TO.N,*%
X60100000Y-47000000D03*
X71500000Y-47000000D03*
D11*
%TO.P,U10,1,EP1/P2*%
%TO.N,GND*%
X64550000Y-57500000D03*
%TO.P,U10,2a,EP2a/P1*%
%TO.N,E_A1_B*%
X62050000Y-57500000D03*
%TO.P,U10,2b,EP2b/P3*%
%TO.N,E_A1_A*%
X67050000Y-57500000D03*
%TO.P,U10,3,EP3/PX*%
%TO.N,VCC*%
X69550000Y-57500000D03*
D12*
%TO.P,U10,A1,EA1*%
%TO.N,E_A1_B*%
X63300000Y-55000000D03*
%TO.P,U10,A2,EA2*%
%TO.N,E_A1_A*%
X68300000Y-55000000D03*
%TO.P,U10,B,EB*%
%TO.N,GND*%
X65800000Y-55000000D03*
D11*
%TO.P,U10,c,E_SW1*%
X63300000Y-40500000D03*
%TO.P,U10,d,E_SW2*%
%TO.N,E_A1_SW*%
X68300000Y-40500000D03*
%TD*%
D14*
%TO.P,J2,1,Pin_1*%
%TO.N,UPDI*%
X110980000Y-41670000D03*
D15*
%TO.P,J2,2,Pin_2*%
%TO.N,VCC*%
X108440000Y-41670000D03*
%TO.P,J2,3,Pin_3*%
%TO.N,GND*%
X105900000Y-41670000D03*
%TD*%
D14*
%TO.P,J1,1,Pin_1*%
%TO.N,VCC*%
X112300000Y-49670000D03*
D15*
%TO.P,J1,2,Pin_2*%
%TO.N,SCL*%
X109760000Y-49670000D03*
%TO.P,J1,3,Pin_3*%
%TO.N,SDA*%
X107220000Y-49670000D03*
%TO.P,J1,4,Pin_4*%
%TO.N,GND*%
X104680000Y-49670000D03*
%TD*%
D16*
%TO.P,C1,1*%
%TO.N,VCC*%
X107667400Y-77750000D03*
D17*
%TO.P,C1,2*%
%TO.N,GND*%
X109167400Y-77750000D03*
%TD*%
D18*
%TO.N,VCC*%
X130980900Y-58535500D03*
X94550000Y-49510000D03*
X84550000Y-48510000D03*
X108300000Y-56260000D03*
%TO.N,GND*%
X143197100Y-72627800D03*
X107550000Y-60760000D03*
X90132100Y-43289300D03*
X133550000Y-75010000D03*
X55526600Y-70876700D03*
X62800000Y-66735000D03*
X123005500Y-78873800D03*
X73705900Y-81760000D03*
X59319700Y-81760000D03*
X108550000Y-52260000D03*
X86241300Y-82070000D03*
X86222900Y-63892800D03*
X150936200Y-46468300D03*
X140300000Y-46760000D03*
X115550000Y-50760000D03*
X115271500Y-71535000D03*
X63325000Y-42318700D03*
X150454500Y-44245300D03*
X108300000Y-65510000D03*
X78300000Y-45760000D03*
X141800000Y-81760000D03*
X111550000Y-74760000D03*
X90346000Y-70454000D03*
X63227100Y-62476700D03*
X112800000Y-79171600D03*
X117360800Y-69937700D03*
X129879400Y-81797400D03*
X150466400Y-71855100D03*
X149165500Y-52023400D03*
%TO.N,E_A1_B*%
X65372700Y-51615600D03*
%TO.N,E_A2_A*%
X60772000Y-84164900D03*
%TO.N,E_B1_B*%
X95211200Y-52274000D03*
%TO.N,E_B2_B*%
X94475900Y-80042200D03*
%TO.N,E_C1_B*%
X121356500Y-52240800D03*
X123204100Y-49938300D03*
%TO.N,E_C2_A*%
X118800000Y-80235000D03*
%TO.N,E_D1_B*%
X151994300Y-52122800D03*
%TO.N,E_D2_B*%
X151450800Y-80020200D03*
%TO.N,UPDI*%
X114004200Y-56783600D03*
X115742800Y-61428600D03*
%TO.N,/Untitled Sheet/ENC_CTL_1*%
X118632400Y-43547900D03*
X93635600Y-44060400D03*
%TO.N,/Untitled Sheet/ENC_CTL_2*%
X65768600Y-72728600D03*
X88999700Y-70869700D03*
%TO.N,/Untitled Sheet/ENC_A_A*%
X94988100Y-66958200D03*
X61466992Y-80176992D03*
X56978200Y-66958200D03*
%TO.N,/Untitled Sheet/ENC_A_B*%
X66550000Y-65610000D03*
X100800000Y-61760000D03*
%TO.N,/Untitled Sheet/ENC_B_A*%
X98300500Y-65943800D03*
X87592087Y-67456070D03*
X82531100Y-68510000D03*
%TO.N,/Untitled Sheet/ENC_B_SW*%
X99326900Y-70808700D03*
X70510500Y-71943200D03*
%TO.N,/Untitled Sheet/ENC_C_A*%
X111075000Y-60936750D03*
X107235900Y-68558700D03*
X123066800Y-51902200D03*
X130300000Y-51902200D03*
%TO.N,/Untitled Sheet/ENC_C_B*%
X109774758Y-63234758D03*
X109070200Y-69266500D03*
%TO.N,/Untitled Sheet/ENC_C_SW*%
X119216600Y-52030600D03*
X122790300Y-46866500D03*
%TO.N,/Untitled Sheet/ENC_D_A*%
X143808500Y-78501500D03*
X138683500Y-71510000D03*
X110550000Y-67760000D03*
%TO.N,/Untitled Sheet/ENC_D_B*%
X135550000Y-60510000D03*
X150639000Y-78152000D03*
X114501200Y-65736900D03*
%TD*%
D19*
%TO.N,VCC*%
X155050000Y-57500000D02*
X153689800Y-58860200D01*
X99290000Y-56260000D02*
X98050000Y-57500000D01*
X153633600Y-87416400D02*
X155050000Y-86000000D01*
X86290000Y-50250000D02*
X84550000Y-48510000D01*
X94550000Y-49510000D02*
X93810000Y-50250000D01*
X131305600Y-58860200D02*
X130980900Y-58535500D01*
X112300000Y-52260000D02*
X108300000Y-56260000D01*
X126704600Y-54396400D02*
X126704600Y-57345400D01*
X153689800Y-58860200D02*
X131305600Y-58860200D01*
X126550000Y-86000000D02*
X125133600Y-87416400D01*
X70966400Y-87416400D02*
X69550000Y-86000000D01*
X112300000Y-49670000D02*
X112300000Y-52260000D01*
X108300000Y-56260000D02*
X99290000Y-56260000D01*
X98050000Y-87416400D02*
X70966400Y-87416400D01*
X125400700Y-53092500D02*
X126704600Y-54396400D01*
X112300000Y-49670000D02*
X115722500Y-53092500D01*
X93810000Y-50250000D02*
X86290000Y-50250000D01*
X127966400Y-87416400D02*
X153633600Y-87416400D01*
X115722500Y-53092500D02*
X125400700Y-53092500D01*
X98050000Y-86000000D02*
X98050000Y-87416400D01*
X127894700Y-58535500D02*
X126704600Y-57345400D01*
X130980900Y-58535500D02*
X127894700Y-58535500D01*
X126550000Y-86000000D02*
X127966400Y-87416400D01*
X125133600Y-87416400D02*
X98050000Y-87416400D01*
%TO.N,GND*%
X105239200Y-41670000D02*
X106942800Y-39966400D01*
X59319700Y-81760000D02*
X65800000Y-81760000D01*
X149203900Y-70592600D02*
X150466400Y-71855100D01*
X65800000Y-83500000D02*
X65800000Y-81760000D01*
X145232300Y-70592600D02*
X148800000Y-70592600D01*
X91333800Y-42318700D02*
X90132100Y-42318700D01*
X102585500Y-50442800D02*
X98857200Y-50442800D01*
X91800000Y-40500000D02*
X91800000Y-41852500D01*
X103358300Y-49670000D02*
X102585500Y-50442800D01*
X62963900Y-62476700D02*
X63227100Y-62476700D01*
X113097800Y-78873800D02*
X123005500Y-78873800D01*
X115271500Y-71535000D02*
X115271500Y-72057200D01*
X63227100Y-62476700D02*
X64643200Y-63892800D01*
X90132100Y-42318700D02*
X63325000Y-42318700D01*
X55526600Y-70876700D02*
X61423300Y-70876700D01*
X104680000Y-49670000D02*
X103358300Y-49670000D01*
X61423300Y-70876700D02*
X63300000Y-69000000D01*
X148800000Y-40500000D02*
X150454500Y-42154500D01*
X141762600Y-81797400D02*
X141800000Y-81760000D01*
X104395800Y-41852500D02*
X91800000Y-41852500D01*
X149165500Y-48239000D02*
X150936200Y-46468300D01*
X148800000Y-70592600D02*
X149203900Y-70592600D01*
X112568700Y-74760000D02*
X111550000Y-74760000D01*
X90132100Y-42318700D02*
X90132100Y-43289300D01*
X86241300Y-82070000D02*
X74015900Y-82070000D01*
X104578300Y-41670000D02*
X104395800Y-41852500D01*
X112800000Y-79171600D02*
X113097800Y-78873800D01*
X129879400Y-81797400D02*
X141762600Y-81797400D01*
X115271500Y-72057200D02*
X112568700Y-74760000D01*
X143197100Y-72627800D02*
X145232300Y-70592600D01*
X119766400Y-39966400D02*
X120300000Y-40500000D01*
X120300000Y-69000000D02*
X118298500Y-69000000D01*
X106942800Y-39966400D02*
X119766400Y-39966400D01*
X105239200Y-41670000D02*
X104578300Y-41670000D01*
X91800000Y-41852500D02*
X91333800Y-42318700D01*
X74015900Y-82070000D02*
X73705900Y-81760000D01*
X62800000Y-66735000D02*
X62800000Y-62640600D01*
X150454500Y-42154500D02*
X150454500Y-44245300D01*
X62800000Y-62640600D02*
X62963900Y-62476700D01*
X91800000Y-69000000D02*
X90346000Y-70454000D01*
X149165500Y-52023400D02*
X149165500Y-48239000D01*
X65800000Y-81760000D02*
X73705900Y-81760000D01*
X118298500Y-69000000D02*
X117360800Y-69937700D01*
X148800000Y-69000000D02*
X148800000Y-70592600D01*
X98857200Y-50442800D02*
X94300000Y-55000000D01*
D20*
%TO.N,E_A1_B*%
X63300000Y-53688300D02*
X65372700Y-51615600D01*
X63300000Y-55000000D02*
X63300000Y-53688300D01*
%TO.N,E_A2_A*%
X61451600Y-87276700D02*
X60772000Y-86597100D01*
X67050000Y-86000000D02*
X65773300Y-87276700D01*
X65773300Y-87276700D02*
X61451600Y-87276700D01*
X60772000Y-86597100D02*
X60772000Y-84164900D01*
%TO.N,E_B1_B*%
X94526000Y-52274000D02*
X95211200Y-52274000D01*
X91800000Y-55000000D02*
X94526000Y-52274000D01*
%TO.N,E_B2_B*%
X94475900Y-80824100D02*
X94475900Y-80042200D01*
X91800000Y-83500000D02*
X94475900Y-80824100D01*
%TO.N,E_C1_B*%
X121356500Y-51785900D02*
X123204100Y-49938300D01*
X121356500Y-52240800D02*
X121356500Y-51785900D01*
%TO.N,E_C2_A*%
X118800000Y-80235000D02*
X122035000Y-80235000D01*
X122035000Y-80235000D02*
X125300000Y-83500000D01*
%TO.N,E_D1_B*%
X151677200Y-52122800D02*
X151994300Y-52122800D01*
X148800000Y-55000000D02*
X151677200Y-52122800D01*
%TO.N,E_D2_B*%
X148800000Y-83500000D02*
X151450800Y-80849200D01*
X151450800Y-80849200D02*
X151450800Y-80020200D01*
%TO.N,UPDI*%
X114004200Y-59690000D02*
X114004200Y-56783600D01*
X115742800Y-61428600D02*
X114004200Y-59690000D01*
%TO.N,/Untitled Sheet/ENC_CTL_1*%
X94148100Y-43547900D02*
X118632400Y-43547900D01*
X93635600Y-44060400D02*
X94148100Y-43547900D01*
%TO.N,/Untitled Sheet/ENC_CTL_2*%
X65768600Y-72728600D02*
X67331400Y-72728600D01*
X67331400Y-72728600D02*
X69190300Y-70869700D01*
X69190300Y-70869700D02*
X88999700Y-70869700D01*
%TO.N,/Untitled Sheet/ENC_A_A*%
X61466992Y-79527208D02*
X64639900Y-76354300D01*
X61466992Y-80176992D02*
X61466992Y-79527208D01*
X72409700Y-70369700D02*
X69550000Y-67510000D01*
X64639900Y-76354300D02*
X64639900Y-67510000D01*
X94988100Y-66958200D02*
X94436300Y-67510000D01*
X64639900Y-67510000D02*
X57530000Y-67510000D01*
X88403684Y-70369700D02*
X72409700Y-70369700D01*
X91263384Y-67510000D02*
X88403684Y-70369700D01*
X69550000Y-67510000D02*
X64639900Y-67510000D01*
X94436300Y-67510000D02*
X91263384Y-67510000D01*
X57530000Y-67510000D02*
X56978200Y-66958200D01*
%TO.N,/Untitled Sheet/ENC_A_B*%
X100800000Y-61760000D02*
X87259684Y-61760000D01*
X69650000Y-65610000D02*
X66550000Y-65610000D01*
X73550000Y-69510000D02*
X69650000Y-65610000D01*
X85447900Y-63612100D02*
X79550000Y-69510000D01*
X85447900Y-63571784D02*
X85447900Y-63612100D01*
X79550000Y-69510000D02*
X73550000Y-69510000D01*
X87259684Y-61760000D02*
X85447900Y-63571784D01*
%TO.N,/Untitled Sheet/ENC_B_A*%
X92143900Y-65916100D02*
X98272800Y-65916100D01*
X87592087Y-67456070D02*
X87646017Y-67510000D01*
X90550000Y-67510000D02*
X92143900Y-65916100D01*
X82531100Y-68510000D02*
X83585030Y-67456070D01*
X83585030Y-67456070D02*
X87592087Y-67456070D01*
X87646017Y-67510000D02*
X90550000Y-67510000D01*
X98272800Y-65916100D02*
X98300500Y-65943800D01*
%TO.N,/Untitled Sheet/ENC_B_SW*%
X98192400Y-71943200D02*
X70510500Y-71943200D01*
X99326900Y-70808700D02*
X98192400Y-71943200D01*
%TO.N,/Untitled Sheet/ENC_C_A*%
X107235900Y-64677600D02*
X107235900Y-68558700D01*
X110976750Y-60936750D02*
X107235900Y-64677600D01*
X111075000Y-60936750D02*
X110976750Y-60936750D01*
X123066800Y-51902200D02*
X130300000Y-51902200D01*
%TO.N,/Untitled Sheet/ENC_C_B*%
X109550000Y-63459516D02*
X109550000Y-68786700D01*
X109550000Y-68786700D02*
X109070200Y-69266500D01*
X109774758Y-63234758D02*
X109550000Y-63459516D01*
%TO.N,/Untitled Sheet/ENC_C_SW*%
X119216600Y-50440200D02*
X119216600Y-52030600D01*
X122790300Y-46866500D02*
X119216600Y-50440200D01*
%TO.N,/Untitled Sheet/ENC_D_A*%
X113425000Y-70635000D02*
X116962084Y-70635000D01*
X116962084Y-70635000D02*
X117837084Y-71510000D01*
X110550000Y-67760000D02*
X113425000Y-70635000D01*
X140550000Y-73376500D02*
X140550000Y-75243000D01*
X138683500Y-71510000D02*
X140550000Y-73376500D01*
X117837084Y-71510000D02*
X138683500Y-71510000D01*
X140550000Y-75243000D02*
X143808500Y-78501500D01*
%TO.N,/Untitled Sheet/ENC_D_B*%
X130323100Y-65736900D02*
X135550000Y-60510000D01*
X114501200Y-65736900D02*
X129550000Y-65736900D01*
X151263400Y-77527600D02*
X150639000Y-78152000D01*
X148869250Y-67190750D02*
X151263400Y-69584900D01*
X134323100Y-70510000D02*
X142550000Y-70510000D01*
X145869250Y-67190750D02*
X148869250Y-67190750D01*
X151263400Y-69584900D02*
X151263400Y-77527600D01*
X129550000Y-65736900D02*
X134323100Y-70510000D01*
X142550000Y-70510000D02*
X145869250Y-67190750D01*
X129550000Y-65736900D02*
X130323100Y-65736900D01*
%TD*%
%TA.AperFunction,Conductor*%
%TO.N,GND*%
G36*
X108835834Y-64076084D02*
G01*
X108891767Y-64117956D01*
X108916184Y-64183420D01*
X108916500Y-64192266D01*
X108916500Y-68269960D01*
X108896815Y-68336999D01*
X108844011Y-68382754D01*
X108818283Y-68391250D01*
X108787913Y-68397705D01*
X108613444Y-68475384D01*
X108458947Y-68587633D01*
X108360414Y-68697066D01*
X108300927Y-68733714D01*
X108231070Y-68732383D01*
X108173022Y-68693496D01*
X108145212Y-68629400D01*
X108144944Y-68601134D01*
X108149404Y-68558700D01*
X108129442Y-68368772D01*
X108070427Y-68187144D01*
X107974940Y-68021756D01*
X107974936Y-68021750D01*
X107901250Y-67939913D01*
X107871020Y-67876921D01*
X107869400Y-67856941D01*
X107869400Y-64991366D01*
X107889085Y-64924327D01*
X107905719Y-64903685D01*
X108704819Y-64104585D01*
X108766142Y-64071100D01*
X108835834Y-64076084D01*
G37*
%TD.AperFunction*%
%TA.AperFunction,Conductor*%
G36*
X121970229Y-53820685D02*
G01*
X121990871Y-53837319D01*
X122670590Y-54517037D01*
X122607007Y-54534075D01*
X122492993Y-54599901D01*
X122399901Y-54692993D01*
X122334075Y-54807007D01*
X122317037Y-54870590D01*
X121612687Y-54166240D01*
X121580007Y-54169630D01*
X121511294Y-54156965D01*
X121463409Y-54114114D01*
X121454909Y-54101105D01*
X121454907Y-54101102D01*
X121454906Y-54101100D01*
X121370105Y-54008982D01*
X121339184Y-53946328D01*
X121347044Y-53876902D01*
X121391191Y-53822747D01*
X121457609Y-53801056D01*
X121461336Y-53801000D01*
X121903190Y-53801000D01*
X121970229Y-53820685D01*
G37*
%TD.AperFunction*%
%TA.AperFunction,Conductor*%
G36*
X124205703Y-53820685D02*
G01*
X124251458Y-53873489D01*
X124261402Y-53942647D01*
X124232377Y-54006203D01*
X124229894Y-54008983D01*
X124145094Y-54101099D01*
X124136590Y-54114116D01*
X124083442Y-54159471D01*
X124019992Y-54169630D01*
X123987311Y-54166240D01*
X123282962Y-54870588D01*
X123265925Y-54807007D01*
X123200099Y-54692993D01*
X123107007Y-54599901D01*
X122992993Y-54534075D01*
X122929410Y-54517037D01*
X123609127Y-53837319D01*
X123670450Y-53803834D01*
X123696808Y-53801000D01*
X124138664Y-53801000D01*
X124205703Y-53820685D01*
G37*
%TD.AperFunction*%
%TA.AperFunction,Conductor*%
G36*
X162993039Y-37279685D02*
G01*
X163038794Y-37332489D01*
X163050000Y-37384000D01*
X163050000Y-88886000D01*
X163030315Y-88953039D01*
X162977511Y-88998794D01*
X162926000Y-89010000D01*
X54424601Y-89010000D01*
X54357562Y-88990315D01*
X54311807Y-88937511D01*
X54300602Y-88885401D01*
X54323406Y-84164900D01*
X59858496Y-84164900D01*
X59878458Y-84354828D01*
X59878459Y-84354830D01*
X59878459Y-84354831D01*
X59937470Y-84536449D01*
X59937473Y-84536456D01*
X59991434Y-84629920D01*
X60032960Y-84701844D01*
X60106649Y-84783684D01*
X60136880Y-84846675D01*
X60138500Y-84866656D01*
X60138500Y-86659498D01*
X60162843Y-86781877D01*
X60162845Y-86781885D01*
X60210598Y-86897172D01*
X60210603Y-86897181D01*
X60279928Y-87000932D01*
X60279931Y-87000936D01*
X61047763Y-87768769D01*
X61047766Y-87768772D01*
X61151518Y-87838096D01*
X61151525Y-87838101D01*
X61169596Y-87845586D01*
X61223802Y-87868039D01*
X61223807Y-87868040D01*
X61223811Y-87868042D01*
X61266815Y-87885855D01*
X61389201Y-87910199D01*
X61389205Y-87910200D01*
X61389206Y-87910200D01*
X65835695Y-87910200D01*
X65835696Y-87910199D01*
X65958085Y-87885855D01*
X66073375Y-87838100D01*
X66177133Y-87768771D01*
X66553607Y-87392295D01*
X66614926Y-87358813D01*
X66681545Y-87362697D01*
X66703049Y-87370080D01*
X66933288Y-87408500D01*
X67166711Y-87408500D01*
X67166712Y-87408500D01*
X67396951Y-87370080D01*
X67617727Y-87294287D01*
X67823017Y-87183190D01*
X68007220Y-87039818D01*
X68165314Y-86868083D01*
X68196191Y-86820821D01*
X68249337Y-86775465D01*
X68318568Y-86766041D01*
X68381904Y-86795542D01*
X68403809Y-86820822D01*
X68434686Y-86868084D01*
X68556986Y-87000936D01*
X68592780Y-87039818D01*
X68776983Y-87183190D01*
X68776985Y-87183191D01*
X68776988Y-87183193D01*
X68896331Y-87247777D01*
X68982273Y-87294287D01*
X69096914Y-87333643D01*
X69203045Y-87370079D01*
X69203047Y-87370079D01*
X69203049Y-87370080D01*
X69433288Y-87408500D01*
X69433289Y-87408500D01*
X69666711Y-87408500D01*
X69666712Y-87408500D01*
X69852128Y-87377559D01*
X69921490Y-87385941D01*
X69960216Y-87412187D01*
X70514753Y-87966725D01*
X70514757Y-87966728D01*
X70630792Y-88044261D01*
X70630805Y-88044268D01*
X70721967Y-88082028D01*
X70721972Y-88082030D01*
X70759738Y-88097673D01*
X70795254Y-88104737D01*
X70828130Y-88111277D01*
X70828154Y-88111281D01*
X70828178Y-88111286D01*
X70879508Y-88121496D01*
X70896617Y-88124900D01*
X70896618Y-88124900D01*
X125203382Y-88124900D01*
X125271821Y-88111286D01*
X125271822Y-88111286D01*
X125289048Y-88107859D01*
X125340262Y-88097673D01*
X125378027Y-88082030D01*
X125469201Y-88044265D01*
X125585243Y-87966728D01*
X126139784Y-87412185D01*
X126201105Y-87378702D01*
X126247868Y-87377559D01*
X126433288Y-87408500D01*
X126433289Y-87408500D01*
X126666711Y-87408500D01*
X126666712Y-87408500D01*
X126852128Y-87377559D01*
X126921490Y-87385941D01*
X126960216Y-87412187D01*
X127514753Y-87966725D01*
X127514757Y-87966728D01*
X127630792Y-88044261D01*
X127630805Y-88044268D01*
X127721967Y-88082028D01*
X127721972Y-88082030D01*
X127759738Y-88097673D01*
X127795254Y-88104737D01*
X127828130Y-88111277D01*
X127828154Y-88111281D01*
X127828178Y-88111286D01*
X127879508Y-88121496D01*
X127896617Y-88124900D01*
X127896618Y-88124900D01*
X153703382Y-88124900D01*
X153771821Y-88111286D01*
X153771822Y-88111286D01*
X153789048Y-88107859D01*
X153840262Y-88097673D01*
X153878027Y-88082030D01*
X153969201Y-88044265D01*
X154085243Y-87966728D01*
X154639784Y-87412185D01*
X154701105Y-87378702D01*
X154747868Y-87377559D01*
X154933288Y-87408500D01*
X154933289Y-87408500D01*
X155166711Y-87408500D01*
X155166712Y-87408500D01*
X155396951Y-87370080D01*
X155617727Y-87294287D01*
X155823017Y-87183190D01*
X156007220Y-87039818D01*
X156165314Y-86868083D01*
X156292984Y-86672669D01*
X156386749Y-86458907D01*
X156444051Y-86232626D01*
X156452618Y-86129236D01*
X156463327Y-86000005D01*
X156463327Y-85999994D01*
X156444051Y-85767377D01*
X156444051Y-85767374D01*
X156386749Y-85541093D01*
X156292984Y-85327331D01*
X156165314Y-85131917D01*
X156165313Y-85131915D01*
X156007223Y-84960185D01*
X156007222Y-84960184D01*
X156007220Y-84960182D01*
X155823017Y-84816810D01*
X155823015Y-84816809D01*
X155823014Y-84816808D01*
X155823011Y-84816806D01*
X155617733Y-84705716D01*
X155617730Y-84705715D01*
X155617727Y-84705713D01*
X155617721Y-84705711D01*
X155617719Y-84705710D01*
X155396954Y-84629920D01*
X155224271Y-84601105D01*
X155166712Y-84591500D01*
X155058205Y-84591500D01*
X154991166Y-84571815D01*
X154945411Y-84519011D01*
X154935467Y-84449853D01*
X154954397Y-84399678D01*
X154954903Y-84398902D01*
X154954906Y-84398900D01*
X155087109Y-84196549D01*
X155184203Y-83975197D01*
X155243539Y-83740884D01*
X155258045Y-83565826D01*
X155263499Y-83500005D01*
X155263499Y-83499994D01*
X155243539Y-83259119D01*
X155243539Y-83259116D01*
X155184203Y-83024803D01*
X155087109Y-82803451D01*
X154954906Y-82601100D01*
X154791201Y-82423269D01*
X154791196Y-82423265D01*
X154791194Y-82423263D01*
X154600466Y-82274813D01*
X154600460Y-82274809D01*
X154387882Y-82159767D01*
X154387873Y-82159764D01*
X154159271Y-82081284D01*
X153971793Y-82050000D01*
X153920855Y-82041500D01*
X153679145Y-82041500D01*
X153631462Y-82049456D01*
X153440728Y-82081284D01*
X153212126Y-82159764D01*
X153212117Y-82159767D01*
X152999539Y-82274809D01*
X152999533Y-82274813D01*
X152808805Y-82423263D01*
X152808802Y-82423266D01*
X152645094Y-82601099D01*
X152636590Y-82614116D01*
X152583442Y-82659471D01*
X152519992Y-82669630D01*
X152487311Y-82666240D01*
X151782962Y-83370588D01*
X151765925Y-83307007D01*
X151700099Y-83192993D01*
X151607007Y-83099901D01*
X151492993Y-83034075D01*
X151429407Y-83017037D01*
X152134426Y-82312019D01*
X152134426Y-82312017D01*
X152095801Y-82281954D01*
X152095795Y-82281950D01*
X151884455Y-82167578D01*
X151884449Y-82167576D01*
X151657176Y-82089553D01*
X151422733Y-82050431D01*
X151359848Y-82019980D01*
X151323408Y-81960365D01*
X151324984Y-81890513D01*
X151355460Y-81840442D01*
X151942871Y-81253033D01*
X152012200Y-81149275D01*
X152059955Y-81033985D01*
X152084300Y-80911594D01*
X152084300Y-80786807D01*
X152084300Y-80721956D01*
X152103985Y-80654917D01*
X152116146Y-80638988D01*
X152189840Y-80557144D01*
X152285327Y-80391756D01*
X152344342Y-80210128D01*
X152364304Y-80020200D01*
X152344342Y-79830272D01*
X152285327Y-79648644D01*
X152189840Y-79483256D01*
X152062053Y-79341334D01*
X151907552Y-79229082D01*
X151733088Y-79151406D01*
X151733086Y-79151405D01*
X151546287Y-79111700D01*
X151355313Y-79111700D01*
X151231047Y-79138113D01*
X151161379Y-79132797D01*
X151105646Y-79090660D01*
X151081541Y-79025080D01*
X151096718Y-78956878D01*
X151132380Y-78916506D01*
X151250253Y-78830866D01*
X151378040Y-78688944D01*
X151473527Y-78523556D01*
X151532542Y-78341928D01*
X151549981Y-78175997D01*
X151576564Y-78111387D01*
X151585610Y-78101292D01*
X151755471Y-77931433D01*
X151824800Y-77827675D01*
X151872555Y-77712385D01*
X151896900Y-77589994D01*
X151896900Y-77465206D01*
X151896900Y-76698037D01*
X154741500Y-76698037D01*
X154768590Y-76903795D01*
X154780144Y-76991557D01*
X154856769Y-77277529D01*
X154968393Y-77547010D01*
X154970070Y-77551059D01*
X154970071Y-77551060D01*
X155118096Y-77807447D01*
X155298324Y-78042326D01*
X155298330Y-78042333D01*
X155507666Y-78251669D01*
X155507673Y-78251675D01*
X155742552Y-78431903D01*
X155998939Y-78579928D01*
X155998938Y-78579928D01*
X155998942Y-78579929D01*
X155998948Y-78579933D01*
X156272471Y-78693231D01*
X156558443Y-78769856D01*
X156851970Y-78808500D01*
X156851977Y-78808500D01*
X157148023Y-78808500D01*
X157148030Y-78808500D01*
X157441557Y-78769856D01*
X157727529Y-78693231D01*
X158001052Y-78579933D01*
X158001057Y-78579929D01*
X158001062Y-78579928D01*
X158161684Y-78487192D01*
X158257448Y-78431903D01*
X158492328Y-78251674D01*
X158701674Y-78042328D01*
X158881903Y-77807448D01*
X159029933Y-77551052D01*
X159143231Y-77277529D01*
X159219856Y-76991557D01*
X159258500Y-76698030D01*
X159258500Y-74301970D01*
X159219856Y-74008443D01*
X159143231Y-73722471D01*
X159029933Y-73448948D01*
X159029930Y-73448943D01*
X159029929Y-73448940D01*
X159029928Y-73448939D01*
X158881903Y-73192552D01*
X158701675Y-72957673D01*
X158701669Y-72957666D01*
X158492333Y-72748330D01*
X158492326Y-72748324D01*
X158257447Y-72568096D01*
X158001060Y-72420071D01*
X158001059Y-72420070D01*
X157909298Y-72382061D01*
X157727529Y-72306769D01*
X157706431Y-72301116D01*
X157648229Y-72285521D01*
X157441557Y-72230144D01*
X157392503Y-72223685D01*
X157148037Y-72191500D01*
X157148030Y-72191500D01*
X156851970Y-72191500D01*
X156851962Y-72191500D01*
X156572571Y-72228283D01*
X156558443Y-72230144D01*
X156463119Y-72255685D01*
X156272477Y-72306767D01*
X156272473Y-72306768D01*
X156272471Y-72306769D01*
X156272464Y-72306772D01*
X155998940Y-72420070D01*
X155998939Y-72420071D01*
X155742552Y-72568096D01*
X155507673Y-72748324D01*
X155507666Y-72748330D01*
X155298330Y-72957666D01*
X155298324Y-72957673D01*
X155118096Y-73192552D01*
X154970071Y-73448939D01*
X154970070Y-73448940D01*
X154856772Y-73722464D01*
X154856767Y-73722477D01*
X154780145Y-74008440D01*
X154780143Y-74008451D01*
X154741500Y-74301962D01*
X154741500Y-76698037D01*
X151896900Y-76698037D01*
X151896900Y-69522506D01*
X151872555Y-69400115D01*
X151824800Y-69284825D01*
X151824799Y-69284824D01*
X151824796Y-69284818D01*
X151755472Y-69181068D01*
X151755471Y-69181067D01*
X151667233Y-69092829D01*
X151574409Y-69000005D01*
X152386673Y-69000005D01*
X152405948Y-69232622D01*
X152463251Y-69458907D01*
X152557015Y-69672668D01*
X152684686Y-69868084D01*
X152841019Y-70037905D01*
X152842780Y-70039818D01*
X153026983Y-70183190D01*
X153026985Y-70183191D01*
X153026988Y-70183193D01*
X153088562Y-70216515D01*
X153232273Y-70294287D01*
X153344329Y-70332756D01*
X153453045Y-70370079D01*
X153453047Y-70370079D01*
X153453049Y-70370080D01*
X153683288Y-70408500D01*
X153683289Y-70408500D01*
X153916711Y-70408500D01*
X153916712Y-70408500D01*
X154146951Y-70370080D01*
X154367727Y-70294287D01*
X154573017Y-70183190D01*
X154757220Y-70039818D01*
X154915314Y-69868083D01*
X155042984Y-69672669D01*
X155136749Y-69458907D01*
X155194051Y-69232626D01*
X155206982Y-69076572D01*
X155213327Y-69000005D01*
X155213327Y-68999994D01*
X155194227Y-68769503D01*
X155194051Y-68767374D01*
X155136749Y-68541093D01*
X155042984Y-68327331D01*
X154956386Y-68194782D01*
X154915313Y-68131915D01*
X154757223Y-67960185D01*
X154757222Y-67960184D01*
X154757220Y-67960182D01*
X154573017Y-67816810D01*
X154573015Y-67816809D01*
X154573014Y-67816808D01*
X154573011Y-67816806D01*
X154367733Y-67705716D01*
X154367730Y-67705715D01*
X154367727Y-67705713D01*
X154367721Y-67705711D01*
X154367719Y-67705710D01*
X154146954Y-67629920D01*
X153967650Y-67600000D01*
X153916712Y-67591500D01*
X153683288Y-67591500D01*
X153637240Y-67599184D01*
X153453045Y-67629920D01*
X153232280Y-67705710D01*
X153232266Y-67705716D01*
X153026988Y-67816806D01*
X153026985Y-67816808D01*
X152842781Y-67960181D01*
X152842776Y-67960185D01*
X152684686Y-68131915D01*
X152557015Y-68327331D01*
X152463251Y-68541092D01*
X152405948Y-68767377D01*
X152386673Y-68999994D01*
X152386673Y-69000005D01*
X151574409Y-69000005D01*
X150477423Y-67903019D01*
X149273086Y-66698681D01*
X149273082Y-66698678D01*
X149169331Y-66629353D01*
X149169322Y-66629348D01*
X149054035Y-66581595D01*
X149054027Y-66581593D01*
X148931648Y-66557250D01*
X148931644Y-66557250D01*
X145931643Y-66557250D01*
X145806856Y-66557250D01*
X145806851Y-66557250D01*
X145684472Y-66581593D01*
X145684464Y-66581595D01*
X145569177Y-66629348D01*
X145569168Y-66629353D01*
X145465417Y-66698678D01*
X145465413Y-66698681D01*
X144636702Y-67527392D01*
X144575379Y-67560877D01*
X144505687Y-67555893D01*
X144449754Y-67514021D01*
X144425337Y-67448557D01*
X144440189Y-67380284D01*
X144455308Y-67358508D01*
X144644512Y-67140156D01*
X144644523Y-67140143D01*
X144879372Y-66810343D01*
X144879378Y-66810335D01*
X145081831Y-66459675D01*
X145250033Y-66091365D01*
X145250043Y-66091340D01*
X145382465Y-65708733D01*
X145382468Y-65708722D01*
X145477928Y-65315231D01*
X145535552Y-64914450D01*
X145554818Y-64510000D01*
X145535552Y-64105549D01*
X145477928Y-63704768D01*
X145382468Y-63311277D01*
X145382465Y-63311266D01*
X145250043Y-62928659D01*
X145250033Y-62928634D01*
X145081831Y-62560324D01*
X144879378Y-62209664D01*
X144879372Y-62209656D01*
X144644523Y-61879856D01*
X144644512Y-61879843D01*
X144477013Y-61686538D01*
X142986900Y-63176651D01*
X142919924Y-63089365D01*
X142720635Y-62890076D01*
X142633348Y-62823098D01*
X144125070Y-61331376D01*
X144086323Y-61294431D01*
X144086304Y-61294414D01*
X143768031Y-61044122D01*
X143427406Y-60825217D01*
X143067511Y-60639679D01*
X143067507Y-60639677D01*
X142691616Y-60489193D01*
X142691604Y-60489189D01*
X142303117Y-60375119D01*
X142303100Y-60375115D01*
X141905539Y-60298491D01*
X141905527Y-60298489D01*
X141502446Y-60260000D01*
X141097554Y-60260000D01*
X140694472Y-60298489D01*
X140694460Y-60298491D01*
X140296899Y-60375115D01*
X140296882Y-60375119D01*
X139908395Y-60489189D01*
X139908383Y-60489193D01*
X139532485Y-60639680D01*
X139172594Y-60825217D01*
X138831968Y-61044122D01*
X138513685Y-61294421D01*
X138513673Y-61294432D01*
X138474929Y-61331375D01*
X138474929Y-61331376D01*
X139966651Y-62823098D01*
X139879365Y-62890076D01*
X139680076Y-63089365D01*
X139613098Y-63176651D01*
X138122986Y-61686539D01*
X137955485Y-61879845D01*
X137720627Y-62209656D01*
X137720621Y-62209664D01*
X137518168Y-62560324D01*
X137349966Y-62928634D01*
X137349956Y-62928659D01*
X137217534Y-63311266D01*
X137217531Y-63311277D01*
X137122071Y-63704768D01*
X137064447Y-64105549D01*
X137045181Y-64510000D01*
X137064447Y-64914450D01*
X137122071Y-65315231D01*
X137217531Y-65708722D01*
X137217534Y-65708733D01*
X137349956Y-66091340D01*
X137349966Y-66091365D01*
X137518168Y-66459675D01*
X137720621Y-66810335D01*
X137720627Y-66810343D01*
X137955485Y-67140154D01*
X138122985Y-67333460D01*
X139613098Y-65843347D01*
X139680076Y-65930635D01*
X139879365Y-66129924D01*
X139966650Y-66196900D01*
X138474928Y-67688622D01*
X138513676Y-67725568D01*
X138513695Y-67725585D01*
X138831968Y-67975877D01*
X139172594Y-68194782D01*
X139532485Y-68380319D01*
X139908383Y-68530806D01*
X139908395Y-68530810D01*
X140296882Y-68644880D01*
X140296899Y-68644884D01*
X140694460Y-68721508D01*
X140694472Y-68721510D01*
X141097554Y-68760000D01*
X141502446Y-68760000D01*
X141905527Y-68721510D01*
X141905539Y-68721508D01*
X142303100Y-68644884D01*
X142303117Y-68644880D01*
X142691604Y-68530810D01*
X142691616Y-68530806D01*
X143067507Y-68380322D01*
X143067511Y-68380320D01*
X143427406Y-68194782D01*
X143768031Y-67975877D01*
X144086304Y-67725585D01*
X144086324Y-67725568D01*
X144119177Y-67694243D01*
X144181280Y-67662226D01*
X144250833Y-67668867D01*
X144305755Y-67712057D01*
X144328607Y-67778084D01*
X144312136Y-67845984D01*
X144292429Y-67871666D01*
X142323915Y-69840181D01*
X142262592Y-69873666D01*
X142236234Y-69876500D01*
X134636867Y-69876500D01*
X134569828Y-69856815D01*
X134549186Y-69840181D01*
X130920135Y-66211130D01*
X130886650Y-66149807D01*
X130891634Y-66080115D01*
X130920135Y-66035768D01*
X135501085Y-61454819D01*
X135562408Y-61421334D01*
X135588766Y-61418500D01*
X135645487Y-61418500D01*
X135832288Y-61378794D01*
X136006752Y-61301118D01*
X136161253Y-61188866D01*
X136289040Y-61046944D01*
X136384527Y-60881556D01*
X136443542Y-60699928D01*
X136463504Y-60510000D01*
X136443542Y-60320072D01*
X136384527Y-60138444D01*
X136289040Y-59973056D01*
X136161253Y-59831134D01*
X136161251Y-59831132D01*
X136108791Y-59793018D01*
X136066125Y-59737688D01*
X136060146Y-59668075D01*
X136092752Y-59606280D01*
X136153590Y-59571923D01*
X136181676Y-59568700D01*
X153759582Y-59568700D01*
X153828021Y-59555086D01*
X153828022Y-59555086D01*
X153845248Y-59551659D01*
X153896462Y-59541473D01*
X153934227Y-59525830D01*
X154025401Y-59488065D01*
X154141443Y-59410528D01*
X154639785Y-58912184D01*
X154701105Y-58878702D01*
X154747868Y-58877559D01*
X154933288Y-58908500D01*
X154933289Y-58908500D01*
X155166711Y-58908500D01*
X155166712Y-58908500D01*
X155396951Y-58870080D01*
X155617727Y-58794287D01*
X155823017Y-58683190D01*
X156007220Y-58539818D01*
X156165314Y-58368083D01*
X156292984Y-58172669D01*
X156386749Y-57958907D01*
X156444051Y-57732626D01*
X156457224Y-57573658D01*
X156463327Y-57500005D01*
X156463327Y-57499994D01*
X156447335Y-57307007D01*
X156444051Y-57267374D01*
X156386749Y-57041093D01*
X156292984Y-56827331D01*
X156165314Y-56631917D01*
X156165313Y-56631915D01*
X156007223Y-56460185D01*
X156007222Y-56460184D01*
X156007220Y-56460182D01*
X155823017Y-56316810D01*
X155823015Y-56316809D01*
X155823014Y-56316808D01*
X155823011Y-56316806D01*
X155617733Y-56205716D01*
X155617730Y-56205715D01*
X155617727Y-56205713D01*
X155617721Y-56205711D01*
X155617719Y-56205710D01*
X155396954Y-56129920D01*
X155224271Y-56101105D01*
X155166712Y-56091500D01*
X155058205Y-56091500D01*
X154991166Y-56071815D01*
X154945411Y-56019011D01*
X154935467Y-55949853D01*
X154954397Y-55899678D01*
X154954903Y-55898902D01*
X154954906Y-55898900D01*
X155087109Y-55696549D01*
X155184203Y-55475197D01*
X155243539Y-55240884D01*
X155263499Y-55000000D01*
X155259908Y-54956665D01*
X155243539Y-54759119D01*
X155243539Y-54759116D01*
X155184203Y-54524803D01*
X155087109Y-54303451D01*
X154954906Y-54101100D01*
X154791201Y-53923269D01*
X154791196Y-53923265D01*
X154791194Y-53923263D01*
X154600466Y-53774813D01*
X154600460Y-53774809D01*
X154387882Y-53659767D01*
X154387873Y-53659764D01*
X154159271Y-53581284D01*
X153971793Y-53550000D01*
X153920855Y-53541500D01*
X153679145Y-53541500D01*
X153631462Y-53549456D01*
X153440728Y-53581284D01*
X153212126Y-53659764D01*
X153212117Y-53659767D01*
X152999539Y-53774809D01*
X152999533Y-53774813D01*
X152808805Y-53923263D01*
X152808802Y-53923266D01*
X152645094Y-54101099D01*
X152636590Y-54114116D01*
X152583442Y-54159471D01*
X152519992Y-54169630D01*
X152487311Y-54166240D01*
X151782962Y-54870588D01*
X151765925Y-54807007D01*
X151700099Y-54692993D01*
X151607007Y-54599901D01*
X151492993Y-54534075D01*
X151429407Y-54517037D01*
X152134426Y-53812019D01*
X152134426Y-53812017D01*
X152095801Y-53781954D01*
X152095795Y-53781950D01*
X151884455Y-53667578D01*
X151884449Y-53667576D01*
X151657176Y-53589553D01*
X151422732Y-53550431D01*
X151359847Y-53519980D01*
X151323407Y-53460365D01*
X151324983Y-53390513D01*
X151355459Y-53340443D01*
X151658054Y-53037848D01*
X151719375Y-53004365D01*
X151771511Y-53004241D01*
X151898813Y-53031300D01*
X151898814Y-53031300D01*
X152089787Y-53031300D01*
X152276588Y-52991594D01*
X152451052Y-52913918D01*
X152605553Y-52801666D01*
X152733340Y-52659744D01*
X152828827Y-52494356D01*
X152887842Y-52312728D01*
X152907804Y-52122800D01*
X152887842Y-51932872D01*
X152828827Y-51751244D01*
X152733340Y-51585856D01*
X152605553Y-51443934D01*
X152451052Y-51331682D01*
X152276588Y-51254006D01*
X152276586Y-51254005D01*
X152089787Y-51214300D01*
X151898813Y-51214300D01*
X151712014Y-51254005D01*
X151537546Y-51331683D01*
X151383045Y-51443935D01*
X151255260Y-51585855D01*
X151177389Y-51720731D01*
X151157683Y-51746411D01*
X149335748Y-53568346D01*
X149274425Y-53601831D01*
X149207804Y-53597946D01*
X149159271Y-53581284D01*
X148971793Y-53550000D01*
X148920855Y-53541500D01*
X148679145Y-53541500D01*
X148631462Y-53549456D01*
X148440728Y-53581284D01*
X148212126Y-53659764D01*
X148212117Y-53659767D01*
X147999539Y-53774809D01*
X147999533Y-53774813D01*
X147808805Y-53923263D01*
X147808802Y-53923266D01*
X147645095Y-54101098D01*
X147645092Y-54101102D01*
X147512891Y-54303449D01*
X147415797Y-54524802D01*
X147356460Y-54759119D01*
X147336501Y-54999994D01*
X147336501Y-55000005D01*
X147356460Y-55240880D01*
X147415797Y-55475197D01*
X147512891Y-55696550D01*
X147576707Y-55794226D01*
X147645094Y-55898900D01*
X147645096Y-55898902D01*
X147645603Y-55899678D01*
X147665791Y-55966567D01*
X147646612Y-56033753D01*
X147594153Y-56079904D01*
X147541795Y-56091500D01*
X147433288Y-56091500D01*
X147387240Y-56099184D01*
X147203045Y-56129920D01*
X146982280Y-56205710D01*
X146982266Y-56205716D01*
X146776988Y-56316806D01*
X146776985Y-56316808D01*
X146592781Y-56460181D01*
X146592776Y-56460185D01*
X146434686Y-56631915D01*
X146307015Y-56827331D01*
X146213251Y-57041092D01*
X146155948Y-57267377D01*
X146136673Y-57499994D01*
X146136673Y-57500005D01*
X146155948Y-57732622D01*
X146213251Y-57958907D01*
X146221577Y-57977888D01*
X146230481Y-58047188D01*
X146200505Y-58110301D01*
X146141166Y-58147188D01*
X146108022Y-58151700D01*
X131879949Y-58151700D01*
X131812910Y-58132015D01*
X131772562Y-58089700D01*
X131719940Y-57998556D01*
X131592153Y-57856634D01*
X131437652Y-57744382D01*
X131263188Y-57666706D01*
X131263186Y-57666705D01*
X131076387Y-57627000D01*
X130885413Y-57627000D01*
X130698614Y-57666705D01*
X130524143Y-57744384D01*
X130443029Y-57803318D01*
X130377223Y-57826798D01*
X130370144Y-57827000D01*
X128239532Y-57827000D01*
X128172493Y-57807315D01*
X128151851Y-57790681D01*
X127996151Y-57634981D01*
X127962666Y-57573658D01*
X127960256Y-57537058D01*
X127963327Y-57500003D01*
X127963327Y-57499995D01*
X127947335Y-57307007D01*
X127944051Y-57267374D01*
X127886749Y-57041093D01*
X127792984Y-56827331D01*
X127665314Y-56631917D01*
X127665313Y-56631915D01*
X127507223Y-56460185D01*
X127507216Y-56460178D01*
X127460936Y-56424156D01*
X127420124Y-56367445D01*
X127413100Y-56326304D01*
X127413100Y-54326620D01*
X127413099Y-54326616D01*
X127412142Y-54321806D01*
X127412139Y-54321789D01*
X127385874Y-54189746D01*
X127385873Y-54189739D01*
X127332465Y-54060799D01*
X127332463Y-54060797D01*
X127332463Y-54060795D01*
X127254928Y-53944757D01*
X127254925Y-53944753D01*
X126057553Y-52747381D01*
X126024068Y-52686058D01*
X126029052Y-52616366D01*
X126070924Y-52560433D01*
X126136388Y-52536016D01*
X126145234Y-52535700D01*
X129592691Y-52535700D01*
X129659730Y-52555385D01*
X129684840Y-52576727D01*
X129688747Y-52581066D01*
X129843248Y-52693318D01*
X130017712Y-52770994D01*
X130204513Y-52810700D01*
X130395487Y-52810700D01*
X130582288Y-52770994D01*
X130756752Y-52693318D01*
X130911253Y-52581066D01*
X131039040Y-52439144D01*
X131134527Y-52273756D01*
X131193542Y-52092128D01*
X131213504Y-51902200D01*
X131193542Y-51712272D01*
X131134527Y-51530644D01*
X131039040Y-51365256D01*
X130911253Y-51223334D01*
X130756752Y-51111082D01*
X130582288Y-51033406D01*
X130582286Y-51033405D01*
X130395487Y-50993700D01*
X130204513Y-50993700D01*
X130017714Y-51033405D01*
X129843246Y-51111083D01*
X129688745Y-51223335D01*
X129684840Y-51227673D01*
X129625354Y-51264321D01*
X129592691Y-51268700D01*
X123774109Y-51268700D01*
X123707070Y-51249015D01*
X123681960Y-51227673D01*
X123678054Y-51223335D01*
X123665619Y-51214300D01*
X123523552Y-51111082D01*
X123398041Y-51055201D01*
X123344804Y-51009951D01*
X123324483Y-50943102D01*
X123343528Y-50875879D01*
X123395894Y-50829623D01*
X123422697Y-50820632D01*
X123486384Y-50807095D01*
X123486384Y-50807094D01*
X123486388Y-50807094D01*
X123660852Y-50729418D01*
X123815353Y-50617166D01*
X123943140Y-50475244D01*
X124038627Y-50309856D01*
X124097642Y-50128228D01*
X124117604Y-49938300D01*
X124097642Y-49748372D01*
X124038627Y-49566744D01*
X123943140Y-49401356D01*
X123815353Y-49259434D01*
X123660852Y-49147182D01*
X123486388Y-49069506D01*
X123486386Y-49069505D01*
X123299587Y-49029800D01*
X123108613Y-49029800D01*
X122921814Y-49069505D01*
X122921812Y-49069506D01*
X122766961Y-49138450D01*
X122747346Y-49147183D01*
X122592845Y-49259435D01*
X122465059Y-49401357D01*
X122369573Y-49566743D01*
X122369570Y-49566750D01*
X122310559Y-49748368D01*
X122310558Y-49748372D01*
X122310211Y-49751675D01*
X122293119Y-49914296D01*
X122266534Y-49978910D01*
X122257479Y-49989015D01*
X121257848Y-50988648D01*
X120952667Y-51293829D01*
X120917655Y-51328841D01*
X120864426Y-51382069D01*
X120864425Y-51382071D01*
X120795101Y-51485821D01*
X120795100Y-51485824D01*
X120784846Y-51510579D01*
X120748856Y-51556237D01*
X120750073Y-51557589D01*
X120745245Y-51561935D01*
X120617459Y-51703857D01*
X120521973Y-51869243D01*
X120521970Y-51869250D01*
X120462959Y-52050868D01*
X120462958Y-52050872D01*
X120444932Y-52222384D01*
X120442996Y-52240800D01*
X120443652Y-52247038D01*
X120431083Y-52315768D01*
X120383351Y-52366792D01*
X120320331Y-52384000D01*
X120227698Y-52384000D01*
X120160659Y-52364315D01*
X120114904Y-52311511D01*
X120104960Y-52242353D01*
X120109767Y-52221681D01*
X120110142Y-52220528D01*
X120130104Y-52030600D01*
X120110142Y-51840672D01*
X120051127Y-51659044D01*
X119991771Y-51556237D01*
X119955641Y-51493657D01*
X119955636Y-51493650D01*
X119881950Y-51411813D01*
X119851720Y-51348821D01*
X119850100Y-51328841D01*
X119850100Y-50753966D01*
X119869785Y-50686927D01*
X119886419Y-50666285D01*
X122354667Y-48198037D01*
X126241500Y-48198037D01*
X126267240Y-48393541D01*
X126280144Y-48491557D01*
X126299421Y-48563501D01*
X126355945Y-48774456D01*
X126356769Y-48777529D01*
X126470067Y-49051052D01*
X126470070Y-49051059D01*
X126470071Y-49051060D01*
X126618096Y-49307447D01*
X126798324Y-49542326D01*
X126798330Y-49542333D01*
X127007666Y-49751669D01*
X127007673Y-49751675D01*
X127242552Y-49931903D01*
X127498939Y-50079928D01*
X127498940Y-50079929D01*
X127498943Y-50079930D01*
X127498948Y-50079933D01*
X127772471Y-50193231D01*
X128058443Y-50269856D01*
X128351970Y-50308500D01*
X128351977Y-50308500D01*
X128648023Y-50308500D01*
X128648030Y-50308500D01*
X128941557Y-50269856D01*
X129227529Y-50193231D01*
X129501052Y-50079933D01*
X129757448Y-49931903D01*
X129992328Y-49751674D01*
X130201674Y-49542328D01*
X130381903Y-49307448D01*
X130529933Y-49051052D01*
X130643231Y-48777529D01*
X130719856Y-48491557D01*
X130758499Y-48198037D01*
X143341500Y-48198037D01*
X143367240Y-48393541D01*
X143380144Y-48491557D01*
X143399421Y-48563501D01*
X143455945Y-48774456D01*
X143456769Y-48777529D01*
X143570067Y-49051052D01*
X143570070Y-49051059D01*
X143570071Y-49051060D01*
X143718096Y-49307447D01*
X143898324Y-49542326D01*
X143898330Y-49542333D01*
X144107666Y-49751669D01*
X144107673Y-49751675D01*
X144342552Y-49931903D01*
X144598939Y-50079928D01*
X144598940Y-50079929D01*
X144598943Y-50079930D01*
X144598948Y-50079933D01*
X144872471Y-50193231D01*
X145158443Y-50269856D01*
X145451970Y-50308500D01*
X145451977Y-50308500D01*
X145748023Y-50308500D01*
X145748030Y-50308500D01*
X146041557Y-50269856D01*
X146327529Y-50193231D01*
X146601052Y-50079933D01*
X146857448Y-49931903D01*
X147092328Y-49751674D01*
X147301674Y-49542328D01*
X147481903Y-49307448D01*
X147629933Y-49051052D01*
X147743231Y-48777529D01*
X147819856Y-48491557D01*
X147858499Y-48198037D01*
X154741500Y-48198037D01*
X154767240Y-48393541D01*
X154780144Y-48491557D01*
X154799421Y-48563501D01*
X154855945Y-48774456D01*
X154856769Y-48777529D01*
X154970067Y-49051052D01*
X154970070Y-49051059D01*
X154970071Y-49051060D01*
X155118096Y-49307447D01*
X155298324Y-49542326D01*
X155298330Y-49542333D01*
X155507666Y-49751669D01*
X155507673Y-49751675D01*
X155742552Y-49931903D01*
X155998939Y-50079928D01*
X155998940Y-50079929D01*
X155998943Y-50079930D01*
X155998948Y-50079933D01*
X156272471Y-50193231D01*
X156558443Y-50269856D01*
X156851970Y-50308500D01*
X156851977Y-50308500D01*
X157148023Y-50308500D01*
X157148030Y-50308500D01*
X157441557Y-50269856D01*
X157727529Y-50193231D01*
X158001052Y-50079933D01*
X158257448Y-49931903D01*
X158492328Y-49751674D01*
X158701674Y-49542328D01*
X158881903Y-49307448D01*
X159029933Y-49051052D01*
X159143231Y-48777529D01*
X159219856Y-48491557D01*
X159258500Y-48198030D01*
X159258500Y-45801970D01*
X159219856Y-45508443D01*
X159143231Y-45222471D01*
X159029933Y-44948948D01*
X159029930Y-44948943D01*
X159029929Y-44948940D01*
X159029928Y-44948939D01*
X158881903Y-44692552D01*
X158701675Y-44457673D01*
X158701669Y-44457666D01*
X158492333Y-44248330D01*
X158492326Y-44248324D01*
X158257447Y-44068096D01*
X158001060Y-43920071D01*
X158001059Y-43920070D01*
X157881320Y-43870472D01*
X157727529Y-43806769D01*
X157441557Y-43730144D01*
X157392503Y-43723685D01*
X157148037Y-43691500D01*
X157148030Y-43691500D01*
X156851970Y-43691500D01*
X156851962Y-43691500D01*
X156572571Y-43728283D01*
X156558443Y-43730144D01*
X156463119Y-43755685D01*
X156272477Y-43806767D01*
X156272473Y-43806768D01*
X156272471Y-43806769D01*
X156272464Y-43806772D01*
X155998940Y-43920070D01*
X155998939Y-43920071D01*
X155742552Y-44068096D01*
X155507673Y-44248324D01*
X155507666Y-44248330D01*
X155298330Y-44457666D01*
X155298324Y-44457673D01*
X155118096Y-44692552D01*
X154970071Y-44948939D01*
X154970070Y-44948940D01*
X154856772Y-45222464D01*
X154856767Y-45222477D01*
X154780145Y-45508440D01*
X154780143Y-45508451D01*
X154741500Y-45801962D01*
X154741500Y-48198037D01*
X147858499Y-48198037D01*
X147858500Y-48198030D01*
X147858500Y-45801970D01*
X147819856Y-45508443D01*
X147743231Y-45222471D01*
X147629933Y-44948948D01*
X147629930Y-44948943D01*
X147629929Y-44948940D01*
X147629928Y-44948939D01*
X147481903Y-44692552D01*
X147301675Y-44457673D01*
X147301669Y-44457666D01*
X147092333Y-44248330D01*
X147092326Y-44248324D01*
X146857447Y-44068096D01*
X146601060Y-43920071D01*
X146601059Y-43920070D01*
X146481320Y-43870472D01*
X146327529Y-43806769D01*
X146041557Y-43730144D01*
X145992503Y-43723685D01*
X145748037Y-43691500D01*
X145748030Y-43691500D01*
X145451970Y-43691500D01*
X145451962Y-43691500D01*
X145172571Y-43728283D01*
X145158443Y-43730144D01*
X145063119Y-43755685D01*
X144872477Y-43806767D01*
X144872473Y-43806768D01*
X144872471Y-43806769D01*
X144872464Y-43806772D01*
X144598940Y-43920070D01*
X144598939Y-43920071D01*
X144342552Y-44068096D01*
X144107673Y-44248324D01*
X144107666Y-44248330D01*
X143898330Y-44457666D01*
X143898324Y-44457673D01*
X143718096Y-44692552D01*
X143570071Y-44948939D01*
X143570070Y-44948940D01*
X143456772Y-45222464D01*
X143456767Y-45222477D01*
X143380145Y-45508440D01*
X143380143Y-45508451D01*
X143341500Y-45801962D01*
X143341500Y-48198037D01*
X130758499Y-48198037D01*
X130758500Y-48198030D01*
X130758500Y-45801970D01*
X130719856Y-45508443D01*
X130643231Y-45222471D01*
X130529933Y-44948948D01*
X130529930Y-44948943D01*
X130529929Y-44948940D01*
X130529928Y-44948939D01*
X130381903Y-44692552D01*
X130201675Y-44457673D01*
X130201669Y-44457666D01*
X129992333Y-44248330D01*
X129992326Y-44248324D01*
X129757447Y-44068096D01*
X129501060Y-43920071D01*
X129501059Y-43920070D01*
X129381320Y-43870472D01*
X129227529Y-43806769D01*
X128941557Y-43730144D01*
X128892503Y-43723685D01*
X128648037Y-43691500D01*
X128648030Y-43691500D01*
X128351970Y-43691500D01*
X128351962Y-43691500D01*
X128072571Y-43728283D01*
X128058443Y-43730144D01*
X127963119Y-43755685D01*
X127772477Y-43806767D01*
X127772473Y-43806768D01*
X127772471Y-43806769D01*
X127772464Y-43806772D01*
X127498940Y-43920070D01*
X127498939Y-43920071D01*
X127242552Y-44068096D01*
X127007673Y-44248324D01*
X127007666Y-44248330D01*
X126798330Y-44457666D01*
X126798324Y-44457673D01*
X126618096Y-44692552D01*
X126470071Y-44948939D01*
X126470070Y-44948940D01*
X126356772Y-45222464D01*
X126356767Y-45222477D01*
X126280145Y-45508440D01*
X126280143Y-45508451D01*
X126241500Y-45801962D01*
X126241500Y-48198037D01*
X122354667Y-48198037D01*
X122741385Y-47811319D01*
X122802708Y-47777834D01*
X122829066Y-47775000D01*
X122885787Y-47775000D01*
X123072588Y-47735294D01*
X123247052Y-47657618D01*
X123401553Y-47545366D01*
X123529340Y-47403444D01*
X123624827Y-47238056D01*
X123683842Y-47056428D01*
X123703804Y-46866500D01*
X123683842Y-46676572D01*
X123624827Y-46494944D01*
X123529340Y-46329556D01*
X123401553Y-46187634D01*
X123247052Y-46075382D01*
X123072588Y-45997706D01*
X123072586Y-45997705D01*
X122885787Y-45958000D01*
X122694813Y-45958000D01*
X122508014Y-45997705D01*
X122333546Y-46075383D01*
X122179045Y-46187635D01*
X122051259Y-46329557D01*
X121955773Y-46494943D01*
X121955770Y-46494950D01*
X121896759Y-46676568D01*
X121896758Y-46676572D01*
X121879319Y-46842496D01*
X121852734Y-46907110D01*
X121843679Y-46917215D01*
X119567014Y-49193882D01*
X118812767Y-49948129D01*
X118781986Y-49978910D01*
X118724527Y-50036368D01*
X118655203Y-50140118D01*
X118655198Y-50140127D01*
X118607445Y-50255414D01*
X118607443Y-50255422D01*
X118583100Y-50377801D01*
X118583100Y-51328841D01*
X118563415Y-51395880D01*
X118551250Y-51411813D01*
X118477563Y-51493650D01*
X118477558Y-51493657D01*
X118382073Y-51659043D01*
X118382070Y-51659050D01*
X118342144Y-51781931D01*
X118323058Y-51840672D01*
X118307663Y-51987149D01*
X118303096Y-52030600D01*
X118323058Y-52220529D01*
X118323433Y-52221681D01*
X118323453Y-52222384D01*
X118324410Y-52226887D01*
X118323586Y-52227061D01*
X118325428Y-52291522D01*
X118289348Y-52351355D01*
X118226647Y-52382184D01*
X118205502Y-52384000D01*
X116067332Y-52384000D01*
X116000293Y-52364315D01*
X115979651Y-52347681D01*
X113714818Y-50082847D01*
X113681333Y-50021524D01*
X113678499Y-49995166D01*
X113678499Y-48774462D01*
X113678498Y-48774446D01*
X113673647Y-48726963D01*
X113667887Y-48670574D01*
X113612115Y-48502262D01*
X113519030Y-48351348D01*
X113393652Y-48225970D01*
X113298848Y-48167494D01*
X113242740Y-48132886D01*
X113242735Y-48132884D01*
X113074427Y-48077113D01*
X112970545Y-48066500D01*
X111629462Y-48066500D01*
X111629446Y-48066501D01*
X111525572Y-48077113D01*
X111357264Y-48132884D01*
X111357259Y-48132886D01*
X111206346Y-48225971D01*
X111080969Y-48351348D01*
X110985852Y-48505556D01*
X110933904Y-48552280D01*
X110864941Y-48563501D01*
X110800859Y-48535658D01*
X110792633Y-48528139D01*
X110658035Y-48393541D01*
X110658033Y-48393539D01*
X110482492Y-48266001D01*
X110289160Y-48167494D01*
X110082800Y-48100443D01*
X110082798Y-48100442D01*
X110082796Y-48100442D01*
X109868495Y-48066500D01*
X109868490Y-48066500D01*
X109651510Y-48066500D01*
X109651505Y-48066500D01*
X109437203Y-48100442D01*
X109230837Y-48167495D01*
X109037507Y-48266001D01*
X108963084Y-48320073D01*
X108861967Y-48393539D01*
X108861965Y-48393541D01*
X108861964Y-48393541D01*
X108708541Y-48546964D01*
X108708541Y-48546965D01*
X108708539Y-48546967D01*
X108640071Y-48641205D01*
X108590318Y-48709684D01*
X108534988Y-48752349D01*
X108465374Y-48758328D01*
X108403579Y-48725722D01*
X108389682Y-48709684D01*
X108361265Y-48670572D01*
X108271461Y-48546967D01*
X108118033Y-48393539D01*
X107942492Y-48266001D01*
X107749160Y-48167494D01*
X107542800Y-48100443D01*
X107542798Y-48100442D01*
X107542796Y-48100442D01*
X107328495Y-48066500D01*
X107328490Y-48066500D01*
X107111510Y-48066500D01*
X107111505Y-48066500D01*
X106897203Y-48100442D01*
X106690837Y-48167495D01*
X106497507Y-48266001D01*
X106423084Y-48320073D01*
X106321967Y-48393539D01*
X106321965Y-48393541D01*
X106321964Y-48393541D01*
X106168541Y-48546964D01*
X106168541Y-48546965D01*
X106168539Y-48546967D01*
X106107104Y-48631523D01*
X106045064Y-48716915D01*
X105989734Y-48759580D01*
X105920120Y-48765559D01*
X105858325Y-48732953D01*
X105844428Y-48716915D01*
X105724974Y-48552503D01*
X105724974Y-48552502D01*
X105572497Y-48400025D01*
X105398036Y-48273271D01*
X105205899Y-48175372D01*
X105000805Y-48108733D01*
X104930000Y-48097518D01*
X104930000Y-49127290D01*
X104909661Y-49115548D01*
X104758333Y-49075000D01*
X104601667Y-49075000D01*
X104450339Y-49115548D01*
X104430000Y-49127290D01*
X104430000Y-48097518D01*
X104429999Y-48097518D01*
X104359194Y-48108733D01*
X104154100Y-48175372D01*
X103961963Y-48273271D01*
X103787503Y-48400025D01*
X103787502Y-48400025D01*
X103635025Y-48552502D01*
X103635025Y-48552503D01*
X103508271Y-48726963D01*
X103410372Y-48919098D01*
X103343734Y-49124190D01*
X103310000Y-49337179D01*
X103310000Y-49420000D01*
X104137291Y-49420000D01*
X104125548Y-49440339D01*
X104085000Y-49591667D01*
X104085000Y-49748333D01*
X104125548Y-49899661D01*
X104137291Y-49920000D01*
X103310000Y-49920000D01*
X103310000Y-50002820D01*
X103343734Y-50215809D01*
X103410372Y-50420901D01*
X103508271Y-50613036D01*
X103635025Y-50787496D01*
X103635025Y-50787497D01*
X103787502Y-50939974D01*
X103961963Y-51066728D01*
X104154098Y-51164627D01*
X104359190Y-51231266D01*
X104430000Y-51242481D01*
X104430000Y-50212709D01*
X104450339Y-50224452D01*
X104601667Y-50265000D01*
X104758333Y-50265000D01*
X104909661Y-50224452D01*
X104930000Y-50212709D01*
X104930000Y-51242480D01*
X105000809Y-51231266D01*
X105205901Y-51164627D01*
X105398036Y-51066728D01*
X105572496Y-50939974D01*
X105572497Y-50939974D01*
X105724974Y-50787497D01*
X105724979Y-50787491D01*
X105844428Y-50623085D01*
X105899758Y-50580419D01*
X105969371Y-50574440D01*
X106031166Y-50607046D01*
X106045062Y-50623082D01*
X106168539Y-50793033D01*
X106321967Y-50946461D01*
X106497508Y-51073999D01*
X106690840Y-51172506D01*
X106897200Y-51239557D01*
X106977566Y-51252285D01*
X107111505Y-51273500D01*
X107111510Y-51273500D01*
X107328495Y-51273500D01*
X107447551Y-51254642D01*
X107542800Y-51239557D01*
X107749160Y-51172506D01*
X107942492Y-51073999D01*
X108118033Y-50946461D01*
X108271461Y-50793033D01*
X108389682Y-50630316D01*
X108445012Y-50587650D01*
X108514625Y-50581671D01*
X108576420Y-50614277D01*
X108590318Y-50630316D01*
X108704516Y-50787496D01*
X108708539Y-50793033D01*
X108861967Y-50946461D01*
X109037508Y-51073999D01*
X109230840Y-51172506D01*
X109437200Y-51239557D01*
X109517566Y-51252285D01*
X109651505Y-51273500D01*
X109651510Y-51273500D01*
X109868495Y-51273500D01*
X109987551Y-51254642D01*
X110082800Y-51239557D01*
X110289160Y-51172506D01*
X110482492Y-51073999D01*
X110658033Y-50946461D01*
X110792636Y-50811857D01*
X110853955Y-50778375D01*
X110923647Y-50783359D01*
X110979581Y-50825230D01*
X110985852Y-50834444D01*
X111080967Y-50988648D01*
X111080970Y-50988652D01*
X111206348Y-51114030D01*
X111357262Y-51207115D01*
X111468727Y-51244050D01*
X111506504Y-51256568D01*
X111563949Y-51296340D01*
X111590772Y-51360856D01*
X111591500Y-51374274D01*
X111591500Y-51915167D01*
X111571815Y-51982206D01*
X111555181Y-52002848D01*
X108233045Y-55324983D01*
X108171722Y-55358468D01*
X108171145Y-55358592D01*
X108017714Y-55391205D01*
X107843243Y-55468884D01*
X107762129Y-55527818D01*
X107696323Y-55551298D01*
X107689244Y-55551500D01*
X99220214Y-55551500D01*
X99083345Y-55578725D01*
X99083337Y-55578727D01*
X99049665Y-55592675D01*
X99049664Y-55592675D01*
X98954403Y-55632132D01*
X98954401Y-55632133D01*
X98838358Y-55709671D01*
X98838354Y-55709674D01*
X98460216Y-56087812D01*
X98398893Y-56121297D01*
X98352125Y-56122439D01*
X98166712Y-56091500D01*
X98058205Y-56091500D01*
X97991166Y-56071815D01*
X97945411Y-56019011D01*
X97935467Y-55949853D01*
X97954397Y-55899678D01*
X97954903Y-55898902D01*
X97954906Y-55898900D01*
X98087109Y-55696549D01*
X98184203Y-55475197D01*
X98243539Y-55240884D01*
X98263499Y-55000000D01*
X98259908Y-54956665D01*
X98243539Y-54759119D01*
X98243539Y-54759116D01*
X98184203Y-54524803D01*
X98087109Y-54303451D01*
X97954906Y-54101100D01*
X97791201Y-53923269D01*
X97791196Y-53923265D01*
X97791194Y-53923263D01*
X97600466Y-53774813D01*
X97600460Y-53774809D01*
X97387882Y-53659767D01*
X97387873Y-53659764D01*
X97159271Y-53581284D01*
X96971793Y-53550000D01*
X96920855Y-53541500D01*
X96679145Y-53541500D01*
X96631462Y-53549456D01*
X96440728Y-53581284D01*
X96212126Y-53659764D01*
X96212117Y-53659767D01*
X95999539Y-53774809D01*
X95999533Y-53774813D01*
X95808805Y-53923263D01*
X95808802Y-53923266D01*
X95645094Y-54101099D01*
X95636590Y-54114116D01*
X95583442Y-54159471D01*
X95519992Y-54169630D01*
X95487311Y-54166240D01*
X94782962Y-54870588D01*
X94765925Y-54807007D01*
X94700099Y-54692993D01*
X94607007Y-54599901D01*
X94492993Y-54534075D01*
X94429407Y-54517037D01*
X95134426Y-53812019D01*
X95134426Y-53812017D01*
X95095801Y-53781954D01*
X95095795Y-53781950D01*
X94884455Y-53667578D01*
X94884449Y-53667576D01*
X94657176Y-53589553D01*
X94422732Y-53550431D01*
X94359847Y-53519980D01*
X94323407Y-53460365D01*
X94324983Y-53390513D01*
X94355459Y-53340443D01*
X94608770Y-53087132D01*
X94670091Y-53053649D01*
X94739783Y-53058633D01*
X94748411Y-53062697D01*
X94748511Y-53062474D01*
X94754445Y-53065116D01*
X94754448Y-53065118D01*
X94928912Y-53142794D01*
X95115713Y-53182500D01*
X95306687Y-53182500D01*
X95493488Y-53142794D01*
X95667952Y-53065118D01*
X95822453Y-52952866D01*
X95950240Y-52810944D01*
X96045727Y-52645556D01*
X96104742Y-52463928D01*
X96124704Y-52274000D01*
X96104742Y-52084072D01*
X96045727Y-51902444D01*
X95950240Y-51737056D01*
X95822453Y-51595134D01*
X95667952Y-51482882D01*
X95493488Y-51405206D01*
X95493486Y-51405205D01*
X95306687Y-51365500D01*
X95115713Y-51365500D01*
X94928914Y-51405205D01*
X94754446Y-51482883D01*
X94599945Y-51595135D01*
X94596040Y-51599473D01*
X94536554Y-51636121D01*
X94503891Y-51640500D01*
X94463601Y-51640500D01*
X94341222Y-51664843D01*
X94341214Y-51664845D01*
X94225927Y-51712598D01*
X94225918Y-51712603D01*
X94122167Y-51781928D01*
X94122163Y-51781931D01*
X92335748Y-53568346D01*
X92274425Y-53601831D01*
X92207804Y-53597946D01*
X92159271Y-53581284D01*
X91971793Y-53550000D01*
X91920855Y-53541500D01*
X91679145Y-53541500D01*
X91631462Y-53549456D01*
X91440728Y-53581284D01*
X91212126Y-53659764D01*
X91212117Y-53659767D01*
X90999539Y-53774809D01*
X90999533Y-53774813D01*
X90808805Y-53923263D01*
X90808802Y-53923266D01*
X90645095Y-54101098D01*
X90645092Y-54101102D01*
X90512891Y-54303449D01*
X90415797Y-54524802D01*
X90356460Y-54759119D01*
X90336501Y-54999994D01*
X90336501Y-55000005D01*
X90356460Y-55240880D01*
X90415797Y-55475197D01*
X90512891Y-55696550D01*
X90576707Y-55794226D01*
X90645094Y-55898900D01*
X90645096Y-55898902D01*
X90645603Y-55899678D01*
X90665791Y-55966567D01*
X90646612Y-56033753D01*
X90594153Y-56079904D01*
X90541795Y-56091500D01*
X90433288Y-56091500D01*
X90387240Y-56099184D01*
X90203045Y-56129920D01*
X89982280Y-56205710D01*
X89982266Y-56205716D01*
X89776988Y-56316806D01*
X89776985Y-56316808D01*
X89592781Y-56460181D01*
X89592776Y-56460185D01*
X89434686Y-56631915D01*
X89307015Y-56827331D01*
X89213251Y-57041092D01*
X89155948Y-57267377D01*
X89136673Y-57499994D01*
X89136673Y-57500005D01*
X89155948Y-57732622D01*
X89213251Y-57958907D01*
X89307015Y-58172668D01*
X89434686Y-58368084D01*
X89592776Y-58539814D01*
X89592780Y-58539818D01*
X89776983Y-58683190D01*
X89776985Y-58683191D01*
X89776988Y-58683193D01*
X89896331Y-58747777D01*
X89982273Y-58794287D01*
X90030330Y-58810785D01*
X90203045Y-58870079D01*
X90203047Y-58870079D01*
X90203049Y-58870080D01*
X90433288Y-58908500D01*
X90433289Y-58908500D01*
X90666711Y-58908500D01*
X90666712Y-58908500D01*
X90896951Y-58870080D01*
X91117727Y-58794287D01*
X91323017Y-58683190D01*
X91507220Y-58539818D01*
X91665314Y-58368083D01*
X91701267Y-58313053D01*
X91754412Y-58267695D01*
X91823644Y-58258271D01*
X91886980Y-58287772D01*
X91895200Y-58297258D01*
X91898811Y-58297633D01*
X92567036Y-57629407D01*
X92584075Y-57692993D01*
X92649901Y-57807007D01*
X92742993Y-57900099D01*
X92857007Y-57965925D01*
X92920590Y-57982962D01*
X92251201Y-58652351D01*
X92281649Y-58676050D01*
X92485697Y-58786476D01*
X92485706Y-58786479D01*
X92705139Y-58861811D01*
X92933993Y-58900000D01*
X93166007Y-58900000D01*
X93394860Y-58861811D01*
X93614293Y-58786479D01*
X93614301Y-58786476D01*
X93818355Y-58676047D01*
X93848797Y-58652351D01*
X93848798Y-58652350D01*
X93179410Y-57982962D01*
X93242993Y-57965925D01*
X93357007Y-57900099D01*
X93450099Y-57807007D01*
X93515925Y-57692993D01*
X93532962Y-57629409D01*
X94201186Y-58297633D01*
X94210283Y-58296689D01*
X94244259Y-58267694D01*
X94313491Y-58258270D01*
X94376826Y-58287772D01*
X94398730Y-58313050D01*
X94434684Y-58368081D01*
X94434686Y-58368083D01*
X94592780Y-58539818D01*
X94776983Y-58683190D01*
X94776985Y-58683191D01*
X94776988Y-58683193D01*
X94896331Y-58747777D01*
X94982273Y-58794287D01*
X95030330Y-58810785D01*
X95203045Y-58870079D01*
X95203047Y-58870079D01*
X95203049Y-58870080D01*
X95433288Y-58908500D01*
X95433289Y-58908500D01*
X95666711Y-58908500D01*
X95666712Y-58908500D01*
X95896951Y-58870080D01*
X96117727Y-58794287D01*
X96323017Y-58683190D01*
X96507220Y-58539818D01*
X96665314Y-58368083D01*
X96696191Y-58320821D01*
X96749337Y-58275465D01*
X96818568Y-58266041D01*
X96881904Y-58295542D01*
X96903809Y-58320822D01*
X96934686Y-58368084D01*
X97092776Y-58539814D01*
X97092780Y-58539818D01*
X97276983Y-58683190D01*
X97276985Y-58683191D01*
X97276988Y-58683193D01*
X97396331Y-58747777D01*
X97482273Y-58794287D01*
X97530330Y-58810785D01*
X97703045Y-58870079D01*
X97703047Y-58870079D01*
X97703049Y-58870080D01*
X97933288Y-58908500D01*
X97933289Y-58908500D01*
X98166711Y-58908500D01*
X98166712Y-58908500D01*
X98396951Y-58870080D01*
X98617727Y-58794287D01*
X98823017Y-58683190D01*
X99007220Y-58539818D01*
X99165314Y-58368083D01*
X99292984Y-58172669D01*
X99386749Y-57958907D01*
X99444051Y-57732626D01*
X99457224Y-57573658D01*
X99463327Y-57500005D01*
X99463327Y-57499994D01*
X99444052Y-57267382D01*
X99444049Y-57267365D01*
X99429127Y-57208441D01*
X99431751Y-57138620D01*
X99461648Y-57090320D01*
X99547152Y-57004817D01*
X99608475Y-56971334D01*
X99634832Y-56968500D01*
X107689244Y-56968500D01*
X107756283Y-56988185D01*
X107762129Y-56992182D01*
X107843243Y-57051115D01*
X107843245Y-57051116D01*
X107843248Y-57051118D01*
X108017712Y-57128794D01*
X108204513Y-57168500D01*
X108395487Y-57168500D01*
X108582288Y-57128794D01*
X108756752Y-57051118D01*
X108911253Y-56938866D01*
X109039040Y-56796944D01*
X109046744Y-56783600D01*
X113090696Y-56783600D01*
X113110658Y-56973528D01*
X113110659Y-56973531D01*
X113169670Y-57155149D01*
X113169673Y-57155156D01*
X113265160Y-57320544D01*
X113338849Y-57402384D01*
X113369080Y-57465375D01*
X113370700Y-57485356D01*
X113370700Y-59752398D01*
X113395043Y-59874777D01*
X113395045Y-59874785D01*
X113442798Y-59990072D01*
X113442803Y-59990081D01*
X113512128Y-60093832D01*
X113512131Y-60093836D01*
X114796179Y-61377884D01*
X114829664Y-61439207D01*
X114831818Y-61452599D01*
X114849258Y-61618528D01*
X114849259Y-61618531D01*
X114908270Y-61800149D01*
X114908273Y-61800156D01*
X115003760Y-61965544D01*
X115131547Y-62107466D01*
X115286048Y-62219718D01*
X115460512Y-62297394D01*
X115647313Y-62337100D01*
X115838287Y-62337100D01*
X116025088Y-62297394D01*
X116199552Y-62219718D01*
X116354053Y-62107466D01*
X116481840Y-61965544D01*
X116577327Y-61800156D01*
X116636342Y-61618528D01*
X116656304Y-61428600D01*
X116636342Y-61238672D01*
X116577327Y-61057044D01*
X116481840Y-60891656D01*
X116354053Y-60749734D01*
X116199552Y-60637482D01*
X116025088Y-60559806D01*
X116025086Y-60559805D01*
X115838287Y-60520100D01*
X115781567Y-60520100D01*
X115714528Y-60500415D01*
X115693886Y-60483781D01*
X114674019Y-59463914D01*
X114640534Y-59402591D01*
X114637700Y-59376233D01*
X114637700Y-57485356D01*
X114657385Y-57418317D01*
X114669546Y-57402388D01*
X114743240Y-57320544D01*
X114838727Y-57155156D01*
X114897742Y-56973528D01*
X114917704Y-56783600D01*
X114897742Y-56593672D01*
X114838727Y-56412044D01*
X114743240Y-56246656D01*
X114615453Y-56104734D01*
X114460952Y-55992482D01*
X114286488Y-55914806D01*
X114286486Y-55914805D01*
X114099687Y-55875100D01*
X113908713Y-55875100D01*
X113721914Y-55914805D01*
X113547446Y-55992483D01*
X113392945Y-56104735D01*
X113265159Y-56246657D01*
X113169673Y-56412043D01*
X113169670Y-56412050D01*
X113110659Y-56593668D01*
X113110658Y-56593672D01*
X113090696Y-56783600D01*
X109046744Y-56783600D01*
X109134527Y-56631556D01*
X109193542Y-56449928D01*
X109198523Y-56402527D01*
X109225105Y-56337913D01*
X109234154Y-56327815D01*
X112850328Y-52711643D01*
X112927865Y-52595601D01*
X112927868Y-52595594D01*
X112965858Y-52503876D01*
X112965859Y-52503873D01*
X112981271Y-52466666D01*
X112981273Y-52466662D01*
X113008500Y-52329781D01*
X113008500Y-51679832D01*
X113028185Y-51612793D01*
X113080989Y-51567038D01*
X113150147Y-51557094D01*
X113213703Y-51586119D01*
X113220181Y-51592151D01*
X115270854Y-53642825D01*
X115270858Y-53642828D01*
X115386899Y-53720365D01*
X115460121Y-53750694D01*
X115515838Y-53773773D01*
X115652714Y-53800999D01*
X115652718Y-53801000D01*
X115652719Y-53801000D01*
X119138664Y-53801000D01*
X119205703Y-53820685D01*
X119251458Y-53873489D01*
X119261402Y-53942647D01*
X119232377Y-54006203D01*
X119229894Y-54008983D01*
X119145095Y-54101098D01*
X119145092Y-54101102D01*
X119012891Y-54303449D01*
X118915797Y-54524802D01*
X118856460Y-54759119D01*
X118836501Y-54999994D01*
X118836501Y-55000005D01*
X118856460Y-55240880D01*
X118915797Y-55475197D01*
X119012891Y-55696550D01*
X119076707Y-55794226D01*
X119145094Y-55898900D01*
X119145096Y-55898902D01*
X119145603Y-55899678D01*
X119165791Y-55966567D01*
X119146612Y-56033753D01*
X119094153Y-56079904D01*
X119041795Y-56091500D01*
X118933288Y-56091500D01*
X118887240Y-56099184D01*
X118703045Y-56129920D01*
X118482280Y-56205710D01*
X118482266Y-56205716D01*
X118276988Y-56316806D01*
X118276985Y-56316808D01*
X118092781Y-56460181D01*
X118092776Y-56460185D01*
X117934686Y-56631915D01*
X117807015Y-56827331D01*
X117713251Y-57041092D01*
X117655948Y-57267377D01*
X117636673Y-57499994D01*
X117636673Y-57500005D01*
X117655948Y-57732622D01*
X117713251Y-57958907D01*
X117807015Y-58172668D01*
X117934686Y-58368084D01*
X118092776Y-58539814D01*
X118092780Y-58539818D01*
X118276983Y-58683190D01*
X118276985Y-58683191D01*
X118276988Y-58683193D01*
X118396331Y-58747777D01*
X118482273Y-58794287D01*
X118530330Y-58810785D01*
X118703045Y-58870079D01*
X118703047Y-58870079D01*
X118703049Y-58870080D01*
X118933288Y-58908500D01*
X118933289Y-58908500D01*
X119166711Y-58908500D01*
X119166712Y-58908500D01*
X119396951Y-58870080D01*
X119617727Y-58794287D01*
X119823017Y-58683190D01*
X120007220Y-58539818D01*
X120165314Y-58368083D01*
X120201267Y-58313053D01*
X120254412Y-58267695D01*
X120323644Y-58258271D01*
X120386980Y-58287772D01*
X120395200Y-58297258D01*
X120398811Y-58297633D01*
X121067036Y-57629407D01*
X121084075Y-57692993D01*
X121149901Y-57807007D01*
X121242993Y-57900099D01*
X121357007Y-57965925D01*
X121420590Y-57982962D01*
X120751201Y-58652351D01*
X120781649Y-58676050D01*
X120985697Y-58786476D01*
X120985706Y-58786479D01*
X121205139Y-58861811D01*
X121433993Y-58900000D01*
X121666007Y-58900000D01*
X121894860Y-58861811D01*
X122114293Y-58786479D01*
X122114301Y-58786476D01*
X122318355Y-58676047D01*
X122348797Y-58652351D01*
X122348798Y-58652350D01*
X121679410Y-57982962D01*
X121742993Y-57965925D01*
X121857007Y-57900099D01*
X121950099Y-57807007D01*
X122015925Y-57692993D01*
X122032962Y-57629409D01*
X122701186Y-58297633D01*
X122710283Y-58296689D01*
X122744259Y-58267694D01*
X122813491Y-58258270D01*
X122876826Y-58287772D01*
X122898730Y-58313050D01*
X122934684Y-58368081D01*
X122934686Y-58368083D01*
X123092780Y-58539818D01*
X123276983Y-58683190D01*
X123276985Y-58683191D01*
X123276988Y-58683193D01*
X123396331Y-58747777D01*
X123482273Y-58794287D01*
X123530330Y-58810785D01*
X123703045Y-58870079D01*
X123703047Y-58870079D01*
X123703049Y-58870080D01*
X123933288Y-58908500D01*
X123933289Y-58908500D01*
X124166711Y-58908500D01*
X124166712Y-58908500D01*
X124396951Y-58870080D01*
X124617727Y-58794287D01*
X124823017Y-58683190D01*
X125007220Y-58539818D01*
X125165314Y-58368083D01*
X125196191Y-58320821D01*
X125249337Y-58275465D01*
X125318568Y-58266041D01*
X125381904Y-58295542D01*
X125403809Y-58320822D01*
X125434686Y-58368084D01*
X125592776Y-58539814D01*
X125592780Y-58539818D01*
X125776983Y-58683190D01*
X125776985Y-58683191D01*
X125776988Y-58683193D01*
X125896331Y-58747777D01*
X125982273Y-58794287D01*
X126030330Y-58810785D01*
X126203045Y-58870079D01*
X126203047Y-58870079D01*
X126203049Y-58870080D01*
X126433288Y-58908500D01*
X126433289Y-58908500D01*
X126666711Y-58908500D01*
X126666712Y-58908500D01*
X126896951Y-58870080D01*
X126983449Y-58840385D01*
X127069671Y-58810785D01*
X127139469Y-58807635D01*
X127197615Y-58840385D01*
X127443054Y-59085825D01*
X127443058Y-59085828D01*
X127559100Y-59163365D01*
X127634630Y-59194650D01*
X127688038Y-59216773D01*
X127824914Y-59243999D01*
X127824918Y-59244000D01*
X127824919Y-59244000D01*
X130370144Y-59244000D01*
X130437183Y-59263685D01*
X130443029Y-59267682D01*
X130524143Y-59326615D01*
X130524145Y-59326616D01*
X130524148Y-59326618D01*
X130698612Y-59404294D01*
X130885413Y-59444000D01*
X130885415Y-59444000D01*
X130889442Y-59444856D01*
X130932553Y-59463044D01*
X130969999Y-59488065D01*
X130970001Y-59488066D01*
X130970005Y-59488068D01*
X131061167Y-59525828D01*
X131061172Y-59525830D01*
X131098938Y-59541473D01*
X131134454Y-59548537D01*
X131167330Y-59555077D01*
X131167354Y-59555081D01*
X131167378Y-59555086D01*
X131218708Y-59565296D01*
X131235817Y-59568700D01*
X134918324Y-59568700D01*
X134985363Y-59588385D01*
X135031118Y-59641189D01*
X135041062Y-59710347D01*
X135012037Y-59773903D01*
X134991209Y-59793018D01*
X134938748Y-59831132D01*
X134938746Y-59831134D01*
X134810959Y-59973057D01*
X134715473Y-60138443D01*
X134715470Y-60138450D01*
X134663470Y-60298491D01*
X134656458Y-60320072D01*
X134648078Y-60399806D01*
X134639019Y-60485996D01*
X134612434Y-60550610D01*
X134603379Y-60560715D01*
X130097015Y-65067081D01*
X130035692Y-65100566D01*
X130009334Y-65103400D01*
X115208509Y-65103400D01*
X115141470Y-65083715D01*
X115116360Y-65062373D01*
X115112454Y-65058035D01*
X115099466Y-65048598D01*
X114957952Y-64945782D01*
X114783488Y-64868106D01*
X114783486Y-64868105D01*
X114596687Y-64828400D01*
X114405713Y-64828400D01*
X114218914Y-64868105D01*
X114218912Y-64868106D01*
X114079123Y-64930344D01*
X114044446Y-64945783D01*
X113889945Y-65058035D01*
X113762159Y-65199957D01*
X113666673Y-65365343D01*
X113666670Y-65365350D01*
X113607659Y-65546968D01*
X113607658Y-65546972D01*
X113587696Y-65736900D01*
X113607658Y-65926828D01*
X113607659Y-65926831D01*
X113666670Y-66108449D01*
X113666673Y-66108456D01*
X113762160Y-66273844D01*
X113889947Y-66415766D01*
X114044448Y-66528018D01*
X114218912Y-66605694D01*
X114405713Y-66645400D01*
X114596687Y-66645400D01*
X114783488Y-66605694D01*
X114957952Y-66528018D01*
X115112453Y-66415766D01*
X115116360Y-66411427D01*
X115175846Y-66374779D01*
X115208509Y-66370400D01*
X129236234Y-66370400D01*
X129303273Y-66390085D01*
X129323915Y-66406719D01*
X133582014Y-70664819D01*
X133615499Y-70726142D01*
X133610515Y-70795834D01*
X133568643Y-70851767D01*
X133503179Y-70876184D01*
X133494333Y-70876500D01*
X118150850Y-70876500D01*
X118083811Y-70856815D01*
X118063169Y-70840181D01*
X117365920Y-70142931D01*
X117365916Y-70142928D01*
X117262165Y-70073603D01*
X117262156Y-70073598D01*
X117146869Y-70025845D01*
X117146861Y-70025843D01*
X117024482Y-70001500D01*
X117024478Y-70001500D01*
X113738766Y-70001500D01*
X113671727Y-69981815D01*
X113651085Y-69965181D01*
X112685909Y-69000005D01*
X118895202Y-69000005D01*
X118914361Y-69231218D01*
X118971317Y-69456135D01*
X119064515Y-69668606D01*
X119148812Y-69797633D01*
X119817037Y-69129408D01*
X119834075Y-69192993D01*
X119899901Y-69307007D01*
X119992993Y-69400099D01*
X120107007Y-69465925D01*
X120170590Y-69482962D01*
X119501201Y-70152351D01*
X119531649Y-70176050D01*
X119735697Y-70286476D01*
X119735706Y-70286479D01*
X119955139Y-70361811D01*
X120183993Y-70400000D01*
X120416007Y-70400000D01*
X120644860Y-70361811D01*
X120864293Y-70286479D01*
X120864301Y-70286476D01*
X121068355Y-70176047D01*
X121098797Y-70152351D01*
X121098798Y-70152350D01*
X120429410Y-69482962D01*
X120492993Y-69465925D01*
X120607007Y-69400099D01*
X120700099Y-69307007D01*
X120765925Y-69192993D01*
X120782962Y-69129409D01*
X121451186Y-69797633D01*
X121535482Y-69668611D01*
X121628682Y-69456135D01*
X121685638Y-69231218D01*
X121704798Y-69000005D01*
X123886673Y-69000005D01*
X123905948Y-69232622D01*
X123963251Y-69458907D01*
X124057015Y-69672668D01*
X124184686Y-69868084D01*
X124341019Y-70037905D01*
X124342780Y-70039818D01*
X124526983Y-70183190D01*
X124526985Y-70183191D01*
X124526988Y-70183193D01*
X124588562Y-70216515D01*
X124732273Y-70294287D01*
X124844329Y-70332756D01*
X124953045Y-70370079D01*
X124953047Y-70370079D01*
X124953049Y-70370080D01*
X125183288Y-70408500D01*
X125183289Y-70408500D01*
X125416711Y-70408500D01*
X125416712Y-70408500D01*
X125646951Y-70370080D01*
X125867727Y-70294287D01*
X126073017Y-70183190D01*
X126257220Y-70039818D01*
X126415314Y-69868083D01*
X126542984Y-69672669D01*
X126636749Y-69458907D01*
X126694051Y-69232626D01*
X126706982Y-69076572D01*
X126713327Y-69000005D01*
X126713327Y-68999994D01*
X126694227Y-68769503D01*
X126694051Y-68767374D01*
X126636749Y-68541093D01*
X126542984Y-68327331D01*
X126456386Y-68194782D01*
X126415313Y-68131915D01*
X126257223Y-67960185D01*
X126257222Y-67960184D01*
X126257220Y-67960182D01*
X126073017Y-67816810D01*
X126073015Y-67816809D01*
X126073014Y-67816808D01*
X126073011Y-67816806D01*
X125867733Y-67705716D01*
X125867730Y-67705715D01*
X125867727Y-67705713D01*
X125867721Y-67705711D01*
X125867719Y-67705710D01*
X125646954Y-67629920D01*
X125467650Y-67600000D01*
X125416712Y-67591500D01*
X125183288Y-67591500D01*
X125137240Y-67599184D01*
X124953045Y-67629920D01*
X124732280Y-67705710D01*
X124732266Y-67705716D01*
X124526988Y-67816806D01*
X124526985Y-67816808D01*
X124342781Y-67960181D01*
X124342776Y-67960185D01*
X124184686Y-68131915D01*
X124057015Y-68327331D01*
X123963251Y-68541092D01*
X123905948Y-68767377D01*
X123886673Y-68999994D01*
X123886673Y-69000005D01*
X121704798Y-69000005D01*
X121704798Y-68999994D01*
X121685638Y-68768781D01*
X121628682Y-68543864D01*
X121535484Y-68331393D01*
X121451186Y-68202365D01*
X120782962Y-68870589D01*
X120765925Y-68807007D01*
X120700099Y-68692993D01*
X120607007Y-68599901D01*
X120492993Y-68534075D01*
X120429409Y-68517037D01*
X121098797Y-67847647D01*
X121098797Y-67847645D01*
X121068360Y-67823955D01*
X121068354Y-67823951D01*
X120864302Y-67713523D01*
X120864293Y-67713520D01*
X120644860Y-67638188D01*
X120416007Y-67600000D01*
X120183993Y-67600000D01*
X119955139Y-67638188D01*
X119735706Y-67713520D01*
X119735697Y-67713523D01*
X119531650Y-67823949D01*
X119501200Y-67847647D01*
X120170591Y-68517037D01*
X120107007Y-68534075D01*
X119992993Y-68599901D01*
X119899901Y-68692993D01*
X119834075Y-68807007D01*
X119817037Y-68870591D01*
X119148811Y-68202365D01*
X119064516Y-68331390D01*
X118971317Y-68543864D01*
X118914361Y-68768781D01*
X118895202Y-68999994D01*
X118895202Y-69000005D01*
X112685909Y-69000005D01*
X111496620Y-67810716D01*
X111463135Y-67749393D01*
X111460983Y-67736015D01*
X111443542Y-67570072D01*
X111384527Y-67388444D01*
X111289040Y-67223056D01*
X111161253Y-67081134D01*
X111006752Y-66968882D01*
X110832288Y-66891206D01*
X110832286Y-66891205D01*
X110645487Y-66851500D01*
X110454513Y-66851500D01*
X110454512Y-66851500D01*
X110333280Y-66877268D01*
X110263613Y-66871952D01*
X110207880Y-66829815D01*
X110183775Y-66764235D01*
X110183500Y-66755978D01*
X110183500Y-64123938D01*
X110203185Y-64056899D01*
X110234615Y-64023620D01*
X110245197Y-64015932D01*
X110386011Y-63913624D01*
X110513798Y-63771702D01*
X110609285Y-63606314D01*
X110668300Y-63424686D01*
X110688262Y-63234758D01*
X110668300Y-63044830D01*
X110609285Y-62863202D01*
X110513798Y-62697814D01*
X110401969Y-62573615D01*
X110371740Y-62510626D01*
X110380365Y-62441291D01*
X110406436Y-62402967D01*
X110927835Y-61881569D01*
X110989158Y-61848084D01*
X111015516Y-61845250D01*
X111170487Y-61845250D01*
X111357288Y-61805544D01*
X111531752Y-61727868D01*
X111686253Y-61615616D01*
X111814040Y-61473694D01*
X111909527Y-61308306D01*
X111968542Y-61126678D01*
X111988504Y-60936750D01*
X111968542Y-60746822D01*
X111909527Y-60565194D01*
X111814040Y-60399806D01*
X111686253Y-60257884D01*
X111531752Y-60145632D01*
X111357288Y-60067956D01*
X111357286Y-60067955D01*
X111170487Y-60028250D01*
X110979513Y-60028250D01*
X110792714Y-60067955D01*
X110618246Y-60145633D01*
X110463745Y-60257885D01*
X110335959Y-60399807D01*
X110240473Y-60565193D01*
X110240470Y-60565200D01*
X110181459Y-60746817D01*
X110181458Y-60746819D01*
X110175558Y-60802957D01*
X110148972Y-60867571D01*
X110139918Y-60877675D01*
X107312828Y-63704768D01*
X106832067Y-64185529D01*
X106787947Y-64229649D01*
X106743827Y-64273768D01*
X106674503Y-64377518D01*
X106674498Y-64377527D01*
X106626745Y-64492814D01*
X106626743Y-64492822D01*
X106602400Y-64615201D01*
X106602400Y-67856941D01*
X106582715Y-67923980D01*
X106570550Y-67939913D01*
X106496863Y-68021750D01*
X106496858Y-68021757D01*
X106401373Y-68187143D01*
X106401370Y-68187150D01*
X106346774Y-68355181D01*
X106342358Y-68368772D01*
X106322396Y-68558700D01*
X106342358Y-68748628D01*
X106342359Y-68748631D01*
X106401370Y-68930249D01*
X106401373Y-68930256D01*
X106496860Y-69095644D01*
X106624647Y-69237566D01*
X106779148Y-69349818D01*
X106953612Y-69427494D01*
X107140413Y-69467200D01*
X107331387Y-69467200D01*
X107518188Y-69427494D01*
X107692652Y-69349818D01*
X107847153Y-69237566D01*
X107945687Y-69128132D01*
X108005171Y-69091485D01*
X108075028Y-69092815D01*
X108133077Y-69131702D01*
X108160887Y-69195798D01*
X108161155Y-69224065D01*
X108156696Y-69266500D01*
X108176658Y-69456428D01*
X108176659Y-69456431D01*
X108235670Y-69638049D01*
X108235673Y-69638056D01*
X108331160Y-69803444D01*
X108458947Y-69945366D01*
X108613448Y-70057618D01*
X108787912Y-70135294D01*
X108974713Y-70175000D01*
X109165687Y-70175000D01*
X109352488Y-70135294D01*
X109526952Y-70057618D01*
X109681453Y-69945366D01*
X109809240Y-69803444D01*
X109904727Y-69638056D01*
X109963742Y-69456428D01*
X109981181Y-69290500D01*
X110007764Y-69225889D01*
X110016807Y-69215797D01*
X110042072Y-69190533D01*
X110111401Y-69086775D01*
X110131980Y-69037090D01*
X110159155Y-68971485D01*
X110159156Y-68971481D01*
X110160937Y-68962531D01*
X110183499Y-68849098D01*
X110183500Y-68849095D01*
X110183500Y-68764021D01*
X110203185Y-68696982D01*
X110255989Y-68651227D01*
X110325147Y-68641283D01*
X110333275Y-68642729D01*
X110454513Y-68668500D01*
X110511234Y-68668500D01*
X110578273Y-68688185D01*
X110598915Y-68704819D01*
X113021163Y-71127068D01*
X113021167Y-71127071D01*
X113124918Y-71196396D01*
X113124924Y-71196399D01*
X113124925Y-71196400D01*
X113240215Y-71244155D01*
X113362601Y-71268499D01*
X113362605Y-71268500D01*
X113362606Y-71268500D01*
X113487394Y-71268500D01*
X116648318Y-71268500D01*
X116715357Y-71288185D01*
X116735999Y-71304819D01*
X117345013Y-71913833D01*
X117396596Y-71965416D01*
X117421181Y-71990001D01*
X117454665Y-72051325D01*
X117449680Y-72121016D01*
X117407809Y-72176950D01*
X117342344Y-72201366D01*
X117317314Y-72200621D01*
X117248040Y-72191501D01*
X117248035Y-72191500D01*
X117248030Y-72191500D01*
X116951970Y-72191500D01*
X116951962Y-72191500D01*
X116672571Y-72228283D01*
X116658443Y-72230144D01*
X116563119Y-72255685D01*
X116372477Y-72306767D01*
X116372473Y-72306768D01*
X116372471Y-72306769D01*
X116372464Y-72306772D01*
X116098940Y-72420070D01*
X116098939Y-72420071D01*
X115842552Y-72568096D01*
X115607673Y-72748324D01*
X115607666Y-72748330D01*
X115398330Y-72957666D01*
X115398324Y-72957673D01*
X115218096Y-73192552D01*
X115070071Y-73448939D01*
X115070070Y-73448940D01*
X114956772Y-73722464D01*
X114956767Y-73722477D01*
X114880145Y-74008440D01*
X114880143Y-74008451D01*
X114841500Y-74301962D01*
X114841500Y-76698037D01*
X114868590Y-76903795D01*
X114880144Y-76991557D01*
X114956769Y-77277529D01*
X115068393Y-77547010D01*
X115070070Y-77551059D01*
X115070071Y-77551060D01*
X115218096Y-77807447D01*
X115398324Y-78042326D01*
X115398330Y-78042333D01*
X115607666Y-78251669D01*
X115607673Y-78251675D01*
X115842552Y-78431903D01*
X116098939Y-78579928D01*
X116098938Y-78579928D01*
X116098942Y-78579929D01*
X116098948Y-78579933D01*
X116372471Y-78693231D01*
X116658443Y-78769856D01*
X116951970Y-78808500D01*
X116951977Y-78808500D01*
X117248023Y-78808500D01*
X117248030Y-78808500D01*
X117541557Y-78769856D01*
X117827529Y-78693231D01*
X118101052Y-78579933D01*
X118101057Y-78579929D01*
X118101062Y-78579928D01*
X118261684Y-78487192D01*
X118357448Y-78431903D01*
X118592328Y-78251674D01*
X118801674Y-78042328D01*
X118981903Y-77807448D01*
X119129933Y-77551052D01*
X119243231Y-77277529D01*
X119319856Y-76991557D01*
X119358500Y-76698030D01*
X119358500Y-74301970D01*
X119319856Y-74008443D01*
X119243231Y-73722471D01*
X119129933Y-73448948D01*
X119129930Y-73448943D01*
X119129929Y-73448940D01*
X119129928Y-73448939D01*
X118981903Y-73192552D01*
X118801675Y-72957673D01*
X118801669Y-72957666D01*
X118592333Y-72748330D01*
X118592326Y-72748324D01*
X118357447Y-72568096D01*
X118101060Y-72420071D01*
X118101059Y-72420070D01*
X118094075Y-72417177D01*
X118009295Y-72382059D01*
X117954893Y-72338220D01*
X117932829Y-72271925D01*
X117950109Y-72204226D01*
X118001246Y-72156616D01*
X118056750Y-72143500D01*
X127543250Y-72143500D01*
X127610289Y-72163185D01*
X127656044Y-72215989D01*
X127665988Y-72285147D01*
X127636963Y-72348703D01*
X127590704Y-72382059D01*
X127533377Y-72405805D01*
X127498940Y-72420070D01*
X127498939Y-72420071D01*
X127242552Y-72568096D01*
X127007673Y-72748324D01*
X127007666Y-72748330D01*
X126798330Y-72957666D01*
X126798324Y-72957673D01*
X126618096Y-73192552D01*
X126470071Y-73448939D01*
X126470070Y-73448940D01*
X126356772Y-73722464D01*
X126356767Y-73722477D01*
X126280145Y-74008440D01*
X126280143Y-74008451D01*
X126241500Y-74301962D01*
X126241500Y-76698037D01*
X126268590Y-76903795D01*
X126280144Y-76991557D01*
X126356769Y-77277529D01*
X126468393Y-77547010D01*
X126470070Y-77551059D01*
X126470071Y-77551060D01*
X126618096Y-77807447D01*
X126798324Y-78042326D01*
X126798330Y-78042333D01*
X127007666Y-78251669D01*
X127007673Y-78251675D01*
X127242552Y-78431903D01*
X127498939Y-78579928D01*
X127498938Y-78579928D01*
X127498942Y-78579929D01*
X127498948Y-78579933D01*
X127772471Y-78693231D01*
X128058443Y-78769856D01*
X128351970Y-78808500D01*
X128351977Y-78808500D01*
X128648023Y-78808500D01*
X128648030Y-78808500D01*
X128941557Y-78769856D01*
X129227529Y-78693231D01*
X129501052Y-78579933D01*
X129501057Y-78579929D01*
X129501062Y-78579928D01*
X129661684Y-78487192D01*
X129757448Y-78431903D01*
X129992328Y-78251674D01*
X130201674Y-78042328D01*
X130381903Y-77807448D01*
X130529933Y-77551052D01*
X130643231Y-77277529D01*
X130719856Y-76991557D01*
X130758500Y-76698030D01*
X130758500Y-74301970D01*
X130719856Y-74008443D01*
X130643231Y-73722471D01*
X130529933Y-73448948D01*
X130529930Y-73448943D01*
X130529929Y-73448940D01*
X130529928Y-73448939D01*
X130381903Y-73192552D01*
X130201675Y-72957673D01*
X130201669Y-72957666D01*
X129992333Y-72748330D01*
X129992326Y-72748324D01*
X129757447Y-72568096D01*
X129501060Y-72420071D01*
X129501059Y-72420070D01*
X129494075Y-72417177D01*
X129409295Y-72382059D01*
X129354893Y-72338220D01*
X129332829Y-72271925D01*
X129350109Y-72204226D01*
X129401246Y-72156616D01*
X129456750Y-72143500D01*
X137976191Y-72143500D01*
X138043230Y-72163185D01*
X138068340Y-72184527D01*
X138072247Y-72188866D01*
X138226748Y-72301118D01*
X138401212Y-72378794D01*
X138588013Y-72418500D01*
X138644734Y-72418500D01*
X138711773Y-72438185D01*
X138732415Y-72454819D01*
X139880181Y-73602585D01*
X139913666Y-73663908D01*
X139916500Y-73690266D01*
X139916500Y-75305398D01*
X139940843Y-75427777D01*
X139940845Y-75427785D01*
X139988598Y-75543072D01*
X139988603Y-75543081D01*
X140057928Y-75646832D01*
X140057931Y-75646836D01*
X142861878Y-78450782D01*
X142895363Y-78512105D01*
X142897518Y-78525501D01*
X142904950Y-78596204D01*
X142914958Y-78691428D01*
X142914959Y-78691431D01*
X142973970Y-78873049D01*
X142973973Y-78873056D01*
X143069460Y-79038444D01*
X143197247Y-79180366D01*
X143351748Y-79292618D01*
X143526212Y-79370294D01*
X143713013Y-79410000D01*
X143903987Y-79410000D01*
X144090788Y-79370294D01*
X144265252Y-79292618D01*
X144419753Y-79180366D01*
X144547540Y-79038444D01*
X144643027Y-78873056D01*
X144680290Y-78758371D01*
X144719726Y-78700698D01*
X144784084Y-78673499D01*
X144845672Y-78682130D01*
X144872471Y-78693231D01*
X145158443Y-78769856D01*
X145451970Y-78808500D01*
X145451977Y-78808500D01*
X145748023Y-78808500D01*
X145748030Y-78808500D01*
X146041557Y-78769856D01*
X146327529Y-78693231D01*
X146601052Y-78579933D01*
X146601057Y-78579929D01*
X146601062Y-78579928D01*
X146761684Y-78487192D01*
X146857448Y-78431903D01*
X147092328Y-78251674D01*
X147301674Y-78042328D01*
X147481903Y-77807448D01*
X147629933Y-77551052D01*
X147743231Y-77277529D01*
X147819856Y-76991557D01*
X147858500Y-76698030D01*
X147858500Y-74301970D01*
X147819856Y-74008443D01*
X147743231Y-73722471D01*
X147629933Y-73448948D01*
X147629930Y-73448943D01*
X147629929Y-73448940D01*
X147629928Y-73448939D01*
X147481903Y-73192552D01*
X147301675Y-72957673D01*
X147301669Y-72957666D01*
X147092333Y-72748330D01*
X147092326Y-72748324D01*
X146857447Y-72568096D01*
X146601060Y-72420071D01*
X146601059Y-72420070D01*
X146509298Y-72382061D01*
X146327529Y-72306769D01*
X146306431Y-72301116D01*
X146248229Y-72285521D01*
X146041557Y-72230144D01*
X145992503Y-72223685D01*
X145748037Y-72191500D01*
X145748030Y-72191500D01*
X145451970Y-72191500D01*
X145451962Y-72191500D01*
X145172571Y-72228283D01*
X145158443Y-72230144D01*
X145063119Y-72255685D01*
X144872477Y-72306767D01*
X144872473Y-72306768D01*
X144872471Y-72306769D01*
X144872464Y-72306772D01*
X144598940Y-72420070D01*
X144598939Y-72420071D01*
X144342552Y-72568096D01*
X144107673Y-72748324D01*
X144107666Y-72748330D01*
X143898330Y-72957666D01*
X143898324Y-72957673D01*
X143718096Y-73192552D01*
X143570071Y-73448939D01*
X143570070Y-73448940D01*
X143456772Y-73722464D01*
X143456767Y-73722477D01*
X143380145Y-74008440D01*
X143380143Y-74008451D01*
X143341500Y-74301962D01*
X143341500Y-76698023D01*
X143341501Y-76698040D01*
X143360615Y-76843225D01*
X143349849Y-76912260D01*
X143303469Y-76964516D01*
X143236200Y-76983401D01*
X143169400Y-76962920D01*
X143149995Y-76947091D01*
X141219819Y-75016915D01*
X141186334Y-74955592D01*
X141183500Y-74929234D01*
X141183500Y-73314105D01*
X141183499Y-73314101D01*
X141159157Y-73191722D01*
X141159154Y-73191713D01*
X141145168Y-73157947D01*
X141111401Y-73076425D01*
X141111399Y-73076423D01*
X141111399Y-73076421D01*
X141042072Y-72972667D01*
X141042069Y-72972663D01*
X139630120Y-71560715D01*
X139596635Y-71499392D01*
X139594482Y-71486012D01*
X139577042Y-71320072D01*
X139572410Y-71305816D01*
X139570416Y-71235975D01*
X139606498Y-71176143D01*
X139669199Y-71145316D01*
X139690342Y-71143500D01*
X142612395Y-71143500D01*
X142612396Y-71143499D01*
X142734785Y-71119155D01*
X142850075Y-71071400D01*
X142953833Y-71002071D01*
X146095335Y-67860569D01*
X146156658Y-67827084D01*
X146183016Y-67824250D01*
X147926441Y-67824250D01*
X147993480Y-67843935D01*
X148014122Y-67860569D01*
X148670590Y-68517037D01*
X148607007Y-68534075D01*
X148492993Y-68599901D01*
X148399901Y-68692993D01*
X148334075Y-68807007D01*
X148317037Y-68870591D01*
X147648811Y-68202365D01*
X147564516Y-68331390D01*
X147471317Y-68543864D01*
X147414361Y-68768781D01*
X147395202Y-68999994D01*
X147395202Y-69000005D01*
X147414361Y-69231218D01*
X147471317Y-69456135D01*
X147564515Y-69668606D01*
X147648812Y-69797633D01*
X148317037Y-69129408D01*
X148334075Y-69192993D01*
X148399901Y-69307007D01*
X148492993Y-69400099D01*
X148607007Y-69465925D01*
X148670590Y-69482962D01*
X148001201Y-70152351D01*
X148031649Y-70176050D01*
X148235697Y-70286476D01*
X148235706Y-70286479D01*
X148455139Y-70361811D01*
X148683993Y-70400000D01*
X148916007Y-70400000D01*
X149144860Y-70361811D01*
X149364293Y-70286479D01*
X149364301Y-70286476D01*
X149568355Y-70176047D01*
X149598797Y-70152351D01*
X149598798Y-70152350D01*
X148929410Y-69482962D01*
X148992993Y-69465925D01*
X149107007Y-69400099D01*
X149200099Y-69307007D01*
X149265925Y-69192993D01*
X149282962Y-69129409D01*
X149951186Y-69797633D01*
X150035483Y-69668609D01*
X150089332Y-69545845D01*
X150134287Y-69492359D01*
X150201023Y-69471668D01*
X150268351Y-69490342D01*
X150290569Y-69507973D01*
X150593581Y-69810985D01*
X150627066Y-69872308D01*
X150629900Y-69898666D01*
X150629900Y-77124724D01*
X150610215Y-77191763D01*
X150557411Y-77237518D01*
X150531682Y-77246014D01*
X150356713Y-77283205D01*
X150182246Y-77360883D01*
X150027745Y-77473135D01*
X149899959Y-77615057D01*
X149804473Y-77780443D01*
X149804470Y-77780450D01*
X149748409Y-77952989D01*
X149745458Y-77962072D01*
X149725496Y-78152000D01*
X149745458Y-78341928D01*
X149745459Y-78341931D01*
X149804470Y-78523549D01*
X149804473Y-78523556D01*
X149899960Y-78688944D01*
X150027747Y-78830866D01*
X150182248Y-78943118D01*
X150356712Y-79020794D01*
X150543513Y-79060500D01*
X150734486Y-79060500D01*
X150734487Y-79060500D01*
X150858753Y-79034086D01*
X150928419Y-79039402D01*
X150984152Y-79081538D01*
X151008258Y-79147118D01*
X150993081Y-79215320D01*
X150957419Y-79255694D01*
X150839545Y-79341335D01*
X150711759Y-79483257D01*
X150616273Y-79648643D01*
X150616270Y-79648650D01*
X150557259Y-79830268D01*
X150557258Y-79830272D01*
X150537296Y-80020200D01*
X150557258Y-80210128D01*
X150557259Y-80210131D01*
X150616270Y-80391749D01*
X150616272Y-80391753D01*
X150616273Y-80391756D01*
X150628971Y-80413749D01*
X150713669Y-80560452D01*
X150730141Y-80628352D01*
X150707288Y-80694379D01*
X150693962Y-80710132D01*
X149335748Y-82068346D01*
X149274425Y-82101831D01*
X149207804Y-82097946D01*
X149159271Y-82081284D01*
X148971793Y-82050000D01*
X148920855Y-82041500D01*
X148679145Y-82041500D01*
X148631462Y-82049456D01*
X148440728Y-82081284D01*
X148212126Y-82159764D01*
X148212117Y-82159767D01*
X147999539Y-82274809D01*
X147999533Y-82274813D01*
X147808805Y-82423263D01*
X147808802Y-82423266D01*
X147645095Y-82601098D01*
X147645092Y-82601102D01*
X147512891Y-82803449D01*
X147415797Y-83024802D01*
X147356460Y-83259119D01*
X147336501Y-83499994D01*
X147336501Y-83500005D01*
X147356460Y-83740880D01*
X147415797Y-83975197D01*
X147512891Y-84196550D01*
X147576707Y-84294226D01*
X147645094Y-84398900D01*
X147645096Y-84398902D01*
X147645603Y-84399678D01*
X147665791Y-84466567D01*
X147646612Y-84533753D01*
X147594153Y-84579904D01*
X147541795Y-84591500D01*
X147433288Y-84591500D01*
X147387240Y-84599184D01*
X147203045Y-84629920D01*
X146982280Y-84705710D01*
X146982266Y-84705716D01*
X146776988Y-84816806D01*
X146776985Y-84816808D01*
X146592781Y-84960181D01*
X146592776Y-84960185D01*
X146434686Y-85131915D01*
X146307015Y-85327331D01*
X146213251Y-85541092D01*
X146155948Y-85767377D01*
X146136673Y-85999994D01*
X146136673Y-86000005D01*
X146155948Y-86232622D01*
X146213251Y-86458907D01*
X146246229Y-86534090D01*
X146255132Y-86603390D01*
X146225155Y-86666502D01*
X146165815Y-86703389D01*
X146132673Y-86707900D01*
X128311233Y-86707900D01*
X128244194Y-86688215D01*
X128223552Y-86671581D01*
X127961651Y-86409680D01*
X127928166Y-86348357D01*
X127929126Y-86291559D01*
X127944051Y-86232626D01*
X127949558Y-86166161D01*
X127963327Y-86000005D01*
X127963327Y-85999994D01*
X127944051Y-85767377D01*
X127944051Y-85767374D01*
X127886749Y-85541093D01*
X127792984Y-85327331D01*
X127665314Y-85131917D01*
X127665313Y-85131915D01*
X127507223Y-84960185D01*
X127507222Y-84960184D01*
X127507220Y-84960182D01*
X127323017Y-84816810D01*
X127323015Y-84816809D01*
X127323014Y-84816808D01*
X127323011Y-84816806D01*
X127117733Y-84705716D01*
X127117730Y-84705715D01*
X127117727Y-84705713D01*
X127117721Y-84705711D01*
X127117719Y-84705710D01*
X126896954Y-84629920D01*
X126724271Y-84601105D01*
X126666712Y-84591500D01*
X126558205Y-84591500D01*
X126491166Y-84571815D01*
X126445411Y-84519011D01*
X126435467Y-84449853D01*
X126454397Y-84399678D01*
X126454903Y-84398902D01*
X126454906Y-84398900D01*
X126587109Y-84196549D01*
X126684203Y-83975197D01*
X126743539Y-83740884D01*
X126758045Y-83565826D01*
X126763499Y-83500005D01*
X126763499Y-83499994D01*
X126743539Y-83259119D01*
X126743539Y-83259116D01*
X126684203Y-83024803D01*
X126587109Y-82803451D01*
X126454906Y-82601100D01*
X126291201Y-82423269D01*
X126291196Y-82423265D01*
X126291194Y-82423263D01*
X126100466Y-82274813D01*
X126100460Y-82274809D01*
X125887882Y-82159767D01*
X125887873Y-82159764D01*
X125659271Y-82081284D01*
X125471793Y-82050000D01*
X125420855Y-82041500D01*
X125179145Y-82041500D01*
X125149316Y-82046477D01*
X124940731Y-82081283D01*
X124892193Y-82097947D01*
X124822394Y-82101096D01*
X124764250Y-82068346D01*
X122438836Y-79742931D01*
X122438832Y-79742928D01*
X122335081Y-79673603D01*
X122335072Y-79673598D01*
X122219785Y-79625845D01*
X122219777Y-79625843D01*
X122097398Y-79601500D01*
X122097394Y-79601500D01*
X119507309Y-79601500D01*
X119440270Y-79581815D01*
X119415160Y-79560473D01*
X119411254Y-79556135D01*
X119392174Y-79542272D01*
X119256752Y-79443882D01*
X119082288Y-79366206D01*
X119082286Y-79366205D01*
X118895487Y-79326500D01*
X118704513Y-79326500D01*
X118517714Y-79366205D01*
X118343246Y-79443883D01*
X118188745Y-79556135D01*
X118060959Y-79698057D01*
X117965473Y-79863443D01*
X117965470Y-79863450D01*
X117925307Y-79987060D01*
X117906458Y-80045072D01*
X117886496Y-80235000D01*
X117906458Y-80424928D01*
X117906459Y-80424931D01*
X117965470Y-80606549D01*
X117965473Y-80606556D01*
X118060960Y-80771944D01*
X118188747Y-80913866D01*
X118343248Y-81026118D01*
X118517712Y-81103794D01*
X118704513Y-81143500D01*
X118895487Y-81143500D01*
X119082288Y-81103794D01*
X119256752Y-81026118D01*
X119411253Y-80913866D01*
X119415160Y-80909527D01*
X119474646Y-80872879D01*
X119507309Y-80868500D01*
X121721234Y-80868500D01*
X121788273Y-80888185D01*
X121808915Y-80904819D01*
X122744537Y-81840441D01*
X122778022Y-81901764D01*
X122773038Y-81971456D01*
X122731166Y-82027389D01*
X122677266Y-82050431D01*
X122442823Y-82089553D01*
X122215550Y-82167576D01*
X122215544Y-82167578D01*
X122004209Y-82281948D01*
X121965571Y-82312019D01*
X122670589Y-83017037D01*
X122607007Y-83034075D01*
X122492993Y-83099901D01*
X122399901Y-83192993D01*
X122334075Y-83307007D01*
X122317037Y-83370590D01*
X121612687Y-82666240D01*
X121580007Y-82669630D01*
X121511294Y-82656965D01*
X121463409Y-82614114D01*
X121454909Y-82601105D01*
X121454907Y-82601102D01*
X121454906Y-82601100D01*
X121291201Y-82423269D01*
X121291196Y-82423265D01*
X121291194Y-82423263D01*
X121100466Y-82274813D01*
X121100460Y-82274809D01*
X120887882Y-82159767D01*
X120887873Y-82159764D01*
X120659271Y-82081284D01*
X120471793Y-82050000D01*
X120420855Y-82041500D01*
X120179145Y-82041500D01*
X120131462Y-82049456D01*
X119940728Y-82081284D01*
X119712126Y-82159764D01*
X119712117Y-82159767D01*
X119499539Y-82274809D01*
X119499533Y-82274813D01*
X119308805Y-82423263D01*
X119308802Y-82423266D01*
X119145095Y-82601098D01*
X119145092Y-82601102D01*
X119012891Y-82803449D01*
X118915797Y-83024802D01*
X118856460Y-83259119D01*
X118836501Y-83499994D01*
X118836501Y-83500005D01*
X118856460Y-83740880D01*
X118915797Y-83975197D01*
X119012891Y-84196550D01*
X119076707Y-84294226D01*
X119145094Y-84398900D01*
X119145096Y-84398902D01*
X119145603Y-84399678D01*
X119165791Y-84466567D01*
X119146612Y-84533753D01*
X119094153Y-84579904D01*
X119041795Y-84591500D01*
X118933288Y-84591500D01*
X118887240Y-84599184D01*
X118703045Y-84629920D01*
X118482280Y-84705710D01*
X118482266Y-84705716D01*
X118276988Y-84816806D01*
X118276985Y-84816808D01*
X118092781Y-84960181D01*
X118092776Y-84960185D01*
X117934686Y-85131915D01*
X117807015Y-85327331D01*
X117713251Y-85541092D01*
X117655948Y-85767377D01*
X117636673Y-85999994D01*
X117636673Y-86000005D01*
X117655948Y-86232622D01*
X117713251Y-86458907D01*
X117746229Y-86534090D01*
X117755132Y-86603390D01*
X117725155Y-86666502D01*
X117665815Y-86703389D01*
X117632673Y-86707900D01*
X99467327Y-86707900D01*
X99400288Y-86688215D01*
X99354533Y-86635411D01*
X99344589Y-86566253D01*
X99353771Y-86534090D01*
X99368724Y-86500000D01*
X99386749Y-86458907D01*
X99444051Y-86232626D01*
X99452618Y-86129236D01*
X99463327Y-86000005D01*
X99463327Y-85999994D01*
X99444051Y-85767377D01*
X99444051Y-85767374D01*
X99386749Y-85541093D01*
X99292984Y-85327331D01*
X99165314Y-85131917D01*
X99165313Y-85131915D01*
X99007223Y-84960185D01*
X99007222Y-84960184D01*
X99007220Y-84960182D01*
X98823017Y-84816810D01*
X98823015Y-84816809D01*
X98823014Y-84816808D01*
X98823011Y-84816806D01*
X98617733Y-84705716D01*
X98617730Y-84705715D01*
X98617727Y-84705713D01*
X98617721Y-84705711D01*
X98617719Y-84705710D01*
X98396954Y-84629920D01*
X98224271Y-84601105D01*
X98166712Y-84591500D01*
X98058205Y-84591500D01*
X97991166Y-84571815D01*
X97945411Y-84519011D01*
X97935467Y-84449853D01*
X97954397Y-84399678D01*
X97954903Y-84398902D01*
X97954906Y-84398900D01*
X98087109Y-84196549D01*
X98184203Y-83975197D01*
X98243539Y-83740884D01*
X98258045Y-83565826D01*
X98263499Y-83500005D01*
X98263499Y-83499994D01*
X98243539Y-83259119D01*
X98243539Y-83259116D01*
X98184203Y-83024803D01*
X98087109Y-82803451D01*
X97954906Y-82601100D01*
X97791201Y-82423269D01*
X97791196Y-82423265D01*
X97791194Y-82423263D01*
X97600466Y-82274813D01*
X97600460Y-82274809D01*
X97387882Y-82159767D01*
X97387873Y-82159764D01*
X97159271Y-82081284D01*
X96971793Y-82050000D01*
X96920855Y-82041500D01*
X96679145Y-82041500D01*
X96631462Y-82049456D01*
X96440728Y-82081284D01*
X96212126Y-82159764D01*
X96212117Y-82159767D01*
X95999539Y-82274809D01*
X95999533Y-82274813D01*
X95808805Y-82423263D01*
X95808802Y-82423266D01*
X95645094Y-82601099D01*
X95636590Y-82614116D01*
X95583442Y-82659471D01*
X95519992Y-82669630D01*
X95487311Y-82666240D01*
X94782962Y-83370588D01*
X94765925Y-83307007D01*
X94700099Y-83192993D01*
X94607007Y-83099901D01*
X94492993Y-83034075D01*
X94429407Y-83017037D01*
X95134426Y-82312019D01*
X95134426Y-82312017D01*
X95095801Y-82281954D01*
X95095795Y-82281950D01*
X94884455Y-82167578D01*
X94884449Y-82167576D01*
X94657176Y-82089553D01*
X94422733Y-82050431D01*
X94359848Y-82019980D01*
X94323408Y-81960365D01*
X94324984Y-81890513D01*
X94355460Y-81840442D01*
X94967971Y-81227933D01*
X95037300Y-81124175D01*
X95085055Y-81008885D01*
X95109400Y-80886494D01*
X95109400Y-80761706D01*
X95109400Y-80743956D01*
X95129085Y-80676917D01*
X95141246Y-80660988D01*
X95214940Y-80579144D01*
X95310427Y-80413756D01*
X95369442Y-80232128D01*
X95389404Y-80042200D01*
X95369442Y-79852272D01*
X95311388Y-79673603D01*
X95310429Y-79670650D01*
X95310428Y-79670649D01*
X95310427Y-79670644D01*
X95214940Y-79505256D01*
X95087153Y-79363334D01*
X94932652Y-79251082D01*
X94758188Y-79173406D01*
X94758186Y-79173405D01*
X94571387Y-79133700D01*
X94380413Y-79133700D01*
X94193614Y-79173405D01*
X94019146Y-79251083D01*
X93864645Y-79363335D01*
X93736859Y-79505257D01*
X93641373Y-79670643D01*
X93641370Y-79670650D01*
X93589506Y-79830272D01*
X93582358Y-79852272D01*
X93562396Y-80042200D01*
X93582358Y-80232128D01*
X93582359Y-80232131D01*
X93641370Y-80413749D01*
X93641373Y-80413756D01*
X93721529Y-80552590D01*
X93738002Y-80620490D01*
X93715149Y-80686517D01*
X93701823Y-80702271D01*
X92335748Y-82068346D01*
X92274425Y-82101831D01*
X92207804Y-82097946D01*
X92159271Y-82081284D01*
X91971793Y-82050000D01*
X91920855Y-82041500D01*
X91679145Y-82041500D01*
X91631462Y-82049456D01*
X91440728Y-82081284D01*
X91212126Y-82159764D01*
X91212117Y-82159767D01*
X90999539Y-82274809D01*
X90999533Y-82274813D01*
X90808805Y-82423263D01*
X90808802Y-82423266D01*
X90645095Y-82601098D01*
X90645092Y-82601102D01*
X90512891Y-82803449D01*
X90415797Y-83024802D01*
X90356460Y-83259119D01*
X90336501Y-83499994D01*
X90336501Y-83500005D01*
X90356460Y-83740880D01*
X90415797Y-83975197D01*
X90512891Y-84196550D01*
X90576707Y-84294226D01*
X90645094Y-84398900D01*
X90645096Y-84398902D01*
X90645603Y-84399678D01*
X90665791Y-84466567D01*
X90646612Y-84533753D01*
X90594153Y-84579904D01*
X90541795Y-84591500D01*
X90433288Y-84591500D01*
X90387240Y-84599184D01*
X90203045Y-84629920D01*
X89982280Y-84705710D01*
X89982266Y-84705716D01*
X89776988Y-84816806D01*
X89776985Y-84816808D01*
X89592781Y-84960181D01*
X89592776Y-84960185D01*
X89434686Y-85131915D01*
X89307015Y-85327331D01*
X89213251Y-85541092D01*
X89155948Y-85767377D01*
X89136673Y-85999994D01*
X89136673Y-86000005D01*
X89155948Y-86232622D01*
X89213251Y-86458907D01*
X89246229Y-86534090D01*
X89255132Y-86603390D01*
X89225155Y-86666502D01*
X89165815Y-86703389D01*
X89132673Y-86707900D01*
X71311233Y-86707900D01*
X71244194Y-86688215D01*
X71223552Y-86671581D01*
X70961651Y-86409680D01*
X70928166Y-86348357D01*
X70929126Y-86291559D01*
X70944051Y-86232626D01*
X70949558Y-86166161D01*
X70963327Y-86000005D01*
X70963327Y-85999994D01*
X70944051Y-85767377D01*
X70944051Y-85767374D01*
X70886749Y-85541093D01*
X70792984Y-85327331D01*
X70665314Y-85131917D01*
X70665313Y-85131915D01*
X70507223Y-84960185D01*
X70507222Y-84960184D01*
X70507220Y-84960182D01*
X70323017Y-84816810D01*
X70323015Y-84816809D01*
X70323014Y-84816808D01*
X70323011Y-84816806D01*
X70117733Y-84705716D01*
X70117730Y-84705715D01*
X70117727Y-84705713D01*
X70117721Y-84705711D01*
X70117719Y-84705710D01*
X69896954Y-84629920D01*
X69724271Y-84601105D01*
X69666712Y-84591500D01*
X69558205Y-84591500D01*
X69491166Y-84571815D01*
X69445411Y-84519011D01*
X69435467Y-84449853D01*
X69454397Y-84399678D01*
X69454903Y-84398902D01*
X69454906Y-84398900D01*
X69587109Y-84196549D01*
X69684203Y-83975197D01*
X69743539Y-83740884D01*
X69758045Y-83565826D01*
X69763499Y-83500005D01*
X69763499Y-83499994D01*
X69743539Y-83259119D01*
X69743539Y-83259116D01*
X69684203Y-83024803D01*
X69587109Y-82803451D01*
X69454906Y-82601100D01*
X69291201Y-82423269D01*
X69291196Y-82423265D01*
X69291194Y-82423263D01*
X69100466Y-82274813D01*
X69100460Y-82274809D01*
X68887882Y-82159767D01*
X68887873Y-82159764D01*
X68659271Y-82081284D01*
X68471793Y-82050000D01*
X68420855Y-82041500D01*
X68179145Y-82041500D01*
X68131462Y-82049456D01*
X67940728Y-82081284D01*
X67712126Y-82159764D01*
X67712117Y-82159767D01*
X67499539Y-82274809D01*
X67499533Y-82274813D01*
X67308805Y-82423263D01*
X67308802Y-82423266D01*
X67145094Y-82601099D01*
X67136590Y-82614116D01*
X67083442Y-82659471D01*
X67019992Y-82669630D01*
X66987311Y-82666240D01*
X66282962Y-83370588D01*
X66265925Y-83307007D01*
X66200099Y-83192993D01*
X66107007Y-83099901D01*
X65992993Y-83034075D01*
X65929409Y-83017037D01*
X66634426Y-82312019D01*
X66634426Y-82312017D01*
X66595801Y-82281954D01*
X66595795Y-82281950D01*
X66384455Y-82167578D01*
X66384449Y-82167576D01*
X66157176Y-82089553D01*
X65920149Y-82050000D01*
X65679851Y-82050000D01*
X65442823Y-82089553D01*
X65215550Y-82167576D01*
X65215544Y-82167578D01*
X65004209Y-82281948D01*
X64965571Y-82312019D01*
X65670590Y-83017037D01*
X65607007Y-83034075D01*
X65492993Y-83099901D01*
X65399901Y-83192993D01*
X65334075Y-83307007D01*
X65317037Y-83370590D01*
X64612687Y-82666240D01*
X64580007Y-82669630D01*
X64511294Y-82656965D01*
X64463409Y-82614114D01*
X64454909Y-82601105D01*
X64454907Y-82601102D01*
X64454906Y-82601100D01*
X64291201Y-82423269D01*
X64291196Y-82423265D01*
X64291194Y-82423263D01*
X64100466Y-82274813D01*
X64100460Y-82274809D01*
X63887882Y-82159767D01*
X63887873Y-82159764D01*
X63659271Y-82081284D01*
X63471793Y-82050000D01*
X63420855Y-82041500D01*
X63179145Y-82041500D01*
X63131462Y-82049456D01*
X62940728Y-82081284D01*
X62712126Y-82159764D01*
X62712117Y-82159767D01*
X62499539Y-82274809D01*
X62499533Y-82274813D01*
X62308805Y-82423263D01*
X62308802Y-82423266D01*
X62145095Y-82601098D01*
X62145092Y-82601102D01*
X62012891Y-82803449D01*
X61915797Y-83024802D01*
X61856460Y-83259119D01*
X61836501Y-83499994D01*
X61836501Y-83500005D01*
X61856460Y-83740880D01*
X61879426Y-83831572D01*
X61876800Y-83901393D01*
X61874773Y-83904300D01*
X61906599Y-83943986D01*
X61912131Y-83960723D01*
X61915796Y-83975196D01*
X62012891Y-84196550D01*
X62076707Y-84294226D01*
X62145094Y-84398900D01*
X62145096Y-84398902D01*
X62145603Y-84399678D01*
X62165791Y-84466567D01*
X62146612Y-84533753D01*
X62094153Y-84579904D01*
X62041795Y-84591500D01*
X61933288Y-84591500D01*
X61770338Y-84618691D01*
X61700973Y-84610309D01*
X61647151Y-84565756D01*
X61625961Y-84499177D01*
X61631997Y-84458066D01*
X61665542Y-84354828D01*
X61685504Y-84164900D01*
X61668605Y-84004123D01*
X61678593Y-83949508D01*
X61652459Y-83925085D01*
X61641289Y-83900330D01*
X61606529Y-83793349D01*
X61606526Y-83793343D01*
X61576239Y-83740884D01*
X61511040Y-83627956D01*
X61383253Y-83486034D01*
X61228752Y-83373782D01*
X61054288Y-83296106D01*
X61054286Y-83296105D01*
X60867487Y-83256400D01*
X60676513Y-83256400D01*
X60489714Y-83296105D01*
X60315246Y-83373783D01*
X60160745Y-83486035D01*
X60032959Y-83627957D01*
X59937473Y-83793343D01*
X59937470Y-83793350D01*
X59878459Y-83974968D01*
X59878458Y-83974972D01*
X59858496Y-84164900D01*
X54323406Y-84164900D01*
X54406531Y-66958200D01*
X56064696Y-66958200D01*
X56084658Y-67148128D01*
X56084659Y-67148131D01*
X56143670Y-67329749D01*
X56143673Y-67329756D01*
X56239160Y-67495144D01*
X56366947Y-67637066D01*
X56521448Y-67749318D01*
X56695912Y-67826994D01*
X56882713Y-67866700D01*
X56939434Y-67866700D01*
X57006473Y-67886385D01*
X57027110Y-67903014D01*
X57084277Y-67960181D01*
X57126168Y-68002072D01*
X57229918Y-68071396D01*
X57229924Y-68071399D01*
X57229925Y-68071400D01*
X57345215Y-68119155D01*
X57424542Y-68134934D01*
X57467601Y-68143499D01*
X57467605Y-68143500D01*
X57467606Y-68143500D01*
X57592394Y-68143500D01*
X61958140Y-68143500D01*
X62025179Y-68163185D01*
X62070934Y-68215989D01*
X62080878Y-68285147D01*
X62065424Y-68326050D01*
X62066957Y-68326880D01*
X62064518Y-68331385D01*
X61971317Y-68543864D01*
X61914361Y-68768781D01*
X61895202Y-68999994D01*
X61895202Y-69000005D01*
X61914361Y-69231218D01*
X61971317Y-69456135D01*
X62064515Y-69668606D01*
X62148812Y-69797632D01*
X62817036Y-69129407D01*
X62834075Y-69192993D01*
X62899901Y-69307007D01*
X62992993Y-69400099D01*
X63107007Y-69465925D01*
X63170590Y-69482962D01*
X62501201Y-70152351D01*
X62531649Y-70176050D01*
X62735697Y-70286476D01*
X62735706Y-70286479D01*
X62955139Y-70361811D01*
X63183993Y-70400000D01*
X63416007Y-70400000D01*
X63644860Y-70361811D01*
X63842137Y-70294086D01*
X63911936Y-70290936D01*
X63972357Y-70326022D01*
X64004217Y-70388205D01*
X64006400Y-70411367D01*
X64006400Y-76040533D01*
X63986715Y-76107572D01*
X63970081Y-76128214D01*
X62225881Y-77872414D01*
X62164558Y-77905899D01*
X62094866Y-77900915D01*
X62038933Y-77859043D01*
X62014516Y-77793579D01*
X62029368Y-77725306D01*
X62030813Y-77722733D01*
X62129933Y-77551052D01*
X62243231Y-77277529D01*
X62319856Y-76991557D01*
X62358500Y-76698030D01*
X62358500Y-74301970D01*
X62319856Y-74008443D01*
X62243231Y-73722471D01*
X62129933Y-73448948D01*
X62129930Y-73448943D01*
X62129929Y-73448940D01*
X62129928Y-73448939D01*
X61981903Y-73192552D01*
X61801675Y-72957673D01*
X61801669Y-72957666D01*
X61592333Y-72748330D01*
X61592326Y-72748324D01*
X61357447Y-72568096D01*
X61101060Y-72420071D01*
X61101059Y-72420070D01*
X61009298Y-72382061D01*
X60827529Y-72306769D01*
X60806431Y-72301116D01*
X60748229Y-72285521D01*
X60541557Y-72230144D01*
X60492503Y-72223685D01*
X60248037Y-72191500D01*
X60248030Y-72191500D01*
X59951970Y-72191500D01*
X59951962Y-72191500D01*
X59672571Y-72228283D01*
X59658443Y-72230144D01*
X59563119Y-72255685D01*
X59372477Y-72306767D01*
X59372473Y-72306768D01*
X59372471Y-72306769D01*
X59372464Y-72306772D01*
X59098940Y-72420070D01*
X59098939Y-72420071D01*
X58842552Y-72568096D01*
X58607673Y-72748324D01*
X58607666Y-72748330D01*
X58398330Y-72957666D01*
X58398324Y-72957673D01*
X58218096Y-73192552D01*
X58070071Y-73448939D01*
X58070070Y-73448940D01*
X57956772Y-73722464D01*
X57956767Y-73722477D01*
X57880145Y-74008440D01*
X57880143Y-74008451D01*
X57841500Y-74301962D01*
X57841500Y-76698037D01*
X57868590Y-76903795D01*
X57880144Y-76991557D01*
X57956769Y-77277529D01*
X58068393Y-77547010D01*
X58070070Y-77551059D01*
X58070071Y-77551060D01*
X58218096Y-77807447D01*
X58398324Y-78042326D01*
X58398330Y-78042333D01*
X58607666Y-78251669D01*
X58607673Y-78251675D01*
X58842552Y-78431903D01*
X59098939Y-78579928D01*
X59098938Y-78579928D01*
X59098942Y-78579929D01*
X59098948Y-78579933D01*
X59372471Y-78693231D01*
X59658443Y-78769856D01*
X59951970Y-78808500D01*
X59951977Y-78808500D01*
X60248023Y-78808500D01*
X60248030Y-78808500D01*
X60541557Y-78769856D01*
X60827529Y-78693231D01*
X61101052Y-78579933D01*
X61101057Y-78579929D01*
X61101062Y-78579928D01*
X61261684Y-78487192D01*
X61272733Y-78480812D01*
X61340633Y-78464340D01*
X61406660Y-78487192D01*
X61449851Y-78542114D01*
X61456492Y-78611667D01*
X61424476Y-78673770D01*
X61422414Y-78675881D01*
X61239797Y-78858499D01*
X61063159Y-79035137D01*
X61037796Y-79060500D01*
X60974919Y-79123376D01*
X60905595Y-79227126D01*
X60905590Y-79227135D01*
X60857837Y-79342422D01*
X60857835Y-79342430D01*
X60833492Y-79464809D01*
X60833492Y-79475233D01*
X60813807Y-79542272D01*
X60801642Y-79558205D01*
X60727955Y-79640042D01*
X60727950Y-79640049D01*
X60632465Y-79805435D01*
X60632462Y-79805442D01*
X60573451Y-79987060D01*
X60573450Y-79987064D01*
X60553488Y-80176992D01*
X60573450Y-80366920D01*
X60573451Y-80366923D01*
X60632462Y-80548541D01*
X60632465Y-80548548D01*
X60727952Y-80713936D01*
X60855739Y-80855858D01*
X61010240Y-80968110D01*
X61184704Y-81045786D01*
X61371505Y-81085492D01*
X61562479Y-81085492D01*
X61749280Y-81045786D01*
X61923744Y-80968110D01*
X62078245Y-80855858D01*
X62206032Y-80713936D01*
X62301519Y-80548548D01*
X62360534Y-80366920D01*
X62380496Y-80176992D01*
X62360534Y-79987064D01*
X62309589Y-79830272D01*
X62301519Y-79805435D01*
X62269720Y-79750359D01*
X62253246Y-79682459D01*
X62276098Y-79616432D01*
X62289419Y-79600683D01*
X65131972Y-76758133D01*
X65201301Y-76654375D01*
X65249055Y-76539084D01*
X65273400Y-76416693D01*
X65273400Y-76291906D01*
X65273400Y-73693542D01*
X65293085Y-73626503D01*
X65345889Y-73580748D01*
X65415047Y-73570804D01*
X65447831Y-73580261D01*
X65486312Y-73597394D01*
X65673113Y-73637100D01*
X65864087Y-73637100D01*
X66050888Y-73597394D01*
X66225352Y-73519718D01*
X66379853Y-73407466D01*
X66383760Y-73403127D01*
X66443246Y-73366479D01*
X66475909Y-73362100D01*
X67393795Y-73362100D01*
X67393796Y-73362099D01*
X67516185Y-73337755D01*
X67631475Y-73290000D01*
X67735233Y-73220671D01*
X68573843Y-72382061D01*
X69416386Y-71539519D01*
X69477709Y-71506034D01*
X69504067Y-71503200D01*
X69527540Y-71503200D01*
X69594579Y-71522885D01*
X69640334Y-71575689D01*
X69650278Y-71644847D01*
X69645471Y-71665518D01*
X69627758Y-71720034D01*
X69616958Y-71753272D01*
X69596996Y-71943200D01*
X69616958Y-72133128D01*
X69616959Y-72133131D01*
X69675970Y-72314749D01*
X69675973Y-72314756D01*
X69771460Y-72480144D01*
X69815973Y-72529580D01*
X69899241Y-72622061D01*
X69899246Y-72622065D01*
X69899247Y-72622066D01*
X69917716Y-72635485D01*
X69960383Y-72690814D01*
X69966363Y-72760427D01*
X69933757Y-72822222D01*
X69932513Y-72823484D01*
X69798330Y-72957666D01*
X69798324Y-72957673D01*
X69618096Y-73192552D01*
X69470071Y-73448939D01*
X69470070Y-73448940D01*
X69356772Y-73722464D01*
X69356767Y-73722477D01*
X69280145Y-74008440D01*
X69280143Y-74008451D01*
X69241500Y-74301962D01*
X69241500Y-76698037D01*
X69268590Y-76903795D01*
X69280144Y-76991557D01*
X69356769Y-77277529D01*
X69468393Y-77547010D01*
X69470070Y-77551059D01*
X69470071Y-77551060D01*
X69618096Y-77807447D01*
X69798324Y-78042326D01*
X69798330Y-78042333D01*
X70007666Y-78251669D01*
X70007673Y-78251675D01*
X70242552Y-78431903D01*
X70498939Y-78579928D01*
X70498938Y-78579928D01*
X70498942Y-78579929D01*
X70498948Y-78579933D01*
X70772471Y-78693231D01*
X71058443Y-78769856D01*
X71351970Y-78808500D01*
X71351977Y-78808500D01*
X71648023Y-78808500D01*
X71648030Y-78808500D01*
X71941557Y-78769856D01*
X72227529Y-78693231D01*
X72501052Y-78579933D01*
X72501057Y-78579929D01*
X72501062Y-78579928D01*
X72661684Y-78487192D01*
X72757448Y-78431903D01*
X72992328Y-78251674D01*
X73201674Y-78042328D01*
X73381903Y-77807448D01*
X73529933Y-77551052D01*
X73643231Y-77277529D01*
X73719856Y-76991557D01*
X73758500Y-76698030D01*
X73758500Y-74301970D01*
X73719856Y-74008443D01*
X73643231Y-73722471D01*
X73529933Y-73448948D01*
X73529930Y-73448943D01*
X73529929Y-73448940D01*
X73529928Y-73448939D01*
X73381903Y-73192552D01*
X73201675Y-72957673D01*
X73201669Y-72957666D01*
X73032384Y-72788381D01*
X72998899Y-72727058D01*
X73003883Y-72657366D01*
X73045755Y-72601433D01*
X73111219Y-72577016D01*
X73120065Y-72576700D01*
X86979935Y-72576700D01*
X87046974Y-72596385D01*
X87092729Y-72649189D01*
X87102673Y-72718347D01*
X87073648Y-72781903D01*
X87067616Y-72788381D01*
X86898330Y-72957666D01*
X86898324Y-72957673D01*
X86718096Y-73192552D01*
X86570071Y-73448939D01*
X86570070Y-73448940D01*
X86456772Y-73722464D01*
X86456767Y-73722477D01*
X86380145Y-74008440D01*
X86380143Y-74008451D01*
X86341500Y-74301962D01*
X86341500Y-76698037D01*
X86368590Y-76903795D01*
X86380144Y-76991557D01*
X86456769Y-77277529D01*
X86568393Y-77547010D01*
X86570070Y-77551059D01*
X86570071Y-77551060D01*
X86718096Y-77807447D01*
X86898324Y-78042326D01*
X86898330Y-78042333D01*
X87107666Y-78251669D01*
X87107673Y-78251675D01*
X87342552Y-78431903D01*
X87598939Y-78579928D01*
X87598938Y-78579928D01*
X87598942Y-78579929D01*
X87598948Y-78579933D01*
X87872471Y-78693231D01*
X88158443Y-78769856D01*
X88451970Y-78808500D01*
X88451977Y-78808500D01*
X88748023Y-78808500D01*
X88748030Y-78808500D01*
X89041557Y-78769856D01*
X89327529Y-78693231D01*
X89601052Y-78579933D01*
X89601057Y-78579929D01*
X89601062Y-78579928D01*
X89761684Y-78487192D01*
X89857448Y-78431903D01*
X90092328Y-78251674D01*
X90301674Y-78042328D01*
X90481903Y-77807448D01*
X90629933Y-77551052D01*
X90743231Y-77277529D01*
X90819856Y-76991557D01*
X90858500Y-76698030D01*
X90858500Y-74301970D01*
X90819856Y-74008443D01*
X90743231Y-73722471D01*
X90629933Y-73448948D01*
X90629930Y-73448943D01*
X90629929Y-73448940D01*
X90629928Y-73448939D01*
X90481903Y-73192552D01*
X90301675Y-72957673D01*
X90301669Y-72957666D01*
X90132384Y-72788381D01*
X90098899Y-72727058D01*
X90103883Y-72657366D01*
X90145755Y-72601433D01*
X90211219Y-72577016D01*
X90220065Y-72576700D01*
X98254795Y-72576700D01*
X98254796Y-72576699D01*
X98292181Y-72569263D01*
X98383160Y-72551167D01*
X98383686Y-72553816D01*
X98441863Y-72553260D01*
X98501000Y-72590471D01*
X98530631Y-72653746D01*
X98521350Y-72722996D01*
X98495749Y-72760247D01*
X98298330Y-72957666D01*
X98298324Y-72957673D01*
X98118096Y-73192552D01*
X97970071Y-73448939D01*
X97970070Y-73448940D01*
X97856772Y-73722464D01*
X97856767Y-73722477D01*
X97780145Y-74008440D01*
X97780143Y-74008451D01*
X97741500Y-74301962D01*
X97741500Y-76698037D01*
X97768590Y-76903795D01*
X97780144Y-76991557D01*
X97856769Y-77277529D01*
X97968393Y-77547010D01*
X97970070Y-77551059D01*
X97970071Y-77551060D01*
X98118096Y-77807447D01*
X98298324Y-78042326D01*
X98298330Y-78042333D01*
X98507666Y-78251669D01*
X98507673Y-78251675D01*
X98742552Y-78431903D01*
X98998939Y-78579928D01*
X98998938Y-78579928D01*
X98998942Y-78579929D01*
X98998948Y-78579933D01*
X99272471Y-78693231D01*
X99558443Y-78769856D01*
X99851970Y-78808500D01*
X99851977Y-78808500D01*
X100148023Y-78808500D01*
X100148030Y-78808500D01*
X100441557Y-78769856D01*
X100727529Y-78693231D01*
X101001052Y-78579933D01*
X101001057Y-78579929D01*
X101001062Y-78579928D01*
X101161684Y-78487192D01*
X101257448Y-78431903D01*
X101300779Y-78398654D01*
X106558900Y-78398654D01*
X106565411Y-78459202D01*
X106565411Y-78459204D01*
X106596336Y-78542114D01*
X106616511Y-78596204D01*
X106704139Y-78713261D01*
X106821196Y-78800889D01*
X106958199Y-78851989D01*
X106985450Y-78854918D01*
X107018745Y-78858499D01*
X107018762Y-78858500D01*
X108316038Y-78858500D01*
X108316054Y-78858499D01*
X108343092Y-78855591D01*
X108376601Y-78851989D01*
X108513604Y-78800889D01*
X108568190Y-78760026D01*
X108633652Y-78735609D01*
X108687294Y-78743666D01*
X108865078Y-78812539D01*
X109065472Y-78850000D01*
X109269328Y-78850000D01*
X109469722Y-78812539D01*
X109659812Y-78738899D01*
X109659816Y-78738897D01*
X109748086Y-78684241D01*
X109748086Y-78684240D01*
X109108700Y-78044854D01*
X109127904Y-78050000D01*
X109206896Y-78050000D01*
X109283196Y-78029556D01*
X109351605Y-77990060D01*
X109407460Y-77934205D01*
X109446956Y-77865796D01*
X109467400Y-77789496D01*
X109467400Y-77750000D01*
X109520953Y-77750000D01*
X110104865Y-78333912D01*
X110106647Y-78331553D01*
X110106648Y-78331551D01*
X110197513Y-78149069D01*
X110197516Y-78149063D01*
X110253302Y-77952992D01*
X110253303Y-77952989D01*
X110272113Y-77750000D01*
X110272113Y-77749999D01*
X110253303Y-77547010D01*
X110253302Y-77547007D01*
X110197516Y-77350936D01*
X110197513Y-77350930D01*
X110106649Y-77168449D01*
X110106647Y-77168447D01*
X110104865Y-77166087D01*
X109520953Y-77750000D01*
X109467400Y-77750000D01*
X109467400Y-77710504D01*
X109446956Y-77634204D01*
X109407460Y-77565795D01*
X109351605Y-77509940D01*
X109283196Y-77470444D01*
X109206896Y-77450000D01*
X109127904Y-77450000D01*
X109108701Y-77455145D01*
X109167400Y-77396447D01*
X109748087Y-76815758D01*
X109659813Y-76761101D01*
X109659811Y-76761100D01*
X109469721Y-76687460D01*
X109269328Y-76650000D01*
X109065472Y-76650000D01*
X108865076Y-76687460D01*
X108687293Y-76756333D01*
X108617670Y-76762195D01*
X108568189Y-76739973D01*
X108513604Y-76699111D01*
X108376603Y-76648011D01*
X108316054Y-76641500D01*
X108316038Y-76641500D01*
X107018762Y-76641500D01*
X107018745Y-76641500D01*
X106958197Y-76648011D01*
X106958195Y-76648011D01*
X106821195Y-76699111D01*
X106704139Y-76786739D01*
X106616511Y-76903795D01*
X106565411Y-77040795D01*
X106565411Y-77040797D01*
X106558900Y-77101345D01*
X106558900Y-78398654D01*
X101300779Y-78398654D01*
X101492328Y-78251674D01*
X101701674Y-78042328D01*
X101881903Y-77807448D01*
X102029933Y-77551052D01*
X102143231Y-77277529D01*
X102219856Y-76991557D01*
X102258500Y-76698030D01*
X102258500Y-74301970D01*
X102219856Y-74008443D01*
X102143231Y-73722471D01*
X102029933Y-73448948D01*
X102029930Y-73448943D01*
X102029929Y-73448940D01*
X102029928Y-73448939D01*
X101881903Y-73192552D01*
X101701675Y-72957673D01*
X101701669Y-72957666D01*
X101492333Y-72748330D01*
X101492326Y-72748324D01*
X101257447Y-72568096D01*
X101001060Y-72420071D01*
X101001059Y-72420070D01*
X100909298Y-72382061D01*
X100727529Y-72306769D01*
X100706431Y-72301116D01*
X100648229Y-72285521D01*
X100441557Y-72230144D01*
X100392503Y-72223685D01*
X100148037Y-72191500D01*
X100148030Y-72191500D01*
X99851970Y-72191500D01*
X99851962Y-72191500D01*
X99572571Y-72228283D01*
X99558443Y-72230144D01*
X99463119Y-72255685D01*
X99272477Y-72306767D01*
X99272473Y-72306768D01*
X99272471Y-72306769D01*
X99272464Y-72306772D01*
X98998940Y-72420070D01*
X98998939Y-72420071D01*
X98897775Y-72478478D01*
X98829874Y-72494951D01*
X98763847Y-72472098D01*
X98720657Y-72417177D01*
X98714016Y-72347623D01*
X98746032Y-72285521D01*
X98748094Y-72283410D01*
X99277985Y-71753519D01*
X99339308Y-71720034D01*
X99365666Y-71717200D01*
X99422387Y-71717200D01*
X99609188Y-71677494D01*
X99783652Y-71599818D01*
X99938153Y-71487566D01*
X100065940Y-71345644D01*
X100161427Y-71180256D01*
X100220442Y-70998628D01*
X100240404Y-70808700D01*
X100220442Y-70618772D01*
X100161427Y-70437144D01*
X100065940Y-70271756D01*
X99938153Y-70129834D01*
X99783652Y-70017582D01*
X99609188Y-69939906D01*
X99609186Y-69939905D01*
X99422387Y-69900200D01*
X99231413Y-69900200D01*
X99044614Y-69939905D01*
X98870146Y-70017583D01*
X98715645Y-70129835D01*
X98587859Y-70271757D01*
X98492373Y-70437143D01*
X98492370Y-70437150D01*
X98433359Y-70618768D01*
X98433358Y-70618772D01*
X98426947Y-70679772D01*
X98415919Y-70784697D01*
X98389334Y-70849311D01*
X98380279Y-70859416D01*
X97966315Y-71273381D01*
X97904992Y-71306866D01*
X97878634Y-71309700D01*
X89982660Y-71309700D01*
X89915621Y-71290015D01*
X89869866Y-71237211D01*
X89859922Y-71168053D01*
X89864729Y-71147382D01*
X89873901Y-71119154D01*
X89893242Y-71059628D01*
X89913204Y-70869700D01*
X89893242Y-70679772D01*
X89834227Y-70498144D01*
X89738740Y-70332756D01*
X89626912Y-70208558D01*
X89596682Y-70145566D01*
X89605307Y-70076231D01*
X89631378Y-70037908D01*
X90264879Y-69404407D01*
X90326199Y-69370925D01*
X90395891Y-69375909D01*
X90451824Y-69417781D01*
X90469836Y-69451820D01*
X90471318Y-69456137D01*
X90564515Y-69668606D01*
X90648812Y-69797632D01*
X91317036Y-69129407D01*
X91334075Y-69192993D01*
X91399901Y-69307007D01*
X91492993Y-69400099D01*
X91607007Y-69465925D01*
X91670590Y-69482962D01*
X91001201Y-70152351D01*
X91031649Y-70176050D01*
X91235697Y-70286476D01*
X91235706Y-70286479D01*
X91455139Y-70361811D01*
X91683993Y-70400000D01*
X91916007Y-70400000D01*
X92144860Y-70361811D01*
X92364293Y-70286479D01*
X92364301Y-70286476D01*
X92568355Y-70176047D01*
X92598797Y-70152351D01*
X92598798Y-70152350D01*
X91929410Y-69482962D01*
X91992993Y-69465925D01*
X92107007Y-69400099D01*
X92200099Y-69307007D01*
X92265925Y-69192993D01*
X92282962Y-69129409D01*
X92951186Y-69797633D01*
X93035482Y-69668611D01*
X93128682Y-69456135D01*
X93185638Y-69231218D01*
X93204798Y-69000005D01*
X95386673Y-69000005D01*
X95405948Y-69232622D01*
X95463251Y-69458907D01*
X95557015Y-69672668D01*
X95684686Y-69868084D01*
X95841019Y-70037905D01*
X95842780Y-70039818D01*
X96026983Y-70183190D01*
X96026985Y-70183191D01*
X96026988Y-70183193D01*
X96088562Y-70216515D01*
X96232273Y-70294287D01*
X96344329Y-70332756D01*
X96453045Y-70370079D01*
X96453047Y-70370079D01*
X96453049Y-70370080D01*
X96683288Y-70408500D01*
X96683289Y-70408500D01*
X96916711Y-70408500D01*
X96916712Y-70408500D01*
X97146951Y-70370080D01*
X97367727Y-70294287D01*
X97573017Y-70183190D01*
X97757220Y-70039818D01*
X97915314Y-69868083D01*
X98042984Y-69672669D01*
X98136749Y-69458907D01*
X98194051Y-69232626D01*
X98206982Y-69076572D01*
X98213327Y-69000005D01*
X98213327Y-68999994D01*
X98194227Y-68769503D01*
X98194051Y-68767374D01*
X98136749Y-68541093D01*
X98042984Y-68327331D01*
X97956386Y-68194782D01*
X97915313Y-68131915D01*
X97757223Y-67960185D01*
X97757222Y-67960184D01*
X97757220Y-67960182D01*
X97573017Y-67816810D01*
X97573015Y-67816809D01*
X97573014Y-67816808D01*
X97573011Y-67816806D01*
X97367733Y-67705716D01*
X97367730Y-67705715D01*
X97367727Y-67705713D01*
X97367721Y-67705711D01*
X97367719Y-67705710D01*
X97146954Y-67629920D01*
X96967650Y-67600000D01*
X96916712Y-67591500D01*
X96683288Y-67591500D01*
X96637240Y-67599184D01*
X96453045Y-67629920D01*
X96232280Y-67705710D01*
X96232266Y-67705716D01*
X96026988Y-67816806D01*
X96026985Y-67816808D01*
X95842781Y-67960181D01*
X95842776Y-67960185D01*
X95684686Y-68131915D01*
X95557015Y-68327331D01*
X95463251Y-68541092D01*
X95405948Y-68767377D01*
X95386673Y-68999994D01*
X95386673Y-69000005D01*
X93204798Y-69000005D01*
X93204798Y-68999994D01*
X93185638Y-68768781D01*
X93128682Y-68543864D01*
X93035481Y-68331385D01*
X93033043Y-68326880D01*
X93035179Y-68325723D01*
X93017864Y-68268550D01*
X93036980Y-68201347D01*
X93089395Y-68155146D01*
X93141860Y-68143500D01*
X94498695Y-68143500D01*
X94498696Y-68143499D01*
X94621085Y-68119155D01*
X94736375Y-68071400D01*
X94840133Y-68002071D01*
X94939186Y-67903017D01*
X95000507Y-67869534D01*
X95026866Y-67866700D01*
X95083587Y-67866700D01*
X95270388Y-67826994D01*
X95444852Y-67749318D01*
X95599353Y-67637066D01*
X95727140Y-67495144D01*
X95822627Y-67329756D01*
X95881642Y-67148128D01*
X95901604Y-66958200D01*
X95881642Y-66768272D01*
X95863330Y-66711916D01*
X95861336Y-66642078D01*
X95897416Y-66582245D01*
X95960116Y-66551416D01*
X95981262Y-66549600D01*
X97568249Y-66549600D01*
X97635288Y-66569285D01*
X97660399Y-66590628D01*
X97689241Y-66622661D01*
X97689244Y-66622663D01*
X97689247Y-66622666D01*
X97843748Y-66734918D01*
X98018212Y-66812594D01*
X98205013Y-66852300D01*
X98395987Y-66852300D01*
X98582788Y-66812594D01*
X98757252Y-66734918D01*
X98911753Y-66622666D01*
X99039540Y-66480744D01*
X99135027Y-66315356D01*
X99194042Y-66133728D01*
X99214004Y-65943800D01*
X99194042Y-65753872D01*
X99135027Y-65572244D01*
X99039540Y-65406856D01*
X98911753Y-65264934D01*
X98757252Y-65152682D01*
X98582788Y-65075006D01*
X98582786Y-65075005D01*
X98395987Y-65035300D01*
X98205013Y-65035300D01*
X98018214Y-65075005D01*
X97843746Y-65152683D01*
X97778681Y-65199956D01*
X97697526Y-65258918D01*
X97631721Y-65282398D01*
X97624642Y-65282600D01*
X92081501Y-65282600D01*
X91959122Y-65306943D01*
X91959114Y-65306945D01*
X91843827Y-65354698D01*
X91843818Y-65354703D01*
X91740067Y-65424028D01*
X91740063Y-65424031D01*
X90323915Y-66840181D01*
X90262592Y-66873666D01*
X90236234Y-66876500D01*
X88347954Y-66876500D01*
X88280915Y-66856815D01*
X88255809Y-66835477D01*
X88203340Y-66777204D01*
X88048839Y-66664952D01*
X87874375Y-66587276D01*
X87874373Y-66587275D01*
X87687574Y-66547570D01*
X87496600Y-66547570D01*
X87309801Y-66587275D01*
X87309799Y-66587276D01*
X87146458Y-66660000D01*
X87135333Y-66664953D01*
X86980832Y-66777205D01*
X86976927Y-66781543D01*
X86917441Y-66818191D01*
X86884778Y-66822570D01*
X83647424Y-66822570D01*
X83522636Y-66822570D01*
X83502415Y-66826592D01*
X83437585Y-66839487D01*
X83367993Y-66833258D01*
X83312817Y-66790395D01*
X83289573Y-66724505D01*
X83305642Y-66656508D01*
X83325709Y-66630193D01*
X85939971Y-64015933D01*
X86008332Y-63913624D01*
X86012686Y-63907108D01*
X86013432Y-63907606D01*
X86029066Y-63886520D01*
X87485770Y-62429819D01*
X87547093Y-62396334D01*
X87573451Y-62393500D01*
X100092691Y-62393500D01*
X100159730Y-62413185D01*
X100184840Y-62434527D01*
X100188747Y-62438866D01*
X100343248Y-62551118D01*
X100517712Y-62628794D01*
X100704513Y-62668500D01*
X100895487Y-62668500D01*
X101082288Y-62628794D01*
X101256752Y-62551118D01*
X101411253Y-62438866D01*
X101539040Y-62296944D01*
X101634527Y-62131556D01*
X101693542Y-61949928D01*
X101713504Y-61760000D01*
X101693542Y-61570072D01*
X101634527Y-61388444D01*
X101539040Y-61223056D01*
X101411253Y-61081134D01*
X101256752Y-60968882D01*
X101082288Y-60891206D01*
X101082286Y-60891205D01*
X100895487Y-60851500D01*
X100704513Y-60851500D01*
X100517714Y-60891205D01*
X100343246Y-60968883D01*
X100188745Y-61081135D01*
X100184840Y-61085473D01*
X100125354Y-61122121D01*
X100092691Y-61126500D01*
X87197286Y-61126500D01*
X87074903Y-61150843D01*
X87074898Y-61150845D01*
X87041132Y-61164829D01*
X87041133Y-61164830D01*
X86959610Y-61198598D01*
X86959606Y-61198600D01*
X86855855Y-61267924D01*
X86855847Y-61267930D01*
X85260579Y-62863201D01*
X85044067Y-63079713D01*
X84999947Y-63123833D01*
X84955827Y-63167952D01*
X84883116Y-63276773D01*
X84882375Y-63276278D01*
X84866733Y-63297361D01*
X79323915Y-68840181D01*
X79262592Y-68873666D01*
X79236234Y-68876500D01*
X77876734Y-68876500D01*
X77809695Y-68856815D01*
X77763940Y-68804011D01*
X77753996Y-68734853D01*
X77783021Y-68671297D01*
X77841799Y-68633523D01*
X78191604Y-68530810D01*
X78191616Y-68530806D01*
X78567507Y-68380322D01*
X78567511Y-68380320D01*
X78927406Y-68194782D01*
X79268031Y-67975877D01*
X79586314Y-67725578D01*
X79625069Y-67688622D01*
X78133348Y-66196901D01*
X78220635Y-66129924D01*
X78419924Y-65930635D01*
X78486901Y-65843348D01*
X79977012Y-67333459D01*
X80144512Y-67140156D01*
X80144523Y-67140143D01*
X80379372Y-66810343D01*
X80379378Y-66810335D01*
X80581831Y-66459675D01*
X80750033Y-66091365D01*
X80750043Y-66091340D01*
X80882465Y-65708733D01*
X80882468Y-65708722D01*
X80977928Y-65315231D01*
X81035552Y-64914450D01*
X81054818Y-64510000D01*
X81035552Y-64105549D01*
X80977928Y-63704768D01*
X80882468Y-63311277D01*
X80882465Y-63311266D01*
X80750043Y-62928659D01*
X80750033Y-62928634D01*
X80581831Y-62560324D01*
X80379378Y-62209664D01*
X80379372Y-62209656D01*
X80144523Y-61879856D01*
X80144512Y-61879843D01*
X79977013Y-61686538D01*
X78486900Y-63176650D01*
X78419924Y-63089365D01*
X78220635Y-62890076D01*
X78133348Y-62823098D01*
X79625070Y-61331376D01*
X79586323Y-61294431D01*
X79586304Y-61294414D01*
X79268031Y-61044122D01*
X78927406Y-60825217D01*
X78567511Y-60639679D01*
X78567507Y-60639677D01*
X78191616Y-60489193D01*
X78191604Y-60489189D01*
X77803117Y-60375119D01*
X77803100Y-60375115D01*
X77405539Y-60298491D01*
X77405527Y-60298489D01*
X77002446Y-60260000D01*
X76597554Y-60260000D01*
X76194472Y-60298489D01*
X76194460Y-60298491D01*
X75796899Y-60375115D01*
X75796882Y-60375119D01*
X75408395Y-60489189D01*
X75408383Y-60489193D01*
X75032485Y-60639680D01*
X74672594Y-60825217D01*
X74331968Y-61044122D01*
X74013685Y-61294421D01*
X74013673Y-61294432D01*
X73974929Y-61331375D01*
X73974929Y-61331376D01*
X75466651Y-62823098D01*
X75379365Y-62890076D01*
X75180076Y-63089365D01*
X75113098Y-63176651D01*
X73622986Y-61686539D01*
X73455485Y-61879845D01*
X73220627Y-62209656D01*
X73220621Y-62209664D01*
X73018168Y-62560324D01*
X72849966Y-62928634D01*
X72849956Y-62928659D01*
X72717534Y-63311266D01*
X72717531Y-63311277D01*
X72622071Y-63704768D01*
X72564447Y-64105549D01*
X72545181Y-64510000D01*
X72564447Y-64914450D01*
X72622071Y-65315231D01*
X72717531Y-65708722D01*
X72717534Y-65708733D01*
X72849956Y-66091340D01*
X72849966Y-66091365D01*
X73018168Y-66459675D01*
X73220621Y-66810335D01*
X73220627Y-66810343D01*
X73455485Y-67140154D01*
X73622985Y-67333460D01*
X75113098Y-65843347D01*
X75180076Y-65930635D01*
X75379365Y-66129924D01*
X75466650Y-66196900D01*
X73974928Y-67688622D01*
X74013676Y-67725568D01*
X74013695Y-67725585D01*
X74331968Y-67975877D01*
X74672594Y-68194782D01*
X75032485Y-68380319D01*
X75408383Y-68530806D01*
X75408395Y-68530810D01*
X75758201Y-68633523D01*
X75816979Y-68671297D01*
X75846004Y-68734853D01*
X75836060Y-68804012D01*
X75790305Y-68856815D01*
X75723266Y-68876500D01*
X73863766Y-68876500D01*
X73796727Y-68856815D01*
X73776085Y-68840181D01*
X70053836Y-65117931D01*
X70053832Y-65117928D01*
X69950081Y-65048603D01*
X69950072Y-65048598D01*
X69834785Y-65000845D01*
X69834777Y-65000843D01*
X69712398Y-64976500D01*
X69712394Y-64976500D01*
X67257309Y-64976500D01*
X67190270Y-64956815D01*
X67165160Y-64935473D01*
X67161254Y-64931135D01*
X67160166Y-64930344D01*
X67006752Y-64818882D01*
X66832288Y-64741206D01*
X66832286Y-64741205D01*
X66645487Y-64701500D01*
X66454513Y-64701500D01*
X66267714Y-64741205D01*
X66093246Y-64818883D01*
X65938745Y-64931135D01*
X65810959Y-65073057D01*
X65715473Y-65238443D01*
X65715470Y-65238450D01*
X65656459Y-65420068D01*
X65656458Y-65420072D01*
X65636496Y-65610000D01*
X65656458Y-65799928D01*
X65656459Y-65799931D01*
X65715470Y-65981549D01*
X65715473Y-65981556D01*
X65810960Y-66146944D01*
X65938747Y-66288866D01*
X66093248Y-66401118D01*
X66267712Y-66478794D01*
X66454513Y-66518500D01*
X66645487Y-66518500D01*
X66832288Y-66478794D01*
X67006752Y-66401118D01*
X67161253Y-66288866D01*
X67165160Y-66284527D01*
X67224646Y-66247879D01*
X67257309Y-66243500D01*
X69336234Y-66243500D01*
X69403273Y-66263185D01*
X69423915Y-66279819D01*
X69832907Y-66688811D01*
X69866392Y-66750134D01*
X69861408Y-66819826D01*
X69819536Y-66875759D01*
X69754072Y-66900176D01*
X69721035Y-66898109D01*
X69612398Y-66876500D01*
X69612394Y-66876500D01*
X64702294Y-66876500D01*
X57994767Y-66876500D01*
X57927728Y-66856815D01*
X57881973Y-66804011D01*
X57873901Y-66774453D01*
X57873092Y-66774625D01*
X57871742Y-66768274D01*
X57871742Y-66768272D01*
X57818917Y-66605694D01*
X57812729Y-66586650D01*
X57812728Y-66586649D01*
X57812727Y-66586644D01*
X57717240Y-66421256D01*
X57589453Y-66279334D01*
X57434952Y-66167082D01*
X57260488Y-66089406D01*
X57260486Y-66089405D01*
X57073687Y-66049700D01*
X56882713Y-66049700D01*
X56695914Y-66089405D01*
X56653125Y-66108456D01*
X56560249Y-66149807D01*
X56521446Y-66167083D01*
X56366945Y-66279335D01*
X56239159Y-66421257D01*
X56143673Y-66586643D01*
X56143670Y-66586650D01*
X56084659Y-66768268D01*
X56084658Y-66768272D01*
X56064696Y-66958200D01*
X54406531Y-66958200D01*
X54452223Y-57500005D01*
X60636673Y-57500005D01*
X60655948Y-57732622D01*
X60713251Y-57958907D01*
X60807015Y-58172668D01*
X60934686Y-58368084D01*
X61092776Y-58539814D01*
X61092780Y-58539818D01*
X61276983Y-58683190D01*
X61276985Y-58683191D01*
X61276988Y-58683193D01*
X61396331Y-58747777D01*
X61482273Y-58794287D01*
X61530330Y-58810785D01*
X61703045Y-58870079D01*
X61703047Y-58870079D01*
X61703049Y-58870080D01*
X61933288Y-58908500D01*
X61933289Y-58908500D01*
X62166711Y-58908500D01*
X62166712Y-58908500D01*
X62396951Y-58870080D01*
X62617727Y-58794287D01*
X62823017Y-58683190D01*
X63007220Y-58539818D01*
X63165314Y-58368083D01*
X63201267Y-58313053D01*
X63254412Y-58267695D01*
X63323644Y-58258271D01*
X63386980Y-58287772D01*
X63395200Y-58297258D01*
X63398811Y-58297633D01*
X64067036Y-57629407D01*
X64084075Y-57692993D01*
X64149901Y-57807007D01*
X64242993Y-57900099D01*
X64357007Y-57965925D01*
X64420590Y-57982962D01*
X63751201Y-58652351D01*
X63781649Y-58676050D01*
X63985697Y-58786476D01*
X63985706Y-58786479D01*
X64205139Y-58861811D01*
X64433993Y-58900000D01*
X64666007Y-58900000D01*
X64894860Y-58861811D01*
X65114293Y-58786479D01*
X65114301Y-58786476D01*
X65318355Y-58676047D01*
X65348797Y-58652351D01*
X65348798Y-58652350D01*
X64679410Y-57982962D01*
X64742993Y-57965925D01*
X64857007Y-57900099D01*
X64950099Y-57807007D01*
X65015925Y-57692993D01*
X65032962Y-57629409D01*
X65701186Y-58297633D01*
X65710283Y-58296689D01*
X65744259Y-58267694D01*
X65813491Y-58258270D01*
X65876826Y-58287772D01*
X65898730Y-58313050D01*
X65934684Y-58368081D01*
X65934686Y-58368083D01*
X66092780Y-58539818D01*
X66276983Y-58683190D01*
X66276985Y-58683191D01*
X66276988Y-58683193D01*
X66396331Y-58747777D01*
X66482273Y-58794287D01*
X66530330Y-58810785D01*
X66703045Y-58870079D01*
X66703047Y-58870079D01*
X66703049Y-58870080D01*
X66933288Y-58908500D01*
X66933289Y-58908500D01*
X67166711Y-58908500D01*
X67166712Y-58908500D01*
X67396951Y-58870080D01*
X67617727Y-58794287D01*
X67823017Y-58683190D01*
X68007220Y-58539818D01*
X68165314Y-58368083D01*
X68196191Y-58320821D01*
X68249337Y-58275465D01*
X68318568Y-58266041D01*
X68381904Y-58295542D01*
X68403809Y-58320822D01*
X68434686Y-58368084D01*
X68592776Y-58539814D01*
X68592780Y-58539818D01*
X68776983Y-58683190D01*
X68776985Y-58683191D01*
X68776988Y-58683193D01*
X68896331Y-58747777D01*
X68982273Y-58794287D01*
X69030330Y-58810785D01*
X69203045Y-58870079D01*
X69203047Y-58870079D01*
X69203049Y-58870080D01*
X69433288Y-58908500D01*
X69433289Y-58908500D01*
X69666711Y-58908500D01*
X69666712Y-58908500D01*
X69896951Y-58870080D01*
X70117727Y-58794287D01*
X70323017Y-58683190D01*
X70507220Y-58539818D01*
X70665314Y-58368083D01*
X70792984Y-58172669D01*
X70886749Y-57958907D01*
X70944051Y-57732626D01*
X70957224Y-57573658D01*
X70963327Y-57500005D01*
X70963327Y-57499994D01*
X70947335Y-57307007D01*
X70944051Y-57267374D01*
X70886749Y-57041093D01*
X70792984Y-56827331D01*
X70665314Y-56631917D01*
X70665313Y-56631915D01*
X70507223Y-56460185D01*
X70507222Y-56460184D01*
X70507220Y-56460182D01*
X70323017Y-56316810D01*
X70323015Y-56316809D01*
X70323014Y-56316808D01*
X70323011Y-56316806D01*
X70117733Y-56205716D01*
X70117730Y-56205715D01*
X70117727Y-56205713D01*
X70117721Y-56205711D01*
X70117719Y-56205710D01*
X69896954Y-56129920D01*
X69724271Y-56101105D01*
X69666712Y-56091500D01*
X69558205Y-56091500D01*
X69491166Y-56071815D01*
X69445411Y-56019011D01*
X69435467Y-55949853D01*
X69454397Y-55899678D01*
X69454903Y-55898902D01*
X69454906Y-55898900D01*
X69587109Y-55696549D01*
X69684203Y-55475197D01*
X69743539Y-55240884D01*
X69763499Y-55000000D01*
X69759908Y-54956665D01*
X69743539Y-54759119D01*
X69743539Y-54759116D01*
X69684203Y-54524803D01*
X69587109Y-54303451D01*
X69454906Y-54101100D01*
X69291201Y-53923269D01*
X69291196Y-53923265D01*
X69291194Y-53923263D01*
X69100466Y-53774813D01*
X69100460Y-53774809D01*
X68887882Y-53659767D01*
X68887873Y-53659764D01*
X68659271Y-53581284D01*
X68471793Y-53550000D01*
X68420855Y-53541500D01*
X68179145Y-53541500D01*
X68131462Y-53549456D01*
X67940728Y-53581284D01*
X67712126Y-53659764D01*
X67712117Y-53659767D01*
X67499539Y-53774809D01*
X67499533Y-53774813D01*
X67308805Y-53923263D01*
X67308802Y-53923266D01*
X67145094Y-54101099D01*
X67136590Y-54114116D01*
X67083442Y-54159471D01*
X67019992Y-54169630D01*
X66987311Y-54166240D01*
X66282962Y-54870588D01*
X66265925Y-54807007D01*
X66200099Y-54692993D01*
X66107007Y-54599901D01*
X65992993Y-54534075D01*
X65929409Y-54517037D01*
X66634426Y-53812019D01*
X66634426Y-53812017D01*
X66595801Y-53781954D01*
X66595795Y-53781950D01*
X66384455Y-53667578D01*
X66384449Y-53667576D01*
X66157176Y-53589553D01*
X65920149Y-53550000D01*
X65679851Y-53550000D01*
X65442823Y-53589553D01*
X65215550Y-53667576D01*
X65215544Y-53667578D01*
X65004209Y-53781948D01*
X64965571Y-53812019D01*
X65670590Y-54517037D01*
X65607007Y-54534075D01*
X65492993Y-54599901D01*
X65399901Y-54692993D01*
X65334075Y-54807007D01*
X65317037Y-54870590D01*
X64612687Y-54166240D01*
X64580007Y-54169630D01*
X64511294Y-54156965D01*
X64463409Y-54114114D01*
X64454909Y-54101105D01*
X64454907Y-54101102D01*
X64454906Y-54101100D01*
X64291201Y-53923269D01*
X64216290Y-53864963D01*
X64175478Y-53808254D01*
X64171804Y-53738481D01*
X64204773Y-53679430D01*
X64741410Y-53142794D01*
X65323785Y-52560419D01*
X65385108Y-52526934D01*
X65411466Y-52524100D01*
X65468187Y-52524100D01*
X65654988Y-52484394D01*
X65829452Y-52406718D01*
X65983953Y-52294466D01*
X66111740Y-52152544D01*
X66207227Y-51987156D01*
X66266242Y-51805528D01*
X66286204Y-51615600D01*
X66266242Y-51425672D01*
X66207227Y-51244044D01*
X66111740Y-51078656D01*
X65983953Y-50936734D01*
X65829452Y-50824482D01*
X65654988Y-50746806D01*
X65654986Y-50746805D01*
X65468187Y-50707100D01*
X65277213Y-50707100D01*
X65090414Y-50746805D01*
X65008312Y-50783359D01*
X64924596Y-50820632D01*
X64915946Y-50824483D01*
X64761445Y-50936735D01*
X64633659Y-51078657D01*
X64538173Y-51244043D01*
X64538170Y-51244050D01*
X64483661Y-51411813D01*
X64479158Y-51425672D01*
X64464300Y-51567038D01*
X64461719Y-51591596D01*
X64435134Y-51656210D01*
X64426079Y-51666315D01*
X63178480Y-52913916D01*
X62896167Y-53196229D01*
X62852047Y-53240349D01*
X62807927Y-53284468D01*
X62738603Y-53388218D01*
X62738598Y-53388227D01*
X62690845Y-53503514D01*
X62690843Y-53503522D01*
X62665311Y-53631881D01*
X62663131Y-53631447D01*
X62640702Y-53686989D01*
X62602480Y-53719099D01*
X62499552Y-53774801D01*
X62499545Y-53774805D01*
X62308800Y-53923268D01*
X62145095Y-54101098D01*
X62145092Y-54101102D01*
X62012891Y-54303449D01*
X61915797Y-54524802D01*
X61856460Y-54759119D01*
X61836501Y-54999994D01*
X61836501Y-55000005D01*
X61856460Y-55240880D01*
X61915797Y-55475197D01*
X62012891Y-55696550D01*
X62076707Y-55794226D01*
X62145094Y-55898900D01*
X62145096Y-55898902D01*
X62145603Y-55899678D01*
X62165791Y-55966567D01*
X62146612Y-56033753D01*
X62094153Y-56079904D01*
X62041795Y-56091500D01*
X61933288Y-56091500D01*
X61887240Y-56099184D01*
X61703045Y-56129920D01*
X61482280Y-56205710D01*
X61482266Y-56205716D01*
X61276988Y-56316806D01*
X61276985Y-56316808D01*
X61092781Y-56460181D01*
X61092776Y-56460185D01*
X60934686Y-56631915D01*
X60807015Y-56827331D01*
X60713251Y-57041092D01*
X60655948Y-57267377D01*
X60636673Y-57499994D01*
X60636673Y-57500005D01*
X54452223Y-57500005D01*
X54497160Y-48198037D01*
X57841500Y-48198037D01*
X57867240Y-48393541D01*
X57880144Y-48491557D01*
X57899421Y-48563501D01*
X57955945Y-48774456D01*
X57956769Y-48777529D01*
X58070067Y-49051052D01*
X58070070Y-49051059D01*
X58070071Y-49051060D01*
X58218096Y-49307447D01*
X58398324Y-49542326D01*
X58398330Y-49542333D01*
X58607666Y-49751669D01*
X58607673Y-49751675D01*
X58842552Y-49931903D01*
X59098939Y-50079928D01*
X59098940Y-50079929D01*
X59098943Y-50079930D01*
X59098948Y-50079933D01*
X59372471Y-50193231D01*
X59658443Y-50269856D01*
X59951970Y-50308500D01*
X59951977Y-50308500D01*
X60248023Y-50308500D01*
X60248030Y-50308500D01*
X60541557Y-50269856D01*
X60827529Y-50193231D01*
X61101052Y-50079933D01*
X61357448Y-49931903D01*
X61592328Y-49751674D01*
X61801674Y-49542328D01*
X61981903Y-49307448D01*
X62129933Y-49051052D01*
X62243231Y-48777529D01*
X62319856Y-48491557D01*
X62358499Y-48198037D01*
X69241500Y-48198037D01*
X69267240Y-48393541D01*
X69280144Y-48491557D01*
X69299421Y-48563501D01*
X69355945Y-48774456D01*
X69356769Y-48777529D01*
X69470067Y-49051052D01*
X69470070Y-49051059D01*
X69470071Y-49051060D01*
X69618096Y-49307447D01*
X69798324Y-49542326D01*
X69798330Y-49542333D01*
X70007666Y-49751669D01*
X70007673Y-49751675D01*
X70242552Y-49931903D01*
X70498939Y-50079928D01*
X70498940Y-50079929D01*
X70498943Y-50079930D01*
X70498948Y-50079933D01*
X70772471Y-50193231D01*
X71058443Y-50269856D01*
X71351970Y-50308500D01*
X71351977Y-50308500D01*
X71648023Y-50308500D01*
X71648030Y-50308500D01*
X71941557Y-50269856D01*
X72227529Y-50193231D01*
X72501052Y-50079933D01*
X72757448Y-49931903D01*
X72992328Y-49751674D01*
X73201674Y-49542328D01*
X73381903Y-49307448D01*
X73529933Y-49051052D01*
X73643231Y-48777529D01*
X73714914Y-48510000D01*
X83636496Y-48510000D01*
X83656458Y-48699928D01*
X83656459Y-48699931D01*
X83715470Y-48881549D01*
X83715473Y-48881556D01*
X83810960Y-49046944D01*
X83938747Y-49188866D01*
X84093248Y-49301118D01*
X84267712Y-49378794D01*
X84421146Y-49411407D01*
X84482627Y-49444599D01*
X84483045Y-49445016D01*
X85838354Y-50800325D01*
X85838358Y-50800328D01*
X85954393Y-50877861D01*
X85954400Y-50877865D01*
X86024980Y-50907100D01*
X86083338Y-50931273D01*
X86220214Y-50958499D01*
X86220218Y-50958500D01*
X86220219Y-50958500D01*
X93879784Y-50958500D01*
X93972918Y-50939974D01*
X93989207Y-50936734D01*
X94016662Y-50931273D01*
X94054427Y-50915630D01*
X94145601Y-50877865D01*
X94261643Y-50800328D01*
X94616956Y-50445014D01*
X94678277Y-50411531D01*
X94678604Y-50411460D01*
X94832288Y-50378794D01*
X95006752Y-50301118D01*
X95161253Y-50188866D01*
X95289040Y-50046944D01*
X95384527Y-49881556D01*
X95443542Y-49699928D01*
X95463504Y-49510000D01*
X95443542Y-49320072D01*
X95388495Y-49150658D01*
X95384529Y-49138450D01*
X95384528Y-49138449D01*
X95384527Y-49138444D01*
X95289040Y-48973056D01*
X95161253Y-48831134D01*
X95006752Y-48718882D01*
X94832288Y-48641206D01*
X94832286Y-48641205D01*
X94645487Y-48601500D01*
X94454513Y-48601500D01*
X94267714Y-48641205D01*
X94093246Y-48718883D01*
X93938745Y-48831135D01*
X93810959Y-48973057D01*
X93715473Y-49138443D01*
X93715470Y-49138450D01*
X93656459Y-49320067D01*
X93656459Y-49320068D01*
X93656458Y-49320072D01*
X93654660Y-49337179D01*
X93651476Y-49367473D01*
X93624890Y-49432087D01*
X93615838Y-49442189D01*
X93552849Y-49505180D01*
X93491526Y-49538666D01*
X93465166Y-49541500D01*
X90553756Y-49541500D01*
X90486717Y-49521815D01*
X90440962Y-49469011D01*
X90431018Y-49399853D01*
X90455380Y-49342014D01*
X90472220Y-49320067D01*
X90481903Y-49307448D01*
X90629933Y-49051052D01*
X90743231Y-48777529D01*
X90819856Y-48491557D01*
X90858500Y-48198030D01*
X90858500Y-45801970D01*
X90819856Y-45508443D01*
X90743231Y-45222471D01*
X90629933Y-44948948D01*
X90629930Y-44948943D01*
X90629929Y-44948940D01*
X90629928Y-44948939D01*
X90481903Y-44692552D01*
X90301675Y-44457673D01*
X90301669Y-44457666D01*
X90092333Y-44248330D01*
X90092326Y-44248324D01*
X89857447Y-44068096D01*
X89844117Y-44060400D01*
X92722096Y-44060400D01*
X92742058Y-44250328D01*
X92742059Y-44250331D01*
X92801070Y-44431949D01*
X92801073Y-44431956D01*
X92896560Y-44597344D01*
X93024347Y-44739266D01*
X93178848Y-44851518D01*
X93353312Y-44929194D01*
X93540113Y-44968900D01*
X93731087Y-44968900D01*
X93917888Y-44929194D01*
X94092352Y-44851518D01*
X94246853Y-44739266D01*
X94374640Y-44597344D01*
X94470127Y-44431956D01*
X94523698Y-44267081D01*
X94563135Y-44209406D01*
X94627494Y-44182208D01*
X94641629Y-44181400D01*
X98275235Y-44181400D01*
X98342274Y-44201085D01*
X98388029Y-44253889D01*
X98397973Y-44323047D01*
X98368948Y-44386603D01*
X98362916Y-44393081D01*
X98298330Y-44457666D01*
X98298324Y-44457673D01*
X98118096Y-44692552D01*
X97970071Y-44948939D01*
X97970070Y-44948940D01*
X97856772Y-45222464D01*
X97856767Y-45222477D01*
X97780145Y-45508440D01*
X97780143Y-45508451D01*
X97741500Y-45801962D01*
X97741500Y-48198037D01*
X97767240Y-48393541D01*
X97780144Y-48491557D01*
X97799421Y-48563501D01*
X97855945Y-48774456D01*
X97856769Y-48777529D01*
X97970067Y-49051052D01*
X97970070Y-49051059D01*
X97970071Y-49051060D01*
X98118096Y-49307447D01*
X98298324Y-49542326D01*
X98298330Y-49542333D01*
X98507666Y-49751669D01*
X98507673Y-49751675D01*
X98742552Y-49931903D01*
X98998939Y-50079928D01*
X98998940Y-50079929D01*
X98998943Y-50079930D01*
X98998948Y-50079933D01*
X99272471Y-50193231D01*
X99558443Y-50269856D01*
X99851970Y-50308500D01*
X99851977Y-50308500D01*
X100148023Y-50308500D01*
X100148030Y-50308500D01*
X100441557Y-50269856D01*
X100727529Y-50193231D01*
X101001052Y-50079933D01*
X101257448Y-49931903D01*
X101492328Y-49751674D01*
X101701674Y-49542328D01*
X101881903Y-49307448D01*
X102029933Y-49051052D01*
X102143231Y-48777529D01*
X102219856Y-48491557D01*
X102258500Y-48198030D01*
X102258500Y-45801970D01*
X102219856Y-45508443D01*
X102143231Y-45222471D01*
X102029933Y-44948948D01*
X102029930Y-44948943D01*
X102029929Y-44948940D01*
X102029928Y-44948939D01*
X101881903Y-44692552D01*
X101701675Y-44457673D01*
X101701669Y-44457666D01*
X101637084Y-44393081D01*
X101603599Y-44331758D01*
X101608583Y-44262066D01*
X101650455Y-44206133D01*
X101715919Y-44181716D01*
X101724765Y-44181400D01*
X115375235Y-44181400D01*
X115442274Y-44201085D01*
X115488029Y-44253889D01*
X115497973Y-44323047D01*
X115468948Y-44386603D01*
X115462916Y-44393081D01*
X115398330Y-44457666D01*
X115398324Y-44457673D01*
X115218096Y-44692552D01*
X115070071Y-44948939D01*
X115070070Y-44948940D01*
X114956772Y-45222464D01*
X114956767Y-45222477D01*
X114880145Y-45508440D01*
X114880143Y-45508451D01*
X114841500Y-45801962D01*
X114841500Y-48198037D01*
X114867240Y-48393541D01*
X114880144Y-48491557D01*
X114899421Y-48563501D01*
X114955945Y-48774456D01*
X114956769Y-48777529D01*
X115070067Y-49051052D01*
X115070070Y-49051059D01*
X115070071Y-49051060D01*
X115218096Y-49307447D01*
X115398324Y-49542326D01*
X115398330Y-49542333D01*
X115607666Y-49751669D01*
X115607673Y-49751675D01*
X115842552Y-49931903D01*
X116098939Y-50079928D01*
X116098940Y-50079929D01*
X116098943Y-50079930D01*
X116098948Y-50079933D01*
X116372471Y-50193231D01*
X116658443Y-50269856D01*
X116951970Y-50308500D01*
X116951977Y-50308500D01*
X117248023Y-50308500D01*
X117248030Y-50308500D01*
X117541557Y-50269856D01*
X117827529Y-50193231D01*
X118101052Y-50079933D01*
X118357448Y-49931903D01*
X118592328Y-49751674D01*
X118801674Y-49542328D01*
X118981903Y-49307448D01*
X119129933Y-49051052D01*
X119243231Y-48777529D01*
X119319856Y-48491557D01*
X119358500Y-48198030D01*
X119358500Y-45801970D01*
X119319856Y-45508443D01*
X119243231Y-45222471D01*
X119129933Y-44948948D01*
X119129930Y-44948943D01*
X119129929Y-44948940D01*
X119129928Y-44948939D01*
X118981903Y-44692552D01*
X118902769Y-44589421D01*
X118877575Y-44524252D01*
X118891614Y-44455807D01*
X118940428Y-44405817D01*
X118950691Y-44400664D01*
X119089152Y-44339018D01*
X119243653Y-44226766D01*
X119371440Y-44084844D01*
X119466927Y-43919456D01*
X119525942Y-43737828D01*
X119545904Y-43547900D01*
X119525942Y-43357972D01*
X119466927Y-43176344D01*
X119371440Y-43010956D01*
X119243653Y-42869034D01*
X119089152Y-42756782D01*
X118914688Y-42679106D01*
X118914686Y-42679105D01*
X118727887Y-42639400D01*
X118536913Y-42639400D01*
X118350114Y-42679105D01*
X118175646Y-42756783D01*
X118021145Y-42869035D01*
X118017240Y-42873373D01*
X117957754Y-42910021D01*
X117925091Y-42914400D01*
X112438431Y-42914400D01*
X112371392Y-42894715D01*
X112325637Y-42841911D01*
X112315693Y-42772753D01*
X112320725Y-42751396D01*
X112347887Y-42669426D01*
X112358500Y-42565545D01*
X112358499Y-40774456D01*
X112347887Y-40670574D01*
X112292115Y-40502262D01*
X112290723Y-40500005D01*
X118895202Y-40500005D01*
X118914361Y-40731218D01*
X118971317Y-40956135D01*
X119064515Y-41168606D01*
X119148812Y-41297633D01*
X119817037Y-40629408D01*
X119834075Y-40692993D01*
X119899901Y-40807007D01*
X119992993Y-40900099D01*
X120107007Y-40965925D01*
X120170590Y-40982962D01*
X119501201Y-41652351D01*
X119531649Y-41676050D01*
X119735697Y-41786476D01*
X119735706Y-41786479D01*
X119955139Y-41861811D01*
X120183993Y-41900000D01*
X120416007Y-41900000D01*
X120644860Y-41861811D01*
X120864293Y-41786479D01*
X120864301Y-41786476D01*
X121068355Y-41676047D01*
X121098797Y-41652351D01*
X121098798Y-41652350D01*
X120429410Y-40982962D01*
X120492993Y-40965925D01*
X120607007Y-40900099D01*
X120700099Y-40807007D01*
X120765925Y-40692993D01*
X120782962Y-40629409D01*
X121451186Y-41297633D01*
X121535482Y-41168611D01*
X121628682Y-40956135D01*
X121685638Y-40731218D01*
X121704798Y-40500005D01*
X123886673Y-40500005D01*
X123905948Y-40732622D01*
X123963251Y-40958907D01*
X124057015Y-41172668D01*
X124184686Y-41368084D01*
X124342776Y-41539814D01*
X124342780Y-41539818D01*
X124526983Y-41683190D01*
X124526985Y-41683191D01*
X124526988Y-41683193D01*
X124646331Y-41747777D01*
X124732273Y-41794287D01*
X124846914Y-41833643D01*
X124953045Y-41870079D01*
X124953047Y-41870079D01*
X124953049Y-41870080D01*
X125183288Y-41908500D01*
X125183289Y-41908500D01*
X125416711Y-41908500D01*
X125416712Y-41908500D01*
X125646951Y-41870080D01*
X125867727Y-41794287D01*
X126073017Y-41683190D01*
X126257220Y-41539818D01*
X126415314Y-41368083D01*
X126542984Y-41172669D01*
X126636749Y-40958907D01*
X126694051Y-40732626D01*
X126702618Y-40629236D01*
X126713327Y-40500005D01*
X147395202Y-40500005D01*
X147414361Y-40731218D01*
X147471317Y-40956135D01*
X147564515Y-41168606D01*
X147648812Y-41297633D01*
X148317037Y-40629408D01*
X148334075Y-40692993D01*
X148399901Y-40807007D01*
X148492993Y-40900099D01*
X148607007Y-40965925D01*
X148670590Y-40982962D01*
X148001201Y-41652351D01*
X148031649Y-41676050D01*
X148235697Y-41786476D01*
X148235706Y-41786479D01*
X148455139Y-41861811D01*
X148683993Y-41900000D01*
X148916007Y-41900000D01*
X149144860Y-41861811D01*
X149364293Y-41786479D01*
X149364301Y-41786476D01*
X149568355Y-41676047D01*
X149598797Y-41652351D01*
X149598798Y-41652350D01*
X148929410Y-40982962D01*
X148992993Y-40965925D01*
X149107007Y-40900099D01*
X149200099Y-40807007D01*
X149265925Y-40692993D01*
X149282962Y-40629409D01*
X149951186Y-41297633D01*
X150035482Y-41168611D01*
X150128682Y-40956135D01*
X150185638Y-40731218D01*
X150204798Y-40500005D01*
X152386673Y-40500005D01*
X152405948Y-40732622D01*
X152463251Y-40958907D01*
X152557015Y-41172668D01*
X152684686Y-41368084D01*
X152842776Y-41539814D01*
X152842780Y-41539818D01*
X153026983Y-41683190D01*
X153026985Y-41683191D01*
X153026988Y-41683193D01*
X153146331Y-41747777D01*
X153232273Y-41794287D01*
X153346914Y-41833643D01*
X153453045Y-41870079D01*
X153453047Y-41870079D01*
X153453049Y-41870080D01*
X153683288Y-41908500D01*
X153683289Y-41908500D01*
X153916711Y-41908500D01*
X153916712Y-41908500D01*
X154146951Y-41870080D01*
X154367727Y-41794287D01*
X154573017Y-41683190D01*
X154757220Y-41539818D01*
X154915314Y-41368083D01*
X155042984Y-41172669D01*
X155136749Y-40958907D01*
X155194051Y-40732626D01*
X155202618Y-40629236D01*
X155213327Y-40500005D01*
X155213327Y-40499994D01*
X155197335Y-40307007D01*
X155194051Y-40267374D01*
X155136749Y-40041093D01*
X155042984Y-39827331D01*
X154915314Y-39631917D01*
X154915313Y-39631915D01*
X154757223Y-39460185D01*
X154757222Y-39460184D01*
X154757220Y-39460182D01*
X154573017Y-39316810D01*
X154573015Y-39316809D01*
X154573014Y-39316808D01*
X154573011Y-39316806D01*
X154367733Y-39205716D01*
X154367730Y-39205715D01*
X154367727Y-39205713D01*
X154367721Y-39205711D01*
X154367719Y-39205710D01*
X154146954Y-39129920D01*
X153967650Y-39100000D01*
X153916712Y-39091500D01*
X153683288Y-39091500D01*
X153637240Y-39099184D01*
X153453045Y-39129920D01*
X153232280Y-39205710D01*
X153232266Y-39205716D01*
X153026988Y-39316806D01*
X153026985Y-39316808D01*
X152842781Y-39460181D01*
X152842776Y-39460185D01*
X152684686Y-39631915D01*
X152557015Y-39827331D01*
X152463251Y-40041092D01*
X152405948Y-40267377D01*
X152386673Y-40499994D01*
X152386673Y-40500005D01*
X150204798Y-40500005D01*
X150204798Y-40499994D01*
X150185638Y-40268781D01*
X150128682Y-40043864D01*
X150035484Y-39831393D01*
X149951186Y-39702365D01*
X149282962Y-40370589D01*
X149265925Y-40307007D01*
X149200099Y-40192993D01*
X149107007Y-40099901D01*
X148992993Y-40034075D01*
X148929409Y-40017037D01*
X149598797Y-39347647D01*
X149598797Y-39347645D01*
X149568360Y-39323955D01*
X149568354Y-39323951D01*
X149364302Y-39213523D01*
X149364293Y-39213520D01*
X149144860Y-39138188D01*
X148916007Y-39100000D01*
X148683993Y-39100000D01*
X148455139Y-39138188D01*
X148235706Y-39213520D01*
X148235697Y-39213523D01*
X148031650Y-39323949D01*
X148001200Y-39347647D01*
X148670591Y-40017037D01*
X148607007Y-40034075D01*
X148492993Y-40099901D01*
X148399901Y-40192993D01*
X148334075Y-40307007D01*
X148317037Y-40370591D01*
X147648811Y-39702365D01*
X147564516Y-39831390D01*
X147471317Y-40043864D01*
X147414361Y-40268781D01*
X147395202Y-40499994D01*
X147395202Y-40500005D01*
X126713327Y-40500005D01*
X126713327Y-40499994D01*
X126697335Y-40307007D01*
X126694051Y-40267374D01*
X126636749Y-40041093D01*
X126542984Y-39827331D01*
X126415314Y-39631917D01*
X126415313Y-39631915D01*
X126257223Y-39460185D01*
X126257222Y-39460184D01*
X126257220Y-39460182D01*
X126073017Y-39316810D01*
X126073015Y-39316809D01*
X126073014Y-39316808D01*
X126073011Y-39316806D01*
X125867733Y-39205716D01*
X125867730Y-39205715D01*
X125867727Y-39205713D01*
X125867721Y-39205711D01*
X125867719Y-39205710D01*
X125646954Y-39129920D01*
X125467650Y-39100000D01*
X125416712Y-39091500D01*
X125183288Y-39091500D01*
X125137240Y-39099184D01*
X124953045Y-39129920D01*
X124732280Y-39205710D01*
X124732266Y-39205716D01*
X124526988Y-39316806D01*
X124526985Y-39316808D01*
X124342781Y-39460181D01*
X124342776Y-39460185D01*
X124184686Y-39631915D01*
X124057015Y-39827331D01*
X123963251Y-40041092D01*
X123905948Y-40267377D01*
X123886673Y-40499994D01*
X123886673Y-40500005D01*
X121704798Y-40500005D01*
X121704798Y-40499994D01*
X121685638Y-40268781D01*
X121628682Y-40043864D01*
X121535484Y-39831393D01*
X121451186Y-39702365D01*
X120782962Y-40370589D01*
X120765925Y-40307007D01*
X120700099Y-40192993D01*
X120607007Y-40099901D01*
X120492993Y-40034075D01*
X120429409Y-40017037D01*
X121098797Y-39347647D01*
X121098797Y-39347645D01*
X121068360Y-39323955D01*
X121068354Y-39323951D01*
X120864302Y-39213523D01*
X120864293Y-39213520D01*
X120644860Y-39138188D01*
X120416007Y-39100000D01*
X120183993Y-39100000D01*
X119955139Y-39138188D01*
X119735706Y-39213520D01*
X119735697Y-39213523D01*
X119531650Y-39323949D01*
X119501200Y-39347647D01*
X120170591Y-40017037D01*
X120107007Y-40034075D01*
X119992993Y-40099901D01*
X119899901Y-40192993D01*
X119834075Y-40307007D01*
X119817037Y-40370591D01*
X119148811Y-39702365D01*
X119064516Y-39831390D01*
X118971317Y-40043864D01*
X118914361Y-40268781D01*
X118895202Y-40499994D01*
X118895202Y-40500005D01*
X112290723Y-40500005D01*
X112199030Y-40351348D01*
X112073652Y-40225970D01*
X111922738Y-40132885D01*
X111824830Y-40100442D01*
X111754427Y-40077113D01*
X111650545Y-40066500D01*
X110309462Y-40066500D01*
X110309446Y-40066501D01*
X110205572Y-40077113D01*
X110037264Y-40132884D01*
X110037259Y-40132886D01*
X109886346Y-40225971D01*
X109760969Y-40351348D01*
X109665852Y-40505556D01*
X109613904Y-40552280D01*
X109544941Y-40563501D01*
X109480859Y-40535658D01*
X109472633Y-40528139D01*
X109338035Y-40393541D01*
X109338033Y-40393539D01*
X109162492Y-40266001D01*
X108969160Y-40167494D01*
X108762800Y-40100443D01*
X108762798Y-40100442D01*
X108762796Y-40100442D01*
X108548495Y-40066500D01*
X108548490Y-40066500D01*
X108331510Y-40066500D01*
X108331505Y-40066500D01*
X108117203Y-40100442D01*
X107910837Y-40167495D01*
X107717507Y-40266001D01*
X107661068Y-40307007D01*
X107541967Y-40393539D01*
X107541965Y-40393541D01*
X107541964Y-40393541D01*
X107388541Y-40546964D01*
X107388541Y-40546965D01*
X107388539Y-40546967D01*
X107327104Y-40631523D01*
X107265064Y-40716915D01*
X107209734Y-40759580D01*
X107140120Y-40765559D01*
X107078325Y-40732953D01*
X107064428Y-40716915D01*
X106944974Y-40552503D01*
X106944974Y-40552502D01*
X106792497Y-40400025D01*
X106618036Y-40273271D01*
X106425899Y-40175372D01*
X106220805Y-40108733D01*
X106150000Y-40097518D01*
X106150000Y-41127290D01*
X106129661Y-41115548D01*
X105978333Y-41075000D01*
X105821667Y-41075000D01*
X105670339Y-41115548D01*
X105650000Y-41127290D01*
X105650000Y-40097518D01*
X105649999Y-40097518D01*
X105579194Y-40108733D01*
X105374100Y-40175372D01*
X105181963Y-40273271D01*
X105007503Y-40400025D01*
X105007502Y-40400025D01*
X104855025Y-40552502D01*
X104855025Y-40552503D01*
X104728271Y-40726963D01*
X104630372Y-40919098D01*
X104563734Y-41124190D01*
X104530000Y-41337179D01*
X104530000Y-41420000D01*
X105357291Y-41420000D01*
X105345548Y-41440339D01*
X105305000Y-41591667D01*
X105305000Y-41748333D01*
X105345548Y-41899661D01*
X105357291Y-41920000D01*
X104530000Y-41920000D01*
X104530000Y-42002820D01*
X104563734Y-42215809D01*
X104630372Y-42420901D01*
X104728271Y-42613036D01*
X104804179Y-42717514D01*
X104827659Y-42783321D01*
X104811834Y-42851375D01*
X104761728Y-42900070D01*
X104703861Y-42914400D01*
X94085701Y-42914400D01*
X93963322Y-42938743D01*
X93963314Y-42938745D01*
X93848027Y-42986498D01*
X93848018Y-42986503D01*
X93744268Y-43055827D01*
X93714392Y-43085704D01*
X93684513Y-43115582D01*
X93623193Y-43149066D01*
X93596834Y-43151900D01*
X93540113Y-43151900D01*
X93353314Y-43191605D01*
X93178846Y-43269283D01*
X93024345Y-43381535D01*
X92896559Y-43523457D01*
X92801073Y-43688843D01*
X92801070Y-43688850D01*
X92742059Y-43870468D01*
X92742058Y-43870472D01*
X92722096Y-44060400D01*
X89844117Y-44060400D01*
X89601060Y-43920071D01*
X89601059Y-43920070D01*
X89481320Y-43870472D01*
X89327529Y-43806769D01*
X89041557Y-43730144D01*
X88992503Y-43723685D01*
X88748037Y-43691500D01*
X88748030Y-43691500D01*
X88451970Y-43691500D01*
X88451962Y-43691500D01*
X88172571Y-43728283D01*
X88158443Y-43730144D01*
X88063119Y-43755685D01*
X87872477Y-43806767D01*
X87872473Y-43806768D01*
X87872471Y-43806769D01*
X87872464Y-43806772D01*
X87598940Y-43920070D01*
X87598939Y-43920071D01*
X87342552Y-44068096D01*
X87107673Y-44248324D01*
X87107666Y-44248330D01*
X86898330Y-44457666D01*
X86898324Y-44457673D01*
X86718096Y-44692552D01*
X86570071Y-44948939D01*
X86570070Y-44948940D01*
X86456772Y-45222464D01*
X86456767Y-45222477D01*
X86380145Y-45508440D01*
X86380143Y-45508451D01*
X86341500Y-45801962D01*
X86341500Y-48198037D01*
X86367240Y-48393541D01*
X86380144Y-48491557D01*
X86399421Y-48563501D01*
X86455945Y-48774456D01*
X86456769Y-48777529D01*
X86570067Y-49051052D01*
X86570070Y-49051059D01*
X86570071Y-49051060D01*
X86718096Y-49307447D01*
X86744620Y-49342014D01*
X86769814Y-49407183D01*
X86755775Y-49475628D01*
X86706961Y-49525618D01*
X86646244Y-49541500D01*
X86634832Y-49541500D01*
X86567793Y-49521815D01*
X86547151Y-49505181D01*
X85484163Y-48442193D01*
X85450678Y-48380870D01*
X85448523Y-48367471D01*
X85446828Y-48351346D01*
X85443542Y-48320072D01*
X85384527Y-48138444D01*
X85289040Y-47973056D01*
X85161253Y-47831134D01*
X85006752Y-47718882D01*
X84832288Y-47641206D01*
X84832286Y-47641205D01*
X84645487Y-47601500D01*
X84454513Y-47601500D01*
X84267714Y-47641205D01*
X84093246Y-47718883D01*
X83938745Y-47831135D01*
X83810959Y-47973057D01*
X83715473Y-48138443D01*
X83715470Y-48138450D01*
X83656459Y-48320068D01*
X83656458Y-48320072D01*
X83636496Y-48510000D01*
X73714914Y-48510000D01*
X73719856Y-48491557D01*
X73758500Y-48198030D01*
X73758500Y-45801970D01*
X73719856Y-45508443D01*
X73643231Y-45222471D01*
X73529933Y-44948948D01*
X73529930Y-44948943D01*
X73529929Y-44948940D01*
X73529928Y-44948939D01*
X73381903Y-44692552D01*
X73201675Y-44457673D01*
X73201669Y-44457666D01*
X72992333Y-44248330D01*
X72992326Y-44248324D01*
X72757447Y-44068096D01*
X72501060Y-43920071D01*
X72501059Y-43920070D01*
X72381320Y-43870472D01*
X72227529Y-43806769D01*
X71941557Y-43730144D01*
X71892503Y-43723685D01*
X71648037Y-43691500D01*
X71648030Y-43691500D01*
X71351970Y-43691500D01*
X71351962Y-43691500D01*
X71072571Y-43728283D01*
X71058443Y-43730144D01*
X70963119Y-43755685D01*
X70772477Y-43806767D01*
X70772473Y-43806768D01*
X70772471Y-43806769D01*
X70772464Y-43806772D01*
X70498940Y-43920070D01*
X70498939Y-43920071D01*
X70242552Y-44068096D01*
X70007673Y-44248324D01*
X70007666Y-44248330D01*
X69798330Y-44457666D01*
X69798324Y-44457673D01*
X69618096Y-44692552D01*
X69470071Y-44948939D01*
X69470070Y-44948940D01*
X69356772Y-45222464D01*
X69356767Y-45222477D01*
X69280145Y-45508440D01*
X69280143Y-45508451D01*
X69241500Y-45801962D01*
X69241500Y-48198037D01*
X62358499Y-48198037D01*
X62358500Y-48198030D01*
X62358500Y-45801970D01*
X62319856Y-45508443D01*
X62243231Y-45222471D01*
X62129933Y-44948948D01*
X62129930Y-44948943D01*
X62129929Y-44948940D01*
X62129928Y-44948939D01*
X61981903Y-44692552D01*
X61801675Y-44457673D01*
X61801669Y-44457666D01*
X61592333Y-44248330D01*
X61592326Y-44248324D01*
X61357447Y-44068096D01*
X61101060Y-43920071D01*
X61101059Y-43920070D01*
X60981320Y-43870472D01*
X60827529Y-43806769D01*
X60541557Y-43730144D01*
X60492503Y-43723685D01*
X60248037Y-43691500D01*
X60248030Y-43691500D01*
X59951970Y-43691500D01*
X59951962Y-43691500D01*
X59672571Y-43728283D01*
X59658443Y-43730144D01*
X59563119Y-43755685D01*
X59372477Y-43806767D01*
X59372473Y-43806768D01*
X59372471Y-43806769D01*
X59372464Y-43806772D01*
X59098940Y-43920070D01*
X59098939Y-43920071D01*
X58842552Y-44068096D01*
X58607673Y-44248324D01*
X58607666Y-44248330D01*
X58398330Y-44457666D01*
X58398324Y-44457673D01*
X58218096Y-44692552D01*
X58070071Y-44948939D01*
X58070070Y-44948940D01*
X57956772Y-45222464D01*
X57956767Y-45222477D01*
X57880145Y-45508440D01*
X57880143Y-45508451D01*
X57841500Y-45801962D01*
X57841500Y-48198037D01*
X54497160Y-48198037D01*
X54534348Y-40500005D01*
X61895202Y-40500005D01*
X61914361Y-40731218D01*
X61971317Y-40956135D01*
X62064515Y-41168606D01*
X62148812Y-41297633D01*
X62817037Y-40629408D01*
X62834075Y-40692993D01*
X62899901Y-40807007D01*
X62992993Y-40900099D01*
X63107007Y-40965925D01*
X63170590Y-40982962D01*
X62501201Y-41652351D01*
X62531649Y-41676050D01*
X62735697Y-41786476D01*
X62735706Y-41786479D01*
X62955139Y-41861811D01*
X63183993Y-41900000D01*
X63416007Y-41900000D01*
X63644860Y-41861811D01*
X63864293Y-41786479D01*
X63864301Y-41786476D01*
X64068355Y-41676047D01*
X64098797Y-41652351D01*
X64098798Y-41652350D01*
X63429410Y-40982962D01*
X63492993Y-40965925D01*
X63607007Y-40900099D01*
X63700099Y-40807007D01*
X63765925Y-40692993D01*
X63782962Y-40629409D01*
X64451186Y-41297633D01*
X64535482Y-41168611D01*
X64628682Y-40956135D01*
X64685638Y-40731218D01*
X64704798Y-40500005D01*
X66886673Y-40500005D01*
X66905948Y-40732622D01*
X66963251Y-40958907D01*
X67057015Y-41172668D01*
X67184686Y-41368084D01*
X67342776Y-41539814D01*
X67342780Y-41539818D01*
X67526983Y-41683190D01*
X67526985Y-41683191D01*
X67526988Y-41683193D01*
X67646331Y-41747777D01*
X67732273Y-41794287D01*
X67846914Y-41833643D01*
X67953045Y-41870079D01*
X67953047Y-41870079D01*
X67953049Y-41870080D01*
X68183288Y-41908500D01*
X68183289Y-41908500D01*
X68416711Y-41908500D01*
X68416712Y-41908500D01*
X68646951Y-41870080D01*
X68867727Y-41794287D01*
X69073017Y-41683190D01*
X69257220Y-41539818D01*
X69415314Y-41368083D01*
X69542984Y-41172669D01*
X69636749Y-40958907D01*
X69694051Y-40732626D01*
X69702618Y-40629236D01*
X69713327Y-40500005D01*
X90395202Y-40500005D01*
X90414361Y-40731218D01*
X90471317Y-40956135D01*
X90564515Y-41168606D01*
X90648812Y-41297633D01*
X91317037Y-40629408D01*
X91334075Y-40692993D01*
X91399901Y-40807007D01*
X91492993Y-40900099D01*
X91607007Y-40965925D01*
X91670590Y-40982962D01*
X91001201Y-41652351D01*
X91031649Y-41676050D01*
X91235697Y-41786476D01*
X91235706Y-41786479D01*
X91455139Y-41861811D01*
X91683993Y-41900000D01*
X91916007Y-41900000D01*
X92144860Y-41861811D01*
X92364293Y-41786479D01*
X92364301Y-41786476D01*
X92568355Y-41676047D01*
X92598797Y-41652351D01*
X92598798Y-41652350D01*
X91929410Y-40982962D01*
X91992993Y-40965925D01*
X92107007Y-40900099D01*
X92200099Y-40807007D01*
X92265925Y-40692993D01*
X92282962Y-40629409D01*
X92951186Y-41297633D01*
X93035482Y-41168611D01*
X93128682Y-40956135D01*
X93185638Y-40731218D01*
X93204798Y-40500005D01*
X95386673Y-40500005D01*
X95405948Y-40732622D01*
X95463251Y-40958907D01*
X95557015Y-41172668D01*
X95684686Y-41368084D01*
X95842776Y-41539814D01*
X95842780Y-41539818D01*
X96026983Y-41683190D01*
X96026985Y-41683191D01*
X96026988Y-41683193D01*
X96146331Y-41747777D01*
X96232273Y-41794287D01*
X96346914Y-41833643D01*
X96453045Y-41870079D01*
X96453047Y-41870079D01*
X96453049Y-41870080D01*
X96683288Y-41908500D01*
X96683289Y-41908500D01*
X96916711Y-41908500D01*
X96916712Y-41908500D01*
X97146951Y-41870080D01*
X97367727Y-41794287D01*
X97573017Y-41683190D01*
X97757220Y-41539818D01*
X97915314Y-41368083D01*
X98042984Y-41172669D01*
X98136749Y-40958907D01*
X98194051Y-40732626D01*
X98202618Y-40629236D01*
X98213327Y-40500005D01*
X98213327Y-40499994D01*
X98197335Y-40307007D01*
X98194051Y-40267374D01*
X98136749Y-40041093D01*
X98042984Y-39827331D01*
X97915314Y-39631917D01*
X97915313Y-39631915D01*
X97757223Y-39460185D01*
X97757222Y-39460184D01*
X97757220Y-39460182D01*
X97573017Y-39316810D01*
X97573015Y-39316809D01*
X97573014Y-39316808D01*
X97573011Y-39316806D01*
X97367733Y-39205716D01*
X97367730Y-39205715D01*
X97367727Y-39205713D01*
X97367721Y-39205711D01*
X97367719Y-39205710D01*
X97146954Y-39129920D01*
X96967650Y-39100000D01*
X96916712Y-39091500D01*
X96683288Y-39091500D01*
X96637240Y-39099184D01*
X96453045Y-39129920D01*
X96232280Y-39205710D01*
X96232266Y-39205716D01*
X96026988Y-39316806D01*
X96026985Y-39316808D01*
X95842781Y-39460181D01*
X95842776Y-39460185D01*
X95684686Y-39631915D01*
X95557015Y-39827331D01*
X95463251Y-40041092D01*
X95405948Y-40267377D01*
X95386673Y-40499994D01*
X95386673Y-40500005D01*
X93204798Y-40500005D01*
X93204798Y-40499994D01*
X93185638Y-40268781D01*
X93128682Y-40043864D01*
X93035484Y-39831393D01*
X92951186Y-39702365D01*
X92282962Y-40370589D01*
X92265925Y-40307007D01*
X92200099Y-40192993D01*
X92107007Y-40099901D01*
X91992993Y-40034075D01*
X91929409Y-40017037D01*
X92598797Y-39347647D01*
X92598797Y-39347645D01*
X92568360Y-39323955D01*
X92568354Y-39323951D01*
X92364302Y-39213523D01*
X92364293Y-39213520D01*
X92144860Y-39138188D01*
X91916007Y-39100000D01*
X91683993Y-39100000D01*
X91455139Y-39138188D01*
X91235706Y-39213520D01*
X91235697Y-39213523D01*
X91031650Y-39323949D01*
X91001200Y-39347647D01*
X91670591Y-40017037D01*
X91607007Y-40034075D01*
X91492993Y-40099901D01*
X91399901Y-40192993D01*
X91334075Y-40307007D01*
X91317037Y-40370591D01*
X90648811Y-39702365D01*
X90564516Y-39831390D01*
X90471317Y-40043864D01*
X90414361Y-40268781D01*
X90395202Y-40499994D01*
X90395202Y-40500005D01*
X69713327Y-40500005D01*
X69713327Y-40499994D01*
X69697335Y-40307007D01*
X69694051Y-40267374D01*
X69636749Y-40041093D01*
X69542984Y-39827331D01*
X69415314Y-39631917D01*
X69415313Y-39631915D01*
X69257223Y-39460185D01*
X69257222Y-39460184D01*
X69257220Y-39460182D01*
X69073017Y-39316810D01*
X69073015Y-39316809D01*
X69073014Y-39316808D01*
X69073011Y-39316806D01*
X68867733Y-39205716D01*
X68867730Y-39205715D01*
X68867727Y-39205713D01*
X68867721Y-39205711D01*
X68867719Y-39205710D01*
X68646954Y-39129920D01*
X68467650Y-39100000D01*
X68416712Y-39091500D01*
X68183288Y-39091500D01*
X68137240Y-39099184D01*
X67953045Y-39129920D01*
X67732280Y-39205710D01*
X67732266Y-39205716D01*
X67526988Y-39316806D01*
X67526985Y-39316808D01*
X67342781Y-39460181D01*
X67342776Y-39460185D01*
X67184686Y-39631915D01*
X67057015Y-39827331D01*
X66963251Y-40041092D01*
X66905948Y-40267377D01*
X66886673Y-40499994D01*
X66886673Y-40500005D01*
X64704798Y-40500005D01*
X64704798Y-40499994D01*
X64685638Y-40268781D01*
X64628682Y-40043864D01*
X64535484Y-39831393D01*
X64451186Y-39702365D01*
X63782962Y-40370589D01*
X63765925Y-40307007D01*
X63700099Y-40192993D01*
X63607007Y-40099901D01*
X63492993Y-40034075D01*
X63429409Y-40017037D01*
X64098797Y-39347647D01*
X64098797Y-39347645D01*
X64068360Y-39323955D01*
X64068354Y-39323951D01*
X63864302Y-39213523D01*
X63864293Y-39213520D01*
X63644860Y-39138188D01*
X63416007Y-39100000D01*
X63183993Y-39100000D01*
X62955139Y-39138188D01*
X62735706Y-39213520D01*
X62735697Y-39213523D01*
X62531650Y-39323949D01*
X62501200Y-39347647D01*
X63170591Y-40017037D01*
X63107007Y-40034075D01*
X62992993Y-40099901D01*
X62899901Y-40192993D01*
X62834075Y-40307007D01*
X62817037Y-40370591D01*
X62148811Y-39702365D01*
X62064516Y-39831390D01*
X61971317Y-40043864D01*
X61914361Y-40268781D01*
X61895202Y-40499994D01*
X61895202Y-40500005D01*
X54534348Y-40500005D01*
X54549404Y-37383401D01*
X54569413Y-37316457D01*
X54622437Y-37270958D01*
X54673403Y-37260000D01*
X162926000Y-37260000D01*
X162993039Y-37279685D01*
G37*
%TD.AperFunction*%
%TD*%
M02*
