M48
; DRILL file {KiCad 8.0.1} date 2024-04-07T01:08:58+0800
; FORMAT={-:-/ absolute / inch / decimal}
; #@! TF.CreationDate,2024-04-07T01:08:58+08:00
; #@! TF.GenerationSoftware,Kicad,Pcbnew,8.0.1
; #@! TF.FileFunction,NonPlated,1,2,NPTH
FMAT,2
INCH
; #@! TA.AperFunction,NonPlated,NPTH,ComponentDrill
T1C0.0787
%
G90
G05
T1
G00X2.3661Y-1.8287
M15
G01X2.3661Y-1.872
M16
G05
G00X2.3661Y-2.9508
M15
G01X2.3661Y-2.9941
M16
G05
G00X2.815Y-1.8287
M15
G01X2.815Y-1.872
M16
G05
G00X2.815Y-2.9508
M15
G01X2.815Y-2.9941
M16
G05
G00X3.4882Y-1.8287
M15
G01X3.4882Y-1.872
M16
G05
G00X3.4882Y-2.9508
M15
G01X3.4882Y-2.9941
M16
G05
G00X3.937Y-1.8287
M15
G01X3.937Y-1.872
M16
G05
G00X3.937Y-2.9508
M15
G01X3.937Y-2.9941
M16
G05
G00X4.6102Y-1.8287
M15
G01X4.6102Y-1.872
M16
G05
G00X4.6102Y-2.9508
M15
G01X4.6102Y-2.9941
M16
G05
G00X5.0591Y-1.8287
M15
G01X5.0591Y-1.872
M16
G05
G00X5.0591Y-2.9508
M15
G01X5.0591Y-2.9941
M16
G05
G00X5.7323Y-1.8287
M15
G01X5.7323Y-1.872
M16
G05
G00X5.7323Y-2.9508
M15
G01X5.7323Y-2.9941
M16
G05
G00X6.1811Y-1.8287
M15
G01X6.1811Y-1.872
M16
G05
G00X6.1811Y-2.9508
M15
G01X6.1811Y-2.9941
M16
G05
M30
